<?xml version="1.0" encoding="UTF-8"?><svg id="uuid-2da23f10-1048-496e-996f-4fcb9f28320a" xmlns="http://www.w3.org/2000/svg" xmlns:xlink="http://www.w3.org/1999/xlink" viewBox="0 0 284.44 278.93" width="54" height="54"><defs><linearGradient id="uuid-f00fba59-7ca0-4a62-8f6f-b37cd67e4501" x1="75.4" y1="237.63" x2="75.4" y2="170.35" gradientTransform="translate(1.01 798.01) scale(2.69 -2.69)" gradientUnits="userSpaceOnUse"><stop offset="0" stop-color="#e52629"/><stop offset=".13" stop-color="#e52226"/><stop offset=".27" stop-color="#db1b22"/><stop offset=".42" stop-color="#c41a1e"/><stop offset=".58" stop-color="#a41a19"/><stop offset=".74" stop-color="#7b1714"/><stop offset=".75" stop-color="#781613"/></linearGradient><linearGradient id="uuid-e40f800e-d2f9-4c9f-935b-bab8422fa4e7" x1="44.76" y1="232.02" x2="69.32" y2="232.02" gradientTransform="translate(1.01 798.01) scale(2.69 -2.69)" gradientUnits="userSpaceOnUse"><stop offset="0" stop-color="#6a231d"/><stop offset=".26" stop-color="#8e2a22"/><stop offset=".58" stop-color="#b23127"/><stop offset=".84" stop-color="#ca3529"/><stop offset="1" stop-color="#d1342a"/></linearGradient><linearGradient id="uuid-e138e421-4358-4dc9-8b01-1fc13a42d606" x1="42.05" y1="235.63" x2="69.41" y2="252.07" gradientTransform="translate(1.01 798.01) scale(2.69 -2.69)" gradientUnits="userSpaceOnUse"><stop offset=".1" stop-color="#e8ecef"/><stop offset=".35" stop-color="#d5dce0"/><stop offset=".85" stop-color="#a5b4bc"/><stop offset="1" stop-color="#95a7b0"/></linearGradient><linearGradient id="uuid-ac3a8c25-f535-47b0-b20d-2140cff9efdb" x1="26.98" y1="249.46" x2="26.98" y2="295.95" gradientTransform="translate(1.01 798.01) scale(2.69 -2.69)" gradientUnits="userSpaceOnUse"><stop offset="0" stop-color="#25346d"/><stop offset=".13" stop-color="#194787"/><stop offset=".4" stop-color="#0a73b1"/><stop offset=".65" stop-color="#0992cd"/><stop offset=".86" stop-color="#10a7df"/><stop offset="1" stop-color="#15ade4"/></linearGradient></defs><g id="uuid-3cd9d86a-7b06-4dcf-bb42-d7a3d56b3788"><path d="M154.06,253.22c15.98,26.26,41.5,25.71,48.29,25.71h82.08l-96.83-117.52c-44.68,1.84-68.31,30.48-63.47,42.48l29.93,49.33Z" fill="url(#uuid-f00fba59-7ca0-4a62-8f6f-b37cd67e4501)"/><path d="M124.13,203.95c-.12-.18-2.63-6.12-2.63-13.28,0-26.81,23.81-42.23,50.8-47.74l15.3,18.55c-44.68,1.78-68.31,30.42-63.47,42.48Z" fill="url(#uuid-e40f800e-d2f9-4c9f-935b-bab8422fa4e7)"/><path d="M161.47,116.67c-40.83,0-71.31,6.73-71.31,22.71,0,5.88,1.84,10.96,6.86,19.95l27.12,44.56c-.12-.18-2.63-6.12-2.63-13.28,0-26.81,23.81-42.23,50.8-47.74,7.83-1.59,15.91-2.39,23.75-2.39,6.61,0,12.85,.37,17.63,2.08-2.82-10.28-10.28-25.89-52.21-25.89Z" fill="url(#uuid-e138e421-4358-4dc9-8b01-1fc13a42d606)"/><path d="M54.11,88.88c11.2,18.42,15.36,23.01,42.11,23.01h51.05L76.88,23.01C61.33,3.79,52.4,.31,38.13,0H0L54.11,88.88Z" fill="url(#uuid-ac3a8c25-f535-47b0-b20d-2140cff9efdb)"/></g></svg>