<?xml version="1.0" encoding="UTF-8"?>
<svg xmlns="http://www.w3.org/2000/svg" id="uuid-54577765-d5e3-4dd3-b106-45c428640c15" viewBox="0 0 21.3 20.8" width="54">
  <g id="uuid-18a22ef8-ee15-44aa-9e1e-4591052cc23f">
    <path d="M11,14.8c0-.7,.3-.8,1-.4,1.2,.7,2.4,1.3,2.4,1.3,0-.4,.4-.7,1.1-.5s1.4,.3,1.4,.3c0,0-.4-.9-.6-1.3-.3-.7,0-1.1,.3-1.2,0,0-.4-.3-.7-.5-.6-.4-.5-.9,.1-1.1,.8-.4,1.9-.8,1.9-.8-.3-.2-.7-.7-.3-1.4,.4-.6,1.1-1.5,1.1-1.5h-1.9c-.7,0-.9-.6-.9-1,0,0-1.1,.8-1.9,1.3-.7,.5-1.3,0-1.2-.8,.2-1.2,.3-2.6,.3-2.6-.4,.4-1.1,.3-1.5-.3-.5-1-1-2.2-1-2.2,0,0-.5,1.2-1,2.2-.3,.6-1,.7-1.4,.4,0,0,.1,1.4,.3,2.6,.1,.7-.5,1.2-1.2,.7-.8-.5-2-1.3-2-1.3,0,.4-.2,.9-.9,1h-1.9s.7,.9,1.1,1.5c.4,.6,0,1.2-.3,1.4,0,0,1,.5,1.9,.8,.6,.3,.8,.7,.1,1.1-.2,.2-.7,.5-.7,.5,.4,.1,.7,.5,.4,1.2-.2,.4-.6,1.3-.6,1.3,0,0,.7-.2,1.4-.3,.7-.2,1,.2,1.1,.5,0,0,1.2-.7,2.4-1.3,.6-.4,1-.2,1,.4v1.7c0,1-.2,2-.5,2.6C5.3,18.6,1.5,15,1.5,10.2S5.6,1.3,10.7,1.3s9.2,4,9.2,8.9c0,4.6-3.6,8.4-8.2,8.9v1.2c5.4-.5,9.6-4.8,9.6-10.1C21.3,4.5,16.5,0,10.6,0S0,4.5,0,10.1c0,4.9,3.7,9,8.6,9.9,.8,.2,1.3,.3,1.8,.8,.5-1,.6-3,.6-4.1v-1.9Z" fill="#e5232d"></path>
  </g>
</svg>
