<?xml version="1.0" encoding="UTF-8"?>
<svg xmlns="http://www.w3.org/2000/svg" xmlns:xlink="http://www.w3.org/1999/xlink" id="Layer_2" viewBox="0 0 300 75.02" width="54" height="54">
  <defs>
    <style>.cls-1{fill:url(#linear-gradient);}.cls-2{fill:#cf2517;}</style>
    <linearGradient id="linear-gradient" x1="268.55" y1="57.73" x2="230.74" y2="-7.75" gradientTransform="translate(0 75.13) scale(1 -1)" gradientUnits="userSpaceOnUse">
      <stop offset="0" stop-color="#e6ebef"></stop>
      <stop offset=".08" stop-color="#bbcee4"></stop>
      <stop offset=".19" stop-color="#85a9d8"></stop>
      <stop offset=".28" stop-color="#5d8ecb"></stop>
      <stop offset=".35" stop-color="#487dc0"></stop>
      <stop offset=".4" stop-color="#4076bb"></stop>
      <stop offset=".9" stop-color="#2f5d9a"></stop>
    </linearGradient>
  </defs>
  <g id="Layer_2-2">
    <path class="cls-1" d="M279.34,27.63c-8.47,8.42-26.82,15.65-35.85,19.03-12.34,4.63-17.81,6.27-24.71,8.52-7.81,2.53-23.44,7.26-23.44,7.26,32.37,9.67,55.19,12.58,55.19,12.58,0,0,10.63-3.29,27.47-12.29,9.12-4.63,13.6-7.75,16.81-10.74,1.18-1.07,4.24-4.25,5-8.32,.05-.3,.2-1.08,.2-1.84,0,0,0-.54-.05-1.01-.02-.54-.11-.9-.11-.9,0,0-.18-.97-.42-1.64-.25-.68-1.29-2.77-2.98-4.13-1.13-.92-3.08-3.2-10.14-5.68-2.4-.83-6.29-1.6-6.29-1.6l-.67,.76Z"></path>
    <path class="cls-2" d="M300,41.62s-.05-.9-.27-1.66c-.17-.68-.48-1.33-.93-2.01-.55-.81-1.3-1.77-2.4-2.82-.83-.78-1.74-1.48-2.84-2.21-4.42-2.89-10.12-4.52-15.16-5.21-7.82-1.04-16.79-.86-17.63-.89-2.88-.04-21.52,.11-26.31,.2-21.27,.44-47.31,.5-54.14,.5-70.43,.32-101.08-1.2-135.2-8.04C16.1,13.7,0,8.23,0,8.23,25.6,7.34,174.97,1.15,202.22,.42c17.84-.5,30.51-.61,40.64-.02,5.2,.29,10.03,.73,16.11,1.77,5.45,.93,10.39,2.51,13.27,3.58,6.07,2.25,11.18,5.5,13.71,8.82,0,0,.75,.77,1.76,2.13,1.14,1.58,2.46,3.53,2.91,4.25,3.69,5.6,5.45,9.11,6.06,10.34,.66,1.29,1.24,2.62,1.81,3.93,.55,1.3,.78,2.09,.96,2.64,.39,1.38,.48,2.63,.5,2.91l.05,.85Z"></path>
  </g>
</svg>
