<?xml version="1.0" encoding="UTF-8"?>
<svg xmlns="http://www.w3.org/2000/svg" id="Layer_2" viewBox="0 0 254.87 246.7" width="54" height="54">
  <defs>
    <style>.cls-1{fill:#f9ed32;}.cls-2{fill:#3cb14a;}.cls-3{fill:#82c341;}</style>
  </defs>
  <g id="Layer_1-2">
    <g>
      <path class="cls-3" d="M253.35,139.4c-5.1,16.4-22.1,31.8-42.5,35,3.3,5.1,4.8,11.4,4,18.4-2.2,19-20.4,34.3-39.9,34.5-13.2,.1-31.1-5.6-43.7-25.5-11.3-17.7-12.9-45.8-12.1-54.3-13.8,14.1-22.4,27.8-26.5,37.3-9.2,21.5-12.7,47.7-12.5,60,0,0-1.7,1.6-3.3,1.9-5.1-.9-9.5-2.8-12.8-5.7-4-3.6-4.9-7-4.9-7,6.1-30.5,15.8-49.5,30.3-71.2,19.5-29.3,49.6-47.4,85.3-58.3,25.8-7.9,52.6-9.6,71,6,9.9,8.2,10.5,20,7.6,28.9Zm-152-16.2c-6.1,10.2-22.8,26.6-36,35.1-27.5,17.6-47.3,18.8-57.2,12.5-1.2-.7-2.2-1.6-3.1-2.5-7.7-8.1-6.4-22.5,2.6-34.3,4.4-5.8,10.1-9.9,15.6-11.8-4.3-2-7.2-6.2-7.8-12.1-1.2-11.8,7.7-27.3,20-33.6,10.8-5.5,34.1-11,51.2,14.5,6.7,9.9,12.7,24,14.7,32.2h0ZM214.35,16c-1.5-14.7-17.2-20.1-34.5-12.7-8.2,3.5-15.4,9.4-20.5,16.1,.8-6.7-1.1-12.6-5.9-16.1-9.5-6.9-26.8-1.8-38.6,11-4.1,4.5-17.5,20.7-18.2,44.5-.3,11.5,4.8,37,21.6,54.6h0c44.8-16.9,68.9-42.8,78.1-53.5,10.6-12.4,15.1-23.3,17-31.3,1.4-6.3,1.2-10.8,1-12.6Z"></path>
      <path class="cls-2" d="M196.35,59.9c10.6-12.4,15.1-23.3,17-31.3,.1-.4,.2-.8,.3-1.3-2.2,8.9-21,31.9-47,51.5-27,20.3-42.4,30.5-48.3,34.5,44.7-16.8,68.8-42.7,78-53.4Z"></path>
      <path class="cls-2" d="M65.35,158.2c13.2-8.5,29.9-24.9,36-35.1h0c-11.8,11.2-29.2,27.9-59.1,41.1-14.8,6.3-29.3,8.7-34.1,6.4,9.9,6.4,29.7,5.2,57.2-12.4Z"></path>
      <path class="cls-2" d="M253.35,139.4c.7-2.2,1.2-4.5,1.4-6.9-1.4,9.5-7.8,21-18,27.3-9,5.6-19.4,9.3-31.2,8.3,1.9,1.8,3.4,3.3,5.3,6.2h0c20.4-3.1,37.4-18.5,42.5-34.9Z"></path>
      <path class="cls-1" d="M121.95,129.4h0c-.1,.1-.2,.1-.2,.2,0-.1,.1-.2,.2-.2h0Z"></path>
      <path class="cls-2" d="M121.75,129.5c-32.1,23-43,64.4-44.8,117.1h0c1.6-.3,3.3-1.9,3.3-1.9-.2-12.3,3.3-38.4,12.5-60,4.1-9.5,12.7-23.2,26.5-37.3,1-9.4,2.1-14.9,2.8-18-.2,0-.3,.1-.3,.1Z"></path>
    </g>
  </g>
</svg>
