<?xml version="1.0" encoding="UTF-8"?>
<svg xmlns="http://www.w3.org/2000/svg" viewBox="0 0 90 90" width="54" height="54">
  <g fill="none">
    <path d="M46.691 14c16.623 0 27.815 10.79 27.815 24.222 0 6.276-1.884 8.48-6.205 8.48H43.257c-2.44 0-3.436.215-3.436 1.54 0 4.957 5.982 11.009 13.852 11.009 7.093 0 11.411-4.844 14.294-4.844 2.549 0 4.655 2.311 4.655 5.723 0 2.754-2.326 6.276-6.981 9.359-5.652 3.74-12.19 5.745-19.504 5.745C27.853 75.234 15 61.891 15 44.941c0-6.28 1.995-12.445 5.763-17.728C26.745 18.843 36.384 14 46.69 14Zm0 10.79c-3.768 0-7.201 3.413-7.201 7.817 0 2.861.996 3.083 4.099 3.083h1.44v.002h1.42c5.815-.004 6.67-.175 6.67-3.854 0-4.293-2.772-7.047-6.428-7.047Z" fill="#FF6601"></path>
  </g>
</svg>
