<?xml version="1.0" encoding="UTF-8"?><svg id="uuid-91acc373-9b85-4fd1-8531-ae1a29df52b9" xmlns="http://www.w3.org/2000/svg" viewBox="0 0 66.7 76.24" width="54"><g id="uuid-f9801f0a-b997-44f6-a668-515524afb589"><path d="M56.9,.04c-3.6,.1-7.8,.8-10.2,3.6-2.4,2.9-3.7,8.4-4.3,11.9-.2,.9-.3,2-.5,3.2,.4,0,.7,0,.9-.1,.9,0,3-.1,3-.1l8.1-11.2h2.1l-4.7,11.3,9.8,.6,1.8-2.1C65,7.44,66.7,.04,66.7,.04c0,0-6.2-.1-9.8,0m-5.5,21.9l4.7,11.2h-2.1l-8.1-11.2s-2.2,0-3-.1c-.4,0-.9,0-1.4-.1-.7,4.5-1.7,10.4-3,16.9-2.5,12.6-2.3,21.5-13.1,21.5-3.5,0-6.7-1.6-6.7-4.1,0-4.6,.7-12.6,.7-12.6l-18.6-.1s-.8,7.7-.8,15.9c0,7.4,8.1,17,24.1,17,12.2,0,20.3-2.9,27.3-12.9,3.5-5,5.3-16.9,8-29.8,.8-3.8,1.6-7.6,2.4-11.2l-.7-.8-9.7,.4Z" fill="#e2231a"/></g></svg>