<svg version="1.2" baseProfile="tiny-ps" xmlns="http://www.w3.org/2000/svg" viewBox="0 0 1677 1661" width="54" height="54">
	<title>Ryanair-svg</title>
	<style>
		tspan { white-space:pre }
		.shp0 { fill: #f4ca35 } 
	</style>
	<g id="Layer">
		<g id="Layer">
			<path id="Layer" class="shp0" d="M1111.21 90.07C1216.97 125.45 1328.86 152.57 1442.97 165.55L1522.55 166.33L1525.01 164.12C1572.59 165.42 1607.76 144.5 1654.03 134.28C1659.01 133.11 1670.97 130.1 1676.04 136.9C1678.36 145.75 1674.74 155.36 1664.73 161.96C1608.06 205.39 1540.48 237.69 1476.77 260.94L1476.77 259.64C1455.87 263.67 1433.51 272.68 1411.8 279.82C1333.33 303.62 1243.99 318.57 1159.59 312.48C997.91 304.17 860.49 246.3 717.74 253.15C577.57 244.94 444.26 298.59 369.65 404.47C331.37 459.88 300.92 518.3 291.43 582.56C295.65 640.73 377.19 663.08 407.74 711.19C425.27 740.27 433.96 772.33 447.18 802.52C481.04 863.36 514.6 924.15 556.21 981.42L555.17 982.59C579.53 1020.88 618.37 1054.05 664.29 1076.54C723.83 1119.17 776.39 1172.61 807.64 1230.03L806.01 1230.94C841.18 1287.1 860.93 1345.32 888.16 1403.89C900.37 1439.82 913.83 1471.43 924.28 1506.4C927.86 1509.67 927.86 1514.95 929.95 1519.54C939.59 1547.22 947.79 1576.71 959.55 1602.37C954.47 1606.24 963.51 1607.71 962.41 1611.48C963.06 1627.02 978.19 1650.33 957.99 1660.74C928.59 1634.72 913.17 1596.58 897.29 1568.85C862.57 1508.21 822.83 1449.59 780.03 1391.91L781.33 1390.74C755.05 1357.68 726.01 1320.44 695.96 1286.22C569.3 1145.77 383.15 1061.43 247.09 927.71L245.78 928.89C234.19 918.47 226.74 904.68 217.35 892.8L218.26 891.5C201.68 868.25 191.83 841.73 175.8 817.93L176.71 816.76C134.61 753.95 94.11 687.28 66.88 621.2C61.21 591.97 51.21 566.81 48.99 533.14L45.82 522.12C47.58 491.48 -28.34 473.71 13.42 414.93C39.64 386.6 141.13 351.68 175.65 298.49C176.43 290.54 178.27 281.07 171.43 273.88C171.43 268.2 165.54 262.21 161.43 256.31C142.23 232.41 90.18 251.29 91.04 216.01C96.37 215.75 91.3 211.07 94.81 209.05C91.9 191.64 90.69 180.12 95.59 165.42C106.1 136.49 116.34 103.17 114.28 73.98C116.4 63.02 127.35 56.47 138.4 52.19C160 46.76 178.89 43.85 200.1 41.02L202.76 43.18C251.75 39.16 310.58 42.66 343.09 81.23C357.15 110.47 346.16 145.14 338.27 174.58C335.81 191.53 317.26 205.37 321.59 223.24C328.02 229.83 341.53 229.43 350.12 225.77C424.08 180.88 488.65 118.58 542.5 55.68C592.14 9.13 665.25 -6.97 732.48 2.69C868.68 13.21 983.8 58.95 1110.76 90L1111.21 90.07ZM760.13 336.22C779.32 361.78 753.64 384.33 746 406.82C666.07 527.04 638.18 663.22 585.13 792C581.16 796.43 573.28 797.78 567.59 796.02C553.47 785.92 553.47 769.25 555.08 754.66C565.73 615.06 602.57 484.08 661.9 359.27C675.77 339.29 699.43 316.65 729.93 321.37C741.44 323.78 751.74 327.82 760.13 336.22L760.13 336.22ZM970.78 372.68C980.98 418.58 948.12 456.22 933.55 497.29C855.77 652.79 762.41 804.96 716.29 971.18C714.13 976.47 711.05 983.62 704.89 985.93C698.31 987.74 692.78 984.46 691.07 979.8C675.5 913.72 693.43 844.97 710.37 782.17C754.68 642.62 808.29 499.86 883.25 370.08C891.95 363.43 893.3 357.81 904.15 354.72C930.23 352 956.36 353.94 970.78 372.69L970.78 372.68ZM1195.73 380.5C1216.68 396.31 1205.87 426.19 1197.64 444.71C1106.5 646.87 958.88 821.18 897.79 1033.19C880.91 1078.13 869.96 1124.58 855.94 1169.86C853.47 1178.01 841.57 1178.26 833.08 1176.26C824.98 1157.03 827.35 1132.63 827.35 1111.84C846.6 941.49 887.25 775.99 970.35 627.68C1008.13 553.61 1044.66 486.98 1084.3 414.67C1095.49 394.24 1114.24 375.72 1141.48 369.02C1161.52 367.85 1180.82 372.54 1195.74 380.5L1195.73 380.5ZM1445.38 390.92C1460 415.43 1445.91 442.4 1439.26 465.85C1381.28 628.3 1272.86 762.75 1185.78 910.75C1111.22 1032.34 1062.43 1167.35 1012.79 1299.36C995.6 1339.01 989.42 1383.04 968.57 1420.73C966.87 1424.8 961.54 1422.36 957.89 1423.4C945.08 1412.58 946.73 1397.14 943.71 1383.45C953.56 1218.19 1017.17 1068.87 1076.9 919.72C1151.66 753.41 1251.9 594.59 1320.03 422.63C1329.52 400.94 1348.27 374.37 1377.21 366.22C1406.2 361.84 1428.16 372.32 1445.39 390.93L1445.38 390.92Z" />
		</g>
	</g>
</svg>