<?xml version="1.0" encoding="UTF-8"?><svg id="Layer_2" xmlns="http://www.w3.org/2000/svg" viewBox="0 0 218.96 175.19" width="54" height="54"><defs><style>.cls-1{fill:#d40e14;}</style></defs><g id="Layer_1-2"><path class="cls-1" d="M218.96,19.31c0,10.66-8.64,19.31-19.31,19.31h0c-10.66,0-19.31-8.64-19.31-19.31h0C180.34,8.64,188.98,0,199.65,0h0c10.66,0,19.31,8.64,19.31,19.31h0ZM10.34,48.79H62.43c5.14,0,8.95,1.67,10.46,8.87,1.67,8.07,1.04,13.68-8.08,14.32l-16.37,1.17c12.06,76,82.38,100.79,120.68,18.89,6.35-13.55,8.35-16.02,15.35-14.3,9.4,2.34,10.69,7.22,6.18,20.83-33.06,100.95-144.33,111.08-166.16-23.7l-13.25,.95C.43,76.58,0,67.46,0,62.45c-.03-10.07,3.69-13.66,10.34-13.66h0Z"/></g></svg>