<?xml version="1.0" encoding="UTF-8" standalone="no"?>
<!DOCTYPE svg PUBLIC "-//W3C//DTD SVG 1.1//EN" "http://www.w3.org/Graphics/SVG/1.1/DTD/svg11.dtd">
<svg
    xmlns:svg="http://www.w3.org/2000/svg"
    xmlns="http://www.w3.org/2000/svg"
    version="1.1"
    width="927.21002"
    height="333.87"
    id="svg3174">
  <defs id="defs3176" />
  <path
      d="m 729.73229,260.599 c -3.9664,7.19386 -11.74746,9.6291 -19.5666,9.6291 -10.29122,0 -19.82595,-4.24157 -22.83211,-14.90109 -0.70083,-2.32337 -0.77463,-4.68483 -0.97786,-7.08316 l 11.34293,0 c 0.18384,1.6255 0.44326,3.2099 1.05102,4.75982 2.01131,4.92308 6.49293,7.00816 11.59992,7.00816 3.90892,0 9.77416,-1.66059 9.77416,-6.49295 0,-1.03227 -0.33262,-1.73254 -0.77469,-2.6735 -1.29109,-2.60154 -6.0479,-4.44476 -8.57621,-5.45949 -5.18067,-2.17581 -11.7662,-4.51671 -16.17283,-7.89289 -4.16656,-3.19054 -6.23352,-7.70908 -6.23352,-12.89279 0,-11.76618 10.21742,-17.93621 20.95076,-17.93621 7.69154,0 15.8239,3.29455 19.21767,10.74418 1.29109,2.76663 1.64002,5.36634 1.82748,8.39061 l -11.34354,0 c 0.075,-5.69894 -4.59047,-9.01949 -9.95865,-9.01949 -3.81762,0 -8.92639,2.10263 -8.92639,6.60304 0,4.31533 5.38569,5.90095 8.66881,7.19386 5.18067,2.06394 12.46585,4.38731 16.96621,7.61593 4.49918,3.20989 6.30732,7.79978 6.30732,13.25927 0,3.17361 -0.77588,6.40225 -2.34394,9.14771 l 6e-5,-1.1e-4 z m -74.52423,-42.67373 0,14.38373 24.30727,0 0,10.03411 -24.30727,0 0,16.63531 27.7008,0 0,10.03155 -39.50384,0 0,0 0,-61.13569 38.54157,0 0,10.05099 z m -70.85912,-10.05099 12.58105,0 24.84467,43.04471 0,-43.04471 11.15299,0 0,61.13569 -11.78252,0 0,0 -25.61758,-43.00786 0,43.00786 -11.17861,0 z m -22.3303,5.8e-4 11.78431,0 0,61.13624 -11.78431,0 z m -6.91572,51.10356 0,10.03155 -38.63828,0 0,0 0,-61.13569 12.04308,0 0,51.10414 z m -58.20469,10.03165 -12.46705,-23.38602 -8.48313,5.1e-4 0,23.38602 -11.7668,-5.1e-4 0,-61.13624 16.52359,0 c 4.94243,0 10.14431,-0.1663 14.79043,1.56624 7.70909,2.78418 11.87685,9.18401 11.87685,17.22569 0,7.80157 -3.72513,13.68496 -10.82583,16.96622 l 14.03389,25.37616 -13.68195,5.2e-4 0,10e-4 0,1.1e-4 z m -6.23355,-49.94266 c -2.60154,-1.2173 -6.23355,-1.14414 -9.09268,-1.14414 l -5.6258,0 0,17.66894 7.70909,0 c 6.23355,0 11.69298,-1.73436 11.69298,-9.09269 10e-4,-3.37257 -1.54931,-6.06541 -4.68361,-7.43214 l 2e-5,3e-5 z m -48.84456,-11.19255 11.76617,0 0,61.13624 -11.76617,0 z m -18.43442,61.13521 -3.81765,-12.72465 -21.56762,0 -3.79043,12.72465 -12.12663,0 20.67385,-61.13624 11.95971,0 20.79355,61.13624 -12.12477,0 0,0 -1e-5,0 z m -14.63321,-47.69122 -7.79978,24.91535 15.67453,0 -7.87475,-24.91535 z m -66.36499,47.72809 -3.81765,-12.72467 -21.54099,0 -3.81765,12.72467 -12.12663,0 20.70101,-61.11732 11.9331,5.1e-4 20.79356,61.11732 -12.12478,-5.1e-4 0,0 3e-5,0 z m -14.63382,-47.69124 -7.79979,24.91536 15.6939,0 -7.89411,-24.91536 z m -79.60732,-13.42564 12.55851,0 24.86262,43.02578 0,-43.02578 11.15658,0 0,61.11676 -11.76618,0 0,0 -25.64523,-43.04471 0,43.04471 -11.1663,0 z m -16.47809,61.11688 -3.81765,-12.72467 -21.56823,0 -3.79828,12.72467 -12.11695,0 20.69318,-61.11732 11.94215,5.1e-4 20.78389,61.11732 -12.11812,-5.1e-4 0,0 1e-5,0 z m -14.6435,-47.69124 -7.79189,24.91536 15.66728,0 -7.87539,-24.91536 z m -44.5278,-13.42609 11.78429,0 0,61.11729 -11.78429,0 z m -10.40211,52.70829 c -3.98395,7.19386 -11.76618,9.62911 -19.56658,9.62911 -10.30877,0 -19.82597,-4.26092 -22.86897,-14.90228 -0.68153,-2.32155 -0.77465,-4.68483 -0.95063,-7.11827 l 11.35257,-5.1e-4 c 0.17416,1.6606 0.43358,3.2099 1.04133,4.79671 1.9823,4.92308 6.49116,7.00637 11.59022,7.00637 3.91016,0 9.78388,-1.65937 9.78388,-6.49115 0,-1.05102 -0.34228,-1.75371 -0.77466,-2.69467 -1.29895,-2.61908 -6.05758,-4.42539 -8.56657,-5.45764 -5.20004,-2.15828 -11.76618,-4.49918 -16.19339,-7.87539 -4.14904,-3.20807 -6.22388,-7.70724 -6.22388,-12.89279 0,-11.80308 10.21746,-17.92474 20.94112,-17.92474 7.69941,0 15.84146,3.28307 19.22734,10.7345 1.29894,2.76664 1.64002,5.347 1.80631,8.39061 l -11.3326,0 c 0.0834,-5.7171 -4.60016,-9.01949 -9.96834,-9.01949 -3.80011,0 -8.91672,2.10263 -8.91672,6.60304 0,4.31533 5.36634,5.86406 8.64944,7.17267 5.21938,2.0851 12.4846,4.40787 16.98557,7.63528 4.50885,3.19053 6.32665,7.76349 6.32665,13.22237 0,3.22924 -0.77587,6.4198 -2.34211,9.18639 l 2e-5,-2e-5 z m -57.19077,8.40904 -3.79044,-12.72467 -21.568227,0 -3.817645,12.72467 -12.124775,0 20.701016,-61.11732 11.950647,5.1e-4 20.774834,61.11732 -12.1254,-5.1e-4 0,0 -1e-5,0 z m -14.614473,-47.69124 -7.80157,24.91536 15.675156,0 -7.873539,-24.91536 -4.7e-5,0 z"
      id="_58848160"
      style="fill:#727171;fill-opacity:1;"
  />
  <path
      d="m 710.769,124.3134 c 0,2.1389 0.31387,4.30563 1.16348,6.36289 3.72508,9.25768 13.20471,14.91973 25.26533,10.10555 2.87849,-1.15199 82.62218,-33.29727 82.62218,-33.29727 0,0 -31.38874,79.6433 -32.56795,82.60273 -4.57291,11.42563 0.92157,21.75372 10.25307,25.21937 2.04638,0.77465 4.22398,1.12478 6.34534,1.10544 7.61584,-0.0351 14.38391,-4.53604 17.66698,-13.51679 0.48016,-1.36486 39.76302,-109.216195 40.64651,-111.815794 0.51515,-1.531166 1.40166,-5.135932 1.43856,-7.633439 0.035,-5.339116 -1.95502,-10.364946 -5.77264,-14.165022 -3.79834,-3.753523 -8.76005,-5.698894 -14.0526,-5.680166 -2.52653,0 -4.62856,0.452943 -7.76468,1.447711 -1.89938,0.607744 -103.14885,38.3038 -111.83315,41.53298 -8.65001,3.22559 -13.4261,10.12366 -13.41032,17.7317 l -1.1e-4,1.1e-4 z"
      id="_58854632"
      style="fill:#e60013;fill-opacity:1;"
  />
</svg>
