<?xml version="1.0" encoding="utf-8"?>
<!-- Generator: Adobe Illustrator 13.0.0, SVG Export Plug-In . SVG Version: 6.00 Build 14948)  -->
<!DOCTYPE svg PUBLIC "-//W3C//DTD SVG 1.0//EN" "http://www.w3.org/TR/2001/REC-SVG-20010904/DTD/svg10.dtd">
<svg version="1.0" id="Layer_1" xmlns="http://www.w3.org/2000/svg" xmlns:xlink="http://www.w3.org/1999/xlink" x="0px" y="0px"
	 width="600px" height="131.077px" viewBox="0 0 600 131.077" enable-background="new 0 0 600 131.077" xml:space="preserve">
<path fill="#CAB999" d="M84.096,0C47.797,0,11.018,29.344,1.945,65.544c2.407,3.614,19.825,7.409,33.142,8.539
	c66.977-74.545,112.226-62.565,83.57-10.301c-1.001,1.83-2.073,3.218-3.096,4.936c9.33-1.809,17.324-4.574,18.281-5.186
	C141.757,28.162,119.794,0,84.096,0z M41.756,74.876c17.194,2.08,30.914-0.342,40.389-1.825c5.34-5.747,11.083-12.234,14.777-17.321
	C125.696,16.018,92.461,20.601,41.756,74.876z"/>
<path fill="#004886" d="M166.3,55.098l-19.089,35.386h11.479l4.497-8.174h17.496l4.494,8.174h11.481l-19.089-35.386H166.3z
	 M165.4,75.997l6.572-12.359l6.573,12.359H165.4z M213.002,55.098h-9.821v35.386h9.821V55.098z M248.689,78.121
	c2.628,1.116,4.149,3.553,4.632,7.316c0.348,2.496,0.692,4.194,1.037,5.046h10.997c-0.482-1.067-0.829-2.814-1.106-5.364
	c-0.273-2.545-0.826-4.556-1.798-5.882c-1.243-1.807-3.458-3.133-6.567-3.984c5.877-1.482,8.781-4.93,8.781-10.289
	c0-3.502-1.796-6.151-5.464-7.955c-2.562-1.277-7.057-1.911-13.485-1.911h-22.548v35.386h9.824V77.06h7.884
	C244.331,77.06,246.958,77.377,248.689,78.121z M232.992,61.411h13.762c1.796,0,3.042,0.105,3.803,0.318
	c2.214,0.584,3.32,1.959,3.32,4.137c0,1.963-0.764,3.289-2.212,4.084c-0.969,0.531-2.631,0.793-4.911,0.793h-13.762V61.411z
	 M318.158,55.098h-11.273l-19.086,35.386h11.479l4.495-8.174h17.5l4.493,8.174h11.479L318.158,55.098z M305.987,75.997l6.569-12.359
	l6.567,12.359H305.987z M373.04,55.098h-39.765v6.313h14.659v29.072h9.822V61.411h15.283V55.098z M393.063,83.318
	c-1.664-0.583-2.696-1.693-3.039-3.343c-0.284-1.487-0.421-3.181-0.421-4.986V55.098h-9.751v19.892c0,3.391,0.205,5.893,0.759,7.424
	c1.385,3.822,4.637,6.313,9.688,7.429c2.006,0.426,5.529,0.642,10.717,0.642h8.912v-6.318h-7.874
	C397.766,84.165,394.791,83.954,393.063,83.318z M430.339,55.098l-19.096,35.386h11.481l4.497-8.174h17.496l4.492,8.174h11.485
	l-19.091-35.386H430.339z M429.434,75.997l6.572-12.359l6.563,12.359H429.434z M498.893,81.464l-18.328-26.366h-12.582v35.386h9.401
	v-25.94l18.813,25.94h12.039V55.098h-9.343V81.464z M553.822,55.098h-39.772v6.313h14.662v29.072h9.822V61.411h15.288V55.098z
	 M580.915,55.098h-11.275l-19.092,35.386h11.481l4.497-8.174h17.496l4.492,8.174H600L580.915,55.098z M568.739,75.997l6.572-12.359
	l6.567,12.359H568.739z M29.426,117.864c0,0,21.361-10.943,41.854-32.701c-13.952,1.958-23.596,1.943-38.64-0.293
	c-15.391,21.523-18.854,15.469-18.854,15.469c3.284-3.904,10.214-13.218,12.873-16.404c-6.937-1.678-21.114-5.172-26.199-10.923
	c-3.907,32.202,17.352,58.065,50.774,58.065c35.194,0,70.844-27.586,81.248-62.252c-4.845,2.508-10.747,5.895-21.932,8.576
	C67.655,138.487,29.426,117.864,29.426,117.864z M158.691,127.647h5.202v-20.805h-5.202V127.647z M190.278,110.362
	c1.857,0,3.346,0.371,4.365,0.773l1.082-3.705c-0.928-0.436-2.971-0.926-5.662-0.926c-6.935,0-12.538,3.921-12.538,11.017
	c0,5.961,4.089,10.468,12.041,10.468c2.755,0,4.923-0.499,5.851-0.895l-0.741-3.705c-1.052,0.4-2.755,0.676-4.365,0.676
	c-4.612,0-7.336-2.619-7.336-6.789C182.974,112.618,186.192,110.362,190.278,110.362z M215.594,118.853h8.449v-3.826h-8.449v-4.322
	h8.945v-3.861h-14.113v20.805h14.576v-3.857h-9.408V118.853z M245.295,106.843h-5.166v20.805h14.3v-3.949h-9.134V106.843z
	 M271.753,106.843l-7.027,20.805h5.388l1.61-5.34h6.593l1.764,5.34h5.602l-7.15-20.805H271.753z M272.463,118.789l1.397-4.414
	c0.366-1.204,0.712-2.78,1.021-4.013h0.09c0.343,1.203,0.744,2.779,1.147,4.013l1.425,4.414H272.463z M314.303,112.892
	c0,3.152,0.094,5.961,0.401,8.707h-0.063c-1.052-2.345-2.381-4.938-3.744-7.131l-4.767-7.625h-6.065v20.805h4.764v-6.265
	c0-3.396-0.061-6.327-0.244-9.107h0.151c1.084,2.437,2.602,5.095,3.967,7.346l4.918,8.026h5.447v-20.805h-4.765V112.892z
	 M351.23,108.85c-2.168-1.513-5.016-2.158-9.411-2.158c-2.601,0-5.077,0.151-6.995,0.46v20.402c1.272,0.157,3.22,0.313,5.882,0.313
	c4.518,0,8.231-0.837,10.646-2.687c2.2-1.669,3.776-4.449,3.776-8.428C355.128,113.049,353.616,110.455,351.23,108.85z
	 M341.819,124.192c-0.616,0-1.36,0-1.827-0.094v-13.614c0.467-0.093,1.24-0.181,2.354-0.181c4.52,0,7.304,2.129,7.304,6.602
	C349.649,121.877,346.556,124.222,341.819,124.192z M369.266,127.647h5.197v-20.805h-5.197V127.647z M400.854,110.362
	c1.859,0,3.343,0.371,4.365,0.773l1.087-3.705c-0.935-0.436-2.976-0.926-5.667-0.926c-6.936,0-12.543,3.921-12.543,11.017
	c0,5.961,4.091,10.468,12.043,10.468c2.761,0,4.924-0.499,5.854-0.895l-0.744-3.705c-1.052,0.4-2.75,0.676-4.36,0.676
	c-4.614,0-7.341-2.619-7.341-6.789C393.547,112.618,396.768,110.362,400.854,110.362z"/>
</svg>
