<?xml version="1.0" encoding="UTF-8"?>
<!-- Created with Inkscape (http://www.inkscape.org/) -->
<svg width="700" height="278.61" version="1.1" viewBox="0 0 700 278.61" xml:space="preserve" xmlns="http://www.w3.org/2000/svg" xmlns:cc="http://creativecommons.org/ns#" xmlns:dc="http://purl.org/dc/elements/1.1/" xmlns:rdf="http://www.w3.org/1999/02/22-rdf-syntax-ns#"><metadata><rdf:RDF><cc:Work rdf:about=""><dc:format>image/svg+xml</dc:format><dc:type rdf:resource="http://purl.org/dc/dcmitype/StillImage"/><dc:title/></cc:Work></rdf:RDF></metadata><g transform="matrix(1.3333 0 0 -1.3333 -258.89 1518.2)"><path d="m521.03 1008c-26.285-12.782-45.377-39.183-43.645-58.457-103.76 30.805-200.31 19.231-270.32-15.709-4.0576-2.027-7.8526-1.6515-1.4108 2.1582 70.878 41.921 207.31 79.051 315.37 72.008" fill="#86d0f4"/><path d="m708.18 1047.3-3.7185-17.473s-1.0937-7.8527-6.6168-10.722c-5.5267-2.8727-14.579-2.8508-14.579-2.8508h-97.95l5.8184 27.371c-9.6864-21.301-35.016-31.418-79.784-31.418-21.724 0-44.294 1.8665-56.656 11.345l1.5567-7.2984h-48.512l-2.0306 13.259h-47.542l-7.674-13.259h-48.505l63.835 99.995s6.2704 10.35 11.177 12.803c5.6325 2.8181 15.898 2.6577 15.898 2.6577h38.742l17.2-80.688h52.169c-0.6635-3.8825 0.24061-6.4709 3.0988-8.2463 3.0514-1.6187 7.8928-2.428 15.009-2.428 14.229 0 18.935 3.8789 20.102 9.3765 0.72183 3.3977-0.65621 6.7918-6.5986 7.7651l-50.415 7.7616c-21.593 3.394-28.06 16.332-24.622 32.5 6.358 29.916 37.349 38.002 74.859 38.002 51.425 0 69.755-13.423 66.182-37.841h-53.04c0.9989 4.692-1.1338 7.6047-4.9945 9.2198-3.6638 1.7791-8.7021 2.4243-13.715 2.4243-13.584 0-18.994-3.3941-20.025-8.2463-0.68537-3.2338 0.32082-5.3373 4.7101-5.9825l52.774-8.086c18.611-2.8399 30.018-10.78 30.813-24.765l14.717 69.234h45.599l-17.947-84.41zm-282.63 27.386s-14.998 7.1854-33.226 6.1319c-27.601-1.5968-37.152-18.895-37.152-18.895s11.699 8.2064 33.084 7.1746c14.83-0.7181 23.441-6.2194 23.441-6.2194s1.9504 6.2158 5.4575 8.7203c3.6638 2.6176 8.3958 3.0879 8.3958 3.0879" fill="#00529b"/><path d="m647.89 981.2c0 0.0339 1.2599 5.4928 2.7997 12.131s2.8275 12.205 2.8615 12.37l0.0618 0.3012h8.8658c8.3923 0 8.8628-0.01 8.8091-0.1917-0.0312-0.1054-0.23532-0.9803-0.45354-1.9441-0.21822-0.964-0.42112-1.8389-0.45089-1.9443-0.0508-0.1797-0.44983-0.1916-6.3976-0.1916h-6.3434l-0.0584-0.2465c-0.0321-0.1356-0.33031-1.4294-0.66262-2.8753-0.33232-1.4458-0.63068-2.715-0.66302-2.8205-0.0555-0.18088 0.2686-0.19167 5.7538-0.19167 5.0419 0 5.8126-0.0214 5.8126-0.16107 0-0.0886-0.17229-0.88954-0.38285-1.7799-0.21056-0.89036-0.40866-1.7298-0.44021-1.8653l-0.0574-0.24645h-5.7967c-3.2803 0-5.8229-0.0424-5.8571-0.0977-0.0596-0.0965-1.3764-5.7916-1.3764-5.9529 0-0.0458 2.8509-0.0832 6.3354-0.0832h6.3354l-0.49516-2.1359-0.49517-2.1359h-8.8524c-4.8688 0-8.8524 0.0278-8.8524 0.0617zm-26.945 0c0 0.0339 1.2599 5.4928 2.7997 12.131 1.5398 6.638 2.8275 12.205 2.8615 12.37l0.0618 0.3012h5.1754l3.6618-8.4301c2.014-4.6366 3.679-8.4129 3.7-8.3919 0.021 0.021 0.91474 3.8033 1.9861 8.4051l1.9479 8.3669 2.4849 0.029c1.3859 0.017 2.4849-0.014 2.4849-0.067 0-0.1066-5.5559-24.271-5.6519-24.582-0.0553-0.17911-0.25363-0.19144-2.6433-0.1643l-2.5835 0.0294-3.5367 8.1602c-1.9452 4.4881-3.6032 8.3019-3.6845 8.4751-0.13786 0.29377-0.26428-0.1923-1.8801-7.2292-0.95277-4.1492-1.8317-7.9754-1.9531-8.5025l-0.2208-0.9584h-2.505c-1.3778 0-2.505 0.0278-2.505 0.0617zm-10.406 0c0 0.0339 1.2599 5.4928 2.7997 12.131s2.8275 12.205 2.8615 12.37l0.0618 0.3012h2.5056c1.378 0 2.5056-0.031 2.5056-0.07 0-0.038-1.2815-5.6033-2.8478-12.366-1.5663-6.7631-2.8478-12.326-2.8478-12.362s-1.1337-0.0656-2.5192-0.0656c-1.3856 0-2.5193 0.0278-2.5193 0.0617zm-21.359 0c0 0.0339 1.2599 5.4928 2.7997 12.131s2.8275 12.205 2.8615 12.37l0.0618 0.3012h5.021l-0.0688-0.356c-0.0378-0.1958-1.0926-4.7674-2.3438-10.159-1.2513-5.3918-2.2547-9.8401-2.2298-9.8853 0.0248-0.0452 2.7285-0.0822 6.0082-0.0822s5.9631-0.0286 5.9631-0.0634c0-0.0797-0.86563-3.8662-0.9433-4.1262-0.0539-0.18042-0.55857-0.19167-8.5934-0.19167-4.6949 0-8.5362 0.0278-8.5362 0.0617zm-8.7889 13.015c1.4992 0.38226 2.7562 1.2782 3.2718 2.3322 0.23161 0.4734 0.31128 0.82081 0.34781 1.5167 0.0974 1.8551-0.61741 2.8254-2.4905 3.3807-0.4921 0.1459-1.1926 0.1764-4.0527 0.1761l-3.4578-2e-4 -0.85175-3.7513c-0.46845-2.0632-0.85045-3.7939-0.84888-3.846 2e-3 -0.0525 1.6499-0.0699 3.6996-0.0389 2.881 0.0436 3.848 0.0944 4.3824 0.23068zm-16.075-13.018c0 0.0713 5.5768 24.34 5.6574 24.62 0.0544 0.1888 0.3546 0.1962 6.3732 0.1579l6.3161-0.04 1.1223-0.2931c2.8519-0.7446 4.6192-2.328 5.2539-4.707 0.24636-0.9234 0.2426-3.046-7e-3 -4.0674-0.63878-2.6119-2.6756-4.6842-5.5585-5.6557-1.1011-0.37103-2.2205-0.55537-3.8546-0.63477l-1.5107-0.0734 3.4144-4.1622c1.8779-2.2892 3.6097-4.3964 3.8485-4.6825l0.4341-0.52028h-6.0372l-4.0169 4.9837c-2.2093 2.741-4.0487 4.9837-4.0877 4.9837-0.039 0-0.55405-2.1318-1.1446-4.7373-0.59057-2.6055-1.0994-4.8482-1.1307-4.9837l-0.057-0.24645h-2.5074c-1.3791 0-2.5074 0.0264-2.5074 0.0585zm-10.406 3e-3c0 0.0339 1.2599 5.4928 2.7997 12.131s2.8275 12.205 2.8615 12.37l0.0618 0.3012h2.5056c1.3781 0 2.5056-0.031 2.5056-0.07 0-0.038-1.2815-5.6033-2.8478-12.366-1.5663-6.7631-2.8478-12.326-2.8478-12.362 0-0.0361-1.1337-0.0656-2.5192-0.0656s-2.5193 0.0278-2.5193 0.0617zm-9.3103 8.9559c0 0.14025-0.34504 2.49-0.76673 5.2216-0.4217 2.7316-0.76673 5.018-0.76673 5.0808 0 0.063-0.0664 0.042-0.14754-0.046-0.16193-0.176-6.0958-10.347-6.0958-10.448 0-0.0345 1.7498-0.0628 3.8884-0.0628h3.8884zm-18.493-8.9235c0.0201 0.0517 3.3882 5.645 7.4847 12.429l7.4482 12.335h5.8238l2.0466-12.295c1.1257-6.7623 2.0456-12.357 2.0444-12.432-2e-3 -0.10542-0.56892-0.13692-2.4646-0.13692h-2.4624l-0.0525 0.24645c-0.0289 0.13554-0.17941 1.109-0.33447 2.1633-0.15506 1.0543-0.3089 2.0528-0.34184 2.2191l-0.0599 0.30224-10.738-0.0568-2.8456-4.8742h-2.7925c-1.5358 0-2.776 0.0424-2.7559 0.0941zm152.45-0.26244c-2.6859 0.44132-4.9123 1.6096-6.2752 3.2927-0.98304 1.2141-1.6112 2.9403-1.6112 4.4277v0.66295h4.9002l0.052-0.79411c0.1155-1.7616 1.3782-3.0576 3.4534-3.5446 0.97864-0.22967 2.9199-0.15834 3.6848 0.13539 0.6858 0.26334 1.4672 0.95028 1.724 1.5155 0.27095 0.59649 0.2717 1.8201 2e-3 2.4149-0.41524 0.91405-1.0569 1.3087-4.4509 2.7376-3.3284 1.4012-3.9718 1.7606-4.9838 2.7838-1.3226 1.3372-1.8571 2.6207-1.8604 4.4672-2e-3 1.2027 0.15194 1.8806 0.67774 2.9817 0.6547 1.371 1.7449 2.4271 3.2744 3.1718 1.7832 0.8684 2.6894 1.0512 5.1922 1.0481 1.7682 0 2.2242-0.039 3.0326-0.2412 1.9957-0.5006 3.4426-1.3034 4.6613-2.5864 1.2582-1.3245 1.8839-2.8991 1.8883-4.752l2e-3 -0.79411h-5.0385l-9.7e-4 0.79411c-9.7e-4 0.82088-0.26611 1.5843-0.73533 2.1182-0.43588 0.496-1.277 1.0349-1.9242 1.2331-2.38 0.7283-4.8282 0.1031-5.6244-1.4364-0.23629-0.457-0.31623-1.4906-0.15345-1.9838 0.33942-1.0285 1.0371-1.4771 4.5918-2.9523 1.5136-0.62817 3.0353-1.3082 3.3814-1.5112 0.89841-0.52686 2.4427-2.0904 2.7987-2.8336 0.45813-0.95648 0.63632-1.8066 0.64282-3.0669 0.0101-1.9612-0.51806-3.3908-1.7407-4.7114-1.1582-1.251-2.6381-2.0564-4.5499-2.4763-1.0963-0.24079-3.8231-0.29537-5.0103-0.1003z" fill="#00529b" stroke-width=".10953"/><path d="m505.98 947.5c0.0417 0.18474 1.3648 5.8994 2.9401 12.699l2.8643 12.363h2.55c1.9726 0 2.5495-0.0291 2.5478-0.12852-1e-3 -0.0707-1.3114-5.773-2.9116-12.672l-2.9094-12.543-5.157-0.0548zm10.715 0.10282c0.11016 0.49049 5.6029 24.362 5.6911 24.733l0.0561 0.23629 6.4997-0.0376c6.179-0.0358 6.5429-0.0482 7.3737-0.25283 1.8338-0.45161 2.8958-1.0132 4.0083-2.1195 1.2559-1.249 1.7565-2.5952 1.7647-4.7455 0.0119-3.1487-1.2732-5.4552-3.938-7.0676-1.5554-0.94114-3.319-1.3993-5.7199-1.4859-0.92094-0.0332-1.6612-0.0984-1.645-0.14477 0.0242-0.0693 3.8559-4.7632 7.0622-8.6514l0.74187-0.89962h-6.1736l-4.1373 5.1368c-2.2755 2.8252-4.1546 5.1194-4.1757 5.0983-0.0211-0.0211-0.55791-2.3211-1.1929-5.111l-1.1544-5.0726-5.1593-0.0548zm16.819 13.068c1.526 0.50911 2.6268 1.4682 3.0594 2.6656 0.23581 0.65266 0.26564 1.8722 0.0629 2.5702-0.28712 0.98837-1.3908 1.8345-2.7674 2.1216-0.33384 0.0696-1.856 0.11362-3.9306 0.11362h-3.3858l-0.0558-0.23133c-0.29165-1.2096-1.696-7.4152-1.696-7.4944 0-0.0679 1.3444-0.0904 3.9326-0.0657l3.9326 0.0375zm8.5536-13.169c0.0415 0.18378 1.3644 5.8976 2.9397 12.697l2.8643 12.363h9.0272c5.4575 0 9.0272-0.0376 9.0272-0.0951 0-0.1502-0.93348-4.1532-0.98974-4.2442-0.0278-0.045-2.9589-0.0818-6.5135-0.0818h-6.463l-0.0713-0.33414c-0.0392-0.18378-0.34364-1.5096-0.67646-2.9462-0.33281-1.4366-0.60511-2.6742-0.60511-2.7503 0-0.11413 1.0298-0.13821 5.9118-0.13821 3.877 0 5.9118-0.0354 5.9118-0.10292 0-0.0566-0.2082-0.98694-0.46266-2.0674-0.25446-1.0804-0.46266-1.9822-0.46266-2.0039 0-0.0217-2.6914-0.0514-5.981-0.066l-5.981-0.0265-0.63155-2.776c-0.34735-1.5268-0.66407-2.9032-0.70383-3.0587l-0.0723-0.28273h6.4792c3.5636 0 6.4794-0.0347 6.4798-0.0771 2.7e-4 -0.0424-0.21648-1.0371-0.48173-2.2105l-0.48227-2.1334h-18.138zm22.516 0c0.0415 0.18378 1.3644 5.8976 2.9397 12.697l2.8643 12.363h2.55c1.7114 0 2.55-0.0355 2.55-0.10789 0-0.0593-1.0641-4.7028-2.3647-10.319-1.3006-5.616-2.3647-10.263-2.3647-10.328 0-0.0859 1.6281-0.11678 6.1497-0.11678h6.1497l-0.52066-2.2612-0.52066-2.2612-17.508-2e-3 0.0754 0.33414zm20.277-0.23925c0.0189 0.0522 3.458 5.7654 7.6425 12.696l7.6082 12.601 5.9632 2e-3 2.0905-12.517c1.1498-6.8846 2.1129-12.598 2.1403-12.697 0.0465-0.16789-0.12192-0.17993-2.5169-0.17993h-2.5667l-0.10881 0.64259c-0.0599 0.35341-0.23588 1.4873-0.39116 2.5198l-0.28234 1.8772-11.007-0.0532-2.8825-4.9784-2.8616-4e-3c-1.7064-2e-3 -2.8478 0.0343-2.8274 0.0909zm18.915 8.8986c0.0613 0.0614-1.5896 10.851-1.6595 10.845-0.0673-5e-3 -6.2101-10.567-6.2534-10.752-0.0278-0.11868 0.61132-0.14183 3.9155-0.14183 2.1718 0 3.9706 0.0219 3.9974 0.0487zm9.5411-8.6611c0.0417 0.18474 1.3648 5.8994 2.9401 12.699l2.8643 12.363h5.2818l0.50726-1.1567c0.27899-0.63615 1.9606-4.498 3.7368-8.5818 1.7763-4.0838 3.2601-7.3919 3.2975-7.3512 0.0374 0.0407 0.93201 3.7984 1.9881 8.3505 1.0561 4.5521 1.9452 8.3806 1.9758 8.5078l0.0556 0.23133h2.5661c2.3955 0 2.5626-0.0119 2.5134-0.17993-0.029-0.099-1.3294-5.7318-2.8899-12.518-1.5604-6.7857-2.8615-12.419-2.8913-12.518-0.0498-0.16535-0.26794-0.17974-2.6947-0.17768l-2.6405 2e-3 -3.7527 8.6758c-2.064 4.7717-3.7658 8.6631-3.7819 8.6477-0.0161-0.0154-0.92163-3.9089-2.0124-8.6523l-1.9832-8.6242-5.1562-0.0548zm27.553-6e-3c0.0424 0.18785 1.366 5.905 2.9414 12.705l2.8643 12.363h4.7862c5.065 0 5.9185-0.0591 7.6098-0.52105 1.0296-0.28125 2.8751-1.1868 3.7075-1.8192 1.8929-1.4381 3.1726-3.5458 3.7079-6.1071 0.31265-1.4958 0.31147-3.9907-3e-3 -5.5655-1.0621-5.3251-4.8435-9.3344-10.134-10.744-2.0926-0.55772-2.1279-0.5601-9.0641-0.60754l-6.4938-0.0444 0.0771 0.34155zm13.457 4.3882c3.3047 0.85153 5.7772 3.2898 6.7546 6.6611 0.31933 1.1014 0.4634 2.7425 0.34411 3.9194-0.26971 2.661-1.7966 4.5026-4.4583 5.3774-0.66163 0.21746-0.9395 0.23974-3.4442 0.27616l-2.7246 0.0396-1.8916-8.1553c-1.0404-4.4854-1.9132-8.2175-1.9396-8.2936-0.0398-0.11465 0.51301-0.13036 3.2282-0.0917 2.9202 0.0415 3.3691 0.0706 4.1314 0.26696z" fill="#86d0f4" stroke-width=".10281"/></g></svg>
