<?xml version="1.0" encoding="UTF-8" standalone="no"?>
<!-- Created with Inkscape (http://www.inkscape.org/) -->

<svg
   xmlns:dc="http://purl.org/dc/elements/1.1/"
   xmlns:cc="http://creativecommons.org/ns#"
   xmlns:rdf="http://www.w3.org/1999/02/22-rdf-syntax-ns#"
   xmlns:svg="http://www.w3.org/2000/svg"
   xmlns="http://www.w3.org/2000/svg"
   xmlns:sodipodi="http://sodipodi.sourceforge.net/DTD/sodipodi-0.dtd"
   xmlns:inkscape="http://www.inkscape.org/namespaces/inkscape"
   width="353.33298"
   height="61.921162"
   viewBox="0 0 93.486014 16.383306"
   version="1.1"
   id="svg36691"
   inkscape:version="0.92.0 r15299"
   sodipodi:docname="air bridge cargo.svg">
  <defs
     id="defs36685">
    <clipPath
       id="clipPath30296"
       clipPathUnits="userSpaceOnUse">
      <path
         inkscape:connector-curvature="0"
         id="path30294"
         d="M 0,0 H 1190.551 V 841.89 H 0 Z" />
    </clipPath>
    <clipPath
       id="clipPath30280"
       clipPathUnits="userSpaceOnUse">
      <path
         inkscape:connector-curvature="0"
         id="path30278"
         d="M 0,0 H 1190.551 V 841.89 H 0 Z" />
    </clipPath>
    <clipPath
       id="clipPath30260"
       clipPathUnits="userSpaceOnUse">
      <path
         inkscape:connector-curvature="0"
         id="path30258"
         d="M 0,0 H 1190.551 V 841.89 H 0 Z" />
    </clipPath>
    <clipPath
       id="clipPath30238"
       clipPathUnits="userSpaceOnUse">
      <path
         inkscape:connector-curvature="0"
         id="path30236"
         d="M 0,0 H 1190.551 V 841.89 H 0 Z" />
    </clipPath>
  </defs>
  <sodipodi:namedview
     id="base"
     pagecolor="#ffffff"
     bordercolor="#666666"
     borderopacity="1.0"
     inkscape:pageopacity="0.0"
     inkscape:pageshadow="2"
     inkscape:zoom="2.4642857"
     inkscape:cx="182.00005"
     inkscape:cy="-25.572917"
     inkscape:document-units="mm"
     inkscape:current-layer="layer1"
     showgrid="false"
     fit-margin-top="0"
     fit-margin-left="0"
     fit-margin-right="0"
     fit-margin-bottom="0"
     units="px"
     inkscape:window-width="1280"
     inkscape:window-height="744"
     inkscape:window-x="-4"
     inkscape:window-y="-4"
     inkscape:window-maximized="1" />
  <metadata
     id="metadata36688">
    <rdf:RDF>
      <cc:Work
         rdf:about="">
        <dc:format>image/svg+xml</dc:format>
        <dc:type
           rdf:resource="http://purl.org/dc/dcmitype/StillImage" />
        <dc:title></dc:title>
      </cc:Work>
    </rdf:RDF>
  </metadata>
  <g
     inkscape:label="Layer 1"
     inkscape:groupmode="layer"
     id="layer1"
     transform="translate(-59.3549,-156.25253)">
    <g
       id="g36862"
       style="fill:#004c82;fill-opacity:1"
       transform="translate(0.26458345,-0.26457632)">
      <path
         inkscape:connector-curvature="0"
         id="path30230"
         style="fill:#004c82;fill-opacity:1;fill-rule:nonzero;stroke:none;stroke-width:0.35277778"
         d="m 84.078968,172.48518 h 1.5787 v -6.18067 h -1.5787 z" />
      <path
         d="m 91.094221,168.43442 c 0,-0.63465 -0.250472,-1.28623 -0.759883,-1.68698 -0.401109,-0.30904 -0.810331,-0.44309 -1.904647,-0.44309 h -1.954389 v 6.18102 h 1.512005 V 170.489 h 0.01658 l 1.428044,1.99637 h 1.804458 l -1.678869,-2.10468 c 1.169106,-0.20073 1.5367,-1.23613 1.5367,-1.94627 m -2.547408,0.97719 h -0.559506 v -1.72049 h 0.576086 c 0.6096,0 1.018822,0.2674 1.018822,0.83502 0,0.30092 -0.108302,0.88547 -1.035402,0.88547"
         style="fill:#004c82;fill-opacity:1;fill-rule:nonzero;stroke:none;stroke-width:0.35277778"
         id="path30242"
         inkscape:connector-curvature="0" />
      <path
         d="m 95.12954,168.46151 c 0.194381,-0.10689 0.788458,-0.47696 0.788458,-1.37266 0,-1.88842 -2.054225,-1.89794 -2.5019,-1.89794 h -1.732844 v 7.20337 h 1.801283 c 2.306814,0 2.871259,-1.149 2.871259,-2.19005 0,-0.80821 -0.447675,-1.4799 -1.226256,-1.74272 m -2.112433,-2.02459 h 0.623005 c 0.2921,0 0.944034,0.0582 0.944034,0.77858 0,0.20426 -0.08749,0.77893 -0.953912,0.77893 h -0.613127 z m 0.866422,4.71135 h -0.866422 v -1.90783 h 0.866422 c 1.031875,0 1.139119,0.68122 1.139119,0.97367 0,0.90487 -0.983544,0.93416 -1.139119,0.93416"
         style="fill:#004c82;fill-opacity:1;fill-rule:nonzero;stroke:none;stroke-width:0.35277778"
         id="path30246"
         inkscape:connector-curvature="0" />
      <path
         d="m 101.51302,168.43442 c 0,-0.63465 -0.25047,-1.28623 -0.75988,-1.68698 -0.40111,-0.30904 -0.810334,-0.44309 -1.90465,-0.44309 h -1.954389 v 6.18102 h 1.512005 V 170.489 h 0.01658 l 1.428397,1.99637 h 1.804107 l -1.678871,-2.10468 c 1.169111,-0.20073 1.536701,-1.23613 1.536701,-1.94627 m -2.547409,0.97719 h -0.559506 v -1.72049 h 0.576086 c 0.6096,0 1.018819,0.2674 1.018819,0.83502 0,0.30092 -0.108299,0.88547 -1.035399,0.88547"
         style="fill:#004c82;fill-opacity:1;fill-rule:nonzero;stroke:none;stroke-width:0.35277778"
         id="path30250"
         inkscape:connector-curvature="0" />
      <path
         inkscape:connector-curvature="0"
         id="path30252"
         style="fill:#004c82;fill-opacity:1;fill-rule:nonzero;stroke:none;stroke-width:0.35277778"
         d="m 102.04667,172.48518 h 1.5787 v -6.18067 h -1.5787 z" />
      <path
         d="m 106.48923,166.30453 h -2.04611 v 6.18067 h 2.16323 c 2.34668,0 3.18241,-1.41147 3.18241,-3.10692 0,-0.67663 -0.14217,-1.32821 -0.56797,-1.92123 -0.80222,-1.16063 -2.03835,-1.15252 -2.73156,-1.15252 m 0.20884,4.79425 h -0.67627 v -3.40783 h 0.68474 c 0.69356,0 1.01882,0.29245 1.20262,0.56797 0.22543,0.35913 0.30057,0.78528 0.30057,1.14441 0,0.87665 -0.33373,1.69545 -1.51166,1.69545"
         style="fill:#004c82;fill-opacity:1;fill-rule:nonzero;stroke:none;stroke-width:0.35277778"
         id="path30264"
         inkscape:connector-curvature="0" />
      <path
         d="m 112.936,168.96899 v 1.26118 h 1.89583 c -0.20885,0.58455 -0.70979,1.01882 -1.50319,1.01882 -0.77681,0 -1.72861,-0.58455 -1.72861,-1.87924 0,-1.22767 0.88512,-1.8288 1.6951,-1.8288 0.70167,0 1.14441,0.40075 1.36137,0.83502 h 1.77059 c -0.33373,-1.1945 -1.57833,-2.22179 -3.08998,-2.22179 -1.8542,0 -3.31611,1.35325 -3.31611,3.21557 0,1.79599 1.38677,3.26601 3.29071,3.26601 1.7459,0 3.29918,-1.26965 3.29918,-3.34116 0,-0.12523 0,-0.21695 -0.008,-0.32561 z"
         style="fill:#004c82;fill-opacity:1;fill-rule:nonzero;stroke:none;stroke-width:0.35277778"
         id="path30268"
         inkscape:connector-curvature="0" />
      <path
         d="m 117.11936,172.48525 h 3.43253 v -1.38642 h -1.92123 v -1.0608 h 1.86302 v -1.38642 h -1.86302 V 167.691 h 1.92123 v -1.38642 h -3.43253 z"
         style="fill:#004c82;fill-opacity:1;fill-rule:nonzero;stroke:none;stroke-width:0.35277778"
         id="path30272"
         inkscape:connector-curvature="0" />
      <path
         d="m 126.43638,170.43763 c -0.4378,0.5842 -1.0608,0.88582 -1.73249,0.88582 -1.41147,0 -2.45322,-1.14864 -2.45322,-2.53082 0,-1.28517 0.97367,-2.4825 2.44369,-2.4825 0.88548,0 1.46015,0.48683 1.81011,0.94439 h 1.51906 c -0.60361,-1.38254 -1.84962,-2.1904 -3.33904,-2.1904 -2.55059,0 -3.76767,2.12231 -3.76767,3.72851 0,1.65488 1.22661,3.77684 3.74826,3.77684 1.56704,0 2.72556,-0.86643 3.31894,-2.13184 z"
         style="fill:#004c82;fill-opacity:1;fill-rule:nonzero;stroke:none;stroke-width:0.35277778"
         id="path30284"
         inkscape:connector-curvature="0" />
      <path
         d="m 130.15705,166.30456 -2.48073,6.18067 h 1.6958 l 0.32561,-0.89359 h 2.1463 l 0.30057,0.89359 h 1.71238 l -2.45568,-6.18067 z m -0.0254,4.03437 0.63535,-2.11314 h 0.0166 0.008 l 0.635,2.11314 z"
         style="fill:#004c82;fill-opacity:1;fill-rule:nonzero;stroke:none;stroke-width:0.35277778"
         id="path30288"
         inkscape:connector-curvature="0" />
      <path
         d="m 138.75023,168.43442 c 0,-0.63465 -0.25047,-1.28623 -0.76024,-1.68698 -0.40075,-0.30904 -0.80997,-0.44309 -1.90429,-0.44309 h -1.95404 v 6.18102 h 1.5113 V 170.489 h 0.0169 l 1.42839,1.99637 h 1.80376 l -1.67852,-2.10468 c 1.16911,-0.20073 1.5367,-1.23613 1.5367,-1.94627 m -2.54741,0.97719 h -0.55986 v -1.72049 h 0.57644 c 0.6096,0 1.01918,0.2674 1.01918,0.83502 0,0.30092 -0.10866,0.88547 -1.03576,0.88547"
         style="fill:#004c82;fill-opacity:1;fill-rule:nonzero;stroke:none;stroke-width:0.35277778"
         id="path30300"
         inkscape:connector-curvature="0" />
      <path
         d="m 141.86448,168.96899 v 1.26118 h 1.89583 c -0.20885,0.58455 -0.70979,1.01882 -1.50319,1.01882 -0.77681,0 -1.72931,-0.58455 -1.72931,-1.87924 0,-1.22767 0.88582,-1.8288 1.6958,-1.8288 0.70167,0 1.14441,0.40075 1.36137,0.83502 h 1.77094 c -0.33408,-1.1945 -1.57868,-2.22179 -3.09033,-2.22179 -1.8542,0 -3.31611,1.35325 -3.31611,3.21557 0,1.79599 1.38677,3.26601 3.29071,3.26601 1.7459,0 3.29918,-1.26965 3.29918,-3.34116 0,-0.12523 0,-0.21695 -0.008,-0.32561 z"
         style="fill:#004c82;fill-opacity:1;fill-rule:nonzero;stroke:none;stroke-width:0.35277778"
         id="path30304"
         inkscape:connector-curvature="0" />
      <path
         d="m 149.03797,166.15424 c -1.75401,0 -2.69804,1.17757 -3.04024,1.9879 -0.19226,0.45932 -0.22578,0.91864 -0.22578,1.32786 0,1.59526 1.29505,3.16583 3.2572,3.16583 1.92969,0 3.2826,-1.50354 3.2826,-3.24097 0,-1.73708 -1.35291,-3.24062 -3.27378,-3.24062 m 0.0247,5.09482 c -1.07738,0 -1.71167,-0.90206 -1.71167,-1.87078 0,-0.87701 0.57608,-1.83762 1.69509,-1.83762 1.15288,0 1.68734,1.05269 1.68734,1.86266 0,0.81033 -0.54293,1.84574 -1.67076,1.84574"
         style="fill:#004c82;fill-opacity:1;fill-rule:nonzero;stroke:none;stroke-width:0.35277778"
         id="path30308"
         inkscape:connector-curvature="0" />
      <path
         d="m 86.628161,165.0951 c 0.03951,0.0504 0.09807,0.085 0.166864,0.085 0.118886,0 0.215194,-0.0963 0.215194,-0.21484 0,-0.0423 -0.01552,-0.0797 -0.03669,-0.11289 l 0.0032,-0.002 c -1.240013,-1.81645 -2.717447,-3.12244 -4.114799,-4.05483 0.670983,-0.22825 1.369836,-0.42898 2.104319,-0.59055 l -3.53e-4,-0.004 c 0.09701,-0.0208 0.171803,-0.10336 0.171803,-0.20708 0,-0.11853 -0.09631,-0.21484 -0.214489,-0.21484 0,0 -1.209322,-0.054 -3.072694,0.39335 -2.007659,-1.13383 -3.654072,-1.49684 -3.866092,-1.54023 1.1684,-0.23001 2.414764,-0.33302 3.747911,-0.36548 0.154517,0.007 0.316795,0.0116 0.494595,0.0116 9.165519,0 13.589705,4.61927 15.84713,6.8453 l 0.0014,-0.001 c 0.03845,0.0356 0.0889,0.0582 0.145344,0.0582 0.118181,0 0.214842,-0.0963 0.214842,-0.21484 0,-0.0526 -0.02117,-0.0991 -0.05256,-0.13653 l 0.0021,-0.002 c -3.162653,-3.76838 -8.6868,-7.9114 -18.047053,-8.03946 -0.08749,-0.001 -0.176036,-0.005 -0.263525,-0.005 -0.01094,0 -0.02117,7.1e-4 -0.0321,7.1e-4 -0.05009,0 -0.09843,-0.002 -0.14852,-0.002 0,0 -0.0018,0.002 -0.0046,0.006 -10.824986,0.0974 -17.426869,8.63847 -20.534488,15.60301 h 3.715808 c 1.71838,-3.55988 3.764844,-6.89469 6.492875,-9.4294 1.721202,0.0564 3.378552,0.38347 4.919133,0.91052 -2.325511,1.86478 -4.710289,4.572 -6.774039,8.51888 h 2.794353 c 0.164042,-0.37324 0.337608,-0.74013 0.518583,-1.10173 0.769056,-1.48872 2.43452,-4.23933 5.256742,-6.68866 0.95885,0.45332 1.856316,0.98389 2.67335,1.57444 0.04939,0.0356 0.220133,0.1711 0.347133,0.26953 l 0.0028,-7.1e-4 -2.477205,5.95171 h 1.470025 l 0.7493,-1.90817 h 2.628547 l 0.749653,1.90817 h 1.469672 l -2.998258,-7.20372 h -1.070681 l -0.341842,0.82127 c -0.123119,-0.12206 -0.337608,-0.32209 -0.443441,-0.42192 -0.615245,-0.58173 -1.301397,-1.10949 -2.036234,-1.58891 1.307395,-1.03611 2.838803,-1.98685 4.609395,-2.73015 1.745897,0.87947 3.566936,2.11208 5.014736,3.82623 z m -6.269919,2.04258 0.827264,2.10256 h -1.654881 z m -4.881386,-4.02202 c -1.323623,-0.66463 -2.779889,-1.16734 -4.329995,-1.4739 1.334911,-0.99131 2.820459,-1.79882 4.48557,-2.37772 0.443089,0.0748 2.349852,0.43321 4.614333,1.37971 -1.423458,0.49283 -3.064228,1.2633 -4.769908,2.47191"
         style="fill:#004c82;fill-opacity:1;fill-rule:nonzero;stroke:none;stroke-width:0.35277778"
         id="path30312"
         inkscape:connector-curvature="0" />
    </g>
  </g>
</svg>
