<?xml version="1.0" encoding="UTF-8" standalone="no"?>
<!-- Created with Inkscape (http://www.inkscape.org/) -->

<svg
   width="100"
   height="18"
   viewBox="0 0 26.458333 4.7625"
   version="1.1"
   id="svg5"
   inkscape:version="1.1 (c68e22c387, 2021-05-23)"
   sodipodi:docname="Discovery_Turbo_UK_logo.svg"
   xmlns:inkscape="http://www.inkscape.org/namespaces/inkscape"
   xmlns:sodipodi="http://sodipodi.sourceforge.net/DTD/sodipodi-0.dtd"
   xmlns="http://www.w3.org/2000/svg"
   xmlns:svg="http://www.w3.org/2000/svg"
   xmlns:rdf="http://www.w3.org/1999/02/22-rdf-syntax-ns#"
   xmlns:cc="http://creativecommons.org/ns#"
   xmlns:dc="http://purl.org/dc/elements/1.1/">
  <title
     id="title7982">ABX Air logo</title>
  <sodipodi:namedview
     id="namedview7"
     pagecolor="#ffffff"
     bordercolor="#111111"
     borderopacity="1"
     inkscape:pageshadow="0"
     inkscape:pageopacity="0"
     inkscape:pagecheckerboard="1"
     inkscape:document-units="px"
     showgrid="false"
     objecttolerance="1"
     gridtolerance="1"
     guidetolerance="1"
     units="px"
     inkscape:zoom="8"
     inkscape:cx="60.6875"
     inkscape:cy="3.125"
     inkscape:window-width="1366"
     inkscape:window-height="746"
     inkscape:window-x="-8"
     inkscape:window-y="-8"
     inkscape:window-maximized="1"
     inkscape:current-layer="layer1"
     height="31px" />
  <defs
     id="defs2" />
  <g
     inkscape:label="Capa 1"
     inkscape:groupmode="layer"
     id="layer1">
    <g
       id="g6911"
       transform="matrix(0.01948031,0,0,0.01948031,-3.9973675,-16.417297)">
      <g
         id="#373435ff-5"
         transform="translate(204.78526,846.21012)">
        <path
           id="path20-9"
           style="stroke-width:1.33333"
           d="m 783.06641,61.173828 c -40.36,81.546662 -80.53378,163.187112 -120.78711,244.787112 17.98666,-0.0667 35.9876,0.18557 53.96093,-0.1211 8.02667,-17.26666 16.43995,-34.34653 24.61329,-51.5332 23.42666,-0.0267 46.84057,-0.0267 70.2539,0 1.96,17.24 3.46636,34.53242 5.67969,51.73242 16.30667,-0.14666 32.61325,-0.0261 48.91992,-0.0527 -9.6,-81.58667 -19.27958,-163.15943 -28.90625,-244.746096 -17.90667,-0.133333 -35.82771,0.01359 -53.73437,-0.06641 z m 455.37309,0 c -18.8134,24.066667 -37.8132,47.998642 -55.4532,72.945312 -1.9066,-3.16 -2.9064,-6.75914 -4.373,-10.11914 -8.28,-21.18667 -17.7197,-41.866432 -26.6797,-62.759766 -17.84,-0.01333 -35.6795,-0.02633 -53.5195,0.01367 16.2133,40.186666 32.4391,80.359536 48.7324,120.519536 -31.1333,41.48 -62.5067,82.77323 -93.6934,124.22656 21.9334,0.0267 43.8675,0.0267 65.8008,0 17.08,-21.93333 34.2401,-43.82716 50.7734,-66.17383 8.4,22.38667 18.0532,44.29357 27.5332,66.24024 18.9734,-0.12 37.9603,-0.0261 56.9336,-0.0527 -16.1066,-38.57333 -32.2674,-77.1213 -48.414,-115.66797 32.2266,-43.06666 64.5741,-86.0388 96.8008,-129.105468 -21.48,-0.06667 -42.9614,0.06693 -64.4414,-0.06641 z m 499.5976,0.02148 c -6.49,-0.0083 -12.9829,0.117917 -19.4629,0.03125 -22.72,0.01333 -45.4284,-0.02599 -68.1484,0.02734 -15.8534,81.586662 -31.7066,163.173102 -47.5332,244.759762 17.1066,-0.12 34.2273,0.23951 51.334,-0.17383 6.08,-32.25333 12.4673,-64.45302 18.7207,-96.67968 9.4,0.46666 19.5866,-1.46641 28.3066,2.93359 7.92,6.6 11.6524,16.69367 15.3457,26.01367 7.8133,22.4 15.6547,44.85292 21.3613,67.90625 18.24,0 36.4931,0.013 54.7598,-0.0137 -7.1067,-22.76 -14.5872,-45.41253 -23.5605,-67.50586 -4.8267,-11.66667 -9.8132,-23.40172 -17.1465,-33.76172 15.8133,-3.72 31.0803,-11.81198 41.0136,-24.94531 13.72,-17.52 17.9453,-40.72081 16.252,-62.49414 -1.24,-15.98667 -7.0786,-32.372968 -19.252,-43.292968 -8.84,-8.04 -20.9735,-10.827344 -32.5468,-12.027344 -6.4667,-0.626666 -12.9534,-0.76901 -19.4434,-0.777344 z m -307.6113,0.01758 C 1390.0658,142.75956 1349.894,224.4 1309.6406,306 c 17.9867,-0.0667 35.9857,0.18753 53.959,-0.11914 8.0267,-17.26667 16.44,-34.34849 24.6133,-51.53516 23.4267,-0.0267 46.8406,-0.0267 70.2539,0 1.96,17.24 3.4664,34.53438 5.6797,51.73438 16.3067,-0.14667 32.6132,-0.0261 48.9199,-0.0527 -9.6,-81.58666 -19.2796,-163.16138 -28.9062,-244.748043 -17.9067,-0.133333 -35.8278,0.01359 -53.7344,-0.06641 z m 166.7383,0.0078 c -8.4667,-0.0067 -16.9307,-0.0014 -25.3907,0.05859 -0.24,0.64 -0.6936,1.920547 -0.9336,2.560547 -15.4933,80.759995 -31.5468,161.412555 -46.8535,242.199215 17.0267,-0.0667 34.0538,0.0273 51.0938,-0.0527 15.8266,-81.58667 31.6808,-163.15943 47.4941,-244.746095 -8.4733,0.0067 -16.9435,-0.01286 -25.4101,-0.01953 z m -602.49808,0.0059 c -23.08,0.01333 -46.14657,-0.01299 -69.22657,0.01367 C 909.55945,142.8269 893.72086,224.41333 877.88086,306 c 30.04,0.0267 60.07914,3.4e-4 90.11914,0.0137 20.54667,0.16 41.9609,-0.33409 60.9609,-9.10742 10.96,-5.2 20.2399,-13.66617 26.8399,-23.82617 10.1466,-15.64 15.5732,-34.47982 14.5332,-53.14649 -0.9733,-16.41333 -9.7072,-32.46614 -23.8672,-41.13281 8.8667,-5.06667 16.7059,-12.147 21.8926,-21.01367 9.4666,-16.01333 11.2677,-35.88078 7.041,-53.80078 -3.4533,-14.800002 -13.1744,-28.306252 -27.041,-34.906252 -16.5467,-8.466667 -35.6534,-7.640182 -53.69338,-7.853516 z m -5.9004,49.751962 c 7.27167,-0.005 14.54198,0.0615 21.80858,0.4082 6.2934,-0.0133 12.9987,3.45404 15.0254,9.7207 2.8133,8.98667 0.2535,19.43998 -6.1465,26.30664 -5.4,5.61334 -13.4932,7.0661 -20.9199,7.7461 -13.37333,1.13333 -26.81289,0.46601 -40.21289,0.66601 2.74667,-14.97333 5.76029,-29.8795 8.62696,-44.82617 7.27333,0.06 14.54669,-0.0165 21.81835,-0.0215 z m 727.01368,0.002 c 7.9367,-0.0167 15.8733,0.005 23.8066,0.21875 5.2,0.56 11.5605,0.28112 15.1739,4.81445 3.5066,4 4.1594,9.6531 3.7461,14.75977 -1.1467,13.94666 -11.2794,27.44057 -25.3594,30.2539 -16.92,3.28 -34.2674,2.51995 -51.4141,2.61328 3.44,-17.54666 6.7603,-35.10729 10.2403,-52.64062 7.9333,0.0533 15.8699,-0.003 23.8066,-0.0195 z M 798.37305,134.5332 c 2.50666,23.32 4.97312,46.65266 7.45312,69.97266 -13.69333,0.04 -27.37307,0.0137 -41.0664,0.0137 11.18666,-23.33333 22.34661,-46.67966 33.61328,-69.98633 z m 647.35935,0.041 c 2.5067,23.32 4.9751,46.65265 7.4551,69.97266 -13.6933,0.04 -27.375,0.0137 -41.0684,0.0137 11.1867,-23.33334 22.3467,-46.67966 33.6133,-69.98633 z m -497.41209,72.59961 c 15.05334,0.08 30.10683,-0.0139 45.16016,0.0527 8.01333,0.04 17.62593,1.57297 21.89253,9.29297 7.48,13.65333 0.028,33.41464 -14.6523,38.66797 -7.62666,2.18667 -15.64114,2.38534 -23.50781,2.63867 -12.93333,0.14667 -25.85344,0.0547 -38.77344,0.0547 3.28,-16.89333 6.50753,-33.8137 9.88086,-50.70703 z"
           transform="scale(0.75)" />
      </g>
      <path
         id="rect346-2-1"
         style="fill:#d2d3d5;fill-opacity:1;stroke:#000000;stroke-width:0"
         d="m 592.9749,846.20963 -115.08985,70.62011 220.48975,-0.64013 39.16992,-69.97998 z m -136.37989,84.0205 -113.49902,69.49951 307.68018,0.42036 39.20947,-69.88031 z m 187.27002,83.70997 -325.59961,0.6299 -112.71972,69.6401 h 398.28955 z" />
      <g
         id="#cc292bff-0-0"
         style="fill:#ffff00"
         transform="translate(204.78544,846.20964)">
        <path
           fill="#cc292b"
           opacity="1"
           d="m 468.17,50.2 c 6.75,-5.39 15.21,-8.82 23.9,-8.99 -5.37,10.21 -12.59,19.32 -18.8,29.02 -3.1,4.67 -6.34,9.25 -9.64,13.79 -16.18,23.09 -32.42,46.17 -47.7,69.87 -2.96,4.66 -5.99,9.26 -9.11,13.81 -14.17,21.54 -28.24,43.23 -40.38,66 -12.6,0.33 -25.22,0.06 -37.83,0.14 3.05,-4.13 6.18,-8.26 8.24,-13 4.89,-9.31 6.15,-19.97 6.87,-30.32 0.58,-7.64 -0.85,-15.29 -2.99,-22.6 -23.34,21.65 -46.97,43.03 -69.18,65.86 -15.56,0.14 -31.13,0.06 -46.69,0.03 5.22,-6.99 11.81,-12.77 18.12,-18.76 17.76,-16.86 37.23,-31.77 56.05,-47.4 6.1,-4.7 12.22,-9.37 18.47,-13.87 5.67,-3.62 10.86,-7.97 16.84,-11.11 -5.78,-9.6 -12.75,-18.41 -20.48,-26.5 -7.79,-7.33 -15.63,-14.83 -25.16,-19.87 -7.5,-3.95 -14.9,-8.09 -22.27,-12.27 -0.66,-0.58 -1.96,-1.74 -2.61,-2.31 3.15,0 6.08,1.19 8.98,2.29 9.06,3.72 18.27,7.12 27.19,11.18 11.31,5.88 22.14,12.74 31.96,20.88 6.05,4.99 11.78,10.35 17.54,15.66 7.28,-5.91 15.16,-11.03 22.81,-16.43 14.99,-10.49 30.11,-20.81 45.11,-31.29 6.71,-4.71 13.49,-9.31 20.37,-13.78 10.19,-6.57 20.27,-13.33 30.39,-20.03 M 439.9,84 c -0.71,0.21 -1.36,0.56 -1.94,1.05 -27.11,20.12 -53.03,41.86 -77.29,65.36 0.73,1.15 1.51,2.28 2.31,3.39 h 0.23 c 2.24,3.93 5.03,7.5 7.28,11.43 3.58,-3.6 6.65,-7.64 10.06,-11.38 11.26,-13.16 23.17,-25.74 34.48,-38.86 9.74,-10.36 19.56,-20.64 29.33,-30.97 3.83,-4.05 7.9,-7.86 11.64,-11.99 -5.45,3.87 -10.94,7.72 -16.1,11.97 z"
           id="path15-9-7"
           style="fill:#cc292b;fill-opacity:1" />
      </g>
    </g>
  </g>
  <metadata
     id="metadata7980">
    <rdf:RDF>
      <cc:Work
         rdf:about="">
        <dc:title>ABX Air logo</dc:title>
        <dc:date>9 sep 2021</dc:date>
        <cc:license
           rdf:resource="http://scripts.sil.org/OFL" />
        <dc:rights>
          <cc:Agent>
            <dc:title>N/A</dc:title>
          </cc:Agent>
        </dc:rights>
      </cc:Work>
      <cc:License
         rdf:about="http://scripts.sil.org/OFL">
        <cc:permits
           rdf:resource="http://scripts.sil.org/pub/OFL/Reproduction" />
        <cc:permits
           rdf:resource="http://scripts.sil.org/pub/OFL/Distribution" />
        <cc:permits
           rdf:resource="http://scripts.sil.org/pub/OFL/Embedding" />
        <cc:permits
           rdf:resource="http://scripts.sil.org/pub/OFL/DerivativeWorks" />
        <cc:requires
           rdf:resource="http://scripts.sil.org/pub/OFL/Notice" />
        <cc:requires
           rdf:resource="http://scripts.sil.org/pub/OFL/Attribution" />
        <cc:requires
           rdf:resource="http://scripts.sil.org/pub/OFL/ShareAlike" />
        <cc:requires
           rdf:resource="http://scripts.sil.org/pub/OFL/DerivativeRenaming" />
        <cc:requires
           rdf:resource="http://scripts.sil.org/pub/OFL/BundlingWhenSelling" />
      </cc:License>
    </rdf:RDF>
  </metadata>
</svg>
