<?xml version="1.0" encoding="UTF-8" standalone="no"?>
<svg
   xmlns:dc="http://purl.org/dc/elements/1.1/"
   xmlns:cc="http://creativecommons.org/ns#"
   xmlns:rdf="http://www.w3.org/1999/02/22-rdf-syntax-ns#"
   xmlns:svg="http://www.w3.org/2000/svg"
   xmlns="http://www.w3.org/2000/svg"
   xmlns:sodipodi="http://sodipodi.sourceforge.net/DTD/sodipodi-0.dtd"
   xmlns:inkscape="http://www.inkscape.org/namespaces/inkscape"
   width="306.37109pt"
   height="112.83203pt"
   viewBox="0 0 306.37109 112.83203"
   version="1.1"
   id="svg2"
   inkscape:version="0.91 r13725"
   sodipodi:docname="AirArabia_Logo_-_Bilingual_Vertical_Negative.svg">
  <metadata
     id="metadata20">
    <rdf:RDF>
      <cc:Work
         rdf:about="">
        <dc:format>image/svg+xml</dc:format>
        <dc:type
           rdf:resource="http://purl.org/dc/dcmitype/StillImage" />
        <dc:title></dc:title>
      </cc:Work>
    </rdf:RDF>
  </metadata>
  <sodipodi:namedview
     pagecolor="#ffffff"
     bordercolor="#666666"
     borderopacity="1"
     objecttolerance="10"
     gridtolerance="10"
     guidetolerance="10"
     inkscape:pageopacity="0"
     inkscape:pageshadow="2"
     inkscape:window-width="1280"
     inkscape:window-height="685"
     id="namedview18"
     showgrid="false"
     fit-margin-top="0"
     fit-margin-left="0"
     fit-margin-right="0"
     fit-margin-bottom="0"
     inkscape:zoom="1.2372656"
     inkscape:cx="191.48024"
     inkscape:cy="69.865313"
     inkscape:window-x="0"
     inkscape:window-y="1"
     inkscape:window-maximized="1"
     inkscape:current-layer="surface1" />
  <defs
     id="defs4">
    <clipPath
       id="clip1">
      <path
         d="m 0,0 400.88281,0 0,206.65234 -400.88281,0 z m 0,0"
         id="path7"
         inkscape:connector-curvature="0" />
    </clipPath>
  </defs>
  <g
     id="surface1"
     transform="translate(-47.257813,-46.386719)">
    <path
       style="fill:#e81142;fill-opacity:1;fill-rule:nonzero;stroke:none"
       d="m 285.21484,81.496094 c -0.42968,1.324219 -1.07812,2.480469 -1.95312,3.46875 -0.87891,0.988281 -2.00391,1.753906 -3.3711,2.292969 -1.37109,0.539062 -3,0.808593 -4.89062,0.808593 -1.4375,0 -2.60547,-0.06641 -3.50391,-0.203125 -0.89843,-0.136718 -1.48047,-0.269531 -1.75,-0.402343 l 0,-12 c 0,-2.558594 0.64844,-4.695313 1.95313,-6.402344 C 273.00391,67.351563 274.95703,66.5 277.5625,66.5 c 2.60547,0 4.64062,0.953125 6.10156,2.863281 1.45703,1.910157 2.19141,4.4375 2.19141,7.582032 0,1.574218 -0.21485,3.222656 -0.64063,4.550781 m 5.59375,-18.234375 c -1.46093,-1.433594 -3.14843,-2.527344 -5.05468,-3.265625 -1.91016,-0.742188 -3.94141,-1.113281 -6.10157,-1.113281 -1.57422,0 -2.95703,0.191406 -4.14453,0.574218 -1.1914,0.378907 -2.20312,0.832032 -3.03125,1.347657 -0.83203,0.515625 -1.47265,1 -1.92187,1.449218 -0.44922,0.449219 -0.71875,0.742188 -0.8086,0.875 l 0,-15.933593 -9.4375,2.726562 0,44.480469 c 0.26953,0.04297 0.79688,0.121094 1.58594,0.234375 0.78516,0.113281 1.76172,0.214844 2.92969,0.304687 1.16797,0.08984 2.49219,0.179688 3.97656,0.269532 1.48438,0.08984 3.03516,0.132812 4.65234,0.132812 7.32032,0 12.83985,-1.695312 16.54688,-5.085937 3.70703,-3.394532 5.55859,-8.300782 5.55859,-14.324219 0,-2.738281 -0.42578,-5.175781 -1.28125,-7.3125 -0.85156,-2.132813 -2.00781,-3.917969 -3.46875,-5.359375 m -48.32422,15.503906 c 0,2.5625 -0.65234,4.695313 -1.95312,6.402344 -1.30469,1.707031 -3.25781,2.5625 -5.86719,2.5625 -2.60156,0 -4.63672,-0.953125 -6.09765,-2.863281 -1.45704,-1.910157 -2.19141,-4.4375 -2.19141,-7.582032 0,-1.574218 0.21484,-3.226562 0.64453,-4.550781 0.42578,-1.324219 1.07422,-2.480469 1.95313,-3.46875 0.875,-0.992187 2,-1.753906 3.37109,-2.292969 1.37109,-0.539062 2.99609,-0.808593 4.88672,-0.808593 1.4375,0 2.60547,0.06641 3.5039,0.203125 0.89844,0.132812 1.48047,0.269531 1.75,0.402343 z m 4.85547,-18.367187 c -1.30468,-0.382813 -2.89843,-0.730469 -4.78515,-1.046875 -1.89063,-0.3125 -4.04688,-0.46875 -6.47266,-0.46875 -3.01172,0 -5.70703,0.460937 -8.08594,1.378906 -2.38281,0.921875 -4.41797,2.214844 -6.10156,3.878906 -1.68359,1.660156 -2.97656,3.671875 -3.875,6.03125 -0.89844,2.359375 -1.34766,5.289063 -1.34766,8.121094 0,2.785156 0.42579,5.246094 1.28125,7.378906 0.85157,2.136719 1.9961,3.921875 3.4375,5.359375 1.4375,1.4375 3.1211,2.515625 5.05469,3.234375 1.92969,0.71875 3.97656,1.078125 6.13281,1.078125 1.52735,0 2.88672,-0.191406 4.07813,-0.574219 1.19141,-0.378906 2.19922,-0.816406 3.03516,-1.3125 0.82812,-0.492187 1.48046,-0.976562 1.95312,-1.449218 0.46875,-0.46875 0.75,-0.773438 0.83984,-0.910157 l 0,3.304688 9.4375,-0.0039 0,-32.078125 c -0.22656,-0.136719 -0.71875,-0.394532 -1.48437,-0.777344 -0.76172,-0.378906 -1.79688,-0.761719 -3.09766,-1.144531 M 216.55859,60.21485 c -0.94922,-0.496094 -2.32031,-0.921875 -4.28906,-1.238281 -1.125,-0.179688 -2.31641,-0.265625 -3.57422,-0.265625 -2.0664,0 -3.97656,0.191406 -5.72656,0.570312 -1.75391,0.382813 -3.29297,0.808594 -4.61719,1.28125 -1.32812,0.472656 -2.39453,0.933594 -3.20312,1.382813 -0.8086,0.449218 -1.30469,0.742187 -1.48047,0.875 l 0,31.582031 9.43359,0 0,-26.390625 c 0.40625,-0.226563 1.125,-0.527344 2.16016,-0.910156 1.03125,-0.382813 2.49219,-0.574219 4.3789,-0.574219 0.62891,0 1.29297,0.04687 1.98829,0.136719 0.69531,0.08984 1.2539,0.164062 1.95312,0.367187 0.0586,0.01953 0.10938,0.03125 0.16406,0.05078 0.97657,-2.367187 1.88282,-4.582031 2.71875,-6.636718 0.0312,-0.07813 0.0625,-0.152344 0.0937,-0.230469 M 344.19136,78.76563 c 0,2.5625 -0.65235,4.695313 -1.95313,6.402344 -1.30469,1.707031 -3.25781,2.5625 -5.86719,2.5625 -2.60156,0 -4.63672,-0.953125 -6.09765,-2.863281 -1.45703,-1.910157 -2.19141,-4.4375 -2.19141,-7.582032 0,-1.574218 0.21484,-3.226562 0.64063,-4.550781 0.42968,-1.324219 1.07812,-2.480469 1.95703,-3.46875 0.875,-0.992187 2,-1.753906 3.36718,-2.292969 1.3711,-0.539062 3,-0.808593 4.89063,-0.808593 1.43359,0 2.60547,0.06641 3.50391,0.203125 0.89843,0.132812 1.48046,0.269531 1.75,0.402343 z m 7.95312,-17.222656 c -0.76172,-0.378906 -1.79687,-0.761719 -3.09766,-1.144531 -1.30468,-0.382813 -2.89843,-0.730469 -4.78906,-1.046875 -1.88672,-0.3125 -4.04297,-0.46875 -6.46875,-0.46875 -3.01172,0 -5.70703,0.460937 -8.08984,1.378906 -2.38281,0.921875 -4.41406,2.214844 -6.09766,3.878906 -1.6875,1.660156 -2.97656,3.671875 -3.875,6.03125 -0.89844,2.359375 -1.34765,5.289063 -1.34765,8.121094 0,2.785156 0.42578,5.246094 1.27734,7.378906 0.85547,2.136719 2,3.921875 3.44141,5.359375 1.4375,1.4375 3.12109,2.515625 5.05468,3.234375 1.92969,0.71875 3.97657,1.078125 6.13282,1.078125 1.52734,0 2.88671,-0.191406 4.07812,-0.574219 1.1875,-0.378906 2.19922,-0.816406 3.03125,-1.3125 0.83203,-0.492187 1.48438,-0.976562 1.95703,-1.449218 0.46875,-0.46875 0.75,-0.773438 0.83985,-0.910157 l 0,3.304688 9.4375,-0.0039 0,-32.078125 c -0.22657,-0.136719 -0.72266,-0.394532 -1.48438,-0.777344 M 307.09761,46.38673 c -1.44141,0 -2.67579,0.496094 -3.70704,1.484375 -1.03515,0.988281 -1.55468,2.199219 -1.55468,3.636719 0,1.4375 0.51953,2.664062 1.55468,3.675781 1.03125,1.007812 2.26563,1.515625 3.70704,1.515625 1.48046,0 2.73828,-0.507813 3.76953,-1.515625 1.03515,-1.011719 1.55078,-2.238281 1.55078,-3.675781 0,-1.4375 -0.51563,-2.648438 -1.55078,-3.636719 -1.03125,-0.988281 -2.28907,-1.484375 -3.76953,-1.484375 m -4.6875,48.011719 9.4375,0 0,-35.515625 -9.4375,2.722656 z M 156.36719,75.117188 c 0.8125,-2.1875 1.64062,-4.394532 2.47656,-6.605469 0.83203,-2.214844 1.60156,-4.25 2.30078,-6.105469 0.70313,-1.859375 1.32422,-3.453125 1.86719,-4.785156 0.53906,-1.332031 0.92578,-2.238281 1.15234,-2.714844 0.22656,0.476563 0.60938,1.382813 1.15235,2.714844 0.54296,1.332031 1.16406,2.925781 1.86328,4.785156 0.69922,1.855469 1.46875,3.890625 2.30468,6.105469 0.83594,2.210937 1.66016,4.417969 2.47266,6.605469 z m 26.16406,1.640625 c -1.12891,-2.949219 -2.25781,-5.792969 -3.38672,-8.535157 -1.13281,-2.738281 -2.17187,-5.269531 -3.12109,-7.601562 -0.94922,-2.335938 -1.80469,-4.371094 -2.57422,-6.109375 -0.76563,-1.738281 -1.37891,-3.082031 -1.83203,-4.035156 -0.99219,-2.238282 -1.42578,-3.242188 -1.42578,-3.242188 l -12.0586,0 c 0,0 -0.43359,1.003906 -1.42578,3.242188 -0.45312,0.953125 -1.0625,2.296875 -1.82812,4.035156 -0.76954,1.738281 -1.62891,3.773437 -2.57813,6.109375 -0.94531,2.332031 -1.98828,4.863281 -3.11719,7.601562 -1.1289,2.742188 -2.25781,5.585938 -3.39062,8.535157 -1.12891,2.953125 -2.25781,5.929687 -3.38672,8.929687 -1.12891,3 -2.19141,5.902344 -3.18359,8.710938 l 9.96093,0 3.86328,-10.425782 22.23047,0 3.86719,10.425782 9.96094,0 c -0.99219,-2.808594 -2.05469,-5.710938 -3.1875,-8.710938 -1.12891,-3 -2.25781,-5.976562 -3.38672,-8.929687 M 107.04688,46.386719 c -1.4375,0 -2.67579,0.496094 -3.70704,1.484375 -1.03515,0.988281 -1.55078,2.199219 -1.55078,3.636719 0,1.4375 0.51563,2.664062 1.55078,3.675781 1.03125,1.007812 2.26954,1.515625 3.70704,1.515625 1.48046,0 2.73828,-0.507813 3.77343,-1.515625 1.03125,-1.011719 1.55078,-2.238281 1.55078,-3.675781 0,-1.4375 -0.51953,-2.648438 -1.55078,-3.636719 -1.03515,-0.988281 -2.29297,-1.484375 -3.77343,-1.484375 m -4.6836,48.011719 9.4336,0 0,-35.515625 -9.4336,2.722656 z M 64.402344,75.117188 c 0.816406,-2.1875 1.640625,-4.394532 2.476562,-6.605469 0.835938,-2.214844 1.605469,-4.25 2.304688,-6.105469 0.699219,-1.859375 1.324219,-3.453125 1.867187,-4.785156 0.539063,-1.332031 0.925782,-2.238281 1.148438,-2.714844 0.230469,0.476563 0.613281,1.382813 1.152344,2.714844 0.546875,1.332031 1.167968,2.925781 1.867187,4.785156 0.699219,1.855469 1.46875,3.890625 2.300781,6.105469 0.839844,2.210937 1.664063,4.417969 2.476563,6.605469 z m 26.167969,1.640625 C 89.441406,73.808594 88.308594,70.964844 87.179688,68.222656 86.050781,65.484375 85.011719,62.953125 84.0625,60.621094 83.113281,58.285156 82.253906,56.25 81.484375,54.511719 80.71875,52.773438 80.109375,51.429688 79.65625,50.476563 78.660156,48.238281 78.230469,47.234375 78.230469,47.234375 l -12.058594,0 c 0,0 -0.433594,1.003906 -1.425781,3.242188 -0.453125,0.953125 -1.0625,2.296875 -1.832031,4.035156 -0.765625,1.738281 -1.625,3.773437 -2.574219,6.109375 -0.949219,2.332031 -1.988281,4.863281 -3.117188,7.601562 -1.128906,2.742188 -2.261718,5.585938 -3.390625,8.535157 -1.128906,2.953125 -2.257812,5.929687 -3.390625,8.929687 -1.128906,3 -2.191406,5.902344 -3.179687,8.710938 l 9.960937,0 3.863282,-10.425782 22.230468,0 3.863282,10.425782 9.960937,0 C 96.148438,91.589844 95.085938,88.6875 93.957031,85.6875 c -1.128906,-3 -2.257812,-5.976562 -3.386718,-8.929687 m 50.187497,-9.675782 c 0.97266,-2.367187 1.88281,-4.582031 2.71875,-6.636718 0.0312,-0.07813 0.0625,-0.152344 0.0937,-0.230469 -0.94922,-0.496094 -2.32031,-0.921875 -4.28906,-1.238281 -1.125,-0.179688 -2.31641,-0.265625 -3.57422,-0.265625 -2.06641,0 -3.97656,0.191406 -5.72656,0.570312 -1.75391,0.382813 -3.29297,0.808594 -4.61719,1.28125 -1.32812,0.472656 -2.39453,0.933594 -3.20312,1.382813 -0.8086,0.449218 -1.30469,0.742187 -1.48047,0.875 l 0,31.582031 9.43359,0 0,-26.390625 c 0.40625,-0.226563 1.12109,-0.527344 2.16016,-0.910156 1.03125,-0.382813 2.49218,-0.574219 4.3789,-0.574219 0.62891,0 1.28907,0.04687 1.98828,0.136719 0.69532,0.08984 1.25391,0.164062 1.95313,0.367187 0.0586,0.01953 0.10937,0.03125 0.16406,0.05078"
       id="path14"
       inkscape:connector-curvature="0" />
    <path
       style="fill:#e81142;fill-opacity:1;fill-rule:nonzero;stroke:none"
       d="m 229.39453,133.80078 c 0,2.16797 -0.55078,3.97266 -1.65234,5.41797 -1.10547,1.44531 -2.75782,2.16797 -4.96094,2.16797 -2.20703,0 -3.92578,-0.8086 -5.16406,-2.42188 -1.23438,-1.61718 -1.85157,-3.75781 -1.85157,-6.41797 0,-1.33203 0.17969,-2.72656 0.54297,-3.84765 0.35938,-1.12109 0.91016,-2.10156 1.65235,-2.9375 0.74218,-0.83594 1.6914,-1.48047 2.85156,-1.9375 1.16016,-0.45703 2.53516,-0.6875 4.13672,-0.6875 1.21484,0 2.20312,0.0586 2.96484,0.17187 0.75781,0.11329 1.25391,0.23047 1.48047,0.34375 z m 52.13281,-16.52344 -8,2.3086 0,21.27343 -9.3789,0 c -1.03516,0 -1.8711,-0.14453 -2.50391,-0.43359 -0.63672,-0.28906 -1.11328,-0.70703 -1.4375,-1.26562 -0.32812,-0.55469 -0.53906,-1.23829 -0.63672,-2.04297 -0.0937,-0.80469 -0.14453,-1.74219 -0.14453,-2.82032 l 0,-17.01953 -7.94141,2.29297 0,14.72656 c 0,1.07813 -0.0547,2.01563 -0.17187,2.82032 -0.11719,0.80468 -0.33594,1.48828 -0.66406,2.04297 -0.32422,0.55859 -0.79688,0.97656 -1.40625,1.26562 -0.61719,0.28906 -1.44141,0.43359 -2.47657,0.43359 l -9.38281,0 0,-20.98046 c -0.1914,-0.11328 -0.60937,-0.33203 -1.25781,-0.65625 -0.64844,-0.32032 -1.51953,-0.64453 -2.62109,-0.96875 -1.10547,-0.32422 -2.45313,-0.61719 -4.05079,-0.88282 -1.59765,-0.26562 -3.42187,-0.40234 -5.47656,-0.40234 -2.55078,0 -4.82812,0.39063 -6.84765,1.17188 -2.01563,0.78125 -3.73438,1.875 -5.16016,3.28125 -1.42578,1.40625 -2.51953,3.10937 -3.28125,5.10546 -0.76172,1.9961 -1.14063,4.47657 -1.14063,6.875 0,2.35938 0.36329,4.44141 1.08594,6.2461 0.71875,1.80468 1.69141,3.3164 2.90625,4.53515 1.21875,1.21485 2.64453,2.12891 4.28125,2.73828 1.63281,0.60547 3.36328,0.91016 5.1875,0.91016 1.29297,0 2.44531,-0.16016 3.45313,-0.48437 1.00781,-0.32032 1.86328,-0.69141 2.5664,-1.11329 0.70313,-0.41796 1.25782,-0.82421 1.65235,-1.22265 0.40234,-0.40235 0.64062,-0.66016 0.71484,-0.77344 l 0,3.41406 7.98828,0 0,-0.004 11.10938,0.004 c 1.49609,0 2.89843,-0.26953 4.20312,-0.80859 1.30078,-0.53516 2.33985,-1.57031 3.10547,-3.10938 0.76953,1.53907 1.73438,2.57422 2.90625,3.10938 1.17188,0.53906 2.50391,0.80859 4,0.80859 l 18.82031,0 z M 255.875,150.41406 c -1.23047,0 -2.28516,0.42188 -3.16797,1.26563 -0.88281,0.84375 -1.32422,1.8789 -1.32422,3.10547 0,1.23046 0.44141,2.27343 1.32422,3.13671 0.88281,0.86329 1.9375,1.29688 3.16797,1.29688 1.26562,0 2.33594,-0.43359 3.21875,-1.29688 0.88281,-0.86328 1.32422,-1.90625 1.32422,-3.13671 0,-1.22657 -0.44141,-2.26172 -1.32422,-3.10547 -0.88281,-0.84375 -1.95313,-1.26563 -3.21875,-1.26563 m -104.66406,-9.25 c -3.00782,0.88672 -7.39063,0.0195 -7.72266,-0.13672 l 0,-16.51562 c 0,0 3.16406,-2.24219 7.03906,-1.50391 3.875,0.73828 6.60547,3.82422 6.60547,9.41797 0,4.43359 -2.07422,7.60547 -5.92187,8.73828 m 40.27734,-0.30469 -5.35547,0 c -1.03515,0 -1.86719,-0.14453 -2.5,-0.43359 -0.63281,-0.28906 -1.11328,-0.70703 -1.4375,-1.26562 -0.32812,-0.55469 -0.53906,-1.23829 -0.63672,-2.04297 -0.0977,-0.80469 -0.14062,-1.74219 -0.14062,-2.82032 l 0,-27.92187 -8.00391,2.3125 0,25.60937 c 0,1.07813 -0.0469,2.01563 -0.14062,2.82032 -0.0977,0.80468 -0.3086,1.48828 -0.63672,2.04297 -0.32422,0.55859 -0.79297,0.97656 -1.40625,1.26562 -0.61719,0.28906 -1.44141,0.43359 -2.47656,0.43359 l -5.32813,0 c 1.25391,-2.34765 1.92969,-5.27343 1.92969,-8.66015 0,-8.84766 -5.0586,-14.30469 -12.33594,-15.12891 -4.18359,-0.47265 -8.29297,0.98438 -9.53516,1.47657 l 0.004,-12.17188 -7.99609,2.25781 0,32.22656 -3.33985,0 c -1.03515,0 -1.87109,-0.14453 -2.5,-0.43359 -0.63672,-0.28906 -1.11718,-0.70703 -1.4414,-1.26562 -0.32422,-0.55469 -0.53906,-1.23829 -0.63281,-2.04297 -0.0977,-0.80469 -0.14454,-1.74219 -0.14454,-2.82032 l 0,-17.01953 -7.9414,2.29297 0,14.72656 c 0,1.07813 -0.0586,2.01563 -0.17578,2.82032 -0.10938,0.80468 -0.33203,1.48828 -0.66016,2.04297 -0.32812,0.55859 -0.79687,0.97656 -1.41016,1.26562 -0.61328,0.28906 -1.4375,0.43359 -2.47265,0.43359 l -9.38281,0 0,-23.57421 -7.996099,2.30859 c 0,0.008 -0.0039,0.0117 -0.0039,0.0195 l 0,27.78125 c 0,1.72656 -0.414062,2.92578 -1.238281,3.59766 C 95.328125,151.66406 94.207031,152 92.789063,152 c -0.925782,0 -1.765625,-0.11719 -2.535157,-0.34375 -0.765625,-0.23438 -1.25,-0.38672 -1.4375,-0.46094 l -1.902343,5.35156 c 0.07813,0.0352 0.328125,0.14454 0.75,0.31641 0.421875,0.17188 0.960937,0.34766 1.613281,0.51953 0.648437,0.17188 1.398437,0.32422 2.242187,0.45703 0.84375,0.13282 1.726563,0.20313 2.648438,0.20313 1.496094,0 2.925781,-0.1836 4.289062,-0.54688 1.359375,-0.36718 2.546879,-0.99609 3.570309,-1.90234 1.01172,-0.89844 1.82813,-2.08984 2.44141,-3.5625 0.60938,-1.46094 0.91016,-3.30469 0.91797,-5.52734 l 0,1.14843 11.11328,0 c 1.49609,0 2.89453,-0.26953 4.19922,-0.80859 1.30469,-0.53516 2.34375,-1.57031 3.10937,-3.10938 0.76563,1.53907 1.73438,2.57422 2.90625,3.10938 1.17188,0.53906 2.50391,0.80859 4,0.80859 l 39.76563,0 c 1.49609,0 2.89453,-0.26953 4.20312,-0.80859 1.30469,-0.53516 2.33985,-1.57031 3.10547,-3.10938 0.76563,1.53907 1.73828,2.57422 2.90625,3.10938 1.17188,0.53906 2.50391,0.80859 4,0.80859 l 14.79297,0 0,-41.27734 -8,2.30859 z m 52.39063,9.55469 c -1.23047,0 -2.28516,0.42188 -3.16797,1.26563 -0.88282,0.84375 -1.32422,1.8789 -1.32422,3.10547 0,1.23046 0.4414,2.27343 1.32422,3.13671 0.88281,0.86329 1.9375,1.29688 3.16797,1.29688 1.26562,0 2.33984,-0.43359 3.21875,-1.29688 0.88671,-0.86328 1.32812,-1.90625 1.32812,-3.13671 0,-1.22657 -0.44141,-2.26172 -1.32812,-3.10547 -0.87891,-0.84375 -1.95313,-1.26563 -3.21875,-1.26563 m 24.04296,0 c -1.26562,0 -2.33984,0.42969 -3.21875,1.29297 -0.88281,0.86719 -1.32812,1.91016 -1.32812,3.13672 0,1.23047 0.44531,2.26172 1.32812,3.10937 0.87891,0.84375 1.95313,1.26563 3.21875,1.26563 1.23047,0 2.28516,-0.42188 3.16797,-1.26563 0.88282,-0.84765 1.32422,-1.8789 1.32422,-3.10937 0,-1.22656 -0.4414,-2.26953 -1.32422,-3.13672 -0.88281,-0.86328 -1.9375,-1.29297 -3.16797,-1.29297 m 77.64844,-41.71093 0,39.0039 8.0586,0 0,-41.33203 z m -14.13281,28.35546 c 0,1.73047 -0.41406,2.92578 -1.23828,3.59766 -0.82422,0.67187 -1.94922,1.00781 -3.36719,1.00781 l -13.95703,0 c -0.34375,-0.26172 -0.67188,-0.54687 -0.98047,-0.875 -0.75,-0.80078 -1.34375,-1.80859 -1.78125,-3.01953 -0.44531,-1.21094 -0.66406,-2.61719 -0.66406,-4.21875 0,-3.08203 0.78515,-5.45703 2.35937,-7.12109 1.57422,-1.66406 3.58985,-2.49219 6.04297,-2.49219 1.11328,0 2.10938,0.14063 2.99219,0.42969 0.86719,0.28125 1.60937,0.61328 2.23437,0.99609 l 3.11719,-6.05078 c -0.57031,-0.44922 -1.57812,-0.95312 -3.01953,-1.50781 -1.4375,-0.55469 -3.50391,-0.83594 -6.18359,-0.83594 -2.19141,0 -4.23438,0.38281 -6.13282,1.14453 -1.90234,0.76172 -3.55859,1.85938 -4.98046,3.29688 -1.41797,1.4375 -2.53907,3.17187 -3.36719,5.20703 -0.82422,2.03125 -1.23438,4.34375 -1.23438,6.93359 0,2.66797 0.41016,5.03125 1.23438,7.08594 0.14453,0.35547 0.30859,0.6914 0.46875,1.02734 l -7.41016,0 0,-24.3789 -8,2.30859 0,27.80078 c 0,1.72656 -0.41015,2.92578 -1.23828,3.59766 -0.82422,0.67187 -1.94531,1.00781 -3.36719,1.00781 -0.91797,0 -1.76172,-0.11719 -2.53125,-0.34375 -0.76562,-0.23438 -1.24609,-0.38672 -1.4375,-0.46094 l -1.89843,5.35156 c 0.0742,0.0352 0.32421,0.14454 0.74609,0.31641 0.42187,0.17188 0.95703,0.34766 1.61328,0.51953 0.65234,0.17188 1.39844,0.32422 2.24219,0.45703 0.84375,0.13282 1.72656,0.20313 2.64844,0.20313 1.49609,0 2.92578,-0.1836 4.28515,-0.54688 1.36719,-0.36718 2.55469,-0.99609 3.57031,-1.90234 1.01563,-0.89844 1.83204,-2.08984 2.44532,-3.5625 0.61328,-1.47656 0.92187,-3.33984 0.92187,-5.59375 l 0,1.26953 32.64453,0 c 1.4961,0 2.92188,-0.18359 4.28907,-0.54687 1.35937,-0.36329 2.55859,-1 3.59375,-1.89844 1.03906,-0.90235 1.86328,-2.09375 2.47656,-3.57031 0.61328,-1.47657 0.92187,-3.34766 0.92187,-5.60938 l 0,-29.70703 -8.05859,2.32813 z M 229.21094,114.03125 c 1.26562,0 2.33984,-0.43359 3.21875,-1.29687 0.88672,-0.86329 1.32812,-1.90625 1.32812,-3.13672 0,-1.22657 -0.4414,-2.26172 -1.32812,-3.10547 -0.87891,-0.84766 -1.95313,-1.26953 -3.21875,-1.26953 -1.22657,0 -2.28516,0.42187 -3.16797,1.26953 -0.88281,0.84375 -1.32422,1.8789 -1.32422,3.10547 0,1.23047 0.44141,2.27343 1.32422,3.13672 0.88281,0.86328 1.9414,1.29687 3.16797,1.29687 m -166.957034,0.75391 c 1.265625,0 2.335938,-0.42969 3.21875,-1.29297 0.886719,-0.86719 1.328125,-1.91016 1.328125,-3.13672 0,-1.23047 -0.441406,-2.26563 -1.328125,-3.10938 -0.882812,-0.84375 -1.953125,-1.26562 -3.21875,-1.26562 -1.230468,0 -2.285156,0.42187 -3.167968,1.26562 -0.878907,0.84375 -1.324219,1.87891 -1.324219,3.10938 0,1.22656 0.445312,2.26953 1.324219,3.13672 0.882812,0.86328 1.9375,1.29297 3.167968,1.29297 m 154.960934,-0.75391 c 1.26953,0 2.33985,-0.43359 3.22266,-1.29687 0.88281,-0.86329 1.32422,-1.90625 1.32422,-3.13672 0,-1.22657 -0.44141,-2.26172 -1.32422,-3.10547 -0.88281,-0.84766 -1.95313,-1.26953 -3.22266,-1.26953 -1.22656,0 -2.28515,0.42187 -3.16406,1.26953 -0.88281,0.84375 -1.32812,1.8789 -1.32812,3.10547 0,1.23047 0.44531,2.27343 1.32812,3.13672 0.87891,0.86328 1.9375,1.29687 3.16406,1.29687 M 69.332031,130.42578 c 0,5.11719 0,10.89844 -7.035156,10.89844 -7.039062,0 -7.039062,-5.78125 -7.039062,-10.89844 l 0,-6.80469 -8,2.30469 0,4.17578 c 0,0.25781 0.0039,0.51172 0.0078,0.76563 0.0625,2.92968 0.46875,5.44922 1.226563,7.55468 0.820312,2.28125 1.921875,4.14063 3.304687,5.58204 1.382813,1.4375 3,2.48437 4.84375,3.13671 1.847656,0.65235 3.796875,0.97657 5.847656,0.97657 1.914063,0 3.757813,-0.28516 5.539063,-0.85938 1.769531,-0.57812 3.355469,-1.54687 4.738281,-2.91015 1.382813,-1.36329 2.488281,-3.16407 3.304688,-5.41016 0.820312,-2.24609 1.234375,-5.03516 1.234375,-8.375 l 0,-13.27734 -7.972657,2.29297 z m 54.476559,19.98828 c -1.22656,0 -2.28125,0.42188 -3.16406,1.26563 -0.88281,0.84375 -1.32422,1.8789 -1.32422,3.10547 0,1.23046 0.44141,2.27343 1.32422,3.13671 0.88281,0.86329 1.9375,1.29688 3.16406,1.29688 1.26954,0 2.33985,-0.43359 3.22266,-1.29688 0.88281,-0.86328 1.32422,-1.90625 1.32422,-3.13671 0,-1.22657 -0.44141,-2.26172 -1.32422,-3.10547 -0.88281,-0.84375 -1.95312,-1.26563 -3.22266,-1.26563 m -32.46484,-44.08984 -8,2.30859 0,39.01563 8,0 z m 20.47266,44.08984 c -1.23047,0 -2.28516,0.42188 -3.16797,1.26563 -0.88281,0.84375 -1.32422,1.8789 -1.32422,3.10547 0,1.23046 0.44141,2.27343 1.32422,3.13671 0.88281,0.86329 1.9375,1.29688 3.16797,1.29688 1.26562,0 2.33984,-0.43359 3.21875,-1.29688 0.88281,-0.86328 1.32812,-1.90625 1.32812,-3.13671 0,-1.22657 -0.44531,-2.26172 -1.32812,-3.10547 -0.87891,-0.84375 -1.95313,-1.26563 -3.21875,-1.26563"
       id="path16"
       inkscape:connector-curvature="0" />
  </g>
</svg>
