<?xml version="1.0" encoding="UTF-8"?>
<!-- Generator: Adobe Illustrator 21.0.2, SVG Export Plug-In . SVG Version: 6.00 Build 0)  -->
<!DOCTYPE svg PUBLIC "-//W3C//DTD SVG 1.1//EN" "http://www.w3.org/Graphics/SVG/1.1/DTD/svg11.dtd">
<svg version="1.1" id="Layer_1" xmlns="http://www.w3.org/2000/svg" xmlns:xlink="http://www.w3.org/1999/xlink" x="0px" y="0px" viewBox="0 0 159.5 20.8" style="enable-background:new 0 0 159.5 20.8;" xml:space="preserve">
<style type="text/css">
	.st0{fill:#F01428;}
	.st1{fill:#2E2A25;}
</style>
<g>
	<path class="st0" d="M11,14.8c0-0.7,0.3-0.8,1-0.4c1.2,0.7,2.4,1.3,2.4,1.3c0-0.4,0.4-0.7,1.1-0.5c0.7,0.2,1.4,0.3,1.4,0.3   s-0.4-0.9-0.6-1.3c-0.3-0.7,0-1.1,0.3-1.2c0,0-0.4-0.3-0.7-0.5c-0.6-0.4-0.5-0.9,0.1-1.1c0.8-0.4,1.9-0.8,1.9-0.8   c-0.3-0.2-0.7-0.7-0.3-1.4c0.4-0.6,1.1-1.5,1.1-1.5s-1.1,0-1.9,0c-0.7,0-0.9-0.6-0.9-1c0,0-1.1,0.8-1.9,1.3c-0.7,0.5-1.3,0-1.2-0.8   c0.2-1.2,0.3-2.6,0.3-2.6C12.7,5,12,4.9,11.6,4.3c-0.5-1-1-2.2-1-2.2s-0.5,1.2-1,2.2C9.3,4.9,8.6,5,8.2,4.7c0,0,0.1,1.4,0.3,2.6   C8.6,8,8,8.5,7.3,8C6.5,7.5,5.3,6.7,5.3,6.7c0,0.4-0.2,0.9-0.9,1c-0.8,0-1.9,0-1.9,0s0.7,0.9,1.1,1.5c0.4,0.6,0,1.2-0.3,1.4   c0,0,1,0.5,1.9,0.8c0.6,0.3,0.8,0.7,0.1,1.1C5.1,12.7,4.6,13,4.6,13C5,13.1,5.3,13.5,5,14.2c-0.2,0.4-0.6,1.3-0.6,1.3   s0.7-0.2,1.4-0.3c0.7-0.2,1,0.2,1.1,0.5c0,0,1.2-0.7,2.4-1.3c0.6-0.4,1-0.2,1,0.4v1.7c0,1-0.2,2-0.5,2.6c-4.5-0.5-8.3-4.1-8.3-8.9   c0-4.9,4.1-8.9,9.2-8.9s9.2,4,9.2,8.9c0,4.6-3.6,8.4-8.2,8.9v1.2c5.4-0.5,9.6-4.8,9.6-10.1C21.3,4.5,16.5,0,10.6,0   C4.8,0,0,4.5,0,10.1c0,4.9,3.7,9,8.6,9.9c0.8,0.2,1.3,0.3,1.8,0.8c0.5-1,0.6-3,0.6-4.1V14.8z"/>
	<path class="st1" d="M53.9,15.5V4.7h5.3c2.8,0,4.1,1.2,4.2,2.7c0,0.7-0.1,1.4-0.6,1.9c-0.5,0.5-0.7,0.7-1.6,1.2l4,5.1h-2.9L58.7,11   h-2.4v4.5H53.9z M56.3,9.6h1.1c2.9,0,3.5-0.5,3.5-1.9c0-1.4-1.3-1.6-3.2-1.6h-1.4V9.6z"/>
	<path class="st1" d="M30.2,15.5l4.7-10.8h2.9l4.7,10.8h-2.9l-1.3-2.9h-5L32,15.5H30.2z M33.9,11.2h3.7l-1.9-4.3L33.9,11.2z"/>
	<rect x="45.8" y="4.7" class="st1" width="2.5" height="10.8"/>
	<g>
		<path class="st1" d="M83.2,15.1c-1.2,0.5-2.7,0.7-4.5,0.7c-2.1,0-3.8-0.5-5-1.5c-1.2-1-1.8-2.4-1.8-4.2c0-1.8,0.6-3.3,1.8-4.2    c1.2-1,2.9-1.5,5.2-1.5c1.4,0,2.8,0.1,4.3,0.4l0,1.8c-1.6-0.5-3.1-0.7-4.2-0.7c-1.4,0-2.4,0.4-3.2,1.1c-0.7,0.7-1.1,1.8-1.1,3.1    c0,1.3,0.4,2.3,1.2,3.1c0.8,0.7,1.9,1.1,3.3,1.1c1.3,0,2.7-0.3,4-0.8V15.1z"/>
	</g>
	<path class="st1" d="M86.3,15.5l4.7-10.8h2.9l4.7,10.8h-2.9l-1.3-2.9h-5l-1.3,2.9H86.3z M90.1,11.2h3.7L92,6.9L90.1,11.2z"/>
	<path class="st1" d="M117.6,15.5l4.7-10.8h2.9l4.7,10.8h-2.9l-1.3-2.9h-5l-1.3,2.9H117.6z M121.3,11.2h3.7l-1.9-4.3L121.3,11.2z"/>
	<path class="st1" d="M152.8,6.9l1.9,4.3H151L152.8,6.9z M152,4.7l-4.7,10.8h1.8l1.3-2.9h5l1.3,2.9h2.9l-4.7-10.8H152z"/>
	<polygon class="st1" points="102.2,15.5 102.2,4.7 105.1,4.7 111.9,12.4 111.9,4.7 114,4.7 114,15.5 111.3,15.5 104.3,7.4    104.3,15.5  "/>
	<g>
		<path class="st1" d="M133.4,15.5V4.7h5.2c1.9,0,3.3,0.5,4.3,1.3c1,0.9,1.5,2.2,1.5,3.8c0,1.8-0.5,3.2-1.6,4.1    c-1.1,1-2.5,1.5-4.4,1.5H133.4z M135.9,14l1.9,0c1.3,0,2.3-0.3,3-1c0.7-0.7,1-1.6,1-3c0-1-0.3-1.9-0.8-2.6c-0.4-0.5-0.8-0.8-1.3-1    c-0.5-0.2-1.2-0.3-2.2-0.3l-1.5,0V14z"/>
	</g>
</g>
</svg>