<svg xmlns="http://www.w3.org/2000/svg" height="800" width="1200" viewBox="-21.450255 -7.6619 185.90221 45.9714"><path fill="#004A8F" d="M88.1289 28.1586v2.431h-.35v-2.821h.532l1.134 2.233v-2.233h.35v2.821h-.42zm4.922 1.374c0-.272-.051-.478-.149-.611-.101-.133-.243-.199-.427-.199-.186 0-.328.066-.429.199-.101.134-.151.339-.151.611 0 .266.051.466.151.604.101.136.243.205.429.205.184 0 .324-.067.425-.203.1-.133.151-.336.151-.606m.367 0c0 .355-.086.63-.257.824-.173.194-.4.29-.687.29-.294 0-.526-.099-.694-.3-.168-.199-.252-.471-.252-.814 0-.354.086-.629.26-.824.174-.196.402-.294.687-.294.286 0 .514.098.687.292.17.197.256.471.256.826m3.351 1.057h-.356v-.234c-.108.096-.213.168-.312.218-.097.051-.208.074-.329.074-.093 0-.18-.015-.261-.045-.082-.029-.152-.078-.213-.145-.06-.065-.107-.147-.141-.247-.034-.101-.05-.222-.05-.363v-1.374h.355v1.206c0 .111.004.204.012.278.009.075.027.14.057.195a.269.269 0 00.118.118c.05.025.121.037.216.037.086 0 .179-.024.277-.071.099-.052.189-.111.271-.184v-1.58h.356zm2.398 0l-.791-2.117h.385l.579 1.633.574-1.633h.37l-.796 2.117zm4.061-1.294c-.003-.096-.015-.179-.035-.248-.02-.068-.049-.128-.087-.177a.3874.3874 0 00-.16-.12c-.064-.028-.146-.042-.241-.042-.094 0-.175.015-.241.042-.067.03-.128.07-.182.125a.616.616 0 00-.121.185c-.027.067-.045.146-.053.235zm-.417 1.342c-.338 0-.599-.095-.785-.284-.187-.19-.279-.46-.279-.812 0-.343.09-.618.27-.821.181-.204.418-.307.709-.307.132 0 .247.02.349.057.101.038.189.098.265.179.076.081.134.179.175.296.04.116.06.26.06.43v.193h-1.465c0 .246.062.435.186.564.124.13.295.194.514.194.078 0 .155-.01.229-.027.075-.017.143-.039.204-.066.063-.029.119-.058.162-.085a.8942.8942 0 00.11-.076h.021v.387c-.041.018-.093.037-.154.063-.062.023-.118.042-.167.057-.068.018-.134.033-.188.044-.06.009-.131.014-.216.014m2.469-2.996h.355v2.947h-.355zm2.223 0h.356v2.947h-.356zm3.553 1.654c-.003-.096-.015-.179-.034-.248-.021-.068-.05-.128-.087-.177a.4078.4078 0 00-.16-.12c-.064-.028-.146-.042-.241-.042s-.176.015-.241.042a.598.598 0 00-.182.125.5638.5638 0 00-.121.185c-.028.067-.046.146-.054.235zm-.417 1.342c-.337 0-.599-.095-.785-.284-.186-.19-.278-.46-.278-.812 0-.343.089-.618.271-.821.18-.204.415-.307.708-.307.131 0 .247.02.349.057.101.038.189.098.266.179.074.081.133.179.174.296.04.116.06.26.06.43v.193h-1.466c0 .246.062.435.186.564.124.13.295.194.514.194.078 0 .155-.01.23-.027.075-.017.144-.039.203-.066.064-.029.119-.058.163-.085.044-.027.08-.052.11-.076h.021v.387c-.042.018-.093.037-.154.063-.062.023-.118.042-.168.057-.068.018-.132.033-.188.044-.06.009-.13.014-.216.014m2.374-1.454h1.069v.344h-1.069zm3.964 1.455c-.184 0-.353-.029-.508-.093-.154-.062-.289-.152-.4-.275-.111-.122-.2-.274-.261-.458-.062-.185-.093-.394-.093-.632 0-.235.029-.44.089-.617.06-.175.148-.328.264-.457.111-.127.245-.224.399-.289.153-.066.326-.1.517-.1.094 0 .183.006.267.02.083.015.159.033.229.054.062.02.123.042.188.071.063.028.127.06.188.095v.451h-.03a3.8415 3.8415 0 00-.127-.109 1.2261 1.2261 0 00-.188-.126 1.334 1.334 0 00-.235-.098c-.085-.025-.183-.037-.295-.037-.12 0-.233.024-.34.073a.819.819 0 00-.281.219c-.08.096-.143.216-.187.36-.044.146-.066.31-.066.49 0 .194.023.36.07.499.047.14.11.259.191.354.078.095.17.164.276.211.105.049.218.071.336.071.109 0 .21-.013.303-.039.093-.027.175-.06.245-.101.07-.039.13-.079.181-.12.05-.04.09-.077.119-.104h.028v.446c-.062.029-.12.056-.176.083a1.335 1.335 0 01-.2.077c-.081.026-.157.047-.228.061-.071.016-.161.02-.275.02m3.72-.571v-.587c-.085.008-.192.018-.321.032-.129.012-.234.031-.313.056-.095.029-.173.073-.235.133-.062.061-.094.143-.094.251 0 .122.035.213.104.274.069.061.168.093.299.093.113 0 .214-.023.305-.071.089-.05.174-.109.255-.181m0 .296c-.03.021-.068.052-.117.09a.774.774 0 01-.142.092c-.062.032-.124.059-.182.076-.06.017-.143.025-.247.025-.087 0-.17-.015-.249-.048a.6597.6597 0 01-.206-.138.6385.6385 0 01-.137-.217.7202.7202 0 01-.051-.27c0-.146.031-.271.093-.374.062-.103.159-.184.293-.244.119-.056.259-.094.42-.113.162-.021.336-.037.524-.045v-.07c0-.084-.014-.149-.039-.201a.2764.2764 0 00-.106-.118c-.045-.029-.101-.049-.166-.059a1.4799 1.4799 0 00-.202-.013c-.082 0-.179.012-.29.037a2.069 2.069 0 00-.333.105h-.021v-.36c.064-.02.159-.04.281-.063.123-.022.244-.034.364-.034.145 0 .268.012.366.034.1.023.19.065.27.124.077.058.135.133.173.224.037.094.055.204.055.338v1.447h-.352v-.225zm2.199-2.722h.356v2.947h-.356zm3.643-.226l-.518.708h-.282l.34-.708zm-.091 1.88c-.003-.096-.014-.179-.034-.248-.021-.068-.049-.128-.087-.177a.3906.3906 0 00-.161-.12c-.064-.028-.145-.042-.241-.042-.094 0-.174.015-.24.042-.068.03-.128.07-.182.125a.6194.6194 0 00-.122.185c-.027.067-.045.146-.052.235zm-.417 1.342c-.337 0-.599-.095-.785-.284-.187-.19-.279-.46-.279-.812 0-.343.09-.618.271-.821.182-.204.418-.307.709-.307.131 0 .247.02.349.057.101.038.189.098.265.179.076.081.134.179.175.296.039.116.06.26.06.43v.193h-1.465c0 .246.062.435.187.564.122.13.294.194.513.194.078 0 .154-.01.229-.027.077-.017.144-.039.205-.066.063-.029.118-.058.163-.085.044-.027.08-.052.109-.076h.021v.389c-.042.016-.094.035-.155.062-.062.023-.117.042-.166.057-.07.018-.134.033-.189.044-.06.008-.131.013-.217.013m3.735-.563v-1.221c-.089-.043-.168-.073-.239-.089a1.0098 1.0098 0 00-.228-.024c-.183 0-.326.068-.43.206-.103.137-.155.333-.155.593 0 .25.039.439.12.57.078.132.206.198.383.198.093 0 .188-.021.282-.063.094-.042.183-.099.267-.17m.356.515h-.356v-.217c-.057.048-.104.085-.144.116a.914.914 0 01-.143.084.8593.8593 0 01-.157.055c-.056.014-.117.02-.19.02-.113 0-.221-.023-.318-.07a.6815.6815 0 01-.248-.212c-.071-.093-.125-.208-.162-.345-.037-.137-.057-.294-.057-.473 0-.185.023-.346.072-.481.048-.137.114-.255.199-.355.076-.093.17-.164.278-.218.11-.051.225-.078.344-.078.106 0 .198.012.277.036.078.022.16.059.248.108v-.917h.356v2.947zm3.226-1.057c0-.272-.051-.478-.15-.611-.1-.133-.241-.199-.425-.199-.186 0-.329.066-.43.199-.101.134-.15.339-.15.611 0 .266.05.466.15.604.101.136.244.205.43.205.184 0 .324-.067.425-.203.099-.133.15-.336.15-.606m.367 0c0 .355-.085.63-.258.824-.171.194-.399.29-.685.29-.294 0-.526-.099-.694-.3-.168-.199-.253-.471-.253-.814 0-.354.087-.629.26-.824.175-.196.403-.294.688-.294.285 0 .514.098.685.292.172.197.257.471.257.826m3.367 1.057h-.356v-1.206c0-.096-.005-.187-.015-.271-.009-.085-.027-.151-.054-.201a.2752.2752 0 00-.122-.119c-.051-.025-.123-.039-.211-.039-.089 0-.18.024-.274.072a1.301 1.301 0 00-.275.185v1.579h-.356v-2.116h.356v.235c.106-.094.211-.167.314-.218.103-.05.213-.076.328-.076.208 0 .371.068.489.206.117.138.176.336.176.596zm1.845 0h.355v-2.116h-.355zm-.024-2.47h.405v-.37h-.405zm3.576 1.176c-.003-.096-.013-.179-.034-.248-.02-.068-.049-.128-.086-.177a.404.404 0 00-.161-.12c-.063-.028-.144-.042-.241-.042-.094 0-.175.015-.24.042-.068.03-.127.07-.182.125a.6008.6008 0 00-.122.185c-.027.067-.045.146-.053.235zm-.417 1.342c-.337 0-.598-.095-.784-.284-.186-.19-.279-.46-.279-.812 0-.343.09-.618.271-.821.182-.204.417-.307.708-.307.132 0 .247.02.35.057.101.038.188.098.265.179.077.081.135.179.175.296.04.116.061.26.061.43v.193h-1.467c0 .246.062.435.187.564.123.13.294.194.513.194.078 0 .155-.01.23-.027.075-.017.144-.039.204-.066.062-.029.118-.058.162-.085.044-.027.08-.052.11-.076h.021v.387c-.041.018-.094.037-.155.063a2.8 2.8 0 01-.167.057c-.069.018-.132.033-.188.044-.06.009-.13.014-.217.014m-100.114-14.119l-.779-4.717-3.378 4.718zm-13.197 5.518l10.818-14.309 5.579-.002 2.939 14.308-5.265.001-.468-2.922-6.4.002-2.076 2.922zm30.363-12.333h-4.801l.722-2.624 4.8-.001zm-3.398 12.328h-4.786l2.971-10.79 4.786-.002zm17.162-7.614h-.396c-.17-.045-.426-.078-.766-.1-.339-.023-.72-.035-1.139-.035-.502.002-1.042.053-1.623.154s-1.148.225-1.707.367l-1.99 7.227h-4.786l2.971-10.791 4.786-.002-.426 1.546c.257-.141.609-.318 1.056-.532.446-.215.847-.388 1.201-.515.387-.147.826-.275 1.316-.38.488-.106.938-.159 1.349-.159.154 0 .327.004.517.009.19.007.36.017.512.029zm8.285 7.898c-1.268 0-2.396-.113-3.388-.337-.991-.223-1.811-.57-2.456-1.037-.637-.468-1.072-1.057-1.307-1.763-.233-.708-.217-1.542.047-2.503.284-1.03.758-1.911 1.423-2.634.664-.725 1.457-1.32 2.379-1.787.89-.449 1.881-.78 2.975-.994 1.093-.218 2.2-.323 3.322-.323.848 0 1.677.067 2.487.205.81.139 1.602.357 2.376.659l-.795 2.882h-.615c-.156-.129-.352-.27-.587-.424-.236-.152-.501-.295-.794-.424-.31-.135-.67-.246-1.082-.34-.412-.092-.887-.139-1.424-.139-1.223 0-2.251.299-3.086.898-.834.6-1.391 1.404-1.67 2.417-.298 1.084-.162 1.892.407 2.423.568.53 1.445.797 2.632.797.601 0 1.143-.049 1.625-.145.482-.098.906-.211 1.271-.347.356-.136.667-.274.936-.418.268-.145.499-.273.695-.39h.615l-.794 2.883c-.296.082-.64.179-1.029.288-.391.11-.782.198-1.175.271-.489.088-.944.157-1.363.206-.418.05-.96.076-1.625.076m17.616-3.108l.619-2.247c-.827.057-1.497.106-2.01.148-.513.041-1.027.122-1.544.246-.449.102-.816.258-1.106.465-.29.208-.482.486-.578.831-.139.506-.041.854.294 1.043.336.189.882.284 1.638.284.421 0 .868-.068 1.342-.203.474-.135.923-.324 1.345-.567m-.46 1.672c-.381.192-.722.364-1.025.52-.302.154-.692.307-1.173.461-.469.147-.917.26-1.344.337-.427.078-1.004.116-1.734.116-1.357 0-2.397-.32-3.119-.961-.723-.641-.948-1.447-.681-2.421.221-.801.626-1.447 1.218-1.941.593-.493 1.355-.883 2.292-1.174.947-.293 2.039-.5 3.273-.615 1.236-.115 2.554-.205 3.957-.27l.016-.057c.164-.596-.034-1.008-.597-1.236-.561-.225-1.467-.34-2.715-.34-.565 0-1.247.072-2.043.219-.796.141-1.586.326-2.367.551h-.41l.717-2.603c.5-.098 1.297-.21 2.391-.342 1.094-.133 2.179-.198 3.254-.198 2.645 0 4.484.31 5.521.926 1.039.618 1.383 1.563 1.034 2.831l-2.021 7.341-4.76.002zm13.194-13.809l4.786-.001-4.115 14.951h-4.787zm13.612 2.619l-4.793.002.722-2.622 4.793-.002zm-3.399 12.328l-4.786.001 2.971-10.792h4.787zm19.142-.003l-4.812.002 1.472-5.354c.121-.436.215-.871.283-1.303.07-.432.063-.75-.016-.955-.098-.244-.287-.418-.568-.523-.279-.105-.679-.16-1.199-.158-.393 0-.803.053-1.232.152-.43.105-.902.268-1.42.492l-2.106 7.648-4.786.001 2.971-10.792h4.787l-.328 1.192c.912-.468 1.777-.833 2.593-1.094.814-.265 1.673-.396 2.576-.396 1.567-.002 2.671.347 3.309 1.041.639.695.775 1.703.412 3.023z"/><path d="M28.2769 24.9456s57.777-.879 114.708-.12c-.001 0-59.22 1.121-114.708.12" fill="#00B1EB"/><path d="M9.2719 14.2806s-1.45-6.034 1.86-7c3.309-.965 3.786.518 3.786.518l.115.805.875-.408.206 1.199s2.53-.44 2.23.666c-.301 1.108-4.627 2.166-5.233 4.658 0 0 6.538-4.401 9.579-3.507 3.043.897 1.822 2.214 1.822 2.214l.677.537-.8.738 1.391 2.451s-.05 2.503-3.775 3.77l-5.006-2.522s4.707 3.63 3.244 6.316c-1.462 2.689-3.108 1.542-3.108 1.542l-.791-1.342-.645 1.116-.567-.354s-4.067 1.274-4.457 1.088c-.389-.188-.873-3.812.44-5.638 1.313-1.823-.085.229-.085.229s-3.21 1.702-4.524 4.425c-1.316 2.723-3.708-.466-3.708-.466l.185-1.013-.623.003-1.803-.622s-1.61-4.618.645-6.862c2.254-2.248 1.727-1.229 1.727-1.229l-.549-1.187 1.076.168s1.115-3.299 1.853-3.4c.738-.099 3.21 5.564 5.313 5.984 2.104.419-1.129-1.609-1.35-2.877" fill="#F04923"/><path d="M22.8869 6.6896c-.194-.338-.791-.196-1.333.314-.119.11-.223.232-.314.357.04-.159.035-.301-.022-.402-.156-.27-.633-.157-1.066.251-.434.409-.659.961-.504 1.231.156.27.634.157 1.067-.252.079-.074.146-.153.21-.232-.038.118-.058.232-.057.334-3.343 4.933-6.201 7.611-7.446 8.659-.306-.568-1.245-2.323-1.759-3.37.328 1.521.398 4.618.398 4.618l-1.992-.193s.212.926-.32.722c-.533-.202-2.102-1.385-2.339-1.005-.237.378 1.895 1.189.728 1.05-1.169-.138-3.308 1.153-3.308 1.153 3.445-.544 4.174-.549 4.174-.549l2.017-.05c.082.712 1.171.869 1.592.935.421.065.276-1.278.801-.751.527.53 1.306 2.866 1.306 2.866.107-.593-.357-3.327-.357-3.327s.485.701.805 1.033c.319.333.901.039.938-.863.037-.9-1.859-1.035-.98-1.804.878-.768 2.957.696 3.272.299.314-.396-.638-1.55-.638-1.55.291-.148 3.809-1.439 3.809-1.439-1.614-.031-4.963 1.184-6.792 1.9 1.257-2 4.034-5.125 5.988-7.239-.021.127-.01.24.039.325.155.269.633.156 1.066-.252.435-.408.66-.961.505-1.231-.015-.026-.035-.044-.055-.062.499-.505.754-1.152.567-1.476m1.921-4.791c.434-.409.659-.961.504-1.232-.156-.271-.633-.157-1.066.254-.435.409-.659.96-.504 1.229.154.271.632.159 1.066-.251m-3.004 2.861c.347-.327.526-.767.403-.984-.125-.216-.507-.127-.854.201s-.527.77-.402.985c.123.217.506.126.853-.202m5.47-4.642c-.125-.216-.506-.126-.853.201-.347.329-.528.77-.403.986.125.218.507.125.854-.201.346-.328.526-.768.402-.986m-2.799 6.062c-.434.41-.659.961-.504 1.231.156.27.633.159 1.066-.251.434-.409.659-.962.504-1.231-.155-.271-.633-.159-1.066.251m.46-2.895c-.194-.339-.791-.196-1.332.316-.542.512-.824 1.199-.63 1.539.194.337.792.197 1.333-.315.544-.511.824-1.202.629-1.54m-13.273 10.295c-.076-.35-.165-.617-.27-.744-.18-.219-.024.146.27.744" fill="#FDB913"/></svg>