<svg xmlns="http://www.w3.org/2000/svg" width="130" height="26" viewBox="0 0 130 26">
    <g fill="#006FDE" fill-rule="evenodd">
        <path d="M58.06 6.965a1.673 1.673 0 0 1 .455-2.81 1.64 1.64 0 0 1 1.699.415c.441.454.587 1.123.376 1.723a1.592 1.592 0 0 1-1.09 1.009 1.575 1.575 0 0 1-1.44-.337z"/>
        <path fill-rule="nonzero" d="M102.962 18.889a4.1 4.1 0 0 1-2.966-1.288 6.43 6.43 0 0 1-1.672-4.556 6.393 6.393 0 0 1 1.358-4.037 4.38 4.38 0 0 1 3.33-1.65h.08a4.464 4.464 0 0 1 3.442 1.595 6.355 6.355 0 0 1 1.395 4.03c.058 3.412-1.872 5.785-4.803 5.903a3.606 3.606 0 0 1-.164.003zm.191-8.887c-1.119.071-1.792 1.13-1.898 2.983a3.653 3.653 0 0 0 .725 2.617c.281.324.686.513 1.113.521h.09a1.533 1.533 0 0 0 1.089-.526c.587-.707.871-1.62.788-2.54-.056-1.385-.326-2.987-1.907-3.055z"/>
        <path d="M91.942 8.316l2.012.009.496 1.67a2.573 2.573 0 0 1 3.07-1.778v3.178l-2.767.17-.012 7.324h-2.823l.024-10.573zM63.115 8.316l2.013.009.496 1.67a2.573 2.573 0 0 1 3.07-1.778v3.178l-2.767.17-.012 7.324h-2.823l.023-10.573zM70.298 18.888v-6.924l.014-7.069 7.991-.009v2.446l-4.795.005c0 1.003.016 2.295.01 3.298l3.998.035v2.454l-4.01-.013.012 3.323 2.852.013 1.937.012v2.43h-8.009zM57.487 18.863l.006-10.682h3.196l-.016 10.708z"/>
        <path fill-rule="nonzero" d="M52.36 18.889l-.633-2.417h-.187c-.756.012-1.537.024-2.313.024-.506 0-.95-.005-1.355-.016l-.602 2.394-3.395-.052 3.783-13.936 4.397.026 3.83 13.966-3.525.011zM49.825 8.185l-1.224 5.25 2.506-.01-1.282-5.24zM124.057 18.889a4.189 4.189 0 0 1-1.165-.184 2.895 2.895 0 0 1-1.762-1.552 4.026 4.026 0 0 1-.307-2.536c.34-1.72 1.684-2.629 4.112-2.772l1.42-.08c.014 0 .025-.011.034-.03a2.12 2.12 0 0 0-.298-1.253 1.615 1.615 0 0 0-1.43-.719c-.68.048-1.35.192-1.99.427-.266.082-.54.168-.805.24l-.635-2.025c.467-.224.95-.413 1.444-.564.184-.063.374-.128.578-.2a5.593 5.593 0 0 1 1.826-.284c.994-.03 1.978.2 2.859.666a3.712 3.712 0 0 1 1.32 1.732c.146.43.234.88.258 1.335l.035 7.444-2.239.016-.51-1.25a3.496 3.496 0 0 1-2.745 1.589zm1.753-5.085a2.523 2.523 0 0 0-2.242.975c-.212.437-.16.958.135 1.343.216.324.586.51.973.487a2.394 2.394 0 0 0 1.763-.87l-.028-1.89c-.2-.03-.4-.045-.601-.045z"/>
        <path d="M83.154 18.832a2.969 2.969 0 0 1-2.032-1.422c-.367-.599-.414-1.166-.414-4.953V8.181h2.89l.017 6.493c-.039.4.018.803.166 1.175.273.472.785.75 1.325.716a1.432 1.432 0 0 0 1.228-.873c.093-.303.13-.62.108-.936L86.46 8.2l3.048-.02.008 10.652-2.391-.008-.414-1.324a5.874 5.874 0 0 1-1.31 1.08 4.198 4.198 0 0 1-2.247.251z"/>
        <path fill-rule="nonzero" d="M113.128 22.184l-2.788-.004-.005-14.648 2.23.012.322 1.255c.197-.384.504-.7.882-.905.434-.3.938-.48 1.463-.521.1-.01.2-.016.3-.016a2.998 2.998 0 0 1 1.958.754 4.563 4.563 0 0 1 1.317 2.053 13.98 13.98 0 0 1 .093 5.667 3.926 3.926 0 0 1-3.817 3.075c-.218 0-.437-.019-.652-.056a3.912 3.912 0 0 1-.86-.29c-.137-.057-.278-.117-.42-.168l-.023 3.79v.002zm1.368-12.427h-.095c-.493.022-.95.266-1.245.664v5.486c.256.395.701.622 1.168.596a1.801 1.801 0 0 0 1.747-1.256 8.139 8.139 0 0 0 .242-2.349c-.017-1.432-.344-3.14-1.816-3.14h-.001zM6.445 26a6.427 6.427 0 0 1-2.09-.335c-1.27-.414-2.951-2.256-3.593-3.94a16.291 16.291 0 0 1-.76-5.22 18.17 18.17 0 0 1 .858-5.486A19.942 19.942 0 0 1 4.39 4.723 15.786 15.786 0 0 1 6.742 2.41a10.084 10.084 0 0 1 2.5-1.476c1.29-.498 2.66-.753 4.042-.75a9.879 9.879 0 0 1 3.625.66 8.603 8.603 0 0 1 3.272 2.265A10.882 10.882 0 0 1 24.263.697a12.41 12.41 0 0 1 3.812-.68h.112c.247-.011.485-.017.724-.017 2.223 0 3.938.494 5.1 1.468a5.187 5.187 0 0 1 1.73 4.193 5.367 5.367 0 0 1-.657 2.316 6.559 6.559 0 0 1-1.567 2.041c-.742.615-3.415 2.394-5.732 3.885a51.613 51.613 0 0 1-4.982 2.997l-.023-2.687 2.616-1.89c3.373-2.436 4.515-3.7 4.889-5.407a4.767 4.767 0 0 0 .079-1.808 2.827 2.827 0 0 0-.556-1.307 2.65 2.65 0 0 0-2.136-.958 5.785 5.785 0 0 0-4.13 2.213A12.345 12.345 0 0 0 21.477 8.5a18.81 18.81 0 0 0-1.168 4.204 16.784 16.784 0 0 0-.154 4.198 8.655 8.655 0 0 0 .98 3.426 3.123 3.123 0 0 0 2.892 1.731c1.63 0 3.812-.883 7.068-2.86l1.968-1.292 1.388 1.981a50.92 50.92 0 0 1-6.083 4.585 10.987 10.987 0 0 1-5.708 1.512c-1.65.046-3.29-.27-4.807-.925a5.501 5.501 0 0 1-2.737-2.953c-.242.136-.471.295-.682.476-.38.287-.901.68-1.477 1.075A12 12 0 0 1 6.445 26zm7.812-23.4a5.19 5.19 0 0 0-2.098.543 8.364 8.364 0 0 0-2.212 1.822 12.829 12.829 0 0 0-1.928 2.69 16.2 16.2 0 0 0-1.627 6.73 10.937 10.937 0 0 0 1.097 5.627 2.524 2.524 0 0 0 2.09 1.436c1.105-.044 2.485-.925 3.946-1.857.364-.232.74-.471 1.107-.695a16.812 16.812 0 0 1 .103-5.102c.249-1.485.61-2.95 1.08-4.379.435-1.075.695-2.214.772-3.372a4.227 4.227 0 0 0-.538-2.541 2.03 2.03 0 0 0-1.792-.903z"/>
    </g>
</svg>
