<svg width="225" height="46" viewBox="0 0 225 46" fill="none" xmlns="http://www.w3.org/2000/svg">
<path fill-rule="evenodd" clip-rule="evenodd" d="M215.503 22.9891H223.647C219.34 20.9109 215.827 17.5405 213.67 13.4065C210.104 6.58062 203.218 2.67557 194.265 1.84897L194.478 2.44548C200.67 4.83048 204.959 8.60345 207.441 13.9455L207.443 13.9465C209.193 17.6407 212.006 20.7734 215.503 22.9891Z" fill="#94AACB"/>
<path fill-rule="evenodd" clip-rule="evenodd" d="M215.503 22.9891H223.647C219.34 25.0674 215.827 28.439 213.67 32.5722V32.5732C210.104 39.3984 203.218 43.3036 194.265 44.1292L194.478 43.5348C200.67 41.1486 204.959 37.3754 207.441 32.0342L207.443 32.031C209.193 28.3388 212.006 25.2059 215.503 22.9891Z" fill="#00217a"/>
<path fill-rule="evenodd" clip-rule="evenodd" d="M194.265 8.71024C195.742 13.9472 197.734 18.3015 199.484 20.4191L199.486 20.4212C200.384 21.5295 201.561 22.4163 202.922 22.9891H209.343C206.317 21.7009 203.883 19.3736 202.544 16.4831L202.542 16.481C200.942 12.9815 197.966 10.1848 194.265 8.71024Z" fill="#94AACB"/>
<path fill-rule="evenodd" clip-rule="evenodd" d="M194.265 37.2679C195.742 32.0321 197.734 27.6756 199.484 25.5602L199.486 25.557C200.384 24.4497 201.561 23.5618 202.922 22.9891H209.343C206.317 24.2783 203.883 26.6035 202.544 29.4929L202.542 29.4972C200.942 32.9966 197.966 35.7934 194.265 37.2679Z" fill="#00217a"/>
<path fill-rule="evenodd" clip-rule="evenodd" d="M56.3396 32.9808L57.0232 29.4692H39.3515V25.0405H53.4351C53.444 25.0405 53.4496 25.0341 53.4496 25.0266V20.9441H39.3515V16.508H55.2209C55.6093 16.508 55.94 16.2396 56.0011 15.8732L56.6192 12.419H35.1353C34.7313 12.419 34.4072 12.7311 34.4072 13.1177V33.5591H55.627C55.9811 33.5591 56.2807 33.3142 56.3396 32.9808Z" fill="#00217a"/>
<path fill-rule="evenodd" clip-rule="evenodd" d="M115.874 32.9808L116.559 29.4692H98.888V25.0405H112.97C112.979 25.0405 112.985 25.0341 112.985 25.0266V20.9441H98.888V16.508H114.756C115.144 16.508 115.474 16.2396 115.536 15.8732L116.154 12.419H94.6711C94.2683 12.419 93.9431 12.7311 93.9431 13.1177V33.5591H115.163C115.516 33.5591 115.816 33.3142 115.874 32.9808Z" fill="#00217a"/>
<path fill-rule="evenodd" clip-rule="evenodd" d="M157.843 18.6979L173.377 33.0029C173.765 33.3603 174.276 33.5591 174.817 33.5591H178.415V12.419H174.371C173.945 12.419 173.601 12.7487 173.601 13.156V26.7368L158.596 12.937C158.227 12.6041 157.741 12.419 157.232 12.419H152.899V33.5591H157.816L157.843 18.6979Z" fill="#00217a"/>
<path fill-rule="evenodd" clip-rule="evenodd" d="M8.90415 29.6838C9.13408 29.2477 9.59728 28.9744 10.1094 28.9744H22.0436L24.1652 32.8902C24.3885 33.2997 24.8339 33.5591 25.316 33.5591H30.1546L19.0534 13.273C18.7646 12.7477 18.1948 12.419 17.5772 12.419H12.9196L1.35303 33.5591H6.78366L8.90415 29.6838ZM15.6844 17.3037L19.812 24.8906H11.5289L15.6844 17.3037Z" fill="#00217a"/>
<path fill-rule="evenodd" clip-rule="evenodd" d="M127.203 29.6838C127.434 29.2477 127.896 28.9744 128.408 28.9744H140.341L142.464 32.8902C142.686 33.2997 143.131 33.5591 143.614 33.5591H148.454L137.351 13.273C137.063 12.7477 136.494 12.419 135.875 12.419H131.219L119.652 33.5591H125.083L127.203 29.6838ZM133.982 17.3037L138.111 24.8906H129.828L133.982 17.3037Z" fill="#00217a"/>
<path fill-rule="evenodd" clip-rule="evenodd" d="M87.371 30.9747V21.64H78.0384V25.0727C78.0384 25.4399 78.3505 25.7379 78.734 25.7379H82.4042V28.5106C81.1344 29.377 78.0841 29.9763 74.8866 29.9763C69.7314 29.9763 66.4726 27.3292 66.5283 23.0684C66.583 18.8301 69.8206 16.1904 74.9189 16.1904C78.472 16.1904 81.6405 16.9631 84.5203 18.515L86.7244 14.5555C80.7074 11.6912 75.4585 11.8647 74.9189 11.8647C66.9988 11.8647 61.469 16.4724 61.469 23.0684C61.469 29.7868 66.7468 34.3009 74.6068 34.3009C83.1111 34.3009 87.371 30.9747 87.371 30.9747Z" fill="#00217a"/>
</svg>
