<svg width="255" height="76" viewBox="0 0 127.5 38" xmlns="http://www.w3.org/2000/svg"><defs><linearGradient x1="0" y1="0" x2="1" y2="0" gradientUnits="userSpaceOnUse" gradientTransform="matrix(8.34666 -8.24036 -8.24036 -8.34666 138.204 632.743)" spreadMethod="pad" id="a"><stop offset="0" stop-color="#c4161d"/><stop offset=".300003" stop-color="#ed1c24"/><stop offset=".33106642" stop-color="#ed1c24"/><stop offset=".529175" stop-color="#f79aaa"/><stop offset=".65164459" stop-color="#ed1c24"/><stop offset=".747455" stop-color="#ed1c24"/><stop offset="1" stop-color="#c4161d"/></linearGradient><linearGradient x1="0" y1="0" x2="1" y2="0" gradientUnits="userSpaceOnUse" gradientTransform="matrix(20.133 -14.6275 -14.6275 -20.133 135.023 638.918)" spreadMethod="pad" id="b"><stop offset="0" stop-color="#fff"/><stop offset=".34" stop-color="#fff"/><stop offset=".54" stop-color="#fff"/><stop offset=".91" stop-color="#cbd3ef"/><stop offset="1" stop-color="#cbd3ef"/></linearGradient><linearGradient x1="0" y1="0" x2="1" y2="0" gradientUnits="userSpaceOnUse" gradientTransform="matrix(11.1482 -11.0052 -11.0052 -11.1482 138.53 634.429)" spreadMethod="pad" id="c"><stop offset="0" stop-color="#1c4e9d"/><stop offset=".12958" stop-color="#1c4e9d"/><stop offset=".4000558" stop-color="#8093d2"/><stop offset=".462249" stop-color="#8093d2"/><stop offset=".60770362" stop-color="#1c4e9d"/><stop offset=".6371" stop-color="#1c4e9d"/><stop offset=".916614" stop-color="#1c4e9d"/><stop offset="1" stop-color="#1c4e9d"/></linearGradient><linearGradient x1="0" y1="0" x2="1" y2="0" gradientUnits="userSpaceOnUse" gradientTransform="scale(5.37583 -5.37583) rotate(33 212.5533458 -11.8787105)" spreadMethod="pad" id="d"><stop offset="0" stop-color="#c4161d"/><stop offset=".450781" stop-color="#ed1c24"/><stop offset="1" stop-color="#f79aaa"/></linearGradient><linearGradient x1="0" y1="0" x2="1" y2="0" gradientUnits="userSpaceOnUse" gradientTransform="matrix(12.5603 -10.4426 -10.4426 -12.5603 153.389 643.376)" spreadMethod="pad" id="e"><stop offset="0" stop-color="#cbd8f1"/><stop offset=".0730286" stop-color="#cbd8f1"/><stop offset=".10486264" stop-color="#cbd8f1"/><stop offset=".370789" stop-color="#1c4e9d"/><stop offset=".5364548" stop-color="#1c4e9d"/><stop offset=".949432" stop-color="#cbd8f1"/><stop offset="1" stop-color="#cbd8f1"/></linearGradient><linearGradient x1="0" y1="0" x2="1" y2="0" gradientUnits="userSpaceOnUse" gradientTransform="matrix(11.7472 -9.76661 -9.76661 -11.7472 156.042 646.329)" spreadMethod="pad" id="f"><stop offset="0" stop-color="#fff"/><stop offset=".174164" stop-color="#fff"/><stop offset=".25115178" stop-color="#fff"/><stop offset=".386503" stop-color="#dde1f4"/><stop offset=".55972229" stop-color="#fff"/><stop offset=".699997" stop-color="#fff"/><stop offset="1" stop-color="#fff"/></linearGradient><linearGradient x1="0" y1="0" x2="1" y2="0" gradientUnits="userSpaceOnUse" gradientTransform="matrix(10.5969 -8.81026 -8.81026 -10.5969 151.396 639.142)" spreadMethod="pad" id="g"><stop offset="0" stop-color="#f79aaa"/><stop offset=".0561829" stop-color="#f79aaa"/><stop offset=".21411547" stop-color="#ed1c24"/><stop offset=".276074" stop-color="#ed1c24"/><stop offset=".47047341" stop-color="#c4161d"/><stop offset=".516861" stop-color="#c4161d"/><stop offset=".55058224" stop-color="#c4161d"/><stop offset=".6919" stop-color="#ed1c24"/><stop offset=".891412" stop-color="#f78f9b"/><stop offset="1" stop-color="#f79aaa"/></linearGradient></defs><path d="M124.7071 3.8753c-1.666 2.394-2.819 2.738-4.251 2.911l-.576.055-1.949.113-2.246.17c-.918.117-1.607.285-2.186.629.753-.967 1.9-2.393 2.876-3.08 1.036-.682 2.241-.742 2.986-.855l.459-.056h.06l.633-.056c1.782-.231 3.792-.572 5.746-2.056-.691 1.027-1.552 2.225-1.552 2.225m-13.384 6.215s-.631.913-.751 1.029c-2.009.284-4.076.914-6.203 1.881-2.699 1.31-5.456 3.137-8.33 5.646 2.012-2.282 4.653-5.077 8.33-7.243 2.3-1.368 5.054-2.512 8.33-3.135-.23.226-1.376 1.822-1.376 1.822m15.793-9.635c-2.181 2.279-4.533 2.565-6.66 2.85l-1.046.139c-1.141.125-2.115.203-3.205.947-1.09.68-2.358 2.222-3.22 3.362-3.389.627-6.205 1.767-8.616 3.139-4.251 2.51-7.181 5.816-9.363 8.269l-2.125 2.622.399-.116c3.908-3.82 7.583-6.558 11.089-8.208 2.182-1.084 4.308-1.715 6.375-1.94h.06l2.239-3.082c.574-.569 1.436-.799 2.7-.91l2.246-.172 1.891-.114.633-.058c1.492-.229 2.756-.57 4.538-3.08l2.355-3.422z" fill="#231f20"/><path d="m134.83 624.633-1.381-1.484c7.009 5.361 11.028 5.816 16.831 5.763.518-.06 1.032-.06 1.379.625l1.723 2.508v.001c-8.1-.114-11.721-2.167-18.552-7.413" fill="url(#a)" transform="matrix(1 0 0 -1 -41.7169 646.1873)"/><path d="M135.196 625.062c-.001-.011-.004-.022-.006-.032 6.673 6.369 12.342 9.244 17.253 9.861.457.569 1.973 2.687 2.431 3.373-11.096-1.928-16.189-9.599-19.678-13.202" fill="url(#b)" transform="matrix(1 0 0 -1 -41.7169 646.1873)"/><path d="M135.171 625.03c-.09-.088-.313-.361-.526-.57-.066-.062-.183-.217-.19-.226 1.291 1.067 3.916 3.142 6.318 4.511 2.391 1.358 5.308 2.483 9.45 3.075.402.456 1.642 2.181 2.22 3.092-7.643-1.141-12.675-5.602-17.272-9.882" fill="url(#c)" transform="matrix(1 0 0 -1 -41.7169 646.1873)"/><path d="M149.761 631.247c-.229-.624.116-.341 1.151-.971.806-.508.632-.739.572-1.023.747 1.196 2.183 2.852 2.183 2.852-.359.127-.744.18-1.128.18-1.331 0-2.642-.639-2.778-1.038" fill="url(#d)" transform="matrix(1 0 0 -1 -41.7169 646.1873)"/><path d="M157.52 639.004c-1.611-.172-2.587-.625-3.218-1.426l-2.155-3.101c.515.456 1.922.707 3.477.707h.399c.23 0 .461.056.688.056 2.242.055 5.286.399 7.126 2.622l2.673 3.856.295.434c-2.355-3.193-7.619-2.862-9.285-3.148" fill="url(#e)" transform="matrix(1 0 0 -1 -41.7169 646.1873)"/><path d="M161.537 642.598c-.687-.117-2.237-.058-3.505-.915-1.321-.856-2.921-2.942-3.671-4.026.694.798 1.722 1.061 3.099 1.235 1.384.171 3.335.112 4.769.342 1.376.167 2.643.454 4.366 2.962l2.413 3.422c-2.469-2.565-5.171-2.677-7.471-3.02" fill="url(#f)" transform="matrix(1 0 0 -1 -41.7169 646.1873)"/><path d="M158.782 635.584c-1.666-.23-3.567-.289-4.136-.344-.917 0-2.185-.341-2.527-.798-1.092-1.368-2.065-2.622-2.358-3.194.634.629 2.76.572 5.347.684 2.582.114 5.167 1.313 7.237 3.765l1.565 2.292c-1.033-1.426-2.887-2.063-5.128-2.405" fill="url(#g)" transform="matrix(1 0 0 -1 -41.7169 646.1873)"/><path d="M7.7739 25.5253c-.048-.107-.083-.215-.122-.326l-5.655.326 1.144.553Zm.77.998c-.049-.035-.098-.083-.143-.121-.097-.084-.184-.167-.24-.252l-2.829.533 1.204.406zm2.237-.227c.135-.023.339-.099.495-.218l-.819-1.624.855-.408-.72-.624-.29.129-1.242.566.364.817.589-.264Zm1.395-3.395c.314.371.544.832.665 1.359h-.517c-.038-.155-.086-.313-.148-.455-.344-.915-1.056-1.565-1.874-2.106-.109-.064-.206-.135-.313-.194.107.038.204.073.313.109.743.301 1.405.711 1.874 1.287m0 4.924.16.287-.16.074-.418.193-.482-.951c-.301.105-.636.166-.974.177-.362.015-.737-.036-1.06-.143l-.408.917c-.134.01-.314 0-.433-.085-.063-.037-.123-.097-.146-.182l.146-.241.349-.625c-.111-.072-.206-.121-.304-.217l.29-.348c.496.302 1.035.467 1.566.467.53.013 1.057-.157 1.551-.505l.323.095.135.051c-.047.036-.084.069-.135.108-.095.094-.179.192-.334.277Zm6.755-2.458 1.492-.95h-8.087c0 .34-.05.63-.16.878-.31.807-1.092 1.193-1.874 1.182-.769-.023-1.552-.421-1.901-1.155-.123-.268-.193-.551-.193-.905H.0939l1.481.95 6.199-.32c.12.442.339.829.627 1.112.493.522 1.201.81 1.901.81.687.014 1.383-.241 1.874-.793.268-.289.472-.66.592-1.108zm-.409.158-1.147.531-4.572-.531c.038-.107.073-.215.108-.326zm-3.31 1.166-1.255.423-1.781-.541-.153-.05c.058-.046.108-.093.153-.156.076-.059.135-.144.206-.208zm.601-.068.998-.464-4.115-.489c-.036.132-.144.238-.219.349Zm-11.109 0-.997-.437 4.138-.504c.074.12.146.226.229.337Z" fill="#1c4e9d"/><path d="M43.3158 34.8013c1.866.296 5.44.755 9.817.851 4.368.11 9.503-.145 14.356-.869 4.852-.704 9.401-1.886 12.632-3.163 3.255-1.225 5.076-2.721 5.067-2.727.018.008-1.879 1.736-5.328 3.222-3.41 1.538-8.229 3.014-13.303 3.971-5.067.978-10.383 1.426-14.707 1.454-4.324.05-7.683-.338-8.859-.524-4.068-.605-7.022-1.675-8.825-2.706-1.82-1.036-2.426-1.976-2.237-2.159.201-.215 1.107.223 2.943.791 1.837.574 4.634 1.294 8.444 1.859" fill="#f36717"/><path d="M22.8509 17.7593v-1.326h-5.234v-2.498h4.705v-1.311h-4.705v-2.275h4.961v-1.312h-8.449v8.722Z" fill="#1c4e9d"/><path d="M27.9542 17.7593v-7.41h2.051c.623 0 1.199.048 1.726.397.383.272.623.661.623 1.142 0 .4-.143.813-.671 1.149-.689.448-1.887.512-2.641.418l-.429-.049 3.473 4.353h4.03l-3.297-3.634c.591-.063 1.538-.3 2.112-.67.689-.465 1.041-1.152 1.041-1.796 0-.718-.387-1.501-1.263-2.015-1.042-.59-2.465-.607-3.777-.607h-6.482v8.722Z" fill="#1c4e9d"/><path d="M56.1181 17.7593v-3.681h4.705v-1.313h-4.705v-2.416h5.089v-1.312h-8.575v8.722Z" fill="#1c4e9d"/><path d="M65.9781 9.0363h-3.506v8.722h8.643v-1.326h-5.137Z" fill="#1c4e9d"/><path d="M85.5171 10.3483h3.761v7.41h3.504v-7.41h3.758v-1.312h-11.023Z" fill="#1c4e9d"/><path d="M78.0921 16.9443c-.865 0-1.889-.195-2.643-1.139-.623-.767-.734-1.649-.734-2.4 0-.782.111-1.648.734-2.415.754-.963 1.778-1.154 2.643-1.154.878 0 1.889.191 2.653 1.154.627.767.74 1.633.74 2.415 0 .751-.113 1.633-.74 2.4-.764.944-1.775 1.139-2.653 1.139m0-8.162c-1.631 0-3.92.368-5.457 1.469-1.218.866-1.792 2.1-1.792 3.154 0 1.041.574 2.274 1.792 3.137 1.537 1.087 3.826 1.456 5.457 1.456 1.631 0 3.937-.369 5.471-1.456 1.218-.863 1.778-2.096 1.778-3.137 0-1.054-.56-2.288-1.778-3.154-1.534-1.101-3.84-1.452-5.471-1.469" fill="#1c4e9d"/><path d="M44.1729 16.9443c-.863 0-1.888-.195-2.639-1.139-.625-.767-.738-1.649-.738-2.4 0-.782.113-1.648.738-2.415.751-.963 1.776-1.154 2.639-1.154.878 0 1.888.191 2.657 1.154.625.767.735 1.633.735 2.415 0 .751-.11 1.633-.735 2.4-.769.944-1.779 1.139-2.657 1.139m0-8.162c-1.63 0-3.918.368-5.455 1.469-1.218.866-1.794 2.1-1.794 3.154 0 1.041.576 2.274 1.794 3.137 1.537 1.087 3.825 1.456 5.455 1.456 1.632 0 3.938-.369 5.474-1.456 1.216-.863 1.777-2.096 1.777-3.137 0-1.054-.561-2.288-1.777-3.154-1.536-1.101-3.842-1.452-5.474-1.469" fill="#1c4e9d"/><path d="m3.855 14.0463 1.648-3.039h.049l1.791 3.039Zm-2.017 3.713 1.378-2.532h4.849l1.487 2.532h3.92l-5.311-8.723H4.912l-4.818 8.723z" fill="#1c4e9d"/><path d="m36.8045 24.7503-.776 2.865c-.096.115-.246.209-.381.282-.209.113-.417.172-.608.172-.19 0-.359-.075-.436-.191-.057-.097-.113-.247-.038-.514l.703-2.614h-.722l-.681 2.52c-.058.229-.153.627.055.93.115.171.363.362.872.362.209 0 .419-.038.686-.151.169-.098.357-.211.511-.325l-.113.399h.643l1.009-3.735Z" fill="#1c4e9d"/><path d="M41.4226 25.1823c-.172-.226-.381-.341-.42-.359-.241-.13-.51-.151-.74-.151-.246 0-.55.021-.888.225-.249.176-.552.439-.664.876-.1.322-.059.567.054.72.133.172.361.265.553.321l.358.118c.188.037.38.037.492.187.058.075.119.173.079.361-.058.168-.169.283-.267.359-.132.117-.36.212-.682.212-.209 0-.38-.04-.55-.135-.15-.113-.266-.209-.324-.301l-.477.436c.344.45.764.513 1.179.513.283 0 .854-.039 1.328-.4.265-.225.456-.516.534-.76.037-.193.075-.472-.019-.646-.135-.265-.437-.381-.609-.418l-.267-.078c-.338-.075-.492-.111-.569-.206-.072-.055-.132-.17-.072-.398.034-.095.112-.247.261-.361.189-.115.365-.13.495-.13.171 0 .324.037.456.13.115.076.208.171.284.266z" fill="#1c4e9d"/><path d="M45.3153 25.1823c-.154-.226-.361-.341-.418-.359-.226-.13-.495-.151-.721-.151-.261 0-.55.021-.892.225-.246.176-.55.439-.683.876-.073.322-.038.567.075.72.134.172.383.265.552.321l.34.118c.19.037.382.037.513.187.058.075.114.173.058.361-.058.168-.17.283-.248.359-.133.117-.36.212-.683.212-.208 0-.378-.04-.568-.135-.154-.113-.247-.209-.323-.301l-.475.436c.364.45.781.513 1.196.513.285 0 .853-.039 1.328-.4.265-.225.457-.516.512-.76.058-.193.076-.472-.018-.646-.114-.265-.418-.381-.605-.418l-.27-.078c-.323-.075-.47-.111-.55-.206-.074-.055-.131-.17-.074-.398.038-.095.095-.247.265-.361.172-.115.359-.13.473-.13.192 0 .343.037.476.13.116.076.208.171.285.266z" fill="#1c4e9d"/><path d="M47.1618 23.5173c-.06.263.096.472.343.472.266 0 .51-.209.586-.472.074-.25-.076-.458-.342-.458-.244 0-.509.208-.587.458m-.455 1.234-.135.49h.437l-.869 3.245h.717l1.005-3.735Z" fill="#1c4e9d"/><path d="m53.7552 28.4853.799-2.94c.249-.21.628-.38.968-.38.246 0 .382.093.436.208.114.172.059.452.017.569l-.68 2.543h.722l.682-2.486c.076-.304.112-.664-.056-.966-.153-.247-.437-.362-.837-.362-.244 0-.662.057-1.121.362l.078-.283h-1.161l-.13.49h.435l-.871 3.245Z" fill="#1c4e9d"/><path d="M31.3691 25.5043h-1.196l.475-1.782h1.083c.115 0 .472 0 .664.191.111.112.208.301.129.605-.076.286-.229.513-.454.702-.247.189-.513.269-.701.284m-1.351-2.407-1.459 5.388h.815l.631-2.369h.545l.761 2.369H32.2951l-.871-2.41c.399-.04.933-.227 1.251-.476.359-.264.629-.643.72-1.041.115-.383.061-.779-.165-1.041-.306-.383-.913-.42-1.351-.42h-.51Z" fill="#1c4e9d"/><path d="M50.2429 28.0113c-.115.041-.228.059-.342.059-.149 0-.341-.018-.453-.173-.095-.134-.117-.267-.059-.456.039-.15.115-.301.303-.455.114-.076.265-.171.551-.206.094-.021.209-.04.342-.04h.532l-.209.796c-.115.151-.229.245-.364.342-.111.06-.207.117-.301.133m0-1.708c-.758.074-1.386.379-1.594 1.159-.02.093-.037.168-.037.245v.133c.017.418.301.724.929.724.225 0 .453-.039.702-.14.021 0 .04-.013.075-.032.247-.116.433-.305.494-.362h.037l-.129.457h.644l.664-2.411c.095-.38.187-.76-.02-1.045-.173-.265-.607-.359-.946-.359-.325 0-.61.039-.819.094-.663.168-.912.569-.931.93l.667.038c.053-.189.131-.324.264-.418.152-.112.381-.15.665-.15.154 0 .342.016.415.15.118.134.078.324.041.495l-.133.473h-.532c-.155 0-.321 0-.456.019" fill="#1c4e9d"/><path d="M68.2421 23.5173c-.06.263.092.472.341.472.244 0 .509-.209.585-.472.079-.25-.076-.458-.341-.458-.244 0-.514.208-.585.458m-.668 1.234-.131.49h.435l-.875 3.245h.724l1.004-3.735z" fill="#1c4e9d"/><path d="m70.3271 24.7503-1.005 3.735h.722l.569-2.144c.095-.246.189-.492.324-.683.227-.362.491-.417.644-.417.096 0 .207.017.286.094.053.059.075.168.075.305l.645-.191c.131-.377 0-.59-.227-.699-.118-.057-.248-.078-.382-.078-.416 0-.83.226-1.12.624l.153-.546Z" fill="#1c4e9d"/><path d="m74.3161 23.0203-1.196 4.442c-.092.341-.264 1.023.592 1.023h.417l.131-.492h-.207c-.36 0-.266-.306-.248-.38l1.235-4.593Z" fill="#1c4e9d"/><path d="M76.9331 23.5173c-.057.263.095.472.341.472.269 0 .514-.209.589-.472.057-.25-.096-.458-.339-.458-.269 0-.514.208-.591.458m-.665 1.234-.129.49h.438l-.895 3.245h.74l1.007-3.735z" fill="#1c4e9d"/><path d="m78.9201 28.4853.778-2.94c.264-.21.644-.38.985-.38.246 0 .383.093.437.208.132.172.039.452.019.569l-.68 2.543h.717l.684-2.486c.076-.304.114-.664-.056-.966-.148-.247-.439-.362-.834-.362-.266 0-.646.057-1.119.362l.074-.283h-1.156l-.134.49h.435l-.871 3.245Z" fill="#1c4e9d"/><path d="M90.0601 25.1823c-.15-.226-.34-.341-.4-.359-.244-.13-.489-.151-.719-.151-.268 0-.552.021-.89.225-.266.176-.571.439-.683.876-.099.322-.04.567.071.72.116.172.365.265.535.321l.36.118c.188.037.382.037.489.187.081.075.118.173.081.361-.055.168-.17.283-.268.359-.114.117-.341.212-.682.212-.212 0-.363-.04-.552-.135-.151-.113-.263-.209-.322-.301l-.473.436c.342.45.761.513 1.178.513.302 0 .851-.039 1.327-.4.268-.225.453-.516.532-.76.056-.193.076-.472-.017-.646-.116-.265-.441-.381-.607-.418l-.269-.078c-.318-.075-.475-.111-.568-.206-.059-.055-.132-.17-.076-.398.037-.095.092-.247.267-.361.186-.115.377-.13.492-.13.19 0 .32.037.472.13.096.076.19.171.267.266z" fill="#1c4e9d"/><path d="m63.1821 26.5493 1.46-2.294h.019l.174 2.294Zm-2.011 1.936h.815l.815-1.31h2.068l.097 1.31h.93l-.511-5.387h-.667Z" fill="#1c4e9d"/><path d="m83.8191 26.2843.039-.169c.078-.193.172-.495.416-.705.158-.157.406-.245.627-.245.192 0 .38.057.475.17.17.228.092.553.021.799l-.04.15Zm-.111.496h2.254l.06-.249c.15-.497.3-1.007.039-1.422-.229-.359-.685-.437-1.008-.437-.483 0-.943.171-1.309.493-.495.434-.701 1.024-.814 1.517-.114.401-.23 1.004.074 1.442.284.378.8.439 1.156.439.292 0 .562-.042.839-.14.15-.052.339-.13.509-.223l-.111-.437c-.173.076-.304.135-.496.176-.177.03-.342.072-.532.072-.282 0-.531-.097-.661-.265-.21-.247-.114-.627-.058-.816z" fill="#1c4e9d"/></svg>