<?xml version="1.0" encoding="UTF-8" standalone="no"?>
<svg height="26.011518mm" viewBox="0 0 101.91825 26.011518" width="101.91825mm" xmlns="http://www.w3.org/2000/svg">
   <g fill="#e4001c" transform="translate(-22.381576 -112.32083)">
      <g stroke-width=".93696427" transform="scale(.98892569 1.0111983)">
         <path d="m28.343943 132.58783c0 .29983.119931.47973.41976.46474h2.128783c.134922 0 .239862-.015.299828-.11993l.07496-.28484c.119932-.29983-.224871-.25486-.449743-.44974-.344802-.13493-.479725-.25486-.479725-.79455v-4.36251c0-.97444-.404769-1.06439-.869503-1.25928-.644631-.23986-1.36422-.40476-2.368646-.40476-2.6235 0-4.467445 2.00885-4.467445 4.37749 0 1.79897 1.094374 3.47801 2.893345 3.47801 1.124357 0 2.30868-.83952 2.788406-1.94888h.02998zm-1.424186-6.43132c1.229297 0 1.424186 1.06439 1.424186 2.33866 0 2.12879-1.244289 3.47801-2.128783 3.47801-.929469 0-1.46916-1.16933-1.46916-2.6235 0-1.52912.779554-3.19317 2.173757-3.19317z"/>
         <path d="m33.124803 131.44848c0 .56968-.389777.80954-.764563.8845-.10494.03-.224872.045-.284837.20988l-.08995.25485c-.07496.22487.07496.25486.194889.25486h3.687891c.134923 0 .20988-.045.254854-.11993l.119932-.29983c.05996-.11993.02998-.23987-.164906-.26985-.73458-.1649-.959451-.26984-.959451-.91448v-5.89163h-2.758422c-.08995 0-.179897 0-.224872.11993l-.134922.29983c-.08995.1799.05997.23987.20988.28484.689605.14991.914477.25485.914477.89949zm-.10494-8.08038c0 .61465.509708 1.10937 1.124357 1.10937.584665 0 1.094374-.53969 1.094374-1.10937 0-.59965-.509709-1.10936-1.109366-1.10936-.599657 0-1.109365.49472-1.109365 1.10936z"/>
         <path d="m40.228397 125.85668c0-.31482-.194889-.29983-.359794-.29983h-2.41362c-.08995 0-.179898 0-.224872.11993l-.134923.29983c-.08995.1799.05997.23987.20988.28484.689606.14991.914477.25485.914477.89949v4.28754c0 .56968-.389777.80954-.764562.8845-.10494.03-.224872.045-.284838.20988l-.08995.25485c-.07496.22487.07496.25486.194888.25486h3.927755c.179897 0 .269845-.045.329811-.11993l.164906-.29983c.07496-.11993.04497-.23987-.224872-.26985-.959451-.1649-1.25928-.26984-1.25928-.91448v-1.82895c0-.76456-.07496-1.43918.284838-2.03883.20988-.3598.614648-.5397 1.304254-.32982.41976.11994.704597.43476.869503.22488l.584665-.47973c.02998-.03.04498-.09.02998-.13492l-.299828-1.12436c-.05997-.16491-.31482-.35979-.73458-.35979-.659623 0-1.379212.65962-1.99386 1.52912h-.02998z"/>
         <path d="m51.629612 124.16265c0-.56967.389777-.80954.764563-.88449.10494-.03.224872-.045.284837-.20988l.08995-.25486c.07496-.22487-.07496-.25485-.194889-.25485h-3.807823c-.134922 0-.20988.045-.254854.11993l-.119931.29983c-.05997.11993-.02998.23986.164905.26984.73458.16491.959452.26985.959452.91448v7.28583c0 .56968-.389777.80954-.764563.8845-.10494.03-.224871.045-.284837.20988l-.08995.25485c-.07496.22487.07496.25486.194889.25486h3.807823c.134923 0 .20988-.045.254854-.11993l.119931-.29983c.05997-.11993.02998-.23987-.164905-.26985-.73458-.1649-.959452-.26984-.959452-.91448v-3.70288h4.437463v3.70288c0 .56968-.389777.80954-.764563.8845-.10494.03-.224871.045-.284837.20988l-.08995.25485c-.07496.22487.07496.25486.194889.25486h3.807823c.134923 0 .20988-.045.254854-.11993l.119932-.29983c.05996-.11993.02998-.23987-.164906-.26985-.73458-.1649-.959452-.26984-.959452-.91448v-7.28583c0-.56967.389778-.80954.764563-.88449.10494-.03.224872-.045.284837-.20988l.08995-.25486c.07496-.22487-.07496-.25485-.194889-.25485h-3.807822c-.134923 0-.20988.045-.254855.11993l-.119931.29983c-.05997.11993-.02998.23986.164906.26984.73458.16491.959451.26985.959451.91448v2.68347h-4.437463z"/>
         <path d="m64.776861 125.37696c-2.428612 0-4.1976 1.72401-4.1976 4.07766 0 1.78398 1.349228 3.77784 3.807822 3.77784 2.593518 0 4.212592-1.93389 4.212592-4.07766 0-1.9339-1.424186-3.77784-3.822814-3.77784zm-.134923 7.04597c-.94446 0-1.948886-1.18433-1.948886-3.49301 0-1.33423.62964-2.74343 1.918903-2.74343 1.094374 0 1.873928 1.24429 1.873928 3.20817 0 1.42418-.359794 3.02827-1.843945 3.02827z"/>
         <path d="m72.626514 125.85668c0-.31482-.194888-.29983-.359794-.29983h-2.398629c-.08995 0-.179897 0-.224871.11993l-.134923.29983c-.08995.1799.05997.23987.20988.28484.689606.14991.914477.25485.914477.89949v4.28754c0 .56968-.389777.80954-.764563.8845-.10494.03-.224871.045-.284837.20988l-.08995.25485c-.07496.22487.07496.25486.194888.25486h3.612934c.119932 0 .194889-.045.224872-.11993l.119931-.29983c.04497-.11993.01499-.23987-.149914-.26985-.674614-.1649-.869503-.26984-.869503-.91448v-.85451c0-2.84837.899486-3.89777 1.948886-3.89777.749571 0 1.169331.40477 1.169331 2.05383v2.69845c0 .56968-.344803.80954-.689605.8845-.08995.03-.194889.045-.254855.20988l-.08995.25485c-.05997.22487.07496.25486.179897.25486h3.597943c.134923 0 .20988-.045.254854-.11993l.119931-.29983c.05997-.11993.02998-.23987-.164905-.26985-.73458-.1649-.959452-.26984-.959452-.91448v-3.50799c0-1.78398-.794545-2.56353-2.128783-2.56353-.974442 0-2.263705.5097-2.953311 1.63406h-.02998z"/>
         <path d="m80.102553 135.60111c-.179897.31482.01499.41976.299829.56967.62964.31482 1.349228.62964 2.93832.62964 2.788405 0 4.242574-1.64905 4.242574-4.55739v-5.20203c0-.97444-.404769-1.0494-.869503-1.25928-.644631-.23986-1.36422-.40476-2.368646-.40476-2.6235 0-4.467445 2.00885-4.467445 4.37749 0 1.79897 1.094374 3.47801 2.893345 3.47801 1.124358 0 2.30868-.83952 2.788406-1.94888h.02998v1.52912c0 1.91891-.809537 2.92333-2.30868 2.92333-1.529126 0-2.248714-.94446-2.41362-1.07938-.194889-.16491-.284837.10494-.41976.32981zm4.062677-9.4446c1.229297 0 1.424186 1.06439 1.424186 2.33866 0 2.12879-1.244289 3.47801-2.128783 3.47801-.929468 0-1.46916-1.16933-1.46916-2.6235 0-1.52912.779554-3.19317 2.173757-3.19317z"/>
         <path d="m95.038934 133.05257h2.533551v-.49472c-.299829-.11993-.554683-.28484-.989434-.74957-.83952-.8695-1.828955-2.23372-2.803397-3.43304l1.409194-1.36422c.614648-.61465 1.724014-.55468 1.724014-.98943 0-.20988 0-.46474-.299828-.46474h-1.813963c-.719589.89949-1.649057 1.87393-2.818389 2.89335v-6.1165c0-.31482-.194888-.29983-.359794-.29983h-2.398629c-.08995 0-.179897 0-.224871.11993l-.134923.29983c-.08995.17989.05997.23986.20988.28483.689606.14992.914477.25486.914477.89949v7.81053c0 .56968-.389777.80954-.764563.8845-.10494.03-.224871.045-.284837.20988l-.08995.25485c-.07496.22487.07496.25486.194888.25486h3.612934c.119932 0 .194889-.045.224872-.11993l.119931-.29983c.04497-.11993.01499-.23987-.149914-.26985-.674614-.1649-.869503-.26984-.869503-.91448v-2.50356h.02998z"/>
         <path d="m102.51896 125.37696c-2.42861 0-4.197603 1.72401-4.197603 4.07766 0 1.78398 1.349228 3.77784 3.807823 3.77784 2.59352 0 4.21259-1.93389 4.21259-4.07766 0-1.9339-1.42418-3.77784-3.82281-3.77784zm-.13493 7.04597c-.94446 0-1.94888-1.18433-1.94888-3.49301 0-1.33423.62964-2.74343 1.9189-2.74343 1.09438 0 1.87393 1.24429 1.87393 3.20817 0 1.42418-.35979 3.02827-1.84395 3.02827z"/>
         <path d="m110.36861 125.85668c0-.31482-.19489-.29983-.3598-.29983h-2.39863c-.09 0-.17989 0-.22487.11993l-.13492.29983c-.09.1799.06.23987.20988.28484.6896.14991.91448.25485.91448.89949v4.28754c0 .56968-.38978.80954-.76457.8845-.10494.03-.22487.045-.28483.20988l-.09.25485c-.075.22487.075.25486.19489.25486h3.61293c.11993 0 .19489-.045.22487-.11993l.11993-.29983c.045-.11993.015-.23987-.14991-.26985-.67462-.1649-.8695-.26984-.8695-.91448v-.85451c0-2.84837.89948-3.89777 1.94888-3.89777.74957 0 1.16933.40477 1.16933 2.05383v2.69845c0 .56968-.3448.80954-.6896.8845-.09.03-.19489.045-.25486.20988l-.09.25485c-.06.22487.075.25486.1799.25486h3.59794c.13493 0 .20988-.045.25486-.11993l.11993-.29983c.06-.11993.03-.23987-.16491-.26985-.73458-.1649-.95945-.26984-.95945-.91448v-3.50799c0-1.78398-.79454-2.56353-2.12878-2.56353-.97444 0-2.26371.5097-2.95331 1.63406h-.03z"/>
         <path d="m117.84464 135.60111c-.1799.31482.015.41976.29983.56967.62964.31482 1.34923.62964 2.93832.62964 2.78841 0 4.24257-1.64905 4.24257-4.55739v-5.20203c0-.97444-.40476-1.0494-.8695-1.25928-.64463-.23986-1.36422-.40476-2.36864-.40476-2.6235 0-4.46745 2.00885-4.46745 4.37749 0 1.79897 1.09437 3.47801 2.89335 3.47801 1.12435 0 2.30868-.83952 2.7884-1.94888h.03v1.52912c0 1.91891-.80953 2.92333-2.30868 2.92333-1.52912 0-2.24871-.94446-2.41362-1.07938-.19488-.16491-.28483.10494-.41976.32981zm4.06268-9.4446c1.2293 0 1.42418 1.06439 1.42418 2.33866 0 2.12879-1.24428 3.47801-2.12878 3.47801-.92947 0-1.46916-1.16933-1.46916-2.6235 0-1.52912.77956-3.19317 2.17376-3.19317z"/>
      </g>
      <g stroke-width=".64698291" transform="scale(1.0172143 .983077)">
         <path d="m66.353593 119.10673h-.808729v-1.41527q-1.455712 1.21309-3.922334 2.10269l-.323491-.84916q2.345313-.72786 3.96277-1.94095h-3.437097v-.76829h3.720152v-.93004q-1.536584.0809-3.073169.12131l-.08087-.68742q3.477533-.12131 6.267647-.4448l.485237.68742q.323492.40436-.363927.16174-1.374839.0809-2.426186.12131v.97048h3.720151v.76829h-3.315787q1.536584 1.17265 3.760588 1.86007l-.323491.84917q-2.264441-.72786-3.841461-2.14313zm1.657893 4.08408h-4.043643v.36393h-.808729v-4.08408h5.661101v3.96277h-.808729zm0-2.26444v-.68742h-4.043643v.68742zm0 1.49615v-.72786h-4.043643v.72786z"/>
         <path d="m78.888886 122.6247q.363928 0 .444801-.28305l.202182-.60655.808729.32349-.121309.4448q-.242619.8896-.930038.8896h-3.194478q-.68742 0-.68742-.72785v-2.06226h2.668805v-.64698h-2.668805q-.56611.56611-1.415275 1.13222l-.323491-.8896q1.577021-.93004 2.224004-2.18357h-1.940949v-.76829h1.779203v-.97048h-1.415275v-.76829h1.415275v-1.21309h.768292q.323491.0404.04044.24262v.97047h1.25353v-1.21309h.768292q.323491.0404.04044.24262v.97047h1.617458v.76829h-1.617458v.97048h2.062258v.76829h-1.900512q.606547 1.05135 2.183567 1.81964l-.404364.84916q-1.091784-.52567-1.657894-1.21309v2.06226h-.808728v-.16175h-1.860076v.93004q0 .32349.283055.32349zm-6.186774-7.96598q.930038.56611 1.293966 1.01092l-.606546.80872q-.485237-.48523-1.293966-1.09178zm-1.091783 8.08729q.808728-1.41527 1.213093-3.07317l.687419.4448q-.283055 1.49615-.930038 3.03274.08087.60654-.283055.24261zm.727856-5.70154q1.01091.60655 1.293965 1.01092l-.56611.84916q-.4448-.48524-1.293966-1.09178zm4.205388-.76829v.97048h1.25353v-.97048zm.202183 1.73877q-.283055.60655-.768293 1.17266h2.668805q-.525674-.60655-.727856-1.17266z"/>
         <path d="m88.957558 118.33844h2.143131v.76829h-2.143131v.8896h1.253529v.64699h-3.194478v.68742h3.841461v.76829h-3.841461v1.45571h-.808728v-1.45571h-3.801025v-.76829h3.801025v-.68742h-3.194479v-.64699h1.25353v-.8896h-2.143131v-.76829h2.143131v-.84917h-1.25353v-.64698h7.197685v.64698h-1.253529zm-3.881897 1.65789h1.13222v-.8896h-1.13222zm1.940948 0h1.13222v-.8896h-1.13222zm0-2.50706v.84917h1.13222v-.84917zm-1.940948.84917h1.13222v-.84917h-1.13222zm-.404365-4.04364h.768292q.323492.0404.04044.24262v.64698h2.102694v-.8896h.768292q.323492.0404.04044.24262v.64698h2.547495v.76829h-2.547495v.52567h-.808729v-.52567h-2.102694v.52567h-.808729v-.52567h-2.466622v-.76829h2.466622z"/>
         <path d="m99.551903 123.02907q-1.819639-1.09179-2.426186-3.55841h-2.628368v2.5475l2.911423-.72786.121309.76829-4.286261 1.21309q-.04044.3235-.202182.16175l-.283055-1.09178.930037-.16175v-7.4403h6.67201v2.99229h-.808727v-.24262h-1.900512q.08087.56612.161746 1.2131h3.639283v.76829h-3.477538q.606547 2.02182 2.062258 2.79011.52567.28306.60655-.28305l.0809-.52567.8896.32349-.16174.76829q-.3235 1.45571-1.900517.48524zm-5.054554-4.3267h2.466622q-.08087-.60655-.161745-1.2131h-2.304877zm5.054554-1.98139v-1.21309h-5.054554v1.21309z"/>
         <path d="m105.77911 119.30891l-1.61745.0809v1.49615q0 1.45571-.88961 2.62836l-.60654-.48523q.80873-.97048.80873-2.18357v-1.41528l-.56611.0404q-.0404.36393-.20219.0809l-.16174-.84916h.93004v-3.31579h.8896l.24262-1.09178.80873.0809q.28305.16175-.0809.20218l-.24262.80873h1.37484v3.19448l.80873-.0404v.64699l-.80873.0404v3.76059q0 .56611-.52567.56611h-.76829l-.12131-.76829h.56611q.16174 0 .16174-.16175zm4.12452-.97047h-1.3344v2.38575q0 1.65789-1.29397 2.74968l-.60654-.68742q1.09178-.80873 1.09178-2.22401v-2.99229h2.95186v4.73106q0 .32349.32349.32349.24262 0 .24262-.24262l.0809-.84916.80873.12131-.12131 1.05134q-.0809.68742-.68742.68742h-.72785q-.72786 0-.72786-.72785zm-5.29717 4.04364v-2.6688h.68742q.24261.0404 0 .20218v2.46662zm.20218-4.08408q-.16175-.80873-.40437-1.61745l.68742-.20219q.36393.93004.48524 1.57703zm.97047-2.26444h-1.61745v2.62837l1.61745-.0404zm1.25353.60655v-.76829h1.81964v-1.61746h.76829q.3235.0404.0404.24262v1.37484h2.06226v.76829z"/>
         <path d="m121.58976 117.89364q-.28306 1.05135-1.05135 1.05135h-1.53658q-.7683 0-.7683-.7683v-1.98138h-1.29396v.48524q0 1.81964-2.66881 2.74967l-.40436-.76829q2.26444-.68742 2.26444-1.98138v-.48524h-1.86008v1.37484h-.93003v-2.14313h3.88189v-1.13222h.88961q.32349.0404.0404.24262v.8896h3.8819v1.90051h-.93004v-1.13222h-2.06226v1.69833q0 .28305.36393.28305h.8896q.40437 0 .52568-.60654zm.60654 4.52888v.8896h-8.97688v-.8896h4.04364v-1.73877h-3.07317v-.8896h6.95507v.8896h-3.07317v1.73877z"/>
      </g>
   </g>
</svg>
