<svg xmlns="http://www.w3.org/2000/svg" width="146" height="40" fill="none" data-azal-logo="light" viewBox="0 0 146 40" class="SvgIcon_root__AnyvP Logo_root__JwoAS SvgIcon_size_20__yOxOn"><g id="logo 1" clip-path="url(#clip0_4704_45935)"><path id="Vector" fill="#082E6A" d="M31.428 28.467a15.767 15.767 0 1 1-7.634-18.875l.563-.496a16.459 16.459 0 1 0 7.824 19.334l-.753.037Z"></path><path id="Vector_2" fill="#0098DA" d="M5.914 28.611a184.37 184.37 0 0 0 28.202-4.669l-.43 1.924a103.461 103.461 0 0 1-27.772 2.746"></path><path id="Vector_3" fill="#0098DA" d="M7.425 27.667A165.266 165.266 0 0 0 34.8 20.89l-.441 1.969c-10.38 3.267-19.238 4.718-26.934 4.81Z"></path><path id="Vector_4" fill="#51C2E1" d="M8.875 26.665a200.405 200.405 0 0 0 26.618-8.871l-.444 1.981c-9.528 3.743-18.349 6.206-26.174 6.89Z"></path><path id="Vector_5" fill="#9FD7E0" d="M10.321 25.475a131.64 131.64 0 0 0 26.028-11.519l-.544 2.431c-10.261 5.095-18.957 8.362-25.484 9.088Z"></path><path id="Vector_6" fill="#51C2E1" d="M12.196 24.223A182.608 182.608 0 0 0 37.358 9.46l-.6 2.678c-8.21 5.24-16.403 9.582-24.562 12.084Z"></path><path id="Vector_7" fill="#0098DA" d="M13.636 22.67A168.07 168.07 0 0 0 38.604 3.885l-.731 3.266A105.675 105.675 0 0 1 13.636 22.66M39.16 0l-2.75.072a120.42 120.42 0 0 1-10.275 11.036c-3.734 3.558-7.488 6.748-11.245 9.89C23.12 15.446 31.285 9.228 39.16.004m3.994 31.04h22.408v.591H43.154v-.59Zm79.631 0h22.37v.591h-22.37v-.59Z"></path><path id="Vector_8" fill="#082E6A" d="m48.827 14.346-2.646 5.271h5.275l-2.63-5.27Zm-3.15 6.33-1.356 2.645c-.301.62-1.406.181-1.104-.485l5.057-9.963a.594.594 0 0 1 .553-.319.587.587 0 0 1 .535.319l5.04 9.912c.435.72-.803 1.14-1.122.486l-1.307-2.595h-6.295Zm11.79 1.745h7.151a.6.6 0 0 1 0 1.2h-8.272c-.652 0-.854-.539-.485-1.008l7.501-8.912H56.58a.574.574 0 1 1 0-1.147h7.971c.686 0 .871.54.486 1.043l-7.57 8.824Zm10.686.05h6.614a.574.574 0 1 1 0 1.15h-7.05a.745.745 0 0 1-.77-.767v-9.551a.74.74 0 0 1 .77-.749h7.066a.557.557 0 1 1-.016 1.114h-6.614v3.915h6.295c.67 0 .704 1.114 0 1.114h-6.295v3.774Zm10.717-3.893h3.383c2.193 0 3.148-1.047 3.114-2.334-.016-1.408-1.172-2.541-3.114-2.541H78.87v4.875Zm0 1.08v3.33a.611.611 0 0 1-1.222.017v-9.85a.578.578 0 0 1 .62-.6h3.969c2.897 0 4.37 1.68 4.37 3.689a3.184 3.184 0 0 1-2.98 3.346l2.713 3.004a.59.59 0 1 1-.837.823l-3.382-3.758h-3.25Zm11.02 2.83h3.75c1.474 0 3.098-.4 3.098-2.156 0-1.375-1.139-1.966-2.596-1.966H89.89l.001 4.123Zm0-8.801v3.548h3.415c1.44 0 2.696-.4 2.696-1.67 0-1.495-1.707-1.878-2.745-1.878H89.89Zm3.75 9.934h-4.355a.626.626 0 0 1-.62-.626V13.18a.627.627 0 0 1 .62-.626h3.969c1.557 0 3.968.54 3.968 3.011a2.128 2.128 0 0 1-1.29 2.07 2.723 2.723 0 0 1 2.06 2.698c.003 2.591-2.241 3.287-4.35 3.287l-.002.001Zm10.887-9.275-2.646 5.275h5.274l-2.628-5.275Zm-3.148 6.33-1.357 2.645c-.302.62-1.406.181-1.105-.485l5.057-9.963a.591.591 0 0 1 .553-.319.588.588 0 0 1 .536.319l5.04 9.912c.434.72-.804 1.14-1.123.486l-1.306-2.595h-6.295Zm10.332-7.51a.627.627 0 1 1 1.256 0v9.882a.632.632 0 0 1-1.056.414.627.627 0 0 1-.2-.414v-9.882Zm9.528.515h-3.215a.567.567 0 1 1 0-1.127h3.767a.637.637 0 0 1 .604.564v6.539a4.19 4.19 0 0 1-4.321 3.978 3.858 3.858 0 0 1-3.969-3.586.618.618 0 0 1 .167-.454.623.623 0 0 1 .892-.013.617.617 0 0 1 .18.45 2.597 2.597 0 0 0 2.73 2.458 3.054 3.054 0 0 0 3.165-2.833V13.68Zm7.822.665-2.646 5.275h5.274l-2.628-5.275Zm-3.149 6.33-1.357 2.645c-.301.62-1.406.181-1.105-.485l5.057-9.963a.591.591 0 0 1 .553-.319.586.586 0 0 1 .535.319l5.04 9.912c.435.72-.804 1.14-1.122.486l-1.306-2.595h-6.295Zm18.002-7.531c0-.71 1.271-.744 1.271 0v9.7c0 .845-1.156.93-1.508.338l-6.261-8.466.134 2.332v5.965a.635.635 0 0 1-1.27 0v-9.682a.713.713 0 0 1 1.012-.691.716.716 0 0 1 .345.336l6.442 8.702-.167-2.551.002-5.983ZM73.138 28.009l-1.83 3.69h3.65l-1.82-3.69Zm-2.178 4.429-.939 1.85c-.209.434-.974.129-.764-.34l3.5-6.969a.41.41 0 0 1 .382-.222.406.406 0 0 1 .371.222l3.488 6.934c.302.504-.556.796-.776.34l-.907-1.815H70.96Zm7.148-5.252a.435.435 0 1 1 .87 0v6.93a.435.435 0 0 1-.87 0v-6.93Zm3.474 3.783h2.34c1.519 0 2.179-.732 2.156-1.633a1.906 1.906 0 0 0-2.155-1.776h-2.34v3.41Zm0 .756v2.329a.424.424 0 0 1-.845.011v-6.889a.401.401 0 0 1 .428-.42h2.746c2.004 0 3.024 1.18 3.024 2.58a2.218 2.218 0 0 1-2.062 2.341l1.877 2.1a.41.41 0 1 1-.58.577l-2.34-2.631-2.248.002Zm7.207 2.77a.387.387 0 0 1-.44-.443v-6.88a.429.429 0 1 1 .858 0v6.533h4.334a.399.399 0 1 1 0 .791h-4.752Zm6.152-7.309a.435.435 0 1 1 .869 0v6.93a.436.436 0 0 1-.87 0v-6.93Zm7.855-.049c0-.498.88-.522.88 0v6.815c0 .593-.799.653-1.042.237l-4.333-5.948.09 1.638v4.191a.44.44 0 0 1-.88 0v-6.806a.494.494 0 0 1 .938-.248l4.461 6.114-.117-1.793.003-4.2Zm3.614 6.555h4.577c.487 0 .557.804 0 .804h-4.878a.518.518 0 0 1-.533-.536v-6.69a.508.508 0 0 1 .328-.49.514.514 0 0 1 .205-.035h4.886a.392.392 0 0 1-.011.78h-4.577v2.743h4.355c.464 0 .487.78 0 .78h-4.355l.003 2.644Zm6.802-1.214c.301.967 1.587 1.18 2.514 1.18.985 0 2.514-.303 2.514-1.48 0-1.013-1.216-1.094-2.49-1.199-1.599-.128-3.314-.28-3.314-2.015 0-1.537 1.761-2.224 3.176-2.224 1.216 0 2.734.29 3.221 1.619.174.465-.614.675-.788.28-.347-.886-1.588-1.037-2.422-1.037-.775 0-2.283.314-2.283 1.374 0 1.013 1.159 1.119 2.503 1.223 1.588.14 3.291.22 3.291 1.968 0 1.782-1.981 2.33-3.406 2.33-1.18 0-2.99-.408-3.372-1.805-.139-.513.764-.688.857-.21"></path></g><defs><clipPath id="clip0_4704_45935"><path fill="#fff" d="M0 0h145.187v40H0z"></path></clipPath></defs></svg>