<svg xmlns="http://www.w3.org/2000/svg" viewBox="0 0 645 110.33663">
   <path fill="#005450"
      d="m 130.32188,2.441076 h 18.58022 l 42.04995,82.75247 h 0.89642 L 233.0835,2.441076 h 18.25424 V 110.33663 H 233.0835 V 21.888314 h -0.57044 l -44.33174,88.448316 h -3.74864 L 139.61199,22.620637 h -1.22238 v 87.715993 h -8.06773 z m 235.96638,0 v 6.997751 h -56.96302 v 32.059462 h 38.13833 v 6.997751 h -38.13833 v 54.84284 h 56.96302 v 6.99775 H 291.15249 V 2.441076 Z m 31.82851,0 h 18.17276 V 103.33888 h 54.43676 v 6.99775 h -72.60952 z m 99.30402,0 h 18.17276 V 110.33663 H 497.42079 Z M 70.636974,75.955577 35.281754,0 h 18.716899 l 45.98882,99.786445 c 1.989927,3.307665 3.643397,6.840125 4.913127,10.550185 H 78.944139 C 73.141364,96.022987 59.087239,85.925869 42.671242,85.925869 c -16.415997,0 -30.470122,10.097118 -36.2728922,24.410761 H 0 C 7.4517453,88.563298 28.119875,72.906798 52.450302,72.906798 c 6.37046,0 12.489849,1.073339 18.186672,3.048779 z M 25.622162,0.50673 25.752549,0 h 0.106949 z M 610.73637,75.955577 575.38115,0 h 18.7169 l 45.98882,99.786445 c 1.98993,3.307665 3.64339,6.840125 4.91313,10.550185 h -25.95646 c -5.80278,-14.313643 -19.8569,-24.410761 -36.2729,-24.410761 -16.416,0 -30.47012,10.097118 -36.27289,24.410761 h -6.39835 c 7.45174,-21.773332 28.11987,-37.429832 52.4503,-37.429832 6.37046,0 12.48985,1.073339 18.18667,3.048779 z M 565.72156,0.50673 565.85195,0 h 0.10694 z" />
</svg>