<svg width="137" height="32" viewBox="0 0 137 32" fill="none" xmlns="http://www.w3.org/2000/svg">
<g id="AI Logo" clip-path="url(#clip0_9219_4184)">
<g id="Design">
<g id="Group">
<path id="Vector" d="M41.5617 22.7969C42.8433 22.0612 43.6589 20.6734 43.6589 18.9846C43.6589 15.2393 40.9792 14.002 36.2355 14.002H27.9965V26.6928H32.0411V24.0342H36.2521C36.8846 24.0342 37.4838 24.0008 38.0331 23.9339C38.7821 24.6696 39.4312 25.8568 39.6975 26.6761H43.8919C43.4425 25.3217 42.5604 23.7165 41.5617 22.7969ZM36.4352 21.1081H32.0411V16.928H36.4352C38.5657 16.928 39.7808 17.3126 39.7808 18.9846C39.7641 20.6734 38.5657 21.1081 36.4352 21.1081Z" fill="#DA0E29"/>
<path id="Vector_2" d="M24.7342 14.002H20.6896V26.6928H24.7342V14.002Z" fill="#DA0E29"/>
<path id="Vector_3" d="M57.324 14.002H53.2794V26.6928H57.324V14.002Z" fill="#DA0E29"/>
<path id="Vector_4" d="M102.647 14.002H98.6021V26.6928H102.647V14.002Z" fill="#DA0E29"/>
<path id="Vector_5" d="M88.0662 14.002H80.0769V26.6928H88.0662C92.7599 26.6928 96.2219 24.5693 96.2219 20.339C96.2219 16.1087 92.7599 14.002 88.0662 14.002ZM87.5835 23.6664H84.1215V17.0284H87.5835C90.5961 17.0284 92.194 18.0985 92.194 20.339C92.194 22.5795 90.5961 23.6664 87.5835 23.6664Z" fill="#DA0E29"/>
<path id="Vector_6" d="M72.9364 19.7872C70.523 17.0785 67.6102 15.1222 63.9984 14.002H60.5696V26.6928H64.4478V18.1152C68.1428 19.3191 71.5549 23.0979 73.236 26.6928H76.7979V14.002H72.9198V19.7872H72.9364Z" fill="#DA0E29"/>
<path id="Vector_7" d="M7.04121 14.002C4.37811 17.0284 0.633118 22.1281 0.633118 26.6928H4.66106C4.66106 26.0072 4.74429 25.305 4.91073 24.6194H14.0818C14.2482 25.3217 14.3315 26.0072 14.3315 26.6928H18.3594C18.3594 22.1281 14.6144 17.0284 11.9513 14.002H7.04121ZM5.82617 21.9442C6.80819 19.7872 8.23961 17.7808 9.48794 16.3261C10.7363 17.7808 12.1677 19.7872 13.1497 21.9442H5.82617Z" fill="#DA0E29"/>
<path id="Vector_8" d="M116.295 14.002H111.385C108.722 17.0284 104.977 22.1281 104.977 26.6928H109.005C109.005 26.0072 109.088 25.305 109.255 24.6194H118.426C118.592 25.3217 118.675 26.0072 118.675 26.6928H122.703C122.703 22.1114 118.958 17.0284 116.295 14.002ZM110.17 21.9442C111.152 19.7872 112.583 17.7808 113.832 16.3261C115.08 17.7808 116.511 19.7872 117.493 21.9442H110.17Z" fill="#DA0E29"/>
</g>
</g>
<g id="Layer_3">
<g id="Group_2">
<path id="Vector_9" d="M136.884 22.0276C137.217 19.5529 136.618 17.4127 136.119 16.0082C135.769 15.0217 135.486 14.2358 135.236 13.5336C134.105 10.34 133.888 9.75477 133.106 6.56116L132.84 5.50778L131.808 5.17337C128.679 4.15342 128.129 3.90261 125.033 2.51482C124.351 2.21385 123.585 1.86272 122.637 1.44471C121.521 0.959816 119.824 0.290997 117.776 0.224116C114.631 0.107073 111.618 1.39455 108.805 4.03638L108.855 4.01966C108.139 4.65503 107.407 5.39073 106.658 6.24348C106.658 6.24348 106.675 6.29364 106.841 6.15987C107.823 5.35729 111.035 2.34761 119.774 6.29364C124.068 8.23321 128.196 9.95542 128.196 9.95542C128.196 9.95542 129.544 14.2191 131.092 18.7002C134.238 27.7794 130.975 30.7389 130.093 31.6418C129.96 31.7923 130.01 31.809 130.01 31.809C131.275 30.8894 132.29 29.9698 133.139 29.0669C135.27 26.9099 136.535 24.5524 136.884 22.0276Z" fill="url(#paint0_linear_9219_4184)"/>
</g>
<path id="Vector_10" d="M132.856 5.47457L131.824 5.14016C128.695 4.12022 128.146 3.86941 125.05 2.48161C124.368 2.18065 123.602 1.82952 122.653 1.4115C121.538 0.926612 119.84 0.257794 117.793 0.190913C114.647 0.0738694 111.635 1.36134 108.822 4.00317L108.872 3.98645C108.156 4.62183 107.424 5.35753 106.675 6.21027C106.675 6.21027 106.691 6.26044 106.858 6.12667C107.84 5.32409 111.052 2.31441 119.79 6.26044C124.085 8.20001 128.212 9.92221 128.212 9.92221L132.856 5.47457Z" fill="#FED9A0"/>
</g>
</g>
<defs>
<linearGradient id="paint0_linear_9219_4184" x1="148.721" y1="45.4234" x2="115.402" y2="0.306412" gradientUnits="userSpaceOnUse">
<stop offset="0.1805" stop-color="#FED9A0"/>
<stop offset="0.3124" stop-color="#ECC890"/>
<stop offset="0.5738" stop-color="#BF9A66"/>
<stop offset="0.7464" stop-color="#9E7947"/>
</linearGradient>
<clipPath id="clip0_9219_4184">
<rect width="137" height="32" fill="white"/>
</clipPath>
</defs>
</svg>
