<?xml version="1.0" encoding="UTF-8" standalone="no"?>
<!-- Created with Inkscape (http://www.inkscape.org/) -->

<svg
   xmlns:dc="http://purl.org/dc/elements/1.1/"
   xmlns:cc="http://creativecommons.org/ns#"
   xmlns:rdf="http://www.w3.org/1999/02/22-rdf-syntax-ns#"
   xmlns:svg="http://www.w3.org/2000/svg"
   xmlns="http://www.w3.org/2000/svg"
   xmlns:sodipodi="http://sodipodi.sourceforge.net/DTD/sodipodi-0.dtd"
   xmlns:inkscape="http://www.inkscape.org/namespaces/inkscape"
   width="310.6669"
   height="83.081001"
   viewBox="0 0 82.19728 21.981847"
   version="1.1"
   id="svg3462"
   inkscape:version="0.92.0 r15299"
   sodipodi:docname="air macau.svg">
  <defs
     id="defs3456">
	
	
	

		
		
		
		
	
		
		
	
		
		
	
			
			
			
			
			
			
			
			
			
			
			
			
			
		
			
			
			
			
		
			
		
			
			
		
			
			
			
			
			
			
		
				
			
				
				
			</defs>
  <sodipodi:namedview
     id="base"
     pagecolor="#ffffff"
     bordercolor="#666666"
     borderopacity="1.0"
     inkscape:pageopacity="0.0"
     inkscape:pageshadow="2"
     inkscape:zoom="2.9060444"
     inkscape:cx="154.33352"
     inkscape:cy="40.540444"
     inkscape:document-units="mm"
     inkscape:current-layer="layer1"
     showgrid="false"
     fit-margin-top="0"
     fit-margin-left="0"
     fit-margin-right="0"
     fit-margin-bottom="0"
     units="px"
     inkscape:window-width="1280"
     inkscape:window-height="744"
     inkscape:window-x="-4"
     inkscape:window-y="-4"
     inkscape:window-maximized="1" />
  <metadata
     id="metadata3459">
    <rdf:RDF>
      <cc:Work
         rdf:about="">
        <dc:format>image/svg+xml</dc:format>
        <dc:type
           rdf:resource="http://purl.org/dc/dcmitype/StillImage" />
        <dc:title></dc:title>
      </cc:Work>
    </rdf:RDF>
  </metadata>
  <g
     inkscape:label="Layer 1"
     inkscape:groupmode="layer"
     id="layer1"
     transform="translate(-244.15997,-305.39925)">
    <g
       id="g4019"
       transform="translate(0.26458049,-0.26457091)">
      <rect
         id="rect3697"
         height="21.452681"
         width="21.452681"
         x="244.15997"
         y="305.92841"
         style="fill:#ffffff;stroke-width:0.26458332" />
      <rect
         id="rect3699"
         height="21.009504"
         width="20.551775"
         y="306.31049"
         x="244.46875"
         style="fill:#ffffff;stroke-width:0.26458332" />
      <path
         id="path3701"
         d="m 253.4159,316.01672 c 0.16034,-1.19936 -1.17078,-1.03849 -1.17078,-1.03849 0.0558,-0.61251 1.06574,-1.9439 2.44898,-1.5711 1.38589,0.37386 1.49172,1.86346 1.49172,1.86346 1.23984,-6.54261 6.52277,-8.31373 8.82412,-8.78099 v -0.1606 h -20.45547 v 20.64067 h 17.03494 c -9.59327,-1.65999 -8.17351,-10.95295 -8.17351,-10.95295 z"
         inkscape:connector-curvature="0"
         style="fill:#312667;stroke-width:0.26458332" />
      <path
         id="path3703"
         d="m 260.52393,317.69127 c -1.89124,-0.95568 -4.49845,-0.55907 -4.49845,-0.55907 0.54214,7.62873 6.4696,9.45039 8.31586,9.83747 h 0.6686 v -19.6797 c -6.8752,3.19484 -4.48601,10.4013 -4.48601,10.4013 z"
         inkscape:connector-curvature="0"
         style="fill:#e6001f;stroke-width:0.26458332" />
      <path
         style="fill:#312667;stroke-width:0.26458332"
         inkscape:connector-curvature="0"
         d="m 280.06685,308.08398 c 0.11165,0.0384 0.19076,0.086 0.23574,0.1487 0.0431,0.0585 0.0693,0.1471 0.0693,0.25876 v 6.12881 c 0,0.11456 -0.0262,0.2069 -0.0693,0.26511 -0.045,0.0606 -0.12409,0.10927 -0.23574,0.14658 v 0.1778 h 2.01268 v -0.1778 c -0.11059,-0.0328 -0.18785,-0.0812 -0.23627,-0.14552 -0.0455,-0.0595 -0.0675,-0.15187 -0.0675,-0.26644 v -6.12854 c 0,-0.11166 0.022,-0.20029 0.0648,-0.263 0.0429,-0.0614 0.12489,-0.11086 0.23866,-0.14446 v -0.17515 h -2.01269 v 0.17515 z"
         id="path3707" />
      <path
         style="fill:#312667;stroke-width:0.26458332"
         inkscape:connector-curvature="0"
         d="m 324.01202,307.87787 v 0.16695 c 0.10795,0.0392 0.18336,0.0852 0.22543,0.14261 0.0442,0.0566 0.0638,0.13997 0.0638,0.25109 v 3.65919 c 0,0.42333 -0.0196,0.73501 -0.0569,0.93662 -0.0392,0.20268 -0.11086,0.37016 -0.21749,0.50959 -0.28549,0.36354 -0.57891,0.54557 -1.27979,0.54557 -0.69824,0 -0.99007,-0.18203 -1.27953,-0.54557 -0.10821,-0.13943 -0.17991,-0.30691 -0.22119,-0.50959 -0.0376,-0.20161 -0.0577,-0.51329 -0.0577,-0.93662 v -3.65945 c 0,-0.11086 0.022,-0.19632 0.0643,-0.25215 0.0442,-0.0619 0.11959,-0.1061 0.22172,-0.14129 v -0.16695 h -1.91506 v 0.16695 c 0.11139,0.0392 0.18389,0.0852 0.22808,0.14261 0.0418,0.0566 0.0643,0.13997 0.0643,0.25109 v 4.1103 c 0,0.5133 0.0574,0.95674 0.17145,1.32689 0.118,0.37544 0.32861,0.67257 0.62415,0.89138 0.5252,0.37492 1.0713,0.56171 2.05555,0.56171 1.35043,0 2.0365,-0.34211 2.46988,-1.03849 0.24686,-0.3892 0.36592,-0.96864 0.36592,-1.74122 v -4.11083 c 0,-0.11086 0.0254,-0.19447 0.0632,-0.25109 0.0442,-0.0571 0.11933,-0.10319 0.22595,-0.14261 v -0.16669 z"
         id="path3709" />
      <polygon
         transform="matrix(0.26458333,0,0,0.26458333,244.15998,305.92842)"
         style="fill:#312667"
         points="109.089,23.736 109.311,23.205 "
         id="polygon3711" />
      <path
         style="fill:#312667;stroke-width:0.26458332"
         inkscape:connector-curvature="0"
         d="m 277.65808,311.28597 -1.27344,-3.12605 c 0.0143,0.0717 0.036,0.1479 0.073,0.22886 z"
         id="path3713" />
      <path
         style="fill:#312667;stroke-width:0.26458332"
         inkscape:connector-curvature="0"
         d="m 278.92464,314.33106 -1.26629,-3.04509 -1.20042,-2.89719 c -0.0373,-0.0812 -0.059,-0.15743 -0.073,-0.22886 l -0.26803,-0.65591 -0.38338,-0.94244 c -0.18732,-0.21934 -0.36221,0 -0.36221,0 l -0.39079,0.94244 -1.89865,4.56407 -0.0587,0.14049 -0.89297,2.22673 c -0.0876,0.21643 -0.1606,0.36301 -0.22913,0.43868 -0.0646,0.0751 -0.16166,0.12885 -0.2921,0.15796 v 0.1778 h 2.1426 v -0.1778 c -0.2114,-0.0638 -0.31618,-0.17886 -0.31618,-0.34581 0,-0.0889 0.0294,-0.20929 0.0873,-0.3601 l 0.43815,-1.09432 h 2.93688 l 0.44847,1.09432 c 0.0624,0.15743 0.0976,0.2712 0.0976,0.35348 0,0.19209 -0.10795,0.3101 -0.322,0.35243 v 0.1778 h 2.39792 v -0.1778 c -0.13414,-0.0291 -0.23707,-0.0918 -0.31697,-0.18362 -0.0794,-0.0905 -0.1733,-0.2622 -0.27808,-0.51726 z m -4.53522,-2.14921 1.05198,-2.74585 1.04855,2.74585 z"
         id="path3715" />
      <polygon
         transform="matrix(0.26458333,0,0,0.26458333,244.15998,305.92842)"
         style="fill:#312667"
         points="216.162,24.847 216.176,24.847 216.374,24.365 "
         id="polygon3717" />
      <path
         style="fill:#312667;stroke-width:0.26458332"
         inkscape:connector-curvature="0"
         d="m 305.58909,311.65903 -1.16417,-2.85671 c 0.0148,0.0661 0.0352,0.13653 0.0654,0.20929 z"
         id="path3719" />
      <path
         style="fill:#312667;stroke-width:0.26458332"
         inkscape:connector-curvature="0"
         d="m 306.74902,314.44298 -1.15993,-2.78395 -1.09882,-2.64742 c -0.0302,-0.0728 -0.0505,-0.14314 -0.0654,-0.20929 l -0.24183,-0.59848 -0.35163,-0.85911 c -0.17066,-0.20081 -0.33205,0 -0.33205,0 l -0.35798,0.85911 -1.7325,4.17115 -0.0524,0.12753 -0.8173,2.03518 c -0.0783,0.19605 -0.14949,0.32967 -0.20929,0.4019 -0.0619,0.0691 -0.14896,0.11456 -0.26537,0.14314 v 0.16272 h 1.95606 v -0.16272 c -0.19315,-0.0585 -0.28681,-0.16616 -0.28681,-0.31882 0,-0.0775 0.0228,-0.18759 0.0796,-0.32729 l 0.39555,-0.99775 h 2.68394 l 0.41037,0.99775 c 0.0606,0.14261 0.0899,0.25241 0.0899,0.32332 0,0.17753 -0.0974,0.28231 -0.29157,0.32305 v 0.16272 h 2.18414 V 315.083 c -0.11589,-0.0286 -0.21378,-0.0833 -0.28628,-0.16801 -0.0741,-0.0844 -0.16007,-0.24315 -0.25056,-0.47201 z m -4.14655,-1.96771 0.96441,-2.50243 0.95514,2.50243 z"
         id="path3721" />
      <polygon
         transform="matrix(0.26458333,0,0,0.26458333,244.15998,305.92842)"
         style="fill:#312667"
         points="264.317,24.847 264.324,24.847 264.514,24.365 "
         id="polygon3723" />
      <path
         style="fill:#312667;stroke-width:0.26458332"
         inkscape:connector-curvature="0"
         d="m 318.32771,311.65903 -1.1631,-2.85671 c 0.0108,0.0661 0.0331,0.13653 0.0638,0.20929 z"
         id="path3725" />
      <path
         style="fill:#312667;stroke-width:0.26458332"
         inkscape:connector-curvature="0"
         d="m 319.48368,314.44298 -1.1557,-2.78395 -1.09934,-2.64742 c -0.0307,-0.0728 -0.0529,-0.14314 -0.0638,-0.20929 l -0.24474,-0.59848 -0.34846,-0.85911 c -0.17356,-0.20081 -0.33205,0 -0.33205,0 l -0.35771,0.85911 -1.7362,4.17115 -0.05,0.12753 -0.8202,2.03518 c -0.0778,0.19605 -0.1487,0.32967 -0.20691,0.4019 -0.0619,0.0691 -0.14869,0.11456 -0.26299,0.14314 v 0.16272 h 1.95315 v -0.16272 c -0.19315,-0.0585 -0.28972,-0.16616 -0.28972,-0.31882 0,-0.0775 0.0262,-0.18759 0.0815,-0.32729 l 0.39714,-0.99775 h 2.68446 l 0.41011,0.99775 c 0.0606,0.14261 0.0873,0.25241 0.0873,0.32332 0,0.17753 -0.0974,0.28231 -0.28945,0.32305 v 0.16272 h 2.1881 V 315.083 c -0.12224,-0.0286 -0.21749,-0.0833 -0.29051,-0.16801 -0.0709,-0.0844 -0.15558,-0.24315 -0.254,-0.47201 z m -4.14311,-1.96771 0.96335,-2.50243 0.95726,2.50243 z"
         id="path3727" />
      <path
         style="fill:#312667;stroke-width:0.26458332"
         inkscape:connector-curvature="0"
         d="m 312.69606,313.1952 c -0.13811,0.10319 -0.21246,0.20161 -0.40349,0.33258 -0.52758,0.35534 -1.09035,0.53473 -1.68646,0.53473 -0.70167,0 -1.25915,-0.21167 -1.67507,-0.62892 -0.4961,-0.49186 -0.73925,-1.1303 -0.73925,-1.92617 0,-0.79163 0.24315,-1.4306 0.73925,-1.9214 0.41592,-0.41672 0.9734,-0.63024 1.67507,-0.63024 0.59611,0 1.15888,0.1778 1.68646,0.53711 0.0302,0.0156 0.0484,0.0317 0.0762,0.0497 l 0.004,0.0191 h 0.0193 0.21193 0.0587 v -1.70604 h -0.27253 c -0.04,0.32306 -0.52493,0.10981 -0.52493,0.10981 l 0.002,0.002 c -0.0619,-0.0257 -0.12171,-0.0505 -0.18018,-0.0691 -0.34713,-0.11933 -0.76544,-0.18177 -1.2483,-0.18177 -1.32477,0 -2.31299,0.49239 -2.9681,1.47426 -0.43365,0.65511 -0.65299,1.42769 -0.65299,2.3159 0,0.6522 0.11906,1.24592 0.36486,1.78779 0.20849,0.47202 0.49715,0.8673 0.86069,1.18401 0.626,0.54795 1.41764,0.82391 2.3876,0.82391 0.48948,0 0.90911,-0.0614 1.26312,-0.18653 0.25135,-0.0894 0.55139,-0.24024 0.88821,-0.44529 0,-2.7e-4 0.24659,-1.57586 0.11324,-1.47585 z"
         id="path3729" />
      <path
         style="fill:#312667;stroke-width:0.26458332"
         inkscape:connector-curvature="0"
         d="m 299.60844,314.88536 c -0.0421,-0.0585 -0.0643,-0.15081 -0.0643,-0.26511 l -1.03981,-5.62161 -0.15769,-0.99377 -0.0794,-0.50086 -0.15504,-0.96149 c 0,0 -0.0728,-0.15029 -0.23152,-0.0257 l -0.45164,0.98716 -0.18865,0.41328 -0.47545,1.03796 -1.41658,2.50376 -1.64703,-2.96757 -0.18812,-0.4281 -0.24898,-0.55906 -0.43973,-0.98716 c -0.15955,-0.12462 -0.24527,0.0167 -0.24527,0.0167 l -0.16087,0.97049 -0.0839,0.51038 -0.0908,0.55324 c 0,0 0.004,0.004 0.0108,0.0124 l -1.11839,6.04017 c -0.031,0.14367 -0.0492,0.21167 -0.095,0.27411 -0.0445,0.0566 -0.0982,0.10028 -0.21141,0.13785 v 0.1778 h 2.10371 v -0.1778 c -0.11774,-0.0376 -0.19474,-0.0876 -0.23866,-0.14658 -0.041,-0.0603 -0.0643,-0.15081 -0.0643,-0.26511 l 0.63526,-4.17486 2.08677,3.97271 2.05158,-3.93991 0.53023,4.14206 c 0,0.11456 -0.0225,0.2069 -0.064,0.26643 -0.0492,0.0627 -0.12753,0.11271 -0.23866,0.14552 v 0.1778 h 2.21536 v -0.1778 c -0.11536,-0.0381 -0.19447,-0.0865 -0.23866,-0.14737 z"
         id="path3731" />
      <path
         id="path3735"
         d="m 288.85842,314.91632 c -0.0423,-0.0471 -0.0971,-0.11801 -0.16457,-0.21114 -0.0153,-0.0214 -0.0333,-0.0463 -0.0495,-0.0728 -0.007,-0.0106 -0.0135,-0.0225 -0.0238,-0.0352 l -1.20121,-2.19181 -0.27966,-0.50535 c 0.1823,-0.0675 0.3556,-0.15637 0.51038,-0.26829 0.51488,-0.37333 0.84984,-0.97711 0.84984,-1.6592 0,-1.06231 -0.80936,-1.93675 -1.84282,-2.03703 -0.0664,-0.008 -0.13626,-0.0135 -0.2077,-0.0135 h -1.06309 c -0.0691,0 -0.13865,0.006 -0.2077,0.0135 h -1.86637 v 0.1651 c 0.10504,0.0381 0.18203,0.0852 0.22542,0.14129 0.0413,0.0598 0.0638,0.13837 0.0638,0.25214 v 0.4752 0.38629 1.55654 0.0638 3.72215 c 0,0.10795 -0.0225,0.18839 -0.0638,0.24633 -0.0431,0.0585 -0.12012,0.10425 -0.22542,0.14129 v 0.16801 h 1.91426 v -0.16801 c -0.11007,-0.0341 -0.18204,-0.077 -0.2249,-0.13653 -0.0429,-0.0619 -0.064,-0.14314 -0.064,-0.25109 v -2.06084 h -0.003 v -0.66886 -0.7075 -0.32967 h 0.003 v -1.79387 h 1.42584 c 0.0357,0.004 0.0762,0.0167 0.12647,0.0347 0.32121,0.19791 0.53764,0.55245 0.53764,0.96096 0,0.62283 -0.50165,1.12792 -1.1266,1.12792 l -0.68977,0.004 0.43101,0.75776 1.3761,2.4011 c 0.44582,0.80539 1.07632,0.81729 1.07632,0.81729 l 1.12078,0.0124 h 0.26828 c -0.13626,-0.0106 -0.52784,-0.23548 -0.62521,-0.33734 z"
         inkscape:connector-curvature="0"
         style="fill:#312667;stroke-width:0.26458332" />
      <path
         id="path3739"
         d="m 279.11144,324.65722 h 3.39143 l 0.20055,-0.45482 h -4.16983 c 0,0 0.25479,-0.31618 0.34845,-0.43524 l -1.77535,-0.38338 c 0,0 -0.18706,0.58605 -0.21855,0.81862 h -2.81172 v 0.45482 h 2.56249 c -0.22754,0.43206 -0.35878,0.694 -0.73052,1.0242 -0.36486,0.33179 -0.7829,0.59266 -1.15649,0.81439 -0.37624,0.21748 -0.97155,0.34739 -1.05992,0.40666 l -0.006,0.1479 c 0.45614,-0.0227 1.37689,-0.006 2.4847,-0.46143 0.47493,-0.19791 1.36552,-0.53393 2.06005,-1.69598 0.12409,0.24712 0.38603,0.64902 0.508,0.83397 0.11906,0.17833 0.80407,0.84481 1.5113,1.06256 0.20161,0.064 0.97631,0.39688 1.36604,0.22172 0.20505,-0.091 0.0931,-0.51514 0.36539,-0.70749 0.19791,-0.13335 0.37968,-0.25691 0.6432,-0.30745 l -0.002,-0.13996 c -1.22528,-0.1225 -1.69201,-0.22675 -2.35294,-0.4707 -0.49556,-0.18388 -1.07579,-0.54715 -1.15887,-0.72839 z"
         inkscape:connector-curvature="0"
         style="fill:#312667;stroke-width:0.26458332" />
      <path
         style="fill:#312667;stroke-width:0.26458332"
         inkscape:connector-curvature="0"
         d="m 272.32779,318.40114 c 0,0 -0.0997,-0.19235 0.0905,-0.19235 0.18865,0 1.19433,0.22992 1.6391,0.58447 0.44344,0.3556 0.46566,0.80142 0.2286,1.24698 -0.24183,0.44344 -0.34317,0.44344 -0.34317,0.44344 0,0 -0.12885,0.20214 -0.36856,-0.0781 -0.2413,-0.27755 -0.3937,-1.10437 -1.24645,-2.00449 z"
         id="path3743" />
      <path
         style="fill:#312667;stroke-width:0.26458332"
         inkscape:connector-curvature="0"
         d="m 271.42609,320.70963 c 0,0 -0.077,-0.21537 0.15266,-0.17568 0.23125,0.0362 1.05463,0.16536 1.54861,0.52361 0.49741,0.35295 0.57414,0.82206 0.25717,1.31974 0,0 -0.47043,0.85011 -0.69135,0.29872 -2.7e-4,-2.7e-4 -0.39079,-1.05172 -1.26709,-1.96639 z"
         id="path3745" />
      <path
         style="fill:#312667;stroke-width:0.26458332"
         inkscape:connector-curvature="0"
         d="m 271.58325,323.95237 c 0,0 -0.23707,-0.32147 0.18521,-0.25215 0,0 0.45931,0.0828 0.69612,0.186 0,0 0.40534,0.22066 0.66198,-0.30242 l 1.64095,-3.08504 0.13652,0.30745 -1.03584,3.43799 c 0,0 -0.20055,0.67442 -0.0156,1.21708 0,0 0.21299,0.84244 -0.44,1.44119 0,0 -0.30507,0.41963 -0.50853,-0.18918 2.6e-4,0 -0.43921,-1.77615 -1.3208,-2.76092 z"
         id="path3747" />
      <path
         style="fill:#312667;stroke-width:0.26458332"
         inkscape:connector-curvature="0"
         d="m 279.97795,323.13004 c -0.0222,0.014 -0.005,0.006 0,0 z"
         id="path3749" />
      <path
         style="fill:#312667;stroke-width:0.26458332"
         inkscape:connector-curvature="0"
         d="m 282.24384,319.18828 -0.31512,-0.001 -3.6486,0.005 v -0.005 l 0.0513,-0.32306 c 0.0889,-0.10027 0.46566,-0.4191 0.46566,-0.4191 l 0.0408,-0.186 -1.9603,0.002 c 0.0257,0.72099 0.0257,0.72099 0.009,0.9316 h -0.75565 l -1.47479,-0.41752 v 5.21468 l 1.47479,-0.25585 V 323.407 c 0.34475,-0.0661 0.98743,-0.28522 1.5203,-0.94615 v 0.88635 l 1.19009,-0.095 v -0.99325 c 0.43233,0.43604 0.78846,0.87789 0.78846,0.87789 0.35613,0.72443 0.64797,0.0614 0.64797,0.0614 0.0331,-0.0579 0.0585,-0.11826 0.0733,-0.17012 v 0.96176 l 1.49965,-0.25585 v -3.99548 c 0.0945,-0.0828 0.32862,-0.27596 0.36566,-0.33179 0.0341,-0.0439 0.0272,-0.21801 0.0272,-0.21801 z m -6.11267,3.83381 v -1.18692 h 0.71252 c -0.023,0.1823 -0.13784,0.74665 -0.71252,1.18692 z m 0,-1.53167 v -0.91414 c 0.37809,0.25321 0.59478,0.64506 0.76623,0.91414 z m 1.5203,-0.3818 c -0.37783,-0.7313 -1.30784,-0.61039 -1.5203,-0.5715 v -0.14128 l 1.5203,-0.0646 z m -1.5203,-0.89508 v -0.53076 h 2.31431 c -0.62389,0.18124 -1.61607,0.44847 -2.31431,0.53076 z m 2.71039,1.07685 v -1.01123 l 0.69718,-0.0278 c -0.27596,0.58685 -0.53552,0.89324 -0.69718,1.03902 z m 1.50998,1.39383 c -0.1741,-0.53181 -1.16575,-0.74719 -1.42002,-0.79428 v -0.0439 h 1.42002 z m 0,-1.17634 h -1.07183 c 0.31935,-0.15452 0.82894,-0.47863 1.07183,-0.64029 z m 0,-0.81783 -0.74374,-0.44185 0.46804,-0.018 c 0,0 0.25506,0.0378 0.0376,-0.22993 -0.0807,-0.0997 -0.16271,-0.21351 -0.236,-0.31723 h 0.47413 z"
         id="path3751" />
      <path
         style="fill:#312667;stroke-width:0.26458332"
         inkscape:connector-curvature="0"
         d="m 288.21469,318.64826 -1.59464,-0.3339 v 8.6704 h 1.59464 v -4.7625 h 1.34911 v 0.53578 l 1.40997,-0.30904 v -3.80285 z m 1.34885,2.83184 v 0.23045 h -1.34911 v -0.23045 -0.79005 h 1.14776 0.20135 z m 0,-2.21324 v 0.79904 0.11218 h -1.34911 v -0.11218 -0.79904 -0.11483 h 1.34911 z"
         id="path3755" />
      <path
         style="fill:#312667;stroke-width:0.26458332"
         inkscape:connector-curvature="0"
         d="m 296.59801,318.64826 v -0.002 l -3.20489,0.002 -1.6129,-0.3339 v 4.38229 l 1.41128,-0.30638 v -0.16801 h 1.47373 v 3.21177 h -0.007 c 0,0 0.0519,0.28258 -0.13732,0.28258 -0.19209,0 -2.20557,-0.13944 -2.20557,-0.13944 l -0.0275,0.12674 c 0,0 0.99113,0.58393 1.29513,0.91307 0,0 0.12647,0.52309 0.72232,0.52309 0,0 0.55906,0.0119 1.08029,-0.21352 0.46011,-0.20056 0.89165,-0.58923 0.89165,-1.34197 v -6.25025 c 0.11826,-0.28522 0.52493,-0.55404 0.52493,-0.55404 l 0.014,-0.13229 h -0.21802 z m -1.93251,2.83184 v 0.23045 h -1.47373 v -0.23045 -0.79005 h 1.47373 z m 0,-2.21324 v 0.79904 0.11218 h -1.47373 v -0.11218 -0.79904 -0.11483 h 1.47373 z"
         id="path3757" />
      <path
         id="path3761"
         d="m 311.02072,325.65337 c 0,0 -0.42069,-0.32517 -0.45165,-1.21602 0,0 -0.0847,-0.11007 -0.21113,-0.0109 0,0 -0.11589,0.9017 -0.27676,1.15755 0,0 -0.12144,0.1479 -0.24553,0.0315 -0.0489,-0.0548 -0.0746,-0.136 -0.0746,-0.24289 v -3.94758 c 0.0746,-0.31671 0.56806,-0.61093 0.56806,-0.61093 l 0.007,-0.17886 h -0.28019 v 0 h -1.71556 l -0.006,0.004 -0.77496,-0.006 -1.34356,-0.29448 v 2.62361 c 0,0.30321 -0.004,0.62733 -0.0119,0.96335 -10e-4,0.0249 -0.005,0.0521 -0.005,0.0749 -0.0286,0.34528 -0.23072,2.20345 -1.18877,2.91862 0,0 -0.15134,0.15875 0.008,0.18204 0.15902,0.0278 2.59133,-0.37307 2.52466,-3.45758 0.0111,-0.17621 0.0167,-0.3519 0.0167,-0.52308 v -1.9767 h 0.80248 l -0.002,4.55877 c 0,0 -0.10266,1.08585 0.96387,1.1549 h 1.04802 c 0,0 0.54583,0.007 0.79428,-0.74268 2.6e-4,2.6e-4 0.0966,-0.31433 -0.14552,-0.46223 z"
         inkscape:connector-curvature="0"
         style="fill:#312667;stroke-width:0.26458332" />
      <path
         id="path3763"
         d="m 311.03871,320.11538 0.23071,-0.55563 h -2.59 c 0,-0.0688 0,-0.18229 0.0145,-0.37253 0.0318,-0.45746 0.55483,-0.62521 0.55483,-0.62521 v -0.20452 h -1.98702 v 1.20253 h -3.77745 v -0.27808 c 0,-0.51779 0.53472,-0.72707 0.53472,-0.72707 v -0.18918 h -1.91982 v 1.22925 l -1.04378,-0.21034 v 2.86914 h -0.88582 v 0.49001 h 0.88582 v 1.11919 c 0,0 -0.15293,1.66767 -0.58076,2.44078 0,0 -0.28945,0.5453 -0.39608,0.65008 0,0 -0.12727,0.2712 0.18574,0.14843 0,0 1.56077,-0.48048 1.9759,-2.35638 0.0415,-0.16007 0.0654,-0.30242 0.0833,-0.41487 0.0257,-0.17409 0.032,-0.41301 0.0495,-0.66463 l 0.0137,-0.35295 c 0.28999,0.33787 0.4879,1.32397 0.4879,1.32397 0.0381,0.34105 0.31564,0.18865 0.31564,0.18865 0.33893,-0.22225 0.4961,-0.42466 0.57097,-0.5678 v 1.20624 l -0.0302,0.24606 c 0,0 -0.0561,0.17674 -0.26643,0.17674 -0.20876,0 -1.20254,0 -1.20254,0 0,0 -0.0421,0.0516 0.0127,0.0939 0,0 0.61172,0.40719 0.71068,0.8165 0,0 0.13414,0.37148 0.44873,0.32809 0,0 1.53485,-0.0656 1.56845,-1.5539 0,-0.006 0.008,-2.82787 0.008,-2.82787 h 0.74322 l 0.11562,-0.49 h -0.85857 l 0.006,-2.13837 h 6.02139 z m -7.27763,0.0196 v 0.85513 c -0.23601,-0.32094 -0.98795,-0.69876 -1.31604,-0.85513 z m -1.37478,0.56171 c 0.3437,0.43974 0.449,1.17263 0.449,1.17263 0.0505,0.10134 0.0624,0.36751 0.27861,0.21511 0.14631,-0.10293 0.48895,-0.32465 0.6469,-0.585 v 0.7546 h -1.37451 z m 0,2.17461 v -0.12753 h 1.37451 v 1.05886 c -0.23574,-0.48233 -1.07341,-0.82338 -1.37451,-0.93133 z"
         inkscape:connector-curvature="0"
         style="fill:#312667;stroke-width:0.26458332" />
      <path
         style="fill:#312667;stroke-width:0.26458332"
         inkscape:connector-curvature="0"
         d="m 319.04368,324.42041 h -2.83369 v -0.63553 h 7.72663 v 0.63553 h -2.99032 v 1.92035 h 4.57226 l -0.22939,0.56436 h -10.5844 v -0.56436 h 4.33864 v -1.92035 z"
         id="path3769" />
      <path
         style="fill:#312667;stroke-width:0.26458332"
         inkscape:connector-curvature="0"
         d="m 325.66382,319.51689 h -4.94956 v -0.46302 c 0.0534,-0.33338 0.54345,-0.49186 0.54345,-0.49186 0.0765,-0.10213 0.01,-0.20452 0.01,-0.20452 h -1.98147 v 1.15967 h -3.01546 l -1.32238,-0.3818 v 2.61885 l 1.50045,-0.27755 v -1.43616 h 7.22154 v 1.37266 l 1.44277,-0.18653 v -0.97975 c 0,0 0.14896,-0.42228 0.51858,-0.50086 -2.6e-4,-2.6e-4 0.0939,-0.0799 0.0326,-0.22913 z"
         id="path3771" />
      <path
         style="fill:#312667;stroke-width:0.26458332"
         inkscape:connector-curvature="0"
         d="m 317.84776,320.29768 c 0,0 -0.56012,2.35294 -2.77839,2.94401 0,0 -0.0505,0.204 0.0661,0.22225 0,0 3.09933,0.18495 4.01425,-2.1336 0,0 0.136,-0.42518 0.47229,-0.33998 0,0 0.0868,-0.16696 0.037,-0.20162 z"
         id="path3773" />
      <path
         style="fill:#312667;stroke-width:0.26458332"
         inkscape:connector-curvature="0"
         d="m 322.53221,320.50855 -2.05952,-0.01 v 1.90024 c 0,0 0.0164,1.05516 0.94271,1.06918 h 2.45004 c 0,0 0.79878,-0.014 1.09406,-1.08215 0,0 -0.75195,-0.13599 -0.85223,-0.92657 l -0.28945,0.80248 c 0,0 -0.0275,0.0878 -0.15637,0.0878 h -1.58512 c 0,0 -0.10266,-0.0238 -0.10266,-0.11324 v -1.10543 c 0,0 0.18918,-0.39581 0.55854,-0.4564 0,2.6e-4 0.087,-0.14076 0,-0.16616 z"
         id="path3775" />
    </g>
  </g>
</svg>
