<?xml version="1.0" encoding="utf-8"?>
<!-- Generator: Adobe Illustrator 26.0.2, SVG Export Plug-In . SVG Version: 6.00 Build 0)  -->
<svg version="1.1" id="Layer_1" xmlns="http://www.w3.org/2000/svg" xmlns:xlink="http://www.w3.org/1999/xlink" x="0px" y="0px"
	 viewBox="0 0 151.7 25" style="enable-background:new 0 0 151.7 25;" xml:space="preserve">
<style type="text/css">
	.st0{fill:#040C3E;}
</style>
<path class="st0" d="M42.6,13.5l1.6-4.4C44.2,9,44.3,9,44.3,9l0.1,0.1l1.6,4.4H42.6z M44.5,6.1h-3.3c0,0.9,0.4,1.6,1,2.1l-4.1,10
	h2.5l1.1-2.9h5l1.1,2.9h2.5l-4.4-11C45.6,6.6,45.2,6.2,44.5,6.1L44.5,6.1z"/>
<path class="st0" d="M59.9,8.2v-2h-8.4v9.5c0,0.9,0.3,1.5,0.8,1.9s1.2,0.7,2,0.7h5.6v-2.1h-5.3c-0.5,0-0.8-0.2-0.8-0.5v-2.4h5.8
	v-2.1h-5.8v-3C53.8,8.2,59.9,8.2,59.9,8.2z"/>
<path class="st0" d="M67.4,11.3c-0.4,0.3-0.9,0.4-1.7,0.4h-2V8.2h2c0.9,0,1.5,0.1,1.8,0.5C67.8,9,68,9.4,68,10S67.8,11.1,67.4,11.3
	L67.4,11.3z M70.3,10c0-1.3-0.4-2.2-1.2-2.9c-0.8-0.7-2-1-3.4-1h-4.4v12.1h2.4v-4.5h2.1l2.9,4.5h2.9l-3.3-5
	C69.6,12.8,70.3,11.7,70.3,10L70.3,10L70.3,10z"/>
<path class="st0" d="M80.3,15.3c-0.6,0.7-1.5,1.1-2.6,1.1s-2-0.4-2.6-1.1c-0.6-0.7-0.9-1.7-0.9-3.1s0.3-2.4,0.9-3
	c0.6-0.7,1.5-1,2.6-1s2,0.3,2.6,1s0.9,1.7,0.9,3S80.9,14.5,80.3,15.3L80.3,15.3z M77.7,6.1c-1.9,0-3.3,0.5-4.3,1.6s-1.5,2.5-1.5,4.4
	s0.5,3.4,1.5,4.5s2.5,1.6,4.3,1.6c1.9,0,3.3-0.5,4.3-1.6s1.5-2.6,1.5-4.5S83,8.8,82,7.7C81,6.7,79.6,6.1,77.7,6.1z"/>
<path class="st0" d="M100.4,15.7c0,0.9,0.3,1.5,0.8,1.9s1.2,0.7,2,0.7h5.6v-2.1h-5.3c-0.5,0-0.8-0.2-0.8-0.5v-2.4h5.8v-2.1h-5.8v-3
	h6.1v-2h-8.4C100.4,6.2,100.4,15.7,100.4,15.7z"/>
<path class="st0" d="M121.1,6.1h-2.8l-2.6,3.6c-0.1,0.2-0.3,0.2-0.5,0l-2.6-3.6h-2.8l4.2,5.8l-4.7,6.4h2.8l3.1-4.2
	c0.1-0.1,0.3-0.1,0.4,0l3.1,4.2h2.8l-4.7-6.4L121.1,6.1L121.1,6.1L121.1,6.1z"/>
<path class="st0" d="M122.6,6.1v12.1h2.4V8.5C125,7.2,123.9,6.1,122.6,6.1z"/>
<path class="st0" d="M128.2,7.8c-1.2,1.1-1.7,2.5-1.7,4.4s0.6,3.3,1.7,4.5c1.2,1.1,2.7,1.7,4.7,1.7c1.2,0,2.4-0.1,3.7-0.4v-2.1
	c-1.5,0.3-2.7,0.5-3.7,0.5c-1.2,0-2.2-0.4-3-1.1c-0.7-0.7-1.1-1.7-1.1-3s0.4-2.3,1.1-3c0.7-0.7,1.8-1,3.1-1c1,0,2.2,0.2,3.6,0.5V6.6
	c-1.3-0.3-2.5-0.4-3.6-0.4C131,6.2,129.4,6.7,128.2,7.8z"/>
<path class="st0" d="M146.2,15.3c-0.6,0.7-1.5,1.1-2.6,1.1s-2-0.4-2.6-1.1c-0.6-0.7-0.9-1.7-0.9-3.1s0.3-2.4,0.9-3
	c0.6-0.7,1.5-1,2.6-1s2,0.3,2.6,1s0.9,1.7,0.9,3S146.8,14.6,146.2,15.3z M147.9,7.7c-1-1.1-2.5-1.6-4.3-1.6c-1.9,0-3.3,0.5-4.3,1.6
	s-1.5,2.5-1.5,4.4s0.5,3.4,1.5,4.5s2.5,1.6,4.3,1.6c1.9,0,3.3-0.5,4.3-1.6s1.5-2.6,1.5-4.5S148.9,8.8,147.9,7.7z"/>
<path class="st0" d="M92.2,16c0.6,0,1-0.4,1.4-1.1l2.5-4.8v8.1h2.4V6.1h-2.6L92,13c0,0.1-0.1,0.1-0.2,0.1s-0.1,0-0.2-0.1l-3.5-6
	c-0.3-0.5-0.8-0.8-1.4-0.8h-2.6c0,0.9,0.4,1.6,1,2.1v10h2.4v-8.1L90,15c0.4,0.7,0.8,1.1,1.4,1.1L92.2,16L92.2,16z"/>
<path class="st0" d="M26.9,5c-0.3,0-0.6,0-0.8,0.1c-2.4-0.1-3.6,0.4-4.6,0.4c-0.6,0-2.8-1-4.6-1.7c0,0,2.2-0.6,4.3-0.6
	s4.2,1.2,4.8,1.9C24.7,1.9,20.3,0,17.7,0C12.3,0,9.3,2.7,5.4,2.8c-0.5,0-1.7,0-1.7,0C3.7,5.2,4.6,6.6,5,7c-1.1,0.5-5,5.5-5,7.8
	l0.2,0.4l3.2,0.4l-0.6,3.3L3,19.3l3,0.4l-1.1,3.9L5.1,24c0,0,1.1,0.4,2.6,0.4c1.4,0,7.3,0.2,8.2-7.5v-0.1c1.1,4.1,3.8,4.9,9.5,4.9
	c1.6,0,0.9-2.1,1.1-2.8c0.2-0.1,0.3-0.4,0.2-0.7c0.1-0.1,0.2-0.3,0.2-0.5c0-0.4-0.2-1-0.2-1.9c0.5-0.1,1.3-0.3,1.3-1
	c0-0.4-0.9-2.5-1.4-4c-0.1-0.2-0.3-0.4-0.5-0.4c-0.4,0-0.5,0.5-1.5,0.5c-1.9,0-1.2-1.8-6.8-1.4c-0.7,0-0.9,0.2-1,0.9
	c-0.2,1.6-0.2,5.9,0.8,8.5c-1.2-1.3-1.6-3.7-1.7-5.6c-0.4,3.5-0.6,8.3-5,9.9c-1.9,0.7-4,0.5-6,0.3c1.2,0,2.4,0,3.6-0.2
	c0.8-0.1,1.5-0.3,2.3-0.6c5.2-2.2,3.6-9.1,4.8-12.5c-2.3,2.3-2.7,8.5-8.3,8.8c-1.5,0.1-3,0-4.4-0.3c1.5,0,2.9,0,4.4-0.2
	c5-0.7,5.1-6.1,7.5-8.9c-1,0.2-1.9,0.5-2.8,1c-1.3,0.7-2.2,1.7-3.3,2.7c-1.4,1.3-2.9,1.7-4.8,1.6c-1.3,0.1-2.6,0-3.9-0.1
	c0.1,0,2.2-0.1,2.2-0.1c1.4-0.1,2.9,0,4.2-0.6c1-0.4,1.7-1.2,2.4-2c1.3-1.5,2.8-2.5,4.7-3.1c1.4-0.4,6.1-0.9,9-0.8
	c1.7,0.1,5.2,0.5,7.5,1.4h-0.1c-1-0.2-2.1-0.1-3,0.3c0.9,0,2,0.1,2.8,0.3c0.7,0.2,2.1,0.5,2.3,1.3c0-0.1,0-0.2,0-0.7
	C32,7.8,29.5,5,26.9,5z"/>
</svg>
