<?xml version="1.0" encoding="utf-8"?>
<!-- Generator: Adobe Illustrator 16.0.0, SVG Export Plug-In . SVG Version: 6.00 Build 0)  -->
<!DOCTYPE svg PUBLIC "-//W3C//DTD SVG 1.1//EN" "http://www.w3.org/Graphics/SVG/1.1/DTD/svg11.dtd">
<svg version="1.1" id="Layer_1" xmlns="http://www.w3.org/2000/svg" xmlns:xlink="http://www.w3.org/1999/xlink" x="0px" y="0px"
	 width="288.057px" height="65.777px" viewBox="0 0 288.057 65.777" enable-background="new 0 0 288.057 65.777"
	 xml:space="preserve">
<g>
	<defs>
		<rect id="SVGID_1_" width="288.057" height="65.777"/>
	</defs>
	<clipPath id="SVGID_2_">
		<use xlink:href="#SVGID_1_"  overflow="visible"/>
	</clipPath>
	<path clip-path="url(#SVGID_2_)" fill="none" stroke="#740054" stroke-width="1.474" stroke-miterlimit="3.864" d="M44.121,47.407
		c-2.722,8.784-10.632,15.125-19.938,15.125c-11.562,0-20.938-9.777-20.938-21.78c0-5.058,1.629-9.68,4.42-13.382"/>
	<path clip-path="url(#SVGID_2_)" fill="none" stroke="#740054" stroke-width="1.474" stroke-miterlimit="3.864" d="M42.05,46.826
		c-1.466,5.735-6.491,9.971-12.47,9.971c-8.665,0.253-12.912-6.026-12.912-13.431c0-0.484,0.023-0.944,0.069-1.429"/>
	<path clip-path="url(#SVGID_2_)" fill="#F58220" d="M14.039,11.833c13.068-2.008,13.331,1.113,13.331,1.113
		s-0.838,5.881-0.838,5.953v-0.386c0,0-0.349,0.532-0.861,0.265C23.042,17.495,12.863,12.014,14.039,11.833"/>
	<path clip-path="url(#SVGID_2_)" fill="none" stroke="#F58220" stroke-width="0.095" stroke-miterlimit="3.864" d="M14.039,11.833
		c13.068-2.008,13.331,1.113,13.331,1.113s-0.838,5.881-0.838,5.953v-0.386c0,0-0.349,0.532-0.861,0.265
		C23.042,17.495,12.863,12.014,14.039,11.833z"/>
	<path clip-path="url(#SVGID_2_)" fill="#004A2A" d="M25.858,18.821c0,0-0.186-0.067-0.163-0.309
		c0.791-6.582-3.607-3.291-3.862-3.509c-0.488,0-0.884-0.411-0.884-0.919v-0.025c0,0-1.721-1.485-1.481-2.834
		c0.006-0.034-0.769-0.451-2.306,0.2c-0.068,0.028-0.308,0.602,0.6,1.763c0.046,0.025-0.535,0.291-0.489,0.605
		c0,0.073,1.872,3.263,5.99,5.078C23.31,18.895,25.858,18.821,25.858,18.821"/>
	<path clip-path="url(#SVGID_2_)" fill="none" stroke="#004A2A" stroke-width="0.095" stroke-miterlimit="3.864" d="M25.858,18.821
		c0,0-0.186-0.067-0.163-0.309c0.791-6.582-3.607-3.291-3.862-3.509c-0.488,0-0.884-0.411-0.884-0.919v-0.025
		c0,0-1.721-1.485-1.481-2.834c0.006-0.034-0.769-0.451-2.306,0.2c-0.068,0.028-0.308,0.602,0.6,1.763
		c0.046,0.025-0.535,0.291-0.489,0.605c0,0.073,1.872,3.263,5.99,5.078C23.31,18.895,25.858,18.821,25.858,18.821z"/>
	<path clip-path="url(#SVGID_2_)" fill="#740054" d="M23.67,19.48c0.093-0.388,1.326-0.509,2.094-0.509
		c11.539,0,20.938,9.753,20.938,21.78c0,2.444-0.326,5.3-0.907,7.938c-0.047-0.266-7.7-2.759-7.514-3.146
		c0.185-0.387,6.513-5.614,1.488-17.038C39.63,28.168,30.371,30.321,23.67,19.48"/>
	<path clip-path="url(#SVGID_2_)" fill="none" stroke="#740054" stroke-width="0.095" stroke-miterlimit="3.864" d="M23.67,19.48
		c0.093-0.388,1.326-0.509,2.094-0.509c11.539,0,20.938,9.753,20.938,21.78c0,2.444-0.326,5.3-0.907,7.938
		c-0.047-0.266-7.7-2.759-7.514-3.146c0.185-0.387,6.513-5.614,1.488-17.038C39.63,28.168,30.371,30.321,23.67,19.48z"/>
	<path clip-path="url(#SVGID_2_)" fill="#D83A4E" d="M39.956,61.176c4.49-4.961,6.747-13.552,6.747-20.424
		c0-11.641-9.143-21.248-20.17-21.853c3.955-4.598,10.189-7.647,16.47-7.647c5.376,0,9.935,2.856,13.704,6.316
		c-6.188-2.129-11.097-2.494-15.239-2.154c11.866,0,21.59,10.261,21.59,22.893c0,12.633-9.655,22.894-21.52,22.894
		C41.166,61.201,40.328,61.201,39.956,61.176"/>
	<path clip-path="url(#SVGID_2_)" fill="none" stroke="#D83A4E" stroke-width="0.095" stroke-miterlimit="3.864" d="M39.956,61.176
		c4.49-4.961,6.747-13.552,6.747-20.424c0-11.641-9.143-21.248-20.17-21.853c3.955-4.598,10.189-7.647,16.47-7.647
		c5.376,0,9.935,2.856,13.704,6.316c-6.188-2.129-11.097-2.494-15.239-2.154c11.866,0,21.59,10.261,21.59,22.893
		c0,12.633-9.655,22.894-21.52,22.894C41.166,61.201,40.328,61.201,39.956,61.176z"/>
	<path clip-path="url(#SVGID_2_)" fill="#740054" d="M41.701,0.58C26.648,2.347,26.369,18.753,26.533,18.609
		c7.095-6.825,15.237-7.719,15.237-7.428C41.771,11.446,43.058,6.678,41.701,0.58"/>
	<path clip-path="url(#SVGID_2_)" fill="none" stroke="#6D1F60" stroke-width="0.095" stroke-miterlimit="3.864" d="M41.701,0.58
		C26.648,2.347,26.369,18.753,26.533,18.609c7.095-6.825,15.237-7.719,15.237-7.428C41.771,11.446,43.058,6.678,41.701,0.58z"/>
	<path clip-path="url(#SVGID_2_)" fill="#FFFFFF" d="M20.948,14.192c0-0.446,0.348-0.809,0.778-0.809
		c0.428,0,0.776,0.363,0.776,0.809c0,0.446-0.348,0.808-0.776,0.808C21.296,15,20.948,14.638,20.948,14.192"/>
	
		<ellipse clip-path="url(#SVGID_2_)" fill="none" stroke="#FFFFFF" stroke-width="0.283" stroke-miterlimit="3.864" cx="21.725" cy="14.192" rx="0.777" ry="0.809"/>
	<path clip-path="url(#SVGID_2_)" fill="#B99765" d="M58.331,18.2c-3.676-3.669-9.528-7.552-15.057-7.552
		c-6.576,0-12.921,2.992-16.973,8.006l0.584,0.512c3.909-4.837,10.036-7.725,16.389-7.725c4.742,0,9.767,3.015,13.329,6.199
		L58.331,18.2z"/>
	<path clip-path="url(#SVGID_2_)" fill="#B99765" d="M46.321,40.751c0,6.336-2.081,15.027-6.73,20.17l-0.254,0.243l0.999,0.075
		c4.655-5.325,6.748-14.084,6.748-20.488c0-5.916-2.219-11.482-6.248-15.674c-4.031-4.193-9.383-6.502-15.072-6.502
		c-0.707,0-2.055,0.047-2.838,0.153l0.018,0.14l0.031,0.002l0.664,0.582c0.676-0.053,1.533-0.084,2.125-0.084
		c5.485,0,10.646,2.226,14.533,6.27C44.182,29.68,46.321,35.046,46.321,40.751"/>
	<path clip-path="url(#SVGID_2_)" fill="#740054" d="M78.593,50.284C83.958,41.267,88.895,31.88,93.9,22.573h9.813
		c2.298,9.099,5.264,18.529,7.982,27.711h-8.686l-1.983-7.978h-9.581l-3.896,7.978H78.593z M100.065,36.491l-1.989-7.936h-0.078
		l-4.009,7.936H100.065z"/>
	<path clip-path="url(#SVGID_2_)" fill="none" stroke="#740054" stroke-width="0.175" stroke-miterlimit="3.864" d="M78.593,50.284
		C83.958,41.267,88.895,31.88,93.9,22.573h9.813c2.298,9.099,5.264,18.529,7.982,27.711h-8.686l-1.983-7.978h-9.581l-3.896,7.978
		H78.593z M100.065,36.491l-1.989-7.936h-0.078l-4.009,7.936H100.065z"/>
	<path clip-path="url(#SVGID_2_)" fill="#740054" d="M114.446,29.552h7.4l-2.129,20.732h-7.4L114.446,29.552z M115.213,22.075h7.4
		l-0.503,4.902h-7.399L115.213,22.075z"/>
	<path clip-path="url(#SVGID_2_)" fill="none" stroke="#740054" stroke-width="0.175" stroke-miterlimit="3.864" d="M114.446,29.552
		h7.4l-2.129,20.732h-7.4L114.446,29.552z M115.213,22.075h7.4l-0.503,4.902h-7.399L115.213,22.075z"/>
	<path clip-path="url(#SVGID_2_)" fill="#740054" d="M132.126,31.795l0.07,0.084c1.338-1.663,2.822-2.825,5.002-2.825
		c0.507,0,1.086,0.041,1.575,0.207l-0.141,6.688c-0.68-0.208-1.36-0.416-2.021-0.416c-2.338,0-4.706,1.455-5.107,5.359l-0.964,9.391
		h-7.399l2.129-20.732h7.087L132.126,31.795z"/>
	<path clip-path="url(#SVGID_2_)" fill="none" stroke="#740054" stroke-width="0.175" stroke-miterlimit="3.864" d="M132.126,31.795
		l0.07,0.084c1.338-1.663,2.822-2.825,5.002-2.825c0.507,0,1.086,0.041,1.575,0.207l-0.141,6.688
		c-0.68-0.208-1.36-0.416-2.021-0.416c-2.338,0-4.706,1.455-5.107,5.359l-0.964,9.391h-7.399l2.129-20.732h7.087L132.126,31.795z"/>
	<polygon clip-path="url(#SVGID_2_)" fill="#740054" points="153.201,22.573 162.859,22.573 170.978,40.604 171.057,40.604 
		172.906,22.573 180.073,22.573 177.228,50.284 167.687,50.284 159.417,32.585 159.339,32.585 157.521,50.284 150.356,50.284 	"/>
	<polygon clip-path="url(#SVGID_2_)" fill="none" stroke="#740054" stroke-width="0.175" stroke-miterlimit="3.864" points="
		153.201,22.573 162.859,22.573 170.978,40.604 171.057,40.604 172.906,22.573 180.073,22.573 177.228,50.284 167.687,50.284 
		159.417,32.585 159.339,32.585 157.521,50.284 150.356,50.284 	"/>
	<path clip-path="url(#SVGID_2_)" fill="#740054" d="M183.097,29.552h7.4l-2.13,20.732h-7.399L183.097,29.552z M183.863,22.075h7.4
		l-0.503,4.902h-7.401L183.863,22.075z"/>
	<path clip-path="url(#SVGID_2_)" fill="none" stroke="#740054" stroke-width="0.175" stroke-miterlimit="3.864" d="M183.097,29.552
		h7.4l-2.13,20.732h-7.399L183.097,29.552z M183.863,22.075h7.4l-0.503,4.902h-7.401L183.863,22.075z"/>
	<path clip-path="url(#SVGID_2_)" fill="#740054" d="M205.815,47.583l-0.086,0.082c-1.684,2.368-3.979,3.117-6.939,3.117
		c-4.676,0-7.092-2.244-6.674-6.315l1.53-14.915h7.4l-1.139,11.092c-0.209,2.036,0.52,3.655,2.661,3.655
		c1.986,0,3.755-1.661,4.188-5.897l0.909-8.85h7.398l-2.129,20.732h-7.396L205.815,47.583z"/>
	<path clip-path="url(#SVGID_2_)" fill="none" stroke="#740054" stroke-width="0.175" stroke-miterlimit="3.864" d="M205.815,47.583
		l-0.086,0.082c-1.684,2.368-3.979,3.117-6.939,3.117c-4.676,0-7.092-2.244-6.674-6.315l1.53-14.915h7.4l-1.139,11.092
		c-0.209,2.036,0.52,3.655,2.661,3.655c1.986,0,3.755-1.661,4.188-5.897l0.909-8.85h7.398l-2.129,20.732h-7.396L205.815,47.583z"/>
	<path clip-path="url(#SVGID_2_)" fill="#740054" d="M217.536,52.858c2.398,0.914,4.936,1.62,8.012,1.62
		c4.206,0,4.471-2.576,4.905-6.812c-2.104,1.911-4.146,2.824-6.753,2.824c-5.025,0-8.111-4.069-7.512-9.929
		c0.802-7.808,6.323-11.506,13.995-11.506c3.193,0,6.335,0.497,9.465,1.121l-2.319,22.599c-0.351,3.407-2.196,7.354-10.024,7.354
		c-3.312,0-6.609-0.498-9.795-1.33L217.536,52.858z M231.721,35.327c-0.797-0.208-1.485-0.333-2.185-0.333
		c-3.351,0-5.602,2.202-5.938,5.483c-0.248,2.411,0.876,4.363,3.02,4.363c2.258,0,4.289-1.578,4.771-6.272L231.721,35.327z"/>
	<path clip-path="url(#SVGID_2_)" fill="none" stroke="#740054" stroke-width="0.175" stroke-miterlimit="3.864" d="M217.536,52.858
		c2.398,0.914,4.936,1.62,8.012,1.62c4.206,0,4.471-2.576,4.905-6.812c-2.104,1.911-4.146,2.824-6.753,2.824
		c-5.025,0-8.111-4.069-7.512-9.929c0.802-7.808,6.323-11.506,13.995-11.506c3.193,0,6.335,0.497,9.465,1.121l-2.319,22.599
		c-0.351,3.407-2.196,7.354-10.024,7.354c-3.312,0-6.609-0.498-9.795-1.33L217.536,52.858z M231.721,35.327
		c-0.797-0.208-1.485-0.333-2.185-0.333c-3.351,0-5.602,2.202-5.938,5.483c-0.248,2.411,0.876,4.363,3.02,4.363
		c2.258,0,4.289-1.578,4.771-6.272L231.721,35.327z"/>
	<path clip-path="url(#SVGID_2_)" fill="#740054" d="M243.139,29.552h7.398l-2.129,20.732h-7.397L243.139,29.552z M243.906,22.075
		h7.4l-0.503,4.902h-7.401L243.906,22.075z"/>
	<path clip-path="url(#SVGID_2_)" fill="none" stroke="#740054" stroke-width="0.175" stroke-miterlimit="3.864" d="M243.139,29.552
		h7.398l-2.129,20.732h-7.397L243.139,29.552z M243.906,22.075h7.4l-0.503,4.902h-7.401L243.906,22.075z"/>
	<path clip-path="url(#SVGID_2_)" fill="#740054" d="M260.391,32.543l0.07,0.083c2.532-2.659,5.119-3.572,8.039-3.572
		c4.205,0,7.363,1.869,6.817,7.185l-1.441,14.043h-7.4l1.136-11.051c0.187-1.828-0.399-3.698-2.736-3.698
		c-1.987,0-4.55,1.455-5.173,7.521l-0.742,7.229h-7.398l2.128-20.731h7.009L260.391,32.543z"/>
	<path clip-path="url(#SVGID_2_)" fill="none" stroke="#740054" stroke-width="0.175" stroke-miterlimit="3.864" d="M260.391,32.543
		l0.07,0.083c2.532-2.659,5.119-3.572,8.039-3.572c4.205,0,7.363,1.869,6.817,7.185l-1.441,14.043h-7.4l1.136-11.051
		c0.187-1.828-0.399-3.698-2.736-3.698c-1.987,0-4.55,1.455-5.173,7.521l-0.742,7.229h-7.398l2.128-20.731h7.009L260.391,32.543z"/>
	<path clip-path="url(#SVGID_2_)" fill="#740054" d="M279.151,29.552h7.399l-2.129,20.732h-7.398L279.151,29.552z M279.919,22.075
		h7.4l-0.504,4.902h-7.4L279.919,22.075z"/>
	<path clip-path="url(#SVGID_2_)" fill="none" stroke="#740054" stroke-width="0.175" stroke-miterlimit="3.864" d="M279.151,29.552
		h7.399l-2.129,20.732h-7.398L279.151,29.552z M279.919,22.075h7.4l-0.504,4.902h-7.4L279.919,22.075z"/>
</g>
</svg>
