<?xml version="1.0" encoding="UTF-8" standalone="no"?>
<!-- Created with Inkscape (http://www.inkscape.org/) -->

<svg
   xmlns:dc="http://purl.org/dc/elements/1.1/"
   xmlns:cc="http://creativecommons.org/ns#"
   xmlns:rdf="http://www.w3.org/1999/02/22-rdf-syntax-ns#"
   xmlns:svg="http://www.w3.org/2000/svg"
   xmlns="http://www.w3.org/2000/svg"
   version="1.1"
   width="216.5"
   height="37.0625"
   id="svg3347">
  <defs
     id="defs3349">
    <clipPath
       id="clipPath58">
      <path
         d="m 0,0 595.276,0 0,841.89 L 0,841.89 0,0 z"
         id="path60" />
    </clipPath>
    <clipPath
       id="clipPath42">
      <path
         d="m 0,0 595.276,0 0,841.89 L 0,841.89 0,0 z"
         id="path44" />
    </clipPath>
  </defs>
  <metadata
     id="metadata3352">
    <rdf:RDF>
      <cc:Work
         rdf:about="">
        <dc:format>image/svg+xml</dc:format>
        <dc:type
           rdf:resource="http://purl.org/dc/dcmitype/StillImage" />
        <dc:title></dc:title>
      </cc:Work>
    </rdf:RDF>
  </metadata>
  <g
     transform="translate(-434.6875,-494.78125)"
     id="layer1">
    <path
       d="m 446.03125,513.40625 -9.34375,13.46875 1.6875,0 2.3125,-3.28125 5.53125,0 0.25,1.53125 c 0.17875,1.2125 0.495,1.75 1.90625,1.75 l 1.40625,0 -2.25,-13.46875 -1.5,0 z m 8.125,1.09375 -2.78125,12.375 3,0 2.78125,-12.375 -3,0 z m 5.375,0 0.59375,1.0625 -2.53125,11.3125 3,0 2.5,-11.25 0.9375,0 c 1.72625,0 2.44625,1.005 2.3125,2.5 -0.11125,1.33875 -1.1,2.80625 -4.125,3.125 l 2.4375,4.28125 c 0.6275,1.09 0.90375,1.34375 2.5625,1.34375 l 1.59375,0 -3.34375,-5.25 c 1.7925,-0.275 3.745,-1.4 3.96875,-3.40625 C 469.70625,515.9175 468.05125,514.5 465.25,514.5 l -5.71875,0 z m 18.1875,0 0.78125,1.4375 -2.4375,10.9375 1.5625,0 2.0625,-9.09375 4.65625,7.75 c 0.5125,0.87375 0.97125,1.34375 2.40625,1.34375 l 2.78125,-12.375 -1.5625,0 -1.9375,8.5625 -4.21875,-7.25 C 481.205,514.765 480.89375,514.5 479.59375,514.5 l -1.875,0 z m 14.59375,0 -2.78125,12.375 9.5625,0 c -0.17875,-0.8525 -0.55875,-1.1875 -1.65625,-1.1875 l -4.59375,0 1.03125,-4.5625 4.71875,0 0.28125,-1.25 -4.75,0 0.9375,-4.1875 4.375,0 c 1.0975,0 1.47625,-0.33625 1.65625,-1.1875 l -8.78125,0 z m 9.875,0 1.90625,12.375 1.4375,0 4.28125,-7.375 1.03125,7.375 1.4375,0 7.4375,-12.375 -1.59375,0 -5.15625,8.65625 -1,-8.125 c -0.0438,-0.38125 -0.3675,-0.53125 -0.75,-0.53125 l -2.0625,0 0.40625,2.9375 -3.25,5.71875 -1.21875,-8.125 C 505.04755,514.65 504.725,514.5 504.34375,514.5 l -2.15625,0 z m 23.90625,0 c 0.17875,0.8525 0.55625,1.1875 1.65625,1.1875 l 5.5625,0 -8.8125,8.875 c -0.76125,0.77125 -1.2675,1.26875 -1.3125,2.3125 l 11.4375,0 c -0.17875,-0.84625 -0.545,-1.18375 -1.625,-1.1875 l -0.0312,0 -5.78125,0 8.5,-8.75 c 1.07375,-1.15 1.31625,-1.73625 1.40625,-2.4375 l -11,0 z m 13.3125,0 -2.75,12.375 9.53125,0 c -0.1825,-0.8525 -0.55875,-1.1875 -1.65625,-1.1875 l -4.59375,0 1.03125,-4.5625 4.71875,0 0.28125,-1.25 -4.75,0 0.9375,-4.1875 4.375,0 c 1.09875,0 1.4775,-0.335 1.65625,-1.1875 l -8.78125,0 z m 15.90625,0 -8.375,12.375 1.6875,0 2.21875,-3.28125 5.03125,0 0.3125,1.53125 c 0.27125,1.19875 0.55625,1.75 1.96875,1.75 l 1.4375,0 -2.78125,-12.375 -1.5,0 z m 8.65625,0 -2.78125,12.375 8.3125,0 c -0.17875,-0.85125 -0.59,-1.1875 -1.6875,-1.1875 l -3.34375,0 2.5,-11.1875 -3,0 z m 14.625,0 -8.34375,12.375 1.65625,0 2.21875,-3.28125 5.03125,0 0.34375,1.53125 c 0.2675,1.19875 0.55625,1.75 1.96875,1.75 l 1.4375,0 -2.8125,-12.375 -1.5,0 z m 7.5625,0 0.8125,1.4375 -2.46875,10.9375 1.59375,0 2.03125,-9.09375 4.65625,7.75 c 0.51875,0.87375 1.00125,1.34375 2.4375,1.34375 l 2.75,-12.375 -1.5625,0 -1.90625,8.5625 -4.25,-7.25 C 589.64625,514.765 589.33125,514.5 588.03125,514.5 l -1.875,0 z m 14.21875,0 0.5625,1.0625 -2.53125,11.3125 4.5625,0 c 4.07875,0 7.8825,-2.265 8.53125,-6.1875 0.64875,-3.8775 -2.14375,-6.1875 -6.09375,-6.1875 l -3.34375,0 -0.875,0 -0.8125,0 z m 3.5625,1.15625 0.8125,0 c 2.84375,0 4.14875,1.875 3.65625,5.03125 -0.49625,3.19625 -3.0625,5.0625 -5.90625,5.0625 l -0.84375,0 2.28125,-10.09375 z m -158.71875,1.5 0.8125,5.15625 -4.4375,0 3.625,-5.15625 z m 109.375,0.8125 0.96875,4.34375 -3.875,0 2.90625,-4.34375 z m 23.3125,0 0.96875,4.34375 -3.875,0 2.90625,-4.34375 z"
       id="AirNewZealand"
       style="fill:#231f20;fill-opacity:1;fill-rule:nonzero;stroke:none" />
    <path
       d="m 636.4375,496.78125 c -3.7475,0 -7.21625,2.6625 -9.1875,4.59375 -7.0125,6.84 -10.71875,11.46875 -10.71875,11.46875 l 31.25,0 1.40625,-3.125 -25.21875,0 c 0,0 1.90375,-2.6075 6,-6.46875 1.02875,-0.9625 3.7225,-3.375 6.46875,-3.375 1.80375,0 3.21875,1.1275 3.21875,2.65625 0,1.5125 -1.28125,1.9375 -1.28125,1.9375 0.13375,-0.64625 -0.3,-2.40625 -2,-2.40625 -1.7625,0 -2.5,1.345 -2.5,2.25 0,1.86 1.6925,3.1875 3.65625,3.1875 3.77625,0 5.53125,-2.685 5.53125,-5.28125 0,-2.62 -2.55375,-5.4375 -6.625,-5.4375 z M 616,514.46875 c 0,0 1.64,4.71625 3.8125,9.21875 1.84125,3.83625 4.895,6.15625 8.625,6.15625 3.505,0 5.875,-2.66625 5.875,-5.21875 0,-2.88875 -2.1975,-4.78125 -4.8125,-4.78125 -2.78875,0 -3.375,2.09625 -3.375,2.625 0,1.21875 1.02,2.34375 2.3125,2.34375 2.035,0 2.1875,-1.625 2.1875,-1.625 0,0 0.625,0.4 0.625,1.4375 0,0.9975 -0.845,2.28125 -2.8125,2.28125 -1.57,0 -3.8775,-0.8275 -5.46875,-4.1875 -1.87125,-3.93375 -2,-5.09375 -2,-5.09375 l 24.65625,0 1.40625,-3.15625 -31.03125,0 z"
       id="koru"
       style="fill:#231f20;fill-opacity:1;fill-rule:nonzero;stroke:none" />
  </g>
</svg>
