<?xml version="1.0" encoding="UTF-8"?>
<svg id="Layer_1" data-name="Layer 1" xmlns="http://www.w3.org/2000/svg" width="228.4" height="97.2" viewBox="0 0 228.4 97.2">
  <defs>
    <style>
      .cls-1 {
        fill: #0081c6;
        stroke-width: 0px;
      }
    </style>
  </defs>
  <path class="cls-1" d="M67.05,64.44c-1.08-.24-2.39-.47-3.92-.68-1.53-.22-3.03-.34-4.46-.34-1.8,0-3.41.19-4.83.59-1.43.39-2.68,1.02-3.76,1.89-1.08.88-1.97,2.01-2.68,3.41s-1.25,3.09-1.64,5.12l-.62,3.23c-.2,1.07-.29,2.08-.29,3,0,1.41.22,2.64.68,3.67.46,1.04,1.1,1.88,1.9,2.54.8.66,1.77,1.14,2.9,1.45,1.12.31,2.33.48,3.62.48.35,0,.79-.03,1.28-.07.5-.04,1.01-.09,1.54-.16.53-.05,1.02-.12,1.49-.19.32-.05.61-.1.86-.14l-.04.21c-.19.99-.42,1.82-.7,2.47s-.66,1.17-1.12,1.56c-.48.39-1.08.67-1.8.83-.73.18-1.61.27-2.65.27-.63,0-1.32-.03-2.07-.07-.74-.05-1.5-.09-2.24-.13-.74-.05-1.43-.1-2.07-.16-.63-.07-1.15-.12-1.56-.17h-.17c-.29,0-.55.05-.78.21-.22.15-.37.38-.44.67l-.25,1.29v.05h0c-.07.1-.04.16-.05.21,0,.48.41.78.98.92.66.19,1.69.36,3.14.54,1.44.18,3.07.28,4.89.28,1.73,0,3.24-.14,4.53-.41,1.3-.27,2.42-.74,3.35-1.43.94-.69,1.71-1.62,2.31-2.78.61-1.17,1.05-2.61,1.38-4.33l4.3-22.57v-.02s0-.07,0-.07c.03-.09.04-.17.04-.24,0-.49-.46-.8-1.05-.92ZM59.85,84.63c-.35.07-.73.13-1.14.18-.49.06-.99.11-1.48.16-.49.04-.96.06-1.43.08-.46.02-.86.03-1.2.03-1.79,0-3.09-.33-3.91-.93-.8-.59-1.22-1.68-1.22-3.32,0-.43.02-.92.07-1.44.05-.52.14-1.07.26-1.65l.62-3.24c.5-2.56,1.37-4.43,2.58-5.6,1.22-1.18,2.89-1.77,5.07-1.77,1.01,0,1.97.05,2.89.16.81.09,1.51.19,2.11.29l-3.23,17.06ZM140.79,58.91v-.2c0-.56-.41-.93-.99-.93h-2.44c-.3,0-.6.11-.86.31s-.42.45-.5.73l-.25,1.92v.2c0,.57.41.93.99.93h2.45c.3,0,.59-.12.85-.31.25-.2.42-.44.5-.74M45.27,67.27c.72.02,1.26-.31,1.37-.93l.34-1.87v-.02s0-.2,0-.2c0-.55-.48-.84-1.08-.84h-.1c-1.13,0-2.28.14-3.44.4-1.05.25-2.14.76-3.31,1.54l.1-.48h0v-.22c0-.55-.39-.93-.94-.93h-2.25c-.3,0-.6.11-.83.33-.23.19-.41.44-.48.73l-4.25,22.58v.2c0,.55.38.93.93.93h2.35c.3,0,.59-.1.85-.3.25-.21.43-.46.51-.73l3.47-18.45c1.12-.64,2.17-1.09,3.12-1.34.99-.26,2.14-.39,3.5-.39h.14ZM125.61,67.45h4.96c.31,0,.61-.12.85-.33.23-.2.4-.45.47-.73l.29-1.52h0v-.22c0-.56-.41-.93-.99-.93h-4.89l.67-3.71v-.16c0-.48-.32-.85-.8-.85h-.14l-2.56.35c-.67.08-1.13.47-1.24,1.06l-.58,3.29-3.17.09c-.29,0-.57.09-.8.27s-.39.41-.47.69l-.24,1.21v.17c-.02.51.41.85.95.89l3.03.37-2.89,15.2c-.06.35-.1.67-.14.92-.03.27-.05.54-.05.85,0,1.58.58,2.77,1.74,3.44,1.12.66,2.52.99,4.16.99.45,0,.95-.03,1.5-.07.54-.03,1.05-.09,1.54-.16.38-.06.65-.16.84-.32.16-.15.28-.35.35-.59l.29-1.6v-.22c0-.25-.09-.52-.34-.6-.16-.06-.34-.08-.54-.08h-2.91c-.74,0-1.29-.08-1.58-.21-.23-.09-.4-.36-.4-.98,0-.3.05-.73.14-1.25l2.95-15.29ZM188.07,65.32c0-.5-.45-.78-1.04-.88-1.21-.3-2.55-.55-4.03-.74-1.47-.19-2.93-.29-4.37-.29s-2.85.17-4.2.52c-1.36.35-2.6.92-3.73,1.71-1.12.8-2.09,1.86-2.9,3.16-.81,1.31-1.41,2.94-1.8,4.87l-.86,4.38c-.2.93-.29,1.82-.29,2.7,0,1.38.2,2.58.61,3.6.41,1.02.96,1.86,1.65,2.52.69.66,1.51,1.14,2.45,1.46.93.32,1.92.48,2.96.48.8,0,1.53-.05,2.19-.16.65-.1,1.27-.27,1.88-.5.61-.22,1.2-.49,1.8-.83.48-.26.98-.56,1.52-.92l-.16.87v.3c0,.24.06.47.18.63.17.22.44.29.75.29h1.91c.3,0,.59-.11.84-.32.23-.2.4-.45.47-.73l4.12-21.73c.03-.1.05-.23.05-.4ZM180.15,82.6c-1.29.8-2.46,1.41-3.51,1.83-1.05.43-2.13.65-3.21.65-1.1,0-2.02-.33-2.8-.97-.73-.61-1.13-1.74-1.13-3.41,0-.32.02-.66.04-.99.03-.35.08-.67.14-.99l.86-4.56c.44-2.33,1.3-4.07,2.56-5.26,1.25-1.17,3.08-1.77,5.52-1.77,1.02,0,1.88.05,2.58.13l.03-.22-.03.22c.63.08,1.23.17,1.8.27l-2.86,15.08ZM208.39,64.92c.02-.49-.36-.85-.9-.93-.52-.09-.99-.17-1.44-.24-.46-.07-.95-.14-1.48-.18-.53-.05-1.12-.09-1.77-.11-.66-.03-1.44-.04-2.38-.04-1.18,0-2.38.1-3.58.31-1.22.21-2.3.59-3.24,1.14-.94.54-1.72,1.27-2.32,2.17-.61.91-.91,2.07-.91,3.41,0,2.06,1.4,3.91,4.07,5.54l4.36,2.61c1.12.65,1.86,1.19,2.19,1.62.35.46.51.88.51,1.32,0,.68-.15,1.23-.42,1.68-.29.46-.66.8-1.12,1.06-.47.28-1.02.48-1.65.6-.64.13-1.3.2-1.98.2-.41,0-.92-.02-1.54-.04-.62-.03-1.27-.06-1.95-.11-.68-.04-1.36-.1-2.02-.16-.67-.05-1.29-.11-1.86-.17h-.31c-.56-.02-1.02.3-1.12.84l-.29,1.56v.17c0,.29.11.55.34.69.18.11.4.2.64.27.55.13,1.16.22,1.82.31.66.1,1.33.16,2,.21.67.04,1.32.08,1.95.11.65.03,1.22.04,1.74.04,1.32,0,2.6-.13,3.86-.38,1.26-.26,2.38-.67,3.35-1.26.98-.6,1.75-1.38,2.34-2.35.6-.99.89-2.2.89-3.66,0-1.02-.3-1.98-.92-2.86-.61-.91-1.75-1.85-3.39-2.85l-4.31-2.61c-.83-.5-1.47-.96-1.89-1.39-.42-.41-.61-.85-.61-1.34,0-.61.15-1.08.42-1.44.3-.37.67-.67,1.14-.89s.99-.39,1.56-.47c.57-.09,1.13-.13,1.66-.13,1.32,0,2.62.03,3.87.1,1.25.08,2.29.16,3.11.25h.17c.61.02,1.07-.35,1.17-.93l.23-1.46-.22-.04h.22v-.16h0ZM161.9,65.48c-.6-.65-1.37-1.15-2.3-1.51-.94-.37-2.06-.54-3.35-.54-1.64,0-3.06.21-4.26.64-1.06.36-2.1.8-3.13,1.31l.08-.5v-.22c0-.22-.07-.44-.22-.62-.16-.22-.43-.31-.72-.31h-2.34c-.3,0-.6.11-.83.31s-.41.46-.48.73l-4.26,22.58v.2c0,.22.09.43.22.62.16.22.41.3.7.3h2.35c.31,0,.61-.1.86-.31.25-.19.43-.45.51-.73l3.51-18.57c1.47-.65,2.7-1.07,3.67-1.29,1-.22,1.96-.33,2.86-.33,1.73,0,2.86.3,3.37.82.56.54.84,1.3.85,2.33,0,.34-.03.73-.07,1.15-.05.42-.1.83-.16,1.24l-2.77,14.56v.2c0,.56.41.93.99.93h2.29c.3,0,.6-.1.85-.3.25-.2.43-.46.5-.73l2.78-14.56c.16-.84.24-1.65.24-2.44,0-.96-.14-1.87-.41-2.71-.27-.85-.7-1.6-1.31-2.24ZM113.29,65.48c-.6-.65-1.37-1.15-2.31-1.52-.93-.37-2.06-.54-3.35-.54-1.64,0-3.07.21-4.28.64-1.05.36-2.09.8-3.12,1.31l.08-.49v-.22c0-.22-.08-.44-.21-.62-.16-.22-.43-.31-.73-.31h-2.34c-.3,0-.6.11-.84.31-.23.2-.41.45-.48.73l-4.25,22.58v.2c0,.22.08.44.21.62.16.22.43.3.71.3h2.35c.3,0,.6-.1.85-.3.25-.21.42-.46.51-.73l3.52-18.57c1.47-.66,2.7-1.08,3.67-1.29,1.01-.22,1.95-.33,2.87-.33,1.73,0,2.85.3,3.37.82.55.54.84,1.3.84,2.33,0,.34-.02.73-.07,1.15-.04.42-.1.84-.16,1.24l-2.77,14.56v.2c0,.56.41.93.99.93h2.29c.31,0,.61-.1.86-.31.25-.19.42-.45.5-.73l2.78-14.56c.16-.84.24-1.65.24-2.44,0-.97-.14-1.87-.41-2.72-.27-.83-.71-1.59-1.31-2.23ZM88.71,65.87c-.75-.76-1.69-1.36-2.79-1.79-1.12-.44-2.43-.67-3.94-.67-3.45,0-6.28.96-8.47,2.86-2.19,1.91-3.65,4.66-4.38,8.24l-.62,3.1c-.19.98-.29,1.92-.29,2.78,0,1.52.27,2.83.84,3.91.55,1.06,1.29,1.93,2.19,2.58.9.67,1.93,1.15,3.08,1.45,1.14.3,2.3.45,3.49.45h.03c1.63,0,3.07-.07,4.34-.19,1.27-.14,2.61-.32,4.05-.56.43-.06.75-.16.95-.37.2-.19.3-.47.37-.81l.29-1.51v-.22c0-.43-.39-.67-.84-.67h-.29c-1.14.15-2.44.29-3.93.42-1.49.13-2.93.2-4.32.2-1.82,0-3.23-.37-4.24-1.07-.99-.69-1.5-1.81-1.5-3.44,0-.4.03-.82.07-1.26.04-.42.14-.88.3-1.37l.1-.37h15.81c.38,0,.72-.1.92-.35.17-.22.29-.48.35-.8l.38-1.87c.19-.95.29-1.85.29-2.7,0-1.17-.18-2.27-.54-3.3-.35-1.01-.91-1.91-1.67-2.68ZM86,74.11v.05h-12.2c.22-.99.54-1.9.98-2.73.43-.83.97-1.56,1.61-2.2.63-.62,1.37-1.11,2.2-1.45.83-.34,1.75-.51,2.78-.51,3.37.03,4.9,1.44,4.93,4.47,0,.71-.1,1.51-.29,2.38ZM138.48,64.39h-2.29c-.3,0-.6.11-.86.31-.25.19-.42.45-.51.73l-4.09,21.93v.2c0,.56.41.93.99.93h2.31c.3,0,.59-.1.84-.3.25-.21.42-.46.51-.73l4.09-21.92v-.21c0-.56-.42-.93-.99-.93ZM24.13,59.56c-.3-.47-.69-.86-1.14-1.15-.45-.28-.93-.47-1.44-.57-.49-.1-.97-.14-1.44-.14s-.99.06-1.52.16c-.55.11-1.09.31-1.62.57-.54.27-1.04.64-1.5,1.09-.47.47-.88,1.06-1.25,1.77L.15,86.83c-.1.18-.15.41-.15.64,0,.28.1.57.32.77.22.19.51.25.79.25h2.91c.3,0,.59-.1.84-.26.25-.17.47-.39.57-.66l4.84-9.92h11.69l1.14,9.79c.05.25.14.48.27.67.19.27.52.38.81.38h2.89c.34,0,.68-.09.93-.35.24-.25.33-.59.33-.93v-.22l-3.61-25.59c-.08-.73-.29-1.34-.59-1.84ZM12.28,73.53l6.08-10.96c.22-.43.81-.51,1.16-.5.75.03.82.5.82.5l1.29,10.96h-9.35Z"/>
  <path class="cls-1" d="M33.18,26.63c-.3-.47-.68-.86-1.14-1.15-.44-.28-.92-.47-1.44-.57-.48-.09-.97-.14-1.43-.14s-.98.06-1.52.16c-.55.11-1.09.3-1.61.57-.54.27-1.04.64-1.49,1.1-.47.47-.89,1.05-1.25,1.77l-14.05,25.49c-.09.18-.14.41-.14.64,0,.27.09.57.32.77.23.19.5.25.79.25h2.91c.3,0,.59-.09.84-.26.26-.16.46-.39.57-.66l4.84-9.9h11.67l1.15,9.77c.04.25.14.47.27.66.19.27.52.38.81.38h2.89c.34,0,.68-.09.92-.35s.33-.59.33-.94v-.21l-3.6-25.56c-.12-.73-.31-1.35-.62-1.85ZM21.36,40.59l6.07-10.94c.23-.43.81-.52,1.17-.5.74.03.82.5.82.5l1.28,10.94h-9.33ZM60.11,32.56c-.79-.79-1.74-1.4-2.87-1.85-1.15-.44-2.49-.67-4.02-.67-3.48,0-6.38.97-8.61,2.92-2.24,1.95-3.71,4.75-4.46,8.35l-.62,3.09c-.19,1-.3,1.94-.3,2.83,0,1.55.28,2.89.87,4,.56,1.1,1.31,1.99,2.25,2.67.92.68,1.98,1.18,3.15,1.49,1.15.3,2.34.45,3.54.45h.03c1.63,0,3.08-.07,4.36-.2,1.27-.13,2.62-.32,4.06-.55.44-.07.79-.16,1.08-.44.23-.23.35-.55.42-.92l.29-1.5v-.26c.02-.24-.11-.54-.34-.69-.22-.16-.46-.2-.72-.2h-.28c-1.17.16-2.46.29-3.95.42-1.48.12-2.92.19-4.3.19-1.79,0-3.14-.35-4.11-1.03-.92-.65-1.4-1.66-1.41-3.26,0-.4.03-.8.07-1.23.04-.41.14-.85.29-1.33l.03-.22h15.64c.41,0,.82-.11,1.09-.42.2-.25.32-.55.4-.9l.38-1.87c.2-.96.3-1.88.3-2.74,0-1.19-.18-2.31-.54-3.37-.39-1.06-.97-1.99-1.74-2.77ZM57.05,40.78h-11.73c.22-.88.51-1.67.89-2.41.42-.81.94-1.52,1.57-2.13.6-.61,1.31-1.08,2.12-1.41.79-.33,1.69-.5,2.69-.5,3.31.07,4.64,1.31,4.71,4.24,0,.66-.09,1.4-.25,2.21ZM79.15,33.21l.34-1.86v-.04s0-.22,0-.22c0-.3-.13-.64-.4-.82-.27-.19-.56-.24-.9-.24h-.09c-1.15,0-2.31.14-3.49.41-.95.22-1.93.65-2.94,1.28h0v-.23c0-.31-.08-.62-.31-.85-.23-.22-.54-.3-.85-.3h-2.24c-.35,0-.71.13-.98.37-.26.22-.46.52-.54.84l-4.26,22.59v.22c0,.31.09.62.31.85.22.22.53.3.84.3h2.34c.36,0,.71-.13.99-.35s.5-.52.59-.85l3.45-18.34c1.08-.6,2.07-1.03,2.98-1.27.96-.25,2.11-.38,3.44-.38h.15c.74.04,1.45-.37,1.57-1.11ZM98.45,32.51c-.79-.78-1.78-1.39-2.92-1.82-1.16-.43-2.49-.65-3.99-.65-7.24-.04-11.74,3.8-13.06,11.14l-.61,3.36c-.07.43-.13.84-.18,1.24-.05.42-.07.84-.07,1.27,0,1.28.2,2.46.6,3.53s.99,2,1.77,2.79,1.75,1.39,2.9,1.83c1.15.42,2.47.64,3.95.64,1.91,0,3.63-.25,5.12-.78,1.5-.52,2.79-1.26,3.88-2.24,1.07-.96,1.95-2.14,2.62-3.51.66-1.36,1.17-2.9,1.49-4.61l.62-3.36c.07-.43.12-.85.17-1.27s.07-.85.07-1.29c0-1.25-.19-2.42-.58-3.49-.38-1.07-.98-2-1.77-2.79ZM95.66,39.9c-.03.4-.09.81-.18,1.28l-.61,3.37c-.19,1.05-.5,2-.93,2.86-.44.85-.98,1.59-1.61,2.2-.62.6-1.34,1.09-2.16,1.43-.81.34-1.71.52-2.7.52-1.8,0-3.02-.39-3.7-1.06-.7-.68-1.08-1.74-1.08-3.26,0-.73.09-1.58.28-2.53l.62-3.36c.4-2.21,1.24-3.9,2.51-5.15,1.26-1.23,2.83-1.86,4.84-1.87,1.8,0,3.01.41,3.7,1.11.71.72,1.09,1.79,1.09,3.31,0,.38-.03.77-.06,1.17ZM112.23,23.81c0-.29-.07-.6-.29-.81s-.53-.29-.81-.29h-2.49c-.73-.05-1.4.47-1.49,1.2l-5.72,30.25v.22c0,.3.07.6.29.84.21.22.51.31.79.31h2.5c.35,0,.71-.14.97-.38.24-.22.42-.51.51-.83l5.72-30.29v-.22h0ZM119.32,30.36h-2.28c-.35,0-.71.13-.99.36-.28.22-.49.52-.59.85l-4.26,22.59v.22c0,.31.09.63.34.85.23.22.54.29.85.29h2.31c.36,0,.71-.13.99-.35.28-.22.49-.51.58-.85l4.26-22.59v-.22c0-.31-.09-.64-.34-.85-.23-.23-.54-.3-.87-.3ZM116.6,28.01h2.57c.31,0,.6-.05.86-.23.16-.12.37-.3.63-.54l4.81-4.03c.21-.19.38-.41.39-.73,0-.55-.59-.7-.92-.72h-3.15c-.34.02-.65.07-.9.24-.17.13-.38.3-.64.54l-4.06,3.95c-.22.22-.41.46-.42.81,0,.48.51.72.82.72ZM142.72,32.17c-.63-.67-1.42-1.19-2.38-1.57-.98-.37-2.12-.55-3.43-.55-1.66,0-3.1.21-4.34.65-.93.33-1.85.71-2.76,1.14l.02-.09v-.03s0-.21,0-.21c0-.28-.09-.54-.26-.75-.22-.29-.57-.41-.9-.4h-2.34c-.35,0-.71.14-.98.37-.27.22-.46.52-.54.85l-4.26,22.59v.22c0,.27.09.54.25.75.21.28.55.4.88.4h2.36c.36,0,.71-.13.99-.35.28-.22.49-.51.58-.85l3.5-18.44c1.41-.62,2.59-1.02,3.51-1.23.99-.22,1.93-.32,2.81-.32,1.71-.02,2.78.31,3.22.76.5.49.77,1.17.78,2.16,0,.33-.03.7-.07,1.11-.04.42-.1.84-.17,1.24l-2.48,14.52v.21c0,.31.09.64.33.86.24.22.55.29.87.29h2.3c.35,0,.7-.14.98-.36.28-.22.49-.51.58-.85l2.49-14.52c.16-.85.24-1.68.24-2.47,0-.98-.14-1.92-.43-2.79-.29-.9-.75-1.68-1.36-2.35ZM166.82,32.56c-.78-.79-1.74-1.4-2.87-1.85-1.15-.44-2.49-.67-4.02-.67-3.48,0-6.37.96-8.6,2.91-2.24,1.95-3.71,4.75-4.46,8.35l-.62,3.09c-.2,1-.3,1.94-.3,2.82,0,1.55.28,2.9.86,4,.57,1.09,1.32,1.99,2.25,2.67.92.68,1.99,1.17,3.15,1.49,1.16.3,2.36.45,3.57.45,1.64,0,3.09-.07,4.37-.2,1.26-.14,2.62-.32,4.04-.56.45-.07.8-.16,1.09-.44.23-.24.35-.55.42-.92l.29-1.51v-.25c.02-.24-.11-.54-.34-.69s-.46-.2-.73-.2h-.28c-1.17.16-2.46.29-3.95.42-1.48.12-2.92.19-4.29.19-1.8,0-3.15-.35-4.12-1.03-.92-.65-1.4-1.66-1.4-3.26,0-.4.03-.8.07-1.23.04-.41.14-.85.29-1.33l.06-.22h15.63c.41,0,.81-.11,1.08-.42.2-.25.32-.55.41-.89l.38-1.87c.19-.97.29-1.88.29-2.74,0-1.19-.18-2.31-.54-3.38-.38-1.04-.95-1.97-1.74-2.75ZM163.77,40.78h-11.73c.22-.88.51-1.67.89-2.41.43-.81.94-1.52,1.56-2.13.61-.61,1.32-1.08,2.12-1.42.79-.33,1.69-.49,2.69-.49,3.31.07,4.65,1.31,4.71,4.24,0,.66-.08,1.4-.25,2.21ZM193.6,32.17c-.02-.66-.6-.99-1.22-1.1-1.21-.3-2.56-.54-4.03-.73-1.49-.19-2.94-.28-4.4-.28s-2.88.17-4.27.52c-1.38.35-2.65.94-3.79,1.74-1.14.82-2.13,1.89-2.95,3.22-.83,1.34-1.43,2.99-1.82,4.94l-.85,4.37c-.2.93-.29,1.85-.29,2.74,0,1.4.2,2.62.62,3.67.41,1.04.98,1.9,1.7,2.58s1.55,1.18,2.52,1.51c.94.32,1.94.49,3,.49h.03c.81,0,1.55-.05,2.22-.16.66-.1,1.3-.28,1.92-.51.6-.22,1.22-.51,1.82-.85.35-.18.72-.41,1.11-.65l-.07.36v.34c0,.27.07.54.22.77.24.31.6.38.93.38h1.93c.35,0,.7-.14.98-.37.27-.22.46-.52.54-.84l4.1-21.7c.04-.14.06-.28.06-.44ZM185.28,49.29c-1.26.77-2.39,1.35-3.39,1.76-1.04.42-2.07.63-3.13.63s-1.91-.3-2.64-.92c-.66-.54-1.06-1.59-1.06-3.24,0-.31.02-.64.05-.98.03-.35.07-.66.13-.97l.85-4.55c.43-2.3,1.27-3.99,2.49-5.12,1.19-1.12,2.96-1.72,5.37-1.72,1.01,0,1.86.05,2.55.13.54.07,1.06.15,1.56.22l-2.78,14.74ZM212.82,30.62c-.51-.08-.99-.17-1.43-.24-.46-.08-.96-.14-1.49-.19-.54-.04-1.13-.08-1.78-.11-.66-.03-1.46-.04-2.37-.04-1.21,0-2.42.1-3.63.31-1.23.22-2.34.6-3.31,1.16-.97.56-1.76,1.31-2.38,2.24-.64.96-.94,2.15-.94,3.54,0,2.17,1.47,4.08,4.17,5.72l4.35,2.61c1.11.64,1.83,1.19,2.12,1.58.33.41.46.79.47,1.18,0,.65-.14,1.15-.39,1.55-.27.43-.6.75-1.03,1-.45.25-.98.44-1.59.57-.62.12-1.26.19-1.94.19-.4,0-.91,0-1.52-.04-.62-.03-1.27-.07-1.95-.1-.67-.04-1.36-.09-2.02-.16-.66-.06-1.28-.11-1.85-.16h-.33c-.62-.04-1.23.38-1.34,1.01l-.29,1.56v.22c0,.33.14.69.43.88.21.14.44.23.7.3.58.12,1.18.22,1.85.31.66.09,1.33.16,2.01.21.66.04,1.32.08,1.96.11.64.03,1.22.04,1.74.04h.03c1.32,0,2.61-.13,3.87-.38,1.28-.26,2.42-.69,3.42-1.3s1.81-1.42,2.41-2.43c.62-1.03.92-2.29.92-3.76,0-1.06-.32-2.07-.95-2.99-.65-.94-1.8-1.89-3.46-2.92l-4.3-2.6c-.82-.49-1.44-.95-1.86-1.36-.39-.39-.54-.75-.54-1.19,0-.58.14-.98.38-1.29.28-.35.62-.61,1.06-.83.45-.22.94-.36,1.49-.45.56-.09,1.11-.13,1.62-.13,1.32,0,2.61.03,3.85.11,1.25.07,2.29.15,3.1.24h.19c.68.04,1.3-.44,1.39-1.12l.24-1.46v-.03s0-.22,0-.22c.03-.6-.51-1.07-1.09-1.14Z"/>
  <path class="cls-1" d="M193.04,11.8l-31.62,5.72h66.88c0-2.26-2.16-4.71-7.34-4.68h-2.89c.41.83.17,1.86-.6,2.42-.87.62-2.07.43-2.69-.43s-.43-2.07.43-2.68l4.21-2.79c3.95-2.5,3.56-6.17-1.85-6.5L173.11.08s14.13,4.38,21.55,7.13c4.21,1.57,3.39,3.72-1.62,4.59"/>
</svg>