<svg width="162" height="33" viewBox="0 0 162 33" fill="none" xmlns="http://www.w3.org/2000/svg">
<path d="M82.8856 9.94394H82.6468C81.7645 9.93264 80.8806 10.0521 80.0032 10.2807C79.1233 10.5011 78.3082 10.8709 77.5895 11.3619C76.8197 11.8916 76.1568 12.5981 75.5999 13.4823C75.0454 14.3673 74.6229 15.4565 74.3412 16.7622L72.9757 23.2688L76.4061 23.2647L77.8647 16.3883C78.0703 15.3919 78.4539 14.6547 79.0019 14.1872C79.5588 13.7294 80.3148 13.4952 81.3582 13.5049L82.7601 13.5089C82.7601 13.5089 82.7706 12.1362 83.0329 11.4571C83.3753 10.56 83.8844 9.94394 83.8844 9.94394H82.8856Z" fill="#0E203F"></path>
<path d="M92.4668 7.6548C90.5355 7.64834 88.9514 8.04804 87.7162 8.83371C86.4827 9.66136 85.6643 10.787 85.2742 12.2275C85.0483 13.0463 85.0079 13.7294 85.1617 14.2502C85.2329 14.8663 85.5275 15.3379 86.0245 15.6617C86.4325 16.0121 87.3576 16.348 88.7871 16.6734L89.123 16.7622L89.1942 16.8034C91.7083 17.3977 92.844 18.1632 92.5882 19.1031C92.4125 19.7143 92.0483 20.1819 91.4744 20.5081C90.9127 20.8262 90.1696 20.9926 89.2493 20.9861C88.2092 20.9861 87.4483 20.7859 86.9651 20.3765C86.4908 20.0244 86.3167 19.4002 86.447 18.5177H83.3202C82.9495 20.1851 83.2028 21.4561 84.0633 22.3079C84.8436 23.159 86.2544 23.5781 88.2739 23.5781C90.2934 23.5781 91.8581 23.1808 93.1629 22.3612C94.4766 21.4779 95.35 20.2408 95.7854 18.6606C95.987 17.9306 96.0177 17.254 95.8502 16.6379C95.677 16.0824 95.3451 15.6213 94.8343 15.2765C94.4766 15.0924 94.1042 14.922 93.7392 14.7379C93.5206 14.6838 93.222 14.6071 92.8448 14.5062C92.4676 14.402 92.0451 14.255 91.5529 14.0863C91.3206 14.0516 90.9717 13.9611 90.5079 13.8142C88.8915 13.4363 88.1873 12.8436 88.4034 12.045C88.5621 11.4685 88.915 11.0034 89.45 10.686C89.9179 10.3655 90.6026 10.2056 91.5003 10.2056C92.4231 10.2104 93.0973 10.3937 93.5304 10.7789C93.7384 10.9824 93.8841 11.2351 93.9464 11.5306C94.0751 12.1451 94.4903 12.4584 95.1686 12.4609H96.9607C97.295 10.9864 97.091 9.79702 96.3172 8.89184C95.5717 8.06177 94.2896 7.65561 92.4668 7.65561V7.6548Z" fill="#0E203F"></path>
<path d="M102.161 16.5588H106.526C106.975 16.5588 107.399 16.407 107.794 16.1098C108.192 15.7957 108.453 15.4178 108.581 14.981L108.86 13.9611L102.864 13.9676L103.763 10.7143H111.803L112.514 8.11588H102.957C102.51 8.11588 102.09 8.25638 101.693 8.57613C101.29 8.87247 101.039 9.25279 100.921 9.69205L97.1939 23.2486H108.358L109.13 20.4427L101.095 20.4362L102.161 16.5604L102.161 16.5588Z" fill="#0E203F"></path>
<path d="M126.266 9.16957C125.649 8.47354 124.509 8.12794 122.845 8.12794L117.009 8.11502C116.554 8.11502 116.13 8.2644 115.73 8.57932C115.336 8.88212 115.073 9.25355 114.954 9.69685L111.224 23.2688H114.395L116.02 17.3516L119.369 17.3565C120.197 17.3565 120.734 17.5204 120.975 17.845C121.17 18.2326 121.17 18.8624 120.992 19.7345L120.59 21.3728C120.545 21.5481 120.487 21.8702 120.409 22.3289C120.355 22.6599 120.355 22.9757 120.424 23.2696H123.918C123.697 23.1202 123.595 22.7819 123.649 22.2538C123.666 22.0745 123.705 21.8929 123.764 21.6781C123.818 21.473 123.873 21.2848 123.923 21.108L124.331 19.3001C124.556 18.2447 124.604 17.4962 124.459 17.0585C124.311 16.5886 123.937 16.2398 123.314 15.9967C124.162 15.7399 124.849 15.312 125.362 14.7193C125.945 14.108 126.371 13.3272 126.63 12.3954C127.02 10.9767 126.892 9.91406 126.268 9.16957H126.266ZM123.358 12.7394C123.176 13.4136 122.845 13.9126 122.37 14.2381C121.895 14.5578 121.257 14.7193 120.445 14.7193H116.742L117.842 10.7143H121.728C122.434 10.7143 122.932 10.8911 123.193 11.2432C123.491 11.5661 123.543 12.0627 123.357 12.7394H123.358Z" fill="#0E203F"></path>
<path d="M137.826 8.11502H132.209C131.765 8.11502 131.332 8.27328 130.948 8.58254C130.542 8.8918 130.28 9.26324 130.159 9.70412L126.439 23.2655H133.455C135.227 23.2696 136.724 22.8764 137.926 22.0875C139.105 21.2655 139.896 20.1245 140.295 18.6557C140.547 17.7505 140.559 17.0174 140.326 16.4513C140.064 15.8691 139.597 15.4097 138.913 15.0915C139.583 14.8017 140.159 14.4012 140.625 13.907C141.099 13.3749 141.442 12.7297 141.654 11.9658C141.979 10.7635 141.825 9.8099 141.177 9.10094C140.523 8.459 139.406 8.11502 137.827 8.11502H137.826ZM137.061 18.5604C136.866 19.267 136.514 19.7644 136.027 20.0631C135.49 20.3893 134.81 20.5452 133.978 20.5452L130.222 20.5403L131.315 16.5829L135.018 16.5886C135.946 16.5886 136.555 16.7251 136.862 17.0165C137.194 17.3428 137.259 17.862 137.061 18.5604H137.061ZM138.322 12.3671C138.164 12.9203 137.88 13.3272 137.444 13.5953C137.015 13.8585 136.414 13.9821 135.641 13.9821L132.024 13.978L132.911 10.7724L136.482 10.774C137.346 10.7781 137.891 10.8903 138.125 11.1309C138.409 11.3861 138.485 11.7947 138.323 12.3671H138.322Z" fill="#0E203F"></path>
<path d="M147.701 8.11507C147.257 8.11507 146.819 8.29029 146.415 8.59632C146.019 8.90558 145.756 9.27782 145.635 9.71224L141.914 23.2688H145.085L149.259 8.11426H147.701V8.11507Z" fill="#0E203F"></path>
<path d="M70.889 9.18252L69.1253 9.16556L68.3887 12.6667C70.0771 11.9134 71.4766 11.206 72.2132 10.8144C72.2869 10.3848 72.2043 10.0126 71.9688 9.69687C71.7025 9.36258 71.3487 9.18252 70.889 9.18252Z" fill="#0E203F"></path>
<path d="M67.8941 14.9898L66.145 23.2696H69.5907L71.6628 13.429L71.6386 13.513C70.286 14.1081 69.0443 14.5917 67.8933 14.9898H67.8941Z" fill="#0E203F"></path>
<path d="M161.432 17.2677C161.432 17.2677 161.431 17.2677 161.43 17.2677L160.571 8.11426H158.101C157.368 8.11426 156.729 8.48812 156.274 9.15428L147.3 23.2688H150.666L152.508 20.1649H158.469L158.634 23.2688H162L161.432 17.2677ZM157.991 17.5947H154.047L157.947 11.1891L158.345 17.5988C158.111 17.6012 157.991 17.5947 157.991 17.5947Z" fill="#0E203F"></path>
<path d="M59.3207 17.5947H55.3618L59.2648 11.1891L59.5854 16.5329C60.5105 16.4166 61.5401 16.1744 62.6191 15.8457L61.8866 8.11502H59.4227C58.6812 8.11502 58.0442 8.48888 57.5934 9.15504L48.6152 23.2696H51.9767L53.8319 20.1657H59.7958L59.952 23.2696H63.3152L62.7502 17.2685C60.5332 17.6666 59.3215 17.5955 59.3215 17.5955L59.3207 17.5947Z" fill="#0E203F"></path>
<path d="M41.0761 8.16754C39.3795 8.23214 38.0051 8.93464 37.067 9.59434C37.0411 9.61291 37.0039 9.64117 36.9626 9.66863C36.9545 9.67105 36.9391 9.69123 36.9367 9.69123C36.8128 9.78329 36.6914 9.86323 36.5943 9.94397L35.1138 8.34841C34.7634 7.92611 34.2097 7.23895 34.0737 6.85379C33.9612 6.54857 33.9329 6.24415 33.907 6.06086C33.7791 5.43426 33.7119 4.38697 33.7119 4.38697C33.7119 4.38697 33.7119 4.13828 33.5946 3.85324L33.4497 3.48988C33.4497 3.48988 34.6808 2.9513 35.5493 2.98844L36.0868 3.63441L36.0957 3.00055V2.07439C36.0957 2.07439 36.0398 1.58264 35.5671 1.20959C35.2134 0.935047 35.0556 0.909208 34.6306 0.848648C34.0826 0.764671 33.9912 0.91809 33.584 0.532927L33.2068 0L30.9202 0.00403636L30.0128 0.339135C30.0128 0.339135 29.5142 0.462678 29.1848 1.30083L28.5016 3.44951C28.5016 3.44951 28.3155 4.16492 28.2677 5.25097C28.2305 6.33863 28.2507 5.2873 28.2507 5.2873C28.2507 5.2873 28.1989 6.90224 28.0143 7.38914L27.6461 8.66898C27.1086 9.93347 26.5598 10.5544 26.5493 10.573L24.4925 12.9494V12.9583L23.9122 13.6115L23.3399 12.9583L23.3512 12.9478L22.0788 11.504L21.9056 11.2965H21.8991L21.2621 10.5738C21.2556 10.5552 20.6753 9.89149 20.1329 8.56159L19.7905 7.39076C19.6044 6.90385 19.5526 5.28892 19.5526 5.28892C19.5526 5.28892 19.5744 6.34024 19.5331 5.25258C19.4943 4.16654 19.3057 3.45112 19.3057 3.45112L18.6169 1.30244C18.281 0.463485 17.7913 0.340752 17.7913 0.340752L16.8896 0.00565041L14.5964 0.00161405L14.2306 0.534544C13.8226 0.919706 13.7166 0.766287 13.1727 0.850264C12.7412 0.910824 12.5858 0.936663 12.2297 1.2112C11.7683 1.58506 11.7035 2.076 11.7035 2.076V3.00217L11.7319 3.63603L12.2539 2.99006C13.1362 2.95372 14.3666 3.49149 14.3666 3.49149L14.2192 3.85485C14.0914 4.13989 14.0914 4.38859 14.0914 4.38859C14.0914 4.38859 14.029 5.43588 13.9028 6.06247C13.868 6.24577 13.842 6.55018 13.7336 6.85541C13.5515 7.38995 12.6109 8.43562 12.3988 8.67382L11.2155 9.94559C10.3121 9.21644 8.74507 8.24425 6.74497 8.16916C4.60727 8.07953 2.54161 8.99843 0.598977 10.8968L0 11.4911L0.448423 12.1912C0.515606 12.301 2.10856 14.7654 4.9788 15.3209C6.83401 15.6802 8.85758 15.1174 10.7743 13.7431L9.37319 12.1629C7.95102 13.19 6.66079 13.5283 5.38999 13.2885C4.20013 13.06 3.28628 12.3187 2.75206 11.7479C4.04472 10.7006 5.3479 10.1822 6.63813 10.2339C8.9021 10.3162 10.5064 12.0918 10.5153 12.1064L13.8736 15.9887L15.248 14.4012L12.6732 11.4313L15.6851 7.68306L16.9098 6.15452C17.1963 7.67095 18.5699 10.2815 19.1576 11.1899L15.8162 15.0706L14.4831 16.6225L14.4653 16.6443L14.4524 16.6637L13.0326 18.311C12.2888 19.0942 9.69534 21.6547 6.65027 23.2858C6.65027 23.2858 7.60702 23.9398 8.85597 23.9277C9.60712 23.9124 10.4756 23.6491 11.2964 22.8667C11.6364 22.5502 12.1325 22.0988 12.6271 21.6402C12.6271 21.6402 12.3972 22.1876 12.9347 23.197C13.3572 23.9665 14.0784 24.4316 15.0732 24.4655C16.6224 24.5236 17.7281 23.717 18.4955 22.7819L17.3922 21.5642C17.3922 21.5642 16.3934 22.9894 15.1711 22.1198C14.7227 21.6983 14.7616 20.9845 14.7616 20.9845C14.7616 20.9845 14.7421 20.7431 14.9785 20.2408C15.8106 18.8358 18.0859 15.8764 19.4336 14.1468L20.4721 12.8323L21.9606 14.5401L21.9647 14.5336L22.5458 15.2079L22.541 15.2184L22.5798 15.2555L19.984 18.4636L21.1585 19.791L23.9081 16.7913L23.9105 16.801L23.9186 16.7913L27.2753 20.5202L28.6692 22.0875L29.1613 22.6059L29.5102 22.9886C30.271 23.8252 31.3306 24.5172 32.7519 24.4655C33.7467 24.4308 34.4728 23.9657 34.8929 23.197C35.4344 22.1876 35.2053 21.6402 35.2053 21.6402C35.6974 22.098 36.1872 22.5502 36.5295 22.8667C38.7352 24.9572 41.1732 23.2858 41.1732 23.2858C38.1395 21.6547 35.5453 19.0942 34.8087 18.311L33.9936 17.3751L32.297 19.2686C33.1138 20.3934 33.083 20.9853 33.083 20.9853C33.083 20.9853 33.1048 21.6991 32.6605 22.1206C31.4512 22.9999 30.3714 21.4892 30.3714 21.4892L27.0001 17.3993L26.9912 17.3751L25.2493 15.245L25.2858 15.2087H25.2841L26.5671 13.7302H26.5582L27.3369 12.8331L27.6817 13.2594L29.8833 16.2342L31.4309 14.402L28.9088 11.462L28.9071 11.4693L28.6643 11.1899C29.2536 10.2815 30.6231 7.67095 30.9072 6.15452L32.1376 7.68306L35.1454 11.4313L34.5278 12.1443L32.0008 15.0698L29.8097 17.5818L29.1621 18.3449L30.5317 19.9275L31.609 18.6687V18.6735L31.7369 18.5395L33.3687 16.6524L34.3247 15.5454L37.3042 12.1064C37.3195 12.0918 38.9076 10.3162 41.183 10.2339C42.4813 10.1822 43.7772 10.7006 45.0666 11.7479C44.5316 12.3187 43.6234 13.06 42.4335 13.2885C41.1571 13.5283 39.8547 13.1779 38.4309 12.1605L37.0654 13.7302C38.9837 15.1069 40.9814 15.6802 42.8471 15.3209C45.706 14.7654 47.2966 12.301 47.3678 12.1912L47.8187 11.4911L47.227 10.8968C45.2787 8.99843 43.209 8.07953 41.0745 8.16916L41.0761 8.16754Z" fill="#0E203F"></path>
<path d="M25.8677 26.598L24.4609 28.2517L24.622 28.4399L24.618 28.4439L25.4719 29.4322C25.9203 29.9813 27.158 31.3968 27.3401 32.8567C27.3401 32.8567 28.5623 31.1788 27.6412 28.8379C27.6412 28.8379 27.4979 28.2138 25.8685 26.598H25.8677Z" fill="#0E203F"></path>
<path d="M21.9541 25.3165L23.3318 23.7347L20.604 20.6017L19.2385 19.0126L17.9685 17.5317L16.7098 19.2072L18.1377 20.8706L19.8132 22.8481L21.9541 25.3165Z" fill="#0E203F"></path>
<path d="M24.7589 23.4319L22.5394 25.9908C20.3119 28.0643 20.1387 28.8379 20.1387 28.8379C19.2086 31.1787 20.4398 32.8567 20.4398 32.8567C20.6154 31.3968 21.8595 29.9813 22.3014 29.4322L23.1635 28.4438V28.4398L26.2215 24.9031L28.033 22.819L26.6853 21.2017L24.7589 23.4311V23.4319Z" fill="#0E203F"></path>
</svg>