<?xml version="1.0" encoding="UTF-8" standalone="no"?>
<!-- Created with Inkscape (http://www.inkscape.org/) -->

<svg
   xmlns:dc="http://purl.org/dc/elements/1.1/"
   xmlns:cc="http://creativecommons.org/ns#"
   xmlns:rdf="http://www.w3.org/1999/02/22-rdf-syntax-ns#"
   xmlns:svg="http://www.w3.org/2000/svg"
   xmlns="http://www.w3.org/2000/svg"
   xmlns:sodipodi="http://sodipodi.sourceforge.net/DTD/sodipodi-0.dtd"
   xmlns:inkscape="http://www.inkscape.org/namespaces/inkscape"
   width="259.71332"
   height="44.759628"
   viewBox="0 0 68.715812 11.842651"
   version="1.1"
   id="svg5734"
   inkscape:version="0.92.0 r15299"
   sodipodi:docname="air tanzania.svg">
  <defs
     id="defs5728" />
  <sodipodi:namedview
     id="base"
     pagecolor="#ffffff"
     bordercolor="#666666"
     borderopacity="1.0"
     inkscape:pageopacity="0.0"
     inkscape:pageshadow="2"
     inkscape:zoom="3.480612"
     inkscape:cx="128.85665"
     inkscape:cy="-17.804567"
     inkscape:document-units="mm"
     inkscape:current-layer="layer1"
     showgrid="false"
     fit-margin-top="0"
     fit-margin-left="0"
     fit-margin-right="0"
     fit-margin-bottom="0"
     units="px"
     inkscape:window-width="1280"
     inkscape:window-height="744"
     inkscape:window-x="-4"
     inkscape:window-y="-4"
     inkscape:window-maximized="1" />
  <metadata
     id="metadata5731">
    <rdf:RDF>
      <cc:Work
         rdf:about="">
        <dc:format>image/svg+xml</dc:format>
        <dc:type
           rdf:resource="http://purl.org/dc/dcmitype/StillImage" />
        <dc:title></dc:title>
      </cc:Work>
    </rdf:RDF>
  </metadata>
  <g
     inkscape:label="Layer 1"
     inkscape:groupmode="layer"
     id="layer1"
     transform="translate(-35.454294,-160.03433)">
    <g
       id="g5871">
      <path
         d="m 68.233939,170.9164 0.110418,-0.43956 0.20637,-0.90981 0.0903,-0.42052 c -0.24307,7.1e-4 -0.456848,0.006 -0.639939,0.0131 0.01939,-0.0769 0.0349,-0.14464 0.0469,-0.20285 0.25223,0.001 0.52352,0.001 0.81562,0.001 l 0.47625,-0.001 h 0.253651 c -0.02291,0.085 -0.0381,0.15275 -0.0476,0.20285 -0.1524,-0.008 -0.321728,-0.0131 -0.508709,-0.0131 h -0.121701 l -0.146759,0.635 -0.19509,0.895 -0.0441,0.23989 -0.142521,-0.003 c -0.01339,0 -0.0642,0.001 -0.153109,0.003"
         style="fill:#03b14d;fill-opacity:1;fill-rule:nonzero;stroke:none;stroke-width:0.35277778"
         id="path4354"
         inkscape:connector-curvature="0" />
      <path
         d="m 69.397047,170.9164 0.151691,-0.62442 0.190151,-0.85125 0.097,-0.48401 0.135811,0.001 c 0.0339,0 0.078,-3.5e-4 0.132998,-0.001 l -0.124179,0.49883 -0.0667,0.29739 c 0.0317,-0.0406 0.0579,-0.0734 0.0797,-0.0981 0.0222,-0.0243 0.049,-0.0487 0.0801,-0.0727 0.0317,-0.0247 0.0649,-0.0455 0.097,-0.0624 0.0332,-0.0176 0.0698,-0.0324 0.108299,-0.0455 0.0392,-0.0123 0.0854,-0.0236 0.139351,-0.0321 0.0522,-0.008 0.107252,-0.0131 0.16369,-0.0131 0.085,0 0.164042,0.009 0.237069,0.0272 0.073,0.0184 0.134411,0.0487 0.181322,0.0907 0.0476,0.0416 0.0766,0.0917 0.0861,0.15063 0.01,0.0582 0.009,0.11713 -0.003,0.17816 -0.004,0.0229 -0.01021,0.0554 -0.01831,0.0942 -0.0141,0.0596 -0.0296,0.12876 -0.0498,0.20778 l -0.122061,0.52776 c -0.0131,0.0571 -0.0275,0.1277 -0.0441,0.21096 -0.0571,-0.002 -0.101962,-0.003 -0.132302,-0.003 -0.0339,0 -0.0811,0.001 -0.141809,0.003 0.0296,-0.10301 0.0723,-0.26599 0.12735,-0.48789 0.0543,-0.2219 0.0903,-0.37536 0.10619,-0.46143 0.01381,-0.0766 0.0109,-0.1397 -0.008,-0.1898 -0.02011,-0.0505 -0.06,-0.0882 -0.122759,-0.11536 -0.0614,-0.0272 -0.1323,-0.0406 -0.21449,-0.0406 -0.0741,0 -0.14605,0.0113 -0.21414,0.0332 -0.0621,0.0205 -0.117121,0.049 -0.16545,0.0843 -0.0473,0.037 -0.0889,0.0811 -0.12242,0.1337 -0.0381,0.0568 -0.0677,0.1136 -0.0875,0.17075 -0.0346,0.0907 -0.0698,0.2166 -0.105489,0.37817 -0.0222,0.0967 -0.0571,0.26176 -0.106892,0.49495 -0.0557,-0.002 -0.0963,-0.003 -0.124878,-0.003 -0.02609,0 -0.0723,0.001 -0.1397,0.003"
         style="fill:#03b14d;fill-opacity:1;fill-rule:nonzero;stroke:none;stroke-width:0.35277778"
         id="path4358"
         inkscape:connector-curvature="0" />
      <path
         d="m 71.653416,170.00486 h 0.887593 c 0.01,-0.0607 0.0145,-0.10689 0.01378,-0.14041 -7.93e-4,-0.0335 -0.008,-0.0684 -0.02011,-0.10442 -0.0123,-0.036 -0.0325,-0.0667 -0.0593,-0.0935 -0.0282,-0.0258 -0.0628,-0.0466 -0.105482,-0.06 -0.0427,-0.0141 -0.0903,-0.0208 -0.142518,-0.0208 -0.0565,0 -0.111482,0.007 -0.166161,0.0229 -0.0536,0.0152 -0.102661,0.0363 -0.146751,0.0635 -0.0448,0.0272 -0.0833,0.0582 -0.117128,0.0938 -0.0335,0.0356 -0.0607,0.0702 -0.0797,0.10407 -0.02011,0.0335 -0.0416,0.0783 -0.0642,0.13476 m 0.877711,0.68333 c -0.02051,0.0522 -0.0455,0.11924 -0.0723,0.20144 -0.0991,0.0226 -0.183799,0.0377 -0.25612,0.0459 -0.0716,0.008 -0.14216,0.0123 -0.211659,0.0123 -0.124182,0 -0.232841,-0.0137 -0.325971,-0.0427 -0.0935,-0.0282 -0.16863,-0.079 -0.226479,-0.14993 -0.0571,-0.0716 -0.0931,-0.15381 -0.106891,-0.24483 -0.0145,-0.0921 -0.01159,-0.18874 0.007,-0.29175 0.02641,-0.14252 0.078,-0.27481 0.157329,-0.39687 0.0783,-0.12171 0.180981,-0.21802 0.307981,-0.28752 0.125939,-0.0698 0.276931,-0.10477 0.451199,-0.10477 0.091,0 0.17427,0.0127 0.252241,0.0381 0.078,0.025 0.13899,0.0635 0.184499,0.11536 0.0448,0.0515 0.0758,0.11571 0.091,0.19191 0.0159,0.0758 0.0159,0.1591 -7.94e-4,0.24906 -0.005,0.0339 -0.01521,0.0674 -0.0268,0.10054 h -1.136301 c -0.01371,0.0522 -0.02331,0.0924 -0.0282,0.1203 -0.01799,0.10054 -0.01381,0.19262 0.01521,0.27763 0.0282,0.0847 0.0815,0.14888 0.157689,0.19227 0.078,0.0437 0.172511,0.0649 0.283278,0.0649 0.127712,0 0.289632,-0.0307 0.483661,-0.0914"
         style="fill:#03b14d;fill-opacity:1;fill-rule:nonzero;stroke:none;stroke-width:0.35277778"
         id="path4362"
         inkscape:connector-curvature="0" />
      <path
         d="m 75.022798,170.9164 -0.10195,-0.72249 -0.19862,-1.23719 c 0.0547,0.001 0.102659,0.001 0.145,0.001 0.0448,0 0.0921,-3.5e-4 0.144629,-0.001 l 0.10654,0.85584 0.0882,0.63394 0.0353,0.2286 c 0.207442,-0.30233 0.407821,-0.61066 0.602203,-0.92463 -0.0371,-0.27129 -0.0797,-0.53587 -0.12877,-0.79375 0.0543,0.001 0.102658,0.001 0.14605,0.001 0.0441,0 0.0931,-3.5e-4 0.144639,-0.001 0.009,0.0984 0.01659,0.17851 0.0236,0.23989 0.007,0.0614 0.01831,0.1404 0.0349,0.23848 0.0794,-0.11889 0.17639,-0.27799 0.291399,-0.47837 0.0547,0.001 0.102661,0.001 0.146751,0.001 0.0469,0 0.096,-3.5e-4 0.147461,-0.001 -0.17956,0.2607 -0.35736,0.52599 -0.531281,0.79622 0.0353,0.30656 0.0808,0.61383 0.134411,0.92216 l 0.552799,-0.85266 0.40358,-0.63994 0.13794,-0.22578 c 0.055,0.001 0.104061,0.001 0.145341,0.001 0.0441,0 0.0917,-3.5e-4 0.14464,-0.001 l -0.652992,0.97755 -0.470609,0.71825 -0.168979,0.26388 c -0.0536,-0.002 -0.105481,-0.003 -0.154162,-0.003 -0.0533,0 -0.104068,0.001 -0.155929,0.003 -0.0346,-0.28822 -0.0787,-0.57115 -0.130879,-0.84808 -0.197562,0.28152 -0.386652,0.56374 -0.56692,0.84808 -0.054,-0.002 -0.105482,-0.003 -0.157332,-0.003 -0.0536,0 -0.105839,0.001 -0.156988,0.003"
         style="fill:#03b14d;fill-opacity:1;fill-rule:nonzero;stroke:none;stroke-width:0.35277778"
         id="path4366"
         inkscape:connector-curvature="0" />
      <path
         d="m 77.799507,169.14909 c 0.01939,-0.09 0.0332,-0.15769 0.0413,-0.20391 0.0543,0.002 0.101959,0.003 0.143938,0.003 0.0526,0 0.10019,-7.2e-4 0.143582,-0.003 -0.008,0.03 -0.02291,0.0981 -0.0462,0.20391 -0.054,-0.001 -0.0991,-0.001 -0.138639,-0.001 -0.0377,0 -0.0868,0 -0.143931,0.001 m -0.39194,1.76742 0.0921,-0.36195 0.142169,-0.61736 0.0984,-0.47414 0.137229,7.1e-4 0.134411,-7.1e-4 c -0.0395,0.14852 -0.0773,0.30445 -0.116771,0.46779 -0.0392,0.16333 -0.0783,0.34148 -0.119589,0.53481 -0.0416,0.19332 -0.0713,0.34325 -0.091,0.45085 -0.0621,-0.002 -0.10618,-0.003 -0.133699,-0.003 -0.024,0 -0.073,0.001 -0.14323,0.003"
         style="fill:#03b14d;fill-opacity:1;fill-rule:nonzero;stroke:none;stroke-width:0.35277778"
         id="path4370"
         inkscape:connector-curvature="0" />
      <path
         d="m 78.089498,170.9164 c 0.156988,-0.60007 0.270928,-1.08409 0.33972,-1.45344 l 0.134408,10e-4 c 0.0332,0 0.0766,-3.5e-4 0.129472,-10e-4 l -0.0716,0.28645 c 0.0317,-0.0402 0.0579,-0.0713 0.0765,-0.0928 0.01839,-0.0215 0.0427,-0.0441 0.0716,-0.0684 0.0296,-0.0236 0.0624,-0.0459 0.100541,-0.0663 0.0363,-0.0212 0.0797,-0.0381 0.128059,-0.0519 0.0483,-0.0138 0.0967,-0.0243 0.145341,-0.031 0.0483,-0.006 0.0952,-0.01 0.142869,-0.01 0.0847,0 0.1651,0.01 0.240951,0.0303 0.0759,0.0201 0.13512,0.0529 0.1778,0.0981 0.0434,0.0452 0.0674,0.097 0.0751,0.15311 0.007,0.0564 0.005,0.11712 -0.008,0.18238 -0.0011,0.0124 -0.007,0.0367 -0.0145,0.0716 -0.007,0.0353 -0.0176,0.0818 -0.0307,0.13899 l -0.14006,0.60183 c -0.0131,0.0568 -0.0268,0.12735 -0.0427,0.21096 -0.0448,-0.002 -0.0868,-0.003 -0.125939,-0.003 -0.049,0 -0.0952,0.001 -0.13794,0.003 0.031,-0.11536 0.0586,-0.22754 0.0833,-0.33443 l 0.0815,-0.33443 c 0.0268,-0.11535 0.0455,-0.20179 0.0557,-0.25929 0.01519,-0.0847 0.0131,-0.1524 -0.008,-0.20214 -0.0205,-0.0508 -0.0603,-0.0892 -0.121711,-0.11642 -0.0607,-0.0272 -0.131587,-0.0406 -0.213079,-0.0406 -0.11571,0 -0.21908,0.0258 -0.311499,0.0787 -0.084,0.0487 -0.155581,0.11818 -0.213429,0.2085 -0.0406,0.0639 -0.078,0.15804 -0.112893,0.28433 -0.0427,0.14992 -0.0974,0.3884 -0.163337,0.71578 -0.0547,-0.002 -0.0981,-0.003 -0.128411,-0.003 -0.03,0 -0.0762,0.001 -0.1397,0.003"
         style="fill:#03b14d;fill-opacity:1;fill-rule:nonzero;stroke:none;stroke-width:0.35277778"
         id="path4374"
         inkscape:connector-curvature="0" />
      <path
         d="m 81.420417,169.64312 c -0.106889,-0.0212 -0.208841,-0.0317 -0.305149,-0.0317 -0.0974,0 -0.18874,0.0109 -0.275521,0.0332 -0.0878,0.0219 -0.171098,0.0624 -0.250119,0.121 -0.0794,0.0582 -0.146761,0.13335 -0.203552,0.22613 -0.055,0.0935 -0.0914,0.18909 -0.110069,0.28893 -0.0173,0.0924 -0.01519,0.1778 0.006,0.254 0.02151,0.0765 0.0649,0.13405 0.13158,0.17321 0.0663,0.0388 0.14641,0.0582 0.239189,0.0582 0.0808,0 0.15522,-0.0138 0.222602,-0.0409 0.0681,-0.0272 0.13158,-0.0692 0.190148,-0.12524 0.0614,-0.0589 0.111831,-0.12629 0.15028,-0.20143 0.0282,-0.0536 0.0571,-0.13335 0.0868,-0.23813 0.02331,-0.0847 0.0628,-0.25647 0.117832,-0.51717 m -1.453801,1.69404 c 0.12383,0.0378 0.2286,0.0639 0.31468,0.0776 0.0857,0.0131 0.16475,0.0198 0.23777,0.0198 0.0822,0 0.16052,-0.0109 0.23495,-0.0332 0.0621,-0.018 0.116419,-0.0441 0.164751,-0.0772 0.0367,-0.0261 0.0688,-0.0589 0.0977,-0.10091 0.0353,-0.0543 0.0663,-0.12382 0.0924,-0.20778 0.02151,-0.0681 0.054,-0.2032 0.0952,-0.40604 -0.0317,0.0427 -0.0593,0.0776 -0.0843,0.10406 -0.024,0.0272 -0.055,0.0547 -0.0928,0.0836 -0.0381,0.0282 -0.0815,0.0533 -0.128411,0.0748 -0.0473,0.0219 -0.101949,0.0399 -0.161218,0.0533 -0.0603,0.0123 -0.121002,0.0187 -0.18238,0.0187 -0.0903,0 -0.17286,-0.012 -0.247301,-0.036 -0.0744,-0.0236 -0.13794,-0.0639 -0.189439,-0.11959 -0.0526,-0.055 -0.0864,-0.12559 -0.101962,-0.21202 -0.01659,-0.0864 -0.01659,-0.17569 0,-0.26988 0.024,-0.12911 0.0702,-0.25188 0.1397,-0.369 0.0695,-0.11677 0.157702,-0.21449 0.265292,-0.29281 0.107598,-0.079 0.221898,-0.13441 0.34467,-0.16616 0.12241,-0.0332 0.253288,-0.049 0.39193,-0.049 0.15276,0 0.339728,0.0197 0.560208,0.0589 l -0.049,0.17674 -0.192971,0.80504 c -0.0021,0.0166 -0.0226,0.11395 -0.0607,0.29245 l -0.0624,0.2974 c -0.0173,0.0631 -0.036,0.11923 -0.0579,0.16651 -0.01871,0.0399 -0.0423,0.0765 -0.0684,0.11253 -0.024,0.0314 -0.0508,0.0614 -0.0833,0.0889 -0.0303,0.0272 -0.0656,0.0522 -0.104069,0.0744 -0.0385,0.0219 -0.0794,0.0399 -0.121361,0.0529 -0.0593,0.0194 -0.11923,0.0332 -0.180618,0.0416 -0.0695,0.0102 -0.137581,0.0155 -0.205312,0.0155 -0.0977,0 -0.19227,-0.005 -0.283638,-0.0141 -0.0924,-0.01 -0.19367,-0.0279 -0.3048,-0.0543 l 0.01,-0.0794 c 0.003,-0.019 0.007,-0.0617 0.0131,-0.12735"
         style="fill:#03b14d;fill-opacity:1;fill-rule:nonzero;stroke:none;stroke-width:0.35277778"
         id="path4378"
         inkscape:connector-curvature="0" />
      <path
         d="m 81.735097,170.8892 0.0109,-0.10548 c 0.0021,-0.0116 0.005,-0.0483 0.008,-0.10971 0.140409,0.0639 0.275519,0.096 0.40499,0.096 0.0677,0 0.126299,-0.009 0.175678,-0.0258 0.0504,-0.0169 0.0896,-0.0423 0.118541,-0.0762 0.0296,-0.0342 0.0483,-0.0688 0.0543,-0.10548 0.004,-0.0198 0.004,-0.0402 0.0011,-0.0603 -0.0021,-0.0201 -0.009,-0.0392 -0.0176,-0.0579 -0.01,-0.0184 -0.0258,-0.0388 -0.0462,-0.0614 -0.0222,-0.0222 -0.067,-0.0649 -0.13511,-0.127 -0.0681,-0.0621 -0.12065,-0.11042 -0.154519,-0.14534 -0.0349,-0.0356 -0.0639,-0.0713 -0.0875,-0.1076 -0.02119,-0.037 -0.0363,-0.0744 -0.0441,-0.11183 -0.006,-0.037 -0.006,-0.0751 0,-0.11324 0.01201,-0.061 0.0427,-0.1203 0.0931,-0.17745 0.0515,-0.0579 0.117118,-0.10089 0.198261,-0.12911 0.0808,-0.0279 0.172508,-0.0423 0.275169,-0.0423 0.1143,0 0.23777,0.0131 0.369358,0.0392 -0.01061,0.0744 -0.01659,0.14252 -0.02289,0.20532 -0.10337,-0.0445 -0.20955,-0.0663 -0.31609,-0.0663 -0.0593,0 -0.115009,0.007 -0.16828,0.0219 -0.0522,0.0155 -0.0931,0.0374 -0.122061,0.067 -0.0289,0.0296 -0.0459,0.0624 -0.0529,0.0981 -0.004,0.0226 -0.004,0.0444 0,0.066 0.004,0.0208 0.01381,0.0437 0.0303,0.0677 0.01519,0.0247 0.036,0.0483 0.06,0.0723 0.024,0.0243 0.0737,0.0695 0.14746,0.13547 0.0737,0.0663 0.12382,0.1143 0.150281,0.14569 0.0254,0.0325 0.0466,0.0646 0.0632,0.0981 0.01659,0.0339 0.0275,0.0663 0.0317,0.10019 0.004,0.0332 0.004,0.0663 -0.003,0.10054 -0.0123,0.067 -0.0441,0.12947 -0.0963,0.18697 -0.0519,0.0575 -0.12065,0.1016 -0.208142,0.13335 -0.0868,0.0314 -0.181329,0.0473 -0.282578,0.0473 -0.0427,0 -0.0921,-0.003 -0.14887,-0.008 -0.0564,-0.006 -0.103722,-0.0113 -0.14323,-0.0187 -0.0385,-0.007 -0.0868,-0.0176 -0.14393,-0.0321"
         style="fill:#03b14d;fill-opacity:1;fill-rule:nonzero;stroke:none;stroke-width:0.35277778"
         id="path4382"
         inkscape:connector-curvature="0" />
      <path
         d="m 85.554267,169.61141 c -0.10125,0 -0.198609,0.0243 -0.2921,0.0734 -0.0938,0.0487 -0.170389,0.12206 -0.228949,0.22048 -0.0586,0.0977 -0.0977,0.20461 -0.11889,0.32103 -0.01799,0.1009 -0.01799,0.19191 2.64e-4,0.27305 0.01871,0.0811 0.0621,0.1464 0.131241,0.19579 0.0674,0.0501 0.156279,0.0748 0.265639,0.0748 0.0737,0 0.147111,-0.0123 0.21802,-0.0363 0.0709,-0.0247 0.135461,-0.0656 0.195432,-0.12136 0.06,-0.0568 0.10972,-0.12629 0.148169,-0.20743 0.0388,-0.0819 0.067,-0.16793 0.0829,-0.25753 0.0159,-0.0843 0.0176,-0.16369 0.007,-0.23707 -0.01019,-0.0737 -0.0356,-0.13299 -0.0765,-0.17744 -0.0413,-0.0441 -0.0907,-0.0755 -0.149231,-0.0942 -0.0586,-0.0183 -0.119941,-0.0272 -0.183441,-0.0272 m 0.0399,-0.18239 c 0.104071,0 0.200731,0.0145 0.29034,0.043 0.0889,0.0289 0.16228,0.0748 0.220491,0.13653 0.0571,0.0624 0.0949,0.14111 0.113591,0.23565 0.01799,0.0945 0.01799,0.19438 -0.0021,0.29951 -0.0208,0.1143 -0.0593,0.22366 -0.116411,0.32773 -0.0571,0.10372 -0.12736,0.19262 -0.20955,0.26564 -0.0826,0.0723 -0.17639,0.1263 -0.282581,0.15981 -0.105129,0.0339 -0.21554,0.0508 -0.32984,0.0508 -0.1069,0 -0.203909,-0.0152 -0.2921,-0.0455 -0.0889,-0.031 -0.16193,-0.0787 -0.21908,-0.14394 -0.0575,-0.0649 -0.0945,-0.14463 -0.113948,-0.23882 -0.0176,-0.0942 -0.0173,-0.19332 7.93e-4,-0.29669 0.0289,-0.15557 0.0875,-0.29633 0.175681,-0.42086 0.0882,-0.12488 0.202139,-0.21872 0.33973,-0.28011 0.139341,-0.0614 0.280459,-0.0928 0.425091,-0.0928"
         style="fill:#03b14d;fill-opacity:1;fill-rule:nonzero;stroke:none;stroke-width:0.35277778"
         id="path4386"
         inkscape:connector-curvature="0" />
      <path
         d="m 86.420339,170.9164 0.0642,-0.26352 0.224361,-1.00965 h -0.185912 c 0.01381,-0.0469 0.0289,-0.10654 0.0448,-0.17816 h 0.191559 c 0.01939,-0.0889 0.0339,-0.15698 0.0441,-0.20461 0.01159,-0.0476 0.0254,-0.09 0.0434,-0.12806 0.0173,-0.0374 0.0377,-0.0695 0.0635,-0.0952 0.0254,-0.0268 0.0579,-0.0512 0.0977,-0.073 0.0406,-0.0219 0.0861,-0.0381 0.135821,-0.0476 0.0501,-0.0106 0.106889,-0.0159 0.168619,-0.0159 0.0829,0 0.17639,0.0123 0.280461,0.0367 -0.007,0.0571 -0.0145,0.11782 -0.01799,0.18168 -0.0889,-0.0318 -0.17145,-0.0469 -0.249412,-0.0469 -0.0377,0 -0.073,0.004 -0.105838,0.0141 -0.0339,0.01 -0.0621,0.0226 -0.0843,0.0381 -0.0226,0.0155 -0.042,0.0363 -0.0593,0.0624 -0.01619,0.0258 -0.031,0.0564 -0.042,0.0917 -0.0109,0.0353 -0.0205,0.0769 -0.0296,0.12489 l -0.0123,0.0617 h 0.413459 c -0.01241,0.0416 -0.0275,0.10054 -0.0455,0.17816 h -0.3997 l -0.16051,0.73236 -0.111479,0.54081 c -0.0614,-0.002 -0.106191,-0.003 -0.13511,-0.003 -0.0282,0 -0.0723,0.001 -0.133001,0.003"
         style="fill:#03b14d;fill-opacity:1;fill-rule:nonzero;stroke:none;stroke-width:0.35277778"
         id="path4390"
         inkscape:connector-curvature="0" />
      <path
         d="m 89.412959,169.87634 0.450498,-0.40746 0.38241,-0.35701 c 0.0275,-0.0268 0.0801,-0.0783 0.15734,-0.15487 l 0.16933,0.001 0.162632,-0.001 -0.868892,0.77329 -0.15028,0.13899 0.0635,0.10196 c 0.01381,0.0215 0.11218,0.16686 0.29492,0.43427 l 0.35419,0.51117 c -0.0854,-0.002 -0.14182,-0.004 -0.170389,-0.004 -0.0441,0 -0.10513,0.001 -0.183801,0.004 l -0.11148,-0.19332 z m -0.537991,1.04034 0.140409,-0.56444 0.24271,-1.10984 c 0.01381,-0.0624 0.0254,-0.12418 0.037,-0.18768 l 0.01659,-0.0977 0.149582,0.001 0.143928,-0.001 -0.124878,0.52388 -0.257532,1.16945 -0.0529,0.26635 -0.144291,-0.004 c -0.01381,0 -0.0639,0.001 -0.15064,0.004"
         style="fill:#03b14d;fill-opacity:1;fill-rule:nonzero;stroke:none;stroke-width:0.35277778"
         id="path4394"
         inkscape:connector-curvature="0" />
      <path
         d="m 91.030798,169.14909 c 0.02011,-0.09 0.0332,-0.15769 0.042,-0.20391 0.0536,0.002 0.10195,0.003 0.14323,0.003 0.0526,0 0.1016,-7.2e-4 0.14428,-0.003 -0.008,0.03 -0.0236,0.0981 -0.0462,0.20391 -0.054,-0.001 -0.0995,-0.001 -0.138642,-0.001 -0.0385,0 -0.0868,0 -0.144639,0.001 m -0.391229,1.76742 0.0914,-0.36195 0.142172,-0.61736 0.0984,-0.47414 0.137938,7.1e-4 0.133702,-7.1e-4 c -0.0388,0.14852 -0.0773,0.30445 -0.116772,0.46779 -0.0385,0.16333 -0.0783,0.34148 -0.11888,0.53481 -0.0416,0.19332 -0.072,0.34325 -0.091,0.45085 -0.0621,-0.002 -0.106889,-0.003 -0.1337,-0.003 -0.02471,0 -0.0723,0.001 -0.143229,0.003"
         style="fill:#03b14d;fill-opacity:1;fill-rule:nonzero;stroke:none;stroke-width:0.35277778"
         id="path4398"
         inkscape:connector-curvature="0" />
      <path
         d="m 91.331717,170.9164 c 0.0737,-0.29492 0.156281,-0.64417 0.249409,-1.0481 0.0667,-0.29351 0.131591,-0.59761 0.195091,-0.91158 l 0.13829,0.001 c 0.0289,0 0.073,-3.5e-4 0.133,-0.001 l -0.200379,0.84279 -0.188741,0.85301 -0.054,0.26388 c -0.0586,-0.002 -0.10196,-0.003 -0.130882,-0.003 -0.01159,0 -0.0593,0.001 -0.141819,0.003"
         style="fill:#03b14d;fill-opacity:1;fill-rule:nonzero;stroke:none;stroke-width:0.35277778"
         id="path4402"
         inkscape:connector-curvature="0" />
      <path
         d="m 92.424618,169.14909 c 0.02011,-0.09 0.0346,-0.15769 0.042,-0.20391 0.0536,0.002 0.101949,0.003 0.143931,0.003 0.0526,0 0.100899,-7.2e-4 0.143579,-0.003 -0.008,0.03 -0.02291,0.0981 -0.0455,0.20391 -0.0547,-0.001 -0.10019,-0.001 -0.139351,-0.001 -0.0377,0 -0.0861,0 -0.144639,0.001 m -0.39052,1.76742 0.0914,-0.36195 0.14147,-0.61736 0.0991,-0.47414 0.137231,7.1e-4 0.134409,-7.1e-4 c -0.0388,0.14852 -0.0773,0.30445 -0.117481,0.46779 -0.0385,0.16333 -0.0783,0.34148 -0.118879,0.53481 -0.0409,0.19332 -0.0713,0.34325 -0.0903,0.45085 -0.0628,-0.002 -0.107598,-0.003 -0.134408,-0.003 -0.024,0 -0.0723,0.001 -0.142521,0.003"
         style="fill:#03b14d;fill-opacity:1;fill-rule:nonzero;stroke:none;stroke-width:0.35277778"
         id="path4406"
         inkscape:connector-curvature="0" />
      <path
         d="m 92.721658,170.9164 0.0543,-0.20849 c 0.0113,-0.0438 0.0275,-0.11254 0.0497,-0.20814 l 0.1965,-0.87348 c 0.01371,-0.072 0.024,-0.127 0.0303,-0.16333 0.0466,6.8e-4 0.0892,10e-4 0.12876,10e-4 0.0413,0 0.0818,-3.5e-4 0.123119,-10e-4 l -0.0617,0.26634 c 0.0434,-0.0533 0.0819,-0.096 0.115009,-0.12806 0.0328,-0.031 0.0744,-0.0607 0.123122,-0.0875 0.0497,-0.0268 0.104769,-0.0473 0.164039,-0.0621 0.06,-0.0152 0.12065,-0.0226 0.182739,-0.0226 0.0427,0 0.084,0.006 0.12382,0.0145 0.0395,0.01 0.0758,0.0233 0.107601,0.0399 0.0325,0.0173 0.0586,0.0374 0.0808,0.0589 0.0205,0.0222 0.0363,0.0459 0.0473,0.0723 0.0113,0.0258 0.01939,0.0628 0.0265,0.11148 0.0804,-0.11007 0.170042,-0.18697 0.269872,-0.23107 0.0984,-0.0434 0.203909,-0.066 0.316439,-0.066 0.0716,0 0.13829,0.0113 0.201089,0.0339 0.0635,0.0212 0.11077,0.0529 0.14252,0.0938 0.0325,0.0413 0.0519,0.0843 0.0564,0.12877 0.006,0.0448 0.004,0.0896 -0.004,0.13405 -0.009,0.0459 -0.025,0.11466 -0.0483,0.20708 -0.02331,0.0917 -0.0571,0.23143 -0.100541,0.4191 -0.0427,0.18839 -0.0773,0.34537 -0.100539,0.47061 -0.0526,-0.002 -0.0938,-0.003 -0.123471,-0.003 -0.0325,0 -0.0794,10e-4 -0.141819,0.003 0.0335,-0.12912 0.0695,-0.27023 0.105479,-0.42192 l 0.084,-0.35631 c 0.0205,-0.0857 0.0363,-0.15981 0.0483,-0.22189 0.01019,-0.0557 0.0123,-0.0995 0.005,-0.13089 -0.005,-0.0317 -0.01971,-0.0596 -0.0413,-0.0847 -0.0222,-0.0247 -0.0512,-0.0441 -0.0868,-0.0568 -0.0367,-0.0134 -0.0801,-0.0194 -0.128771,-0.0194 -0.0402,0 -0.0773,0.005 -0.113241,0.0127 -0.0328,0.009 -0.066,0.0219 -0.0991,0.0392 -0.0356,0.018 -0.0695,0.0409 -0.100539,0.0674 -0.0303,0.0261 -0.0579,0.0554 -0.0815,0.0885 -0.02471,0.0332 -0.0473,0.073 -0.0681,0.11923 -0.02471,0.0571 -0.0483,0.12807 -0.0695,0.21097 -0.0236,0.0889 -0.0504,0.20637 -0.0808,0.35171 l -0.0854,0.40217 c -0.0571,-0.002 -0.0998,-0.003 -0.129461,-0.003 -0.02609,0 -0.0709,0.001 -0.135821,0.003 0.0317,-0.11889 0.0621,-0.2413 0.091,-0.36583 l 0.0804,-0.34749 c 0.0258,-0.10724 0.0441,-0.19896 0.0589,-0.27446 0.008,-0.0487 0.0109,-0.0903 0.007,-0.12381 -0.004,-0.0346 -0.0159,-0.0653 -0.0384,-0.0935 -0.0222,-0.0279 -0.0505,-0.0494 -0.0868,-0.0642 -0.0367,-0.0148 -0.078,-0.0226 -0.12418,-0.0226 -0.0505,0 -0.0977,0.008 -0.14605,0.0247 -0.0476,0.0169 -0.0938,0.0416 -0.137231,0.0741 -0.0434,0.0332 -0.0825,0.0723 -0.117121,0.11994 -0.0342,0.0476 -0.066,0.10971 -0.0935,0.18697 -0.0289,0.0769 -0.0656,0.21132 -0.109011,0.40217 -0.0427,0.19191 -0.0765,0.35242 -0.100539,0.48401 -0.0635,-0.002 -0.106892,-0.003 -0.13018,-0.003 -0.02609,0 -0.0716,0.001 -0.13652,0.003"
         style="fill:#03b14d;fill-opacity:1;fill-rule:nonzero;stroke:none;stroke-width:0.35277778"
         id="path4410"
         inkscape:connector-curvature="0" />
      <path
         d="m 95.671238,169.69339 c 0.0173,-0.042 0.0377,-0.10477 0.0628,-0.18627 0.12383,-0.03 0.231431,-0.0508 0.321741,-0.0614 0.0896,-0.0109 0.17639,-0.0162 0.259639,-0.0162 0.0889,0 0.171801,0.007 0.246591,0.0233 0.0752,0.0159 0.13512,0.0416 0.17992,0.0772 0.0448,0.0349 0.0716,0.0755 0.0808,0.12171 0.008,0.0459 0.007,0.0952 -0.0011,0.14782 -0.01241,0.066 -0.0381,0.17674 -0.0773,0.33231 -0.0378,0.15522 -0.073,0.29916 -0.10196,0.43145 -0.0296,0.13159 -0.0536,0.24977 -0.073,0.35313 -0.0526,-0.002 -0.0967,-0.003 -0.130181,-0.003 -0.0317,0 -0.078,0.001 -0.136519,0.003 l 0.103362,-0.39194 0.107598,-0.46355 c -0.0402,0.0254 -0.0691,0.0438 -0.0882,0.0543 -0.01939,0.0106 -0.0409,0.0205 -0.0642,0.0296 -0.02331,0.009 -0.049,0.0173 -0.0773,0.0258 -0.0282,0.008 -0.0818,0.0219 -0.161218,0.0423 -0.0797,0.0194 -0.135462,0.0353 -0.17004,0.0459 -0.0716,0.0215 -0.13017,0.042 -0.173562,0.0635 -0.0434,0.0208 -0.0815,0.0441 -0.112537,0.0688 -0.0317,0.0247 -0.0557,0.0498 -0.0709,0.0744 -0.01799,0.0307 -0.031,0.0624 -0.0363,0.096 -0.01,0.0519 -0.0021,0.0967 0.0226,0.13511 0.02469,0.0385 0.06,0.0646 0.105479,0.0794 0.0455,0.0155 0.101959,0.0222 0.169341,0.0222 0.0423,0 0.0864,-0.002 0.132289,-0.008 0.0469,-0.006 0.110421,-0.0205 0.191561,-0.0434 -0.0205,0.037 -0.0466,0.0938 -0.0783,0.17074 -0.0759,0.0134 -0.13652,0.0212 -0.18274,0.025 -0.0462,0.004 -0.0896,0.005 -0.130169,0.005 -0.135822,0 -0.23989,-0.0148 -0.310092,-0.0455 -0.0716,-0.031 -0.11924,-0.0776 -0.14605,-0.14041 -0.0254,-0.0624 -0.0325,-0.13123 -0.01871,-0.20496 0.008,-0.0427 0.02151,-0.0825 0.0413,-0.11889 0.02011,-0.036 0.0448,-0.0691 0.073,-0.0988 0.0279,-0.0296 0.0656,-0.0589 0.113948,-0.0893 0.0476,-0.0296 0.0956,-0.0536 0.145341,-0.073 0.0497,-0.0194 0.107601,-0.0378 0.172159,-0.0568 0.0656,-0.0187 0.168272,-0.0437 0.310092,-0.0751 0.0455,-0.009 0.0847,-0.0191 0.11712,-0.0296 0.0325,-0.01 0.0614,-0.0194 0.0875,-0.0293 0.0254,-0.01 0.0483,-0.0208 0.0688,-0.0339 0.02011,-0.0123 0.0395,-0.0286 0.0582,-0.0469 0.0176,-0.0187 0.0314,-0.0377 0.0427,-0.0571 0.01021,-0.019 0.01691,-0.0385 0.0205,-0.0575 0.009,-0.0469 0,-0.0875 -0.0254,-0.11995 -0.0254,-0.0339 -0.0635,-0.0571 -0.111479,-0.0702 -0.049,-0.0138 -0.107601,-0.0208 -0.177099,-0.0208 -0.0649,0 -0.13158,0.005 -0.202142,0.0152 -0.0695,0.0102 -0.13017,0.0222 -0.181679,0.0356 -0.0519,0.0145 -0.116422,0.0349 -0.195791,0.0628"
         style="fill:#03b14d;fill-opacity:1;fill-rule:nonzero;stroke:none;stroke-width:0.35277778"
         id="path4414"
         inkscape:connector-curvature="0" />
      <path
         d="m 96.976158,170.9164 c 0.156279,-0.60007 0.270229,-1.08409 0.33972,-1.45344 l 0.133709,10e-4 c 0.0332,0 0.0765,-3.5e-4 0.13017,-10e-4 l -0.0723,0.28645 c 0.0325,-0.0402 0.0571,-0.0713 0.0766,-0.0928 0.019,-0.0215 0.0427,-0.0441 0.0723,-0.0684 0.0289,-0.0236 0.0621,-0.0459 0.0998,-0.0663 0.037,-0.0212 0.0801,-0.0381 0.128061,-0.0519 0.0483,-0.0138 0.0974,-0.0243 0.145339,-0.031 0.0483,-0.006 0.096,-0.01 0.14288,-0.01 0.0854,0 0.1651,0.01 0.240951,0.0303 0.0758,0.0201 0.135109,0.0529 0.1778,0.0981 0.0434,0.0452 0.0681,0.097 0.0751,0.15311 0.008,0.0564 0.004,0.11712 -0.007,0.18238 -0.0021,0.0124 -0.007,0.0367 -0.01479,0.0716 -0.008,0.0353 -0.01799,0.0818 -0.0303,0.13899 l -0.140761,0.60183 c -0.0123,0.0568 -0.0268,0.12735 -0.0427,0.21096 -0.0441,-0.002 -0.0868,-0.003 -0.125942,-0.003 -0.049,0 -0.0952,0.001 -0.137938,0.003 0.031,-0.11536 0.0586,-0.22754 0.084,-0.33443 l 0.0801,-0.33443 c 0.0275,-0.11535 0.0462,-0.20179 0.0571,-0.25929 0.01521,-0.0847 0.0123,-0.1524 -0.008,-0.20214 -0.02011,-0.0508 -0.0607,-0.0892 -0.121352,-0.11642 -0.0614,-0.0272 -0.132289,-0.0406 -0.213788,-0.0406 -0.11571,0 -0.21907,0.0258 -0.31079,0.0787 -0.0854,0.0487 -0.156279,0.11818 -0.214141,0.2085 -0.0406,0.0639 -0.0787,0.15804 -0.11289,0.28433 -0.042,0.14992 -0.0974,0.3884 -0.162628,0.71578 -0.055,-0.002 -0.0981,-0.003 -0.128411,-0.003 -0.0307,0 -0.0776,0.001 -0.1397,0.003"
         style="fill:#03b14d;fill-opacity:1;fill-rule:nonzero;stroke:none;stroke-width:0.35277778"
         id="path4418"
         inkscape:connector-curvature="0" />
      <path
         d="m 99.225817,169.14803 c 0.0131,-0.0547 0.0275,-0.12171 0.0441,-0.20285 0.0427,0.002 0.0917,0.003 0.14464,0.003 0.049,0 0.0974,-7.2e-4 0.143219,-0.003 -0.01159,0.048 -0.0275,0.11571 -0.0459,0.20285 -0.054,-0.002 -0.1016,-0.003 -0.143579,-0.003 -0.0406,0 -0.0882,0.001 -0.14252,0.003 m 0.20955,0.31503 -0.145341,0.63218 -0.14147,0.6417 c -0.0557,0.25612 -0.0935,0.41593 -0.1143,0.47766 -0.02191,0.072 -0.0455,0.12806 -0.0709,0.16828 -0.0208,0.0321 -0.0448,0.0614 -0.0723,0.0875 -0.0275,0.0258 -0.0614,0.0497 -0.100542,0.0702 -0.0434,0.0233 -0.0868,0.0402 -0.13158,0.0512 -0.06,0.0141 -0.12841,0.0205 -0.20497,0.0205 -0.120999,0 -0.249409,-0.0148 -0.383468,-0.0444 0.007,-0.0533 0.01378,-0.12101 0.01691,-0.2018 0.109709,0.0409 0.214489,0.0617 0.313621,0.0617 0.0557,0 0.108299,-0.01 0.15839,-0.0289 0.0427,-0.0155 0.0801,-0.0363 0.111829,-0.0614 0.0254,-0.0226 0.0501,-0.054 0.0737,-0.0952 0.0282,-0.0487 0.0536,-0.11113 0.0744,-0.18662 0.0282,-0.10513 0.0646,-0.25823 0.112181,-0.46038 0.01381,-0.0603 0.0462,-0.20672 0.0963,-0.43956 0.0698,-0.3242 0.108302,-0.51188 0.117832,-0.56268 l 0.0222,-0.12982 c 0.0628,3.5e-4 0.10831,7.2e-4 0.135822,7.2e-4 0.0282,0 0.0716,-3.7e-4 0.131587,-7.2e-4"
         style="fill:#03b14d;fill-opacity:1;fill-rule:nonzero;stroke:none;stroke-width:0.35277778"
         id="path4422"
         inkscape:connector-curvature="0" />
      <path
         d="m 99.854827,169.69339 c 0.0159,-0.042 0.037,-0.10477 0.0621,-0.18627 0.124533,-0.03 0.231423,-0.0508 0.321733,-0.0614 0.0896,-0.0109 0.17639,-0.0162 0.25965,-0.0162 0.0889,0 0.1725,0.007 0.24659,0.0233 0.0751,0.0159 0.13511,0.0416 0.18062,0.0772 0.0448,0.0349 0.0716,0.0755 0.0801,0.12171 0.008,0.0459 0.007,0.0952 -10e-4,0.14782 -0.0123,0.066 -0.0381,0.17674 -0.0765,0.33231 -0.0385,0.15522 -0.073,0.29916 -0.10266,0.43145 -0.0296,0.13159 -0.0536,0.24977 -0.073,0.35313 -0.0529,-0.002 -0.0963,-0.003 -0.13017,-0.003 -0.0325,0 -0.078,0.001 -0.13653,0.003 l 0.10337,-0.39194 0.10759,-0.46355 c -0.0395,0.0254 -0.0691,0.0438 -0.0882,0.0543 -0.0194,0.0106 -0.0406,0.0205 -0.0649,0.0296 -0.0226,0.009 -0.0487,0.0173 -0.0765,0.0258 -0.0282,0.008 -0.0811,0.0219 -0.16052,0.0423 -0.0804,0.0194 -0.13618,0.0353 -0.17075,0.0459 -0.0723,0.0215 -0.13018,0.042 -0.173565,0.0635 -0.0434,0.0208 -0.0815,0.0441 -0.113239,0.0688 -0.0307,0.0247 -0.0543,0.0498 -0.0695,0.0744 -0.01939,0.0307 -0.031,0.0624 -0.037,0.096 -0.01,0.0519 -0.0021,0.0967 0.0226,0.13511 0.02471,0.0385 0.06,0.0646 0.105482,0.0794 0.0455,0.0155 0.101949,0.0222 0.169332,0.0222 0.0423,0 0.0864,-0.002 0.13229,-0.008 0.0469,-0.006 0.11113,-0.0205 0.19086,-0.0434 -0.0198,0.037 -0.0459,0.0938 -0.0783,0.17074 -0.0744,0.0134 -0.13582,0.0212 -0.18203,0.025 -0.0462,0.004 -0.0896,0.005 -0.130181,0.005 -0.13652,0 -0.239181,-0.0148 -0.310092,-0.0455 -0.0709,-0.031 -0.119938,-0.0776 -0.14605,-0.14041 -0.02609,-0.0624 -0.0324,-0.13123 -0.01871,-0.20496 0.008,-0.0427 0.02151,-0.0825 0.0416,-0.11889 0.0205,-0.036 0.0441,-0.0691 0.073,-0.0988 0.0282,-0.0296 0.066,-0.0589 0.113591,-0.0893 0.0476,-0.0296 0.0956,-0.0536 0.145338,-0.073 0.0504,-0.0194 0.107601,-0.0378 0.172164,-0.0568 0.0656,-0.0187 0.16828,-0.0437 0.31009,-0.0751 0.0455,-0.009 0.0847,-0.0191 0.11712,-0.0296 0.0325,-0.01 0.0621,-0.0194 0.0868,-0.0293 0.0261,-0.01 0.049,-0.0208 0.0698,-0.0339 0.0198,-0.0123 0.0392,-0.0286 0.0579,-0.0469 0.0169,-0.0187 0.0321,-0.0377 0.0434,-0.0571 0.01,-0.019 0.0169,-0.0385 0.0198,-0.0575 0.009,-0.0469 0,-0.0875 -0.0254,-0.11995 -0.0254,-0.0339 -0.0628,-0.0571 -0.11076,-0.0702 -0.0497,-0.0138 -0.10831,-0.0208 -0.1778,-0.0208 -0.0649,0 -0.1316,0.005 -0.20145,0.0152 -0.0702,0.0102 -0.13088,0.0222 -0.18238,0.0356 -0.0519,0.0145 -0.116422,0.0349 -0.19509,0.0628"
         style="fill:#03b14d;fill-opacity:1;fill-rule:nonzero;stroke:none;stroke-width:0.35277778"
         id="path4426"
         inkscape:connector-curvature="0" />
      <path
         d="m 101.16257,170.9164 c 0.13723,-0.55174 0.23566,-0.99272 0.29563,-1.32221 l 0.0226,-0.13123 c 0.0512,6.8e-4 0.0924,10e-4 0.12558,10e-4 0.0377,0 0.079,-3.5e-4 0.12595,-10e-4 l -0.055,0.23777 c 0.0476,-0.0596 0.0882,-0.10407 0.12277,-0.13441 0.0328,-0.03 0.0702,-0.0547 0.10936,-0.0744 0.0395,-0.0201 0.0829,-0.0356 0.12876,-0.0462 0.0483,-0.0106 0.096,-0.0166 0.14429,-0.0166 0.042,0 0.0818,0.006 0.12101,0.0145 -0.0109,0.0635 -0.0198,0.13406 -0.0282,0.21273 -0.0593,-0.0169 -0.11218,-0.0247 -0.16122,-0.0247 -0.0586,0 -0.11218,0.01 -0.16263,0.0279 -0.0501,0.0187 -0.097,0.0469 -0.14112,0.085 -0.0448,0.0377 -0.0826,0.0829 -0.11641,0.13547 -0.0275,0.042 -0.0533,0.0963 -0.0751,0.16404 -0.0226,0.0667 -0.0536,0.18838 -0.0917,0.36548 -0.0282,0.12982 -0.055,0.26564 -0.0811,0.41063 l -0.018,0.0963 c -0.0522,-0.002 -0.096,-0.003 -0.12877,-0.003 -0.0296,0 -0.0751,0.001 -0.13652,0.003"
         style="fill:#03b14d;fill-opacity:1;fill-rule:nonzero;stroke:none;stroke-width:0.35277778"
         id="path4430"
         inkscape:connector-curvature="0" />
      <path
         d="m 103.22844,169.61141 c -0.10125,0 -0.19861,0.0243 -0.2921,0.0734 -0.0938,0.0487 -0.17039,0.12206 -0.22825,0.22048 -0.0593,0.0977 -0.0991,0.20461 -0.11959,0.32103 -0.0187,0.1009 -0.0187,0.19191 0,0.27305 0.0191,0.0811 0.0624,0.1464 0.13159,0.19579 0.0674,0.0501 0.15628,0.0748 0.26529,0.0748 0.0741,0 0.14675,-0.0123 0.21766,-0.0363 0.0709,-0.0247 0.13617,-0.0656 0.19614,-0.12136 0.06,-0.0568 0.10901,-0.12629 0.14817,-0.20743 0.0388,-0.0819 0.0663,-0.16793 0.0829,-0.25753 0.0152,-0.0843 0.0176,-0.16369 0.007,-0.23707 -0.0109,-0.0737 -0.0356,-0.13299 -0.0773,-0.17744 -0.0406,-0.0441 -0.0899,-0.0755 -0.14852,-0.0942 -0.0586,-0.0183 -0.11994,-0.0272 -0.18344,-0.0272 m 0.0399,-0.18239 c 0.10407,0 0.20144,0.0145 0.29034,0.043 0.0889,0.0289 0.16228,0.0748 0.21978,0.13653 0.0579,0.0624 0.0956,0.14111 0.11359,0.23565 0.0187,0.0945 0.0187,0.19438 -7.9e-4,0.29951 -0.0215,0.1143 -0.0607,0.22366 -0.11712,0.32773 -0.0579,0.10372 -0.12736,0.19262 -0.20955,0.26564 -0.0826,0.0723 -0.17639,0.1263 -0.28258,0.15981 -0.10583,0.0339 -0.21625,0.0508 -0.32984,0.0508 -0.1069,0 -0.2032,-0.0152 -0.29281,-0.0455 -0.0882,-0.031 -0.16051,-0.0787 -0.21838,-0.14394 -0.0575,-0.0649 -0.0953,-0.14463 -0.11394,-0.23882 -0.0176,-0.0942 -0.0176,-0.19332 7.9e-4,-0.29669 0.0289,-0.15557 0.0868,-0.29633 0.17498,-0.42086 0.0889,-0.12488 0.20284,-0.21872 0.34043,-0.28011 0.13864,-0.0614 0.27975,-0.0928 0.42509,-0.0928"
         style="fill:#03b14d;fill-opacity:1;fill-rule:nonzero;stroke:none;stroke-width:0.35277778"
         id="path4434"
         inkscape:connector-curvature="0" />
      <path
         d="m 67.694898,161.80172 -0.16686,1.2192 h 1.438619 l -0.88582,4.53143 h 1.79423 l 0.930622,-4.50991 h 1.408649 l 0.226478,-1.24072 z"
         style="fill:#0063ad;fill-opacity:1;fill-rule:nonzero;stroke:none;stroke-width:0.35277778"
         id="path4438"
         inkscape:connector-curvature="0" />
      <path
         d="m 73.973987,166.38645 c -0.13511,0.14534 -0.250119,0.23248 -0.356309,0.27481 -0.0011,0.001 -0.003,0.001 -0.005,0.002 -0.01061,0.004 -0.02011,0.007 -0.0303,0.0102 -0.186269,0.066 -0.32879,0.037 -0.432858,-0.0236 -0.239182,-0.11218 -0.250824,-0.33761 -0.250824,-0.33761 l 0.0011,0.001 c -0.004,-0.0381 -0.003,-0.0776 0.006,-0.11819 0.0011,-0.008 0.0021,-0.0162 0.004,-0.024 0.0317,-0.16757 0.12982,-0.29352 0.260001,-0.38806 0.0441,-0.0356 0.091,-0.0653 0.138988,-0.0857 0,0 0.003,-0.001 0.008,-0.003 0.398989,-0.20002 0.94121,-0.20002 0.94121,-0.20002 0,0 0.091,0.48789 -0.28399,0.89217 m 2.350209,-2.09621 c -0.113599,-0.61312 -0.47661,-1.07244 -2.40665,-1.07597 -1.931458,-0.004 -2.317398,1.07597 -2.317398,1.07597 l 1.499298,0.26282 c 0,0 0.364072,-0.43779 0.97649,-0.3937 0.612421,0.0434 0.363011,0.6343 0.363011,0.6343 0,0 -2.339271,-0.10866 -3.042711,0.66604 -0.704138,0.77576 -0.27269,2.33327 1.04458,2.24543 1.31762,-0.0868 1.52753,-0.80962 1.52753,-0.80962 v 0.65687 h 1.87924 c -0.11394,-0.52529 0.589492,-2.64865 0.47661,-3.26214"
         style="fill:#0063ad;fill-opacity:1;fill-rule:nonzero;stroke:none;stroke-width:0.35277778"
         id="path4442"
         inkscape:connector-curvature="0" />
      <path
         d="m 76.335837,167.55228 0.790221,-4.33811 h 1.60479 l -0.10619,0.68898 c 0,0 0.62089,-0.94051 1.87784,-0.68898 1.256589,0.25153 0.892879,0.84984 0.635,2.54318 -0.25682,1.69262 -0.3175,1.79493 -0.3175,1.79493 h -1.71097 c 0,0 0.451548,-2.41864 0.473419,-2.76931 0.02291,-0.35066 -0.0448,-0.56867 -0.487889,-0.5147 -0.44309,0.055 -0.533749,0.33937 -0.57926,0.70097 -0.0455,0.36089 -0.488601,2.58304 -0.488601,2.58304 z"
         style="fill:#0063ad;fill-opacity:1;fill-rule:nonzero;stroke:none;stroke-width:0.35277778"
         id="path4446"
         inkscape:connector-curvature="0" />
      <path
         d="m 81.940419,164.29769 0.212368,-1.08338 h 4.02731 l -0.114649,0.90064 -2.56575,2.38654 h 2.180159 l -0.249409,1.05093 h -4.270021 l 0.231421,-0.98496 2.402771,-2.25531 z"
         style="fill:#0063ad;fill-opacity:1;fill-rule:nonzero;stroke:none;stroke-width:0.35277778"
         id="path4450"
         inkscape:connector-curvature="0" />
      <path
         d="m 88.870028,166.38645 c -0.134411,0.14534 -0.249409,0.23248 -0.356311,0.27481 h 7.93e-4 c -0.0011,0.001 -0.004,0.001 -0.005,0.002 -0.01061,0.004 -0.0208,0.007 -0.0303,0.0102 -0.186981,0.066 -0.329499,0.037 -0.43357,-0.0236 -0.23848,-0.11218 -0.250122,-0.33761 -0.250122,-0.33761 l 7.94e-4,0.001 c -0.004,-0.0381 -0.0021,-0.0776 0.006,-0.11819 0.0011,-0.008 0.0021,-0.0162 0.004,-0.024 0.0317,-0.16757 0.129821,-0.29352 0.259292,-0.38806 0.0448,-0.0356 0.0914,-0.0653 0.1397,-0.0857 0,0 0.003,-0.001 0.008,-0.003 0.398992,-0.20002 0.940512,-0.20002 0.940512,-0.20002 0,0 0.091,0.48789 -0.28399,0.89217 m 2.350209,-2.09621 c -0.113599,-0.61312 -0.475898,-1.07244 -2.40665,-1.07597 -1.930048,-0.004 -2.315991,1.07597 -2.315991,1.07597 l 1.497891,0.26282 c 0,0 0.364781,-0.43779 0.97649,-0.3937 0.613841,0.0434 0.36372,0.6343 0.36372,0.6343 0,0 -2.33857,-0.10866 -3.04342,0.66604 -0.70344,0.77576 -0.271989,2.33327 1.045281,2.24543 1.317631,-0.0868 1.52753,-0.80962 1.52753,-0.80962 v 0.65687 h 1.879251 c -0.113951,-0.52529 0.589489,-2.64865 0.475898,-3.26214"
         style="fill:#0063ad;fill-opacity:1;fill-rule:nonzero;stroke:none;stroke-width:0.35277778"
         id="path4454"
         inkscape:connector-curvature="0" />
      <path
         d="m 91.232588,167.55228 0.790221,-4.33811 h 1.604788 l -0.106188,0.68898 c 0,0 0.620889,-0.94051 1.877838,-0.68898 1.255892,0.25153 0.892881,0.84984 0.635,2.54318 -0.256818,1.69262 -0.3175,1.79493 -0.3175,1.79493 h -1.710968 c 0,0 0.45085,-2.41864 0.473419,-2.76931 0.02289,-0.35066 -0.0455,-0.56867 -0.488591,-0.5147 -0.442388,0.055 -0.53305,0.33937 -0.578559,0.70097 -0.0455,0.36089 -0.4886,2.58304 -0.4886,2.58304 z"
         style="fill:#0063ad;fill-opacity:1;fill-rule:nonzero;stroke:none;stroke-width:0.35277778"
         id="path4458"
         inkscape:connector-curvature="0" />
      <path
         d="m 96.102678,167.55228 h 1.8161 l 0.83397,-4.3053 h -1.81646 z"
         style="fill:#0063ad;fill-opacity:1;fill-rule:nonzero;stroke:none;stroke-width:0.35277778"
         id="path4462"
         inkscape:connector-curvature="0" />
      <path
         d="m 97.215339,161.80172 -0.206021,1.06574 h 1.8161 l 0.20673,-1.06574 z"
         style="fill:#0063ad;fill-opacity:1;fill-rule:nonzero;stroke:none;stroke-width:0.35277778"
         id="path4466"
         inkscape:connector-curvature="0" />
      <path
         d="m 101.4963,166.38645 c -0.13511,0.14534 -0.25012,0.23248 -0.35631,0.27481 -10e-4,0.001 -0.004,0.001 -0.005,0.002 -0.0106,0.004 -0.0208,0.007 -0.0303,0.0102 -0.18627,0.066 -0.32879,0.037 -0.43356,-0.0236 -0.23848,-0.11219 -0.25012,-0.33762 -0.25012,-0.33762 l 8e-4,0.001 c -0.004,-0.0381 -0.002,-0.0776 0.006,-0.11819 0.001,-0.008 0.002,-0.0162 0.004,-0.024 0.0317,-0.16757 0.12982,-0.29352 0.26,-0.38806 0.0441,-0.0356 0.091,-0.0653 0.13899,-0.0857 0,0 0.003,-0.001 0.007,-0.003 0.3997,-0.20002 0.94121,-0.20002 0.94121,-0.20002 0,0 0.091,0.48789 -0.28328,0.89217 m 2.3502,-2.09621 c -0.11359,-0.61312 -0.4773,-1.07244 -2.40735,-1.07597 -1.930059,-0.004 -2.316698,1.07597 -2.316698,1.07597 l 1.499308,0.26282 c 0,0 0.36337,-0.43779 0.97579,-0.3937 0.61383,0.0434 0.36371,0.6343 0.36371,0.6343 0,0 -2.33928,-0.10866 -3.042719,0.66604 -0.704139,0.77576 -0.272691,2.33327 1.04458,2.24543 1.316929,-0.0868 1.527529,-0.80962 1.527529,-0.80962 v 0.65687 h 1.87855 c -0.11395,-0.52529 0.59019,-2.64865 0.4773,-3.26214"
         style="fill:#0063ad;fill-opacity:1;fill-rule:nonzero;stroke:none;stroke-width:0.35277778"
         id="path4470"
         inkscape:connector-curvature="0" />
      <path
         d="m 55.145177,165.17343 1.02941,-1.92652 0.27199,1.92652 z m 2.42182,-3.37185 h -2.08915 l -2.86068,5.75063 h 1.43793 l 0.56021,-1.2379 h 1.99813 l 0.18203,1.2379 h 1.7706 z"
         style="fill:#0063ad;fill-opacity:1;fill-rule:nonzero;stroke:none;stroke-width:0.35277778"
         id="path4474"
         inkscape:connector-curvature="0" />
      <path
         d="m 58.860987,167.55228 h 1.81681 l 0.83396,-4.3053 h -1.81716 z"
         style="fill:#0063ad;fill-opacity:1;fill-rule:nonzero;stroke:none;stroke-width:0.35277778"
         id="path4478"
         inkscape:connector-curvature="0" />
      <path
         d="m 59.974707,161.80172 -0.20602,1.06574 h 1.8161 l 0.20602,-1.06574 z"
         style="fill:#0063ad;fill-opacity:1;fill-rule:nonzero;stroke:none;stroke-width:0.35277778"
         id="path4482"
         inkscape:connector-curvature="0" />
      <path
         d="m 61.223187,167.55228 0.84067,-4.3053 h 1.635121 l -0.159452,1.06539 c 0,0 0.522463,-1.32115 1.658761,-1.06539 l -0.250119,1.42981 c 0,0 -1.113721,-0.21872 -1.363131,0.49671 -0.250121,0.71508 -0.500239,2.37878 -0.500239,2.37878 z"
         style="fill:#0063ad;fill-opacity:1;fill-rule:nonzero;stroke:none;stroke-width:0.35277778"
         id="path4486"
         inkscape:connector-curvature="0" />
      <path
         d="m 43.276327,165.84491 0.42369,-0.84667 h 5.45006 v 0.84667 z"
         style="fill:#0063ad;fill-opacity:1;fill-rule:nonzero;stroke:none;stroke-width:0.35277778"
         id="path4490"
         inkscape:connector-curvature="0" />
      <path
         d="m 51.208887,170.79276 -0.1584,-0.10936 -0.0808,-0.005 c -0.34502,-0.25189 -2.74214,-2.07504 -3.58211,-4.84576 -0.90593,-2.98732 -1.34514,-4.03048 -1.34514,-4.03048 h -3.74262 c 0,0 -0.0289,0.25364 -0.20391,0.78951 -0.17568,0.53517 -1.28658,2.22674 -1.95897,2.95946 -0.67239,0.73307 -1.8415,1.50812 -1.8415,1.50812 0,0 1.35855,1.01494 2.76296,0.60643 1.40335,-0.40852 2.55834,-3.20005 2.95239,-4.4122 l 0.45262,1.64959 c 0,0 0.67239,3.10057 1.19874,3.97404 0.37218,0.61666 1.03505,1.48414 2.38901,1.81434 0.88265,0.3496 3.15771,0.1016 3.15771,0.1016"
         style="fill:#0063ad;fill-opacity:1;fill-rule:nonzero;stroke:none;stroke-width:0.35277778"
         id="path4494"
         inkscape:connector-curvature="0" />
      <path
         d="m 42.283957,161.82102 h 3.81917 l 0.20109,0.53269 -0.5581,-0.26634 -0.0769,0.44556 -0.37148,-0.46285 -0.23213,0.34325 -0.21696,-0.32843 -0.3563,0.29845 -0.26247,-0.29845 -0.38805,0.29845 -0.33973,-0.35807 -0.20179,0.70097 -0.15522,-0.64135 -0.26247,0.29845 -0.20108,-0.35807 -0.46496,0.40287 z"
         style="fill:#ffffff;fill-opacity:1;fill-rule:nonzero;stroke:none;stroke-width:0.35277778"
         id="path4498"
         inkscape:connector-curvature="0" />
      <path
         d="m 44.014687,163.09571 0.49318,1.79564 c 0.007,0.0335 0.67734,3.10585 1.19416,3.96381 0.28751,0.4766 1.16028,1.92758 3.53624,1.92758 0.28293,0 0.58279,-0.0212 0.89147,-0.0607 l 0.75918,-0.049 c -0.4953,-0.37253 -2.74144,-2.18052 -3.54471,-4.82811 -0.81739,-2.69417 -1.25836,-3.816 -1.3328,-3.99944 h -3.67171 c -0.0145,0.09 -0.0628,0.3369 -0.20038,0.75917 -0.18203,0.55528 -1.30457,2.25073 -1.9685,2.97533 -0.58737,0.63994 -1.56139,1.31904 -1.79775,1.4792 0.20955,0.14217 1.03752,0.65899 1.98896,0.65899 0.23565,0 0.46672,-0.0321 0.68227,-0.0949 1.30422,-0.38029 2.45075,-2.93335 2.92277,-4.38291 z m 5.22358,7.77381 c -2.42746,0 -3.32105,-1.48272 -3.61527,-1.97062 -0.52387,-0.86995 -1.17545,-3.86044 -1.20403,-3.98744 l -0.41239,-1.50178 c -0.50377,1.48414 -1.63725,3.91936 -2.93617,4.29754 -0.22437,0.0649 -0.46285,0.0988 -0.70838,0.0988 -1.12783,0 -2.08562,-0.7052 -2.09515,-0.71261 l -0.049,-0.0363 0.0519,-0.0342 c 0.0109,-0.008 1.17193,-0.78105 1.83339,-1.50142 0.65864,-0.7172 1.77024,-2.39642 1.9491,-2.94358 0.1718,-0.52352 0.20284,-0.77823 0.20284,-0.78069 l 0.005,-0.0392 h 3.81388 l 0.0109,0.0275 c 0.005,0.0106 0.45085,1.0788 1.34726,4.03472 0.89076,2.93864 3.58069,4.83517 3.6075,4.85317 l 0.10266,0.0713 -1.0033,0.0646 c -0.30939,0.0402 -0.61383,0.0603 -0.90029,0.0603"
         style="fill:#0063ad;fill-opacity:1;fill-rule:nonzero;stroke:none;stroke-width:0.35277778"
         id="path4502"
         inkscape:connector-curvature="0" />
      <path
         d="m 40.562057,163.41712 c 0,0 -5.49487,4.37903 -3.3147,5.99863 2.17981,1.62031 7.72019,-0.65616 7.72019,-0.65616 0,0 -4.42771,2.14559 -7.26546,1.79458 -2.83951,-0.35031 -1.88524,-2.21121 -1.58962,-2.88996 0.29493,-0.67839 1.61149,-2.21121 3.33763,-3.45898 1.72509,-1.24813 1.11196,-0.78811 1.11196,-0.78811"
         style="fill:#03b14d;fill-opacity:1;fill-rule:nonzero;stroke:none;stroke-width:0.35277778"
         id="path4506"
         inkscape:connector-curvature="0" />
      <path
         d="m 49.175477,160.3844 c -0.12735,0.0219 -0.25647,0.0455 -0.38312,0.0702 -0.0737,0.0152 -0.1598,0.0325 -0.25435,0.0526 -1.71485,0.36653 -3.18664,0.98072 -3.18664,0.98072 0,0 9.96879,-2.50331 5.17807,3.68512 l -1.92228,2.11631 c 0,0 3.21556,-2.20698 4.10174,-4.38715 0.87771,-2.16217 -0.7306,-2.86843 -3.53342,-2.51777"
         style="fill:#03b14d;fill-opacity:1;fill-rule:nonzero;stroke:none;stroke-width:0.35277778"
         id="path4510"
         inkscape:connector-curvature="0" />
    </g>
  </g>
</svg>
