<svg viewBox="0 0 251 37" xmlns="http://www.w3.org/2000/svg">
                    <g fill="none" fill-rule="evenodd">
                        <path
                            d="M117 37h11v-2.699l-1.876-.216c-1.065-.109-1.316-.252-1.316-3.427V12l-7.647.906v2.512l1.11.195c1.388.246 1.967.683 1.967 2.733v12.312c0 3.043-.194 3.268-1.55 3.427l-1.688.219V37"
                            fill="#D81E05"
                        />
                        <path d="M0 .856h250.663v36.01H0z" />
                        <path
                            d="M122.009 1.844c-1.775 0-2.837 1.03-2.837 2.752 0 1.77 1.062 2.825 2.837 2.825 1.826 0 2.871-1.029 2.871-2.825 0-1.723-1.074-2.752-2.871-2.752M10.671 21.934L15.417 8.92l4.65 13.014H10.67zm20.566 11.753c-1.251-.27-1.583-.57-2.564-3.409L17.887.856h-2.682L3.931 30.726c-.657 1.9-.982 2.681-2.403 2.919L0 33.853v2.644h10.019v-2.651l-3.548-.383 3.022-8.292h11.732l2.95 8.252-3.494.425v2.649h11.927v-2.649l-1.37-.16zM98.102 36.497h11.77V33.94l-2.874-.351c-1.012-.105-1.28-.26-1.28-3.322V18.333l.029-.047c.813-1.056 2.266-1.794 3.526-1.794 1.603 0 3.113.353 4.384 1.024v-5.424a6.89 6.89 0 0 0-2.262-.392c-2.109 0-4.025 1.052-5.865 3.215l-.192.226-.478-2.933H97.92v3.007l1.236.212c1.337.233 1.974.707 1.974 2.778v12.062c0 3.134-.246 3.264-1.554 3.413l-1.473.168v2.649M94.187 32.385c-1.218.618-2.436.929-3.621.929-1.481 0-2.467-.618-2.467-3.64V15.476h5.794v-3.272h-5.794V6.493h-2.81l-1.501 5.715h-3.69v3.268h3.41v14.838c0 4.498 1.805 6.686 5.524 6.686 2.962 0 5.274-1.262 6.389-2.015l.203-.135-1.172-2.597-.265.132M57.45 33.864l-1.391-.226c-1.366-.23-1.974-.687-1.974-2.776V12.208H46.29v3.007l1.23.212c1.339.233 1.975.707 1.975 2.778V30.93l-.064.042c-1.998 1.229-4.11 1.933-5.792 1.933-2.664 0-3.96-1.61-3.96-4.919V12.208h-7.763v3.011l1.198.208c1.338.233 1.977.707 1.977 2.778v10.237c0 3.903 1.215 8.558 7.012 8.558 2.712 0 5.076-1.007 7.669-3.268l.183-.161.522 2.915h6.973v-2.622M143.55 28.99c0 2.64-1.846 4.415-4.592 4.415-1.642 0-3.597-.6-3.597-3.456 0-3.158 2.03-4.27 8.045-4.411l.144-.002v3.454zm7.53 4.827l-1.435-.181c-1.335-.155-1.55-.314-1.55-2.137V20.033c0-5.76-2.124-8.333-7.477-8.333-3.537 0-6.716 1.278-8.51 2.472l-.19.125.992 2.734.274-.114c2.628-1.09 4.236-1.44 6.621-1.44 2.92 0 3.745 1.272 3.745 4.692v2.237l-.133.005c-8.002.362-12.963 1.81-12.963 7.903 0 3.049 1.24 6.686 7.15 6.686 3.62 0 5.603-1.922 6.29-2.75l.16-.194.077.242c.584 1.794 1.926 2.702 3.995 2.702 1.112 0 2.01-.183 2.954-.606v-2.577zM69.414 21.813c-2.472-.688-4.488-1.418-4.488-3.61 0-2.082 1.557-3.183 4.501-3.183 2.68 0 3.086.718 3.294 1.519l.725 2.836H76.7V13.31c-1.587-.991-4.257-1.609-6.999-1.609-5.496 0-9.046 2.893-9.046 7.371 0 4.608 3.343 5.778 6.537 6.633.219.058 1.167.306 1.417.373 2.516.678 4.554 1.436 4.554 3.915 0 3.046-2.595 3.688-4.77 3.688-3.36 0-3.825-.803-4.055-1.771l-.634-3.302h-3.272v6.617c1.505.82 4.048 1.774 7.733 1.774 4.55 0 9.406-2.094 9.406-7.966 0-4.64-3.574-5.946-6.753-6.834-.246-.07-1.183-.324-1.404-.385M168.697 36.497h10.73v-2.653l-1.834-.264c-1.318-.157-1.552-.42-1.552-3.37v-9.947c0-5.681-2.421-8.563-7.194-8.563-3.573 0-6.004 1.732-7.722 3.237l-.197.172-.353-2.9h-6.796v3.041l1.021.177c1.338.233 1.974.707 1.974 2.778v12.006c0 2.99-.194 3.208-1.556 3.369l-1.696.212v2.705h10.687v-2.653l-1.506-.22c-1.25-.187-1.34-.409-1.34-3.413V17.77l.07-.04c2.022-1.246 4.109-1.935 5.88-1.935 2.823 0 4.138 1.537 4.138 4.832v9.856c0 2.731-.101 2.997-1.2 3.14l-1.554.22v2.653M195.057 30.951c8.264-6.697 14.166-12.435 15.924-15.546.747-1.2.986-2.347.572-3.282-.771-1.74-3.493-2.268-6.85-1.615a261.096 261.096 0 0 1 45.675-6.145.277.277 0 0 1 .095.54c-19.461 6.325-37.175 16.573-52.226 29.829a.137.137 0 0 1-.064.033l-9.796 1.718c-.137.025-.21-.154-.1-.24a260.485 260.485 0 0 0 6.77-5.292"
                            fill="#D81E05"
                        />
                        <path
                            d="M193.745 13.117c-.217.06-.435.118-.654.182-.129.034-.118.224.017.243l3.711.531 6.482.926a.144.144 0 0 0 .074-.012c4.563-2.177 7.605-3.017 8.274-2.067.207.294.171.745-.071 1.33-.083.197-.19.407-.317.635.713-1.134.941-2.219.547-3.103-.737-1.646-3.336-2.145-6.552-1.525a251.12 251.12 0 0 0-11.51 2.86"
                            fill="#D81E05"
                        />
                    </g>
                </svg>