<svg width="169" height="40" viewBox="0 0 169 40" fill="none" xmlns="http://www.w3.org/2000/svg">
<g clip-path="url(#clip0_802_9192)">
<path d="M43.19 4.40874C41.5211 4.40874 40.16 5.73681 40.16 7.36478C40.16 8.99274 41.49 10.3539 43.19 10.3539C44.89 10.3539 46.259 9.01611 46.259 7.36478C46.259 5.71344 44.9114 4.40874 43.19 4.40874Z" fill="#FF0000"/>
<path d="M123.798 19.2785C123.798 14.4375 121.229 12.089 115.952 12.089C112.984 12.089 110.283 12.9263 108.149 14.342L109.954 17.8024C111.681 16.7567 113.245 16.2796 114.855 16.2796C116.466 16.2796 118.39 16.7976 118.39 19.2805V19.5453L115.212 19.6563C109.97 19.8335 106.957 22.2034 106.957 26.1662C106.957 30.129 109.641 32.5554 113.473 32.5554C115.597 32.5554 117.397 31.9128 118.964 30.5847C119.352 31.6304 119.862 32.1523 121.171 32.1523H124.244C123.944 31.1377 123.796 29.9771 123.796 28.2518V19.2785H123.798ZM118.392 27.1535C117.523 27.876 116.446 28.244 115.173 28.244C113.37 28.244 112.293 27.3346 112.293 25.8001C112.293 24.8362 112.659 23.5412 115.87 23.4419L118.392 23.3679V27.1554V27.1535Z" fill="#FF0000"/>
<path d="M40.5261 32.1523H45.8559V30.2595V12.531H40.5261V32.1523Z" fill="#FF0000"/>
<path d="M28.9025 32.1523H30.7525L38.9195 12.5291H33.5897L28.848 25.2451L24.1861 12.5291H18.8212L25.9854 30.018C26.5307 31.3714 27.3505 32.1523 28.9045 32.1523H28.9025Z" fill="#FF0000"/>
<path d="M86.738 32.1523V19.2045C86.738 13.9545 83.4938 12.089 80.4618 12.089C78.1756 12.089 76.1329 12.8153 73.8721 14.4414L73.8448 14.3401C73.3969 13.1269 72.433 12.531 70.879 12.531H68.8441V32.1542H74.1661V18.6301C75.8856 17.3468 77.3967 16.7256 78.8027 16.7256C80.6001 16.7256 81.4043 17.9349 81.4043 20.6592V32.1523H86.738Z" fill="#FF0000"/>
<path d="M105.826 30.5379L104.429 26.7484C103.312 27.3969 101.69 28.1661 99.7871 28.1661C95.834 28.1661 94.4358 24.9491 94.4358 22.1975C94.4358 18.7664 96.7044 16.2777 99.828 16.2777C101.645 16.2777 103.409 16.8736 104.794 17.9154L104.971 13.5281C103.267 12.5758 101.477 12.087 99.2632 12.087C96.4377 12.087 93.8555 13.1328 91.9997 15.0314C90.1303 16.93 89.106 19.5609 89.106 22.441C89.106 25.3211 89.9784 27.7649 91.5499 29.5526C93.2674 31.5194 95.7736 32.5534 98.7764 32.5534C101.594 32.5534 104.408 31.5077 105.828 30.536L105.826 30.5379Z" fill="#FF0000"/>
<path d="M65.7731 32.1523C65.4732 31.1377 65.3213 29.9771 65.3213 28.2518V19.2785C65.3213 14.4375 62.7528 12.089 57.4697 12.089C54.5079 12.089 51.8089 12.9263 49.6707 14.342L51.4759 17.8024C53.207 16.7567 54.7688 16.2796 56.3734 16.2796C57.978 16.2796 59.9117 16.7976 59.9117 19.2805V19.5453L56.7336 19.6563C51.4934 19.8335 48.4848 22.2034 48.4848 26.1662C48.4848 30.129 51.1662 32.5554 54.9986 32.5554C57.127 32.5554 58.9185 31.9128 60.4881 30.5847C60.8834 31.6304 61.3877 32.1523 62.7002 32.1523H65.7731ZM59.9156 27.1535C59.051 27.876 57.9663 28.244 56.7025 28.244C54.8954 28.244 53.8185 27.3346 53.8185 25.8001C53.8185 24.8362 54.1846 23.5412 57.3977 23.4419L59.9156 23.3679V27.1554V27.1535Z" fill="#FF0000"/>
<path d="M17.7404 32.1523C17.4405 31.1377 17.2886 29.9771 17.2886 28.2518V19.2785C17.2886 14.4375 14.7201 12.089 9.43703 12.089C6.47515 12.089 3.77616 12.9263 1.638 14.342L3.44317 17.8024C5.17434 16.7567 6.73609 16.2796 8.34069 16.2796C9.94529 16.2796 11.879 16.7976 11.879 19.2805V19.5453L8.70094 19.6563C3.46264 19.8335 0.454025 22.2034 0.454025 26.1662C0.454025 30.129 3.13549 32.5554 6.96783 32.5554C9.09625 32.5554 10.8878 31.9128 12.4573 30.5847C12.8526 31.6304 13.357 32.1523 14.6695 32.1523H17.7424H17.7404ZM11.8829 27.1535C11.0183 27.876 9.9336 28.244 8.66979 28.244C6.86267 28.244 5.7858 27.3346 5.7858 25.8001C5.7858 24.8362 6.1519 23.5412 9.36498 23.4419L11.8829 23.3679V27.1554V27.1535Z" fill="#FF0000"/>
<path d="M154.467 31.2565H158.152C159.68 31.2565 160.358 31.3831 160.784 31.5759C160.13 29.5448 158.068 27.9616 150.8 27.4183C151.961 28.762 153.18 30.0492 154.465 31.2565H154.467Z" fill="#FF0000"/>
<path d="M150.801 27.4203C143.747 19.224 138.996 8.73765 137.091 0C137.091 0 133.214 3.4195 132.907 10.611C132.566 18.4704 136.782 26.394 150.666 27.4047C150.711 27.4125 150.758 27.4125 150.801 27.4183V27.4203Z" fill="#FF0000"/>
<path d="M154.465 31.2565C148.991 31.2565 139.541 31.2565 139.541 31.2565C139.74 31.72 140.423 32.0452 141.979 32.1367C151.295 32.6897 152.613 40 165.947 40C167.117 40 167.847 39.9299 168.585 39.7916C163.316 38.1715 158.584 35.1258 154.465 31.2546V31.2565Z" fill="#FF0000"/>
</g>
<defs>
<clipPath id="clip0_802_9192">
<rect width="168.131" height="40" fill="white" transform="translate(0.454071)"/>
</clipPath>
</defs>
</svg>
