<svg id="Layer_1" data-name="Layer 1" xmlns="http://www.w3.org/2000/svg" viewBox="0 0 1101.83 253.6"><defs><style>.cls-1{fill:#1d1d1b;}.cls-2{fill:#9d9d9c;}</style></defs><path class="cls-1" d="M537.63,205h44.22V456.67H537.63Z" transform="translate(-166.75 -203.06)"/><path class="cls-1" d="M721,205H833.1c31.64,0,56.44,9.35,72.61,25.17,13.31,13.66,20.85,32.35,20.85,54.28v.71c0,41.34-24.8,66.14-60,76.21l67.94,95.26H882.35L820.52,369H765.16v87.71H721ZM829.87,329.78c31.63,0,51.76-16.54,51.76-42.06V287c0-27-19.41-41.7-52.12-41.7H765.16v84.48Z" transform="translate(-166.75 -203.06)"/><polygon class="cls-1" points="0 253.42 45.29 253.42 130.49 52.84 215.68 253.42 262.41 253.42 151.69 0 110.72 0 0 253.42"/><polygon class="cls-1" points="869.98 1.98 922.1 1.98 1101.83 253.6 1049.71 253.6 869.98 1.98"/><polygon class="cls-2" points="958.17 125.45 866.38 253.6 917.07 253.6 982.63 159.69 958.17 125.45"/><polygon class="cls-2" points="1047.55 1.98 1098.24 1.98 1010.22 125.35 985.59 90.86 1047.55 1.98"/></svg>