<svg xmlns="http://www.w3.org/2000/svg" width="349" height="85" viewBox="0 0 87.25 21.25"><path fill="#073871" d="M61.11505 20.82145c.066.001.708-.006.967-.017.26-.01 1.279-.057 2.053-.149s3.202-.406 4.286-.626c1.084-.22 3.777-.758 6.101-1.51 2.323-.751 4.349-1.913 5.166-2.937.38-.477.602-.855.781-1.18.204-.373.342-.676.479-.958-.238-.006-1-.024-2.366.099-1.163.104-2.318.295-2.444.315-.241.039-.63.107-.904.157-.89.162-1.987.417-2.161.458-.174.042-.368.092-.554.139-.417.105-1.305.344-2.54.756-1.128.377-2.177.833-2.252.865-.155.067-.35.154-.871.393-.261.119-1.592.748-2.971 1.647-.807.526-1.626 1.184-2.241 1.707-.433.367-.765.668-.921.807 0 0 .111.015.142.018.03.003.184.015.25.016"/><path fill="#67bad7" d="M80.94805 13.44455c-.137.282-.275.584-.479.958-.179.325-.401.703-.781 1.18-.817 1.024-2.843 2.186-5.166 2.937-2.324.752-5.017 1.29-6.101 1.51-1.084.22-3.512.534-4.286.626-.774.092-1.793.139-2.053.149-.259.011-.901.018-.967.017-.066-.001-.22-.013-.25-.016-.031-.003-.142-.018-.142-.018s.045.023.11.044c.065.022.164.047.228.059.064.012.218.04.348.057.131.017.698.079.788.087.09.009 1.314.131 2.245.152.931.022 2.839.106 5.735-.257 2.747-.344 6.35-1.182 9.05-2.298 2.7-1.116 4.244-2.022 5.136-2.592.892-.569 2.831-1.872 2.831-1.872-2.601-.717-5.745-.71-6.246-.723"/><path fill="#5ca736" d="M81.73955.08855s1.457-.08 2.111-.036c.078.006.438.021.37.715-.046.481-.317 1.498-.401 1.826-.083.328-.686 2.745-.769 3.081-.046.18-.474 1.905-.905 3.481-.371 1.357-.756 2.602-.774 2.677Z"/><path fill="#5ca736" d="M80.94805 13.44455c-.238-.006-1-.024-2.366.099-1.163.104-2.318.295-2.444.315l-.181-10.722.075-.072c.493-.471.991-.935 1.495-1.393.607-.552 1.152-1.054 1.968-1.266.405-.105.812-.177 1.223-.229z"/><path fill="#5ca736" d="M60.72295 20.78735c.134-.186.647-.827.997-1.252.254-.311 1.822-2.192 2.797-3.378.361-.439.635-.793.739-.922.383-.479 1.301-1.603 1.301-1.603l.299 2.993v.001c-.261.119-1.592.748-2.971 1.647-.807.526-1.626 1.184-2.241 1.707-.433.368-.765.668-.921.807"/><path fill="#5ca736" d="M72.51935 14.61205c-.417.105-1.305.344-2.541.757-1.127.376-2.176.832-2.251.865l.273-4.435c1.372-1.605 2.79-3.208 4.159-4.758.299-.339.62-.69.955-1.047z"/><path fill="#5ca736" d="M75.23415 14.01535c-.89.162-1.987.417-2.161.458l.055-8.494c.682-.726 1.424-1.479 2.178-2.214z"/><path fill="#073871" d="m1.50665 18.44995.434-.979.436.979Zm.978-1.286c-.114-.258-.5-.264-.544-.264-.045 0-.431.006-.545.264-.091.206-.755 1.709-1.024 2.309-.067.149.041.253.205.253.131 0 .363.001.363.001l.34-.767h1.321s.184.415.252.567c.067.151.188.199.319.199.13 0 .449.001.449.001s-1.021-2.305-1.136-2.563"/><path fill="#073871" d="m15.08915 18.44995.434-.979.436.979Zm.979-1.286c-.115-.258-.501-.264-.545-.264-.044 0-.431.006-.545.264-.091.206-.755 1.709-1.023 2.309-.067.149.04.253.205.253.13 0 .362.001.362.001l.34-.767h1.321s.185.415.252.567c.067.151.188.199.319.199.13 0 .45.001.45.001s-1.022-2.305-1.136-2.563"/><path fill="#073871" d="M4.73855 16.91185h-.32c-.223 0-.32.1-.32.266v2.278c0 .247.225.266.345.266h.295v-2.166z"/><path fill="#073871" d="M12.83185 18.85375v-1.676c0-.166.097-.266.32-.266h.32V18.85375c0 .169-.021.369-.291.609-.34.301-.846.323-1.004.323-.158 0-.589-.023-.908-.293-.36.267-.765.293-.978.293-.212 0-.559-.059-.813-.234-.255-.175-.413-.363-.413-.698v-1.676c0-.166.097-.266.32-.266h.32V18.85375c0 .18.081.24.159.295.079.056.253.124.463.124.211 0 .404-.08.463-.125.084-.064.159-.115.159-.294v-1.676c0-.166.097-.266.32-.266h.317V18.85375c0 .181.081.24.16.296.078.055.253.123.463.123.21 0 .404-.08.462-.125.085-.064.159-.114.159-.294"/><path fill="#073871" d="M7.26445 18.22185h-1.047v-.797h1.047c.356 0 .424.281.424.399 0 .116-.068.398-.424.398m.576.586c-.037-.05-.086-.115-.126-.146.107-.049.505-.21.603-.69.099-.481-.288-.91-.692-1.017-.157-.05-.311-.043-.365-.043h-1.363c-.223 0-.32.1-.32.266v2.278c0 .246.226.266.345.266h.295v-.983h.744c.087 0 .162.027.211.117.049.089.366.661.399.726.032.065.169.145.331.145h.443s-.468-.869-.505-.919"/><path fill="#073871" d="m18.90705 18.65445 1.331-1.742h-.533c-.149 0-.264.063-.342.163-.079.1-.752.985-.752.985h-.052l-.878-1.148h-.364c-.077 0-.159.022-.19.089-.031.068-.008.142.018.178.026.037 1.122 1.475 1.122 1.475v.806c0 .246.226.266.345.266h.295Z"/><path fill="#073871" d="M23.19265 17.62425s-.195.075-.304.107c-.108.034-.268 0-.338-.053-.068-.053-.096-.11-.169-.155-.071-.044-.272-.18-.684-.167-.411.014-.718.158-.718.374 0 .217.166.286.55.326.385.04.622-.059 1.085.112.464.171.593.496.593.7 0 .204-.151.917-1.408.917s-1.479-.776-1.479-.776.183-.061.266-.094c.051-.02.152-.031.257-.009.139.03.194.123.217.145.143.132.31.196.607.22.353.03.926-.051.898-.395-.027-.327-.571-.315-.866-.301-.221.01-.609-.011-.916-.16-.288-.14-.546-.498-.416-.872.175-.505.748-.698 1.339-.698.237 0 .515.036.765.132.333.127.618.353.721.647"/><path fill="#073871" d="M5.07595 9.95825h-3.195v-1.804h3.195c.818 0 .972.637.972.902 0 .264-.154.902-.972.902m0 3.258h-3.195v-1.804h3.195c.818 0 .972.638.972.902 0 .265-.154.902-.972.902m2.063-2.524c.473-.394.787-1.032.73-1.854-.065-.945-1.029-2.138-2.793-2.138h-4.034c-.657 0-.986.252-.986.755v6.475c0 .503.329.755.986.755h4.034c1.61 0 2.63-.989 2.77-2.01.117-.86-.195-1.534-.707-1.983"/><path fill="#073871" d="M38.42505 9.95825h-3.195v-1.804h3.195c.818 0 .972.637.972.902 0 .264-.154.902-.972.902m0 3.258h-3.195v-1.804h3.195c.818 0 .972.638.972.902 0 .265-.154.902-.972.902m2.063-2.524c.473-.394.787-1.032.73-1.854-.064-.945-1.029-2.138-2.793-2.138h-4.034c-.657 0-.986.252-.986.755v6.475c0 .503.329.755.986.755h4.034c1.61 0 2.63-.989 2.77-2.01.117-.86-.195-1.534-.707-1.983"/><path fill="#073871" d="m12.54325 11.06265 1.23-2.775 1.238 2.775Zm2.776-3.649c-.325-.732-1.42-.749-1.546-.749-.125 0-1.22.017-1.544.749-.26.585-2.142 4.85-2.904 6.55-.19.424.114.721.581.721h1.029l.964-2.174h3.748s.523 1.177.714 1.606c.191.429.535.568.905.568h1.276s-2.899-6.539-3.223-7.271"/><path fill="#073871" d="M31.02225 6.70085h-10.229c-.633 0-.909.283-.909.754v6.475c0 .699.641.755.979.755h.84v-6.155h7.501v5.4c0 .699.641.755.979.755h.839Z"/><path fill="#5ca736" d="M24.70335 9.69645v5.237c0 .592.542.639.828.639h.71v-5.876Z"/><path fill="#073871" d="M50.06765 10.69255v1.17c0 .192-.014.369-.195.63-.34.491-1.153.927-2.252.927-1.098 0-1.911-.436-2.251-.927-.181-.261-.195-.438-.195-.63v-2.341c0-.191.014-.369.195-.63.34-.49 1.153-.926 2.251-.926 1.099 0 1.912.436 2.252.926.181.261.195.439.195.63Zm.504-3.356c-.415-.28-.868-.487-1.36-.623-.492-.135-1.022-.202-1.591-.202-1.146 0-2.13.275-2.95.825-.876.587-1.314 1.298-1.314 2.132v2.427c0 .848.438 1.561 1.314 2.139.815.545 1.799.818 2.95.818 1.133 0 2.117-.273 2.951-.818.876-.578 1.315-1.291 1.315-2.139v-2.427c0-.834-.439-1.545-1.315-2.132"/><path fill="#073871" d="M60.46415 10.69255v1.17c0 .192-.014.369-.195.63-.34.491-1.153.927-2.252.927-1.098 0-1.911-.436-2.251-.927-.181-.261-.195-.438-.195-.63v-2.341c0-.191.014-.369.195-.63.34-.49 1.153-.926 2.251-.926 1.099 0 1.912.436 2.252.926.181.261.195.439.195.63Zm.504-3.356c-.415-.28-.868-.487-1.36-.623-.492-.135-1.022-.202-1.591-.202-1.146 0-2.13.275-2.95.825-.876.587-1.314 1.298-1.314 2.132v2.427c0 .848.438 1.561 1.314 2.139.815.545 1.799.818 2.95.818 1.133 0 2.117-.273 2.951-.818.876-.578 1.315-1.291 1.315-2.139v-2.427c0-.834-.439-1.545-1.315-2.132"/></svg>