<svg width="190px" height="43px" viewBox="0 0 190 43" version="1.1" xmlns="http://www.w3.org/2000/svg"><defs><polygon id="path-1" points="0 93.554898 249.846774 93.554898 249.846774 0 0 0"></polygon></defs><g id="Symbols" stroke="none" stroke-width="1" fill="none" fill-rule="evenodd"><g id="organisms/header/L/default" transform="translate(-83.000000, -34.000000)"><g id="Group-42" transform="translate(54.000000, 7.000000)"><g id="Group" transform="translate(176.884495, 27.595430)" fill="#E5002B"><path d="M7.3287461,37.1657931 C7.3287461,35.4778933 5.96194069,34.1099733 4.27515609,34.1099733 C2.58863163,34.1099733 1.22130593,35.4778933 1.22130593,37.1657931 C1.22130593,38.8539533 2.58863163,40.2218733 4.27515609,40.2218733 C5.96194069,40.2218733 7.3287461,38.8539533 7.3287461,37.1657931" id="Fill-1"></path><path d="M39.8207856,37.1657931 C39.8207856,35.5143434 38.4825963,34.1753231 36.8324922,34.1753231 C35.1823881,34.1753231 33.8441988,35.5143434 33.8441988,37.1657931 C33.8441988,38.8172428 35.1823881,40.1565235 36.8324922,40.1565235 C38.4825963,40.1565235 39.8207856,38.8172428 39.8207856,37.1657931" id="Fill-3"></path><path d="M25.5882414,37.1657931 C25.5882414,34.3830887 23.3343392,32.1276089 20.553642,32.1276089 C17.7737253,32.1276089 15.5198231,34.3830887 15.5198231,37.1657931 C15.5198231,39.9484976 17.7737253,42.2042378 20.553642,42.2042378 C23.3343392,42.2042378 25.5882414,39.9484976 25.5882414,37.1657931" id="Fill-5"></path><path d="M8.55046826,20.8738502 C8.55046826,18.5111029 6.63579605,16.5951297 4.27497399,16.5951297 C1.91415193,16.5951297 0,18.5111029 0,20.8738502 C0,23.2368578 1.91415193,25.1523103 4.27497399,25.1523103 C6.63579605,25.1523103 8.55046826,23.2368578 8.55046826,20.8738502" id="Fill-7"></path><path d="M41.8348855,20.8738502 C41.8348855,18.1091104 39.5950312,15.8674295 36.8322841,15.8674295 C34.0700572,15.8674295 31.8307232,18.1091104 31.8307232,20.8738502 C31.8307232,23.6383295 34.0700572,25.8800104 36.8322841,25.8800104 C39.5950312,25.8800104 41.8348855,23.6383295 41.8348855,20.8738502" id="Fill-9"></path><path d="M26.3158429,20.8738502 C26.3158429,17.6891532 23.7359781,15.107445 20.5538762,15.107445 C17.371514,15.107445 14.7919095,17.6891532 14.7919095,20.8738502 C14.7919095,24.0582867 17.371514,26.6405156 20.5538762,26.6405156 C23.7359781,26.6405156 26.3158429,24.0582867 26.3158429,20.8738502" id="Fill-11"></path><path d="M41.4108741,4.581777 C41.4108741,2.0513593 39.3609261,0 36.8323101,0 C34.3047347,0 32.2545265,2.0513593 32.2545265,4.581777 C32.2545265,7.11219471 34.3047347,9.16355401 36.8323101,9.16355401 C39.3609261,9.16355401 41.4108741,7.11219471 41.4108741,4.581777" id="Fill-13"></path><path d="M23.8840791,4.581777 C23.8840791,2.74104718 22.3926639,1.24893649 20.5536941,1.24893649 C18.7147242,1.24893649 17.2238293,2.74104718 17.2238293,4.581777 C17.2238293,6.42250683 18.7147242,7.91461752 20.5536941,7.91461752 C22.3926639,7.91461752 23.8840791,6.42250683 23.8840791,4.581777" id="Fill-15"></path><path d="M4.27507804,7.57232509 C2.62497399,7.57232509 1.2867846,6.23356515 1.2867846,4.58159475 C1.2867846,2.93014507 2.62497399,1.59112478 4.27507804,1.59112478 C5.9251821,1.59112478 7.26311134,2.93014507 7.26311134,4.58159475 C7.26311134,6.23356515 5.9251821,7.57232509 4.27507804,7.57232509" id="Fill-17"></path></g><path d="M39.2426119,49.3800118 C42.6380333,49.3800118 44.9723205,47.1234906 44.9723205,43.8580827 C44.9723205,40.6723444 42.7707076,38.3627101 39.4548907,38.3627101 C36.1656087,38.3627101 33.751717,40.6192314 33.751717,44.0174217 C33.751717,47.2828296 35.9798647,49.3800118 39.2426119,49.3800118 L39.2426119,49.3800118 Z M29.7462539,28.2483293 L33.619563,28.2483293 L33.619563,36.9557364 C34.9720604,35.4959101 37.226743,34.619806 39.7467742,34.619806 C44.9457856,34.619806 48.9247138,38.4689361 48.9247138,43.9111957 C48.9247138,49.3268988 44.8932362,53.1231763 39.3487513,53.1231763 C34.0436004,53.1231763 29.7462539,49.5924638 29.7462539,42.8231604 L29.7462539,28.2483293 Z" id="Fill-19" fill="#051446"></path><path d="M59.6147763,34.8054412 C60.5697711,34.8054412 62.0281478,34.8585542 63.1691467,34.9913366 L63.1691467,38.5486056 C62.1608221,38.4423796 60.9144641,38.3892666 60.2248179,38.3892666 C56.8293965,38.3892666 55.848127,39.9024663 55.848127,43.035352 L55.848127,52.8844282 L51.9753382,52.8844282 L51.9753382,41.2300308 C51.9753382,38.2567445 53.9646722,34.8054412 59.6147763,34.8054412" id="Fill-21" fill="#051446"></path><path d="M73.9914932,53.0967239 C68.1291103,53.0967239 65.6886837,49.3535595 65.6886837,45.2651606 L65.6886837,34.8058057 L69.5617326,34.8058057 L69.5617326,44.574952 C69.5617326,46.6455777 69.826821,49.3535595 73.9914932,49.3535595 C77.9438866,49.3535595 78.421514,46.7518037 78.421514,44.574952 L78.421514,34.8058057 L82.2943028,34.8058057 L82.2943028,45.2651606 C82.2943028,49.3535595 79.8273413,53.0967239 73.9914932,53.0967239" id="Fill-23" fill="#051446"></path><path d="M92.7185744,53.1763153 C90.3046826,53.1763153 87.678512,52.7514114 85.848127,52.0349066 L85.848127,48.6364559 C87.2276795,49.2206989 89.9862643,49.7515685 92.4004162,49.7515685 C94.7609781,49.7515685 96.2461498,49.0353241 96.2461498,47.6809427 C96.2461498,46.6454996 95.4508845,46.061517 91.3923517,45.185413 C87.9433403,44.4420914 85.7422477,43.1681605 85.7422477,39.9824222 C85.7422477,36.3985967 88.5539022,34.5664587 93.3816857,34.5664587 C94.9997919,34.5664587 97.4136837,34.779171 99.3496878,35.3363368 L99.3496878,38.708231 C97.6790323,38.3093628 95.2916753,37.9383529 93.5138398,37.9383529 C91.3658169,37.9383529 89.7211759,38.389553 89.7211759,39.9027527 C89.7211759,40.9381958 90.8351197,41.4422485 94.38923,42.1855701 C98.1298647,42.9554482 100.225078,44.4952044 100.225078,47.5213434 C100.225078,51.1056895 97.2544745,53.1763153 92.7185744,53.1763153" id="Fill-25" fill="#051446"></path><path d="M110.119355,53.1763153 C107.705463,53.1763153 105.079292,52.7514114 103.248907,52.0349066 L103.248907,48.6364559 C104.62846,49.2206989 107.387045,49.7515685 109.800937,49.7515685 C112.161759,49.7515685 113.64693,49.0353241 113.64693,47.6809427 C113.64693,46.6454996 112.851145,46.061517 108.793132,45.185413 C105.344121,44.4420914 103.143028,43.1681605 103.143028,39.9824222 C103.143028,36.3985967 105.954683,34.5664587 110.782466,34.5664587 C112.400572,34.5664587 114.814464,34.779171 116.750468,35.3363368 L116.750468,38.708231 C115.079813,38.3093628 112.691935,37.9383529 110.91462,37.9383529 C108.766597,37.9383529 107.121436,38.389553 107.121436,39.9027527 C107.121436,40.9381958 108.2359,41.4422485 111.79001,42.1855701 C115.530645,42.9554482 117.625858,44.4952044 117.625858,47.5213434 C117.625858,51.1056895 114.655255,53.1763153 110.119355,53.1763153" id="Fill-27" fill="#051446"></path><path d="M132.108663,42.2654218 C133.037123,42.2654218 133.62115,41.7079957 133.62115,40.9381177 C133.62115,39.5308836 132.082128,38.0176839 129.536082,38.0176839 C126.988996,38.0176839 124.787903,39.2921355 124.230411,42.2654218 L132.108663,42.2654218 Z M135.954917,48.504116 L135.954917,52.0080117 C134.337331,52.7247767 132.427341,53.1499411 130.172659,53.1499411 C123.540765,53.1499411 120.145343,48.9019428 120.145343,43.9379605 C120.145343,38.4425879 123.806374,34.5400845 129.483012,34.5400845 C133.753824,34.5400845 137.334469,37.2478058 137.334469,41.1503093 C137.334469,43.858291 135.637019,45.4246037 132.108663,45.4246037 L124.257466,45.4246037 C124.867508,48.0789517 127.042586,49.5392988 130.596696,49.5392988 C131.897164,49.5392988 134.018913,49.2208811 135.954917,48.504116 L135.954917,48.504116 Z" id="Fill-29" fill="#051446"></path><g id="Clip-32"></g><polygon id="Fill-31" fill="#051446" mask="url(#mask-2)" points="140.41129 52.8312891 144.284339 52.8312891 144.284339 28.2220072 140.41129 28.2220072"></polygon><path d="M154.708559,53.1763153 C152.294667,53.1763153 149.668496,52.7514114 147.838111,52.0349066 L147.838111,48.6364559 C149.217664,49.2206989 151.976249,49.7515685 154.38988,49.7515685 C156.750963,49.7515685 158.236394,49.0353241 158.236394,47.6809427 C158.236394,46.6454996 157.440349,46.061517 153.382336,45.185413 C149.933325,44.4420914 147.732232,43.1681605 147.732232,39.9824222 C147.732232,36.3985967 150.543366,34.5664587 155.37115,34.5664587 C156.989256,34.5664587 159.403668,34.779171 161.339672,35.3363368 L161.339672,38.708231 C159.668496,38.3093628 157.281139,37.9383529 155.503824,37.9383529 C153.355541,37.9383529 151.71064,38.389553 151.71064,39.9027527 C151.71064,40.9381958 152.825104,41.4422485 156.379214,42.1855701 C160.119329,42.9554482 162.215062,44.4952044 162.215062,47.5213434 C162.215062,51.1056895 159.244459,53.1763153 154.708559,53.1763153" id="Fill-33" fill="#051446" mask="url(#mask-2)"></path><path d="M99.6346514,65.4431263 L102.126327,65.4431263 L100.880229,62.2243225 L99.6346514,65.4431263 Z M104.59693,68.4861886 L103.303226,68.4861886 L102.567794,66.5840143 L99.1921436,66.5840143 L98.4577523,68.4861886 L97.2061915,68.4861886 L100.146618,61.0253747 L101.652341,61.0253747 L104.59693,68.4861886 Z" id="Fill-34" fill="#051446" mask="url(#mask-2)"></path><polygon id="Fill-35" fill="#051446" mask="url(#mask-2)" points="107.89256 68.4855637 109.095994 68.4855637 109.095994 61.025531 107.89256 61.025531"></polygon><path d="M114.44974,62.1553537 L114.44974,64.2548792 L116.281165,64.2548792 C117.250208,64.2548792 117.702862,63.9031358 117.702862,63.1835068 C117.702862,62.4753335 117.223673,62.1553537 116.281165,62.1553537 L114.44974,62.1553537 Z M116.313163,61.0254008 C118.027263,61.0254008 118.954422,61.7926753 118.954422,63.1835068 C118.954422,64.4522305 117.98512,65.2942277 116.46743,65.3478614 L118.921384,68.4856939 L117.43153,68.4856939 L115.0564,65.3478614 L114.44974,65.3478614 L114.44974,68.4856939 L113.246306,68.4856939 L113.246306,61.0254008 L116.313163,61.0254008 Z" id="Fill-36" fill="#051446" mask="url(#mask-2)"></path><polygon id="Fill-37" fill="#051446" mask="url(#mask-2)" points="128.209781 68.485798 122.880437 68.485798 122.880437 61.0257653 124.083091 61.0257653 124.083091 67.3459515 128.209781 67.3459515"></polygon><polygon id="Fill-38" fill="#051446" mask="url(#mask-2)" points="131.548647 68.4855637 132.751821 68.4855637 132.751821 61.025531 131.548647 61.025531"></polygon><polygon id="Fill-39" fill="#051446" mask="url(#mask-2)" points="142.064828 68.485798 137.90692 63.0880596 137.900937 68.485798 136.698023 68.485798 136.698023 61.0257653 137.784391 61.0257653 141.947763 66.4240244 141.947763 61.0257653 143.151197 61.0257653 143.151197 68.485798"></polygon><polygon id="Fill-40" fill="#051446" mask="url(#mask-2)" points="152.96782 68.485798 147.531816 68.485798 147.531816 61.0257653 152.898621 61.0257653 152.898621 62.1554579 148.734729 62.1554579 148.734729 64.1638581 152.754761 64.1638581 152.754761 65.2940715 148.734729 65.2940715 148.734729 67.3558451 152.96782 67.3558451"></polygon><path d="M159.859391,64.217622 L159.342222,64.1481065 C158.373439,64.0093358 157.792794,63.7698066 157.792794,63.1514567 C157.792794,62.4695796 158.474636,62.0381667 159.470473,62.0381667 C160.132544,62.0381667 161.170786,62.2409854 161.89269,62.4646328 L161.89269,61.3057801 C161.89269,61.3057801 160.74935,60.8977994 159.480879,60.8977994 C157.867456,60.8977994 156.542274,61.7288616 156.542274,63.2261794 C156.542274,64.6115434 157.64373,65.1343419 158.751431,65.2884738 L159.332336,65.368664 C160.423127,65.517849 161.009495,65.7894022 161.009495,66.375728 C161.009495,67.0630727 160.242846,67.4788642 159.26808,67.4788642 C158.233481,67.4788642 157.123179,67.0107408 156.60757,66.7626198 L156.60757,67.9712008 C157.423907,68.4067794 158.354188,68.6192314 159.273543,68.6192314 C160.886707,68.6192314 162.260276,67.7876485 162.260276,66.2689813 C162.260276,64.8841381 161.068028,64.3829493 159.859391,64.217622" id="Fill-41" fill="#051446" mask="url(#mask-2)"></path></g></g></g></svg>