<?xml version="1.0" encoding="UTF-8" standalone="no"?>
<!DOCTYPE svg PUBLIC "-//W3C//DTD SVG 1.0//EN" "http://www.w3.org/TR/2001/REC-SVG-20010904/DTD/svg10.dtd">
<!-- Created with Inkscape (http://www.inkscape.org/) -->
<svg
   xmlns:svg="http://www.w3.org/2000/svg"
   xmlns="http://www.w3.org/2000/svg"
   version="1.0"
   width="800"
   height="200"
   id="svg2">
  <defs
     id="defs4" />
  <g
     id="layer1">
    <path
       d="M 685.16761,69.207989 L 704.77129,69.207989 L 704.77129,147.62263 L 685.16761,147.62263 L 685.16761,139.33433 C 681.32372,142.98599 677.46785,145.61664 673.60002,147.22624 C 669.7321,148.83587 665.53986,149.64067 661.02338,149.64067 C 650.88521,149.64067 642.1164,145.71274 634.71702,137.85687 C 627.31756,130.001 623.61789,120.23519 623.61789,108.55945 C 623.61789,96.451365 627.19744,86.529406 634.35666,78.793615 C 641.5158,71.057903 650.2125,67.190028 660.44681,67.189948 C 665.15548,67.190028 669.57595,68.078949 673.70812,69.856633 C 677.84022,71.634475 681.66005,74.301159 685.16761,77.856646 L 685.16761,69.207989 z M 664.48286,85.352199 C 658.38072,85.352239 653.31162,87.502411 649.27561,91.802636 C 645.23953,96.10302 643.22153,101.61653 643.22153,108.34324 C 643.22153,115.11808 645.27557,120.69164 649.38372,125.06402 C 653.4918,129.43644 658.54889,131.6226 664.55493,131.6226 C 670.75311,131.6226 675.89425,129.47247 679.97842,125.17213 C 684.06243,120.87182 686.1045,115.2382 686.10458,108.27117 C 686.1045,101.44836 684.06243,95.922841 679.97842,91.694529 C 675.89425,87.466375 670.72909,85.352239 664.48286,85.352199 L 664.48286,85.352199 z M 718.25357,69.207989 L 738.00139,69.207989 L 738.00139,147.62263 L 718.25357,147.62263 L 718.25357,69.207989 z M 749.84688,69.207989 L 766.71181,69.207989 L 766.71181,79.081901 C 768.53762,75.190041 770.96403,72.23511 773.99111,70.21699 C 777.01811,68.199068 780.33344,67.190028 783.93709,67.189948 C 786.48358,67.190028 789.15026,67.862734 791.9371,69.207989 L 785.81095,86.144985 C 783.50458,84.991881 781.6067,84.415309 780.11722,84.41523 C 777.09018,84.415309 774.5316,86.289168 772.44153,90.036885 C 770.35142,93.784681 769.30638,101.13605 769.30638,112.091 L 769.37845,115.91082 L 769.37845,147.62263 L 749.84688,147.62263 L 749.84688,69.207989 z"
       id="text2434"
       style="font-size:37.23306274px;font-style:normal;font-variant:normal;font-weight:bold;font-stretch:normal;text-align:start;line-height:100%;writing-mode:lr-tb;text-anchor:start;fill:#f2734a;fill-opacity:1;stroke:none;stroke-width:1px;stroke-linecap:butt;stroke-linejoin:miter;stroke-opacity:1;font-family:Century Gothic;-inkscape-font-specification:Century Gothic Bold" />
    <path
       d="M 30.077365,38.937611 L 30.077365,77.856646 C 33.632891,74.301159 37.476743,71.634475 41.608921,69.856633 C 45.741019,68.078949 50.161482,67.190028 54.870231,67.189948 C 65.104421,67.190028 73.801165,71.057903 80.960424,78.793615 C 88.119485,86.529406 91.699075,96.451365 91.699194,108.55945 C 91.699075,120.23519 87.999366,130.001 80.600027,137.85687 C 73.20057,145.71274 64.431754,149.64067 54.29366,149.64067 C 49.777061,149.64067 45.572852,148.83587 41.680992,147.22624 C 37.789053,145.61664 33.921177,142.98599 30.077365,139.33433 L 30.077365,147.62263 L 10.545756,147.62263 L 10.545756,38.937611 L 30.077365,38.937611 z M 50.762117,85.352199 C 44.563851,85.352239 39.422713,87.466375 35.338662,91.694529 C 31.254532,95.922841 29.212467,101.44836 29.212507,108.27117 C 29.212467,115.2382 31.254532,120.87182 35.338662,125.17213 C 39.422713,129.47247 44.563851,131.6226 50.762117,131.6226 C 56.768074,131.6226 61.825169,129.43644 65.933323,125.06402 C 70.041397,120.69164 72.095434,115.11808 72.095513,108.34324 C 72.095434,101.61653 70.077433,96.10302 66.04143,91.802636 C 62.005348,87.502411 56.912217,85.352239 50.762117,85.352199 L 50.762117,85.352199 z M 156.02283,69.207989 L 175.62651,69.207989 L 175.62651,147.62263 L 156.02283,147.62263 L 156.02283,139.33433 C 152.1789,142.98599 148.32304,145.61664 144.45524,147.22624 C 140.58728,148.83587 136.39509,149.64067 131.87861,149.64067 C 121.74039,149.64067 112.97162,145.71274 105.57224,137.85687 C 98.172782,130.001 94.473074,120.23519 94.473074,108.55945 C 94.473074,96.451365 98.052663,86.529406 105.21184,78.793615 C 112.37102,71.057903 121.06773,67.190028 131.30204,67.189948 C 136.01071,67.190028 140.43113,68.078949 144.56335,69.856633 C 148.69541,71.634475 152.51523,74.301159 156.02283,77.856646 L 156.02283,69.207989 z M 135.33808,85.352199 C 129.23591,85.352239 124.16684,87.502411 120.13084,91.802636 C 116.09476,96.10302 114.07671,101.61653 114.07675,108.34324 C 114.07671,115.11808 116.13079,120.69164 120.23894,125.06402 C 124.34702,129.43644 129.40407,131.6226 135.41015,131.6226 C 141.6083,131.6226 146.74948,129.47247 150.8336,125.17213 C 154.91766,120.87182 156.95968,115.2382 156.95976,108.27117 C 156.95968,101.44836 154.91766,95.922841 150.8336,91.694529 C 146.74948,87.466375 141.58427,85.352239 135.33808,85.352199 L 135.33808,85.352199 z M 185.67969,38.937611 L 205.2113,38.937611 L 205.2113,77.135931 C 209.05511,73.820683 212.92299,71.334177 216.81493,69.676454 C 220.70679,68.018889 224.64673,67.190028 228.63481,67.189948 C 236.41853,67.190028 242.97711,69.880736 248.31052,75.262073 C 252.87505,79.922814 255.15731,86.769644 255.15739,95.802682 L 255.15739,147.62263 L 235.76996,147.62263 L 235.76996,113.24414 C 235.76988,104.16309 235.33745,98.012914 234.47264,94.793642 C 233.60774,91.574489 232.13023,89.172067 230.0402,87.586415 C 227.95005,86.000882 225.36745,85.208096 222.29244,85.208016 C 218.3044,85.208096 214.88097,86.529406 212.02213,89.172027 C 209.16322,91.814727 207.18125,95.418341 206.07616,99.982868 C 205.49954,102.33728 205.21126,107.71866 205.2113,116.12704 L 205.2113,147.62263 L 185.67969,147.62263 L 185.67969,38.937611 z M 323.56353,69.207989 L 343.16721,69.207989 L 343.16721,147.62263 L 323.56353,147.62263 L 323.56353,139.33433 C 319.71964,142.98599 315.86378,145.61664 311.99594,147.22624 C 308.12802,148.83587 303.93579,149.64067 299.41931,149.64067 C 289.28113,149.64067 280.51232,145.71274 273.11294,137.85687 C 265.71348,130.001 262.01381,120.23519 262.01381,108.55945 C 262.01381,96.451365 265.59336,86.529406 272.75258,78.793615 C 279.91172,71.057903 288.60843,67.190028 298.84274,67.189948 C 303.55141,67.190028 307.97187,68.078949 312.10405,69.856633 C 316.23614,71.634475 320.05597,74.301159 323.56353,77.856646 L 323.56353,69.207989 z M 302.87878,85.352199 C 296.77665,85.352239 291.70754,87.502411 287.67154,91.802636 C 283.63546,96.10302 281.61745,101.61653 281.61745,108.34324 C 281.61745,115.11808 283.67149,120.69164 287.77964,125.06402 C 291.88772,129.43644 296.94481,131.6226 302.95085,131.6226 C 309.14904,131.6226 314.29018,129.47247 318.37434,125.17213 C 322.45836,120.87182 324.50042,115.2382 324.5005,108.27117 C 324.50042,101.44836 322.45836,95.922841 318.37434,91.694529 C 314.29018,87.466375 309.12501,85.352239 302.87878,85.352199 L 302.87878,85.352199 z M 353.00421,69.207989 L 372.75205,69.207989 L 372.75205,78.217004 C 376.11539,74.517374 379.85113,71.754634 383.95929,69.928704 C 388.06736,68.102973 392.54785,67.190028 397.40078,67.189948 C 402.30164,67.190028 406.72206,68.391258 410.66209,70.793562 C 414.60196,73.196063 417.77314,76.703582 420.1756,81.316117 C 423.29866,76.703582 427.1305,73.196063 431.67116,70.793562 C 436.21159,68.391258 441.17259,67.190028 446.55408,67.189948 C 452.12757,67.190028 457.02847,68.487354 461.25682,71.081848 C 465.48494,73.67654 468.52399,77.063939 470.37398,81.244045 C 472.2237,85.42431 473.14862,92.223132 473.14874,101.64051 L 473.14874,147.62263 L 453.32888,147.62263 L 453.32888,107.83874 C 453.32876,98.949883 452.22367,92.931835 450.01355,89.784635 C 447.80324,86.637513 444.48791,85.063953 440.06757,85.063873 C 436.70411,85.063953 433.68908,86.024906 431.02248,87.946772 C 428.35572,89.868758 426.37375,92.52343 425.07654,95.91079 C 423.77914,99.298229 423.13049,104.73967 423.13057,112.23514 L 423.13057,147.62263 L 403.31068,147.62263 L 403.31068,109.64053 C 403.31064,102.62557 402.79413,97.54445 401.76114,94.397249 C 400.72804,91.250167 399.1785,88.907805 397.11249,87.3702 C 395.04636,85.832715 392.54785,85.063953 389.61694,85.063873 C 386.34962,85.063953 383.38268,86.036918 380.71603,87.982808 C 378.04931,89.928817 376.05533,92.655561 374.73402,96.16304 C 373.41267,99.670598 372.75201,105.19612 372.75205,112.73964 L 372.75205,147.62263 L 353.00421,147.62263 L 353.00421,69.207989 z M 541.26663,69.207989 L 560.87027,69.207989 L 560.87027,147.62263 L 541.26663,147.62263 L 541.26663,139.33433 C 537.4227,142.98599 533.56684,145.61664 529.699,147.22624 C 525.83108,148.83587 521.63889,149.64067 517.12241,149.64067 C 506.98419,149.64067 498.21542,145.71274 490.816,137.85687 C 483.41658,130.001 479.71687,120.23519 479.71687,108.55945 C 479.71687,96.451365 483.29646,86.529406 490.45564,78.793615 C 497.61482,71.057903 506.31153,67.190028 516.54584,67.189948 C 521.25451,67.190028 525.67493,68.078949 529.80711,69.856633 C 533.9392,71.634475 537.75903,74.301159 541.26663,77.856646 L 541.26663,69.207989 z M 520.58188,85.352199 C 514.47971,85.352239 509.41064,87.502411 505.3746,91.802636 C 501.33856,96.10302 499.32051,101.61653 499.32055,108.34324 C 499.32051,115.11808 501.37459,120.69164 505.48274,125.06402 C 509.59082,129.43644 514.64787,131.6226 520.65395,131.6226 C 526.8521,131.6226 531.99328,129.47247 536.0774,125.17213 C 540.16146,120.87182 542.20348,115.2382 542.20356,108.27117 C 542.20348,101.44836 540.16146,95.922841 536.0774,91.694529 C 531.99328,87.466375 526.82807,85.352239 520.58188,85.352199 L 520.58188,85.352199 z M 618.85154,80.162973 L 606.67134,92.343212 C 601.72235,87.442351 597.22982,84.991881 593.19381,84.991802 C 590.98358,84.991881 589.25383,85.460346 588.00463,86.397235 C 586.75535,87.334244 586.13069,88.4994 586.13073,89.892742 C 586.13069,90.94987 586.52712,91.922834 587.31991,92.811676 C 588.1127,93.700598 590.07064,94.913841 593.19381,96.451326 L 600.40104,100.05494 C 607.99261,103.80274 613.20586,107.62256 616.04075,111.51442 C 618.87552,115.40636 620.29293,119.97093 620.29301,125.20816 C 620.29293,132.17515 617.73439,137.989 612.61732,142.64966 C 607.50012,147.31032 600.64124,149.64067 592.04067,149.64067 C 580.60517,149.64067 571.47604,145.1722 564.65319,136.23522 L 576.76132,123.04598 C 579.06765,125.73673 581.77033,127.91088 584.86948,129.56853 C 587.96855,131.22621 590.71932,132.05503 593.12174,132.05503 C 595.71632,132.05503 597.80643,131.43041 599.39204,130.18113 C 600.97757,128.9319 601.7704,127.49047 601.77044,125.85681 C 601.7704,122.8298 598.91153,119.87483 593.19381,116.99194 L 586.56316,113.67661 C 573.87842,107.28623 567.53609,99.286217 567.53609,89.676527 C 567.53609,83.47838 569.92646,78.181047 574.70728,73.784568 C 579.48806,69.388247 585.60217,67.190028 593.04967,67.189948 C 598.14276,67.190028 602.93556,68.307175 607.42809,70.541312 C 611.92055,72.775646 615.72836,75.982867 618.85154,80.162973 L 618.85154,80.162973 z"
       id="path2439"
       style="font-size:37.23306274px;font-style:normal;font-variant:normal;font-weight:bold;font-stretch:normal;text-align:start;line-height:100%;writing-mode:lr-tb;text-anchor:start;fill:#1f6ba6;fill-opacity:1;stroke:none;stroke-width:1px;stroke-linecap:butt;stroke-linejoin:miter;stroke-opacity:1;font-family:Century Gothic;-inkscape-font-specification:Century Gothic Bold" />
  </g>
</svg>
