<?xml version="1.0" encoding="UTF-8" standalone="no"?>
<svg
   xmlns:svg="http://www.w3.org/2000/svg"
   xmlns="http://www.w3.org/2000/svg"
   version="1.1"
   viewBox="0 0 522.00226 461.00964" width="336" height="297"

   id="svg3062">
  <defs
     id="defs3064" />
  <g
     transform="translate(-173.28456,-270.42879)"
     id="layer1">
    <path
       d="m 390.90014,514.42245 0,109.19965 c 1.22153,0 4.09247,-1.61667 5.36248,-2.16666 1.6481,-0.73332 3.59574,-1.2035 5.52499,-1.29999 4.75041,-0.29912 9.46859,0.38727 14.08328,0.54166 8.82219,0.27018 15.41012,-2.07091 21.44993,-7.20414 2.66605,-2.29645 4.56166,-5.17986 6.22915,-8.01664 7.61035,-13.03572 3.29845,-27.25535 -6.06665,-37.48322 -2.00681,-2.19995 -5.42815,-5.87192 -8.01664,-6.93331 0,-0.49209 1.18135,-1.80812 1.4625,-2.32916 0.49443,-1.01313 0.78679,-2.09583 1.02916,-3.19582 1.51238,-7.23669 -1.40873,-14.21758 -5.47081,-19.28327 -3.92636,-4.88237 -9.24608,-7.32896 -14.73329,-9.31664 -2.58848,-0.85876 -5.21718,-1.66184 -7.85414,-2.49166 -1.90987,-0.56929 -3.95213,-1.07041 -5.68748,-2.11249 -1.84199,-1.12893 -3.34553,-2.67962 -4.71249,-4.38748 -0.84344,-1.06139 -1.74579,-2.19892 -2.22082,-3.52083 l -0.37917,0 z m 16.46661,26.37909 c 4.88613,2.6052 11.42023,6.95579 10.23747,13.75828 -0.3684,1.95873 -1.19426,3.68291 -2.59999,5.09165 -1.30878,1.21578 -2.94636,2.04628 -4.60415,2.65416 -0.66895,0.24123 -1.36032,0.46294 -2.05833,0.70417 -0.31992,0 -0.0832,0.48815 -0.0541,0.75833 0.31992,2.3254 1.14178,4.36251 2.65416,6.01248 1.15367,1.22541 2.70522,1.7954 4.06249,2.65416 4.27537,2.77889 9.48601,4.77571 12.40412,9.26247 4.01361,6.15601 3.06697,16.18335 -3.19582,20.58326 -1.36695,0.95524 -2.89618,1.69979 -4.49582,2.22083 -0.9113,0.24123 -1.78732,0.5171 -2.70832,0.75833 -0.47504,0.0386 -1.01823,0.066 -1.57083,0.16241 -2.60788,-0.0965 -5.22687,-0.12393 -7.85414,-0.16241 l 0,-0.21666 c -0.39749,0 -0.21667,-1.17896 -0.21667,-1.51667 l 0,-13.59579 0,-49.129 z m 183.29942,4.60415 c -1.74505,1.98767 -4.00968,3.42458 -5.95832,5.19998 -2.5594,2.20961 -5.06837,4.4373 -7.63747,6.60831 l 0,0.21667 -0.21667,0 0,0.21666 c 1.04703,0 1.78119,1.47413 2.00416,2.275 0.27146,1.03244 0.0889,2.47127 0.10833,3.62915 l 0,8.07081 0,36.07488 c 0,2.83679 0.56015,11.91688 -0.75833,13.59579 l 0,0.21667 -0.21666,0 0,0.16241 13.43329,0 c 0,-0.3377 -0.36147,-0.70482 -0.4875,-0.97499 -0.26175,-0.73332 -0.40425,-1.48379 -0.43333,-2.275 -0.26175,-5.27796 -0.0541,-10.40948 -0.0541,-15.87078 0.25206,0 0.21666,-0.0246 0.21666,0.21667 0.80467,0 1.73779,0.81163 2.32916,1.24583 4.47896,3.08766 7.21768,7.36804 8.07081,12.67496 0.25206,1.34119 0.39411,3.40768 -0.21667,4.60415 0,0.21228 0.0354,0.21666 -0.21666,0.21666 l 0,0.16242 13.43329,0 c 0,-1.8912 -0.35516,-3.62568 -0.70417,-5.36249 -1.32818,-6.56127 -4.0621,-13.05353 -9.31663,-17.54994 -0.76589,-0.66577 -1.5262,-1.32808 -2.4375,-1.73333 l 0,-0.37916 c 0.73681,0 1.72239,-1.12105 2.275,-1.51667 4.954,-4.06221 7.69502,-10.12201 7.9083,-16.68328 l -8.82913,0 c -1.0955,0 -2.6854,-0.19603 -3.41249,0.325 -0.0194,0.029 0,0.0253 0,0.0541 l -0.10834,0 c 0.13572,0.57893 0.19897,1.1544 0.325,1.73333 l 0,2.32916 c -0.39748,3.14556 -5.31689,8.34648 -8.34164,9.5333 l 0,0.21667 -0.37916,0 0,-34.82906 c 0,-1.92014 0.32855,-11.57431 -0.37917,-12.40412 z m 80.38307,0 c -4.52743,3.93677 -9.08375,7.86187 -13.64995,11.80829 -0.26175,0 -0.16242,0.15358 -0.16242,0.43333 0.95009,0 1.67686,1.57062 1.84166,2.275 0.0194,1.34119 0.0251,2.72129 0.0541,4.06248 l 0,8.17914 0,35.74989 c 0,2.80783 0.59894,11.70021 -0.75833,13.37912 l 0,0.21667 -0.16241,0 0,0.16241 13.48746,0 c 0,-0.24122 6.2e-4,-0.16241 -0.27084,-0.16241 -0.0969,-0.45351 -0.27821,-0.97413 -0.43333,-1.40833 -0.0969,-0.69472 -0.17389,-1.3829 -0.27083,-2.05833 0,-5.16218 -0.0541,-10.32943 -0.0541,-15.49161 l 0.37916,0 c 0,0.30875 0.64938,0.54977 0.92083,0.70416 5.19637,2.86573 9.23108,8.39173 9.42497,14.62495 0.0485,1.18683 0.10158,2.46689 -0.32499,3.41249 0,0.21228 0.0451,0.21667 -0.21667,0.21667 l 0,0.16241 13.43329,0 c 0,-7.67091 -3.82436,-16.91253 -8.99164,-22.04576 -1.04703,-1.03244 -2.16756,-2.07895 -3.46665,-2.59999 l 0,-0.37917 c 0.87252,0 2.06846,-1.31689 2.70832,-1.89582 4.65347,-4.37097 7.22692,-9.6753 7.42081,-16.30412 -1.58993,0 -11.60978,-0.23684 -12.13329,0.21667 -0.11631,0.0387 0.42995,3.60438 0.21666,4.54998 -0.7368,3.02012 -5.34596,8.14692 -8.34164,9.20831 l 0,0.21666 -0.43333,0 0,-35.96655 0,-8.01664 c 0,-1.06139 0.10331,-2.39123 -0.21667,-3.24999 z m -156.21616,32.87906 c -1.19245,0.39561 -2.50458,0.5044 -3.62916,1.08333 -0.90161,0.42456 -1.78732,0.97413 -2.70832,1.40833 l 0,0.16241 -0.16242,0 c 0,-0.57893 -1.11116,-2.06271 -1.62499,-2.27499 -0.95009,-0.42456 -2.4601,-0.21667 -3.57499,-0.21667 l -6.49998,0 c -0.94038,0.0386 -1.88196,0.0794 -2.87082,0.10833 -0.17451,0.0966 -0.40194,0.184 -0.59583,0.27084 -0.18421,0.54998 0.9573,2.00395 1.08333,2.70832 0,1.49559 0.0445,2.95945 0.0541,4.38749 l 0,35.58738 0.16241,0 c 0,0.30876 0.88143,0.16242 1.19166,0.16242 l 11.1583,0 0,-21.0166 c 0,-1.86226 -0.38841,-5.38729 0.27083,-6.82498 0.97918,-2.19996 3.79977,-3.63748 6.17498,-3.08749 1.41544,0.3377 3.10396,1.67874 3.52082,3.08749 0.49443,1.61137 0.16242,3.97809 0.16242,5.84998 l 0,14.51662 c 0,1.69821 -0.34563,4.01383 0.21666,5.47082 0.30054,0.85876 1.21089,1.63903 2.1125,1.84166 1.17306,0.28946 2.5855,0.12393 3.84582,0.16241 l 8.2333,0 0,-0.16241 c -0.96946,0 -1.52805,-2.0329 -1.62499,-2.70833 -0.0484,-1.73664 -0.10816,-3.42814 -0.10816,-5.14564 l 0,-7.85414 0,-8.82914 c 0,-4.78588 0.12861,-9.26363 -2.00416,-12.89163 -0.66894,-1.19646 -1.88766,-2.33706 -2.92499,-3.19582 -1.26032,-1.09999 -2.55581,-1.91798 -4.11666,-2.27499 -1.78382,-0.40525 -3.78331,-0.325 -5.74164,-0.325 z m -48.53318,0.10833 c -1.28455,-0.009 -2.61944,0.0541 -3.84582,0.0541 -0.82406,0.27981 -1.64252,0.4533 -2.43749,0.70417 -1.43482,0.54034 -3.33307,2.01712 -4.22499,3.35832 -3.53857,5.06568 -3.57421,12.39633 -4.76665,18.68744 -0.24237,1.77539 -0.51028,3.55812 -0.70417,5.36248 -0.20359,1.42804 -0.42026,3.10857 -0.21666,4.60415 0.35871,2.47013 1.76777,4.68378 3.62915,6.39165 3.62583,3.29994 9.74559,4.75875 15.05829,3.89999 0.74649,-0.15444 1.49203,-0.36272 2.11249,-0.75833 0.57198,-0.36667 1.14934,-1.1375 1.89583,-1.1375 0.76589,-0.029 1.13626,0.82127 1.67916,1.24583 0.51383,0.42456 1.10886,0.69671 1.78749,0.8125 3.85849,0.0289 7.68866,0.0156 11.53747,0.0541 l 0,-0.16242 c -2.04559,0 -2.23284,-7.29935 -2.05833,-9.0458 0.27146,-2.83678 0.16241,-5.9463 0.16241,-8.93747 l 0,-13.75829 c 0,-2.41224 -0.39579,-5.66384 0.10834,-7.85414 0.22297,-1.07104 1.06039,-2.44913 1.78749,-3.24999 l 0,-0.21667 -9.42497,0 c -1.1052,0 -2.53997,-0.17895 -3.41249,0.21667 -0.80466,0.3377 -1.13119,1.13356 -1.35416,1.89582 l -0.21667,0 0,-0.21666 c -0.3684,0 -0.81757,-0.53049 -1.13749,-0.70417 -0.7465,-0.39561 -1.55359,-0.74715 -2.32916,-0.92083 -1.11975,-0.24604 -2.34461,-0.31655 -3.62916,-0.325 z m 84.82473,0 c -1.28698,-0.0156 -2.59521,0.0541 -3.84582,0.0541 -0.80467,0.27981 -1.58437,0.46294 -2.4375,0.70417 -1.59963,0.64647 -3.49156,2.05418 -4.44165,3.52082 -3.35437,5.03674 -3.34215,11.85027 -4.49582,17.92911 -0.63015,3.20345 -1.49451,7.43315 -1.02916,10.88746 0.1842,1.48593 0.96914,2.90461 1.84166,4.06249 3.46102,4.45781 9.21406,6.54537 15.16662,6.12081 2.35581,-0.21228 4.49654,-0.98749 6.71664,-1.35416 l 0,9.0458 c -0.0291,1.18683 0.12827,2.47875 -0.16241,3.52083 -0.13572,0.60787 -0.44009,1.11732 -0.86666,1.57082 -1.2797,1.30262 -2.5849,1.35023 -4.11666,2.1125 -4.18812,0 -11.80271,0.44754 -14.24579,-2.43749 l -0.16241,0 0,-0.21667 c -0.3684,0 -0.21666,1.17896 -0.21666,1.51666 l 0,14.57079 0.21666,0 c 0,-2.41224 7.14565,-2.00855 9.04581,-2.22083 3.51917,-0.39561 7.24856,-0.10816 10.6708,-0.8125 3.97483,-0.82015 7.97814,-3.70816 9.58746,-7.52914 2.59819,-5.92444 2.16666,-13.42968 2.16666,-20.63743 l 0,-24.64576 0,-7.63747 c 0,-1.45698 -0.11873,-3.09453 0.16242,-4.38749 0.26175,-1.18682 1.09009,-2.17522 1.51666,-3.30415 0.31992,0 0.27083,-0.0993 0.27083,-0.37917 l -8.8833,0 c -1.22153,0 -2.70985,-0.17895 -3.73749,0.21667 -0.88221,0.25086 -1.26861,1.10461 -1.4625,1.89582 -0.44595,0 -1.17334,-0.77829 -1.57083,-1.02916 -0.66894,-0.24123 -1.31583,-0.48225 -2.00416,-0.70416 -1.1052,-0.30394 -2.39634,-0.41765 -3.68332,-0.43334 z m 82.87473,0 c -1.49042,0.003 -2.95267,0.0541 -4.38749,0.0541 -0.52351,0.16397 -1.01254,0.27303 -1.51666,0.37917 -5.42904,0 -9.12595,4.60576 -10.45413,9.2083 -0.95978,3.29994 -1.15795,7.06362 -1.51666,10.5083 -0.38778,3.39642 -0.98193,7.41232 -0.4875,11.04996 0.62046,4.178 3.53153,8.14519 7.31248,10.07497 4.99278,2.52803 13.14775,2.65019 18.7416,1.02917 4.11055,-1.22542 7.71132,-4.44566 9.26247,-8.44998 1.99711,-4.88237 0.29947,-13.60092 -0.37916,-18.84994 -0.22298,-2.01662 -0.47256,-4.10944 -1.08333,-5.90414 -0.70772,-2.18067 -1.95766,-4.41668 -3.68332,-6.06665 -2.87206,-2.70652 -7.33706,-3.04327 -11.8083,-3.03333 z m -165.42447,9.8583 c 2.00681,0 3.87811,-0.0175 4.98332,1.51666 0.57198,0.77193 0.73049,17.06203 0.21666,18.47078 -0.50412,1.42804 -1.88303,2.92478 -3.24999,3.62915 -0.50412,0.21228 -1.00283,0.38355 -1.51666,0.59584 -2.30733,0 -4.11079,-0.85421 -4.98331,-2.87083 -0.59138,-1.3798 -0.45672,-2.71229 -0.37917,-4.33332 0.0485,-4.85342 0.69458,-12.45132 3.19582,-15.92495 0.44595,-0.64648 1.13227,-0.77457 1.73333,-1.08333 z m 84.66223,0 c 1.78382,0 4.07202,-0.11613 4.98332,1.40833 0.64954,0.91665 0.66093,17.87233 0.10833,19.17494 -0.921,1.98768 -2.40069,2.84671 -4.11665,4.06249 -2.07468,0 -3.48125,-0.22064 -4.71249,-1.84166 -2.67574,-3.72449 -0.40412,-18.42455 2.05833,-21.6666 0.48474,-0.64648 1.01022,-0.79979 1.67916,-1.1375 z m 79.24558,0.54167 c 1.77413,0 3.35184,-0.009 4.49582,1.24583 2.04558,2.17101 1.87412,7.38423 2.05832,10.61663 0.0872,1.3798 0.28285,2.9884 0.10834,4.38749 -0.14543,1.92014 -0.64815,3.71623 -1.4625,5.30831 -0.68832,1.25436 -1.8335,1.75462 -2.87082,2.54583 -1.77413,0 -3.16996,-0.0589 -4.33332,-1.24583 -2.86963,-2.87538 -2.24253,-9.11802 -2.05833,-13.32496 0.13572,-2.83678 0.21126,-5.98291 1.73333,-8.12497 0.59138,-0.88771 1.45664,-0.95482 2.32916,-1.40833 z m -250.79086,5.57915 c -0.49443,1.31225 -1.40648,2.55438 -2.22083,3.68332 -4.02331,5.27796 -10.05795,6.90001 -15.81662,9.09997 -3.73246,1.40874 -7.40368,3.30419 -10.67079,5.68748 -11.04227,7.90248 -15.28367,20.90145 -17.38743,33.90823 -0.66894,4.00431 -1.35416,8.11999 -1.35416,12.40412 l -0.16242,0 c 0,0.29912 -2.25667,0.1862 -2.65415,0.37917 -0.98887,0 -2.25375,-0.20417 -3.08749,0.16241 -3.58706,0 -6.82786,0.0284 -9.80414,-0.975 -1.99712,-0.66568 -3.62082,-1.92075 -5.57915,-2.65407 l 0,-0.16241 -0.16241,0 c 0,6.59987 2.44217,11.16624 8.01664,14.40829 1.72565,0.97454 3.65328,1.92916 5.79581,2.11249 1.87108,0.18333 3.81471,0.0173 5.57915,-0.10833 0,1.29296 -1.21381,4.10812 -1.67916,5.36248 -3.26713,8.72264 -9.71937,15.52524 -18.03744,19.77077 -1.91956,0.97455 -3.89903,2.14123 -6.01248,2.81666 l 0,0.37916 c 0.5526,0.27018 1.10716,0.47852 1.67916,0.75833 0.87252,0.30876 1.6733,0.65066 2.54583,0.92083 3.63551,0.82016 7.92978,1.21995 12.07912,0.92083 16.71369,-1.31225 23.76523,-16.60458 24.75409,-31.84989 3.33496,0 6.78043,-0.87937 10.18328,-0.54167 1.43482,0.14473 2.9259,0.32041 4.22499,0.8125 0.9113,0.36667 1.78164,0.73004 2.65416,1.02916 0,-1.52453 -0.82496,-3.26295 -1.3,-4.60415 -2.46245,-6.38759 -7.58213,-8.11731 -14.02912,-8.93747 0.47504,-3.05872 0.98746,-6.06648 1.4625,-9.15414 1.50267,-8.0858 4.39071,-28.18282 14.84162,-28.49157 l 0,61.69563 0,11.10413 c 0,1.7754 0.23498,3.93291 -0.16242,5.52498 -0.26175,1.18683 -1.1464,2.64212 -2.32916,3.24999 0,0.33771 1.7441,0.21667 2.1125,0.21667 l 18.84994,0 0,-0.21667 c -0.9113,0 -1.65746,-1.26491 -1.84166,-1.94999 -0.65924,-2.01662 -0.325,-4.85945 -0.325,-7.20414 l 0,-16.62912 0,-56.98315 0,-18.52494 c 0,-2.1903 0.43856,-5.50066 -0.16242,-7.42081 z m 12.67496,43.33319 0,0.21667 c -1.36696,0 -2.80279,0.79891 -3.79166,1.57083 -6.7766,5.43235 -2.6803,16.8758 6.22915,15.70828 9.37479,-1.19647 10.83035,-14.40898 1.94999,-17.06245 -1.34756,-0.39561 -2.77816,-0.43333 -4.38748,-0.43333 z m 205.50767,21.44993 c -0.67863,0.29912 -1.39509,0.58313 -2.11249,0.92083 -0.44595,0.0579 -0.86942,0.14907 -1.35417,0.21667 l -8.0708,0 c -0.99856,0 -2.41624,-0.14993 -3.24999,0.21666 -3.83912,0 -7.52419,1.88755 -9.69581,4.82082 -4.43048,5.8955 -0.46787,12.70046 4.49582,16.79162 3.26712,2.68241 6.77572,3.90905 8.01664,8.3958 0.31024,1.09999 0.17004,2.12413 -0.59583,2.92499 -1.90016,1.8526 -7.4171,-0.72831 -9.0458,-1.89583 -0.86283,-0.73331 -1.70239,-1.4875 -2.54583,-2.22082 l 0,-0.16241 c -0.46534,0 -0.35977,0.77082 -0.37916,1.13749 -0.0104,4.76658 0,9.55859 0,14.35412 l 0.37916,0 c 0,-0.25086 0.0518,-0.26338 0.21667,-0.37916 1.63841,-1.04208 3.69376,-0.975 5.90415,-0.975 l 7.47497,0 c 1.06642,-0.029 2.16418,-0.0891 3.24999,-0.10833 2.82117,-0.61754 5.36046,-2.4917 7.09581,-4.87499 6.21431,-8.81912 -1.5161,-16.08426 -7.69164,-21.88326 -1.38635,-1.32191 -4.13605,-2.46802 -4.11665,-4.65832 0,-0.74297 0.19203,-1.21381 0.8125,-1.57083 0.59137,-0.40525 1.41616,-0.62039 2.22082,-0.37916 2.23948,0.58858 2.93756,1.94999 5.90415,1.94999 0.7368,0 1.43218,-0.0993 2.00416,-0.37916 0.7368,-0.29912 1.12548,-0.92063 1.3,-1.625 0.25206,-1.12893 0.35531,-10.19207 -0.21667,-10.61663 z m -35.26239,0.8125 c -3.08291,0.0265 -6.03232,0.23948 -6.66248,0.86666 -1.32818,1.28331 -0.86666,4.11383 -0.86666,6.12082 l 0,15.49161 c 0,3.20345 0.41874,7.02085 -0.8125,9.58747 -1.06641,2.19996 -1.95935,2.24497 -3.79165,3.41249 -3.02475,0 -4.67584,-2.97919 -5.47082,-5.36248 -0.79497,-2.41224 -0.67846,-6.25506 -0.92083,-8.93747 -0.52351,-6.04989 -1.057,-12.10555 -1.57083,-18.14578 0.0291,-1.15788 0.59736,-2.28376 1.625,-2.70832 l 0,-0.21667 -12.67496,0 c -0.88221,0.60788 -1.62607,1.12459 -2.00416,2.16666 -0.47504,1.37015 -0.12029,3.12195 0.0541,4.54999 0.42657,3.23239 0.85404,6.4634 1.3,9.6958 1.33786,7.2367 1.2916,19.41317 6.66247,24.26659 1.02764,0.88771 2.14649,1.44079 3.35833,2.05833 1.59963,0.79121 3.39045,1.53815 5.41665,1.62499 2.63696,0.14473 6.15232,0.43813 8.44997,-0.75833 l 0.37916,0 0,6.49998 c -0.0775,3.12625 -0.1085,5.51777 -2.59999,7.31247 -1.16336,0.82982 -2.51596,0.82568 -3.73749,1.4625 -3.72277,0 -8.56874,0.0737 -10.77913,-3.03332 l -0.21666,0 0,-0.21667 c -0.31992,0 -0.10834,1.04541 -0.10834,1.35416 l 0,13.37913 0.325,0 c 0,-0.33771 0.37286,-0.32128 0.59583,-0.37917 1.14398,-0.49209 2.62197,-0.35022 4.00832,-0.37916 2.25888,-0.0676 4.77477,-0.0912 7.14998,-0.21667 1.60933,-0.0482 3.44586,-0.0823 4.92915,-0.4875 4.62438,-1.21577 10.85973,-5.40488 12.83746,-10.07497 2.05528,-4.97884 1.40833,-11.63361 1.40833,-17.71244 l 0,-25.99992 0,-8.99163 c 0,-1.46664 -0.25437,-3.23774 0.16241,-4.54999 0.17451,-0.58859 0.61398,-1.07435 1.1375,-1.35416 l 0,-0.21667 c -1.28941,0 -4.5004,-0.13485 -7.58331,-0.10833 z m -46.36651,0.0541 c -0.74892,0.0104 -1.47579,0.11873 -2.00417,0.37916 -0.76588,0.30876 -1.02054,1.00747 -1.40832,1.625 l 0,0.16241 -0.10834,0 c 0,-0.31841 -0.58552,-0.54977 -0.86666,-0.70416 -2.81148,-1.62103 -6.28264,-1.40833 -9.96664,-1.40833 -0.86283,0.29912 -1.76224,0.56163 -2.65415,0.8125 -1.31848,0.5114 -3.05255,1.76711 -3.95416,2.92499 -1.1052,1.47629 -2.01662,3.27765 -2.49166,5.09165 -1.39604,5.34551 -1.9926,11.07132 -2.81665,16.62911 -0.36841,2.50873 -1.0578,5.67041 -0.37917,8.17914 0.64955,2.49908 2.40745,4.72831 4.54999,6.44581 3.05382,2.41224 9.95103,3.82979 14.24578,2.81666 0.77558,-0.15444 1.41847,-0.33377 2.05833,-0.75833 0.51383,-0.3377 0.96576,-1.00022 1.625,-1.02916 0.82405,-0.0579 1.13056,0.80197 1.62499,1.24583 0.51383,0.40525 1.08778,0.63289 1.67916,0.75833 1.4639,0.0289 2.93328,0.0794 4.38749,0.10833 l 7.25831,0 0,-0.16241 c -0.32963,0 -0.52966,-0.39914 -0.70417,-0.65 -1.51238,-2.50873 -1.24583,-5.98775 -1.24583,-9.31664 l 0,-19.49993 c 0.0485,-3.2324 0.11406,-6.47898 0.16242,-9.74997 0.16484,-1.15788 1.041,-2.74145 1.78749,-3.62916 l 0,-0.21666 -8.55831,0 c -0.68348,0 -1.4719,-0.0638 -2.22082,-0.0541 z m -125.07044,0.0541 c -1.04703,0.70437 -1.63007,1.29147 -1.94999,2.54582 -0.0679,1.06139 -0.0849,2.12479 -0.16241,3.19583 l 0,6.12081 0,21.23327 c 0,2.21925 0.3924,6.79254 -0.325,8.5583 -0.23267,0.54999 -0.57751,0.89102 -0.975,1.35416 l -0.27083,0 0,0.21667 15.59995,0 0,-0.21667 c -2.99568,0 -2.27499,-6.61207 -2.27499,-8.93747 l 0,-21.61243 c -0.0485,-3.14555 -0.59308,-6.95463 -0.10834,-10.12913 0.15514,-0.84911 0.46057,-1.71688 1.24583,-2.11249 l 0,-0.21667 -10.77913,0 z m 15.76245,0 c 1.35727,2.04557 0.75833,8.35857 0.75833,11.3208 -0.0194,9.89016 0,19.73891 0,29.62907 -0.0969,0.73332 -0.2639,1.35548 -0.75833,1.89582 l 0,0.16242 -0.21666,0 0,0.21666 13.86662,0 0,-0.21666 c -1.30878,0 -0.975,-7.43223 -0.975,-8.93747 l 0,-8.99164 c 0,-1.83331 -0.31824,-4.02415 0.10833,-5.74165 0.84344,-3.42537 3.6622,-5.8831 6.98748,-6.77081 2.26856,-0.61753 5.51557,0.33204 7.09581,1.62499 l 0.21667,0 c -0.43626,-3.24205 -0.84434,-6.54279 -1.3,-9.80413 -0.13572,-0.80087 -0.0802,-1.96317 -0.4875,-2.59999 -0.56229,-0.82016 -1.59974,-1.21163 -2.49165,-1.4625 -4.0427,-1.15788 -6.77262,1.24214 -9.37081,3.68332 -1.8323,0 -1.35416,-2.59957 -1.35416,-4.00832 l -12.07913,0 z m 30.11657,0 c 0.52352,0.52104 0.98807,0.934 1.19167,1.57083 0.5332,1.64997 0.25313,3.70133 0.37916,5.52498 0.1842,3.42537 0.39224,6.86627 0.59583,10.29163 0.59138,9.82262 3.70707,16.49303 11.10413,22.53326 1.26032,1.04208 2.49026,2.45067 3.95416,3.08749 0,0.29912 0.19666,0.21667 0.4875,0.21667 0.50412,-1.31225 0.94866,-2.66712 1.46249,-4.00832 1.19244,-2.86573 2.32838,-5.77569 3.52082,-8.61247 0.56229,-1.31225 1.13226,-2.63818 1.73333,-4.00832 0.33932,-0.52104 0.93667,-0.90899 1.625,-0.8125 0.46534,0.0965 0.85635,0.44583 1.13749,0.8125 1.10521,1.74645 1.67731,3.98773 2.49166,5.84998 1.51238,3.41573 3.21274,7.19938 4.27915,10.77913 l 0.37917,0 c 0,-0.25086 0.18527,-0.25372 0.37916,-0.37917 1.83231,-1.18682 3.50341,-2.79694 5.19999,-4.22498 0.89192,-0.85876 1.8318,-1.72567 2.76249,-2.54583 1.56084,-1.98767 2.87403,-4.27107 4.00832,-6.49998 3.04414,-5.85689 3.01901,-15.27134 3.35832,-22.47909 0.0582,-1.86225 -0.0184,-3.63905 0.37917,-5.30832 0.12601,-0.67542 0.5712,-1.23312 1.19166,-1.57082 l 0,-0.21667 -11.3208,0 c -1.68687,0 -3.56219,-0.17073 -4.92915,0.37916 -0.1163,0.24123 0.47549,0.66997 0.65,0.92083 1.26032,1.46664 0.97793,9.82501 0.54167,12.02497 -0.29084,1.42803 -0.58552,2.91864 -0.86667,4.27915 l -0.21666,0 c -0.44596,-0.87805 -0.95838,-1.79167 -1.4625,-2.70833 -1.49298,-2.74994 -2.95142,-5.61624 -4.92915,-8.12497 -0.93069,-1.21577 -2.04846,-2.26646 -2.97916,-3.52082 -2.68544,0 -8.39608,12.06294 -9.96663,14.13745 l 0,0.21667 -0.21667,0 c -0.31023,-1.42804 -0.62029,-2.92085 -0.92083,-4.38749 -0.43626,-2.93327 -0.39348,-6.39892 -0.0541,-9.3708 0.0775,-0.54035 0.12948,-1.13881 0.21667,-1.67916 0.19389,-0.67543 0.72801,-1.32435 1.29999,-1.7875 l 0,-0.16241 0.27084,0 0,-0.21666 -16.73745,0 z m 70.84978,9.74997 c 1.70627,0 3.79318,-0.0121 4.82081,1.29999 0.28115,0.39562 0.41964,0.85835 0.4875,1.40833 0,3.93677 0,7.89675 0,11.86246 0,1.7754 0.4021,4.3544 -0.325,5.84999 -0.57198,1.29295 -1.70915,2.48179 -2.97915,3.19582 -0.50413,0.24123 -0.95838,0.46294 -1.4625,0.70416 -1.72567,0 -3.25151,-0.31274 -4.27915,-1.62499 -2.80177,-3.76309 -0.50846,-18.14999 1.89582,-21.44993 0.48475,-0.63683 1.19212,-0.93707 1.84167,-1.24583 z"
       id="path3147"
       style="fill:#254aa5;fill-opacity:1;fill-rule:nonzero;stroke:none" />
    <path
       d="m 356.73077,492.39909 c 0.3684,1.12891 -0.20358,2.14206 0.17451,3.04906 0,1.74645 0.0291,3.42537 0.0291,5.19112 -0.32962,8.15335 -0.85314,16.18126 -0.85314,24.30568 0,7.54545 -0.3684,12.76554 -0.3684,17.64789 0.0388,1.28331 -0.22298,8.1244 -0.1745,9.37878 0.0485,4.17798 -0.83374,8.02791 -1.35726,11.99362 -1.63841,12.94888 -7.83332,24.4311 -17.69286,33.13445 -3.49978,3.04906 -7.08683,5.61567 -10.97441,7.84458 -1.22152,0.58858 -2.45276,1.22542 -3.69368,1.8333 -0.13572,0.029 -0.24237,0.0868 -0.41689,0.0868 l -0.50412,0 c -2.00679,-1.2833 -4.0136,-2.55697 -6.03979,-3.81133 -4.2366,-2.44118 -9.10335,-4.31307 -14.15429,-5.04639 -2.41399,-0.32807 -5.23515,-0.69473 -7.86243,-0.32807 -15.87993,2.01663 -31.98286,14.29008 -39.2636,28.42576 -2.21039,4.27449 -3.91666,8.57791 -4.84735,13.55676 -0.60107,3.48328 -0.65924,7.94108 -0.24237,11.63663 1.2894,13.68217 6.22401,24.81705 15.71514,34.28265 5.05094,5.00781 10.29578,9.07001 15.89933,12.86204 2.05528,1.27367 4.17843,2.58592 6.20462,3.90782 0.20358,0.0868 0.36841,0.0868 0.36841,0.3956 l 0.23266,0 0,0.17368 c -8.35684,-0.27016 -17.88675,-5.12358 -24.2174,-9.48489 -4.63407,-3.24205 -9.13242,-6.32006 -13.25267,-10.57524 -2.27826,-2.2868 -4.18812,-4.88237 -5.94286,-7.43932 -2.02621,-3.00083 -4.16874,-5.95341 -5.72958,-9.19545 -4.38201,-9.09894 -6.84448,-20.58118 -6.11737,-32.11166 0.44596,-6.90863 2.0068,-13.31553 4.15904,-19.33647 1.20215,-3.35782 3.112,-6.38759 4.91521,-9.43665 9.34571,-15.29357 25.76855,-24.9811 39.99072,-34.59143 9.18088,-6.14638 18.33269,-12.39889 27.53299,-18.56457 8.80279,-5.95339 17.54743,-11.75239 25.12869,-19.76101 6.88326,-7.32355 12.41893,-15.90144 16.47132,-24.66269 1.68689,-3.72449 5.48721,-11.54013 6.88325,-15.36109"
       id="path3237"
       style="fill:#ed1c24;fill-opacity:1;fill-rule:nonzero;stroke:none" />
    <path
       d="m 355.36382,451.9411 c 0.3684,1.03242 0.21328,2.49906 0.21328,3.78238 l 0,8.24019 c 0,5.28762 -0.21328,11.6945 -0.82404,16.64442 -1.41543,11.21206 -6.55364,19.73206 -12.1087,28.8889 -1.92924,3.13591 -4.12025,5.98234 -6.15613,9.00246 -1.83232,2.65346 -3.81003,5.37446 -6.09799,7.71915 -3.74217,3.85958 -7.82363,7.36215 -11.95358,10.47874 -6.60211,4.91132 -12.98122,9.73579 -19.96142,13.95237 -7.10623,4.27448 -13.87314,9.09895 -20.72731,13.74009 -14.63903,9.83227 -29.70461,21.10221 -39.89375,36.11597 -2.89873,4.25518 -4.87644,8.98316 -6.70874,13.74009 -2.88903,7.45861 -4.48866,16.27775 -3.90697,25.40564 0.50412,8.27879 3.04414,15.72777 5.99133,22.78113 1.96802,4.54466 4.19781,8.97352 7.145,13.06466 3.34468,4.86308 7.86241,9.40773 12.4965,13.34448 4.7407,4.03326 9.47173,7.7288 14.56146,11.08664 0.69801,0.49209 7.18378,3.62799 7.94966,3.62799 0,0.0676 -4.53712,-0.82016 -4.53712,-0.69472 -9.24876,-1.92014 -17.90614,-6.90864 -24.84756,-12.55328 -16.99483,-13.98129 -28.32797,-33.25021 -29.3459,-55.80944 -0.39749,-7.87352 0.0582,-15.54443 2.59817,-22.1443 10.36365,-26.86265 35.61839,-47.59821 58.52701,-64.75401 7.98844,-6.07883 15.97689,-12.15766 23.96533,-18.16895 5.1479,-3.90782 10.31518,-7.81564 15.48247,-11.7331 1.53176,-1.52453 3.06353,-3.04906 4.62438,-4.54465 8.2405,-8.2402 15.49215,-16.97248 21.36715,-26.56352 1.66749,-2.74031 3.39316,-5.47096 4.81827,-8.32703 2.51093,-5.20078 4.50803,-10.93226 5.65201,-16.79881 0.62047,-3.11661 1.50269,-6.26215 1.67719,-9.52349"
       id="path3243"
       style="fill:#b49142;fill-opacity:1;fill-rule:nonzero;stroke:none" />
    <path
       d="m 352.91106,271.42879 c 1.51238,0 2.99567,0 3.83911,1.25436 1.01795,1.457 0.54289,5.64463 0.54289,7.75775 0.0777,10.4884 0.54292,114.12762 0.54292,120.65029 0.14542,7.18846 -0.0679,15.88215 -0.17451,23.15745 -0.29084,19.62593 -6.98989,37.17735 -15.55031,52.66389 -3.26713,5.82797 -5.96225,11.81996 -10.59634,17.01109 -3.28651,3.68588 -6.60209,7.35248 -10.23762,10.77785 -7.145,6.64812 -14.67778,12.55328 -22.23967,18.38123 -7.85272,6.53232 -15.69575,13.06466 -23.55816,19.52945 -5.52599,4.15869 -11.06166,8.31738 -16.35499,12.98746 -3.40285,2.99117 -6.62148,6.10778 -9.99525,9.15684 -3.47071,3.14556 -6.58271,6.8025 -9.88862,10.22787 -9.77226,10.04455 -18.4975,21.43995 -22.58867,34.40812 -1.47361,4.52535 -2.53033,8.88666 -3.18957,13.83656 -0.56229,4.23589 -0.1842,8.91562 0.1066,13.16116 1.35727,21.79694 11.44946,41.12376 28.54125,54.38139 5.32239,4.1201 10.87747,7.81564 16.95606,10.44016 1.22153,0.52104 3.45131,1.89118 4.77949,1.89118 l 0,0.18334 c -20.47523,-2.50873 -38.82734,-9.70683 -54.58124,-21.52677 -3.01506,-2.19996 -5.73927,-4.82448 -8.41501,-7.44899 -19.41853,-19.39436 -28.93874,-46.89382 -26.05941,-76.72834 1.30879,-13.89446 4.5759,-26.83368 10.03403,-38.6247 9.22938,-19.99258 24.33374,-36.03876 41.25102,-51.35163 3.74216,-3.08765 7.43585,-6.14637 11.11014,-9.22438 6.38882,-5.07534 12.58375,-10.29541 18.87561,-15.64092 2.89873,-2.52803 5.78776,-5.03676 8.70587,-7.56476 8.48287,-7.99898 17.30506,-15.69882 25.12869,-24.46007 9.40388,-10.65242 18.46843,-21.43993 26.263,-32.88357 4.69224,-6.89899 8.95791,-13.98131 13.21389,-21.03467 3.31559,-5.4613 6.05919,-11.26996 8.67678,-17.09793 9.12272,-20.85134 14.98801,-45.09913 15.78298,-70.01268 0.26175,-7.94107 -0.31023,-15.39004 -1.36695,-22.56886 -0.43626,-2.47012 -0.86283,-4.9499 -1.33787,-7.44898 -0.3684,-1.70785 -0.88223,-3.62799 -0.65925,-5.52883 0.17451,-1.457 1.3088,-2.13243 2.44307,-2.71136"
       id="path3249"
       style="fill:#254aa5;fill-opacity:1;fill-rule:nonzero;stroke:none" />
  </g>
</svg>
