<svg xmlns="http://www.w3.org/2000/svg" width="2394" height="512" viewBox="0 0 2394 512">
  <defs>
    <style>
      .cls-1 {
        fill: #10ade4;
      }

      .cls-1, .cls-2 {
        fill-rule: evenodd;
      }

      .cls-2 {
        fill: #4b4b4d;
      }
    </style>
  </defs>
  <path id="Air" class="cls-1" d="M717.663,448.991h34.009l34.254,36.141a25.453,25.453,0,0,0,8.564,5.835,29.211,29.211,0,0,0,11.01,1.883h28.626l-44.774-46.306q16.635-3.574,26.913-15.906A42.722,42.722,0,0,0,826.541,402.5a40.885,40.885,0,0,0-7.829-24.565q-7.833-10.823-21.776-16.847t-32.051-6.024H683.654V492.85h17.861q7.829,0,11.989-3.2t4.159-9.224V448.991Zm0-22.965V378.4H756.81q18.105,0,26.914,6.588a20.619,20.619,0,0,1,8.808,17.318,21.276,21.276,0,0,1-7.952,17.035q-7.953,6.684-27.77,6.682H717.663ZM618.25,354.812h32.938V493.656H618.25V354.812ZM416.49,493.647l67.675-120s7.171-18.823,24.232-18.823h18.115l79.64,138.823H571.211L557.1,465.339H465.345l-14.116,28.308H416.49Zm65.323-49.472s-4.256-.511-2.353-4.646,30.584-56.62,30.584-56.62l32.936,56.62s0.875,4.646-4.705,4.646H481.813Z"/>
  <path id="Botswana" class="cls-2" d="M1563.99,354.824l61.18,138.823h9.41s16.21-1.58,21.17-14.118c7.7-19.437,34.46-72.8,34.46-72.8l40.83,86.916h14.11a16.809,16.809,0,0,0,14.12-9.412c4.83-9.427,58.81-129.411,58.81-129.411h-32.93l-40,100.508-44.7-100.508h-21.17l-42.35,100.508-42.34-100.508h-30.6Zm259.35,138.823,67.67-120s7.17-18.823,24.24-18.823h18.11L2013,493.647h-34.94l-14.12-28.308h-91.75l-14.11,28.308h-34.74Zm65.32-49.472s-4.25-.511-2.35-4.646,30.58-56.62,30.58-56.62l32.94,56.62s0.87,4.646-4.71,4.646h-56.46Zm299.33,49.472,67.68-120s7.17-18.823,24.23-18.823h18.11l79.64,138.823h-34.94l-14.11-28.308h-91.76l-14.11,28.308h-34.74Zm65.32-49.472s-4.25-.511-2.35-4.646,30.58-56.62,30.58-56.62l32.94,56.62s0.87,4.646-4.71,4.646h-56.46Zm-221.5,49.472h31.41V399.256l93.64,94.391h17.02V354.824h-14.67s-16.24-.587-16.24,16.47V441.88l-87.27-87.056h-11.77s-12.12-.049-12.12,14.117V493.647Zm-700.57,0h-21.32s-9.24-.108-9.24-9.412V375.981h-54.27V364.235s-0.83-9.411,11.76-9.411h115.27s11.89,0.245,11.89,9.486v11.671h-54.09V493.647ZM1424,457c-4.37-1.806-12.88.195-17.62,3.706L1404,462l-5,3c11.04,16.241,22.75,22.053,34,25.629s25.28,5.365,42.09,5.365q31.305,0,49.66-10.73t18.35-31.435q0-15.432-9.54-24.094a53.027,53.027,0,0,0-21.9-12.047,244.523,244.523,0,0,0-29.23-5.835c-0.98-.124-2.05-0.25-3.18-0.377a31.034,31.034,0,0,1-3.43-.565q-13.455-2.069-21.53-3.953a47.352,47.352,0,0,1-14.07-5.552q-6-3.672-5.99-9.506c0-4.894,1.4-13.7,7.44-15.9a91.676,91.676,0,0,1,23.71-4.892c12.82-.671,24.59,0,37.46,4.892,3.59,1.366,9.64,9.93,10.16,10,3.07,0.415,7.62-2.527,12-4.453L1538.13,376c-10.01-9.279-22.71-16.411-32.94-18.824-10.33-2.436-23.17-3.676-37.2-3.676-18.27,0-29.25,2.047-42.79,8.382s-18.82,18.259-18.82,32.942a23,23,0,0,0,9.41,18.823A55.111,55.111,0,0,0,1438,424c8.56,2.071,16.5,4.112,29.55,6.118,9.3,1.382,18.22,3.453,23.52,4.706a60.7,60.7,0,0,1,16.47,7.058c3.59,2.447,7.06,10.1,7.06,14.118,0,4.771-6.3,11.044-11.76,14.118s-16.33,4.653-28.23,4.706c-7.09.031-20.34-1.525-27.9-3.8m-295.2,24.461q25.71,0,45.58-9.506,19.845-9.5,30.76-25.882a65.161,65.161,0,0,0,0-72.188q-10.9-16.279-30.76-25.883-19.875-9.6-45.58-9.6-25.725,0-45.47,9.6t-30.65,25.883a65.161,65.161,0,0,0,0,72.188q10.9,16.376,30.65,25.882t45.47,9.506h0Zm0-118.4a62.9,62.9,0,0,1,27.78,6.118,50.136,50.136,0,0,1,19.98,16.847,41.419,41.419,0,0,1,7.34,23.906,41.848,41.848,0,0,1-7.34,24,49.824,49.824,0,0,1-19.98,16.941,65.64,65.64,0,0,1-55.34,0,50.7,50.7,0,0,1-20.09-16.941,41.374,41.374,0,0,1-7.46-24,40.952,40.952,0,0,1,7.46-23.906,51.026,51.026,0,0,1,20.09-16.847,62.407,62.407,0,0,1,27.56-6.118h0Zm-113.39,15.624c0-25.1-25.09-37.885-64.616-37.885H907.631s-9.41-.961-9.41,9.411c0,22.265-.009,92.508,0,117.647,0,11.7,9.41,11.765,9.41,11.765l74.106-.8c18.793,0,29.133-2.526,41.173-8.615s18.82-16.532,18.82-30.588c0-6.4-.93-11.576-4.71-16.471s-8.05-9.129-14.11-11.764-9.64-4.215-16.14-4.468v-0.188q13.965-.375,22.66-8.565t8.69-19.482h0ZM926.452,411.294V376h49.4c8.077,0,16.6,2.135,21.173,4.706s9.41,8.973,9.41,14.118a17.762,17.762,0,0,1-7.058,14.117c-4.129,2.888-21.452,2.353-30.583,2.353H926.452Zm51.757,61.177H926.452v-40h51.757c9.836,0,18.166,1.82,23.531,4.7s11.76,8.221,11.76,14.118-6.5,13.585-11.76,16.471-11.693,4.706-21.178,4.706h-2.353Z"/>
  <path id="Small" class="cls-1" d="M84.225,124.235L192.444,70.118s13.421-5.874,0-9.412S63.052,18.353,63.052,18.353,51.4,15.876,44.231,16s-11.763,0-11.763,0S13.332,17.5,18.353,32.471s25.879,84.705,25.879,84.705S57.191,146.151,84.225,124.235Z"/>
  <path id="Medium" class="cls-2" d="M131.277,166.588L253.612,96s21.986-9.788,42.346,16.471,98.809,129.411,98.809,129.411,19.327,33.43-21.173,18.824S131.277,166.588,131.277,166.588Z"/>
  <path id="Large" class="cls-1" d="M112.456,216L364.183,324.235s14.26,4.25,4.7,14.118-134.1,129.412-134.1,129.412-10.331,13.909-28.231,13.909-59.594-14.3-72.931-58.615S79.52,239.529,79.52,239.529,76.628,200.642,112.456,216Z"/>
</svg>
