<?xml version="1.0" encoding="utf-8"?>
<!-- Generator: Adobe Illustrator 18.1.1, SVG Export Plug-In . SVG Version: 6.00 Build 0)  -->
<svg version="1.1" id="Capa_2" xmlns="http://www.w3.org/2000/svg" xmlns:xlink="http://www.w3.org/1999/xlink" x="0px" y="0px"
	 width="618px" height="340px" viewBox="-90 227 618 340" enable-background="new -90 227 618 340" xml:space="preserve">
<path fill="#0D2B60" d="M503.5,520.1c2,6.6-8.4,17.8-8.4,23.7c-2,0-4,0-6,0c1.1-3.9,2.4-6.9,4.2-11.2c1.8-4.4,7.5-12.3,0.5-14
	c-14.3-3.2-16.3,17-20.5,25.1c-1.9,0-3.7,0-5.6,0c3.8-9.4,7.7-18.7,11.6-27.9c1.5,0,3.1,0,4.7,0c1.8-0.1,0.2,0.4,0.5,1.4
	C490.4,515.9,501.9,514.6,503.5,520.1z"/>
<path fill="#0D2B60" d="M468.6,509c0,0.5,0,0.8,0,1.4c-3.2,2-6.3,2.9-10.2,4.7C458.6,512,464.7,510,468.6,509z"/>
<path fill="#0D2B60" d="M468.6,519.7c-1.4-3.3-8.6-4-12.5-3.7c-14.6,0.9-18,12-20,24.2c5.8,5.7,19.3,4.9,25.1-0.5
	C464.1,536.9,470.4,523.9,468.6,519.7z M442.6,539.7c0-0.3,0-0.7,0-1c0-0.7,0-1.4,0.1-2.1c0-0.4,0.1-0.7,0.1-1.1
	c0.1-0.7,0.2-1.4,0.4-2.2c0.3-1.4,0.7-2.9,1.3-4.2c0.7-1.7,1.5-3.3,2.6-4.7c0.8-1.1,1.7-2.1,2.7-3c0.8-0.6,1.6-1.2,2.4-1.6
	c2.9-1.4,6.4-1.4,10.3,0.8C461.2,531.5,455.9,545.3,442.6,539.7z"/>
<path fill="#0D2B60" d="M433.3,515.9c1.9,0,3.7,0,5.6,0c-3.3,9.7-7.7,18.4-11.2,27.9c-2,0-4,0-6,0
	C425.6,534.7,429.5,525.4,433.3,515.9z"/>
<path fill="#0D2B60" d="M413.3,515.9c5.3-0.2,14.6,0.4,12.6,7.4c-1.9,0-3.7,0-5.6,0c-1.6,0.2,0.5-3.2-1.4-3.7
	c-11.5-3.7-14.2,2.3-17.2,9.3c-1.2,2.9-3.8,7.2-3.3,9.3c1.4,5.4,14.4,3,15.8-1.9c1.9,0,3.7,0,5.6,0c-1.8,8.6-21.5,10.1-27,3.7
	C394.8,528.3,398.3,516.5,413.3,515.9z"/>
<path fill="#0D2B60" d="M391.9,520.6c1.6,6.9-8.4,16.8-8.4,23.3c-2.2,0-4.3,0-6.5,0c2.3-5,4.2-10.4,6.5-15.4
	c-16.3-5.6-27.6,17.2-7.9,11.6c-2,7.1-16.2,3.4-16.7-0.9c-1.2-10.7,12.7-14.9,25.6-13.5c0.8-1.4,1.5-2.9,0.9-4.7
	c-2.3-6.7-14.8,3.5-15.4-3.3C376.5,516,390.3,513.8,391.9,520.6z"/>
<path fill="#0D2B60" d="M355.6,515.9c1.9,0,3.7,0,5.6,0c-3.9,9.3-7.7,18.7-11.6,27.9c-1.9,0-3.7,0-5.6,0
	C347.6,534.3,351.5,525.1,355.6,515.9z"/>
<path fill="#0D2B60" d="M344.4,516.9c1.9,0,3.7,0,5.6,0c-7.4,9.2-15.1,18-22.8,27c-2.5,0-5,0-7.4,0c0.6-8.9,1.2-17.7,1.9-26.5
	c1.9,0,3.7,0,5.6,0c-0.2,7.4-1.2,14-1.4,21.4C331.7,533,338.2,523.8,344.4,516.9z"/>
<path fill="#0D2B60" d="M298.2,511.7c1.1,0.3,3.4-0.5,3.7,0.5c-7.1,11.2-15.9,20.7-23.3,31.6c2,0,4,0,6,0c2.6-2.5,3.7-8.5,7.9-9.8
	c3.5,0.1,8.4-0.1,13,0c-0.1,3.2,0.2,7.3-0.5,9.8c2,0,4,0,6,0c0.2-11.1,0.5-22,0.9-33C308.2,511,298.6,508.3,298.2,511.7z
	 M305.8,524.9c-0.1,2-0.3,3.9-0.4,5.5c-3.5,0-7.1,0-10.7,0c3.2-5.4,7.4-9.7,10.7-14.9c0.1,0.3,0.1,0.5,0.2,0.8
	c0.3,1.4,0.4,3,0.4,4.6C305.9,522.2,305.8,523.6,305.8,524.9z"/>
<path fill="#0D2B60" d="M254.2,531.3c0.9-4.9,5.1-8.5,2.3-12.6c-3.6-5.1-19.9-2.8-24.6,1.9c-1.9,2-8.2,14.8-7.4,18.6
	c1.7,8.3,27.3,5.5,27.4-3.3c-1.9,0-3.7,0-5.6,0c-1.5,4.6-11.5,7.4-15.8,3.3c-0.7-2.6,0.8-6.1,2.3-7.9
	C239.9,531.3,247.1,531.3,254.2,531.3z M244.8,518.8c2.1-0.1,4.3,0.5,6.2,1.8c0.5,3.8-1.3,5.3-1.9,7.9H249c-5.2,0-10.2,0-15.2,0
	c-0.1,0-0.1,0-0.2,0C234.1,523.1,239.3,518.9,244.8,518.8z"/>
<path fill="#0D2B60" d="M222.1,509.4c-1.3,2-2.8,6.4-3.3,6.4c-7.6,0.4-16.3-0.9-21.9,4.7c-2.5,2.5-8.5,15.2-7.4,19.1
	c1.5,5.4,12.8,4.9,18.6,2.8c-2.8,2.3,2.4,1.1,5.6,1.4c4.6-11.8,10.3-24.3,14.4-35.8C224.1,508,223,507.7,222.1,509.4z M217.9,518.8
	c-4.1,9.5-6.8,27.3-22.3,20.9v-0.1l0,0C196.9,528.3,200.8,515.7,217.9,518.8C217.9,518.7,217.9,518.8,217.9,518.8L217.9,518.8z"/>
<path fill="#0D2B60" d="M164.9,521.1c1.2,6.6-8.2,16-8.4,22.8c-2.2,0-4.3,0-6.5,0c2.2-5.1,4.3-10.3,6.5-15.4
	c-10.7-1.2-19.6,1.7-18.6,10.7c1.5,2.8,8,2.1,10.7,0.9c-1.8,7-16.3,3.5-16.7-0.9c-1.1-10.4,12.4-14.9,25.1-13.5
	c1.4-0.9,2-2.8,1.4-4.7c-2.2-6.6-14.8,3.4-15.4-3.3C150,515.8,163.6,514,164.9,521.1z"/>
<path fill="#0D2B60" d="M96.5,520.9c1.2,6.6-8.2,16-8.4,22.8c-2.2,0-4.3,0-6.5,0c2.2-5.1,4.3-10.3,6.5-15.4
	c-10.7-1.2-19.6,1.7-18.6,10.7c1.5,2.8,8,2.1,10.7,0.9c-1.8,7-16.3,3.5-16.7-0.9c-1.1-10.4,12.4-14.9,25.1-13.5
	c1.4-0.9,2-2.8,1.4-4.7c-2.2-6.6-14.8,3.4-15.4-3.3C81.6,515.6,95.2,513.8,96.5,520.9z"/>
<path fill="#0D2B60" d="M130.9,520.1c2,6.7-8.3,17.8-8.4,23.7c-2,0-4,0-6,0c1.9-8.2,7.8-14.8,7.9-23.3
	c-16.2-7.6-18.6,13.7-23.7,23.3c-1.9,0-3.7,0-5.6,0c3.9-9.2,7.7-18.6,11.6-27.9c1.6,0,3.1,0,4.7,0c1.6-0.3,0.8,1,0.5,1.4
	C117.8,515.8,129.2,514.6,130.9,520.1z"/>
<path fill="#0D2B60" d="M23.6,509.9c2,0,2.9,0.1,5.6,0c-0.7,1.7-0.9,2.2-1.4,3.7h-5.6C22.8,511.7,23.1,511.3,23.6,509.9z"/>
<path fill="#0D2B60" d="M63.1,509.9c2,0,2.9,0.1,5.6,0c-0.7,1.7-0.9,2.2-1.4,3.7h-5.6C62.3,511.7,62.6,511.3,63.1,509.9z"/>
<path fill="#0D2B60" d="M435.6,509.9c2,0,2.9,0.1,5.6,0c-0.7,1.7-0.9,2.2-1.4,3.7h-5.6C434.8,511.8,435.1,511.4,435.6,509.9z"/>
<path fill="#0D2B60" d="M358.4,509.9c2,0,2.9,0.1,5.6,0c-0.7,1.7-0.9,2.2-1.4,3.7H357C357.6,511.8,357.8,511.4,358.4,509.9z"/>
<path fill="#0D2B60" d="M60.7,515.9c1.9,0,3.7,0,5.6,0c-4.2,10.4-7.6,18.4-11.2,27.9c-1.9,0-3.7,0-5.6,0
	C52.7,534.1,57.2,525.5,60.7,515.9z"/>
<path fill="#0D2B60" d="M20.9,515.8c1.9,0,3.7,0,5.6,0c-3.7,9.9-7.4,18.4-11.2,27.9c-1.9,0-3.7,0-5.6,0
	C12.9,534,17.4,525.4,20.9,515.8z"/>
<path fill="#0D2B60" d="M52.8,516.9c1.7,0,3.4,0,5.1,0c-7.3,9.3-15.1,18.1-22.8,27c-3.7,0.2-6.4,0.5-7.4-0.5
	c0.8-8.5,1.4-17.2,1.9-26.1c1.9,0,3.7,0,5.6,0c-0.2,7.4-0.9,14.3-1.4,21.4C39.9,533.2,46,523.4,52.8,516.9z"/>
<path fill="#0D2B60" d="M14.8,508.2c0.4,0.1,1.2,0.2,1.2,0.7c-5.2,11.2-10,22.9-14.4,34.9c-2,0-4,0-6,0c4.4-11.5,9.3-22.6,14-34
	C10.5,507.8,14.3,508.3,14.8,508.2z"/>
<path fill="#0D2B60" d="M-14.2,516.4c-5.3,0.3-9.2,1.1-12.2,3.8c-2.3,2-9.1,15.2-7.9,19.5c2.2,7.8,21.7,3.6,25.6-0.5
	c1.4-1.4,3.7-6.4,4.7-8.8C0.5,519.7-2.1,515.6-14.2,516.4z M-28.2,539.2c0.5-9.9,7.6-25.6,20.5-18.6
	C-9.2,530.5-14.7,546.8-28.2,539.2z"/>
<path fill="#0D2B60" d="M-32.4,513.6c-2.1-7.3-20.3-3.3-28.4-3.8c-0.3,0.3-0.3,0.3-0.5,0.9c-1.2,2.2,3.2,0.2,3.3,1.9
	c-4,10.6-8.5,20.7-12.6,31.2c16.4,0.3,33.8,1.5,34-14.4c-0.3-1.9-2.3-2-2.8-3.7C-35.3,523.8-31.1,518.3-32.4,513.6z M-63.5,540.1
	c1.2-4.4,3-8.4,5.1-12.1c6.1,0.2,13.8-1.1,16.3,2.8C-42.6,540.6-53.2,540.2-63.5,540.1z M-44.6,523.8c-3.4,0.9-7.9,0.8-12.5,0.6
	c1.1-4,3.3-7,4.2-11.2h0.1l0,0c0.7,0,1.3,0.1,2,0c2.1-0.1,3.7-0.1,5.5-0.1c3.2,0,6.1,0.4,7.4,2.4C-37.9,520.5-40.6,522.8-44.6,523.8
	z"/>
<path fill="#0D2B60" d="M375.1,482.7c0,0-6.3-52.8-7.4-62c-3.5-29.2-5.2-46.4-7.9-49.9c-9.4-1.9-22.2-0.5-33-0.9
	c-3.2,3.7-3.5,4.7-4.7,6.5c1.5-0.3,7.1,0.1,7.4,3.1c0,1.3-6.5,8.3-10.2,12.7c-25.5,27.8-51.2,55.4-76.8,84.2c-1.9,2.2-3.1,4-4.7,6
	c5,0,9.9,0,14.9,0c13.7-14.8,78-86.2,86.1-93.5c1.2,12.1,11.6,93.5,11.6,93.5L375.1,482.7z"/>
<path fill="#0D2B60" d="M251.9,423c-2.1-16.2-36.5-16.3-53.5-15.4c-19.9,1-39.7,4.9-49.3,16.8c-4.4,5.4-6.6,12.8-10.2,21.4
	c-2.9,7-7.8,15.6-6.5,22.3c2.5,13.4,26.6,14.4,43.7,14.4c19.3,0,37.4-2.5,48.8-9.3c11-6.5,14.5-16.1,20-28.8
	C247.6,438.2,252.9,430.5,251.9,423z M219.8,442.8c-4.5,10.5-6.9,20.2-15.4,25.6c-9.9,6.4-39.6,10.1-48.8-1.3c-0.3-8,4-15.1,7-21.9
	c3-6.7,5-14.1,9.3-19.1c6.4-7.4,18.3-10.6,32.1-10.7c7.6-0.1,20.4,0.9,22.3,7.4C228,428.6,222,437.6,219.8,442.8z"/>
<path fill="#0D2B60" d="M138.4,389.6c-1.6-12.2-21.8-17.4-27-17.7c-28.7-1.7-68.8-2.4-101.9-1.9c-1,2.5-1.2,3-2.3,6
	c5.1,0,8.3-0.3,9.6,1.6c1.5,2.1-1,7.7-4.5,15.1c-13.6,29.3-25.6,62.1-36.7,89.8c48.4-0.7,122,6.7,145.1-22.8c3-3.8,5.9-9.2,6.5-14.9
	c2-17.3-13.6-17.4-26.5-20.5c12.6-2.8,26-9,32.6-18.4C136.1,401.7,139.1,395.2,138.4,389.6z M101.2,443.4
	c1.2,10.2-8.3,20.4-15.4,24.7C67,479.5,30.7,474.5,3,475.5c6.8-15.4,12.6-31.8,20-46.5C23.7,429.3,98.6,421.5,101.2,443.4z
	 M96.4,415c-16.5,9.5-49.1,7.5-70.7,7.4c5.8-15.4,12.1-30.4,18.1-45.6c0.5-0.4,1-0.7,1.5-0.9c24.9-0.1,25.2-0.2,38.1,0
	c10.9,0.2,25.6,1.7,28.4,9.3C116.3,397.5,104,410.6,96.4,415z"/>
<path fill="#D6430D" d="M457.4,240.4c0,0-15.3,5.2-25.8,23.6c-10,17.5-30.2,72.6-35.8,96.1c-3.9,16.6-17.6,36.5-21.4,44.1
	c-17.7,35-35.4,40.5-42.1,40.8c-19.2,0.9-28.6-12.4-28.6-12.4l11-0.9c0,0,7.9,7.5,19.7,0.5c13.2-7.9,23.2-31.2,30.6-49.8
	c10.1-25.8,20.8-66.5,26.7-79c22.7-45.1,31.8-49.8,42.8-56.4C445.7,240.2,457.4,240.4,457.4,240.4z"/>
<path fill="#D6430D" d="M447.1,249.5c-5.5,3.8-12.6,12.9-12.6,12.9s12.1-20.4,25.3-18.5c17.7,2.5,27.9,37.2,27.9,37.2
	s-13-20.1-24.2-29.3C459,248.2,451.7,246.3,447.1,249.5z"/>
<path fill="#F5A300" d="M470.6,283.5c0,0-17.2,2.1-27.7,20.5c-10,17.5-14.7,24.9-25.4,46.5c-7.6,15.2-24.1,52.7-27.9,60.3
	c-17.7,35-33.2,39-39.9,39.3c-19.2,0.9-30.8-10.9-30.8-10.9l11-0.9c0,0,8.1,6.4,18.3-1.9c19.8-16.1,31.6-55.5,44.6-80.9
	c7.2-14.2,17.1-33,23.9-42.3c11.8-16.2,22.8-25.5,36.1-29.2C459.6,282.1,470.6,283.5,470.6,283.5z"/>
<path fill="#F5A300" d="M447.1,301c0,0,10.5-16.2,23.6-14c16.2,2.7,27.1,39.9,27.1,39.9s-17.1-30.6-30.8-36.4
	C458.9,287.1,447.1,301,447.1,301z"/>
<path fill="#AABC14" d="M456.1,348.3c0,0-15.3,1.9-24.2,16.3c-5.3,8.6-25.5,43.8-25.5,43.8s-15.1,21.4-20.4,28.1
	c-7.2,9.3-20.1,17.2-26.8,17.5c-17.8,0.8-24.1-9.4-24.1-9.4l8.2-0.6c0,0,8,4.3,15.2,0.4c10.5-5.7,22.7-26.8,28.9-36.6
	c5.4-8.6,15.7-24.5,22.3-33.9c6.2-8.9,19.1-21.3,32.3-25.2C447.4,347.2,456.1,348.3,456.1,348.3z"/>
<path fill="#AABC14" d="M438.3,359.6c0,0,8.4-9.7,15.9-8.5c11.9,1.8,17.4,27.4,17.4,27.4s-9-20.5-18.3-24.8
	C447.8,351.1,438.3,359.6,438.3,359.6z"/>
<line fill="none" x1="23" y1="429" x2="70.1" y2="428.5"/>
</svg>
