<?xml version="1.0" encoding="utf-8"?>
<!-- Generator: Adobe Illustrator 21.1.0, SVG Export Plug-In . SVG Version: 6.00 Build 0)  -->
<!DOCTYPE svg PUBLIC "-//W3C//DTD SVG 1.1//EN" "http://www.w3.org/Graphics/SVG/1.1/DTD/svg11.dtd" [
	<!ENTITY st0 "fill:#455CC7;">
]>
<svg version="1.1" id="Layer_1" xmlns="http://www.w3.org/2000/svg" xmlns:xlink="http://www.w3.org/1999/xlink" x="0px" y="0px"
	 width="156px" height="42.5px" viewBox="0 0 156 42.5" style="enable-background:new 0 0 156 42.5;" xml:space="preserve">
<g>
	<g>
		<path style="&st0;" d="M122.7,6.1c0.9-0.4,2,0.1,2.3,1c0.4,0.9-0.1,2-1,2.3c-0.9,0.4-2-0.1-2.3-1C121.4,7.5,121.8,6.5,122.7,6.1"
			/>
		<path style="&st0;" d="M124.7,15.4c0,0.1,0.1,0.1,0.2,0l0.2-0.9c0-0.1,0.1-0.1,0.1,0l0.6,0.8c0,0.1,0.1,0,0.2-0.1l0-1
			c0,0,0-0.1,0.1-0.1c0,0,0.1,0,0.1,0l0.7,0.7c0.1,0.1,0.2,0,0.1-0.1l-0.1-1c0-0.1,0.1-0.1,0.1-0.1l0.8,0.5c0.1,0,0.1,0,0.1-0.1
			l-0.3-1.1c0,0,0,0,0,0l-2.4-2.7c0,0-0.1,0-0.1,0c-0.1,0.1-0.3,0.2-0.4,0.2c-0.2,0.1-0.3,0.1-0.5,0.1c0,0-0.1,0-0.1,0.1l0.2,3.6
			c0,0,0,0,0,0L124.7,15.4z"/>
		<path style="&st0;" d="M122,0.1c0-0.1-0.1-0.1-0.2,0L121.7,1c0,0.1-0.1,0.1-0.1,0L121,0.3c0-0.1-0.1,0-0.1,0.1l0,1
			c0,0,0,0.1,0,0.1c0,0-0.1,0-0.1,0L120,0.7c-0.1-0.1-0.2,0-0.1,0.1l0.1,1c0,0.1-0.1,0.1-0.1,0.1L119,1.3c-0.1,0-0.1,0-0.1,0.1
			l0.3,1.1c0,0,0,0,0,0l2.4,2.7c0,0,0.1,0,0.1,0c0.1-0.1,0.3-0.2,0.4-0.3c0.2-0.1,0.3-0.1,0.5-0.1c0,0,0.1,0,0.1-0.1l-0.2-3.6
			c0,0,0,0,0,0L122,0.1z"/>
		<path style="&st0;" d="M131.1,6.4c0.1,0,0-0.1,0-0.2l-1-0.2c-0.1,0-0.1-0.1,0-0.1l0.8-0.6c0.1-0.1,0-0.1,0-0.1l-1,0
			c0,0-0.1,0-0.1-0.1c0,0,0-0.1,0-0.1l0.7-0.7c0.1-0.1,0-0.1-0.1-0.1l-1,0.1c-0.1,0-0.1-0.1-0.1-0.1l0.5-0.8c0-0.1,0-0.1-0.1-0.1
			l-1.1,0.3c0,0,0,0,0,0L126,6.1c0,0,0,0.1,0,0.1c0.1,0.1,0.2,0.3,0.3,0.4c0.1,0.2,0.1,0.3,0.1,0.5c0,0,0,0.1,0.1,0.1l3.6-0.2
			c0,0,0,0,0,0L131.1,6.4z"/>
		<path style="&st0;" d="M115.7,9.1c-0.1,0-0.1,0.1,0,0.2l0.9,0.2c0.1,0,0.1,0.1,0,0.1l-0.8,0.6c-0.1,0,0,0.1,0.1,0.1l1,0
			c0,0,0.1,0,0.1,0.1c0,0,0,0.1,0,0.1l-0.7,0.7c-0.1,0.1,0,0.1,0.1,0.1l1-0.1c0.1,0,0.1,0.1,0.1,0.1l-0.5,0.8c0,0.1,0,0.1,0.1,0.1
			l1.1-0.3c0,0,0,0,0,0l2.7-2.4c0,0,0-0.1,0-0.1c-0.1-0.1-0.2-0.3-0.3-0.4c-0.1-0.2-0.1-0.3-0.1-0.5c0,0,0-0.1-0.1-0.1l-3.6,0.2
			c0,0,0,0,0,0L115.7,9.1z"/>
		<path style="&st0;" d="M129.8,12.2c0.1,0,0.1-0.1,0.1-0.1l-0.5-0.8c0-0.1,0-0.1,0.1-0.1l0.9,0.1c0.1,0,0.1-0.1,0.1-0.1l-0.7-0.7
			c0,0,0-0.1,0-0.1c0,0,0-0.1,0.1-0.1l1,0c0.1,0,0.1-0.1,0-0.1l-0.8-0.6c-0.1,0,0-0.1,0-0.1l0.9-0.2c0.1,0,0.1-0.1,0-0.2l-1-0.5
			c0,0,0,0,0,0l-3.6-0.2c0,0-0.1,0-0.1,0.1c0,0.2-0.1,0.3-0.1,0.5c-0.1,0.2-0.2,0.3-0.3,0.4c0,0,0,0.1,0,0.1l2.7,2.4c0,0,0,0,0,0
			L129.8,12.2z"/>
		<path style="&st0;" d="M117,3.3c-0.1,0-0.1,0.1-0.1,0.1l0.5,0.8c0,0.1,0,0.1-0.1,0.1l-0.9-0.1c-0.1,0-0.1,0.1-0.1,0.1L117,5
			c0,0,0,0.1,0,0.1c0,0,0,0.1-0.1,0l-1,0c-0.1,0-0.1,0.1,0,0.2l0.8,0.6c0.1,0,0,0.1,0,0.1l-0.9,0.2c-0.1,0-0.1,0.1,0,0.2l1,0.5
			c0,0,0,0,0,0l3.6,0.2c0,0,0.1,0,0.1-0.1c0-0.2,0.1-0.3,0.1-0.5c0.1-0.2,0.2-0.3,0.3-0.4c0,0,0-0.1,0-0.1l-2.7-2.4c0,0,0,0,0,0
			L117,3.3z"/>
		<path style="&st0;" d="M127.9,1.4c0-0.1-0.1-0.1-0.1-0.1l-0.8,0.5c-0.1,0-0.1,0-0.1-0.1l0.1-0.9c0-0.1-0.1-0.1-0.1-0.1l-0.7,0.7
			c0,0-0.1,0-0.1,0c0,0-0.1,0,0-0.1l0-1c0-0.1-0.1-0.1-0.2,0l-0.6,0.8c0,0.1-0.1,0-0.1,0l-0.2-1c0-0.1-0.1-0.1-0.2,0l-0.5,1
			c0,0,0,0,0,0L124,4.7c0,0,0,0.1,0.1,0.1c0.2,0,0.3,0.1,0.5,0.1c0.2,0.1,0.3,0.2,0.4,0.3c0,0,0.1,0,0.1,0l2.4-2.7c0,0,0,0,0,0
			L127.9,1.4z"/>
		<path style="&st0;" d="M118.9,14.1c0,0.1,0.1,0.1,0.1,0.1l0.8-0.5c0.1,0,0.1,0,0.1,0.1l-0.1,0.9c0,0.1,0.1,0.1,0.1,0.1l0.7-0.7
			c0,0,0.1,0,0.1,0c0,0,0.1,0,0.1,0.1l0,1c0,0.1,0.1,0.1,0.2,0l0.6-0.8c0-0.1,0.1,0,0.2,0l0.2,1c0,0.1,0.1,0.1,0.2,0l0.5-1
			c0,0,0,0,0,0l0.2-3.6c0,0,0-0.1-0.1-0.1c-0.2,0-0.3-0.1-0.5-0.1c-0.2-0.1-0.3-0.2-0.4-0.3c0,0-0.1,0-0.1,0l-2.4,2.7c0,0,0,0,0,0
			L118.9,14.1z"/>
		<path style="&st0;" d="M28.2,34c0,4.6-3.6,8.1-10.8,8.1h-15V11.3h14.2c7.5,0,10,4.4,10,8.1c0,4-2,5.9-4.3,6.9
			C25,27.2,28.2,29.4,28.2,34 M5.9,25.1h10.6c3.3,0,6.4-1.6,6.4-5.3c0-2.6-1.7-5.1-6-5.1h-11V25.1z M24.6,33.7
			c0-2.9-2.2-5.5-7.2-5.5H5.9v10.6h11.8C22.1,38.8,24.6,36.9,24.6,33.7"/>
		<path style="&st0;" d="M50.9,35.4h3.9c-1.7,4.2-5.2,7.1-10.9,7.1c-7.3,0-12.1-5.3-12.1-12c0-6.6,4.5-12,11.9-12s11.9,5.3,11.9,12
			v1.4H35.5c0.5,4.1,3.6,7.4,8.5,7.4C47.3,39.3,49.6,37.7,50.9,35.4 M35.5,28.6h16.3c-0.7-4-3.5-7-8.1-7
			C39,21.6,36.2,24.7,35.5,28.6"/>
		<rect x="59.9" y="9.6" style="&st0;" width="3.6" height="32.5"/>
		<path style="&st0;" d="M88.4,22.6v-3.8H92v23.2h-3.6v-3.7c-1.8,2.5-4.6,4.1-8.6,4.1c-7,0-11.6-5.3-11.6-12c0-6.6,4.6-12,11.6-12
			C83.8,18.5,86.6,20.1,88.4,22.6 M88.6,30.5c0-4.8-3-8.8-8.3-8.8c-5.3,0-8.5,4-8.5,8.8c0,4.8,3.2,8.8,8.5,8.8
			C85.6,39.3,88.6,35.3,88.6,30.5"/>
		<polygon style="&st0;" points="118.3,18.9 108.9,42.1 104.7,42.1 95.3,18.9 99.3,18.9 106.8,38.4 114.3,18.9 		"/>
		<rect x="121.6" y="18.9" style="&st0;" width="3.6" height="23.2"/>
		<path style="&st0;" d="M150.1,22.6v-3.8h3.6v23.2h-3.6v-3.7c-1.8,2.5-4.6,4.1-8.6,4.1c-7,0-11.6-5.3-11.6-12c0-6.6,4.6-12,11.6-12
			C145.5,18.5,148.3,20.1,150.1,22.6 M150.3,30.5c0-4.8-3-8.8-8.3-8.8c-5.3,0-8.5,4-8.5,8.8c0,4.8,3.2,8.8,8.5,8.8
			C147.3,39.3,150.3,35.3,150.3,30.5"/>
	</g>
</g>
</svg>
