<?xml version="1.0" encoding="UTF-8" standalone="no"?>
<!-- Created with Inkscape (http://www.inkscape.org/) -->

<svg
   xmlns:dc="http://purl.org/dc/elements/1.1/"
   xmlns:cc="http://creativecommons.org/ns#"
   xmlns:rdf="http://www.w3.org/1999/02/22-rdf-syntax-ns#"
   xmlns:svg="http://www.w3.org/2000/svg"
   xmlns="http://www.w3.org/2000/svg"
   xmlns:sodipodi="http://sodipodi.sourceforge.net/DTD/sodipodi-0.dtd"
   xmlns:inkscape="http://www.inkscape.org/namespaces/inkscape"
   width="168.86633"
   height="43.4664"
   viewBox="0 0 44.679218 11.500485"
   version="1.1"
   id="svg4059"
   inkscape:version="0.92.0 r15299"
   sodipodi:docname="bra denmark logo.svg">
  <defs
     id="defs4053">
    <clipPath
       id="clipPath2584"
       clipPathUnits="userSpaceOnUse">
      <path
         inkscape:connector-curvature="0"
         id="path2582"
         d="M 29.41564,813.3923 H 155.3156 V 781.5424 H 29.41564 Z" />
    </clipPath>
    <clipPath
       id="clipPath2590"
       clipPathUnits="userSpaceOnUse">
      <path
         inkscape:connector-curvature="0"
         id="path2588"
         d="m 29.41564,781.5425 h 125.9 v 31.84991 h -125.9 z" />
    </clipPath>
    <clipPath
       id="clipPath2546"
       clipPathUnits="userSpaceOnUse">
      <path
         inkscape:connector-curvature="0"
         id="path2544"
         d="M 29.41564,813.3923 H 155.3156 V 781.5424 H 29.41564 Z" />
    </clipPath>
    <clipPath
       id="clipPath2552"
       clipPathUnits="userSpaceOnUse">
      <path
         inkscape:connector-curvature="0"
         id="path2550"
         d="m 148.0752,813.3926 c -2.5152,0 -4.1087,-1.1566 -6.0424,-3.5396 v 0 l -20.1079,-24.7719 c -2.8725,-3.5386 -3.8474,-3.5386 -3.8474,-3.5386 v 0 h 28.6195 l 8.6186,31.8501 z" />
    </clipPath>
    <clipPath
       id="clipPath2558"
       clipPathUnits="userSpaceOnUse">
      <path
         inkscape:connector-curvature="0"
         id="path2556"
         d="m 29.41564,781.5424 h 125.9 v 31.84998 h -125.9 z" />
    </clipPath>
  </defs>
  <sodipodi:namedview
     id="base"
     pagecolor="#ffffff"
     bordercolor="#666666"
     borderopacity="1.0"
     inkscape:pageopacity="0.0"
     inkscape:pageshadow="2"
     inkscape:zoom="4.7776105"
     inkscape:cx="83.933171"
     inkscape:cy="21.2332"
     inkscape:document-units="mm"
     inkscape:current-layer="layer1"
     showgrid="false"
     fit-margin-top="0"
     fit-margin-left="0"
     fit-margin-right="0"
     fit-margin-bottom="0"
     units="px"
     inkscape:window-width="1280"
     inkscape:window-height="744"
     inkscape:window-x="-4"
     inkscape:window-y="-4"
     inkscape:window-maximized="1" />
  <metadata
     id="metadata4056">
    <rdf:RDF>
      <cc:Work
         rdf:about="">
        <dc:format>image/svg+xml</dc:format>
        <dc:type
           rdf:resource="http://purl.org/dc/dcmitype/StillImage" />
        <dc:title></dc:title>
      </cc:Work>
    </rdf:RDF>
  </metadata>
  <g
     inkscape:label="Layer 1"
     inkscape:groupmode="layer"
     id="layer1"
     transform="translate(-68.506967,-145.97461)">
    <g
       id="g4136"
       transform="translate(0.13228991,-0.13228638)">
      <g
         transform="matrix(0.35277777,0,0,-0.35277777,58.129713,433.18591)"
         id="g2540">
        <g
           clip-path="url(#clipPath2546)"
           id="g2542">
          <g
             clip-path="url(#clipPath2552)"
             id="g2548">
            <g
               clip-path="url(#clipPath2558)"
               id="g2554">
              <path
                 inkscape:connector-curvature="0"
                 id="path2560"
                 style="fill:#b2b2b2;fill-opacity:1;fill-rule:nonzero;stroke:none"
                 d="m 155.3156,781.5424 h -37.2381 v 3.5386 h 37.2381 z" />
              <path
                 inkscape:connector-curvature="0"
                 id="path2562"
                 style="fill:#008db6;fill-opacity:1;fill-rule:nonzero;stroke:none"
                 d="m 155.3156,785.081 h -37.2381 v 3.5386 h 37.2381 z" />
              <path
                 inkscape:connector-curvature="0"
                 id="path2564"
                 style="fill:#94c11f;fill-opacity:1;fill-rule:nonzero;stroke:none"
                 d="m 155.3156,788.6205 h -37.2381 v 3.5386 h 37.2381 z" />
              <path
                 inkscape:connector-curvature="0"
                 id="path2566"
                 style="fill:#5588c7;fill-opacity:1;fill-rule:nonzero;stroke:none"
                 d="m 155.3156,792.1591 h -37.2381 v 3.5386 h 37.2381 z" />
              <path
                 inkscape:connector-curvature="0"
                 id="path2568"
                 style="fill:#f39200;fill-opacity:1;fill-rule:nonzero;stroke:none"
                 d="m 155.3156,795.6977 h -37.2381 v 3.5386 h 37.2381 z" />
              <path
                 inkscape:connector-curvature="0"
                 id="path2570"
                 style="fill:#00aad2;fill-opacity:1;fill-rule:nonzero;stroke:none"
                 d="m 155.3156,799.2372 h -37.2381 v 3.5386 h 37.2381 z" />
              <path
                 inkscape:connector-curvature="0"
                 id="path2572"
                 style="fill:#9f043e;fill-opacity:1;fill-rule:nonzero;stroke:none"
                 d="m 155.3156,802.7758 h -37.2381 v 3.5386 h 37.2381 z" />
              <path
                 inkscape:connector-curvature="0"
                 id="path2574"
                 style="fill:#ffd500;fill-opacity:1;fill-rule:nonzero;stroke:none"
                 d="m 155.3156,806.3144 h -37.2381 v 3.5386 h 37.2381 z" />
              <path
                 inkscape:connector-curvature="0"
                 id="path2576"
                 style="fill:#00528d;fill-opacity:1;fill-rule:nonzero;stroke:none"
                 d="m 155.3156,809.8539 h -37.2381 v 3.5386 h 37.2381 z" />
            </g>
          </g>
        </g>
      </g>
      <g
         transform="matrix(0.35277777,0,0,-0.35277777,58.129713,433.18591)"
         id="g2578">
        <g
           clip-path="url(#clipPath2584)"
           id="g2580">
          <g
             clip-path="url(#clipPath2590)"
             id="g2586">
            <path
               inkscape:connector-curvature="0"
               id="path2592"
               style="fill:#b2b2b2;fill-opacity:1;fill-rule:nonzero;stroke:none"
               d="m 51.90184,800.7104 c -0.4554,-1.6619 -1.95073,-2.9863 -3.44406,-2.9863 h -8.0962 l 1.75056,6.3081 h 7.78592 c 1.63546,0 2.50723,-1.4841 2.00378,-3.3218 m -1.8086,-10.8474 c -0.4394,-1.5421 -2.09987,-2.7895 -3.63524,-2.7895 h -9.05405 l 1.65147,5.9465 h 8.86789 c 1.6875,0 2.66236,-1.4332 2.16993,-3.157 m 4.39991,5.7718 c 3.29293,1.4452 4.73221,3.5675 4.99144,6.8364 0.34831,4.4015 -3.26691,7.3827 -7.80895,7.3827 H 37.07666 l -7.66082,-28.3115 h 18.26425 c 4.22776,0 8.57563,3.3508 9.69662,7.4527 0.86477,3.164 -0.14012,5.5061 -2.88356,6.6397 m 23.85722,-5.0238 c 5.38679,0.3626 9.53549,3.8162 10.41126,9.7189 0.80072,5.3962 -3.70629,9.524 -9.73766,9.524 H 65.44789 l -7.65981,-28.3115 h 6.58085 l 6.11545,22.367 h 8.38645 c 1.95974,0 4.06662,-1.7798 3.46409,-3.982 -0.54649,-1.9905 -2.63335,-3.5785 -4.42394,-3.5785 h -5.47487 c -1.3532,0 -2.45018,-1.1146 -2.45018,-2.465 0,-0.3365 0.06806,-0.6591 0.19217,-0.9527 l 6.05839,-11.3888 h 6.8571 l -4.92438,9.0557 c 0.05905,0.004 0.1191,0.007 0.18116,0.0129 m 20.40115,2.3411 6.46978,9.8497 1.185,-9.8497 z m 12.30398,12.8769 c -0.3333,2.2721 -1.9388,3.7613 -3.8074,3.979 -1.8807,0.2217 -3.9075,-0.2916 -6.0014,-3.3668 L 84.22459,781.5424 h 7.03126 l 4.26079,6.4859 h 11.48226 l 0.7796,-6.4859 h 6.7531 z" />
          </g>
        </g>
      </g>
    </g>
  </g>
</svg>
