<?xml version="1.0" encoding="UTF-8"?>
<!DOCTYPE svg PUBLIC "-//W3C//DTD SVG 1.1//EN" "http://www.w3.org/Graphics/SVG/1.1/DTD/svg11.dtd">
<svg version="1.1" xmlns="http://www.w3.org/2000/svg" xmlns:xlink="http://www.w3.org/1999/xlink" x="0" y="0" width="372" height="55" viewBox="0, 0, 372, 55">
  <defs>
    <clipPath id="Clip_1">
      <path d="M-0,0.986 L371.031,0.986 L371.031,54.94 L-0,54.94 z"/>
    </clipPath>
  </defs>
  <g id="Layer_1">
    <g clip-path="url(#Clip_1)">
      <path d="M1.75,23.235 C0.911,24.584 -0.969,26.402 0.615,27.379 C1.924,27.411 2.847,27.713 2.819,28.68 C2.786,29.807 1.541,29.861 1.37,30.573 C1.133,31.55 2.608,31.676 2.975,32.381 C2.893,33.031 1.758,33.236 1.944,34.291 C2.319,34.701 2.741,34.592 3.028,34.866 C3.996,35.787 2.536,36.994 2.414,37.846 C2.189,39.415 4.825,41.019 6.776,41.008 C11.236,40.984 16.616,38.301 21.236,41.092 C19.528,41.467 15.384,40.879 15.225,43.525 C15.18,44.297 16.141,45.23 16.567,45.921 C18.213,48.559 19.528,51.771 19.854,55 C22.583,44.959 25.028,33.682 27.62,23.127 C22.512,20.9 18.795,17.499 12.754,15.759 C10.19,15.017 7.256,14.782 5.054,15.087 C5.075,16.166 4.371,16.451 4.336,17.2 C4.293,18.11 5.799,18.613 6.549,19.139 C7.514,19.814 8.041,20.549 8.192,21.455 C7.461,21.172 7.619,20.505 6.488,20.468 C6.182,20.455 5.653,20.764 5.075,20.811 C4.666,20.848 3.919,20.111 3.702,20.161 C2.987,20.324 2.167,22.572 1.75,23.235" fill="#0079B3"/>
    </g>
    <path d="M8.937,5.152 C8.521,5.737 8.19,6.445 7.828,7.115 C9.014,7.268 10.526,7.393 11.877,7.668 C19.53,9.225 22.504,15.011 28.969,17.26 C29.918,14.138 30.797,9.708 31.623,6.438 C31.849,5.541 32.028,4.964 31.569,4.307 C30.62,3.508 28.866,3.85 28.089,3.025 C27.635,2.543 28.023,2.023 27.487,1.842 C25.665,1.234 23.829,2.299 22.647,0.986 C21.928,1.573 20.37,1.257 19.187,1.333 C18.399,1.383 17.667,2.452 17.071,1.322 C15.53,1.538 14.794,3.279 13.207,3.279 C12.891,3.279 12.555,2.993 12.206,3.003 C10.97,3.032 10.652,5.087 9.573,5.494 C9.149,5.531 9.274,4.986 8.937,5.152" fill="#0079B3"/>
    <path d="M12.866,40.15 C12.866,40.15 13.366,39.824 16.03,39.781 C19.569,39.721 21.236,41.087 21.236,41.087 C21.066,41.178 20.402,41.242 19.057,41.333 C17.674,41.431 16.6,41.788 16.6,41.788 C14.84,42.513 15.342,44.095 15.342,44.095 C13.854,42.027 12.866,40.15 12.866,40.15" fill="#004B86"/>
    <path d="M72.711,38.698 L64.18,20.217 C62.521,16.719 60.705,16.483 58.352,16.481 L55.446,16.481 C55.127,16.488 53.206,16.474 53.206,16.474 L53.756,17.656 L30.75,38.526 C30.428,38.825 30.225,39.215 30.191,39.66 C30.188,39.68 30.188,39.705 30.188,39.735 C30.188,39.943 30.239,40.165 30.389,40.355 C30.529,40.546 30.784,40.674 31.024,40.674 C31.03,40.674 31.035,40.674 31.042,40.674 L37.68,40.635 C37.988,40.63 38.23,40.494 38.428,40.318 L43.826,35.46 L61.932,35.46 L64.089,40.142 C64.204,40.418 64.529,40.647 64.853,40.635 L71.509,40.674 L71.515,40.674 C72.031,40.647 72.344,40.331 72.577,39.962 C72.722,39.71 72.803,39.441 72.805,39.162 C72.805,39.009 72.779,38.854 72.709,38.698 L72.711,38.698 z M72.221,38.923 L72.221,38.923 z M59.167,29.426 L50.459,29.426 L56.605,23.813 L59.167,29.426" fill="#004B86"/>
    <path d="M74.505,38.766 C74.456,38.923 74.452,39.08 74.476,39.232 C74.518,39.513 74.639,39.786 74.822,40.035 C75.107,40.408 75.468,40.727 75.992,40.751 L75.997,40.751 L82.683,40.713 C83.009,40.727 83.303,40.496 83.38,40.219 L84.897,35.514 L90.382,18.728 L91.146,16.431 C91.146,16.431 89.187,16.444 88.864,16.437 L85.902,16.437 C83.503,16.44 81.685,16.679 80.487,20.193 L74.503,38.766 L74.505,38.766 z M75.028,38.993 L75.03,38.993 L75.028,38.993" fill="#004B86"/>
    <path d="M121.487,21.972 C121.388,21.3 121.159,20.675 120.823,20.092 C120.073,18.804 118.808,17.874 117.157,17.289 C115.508,16.702 113.486,16.437 111.128,16.437 L100.958,16.437 C100.947,16.437 100.937,16.431 100.925,16.431 L100.92,16.431 L99.79,16.437 L94.634,16.437 C94.552,16.437 94.473,16.449 94.399,16.469 L94.235,16.471 C93.908,16.454 93.615,16.686 93.539,16.965 L92.019,21.667 L86.535,38.452 L85.772,40.751 C85.772,40.751 87.729,40.738 88.053,40.744 L91.017,40.744 C93.415,40.74 95.232,40.505 96.431,36.988 L98.164,31.608 L105.666,31.608 C106.515,31.608 107.202,31.669 107.704,31.77 C108.148,31.856 108.26,31.893 108.361,31.999 C108.477,32.103 108.661,32.428 108.9,33.135 L108.894,33.147 L108.953,33.313 C108.953,33.315 109.542,34.992 110.138,36.685 C110.435,37.53 110.735,38.381 110.964,39.029 C111.2,39.699 111.334,40.081 111.385,40.197 C111.506,40.496 111.835,40.719 112.166,40.719 C112.175,40.719 112.181,40.719 112.189,40.719 L118.652,40.719 C118.985,40.711 119.244,40.562 119.459,40.366 C119.671,40.163 119.824,39.913 119.911,39.634 L119.961,39.456 L117.634,33.409 L116.084,29.656 C117.067,29.251 118.162,28.568 118.746,28.096 C119.356,27.598 119.886,27.032 120.321,26.403 C120.679,25.889 120.963,25.333 121.17,24.763 L121.187,24.763 L121.267,24.491 L121.295,24.491 L121.386,24.056 C121.491,23.61 121.542,23.169 121.542,22.735 C121.542,22.476 121.523,22.223 121.487,21.972 z M112.843,23.872 C112.727,24.088 112.597,24.261 112.438,24.424 C112.275,24.585 112.1,24.727 111.87,24.857 C111.646,24.987 111.376,25.108 111.046,25.211 C110.406,25.414 109.51,25.545 108.346,25.545 L100.117,25.545 L101.098,22.498 L109.605,22.5 L109.626,22.5 L109.637,22.498 C110.393,22.5 111.001,22.559 111.457,22.656 C112.171,22.809 112.494,23.017 112.668,23.228 C112.748,23.325 112.795,23.42 112.823,23.551 C112.838,23.616 112.847,23.689 112.847,23.779 C112.847,23.806 112.843,23.836 112.843,23.872" fill="#004B86"/>
    <path d="M276.905,32.925 L276.905,32.895 C276.905,31.749 276.655,30.681 276.153,29.765 C275.656,28.853 274.919,28.093 273.976,27.479 C272.946,26.801 271.711,26.32 270.293,26.005 C268.866,25.687 267.254,25.54 265.486,25.54 L258.962,25.54 C258.19,25.54 257.557,25.479 257.062,25.383 C256.313,25.227 255.919,25.007 255.658,24.747 C255.544,24.629 255.462,24.499 255.406,24.354 C255.364,24.251 255.343,24.147 255.325,24.018 C255.406,23.826 255.497,23.683 255.606,23.541 C255.729,23.399 255.859,23.282 256.055,23.155 C256.241,23.041 256.478,22.923 256.784,22.823 C257.37,22.632 258.212,22.498 259.343,22.493 L276.87,22.493 C277.204,22.493 277.513,22.312 277.735,22.075 C277.94,21.832 278.075,21.546 278.114,21.249 L279.186,17.667 C279.224,17.375 279.186,17.091 279.04,16.846 C278.892,16.604 278.632,16.427 278.29,16.427 L260.325,16.427 C258.554,16.427 256.905,16.576 255.389,16.889 C253.88,17.206 252.501,17.695 251.281,18.366 L251.256,18.386 C250.161,18.985 249.206,19.745 248.44,20.657 C247.679,21.57 247.11,22.636 246.783,23.782 L246.776,23.813 C246.753,23.883 246.736,23.951 246.729,24.014 C246.719,24.084 246.712,24.149 246.712,24.215 L246.712,24.255 C246.688,25.461 246.931,26.579 247.45,27.533 C248.223,28.969 249.579,30.001 251.397,30.656 C253.205,31.313 255.446,31.604 258.065,31.608 L264.608,31.608 C265.39,31.608 266.029,31.665 266.517,31.762 C267.271,31.918 267.677,32.138 267.938,32.397 C268.052,32.519 268.132,32.646 268.188,32.795 C268.23,32.895 268.25,32.999 268.268,33.127 C268.188,33.323 268.106,33.463 267.993,33.604 C267.872,33.748 267.731,33.869 267.549,33.989 C267.362,34.106 267.116,34.22 266.816,34.321 C266.216,34.517 265.339,34.655 264.162,34.653 L244.577,34.653 C244.238,34.655 243.917,34.829 243.708,35.073 C243.491,35.315 243.36,35.6 243.317,35.894 L242.036,39.478 C241.997,39.772 242.036,40.058 242.181,40.301 C242.329,40.542 242.588,40.719 242.92,40.719 L263.284,40.719 C265.04,40.719 266.66,40.586 268.149,40.307 C270.374,39.888 272.286,39.122 273.787,37.95 C274.536,37.363 275.175,36.676 275.688,35.902 C276.2,35.128 276.589,34.271 276.841,33.36 L276.847,33.325 C276.863,33.258 276.886,33.194 276.89,33.127 C276.898,33.058 276.898,32.993 276.905,32.925" fill="#004B86"/>
    <path d="M277.659,38.713 C277.608,38.866 277.603,39.022 277.624,39.175 C277.675,39.456 277.786,39.724 277.976,39.975 C278.257,40.344 278.62,40.663 279.138,40.687 L279.147,40.687 L285.813,40.648 C286.134,40.663 286.427,40.432 286.508,40.157 L288.021,35.465 L293.489,18.728 L294.25,16.44 C294.25,16.44 292.3,16.452 291.976,16.446 L289.022,16.446 C286.63,16.451 284.816,16.684 283.622,20.191 L277.659,38.713 z M278.176,38.936 L278.176,38.936" fill="#004B86"/>
    <path d="M241.092,21.963 C240.995,21.293 240.767,20.668 240.43,20.09 C239.682,18.804 238.422,17.876 236.779,17.295 C235.128,16.708 233.114,16.446 230.765,16.446 L220.624,16.446 C220.618,16.442 220.604,16.44 220.596,16.44 L220.589,16.44 L219.461,16.446 L214.317,16.446 C214.233,16.446 214.163,16.455 214.085,16.473 L213.919,16.474 C213.595,16.466 213.306,16.695 213.223,16.972 L211.71,21.661 L206.242,38.396 L205.482,40.687 C205.482,40.687 207.431,40.674 207.759,40.679 L210.714,40.679 C213.103,40.676 214.915,40.439 216.11,36.936 L217.841,31.571 L225.316,31.571 C226.167,31.571 226.854,31.633 227.351,31.732 C227.794,31.823 227.905,31.853 228.013,31.961 C228.124,32.067 228.308,32.389 228.544,33.094 L228.536,33.105 L228.597,33.272 C228.597,33.274 229.185,34.943 229.778,36.634 C230.071,37.477 230.372,38.328 230.604,38.972 C230.831,39.636 230.97,40.019 231.021,40.135 C231.142,40.432 231.472,40.654 231.798,40.654 C231.809,40.654 231.816,40.654 231.821,40.654 L238.267,40.654 C238.596,40.647 238.858,40.5 239.07,40.305 C239.288,40.1 239.433,39.852 239.521,39.571 L239.574,39.395 L237.253,33.367 L235.71,29.625 C236.689,29.221 237.781,28.538 238.356,28.069 C238.971,27.57 239.495,27.008 239.935,26.381 C240.289,25.869 240.573,25.317 240.78,24.747 L240.792,24.747 L240.873,24.475 L240.905,24.475 L240.995,24.039 C241.099,23.595 241.146,23.155 241.146,22.725 C241.146,22.465 241.131,22.21 241.092,21.963 z M232.477,23.858 C232.362,24.077 232.234,24.244 232.071,24.408 C231.911,24.57 231.729,24.71 231.507,24.836 C231.282,24.967 231.011,25.09 230.688,25.189 C230.04,25.394 229.149,25.528 227.99,25.528 L219.783,25.528 L220.766,22.487 L229.281,22.487 C230.03,22.487 230.64,22.549 231.093,22.645 C231.802,22.797 232.128,23.008 232.307,23.217 C232.38,23.313 232.427,23.408 232.456,23.537 C232.466,23.604 232.477,23.674 232.477,23.762 C232.477,23.793 232.477,23.824 232.477,23.858" fill="#004B86"/>
    <path d="M370.936,38.673 L362.373,20.123 C360.707,16.612 358.884,16.375 356.522,16.372 L353.604,16.372 C353.287,16.38 351.356,16.366 351.356,16.366 L351.909,17.55 L328.817,38.497 C328.493,38.8 328.288,39.192 328.255,39.636 C328.253,39.656 328.253,39.682 328.253,39.71 C328.253,39.919 328.302,40.145 328.454,40.337 C328.593,40.529 328.853,40.654 329.093,40.654 C329.101,40.654 329.103,40.654 329.108,40.654 L335.776,40.615 C336.084,40.61 336.325,40.474 336.525,40.296 L341.943,35.422 L360.115,35.422 L362.28,40.121 C362.397,40.398 362.726,40.628 363.048,40.615 L369.73,40.654 L369.735,40.654 C370.25,40.628 370.566,40.311 370.797,39.942 C370.947,39.689 371.029,39.418 371.031,39.137 C371.031,38.986 371.003,38.829 370.932,38.673 L370.936,38.673 z M370.44,38.898 L370.44,38.898 z M357.339,29.367 L348.601,29.367 L354.767,23.731 L357.339,29.367" fill="#004B86"/>
    <path d="M169.559,16.855 C169.415,16.612 169.152,16.435 168.816,16.435 L154.114,16.435 C150.035,16.436 146.405,16.887 143.247,17.849 C140.085,18.807 137.418,20.276 135.322,22.269 C133.53,23.965 132.268,26.052 131.617,28.393 L131.608,28.418 C131.591,28.483 131.577,28.547 131.57,28.605 C131.558,28.665 131.554,28.728 131.551,28.787 L131.551,28.826 C131.47,31.16 132.083,33.251 133.354,34.943 C134.836,36.936 137.062,38.403 139.944,39.366 C142.832,40.323 146.348,40.774 150.455,40.777 L164.896,40.777 C165.234,40.777 165.548,40.601 165.765,40.357 C165.98,40.113 166.104,39.829 166.148,39.535 L166.672,35.944 C166.711,35.648 166.672,35.366 166.527,35.118 C166.38,34.876 166.117,34.698 165.78,34.698 L151.375,34.698 C148.613,34.698 146.411,34.392 144.724,33.829 C143.034,33.266 141.844,32.455 141.055,31.399 C140.47,30.607 140.192,29.728 140.184,28.605 C140.536,27.485 141.088,26.603 141.914,25.807 C143.024,24.756 144.456,23.947 146.315,23.381 C148.166,22.821 150.456,22.512 153.206,22.512 L167.934,22.512 C168.271,22.512 168.583,22.331 168.798,22.092 C169.015,21.849 169.138,21.565 169.182,21.269 L169.702,17.676 C169.744,17.381 169.702,17.097 169.559,16.855" fill="#004B86"/>
    <path d="M207.478,28.605 L207.482,28.568 C207.673,27.315 207.634,26.082 207.352,24.954 C207.075,23.822 206.555,22.797 205.821,21.9 C204.358,20.104 202.069,18.786 199.06,17.845 L199.044,17.837 L199.025,17.832 C196.462,17.04 193.423,16.583 189.928,16.436 L189.857,16.435 L189.806,16.435 L189.724,16.436 C186.147,16.583 182.949,17.04 180.132,17.834 C176.824,18.779 174.127,20.101 172.11,21.902 C171.104,22.803 170.27,23.826 169.641,24.959 C169.011,26.086 168.594,27.317 168.386,28.594 C168.386,28.594 168.386,28.6 168.385,28.605 L168.38,28.618 C168.176,29.897 168.2,31.124 168.464,32.254 C168.732,33.387 169.238,34.407 169.961,35.309 C171.408,37.109 173.699,38.433 176.721,39.375 C179.306,40.175 182.385,40.628 185.937,40.774 L186.002,40.779 L186.056,40.779 L186.144,40.774 C189.712,40.628 192.918,40.172 195.742,39.375 C199.073,38.433 201.788,37.113 203.803,35.312 C204.81,34.409 205.641,33.391 206.26,32.257 C206.876,31.126 207.283,29.899 207.476,28.618 L207.476,28.628 L207.478,28.605 z M198.88,28.605 C198.784,29.236 198.603,29.761 198.339,30.253 C198.077,30.74 197.723,31.192 197.247,31.627 C196.302,32.49 194.87,33.256 192.86,33.832 L192.849,33.835 C191.258,34.297 189.304,34.594 186.984,34.697 C185.103,34.614 183.495,34.396 182.157,34.068 C180.793,33.73 179.713,33.277 178.876,32.725 C178.042,32.175 177.514,31.557 177.218,30.896 C176.925,30.223 176.845,29.519 176.983,28.605 C177.082,27.98 177.266,27.454 177.529,26.966 C177.794,26.482 178.149,26.033 178.62,25.601 C179.548,24.756 180.944,24 182.897,23.422 L182.979,23.399 C184.61,22.92 186.577,22.614 188.891,22.512 C191.094,22.616 192.94,22.92 194.462,23.402 C196.289,23.989 197.485,24.758 198.167,25.62 C198.508,26.054 198.726,26.5 198.84,26.982 C198.952,27.472 198.97,27.989 198.88,28.605" fill="#004B86"/>
    <path d="M330.694,16.845 C330.553,16.6 330.287,16.424 329.952,16.424 L315.253,16.424 C311.171,16.424 307.542,16.879 304.384,17.839 C301.22,18.799 298.554,20.268 296.46,22.258 C294.667,23.955 293.405,26.043 292.755,28.384 L292.746,28.407 C292.73,28.477 292.714,28.536 292.706,28.598 C292.693,28.653 292.69,28.716 292.69,28.78 L292.687,28.815 C292.607,31.149 293.218,33.239 294.487,34.936 C295.974,36.925 298.199,38.396 301.081,39.359 C303.967,40.315 307.485,40.765 311.591,40.768 L324.301,40.768 C324.64,40.768 324.931,40.571 325.173,40.351 C325.424,40.115 330.059,36.155 330.122,35.935 C330.185,35.715 330.122,35.354 329.976,35.111 C329.832,34.869 329.567,34.692 329.231,34.688 L312.512,34.688 C309.755,34.688 307.546,34.384 305.86,33.821 C304.171,33.256 302.981,32.447 302.192,31.39 C301.606,30.599 301.325,29.719 301.323,28.598 C301.675,27.479 302.224,26.594 303.05,25.798 C304.159,24.747 305.597,23.937 307.454,23.371 C309.306,22.81 311.595,22.502 314.346,22.504 L329.071,22.502 C329.408,22.502 329.72,22.324 329.938,22.082 C330.151,21.837 330.274,21.557 330.317,21.261 L330.394,20.766 L330.842,17.667 C330.881,17.37 330.842,17.087 330.694,16.845" fill="#004B86"/>
  </g>
</svg>
