<?xml version="1.0" encoding="UTF-8"?><svg id="Layer_1" xmlns="http://www.w3.org/2000/svg" xmlns:xlink="http://www.w3.org/1999/xlink" viewBox="0 0 612.09 187.8"><defs><style>.cls-1,.cls-2{fill:none;}.cls-3{fill:url(#linear-gradient);}.cls-4{fill:#005daa;}.cls-5{fill:#ee3224;}.cls-2{clip-path:url(#clippath);}</style><clipPath id="clippath"><path class="cls-1" d="m578.62,37.14c-6.81,6.79-21.6,12.62-28.9,15.35-9.94,3.73-14.34,5.05-19.93,6.87-6.27,2.04-18.88,5.85-18.88,5.85,26.09,7.79,44.48,10.15,44.48,10.15,0,0,8.57-2.65,22.13-9.9,7.37-3.74,10.96-6.26,13.57-8.66.94-.86,3.4-3.42,4.03-6.7.05-.24.16-.87.16-1.49,0,0,0-.43-.05-.8,0-.44-.08-.73-.08-.73,0,0-.14-.79-.34-1.33-.19-.55-1.05-2.24-2.4-3.32-.91-.74-2.48-2.59-8.16-4.58-1.95-.67-5.07-1.31-5.07-1.31l-.55.61Z"/></clipPath><linearGradient id="linear-gradient" x1="-131.08" y1="498.26" x2="-126.33" y2="498.26" gradientTransform="translate(-1097.49 -6339.43) rotate(-180) scale(12.84 -12.84)" gradientUnits="userSpaceOnUse"><stop offset="0" stop-color="#e5eef6"/><stop offset=".07" stop-color="#bfd6e9"/><stop offset=".18" stop-color="#89b4d7"/><stop offset=".28" stop-color="#619aca"/><stop offset=".35" stop-color="#488bc1"/><stop offset=".4" stop-color="#4086bf"/><stop offset=".9" stop-color="#005daa"/><stop offset="1" stop-color="#005daa"/></linearGradient></defs><path class="cls-4" d="m0,105.95c1.31-.66,1.89-2.25,1.89-3.6v-33.25c0-1.41-.58-2.94-1.89-3.65h15.83c7.06,0,13.96,2.89,13.96,10.91,0,4.26-3.7,7.62-7.7,8.36,5.75-.05,11.31,3.47,11.31,9.82,0,9.1-9.52,11.41-16.22,11.41H0Zm12.82-37c-.74,0-1.25,0-2.61.15v14.18h1.61c4.84,0,9.56-1.5,9.56-7.13s-3.76-7.2-8.57-7.2m1.02,17.98c-1.18,0-2.22,0-3.63.1v14.98c1.78.34,3.67.45,5.42.45,4.06,0,8.21-1.81,8.21-8.02s-4.91-7.5-10-7.5m35.25-17.98c-.72,0-1.36.1-2.08.21v14.02c.67.03,1.25.1,1.92.1,4.54,0,7.91-2.52,7.91-7.47s-3.31-6.86-7.75-6.86m20.41,37.24c-1.55,0-3.26.07-4.74-.38-2.77-.81-6.57-7.03-8.08-9.47-2.36-3.96-4.42-9.41-9.68-9.47v15.48c0,1.35.61,3,1.92,3.6h-12.17c1.29-.66,1.89-2.19,1.89-3.6v-33.25c0-1.41-.6-2.94-1.89-3.65h14.65c6.37,0,14.33,2.44,14.33,10.11,0,6.42-5.3,9.7-11.21,9.7,8.42.07,13.37,19.83,22.68,19.88-2.5.75-5.1,1.04-7.71,1.04m8.32-.24c1-.46,2.06-1.78,2.06-3.6v-33.25c0-1.85-1.05-3.15-2.06-3.65h12.46c-1.07.5-2.05,1.79-2.05,3.65v33.25c0,1.82.98,3.15,2.05,3.6h-12.46Zm27.04,0c1.34-.6,1.99-2.19,1.99-3.6v-32.25h-8.96c-2.06,0-4.52.25-6.3,1.31l2.78-5.94h29.69c2.39,0,4.86-.06,7.21-.55-1.14,3.05-4.51,5.31-6.46,5.31-2.35-.06-6.25-.22-9.61-.22v32.35c0,1.41.7,3,2,3.6h-12.36Zm27.89,0c.99-.46,2.05-1.78,2.05-3.6v-33.25c0-1.85-1.06-3.15-2.05-3.65h12.47c-1.07.5-2.07,1.79-2.07,3.65v33.25c0,1.82,1.01,3.15,2.07,3.6h-12.47Zm36.73-9.16c0-7.72-18.17-9.45-18.17-21.77,0-7.62,7.26-10.11,13.62-10.11,2.86,0,6.96.39,9.57,1.6l.44,7.56c-1.6-3.34-5.58-5.75-9.32-5.75-2.93,0-6,1.45-6,4.8,0,8,18.47,9.96,18.47,21.62,0,8.46-7.4,11.97-14.87,11.97-3.89,0-9.21-.75-12.52-3-.19-1.35-.28-2.77-.28-4.15,0-1.66.14-3.31.39-4.95,2.06,4.69,6.32,8.36,11.62,8.36,4.05,0,7.05-1.77,7.05-6.17m38.92,9.16c.88-.4,1.82-1.78,1.82-3.6v-15.07c-2.17-.25-5.19-.35-8.59-.35s-6.5.1-8.72.35v15.07c0,1.82.9,3.15,1.8,3.6h-12c.9-.4,1.83-1.78,1.83-3.6v-33.25c0-1.85-.94-3.21-1.83-3.65h12c-.9.44-1.8,1.79-1.8,3.65v13.61c2.22.26,5.22.36,8.72.36s6.42-.15,8.59-.36v-13.61c0-1.85-.94-3.21-1.82-3.65h11.99c-.9.44-1.79,1.79-1.79,3.65v33.25c0,1.82.89,3.15,1.79,3.6h-11.99Z"/><path class="cls-4" d="m264.85,105.95c.4-.4.75-.69.75-1.41,0-.24-.09-.65-.4-1.4,0,0-3.31-9.05-3.71-10.12-2.49-.3-5.1-.3-7.66-.3-2.4,0-4.86.06-7.26.3-.35.91-3.9,9.93-3.9,9.93-.49,1.21-.65,1.62-.65,1.9,0,.59.51.88.94,1.09h-8.15c1.21-.6,2.26-1.87,2.75-3.11l13.41-34.58c.06-.14.1-.29.1-.49,0-.96-.65-1.87-1.5-2.3h10.5l13.64,37.35c.56,1.5,1.74,2.59,2.74,3.14h-11.61Zm-10.56-32.79l-6.16,15.77c1.85.19,3.74.24,5.6.24,2.11,0,4.22,0,6.28-.24l-5.72-15.77Zm24.23,32.79c1.01-.46,2.06-1.78,2.06-3.6v-33.25c0-1.85-1.05-3.15-2.06-3.65h12.47c-1.05.5-2.05,1.79-2.05,3.65v33.25c0,1.82.99,3.15,2.05,3.6h-12.47Zm31.41-37c-.68,0-1.33.1-2.02.21v14.02c.64.03,1.24.1,1.87.1,4.57,0,7.93-2.52,7.93-7.47s-3.32-6.86-7.78-6.86m21.44,37.24c-1.55,0-3.25.07-4.75-.38-2.76-.81-6.57-7.03-8.08-9.47-2.35-3.96-5.41-9.47-10.64-9.47v15.48c0,1.35.59,3,1.87,3.6h-12.15c1.3-.66,1.91-2.19,1.91-3.6v-33.25c0-1.41-.61-2.94-1.91-3.65h14.67c6.35,0,14.32,2.44,14.32,10.11,0,6.42-5.82,9.7-10.21,9.7,8.75.51,14.01,19.88,22.68,19.88-2.51.75-5.11,1.04-7.73,1.04m50.52-36.78l-12.32,36.54c-.99,0-2-.35-2.56-.75-1.22-1.17-3.14-6.07-3.83-7.87l-5.56-14.05-8.01,22.67h-3.81l-13.77-36.64c-.6-1.56-1.6-3.05-3.11-3.86h11.97c-.5.38-.84.84-.84,1.7,0,.39.19.96.34,1.41l8.97,24.23,9.55-27.33,10.53,26.34,7.95-23.84c.19-.66.31-.9.31-1.3,0-.5-.2-.82-.71-1.21h7.92c-1.45.77-2.51,2.44-3.02,3.96m14.7,3.75l-6.13,15.77c1.86.19,3.74.24,5.59.24,2.1,0,4.22,0,6.28-.24l-5.74-15.77Zm10.57,32.79c.42-.4.74-.69.74-1.41,0-.24-.14-.65-.38-1.4,0,0-3.3-9.05-3.7-10.12-2.52-.3-5.11-.3-7.66-.3-2.4,0-4.86.06-7.27.3-.34.91-3.89,9.93-3.89,9.93-.51,1.21-.65,1.62-.65,1.9,0,.59.49.88.94,1.09h-8.16c1.22-.6,2.24-1.87,2.75-3.11l13.44-34.58c.05-.14.08-.29.08-.49,0-.96-.63-1.87-1.51-2.3h10.52l13.62,37.35c.56,1.5,1.76,2.59,2.75,3.14h-11.62Zm36.61-36.24l-9.61,16.82v15.82c0,1.29.53,3,1.81,3.6h-11.93c1.22-.66,1.77-2.36,1.77-3.6v-15.87l-8.33-13.37c-.74-1.24-4.24-7.07-8.47-7.07,1.15-.44,4.65-1.1,7.01-1.1,3.91,0,5.87.36,8.27,4.11l7.71,12.23c.65-1.2,6.76-11.82,6.76-11.82.74-1.29,1.25-2.21,1.25-2.66,0-.57-.25-.96-.86-1.34h8.62c-1.69.81-3.09,2.66-4,4.25m22.44,27.08c0-7.72-18.18-9.45-18.18-21.77,0-7.62,7.25-10.11,13.61-10.11,2.85,0,6.95.39,9.57,1.6l.45,7.56c-1.6-3.34-5.6-5.75-9.31-5.75-2.96,0-6.01,1.45-6.01,4.8,0,8,18.48,9.96,18.48,21.62,0,8.46-7.35,11.97-14.88,11.97-3.91,0-9.22-.75-12.51-3-.21-1.35-.32-2.77-.32-4.15,0-1.66.17-3.31.41-4.95,2.06,4.69,6.31,8.36,11.63,8.36,4.06,0,7.07-1.77,7.07-6.17"/><g class="cls-2"><rect class="cls-3" x="515.2" y="9.71" width="75.8" height="92.47" transform="translate(228.11 506.97) rotate(-60)"/></g><path class="cls-5" d="m595.28,48.42s-.05-.73-.2-1.34c-.15-.55-.4-1.07-.76-1.63-.44-.66-1.05-1.42-1.94-2.26-.66-.64-1.4-1.2-2.28-1.79-3.56-2.34-8.15-3.64-12.23-4.19-6.31-.84-13.52-.69-14.21-.71-2.32-.05-17.34.08-21.21.16-17.14.34-38.13.38-43.63.38-56.76.26-81.47-.95-108.97-6.48-23.4-4.64-36.37-9.05-36.37-9.05,20.64-.72,141.03-5.72,163-6.3,14.37-.41,24.57-.5,32.77-.01,4.16.23,8.08.58,12.96,1.41,4.39.75,8.38,2.03,10.7,2.88,4.9,1.81,9.01,4.43,11.04,7.12,0,0,.6.61,1.41,1.71.94,1.27,1.99,2.84,2.35,3.42,2.98,4.5,4.39,7.35,4.88,8.33.53,1.03,1,2.11,1.45,3.17.46,1.04.64,1.69.78,2.12.32,1.11.39,2.13.4,2.36l.05.69Z"/><path class="cls-4" d="m30.08,140.75l.47,4.93c-3.2-1.88-6.91-2.82-11.11-2.82-4.76,0-8.44,1.43-11.05,4.28s-3.91,6.88-3.91,12.1c0,4.64,1.33,8.31,4,11.01,2.66,2.7,6.32,4.05,10.96,4.05,3.38,0,7.18-.88,11.4-2.65l-1.25,4.76c-3.37,1.14-6.69,1.72-9.95,1.72-5.92,0-10.67-1.68-14.26-5.03-3.59-3.35-5.38-7.97-5.38-13.85,0-6.28,1.77-11.21,5.32-14.81,3.55-3.6,8.3-5.39,14.27-5.39,3.92,0,7.42.57,10.49,1.72Z"/><path class="cls-4" d="m38.12,139.03c.69,0,1.27.24,1.76.71s.74,1.05.74,1.72-.24,1.23-.72,1.68c-.48.45-1.07.67-1.78.67s-1.31-.22-1.78-.66c-.47-.44-.7-1.01-.7-1.69s.23-1.26.7-1.73,1.06-.7,1.78-.7Zm2.04,38.22h-4.05v-26.01h4.05v26.01Z"/><path class="cls-4" d="m61.05,173.38l-.78,3.63c-1.55.57-3.15.86-4.78.86-2.21,0-3.82-.64-4.84-1.92-1.02-1.28-1.53-3.26-1.53-5.92v-15.1h-4.17c2.26-2.24,4.35-5.14,6.28-8.7h1.96v5.03h6.77v3.68h-6.77v15.1c0,1.75.24,2.91.71,3.47.47.56,1.26.85,2.35.85,1.18,0,2.78-.32,4.81-.96Z"/><path class="cls-4" d="m87.92,151.24l-10.49,25.72c-1.99,4.94-4.52,8.55-7.58,10.84l-4.07-1.86c1.98-1.32,3.48-2.61,4.51-3.86,1.03-1.25,2.08-3.08,3.14-5.48l-10.35-25.35h4.51l8.04,20.03,8.02-20.03h4.27Z"/><path class="cls-4" d="m106.6,143.66c-1.83-.77-3.54-1.15-5.12-1.15-1.41,0-2.4.43-2.98,1.29-.58.86-.87,2.28-.87,4.28v3.16h6.37v3.68h-6.37v22.34h-4.12v-22.34h-4.07l2.7-3.68h1.37v-3.16c0-3.01.66-5.27,1.99-6.78,1.32-1.51,3.32-2.27,5.98-2.27,1.72,0,3.42.25,5.12.76v3.87Z"/><path class="cls-4" d="m113.17,177.25h-4.05v-38.05h4.05v38.05Z"/><path class="cls-4" d="m142.54,151.24l-10.49,25.72c-1.99,4.94-4.52,8.55-7.58,10.84l-4.07-1.86c1.98-1.32,3.48-2.61,4.51-3.86,1.03-1.25,2.08-3.08,3.14-5.48l-10.35-25.35h4.51l8.04,20.03,8.02-20.03h4.27Z"/><path class="cls-4" d="m166.77,165.85h-18.19c.11,2.76.87,4.83,2.27,6.22,1.4,1.38,3.44,2.07,6.12,2.07,3.12,0,6.19-.6,9.19-1.81l-1.45,4.36c-2.11.78-4.71,1.18-7.8,1.18-4.09,0-7.21-1.18-9.37-3.54-2.16-2.36-3.24-5.76-3.24-10.19,0-3.84,1.09-7.05,3.26-9.62,2.17-2.57,5.04-3.86,8.61-3.86s6.17,1.09,7.98,3.27c1.81,2.18,2.71,5.37,2.71,9.57,0,.88-.03,1.67-.1,2.35Zm-4.22-3.46c-.02-2.7-.56-4.72-1.62-6.07-1.06-1.35-2.65-2.02-4.76-2.02s-3.66.71-4.94,2.12c-1.28,1.41-2.13,3.4-2.54,5.97h13.85Z"/><path class="cls-4" d="m187.34,154.5c-.38-.03-1.01-.05-1.91-.05-1.83,0-3.37.31-4.63.94s-2.44,1.57-3.53,2.83v19.03h-4.12v-26.01h4.12v3.02c.96-1.19,2.07-2.09,3.32-2.7,1.25-.6,2.65-.91,4.2-.91.72,0,1.5.05,2.35.15l.2,3.7Z"/></svg>