<?xml version="1.0" encoding="UTF-8"?>
<svg width="500" height="90" version="1.1" viewBox="0 0 500 90" xmlns="http://www.w3.org/2000/svg" xmlns:cc="http://creativecommons.org/ns#" xmlns:dc="http://purl.org/dc/elements/1.1/" xmlns:rdf="http://www.w3.org/1999/02/22-rdf-syntax-ns#">
 <metadata>
  <rdf:RDF>
   <cc:Work rdf:about="">
    <dc:format>image/svg+xml</dc:format>
    <dc:type rdf:resource="http://purl.org/dc/dcmitype/StillImage"/>
    <dc:title>LOGO</dc:title>
   </cc:Work>
  </rdf:RDF>
 </metadata>
 <!-- Generator: Sketch 51.3 (57544) - http://www.bohemiancoding.com/sketch -->
 <title>LOGO</title>
 <desc>Created with Sketch.</desc>
 <g id="Navigation" transform="matrix(2.3391 0 0 2.3391 4.3968 2.8966)" fill="none" fill-rule="evenodd" stroke-width=".42752">
  <g transform="translate(-136,-18)" fill="#0060aa" stroke-width=".2239">
   <g id="LOGO" transform="translate(136.19 18.355)" stroke-width=".42752">
    <g id="Group" stroke-width=".42752">
     <path d="m78.206 17.114-2.3744-5.2105-2.393 5.2105zm-4.5833-8.9015h4.4192c0.76769 1.6538 7.1318 15.252 7.1318 15.252h-4.0397l-1.6624-3.5736h-7.333l-1.6167 3.5765h-4.0554z"/>
     <path d="m125.84 11.627c-2.5599 0-3.8042 1.3355-3.8042 1.3355l-0.20976-1.1035h-3.456c0.13699 0.41452 0.3653 1.1813 0.3653 1.8604v9.7475h3.4175v-6.761c0-1.8094 1.1273-2.7502 3.6872-2.7502 1.407 0 2.2688 0.4612 2.2688 2.7502v6.761h3.4032v-6.761c0-3.4491-1.123-5.0789-5.6721-5.0789"/>
     <path d="m137.63 16.495c0.19977-1.4303 0.85473-2.5267 3.5502-2.5267 1.9792 0 2.6883 1.2591 2.8025 2.5267zm3.5502-4.8285c-5.8034 0-7.0947 2.6951-7.0947 5.9985 0 3.3388 1.2657 6.0438 7.3787 6.0438 2.2374 0 4.3279-0.41452 4.8045-0.51214 0.0913-0.59136 0.28966-1.8745 0.35388-2.3145-0.32677 0.03254-2.9752 0.51638-5.1584 0.51638-2.841 0-3.6016-1.0738-3.8342-2.5663h9.8244v-1.1672c0-4.1607-2.2417-5.9985-6.2742-5.9985z"/>
     <path d="m25.983 21.416c-2.8539 0-3.7015-1.4077-3.7015-3.7406 0-2.2905 0.8476-3.691 3.7015-3.691 2.8367 0 3.6915 1.4006 3.6915 3.691 0 2.3329-0.85473 3.7406-3.6915 3.7406m0-9.7589c-4.2665 0-7.1104 1.859-7.1104 6.0183 0 4.2088 2.8439 6.0438 7.1104 6.0438 4.2608 0 7.0933-1.8349 7.0933-6.0438 0-4.1593-2.8325-6.0183-7.0933-6.0183"/>
     <path d="m60.508 19.049c0 2.1518-2.079 2.34-3.9826 2.34-0.65782 0-1.6952-0.14006-1.6952-1.4091 0-0.83752 1.1501-1.3978 2.5485-1.3978h3.1293zm3.4032-3.6882c0-2.3357-2.5228-3.7335-6.2471-3.7335-1.9178 0-4.2751 0.74274-5.0856 1.02-0.07705 0.48667-0.31963 2.0188-0.36815 2.34 0.74058-0.1627 3.6458-1.0313 5.4537-1.0313 1.865 0 2.8439 0.63097 2.8439 1.5435v0.98466s-2.3031-0.22353-3.1293-0.22353c-3.7172 0-5.9674 1.3171-5.9674 3.7193 0 3.0431 3.3861 3.708 5.1141 3.708 2.3302 0 3.5502-0.61541 4.1224-1.1318l0.19692 0.91109h3.4161c-0.03995-0.18109-0.3496-0.99456-0.3496-2.0782z"/>
     <path d="m9.363 7.7645c4.0054-0.00566 6.4926 1.2492 7.8738 3.2228l-3.5773 1.378c-0.77197-1.0865-2.0662-1.7995-4.2508-1.8123h-0.08847c-2.1375 0.01132-3.4161 0.67907-4.198 1.7217-0.6835 0.90402-1.0559 2.0683-1.0559 3.3897v0.21787h-0.00285c0.015696 1.2605 0.39241 2.4786 1.0588 3.3543 0.78196 1.0342 2.0605 1.7175 4.198 1.7217h0.08847c2.1433-0.0042 3.4332-0.70454 4.2123-1.7543l3.6159 1.3751c-1.3884 1.9467-3.9027 3.1393-7.8553 3.1393h-0.01855c-3.5131 0-5.869-0.91958-7.3145-2.5041-1.3156-1.4232-1.9849-3.3147-1.9806-5.4085v-0.14147c-0.0042808-2.0471 0.66638-3.9457 1.9777-5.3604 1.4455-1.5803 3.8028-2.5423 7.3173-2.5395"/>
     <path d="m108.51 21.625v-13.406h-3.4118v13.406c0 0.81347 0.28967 1.6439 0.36245 1.8434h3.4146c-0.0499-0.19665-0.36529-0.99173-0.36529-1.8434"/>
     <path d="m97.113 16.684c0.01427-1.7854 1.3456-2.7276 3.6943-2.7276 0.39098 0 1.9278 0.19382 2.587 0.28012-0.03-0.29851-0.26684-1.7387-0.3653-2.3329-0.48658-0.09054-1.5768-0.27587-2.2217-0.27587-2.0006 0-3.1236 0.72859-3.7457 1.2803l-0.28824-1.0483h-3.4318c0.06278 0.23485 0.35388 1.0257 0.35959 1.8307v9.7744h3.4118z"/>
     <path d="m42.737 21.401c-2.8938 0-3.6915-1.6425-3.6915-3.7335 0.06136-2.224 0.79766-3.6967 3.6915-3.6967 2.6199 0 3.1293 1.6354 3.1293 3.6967 0 2.091-0.50942 3.7335-3.1293 3.7335m0-9.7603c-2.1276 0-3.7757 1.2393-3.7757 1.2393s-0.18265-0.68615-0.25828-1.003h-3.4318c0.12272 0.41876 0.3653 1.2266 0.3653 2.0938v13.192h3.4089v-4.5951c0.68636 0.49657 1.9592 1.1431 3.6915 1.1431 5.7177 0 6.5425-2.7078 6.5425-6.0438 0-3.3034-0.82477-6.0268-6.5425-6.0268"/>
     <path d="m159.74 12.252v2.6258c-0.66638-0.35651-1.3627-0.63097-2.0848-0.81064-0.73059-0.1825-1.4569-0.27304-2.1818-0.27304-0.80907 0-1.4212 0.09903-1.8393 0.29568-0.40668 0.19099-0.61929 0.48667-0.61929 0.87006 0 0.54892 0.88898 0.99032 2.6527 1.3341l0.13413 0.02829 1.046 0.20089c1.3299 0.26173 2.2988 0.68049 2.911 1.2563 0.61929 0.58853 0.92037 1.3666 0.92037 2.347 0 1.1955-0.46804 2.0924-1.407 2.6795-0.93179 0.59278-2.3473 0.88562-4.2309 0.88562-0.83333 0-1.6952-0.05659-2.5728-0.17118-0.869-0.12733-1.7608-0.29851-2.6584-0.54184v-2.647c0.80051 0.38622 1.6167 0.672 2.4472 0.87289 0.82762 0.20514 1.6324 0.307 2.4101 0.307 0.8476 0 1.494-0.10894 1.9335-0.31407 0.43379-0.2108 0.65924-0.50648 0.65924-0.90402 0-0.37915-0.16124-0.67483-0.46518-0.88704-0.30964-0.2108-1.0559-0.41593-2.216-0.65219l-1.0088-0.19099c-1.3827-0.24758-2.3972-0.66068-3.0294-1.2138-0.63356-0.56165-0.95462-1.2945-0.95462-2.2254 0-1.1148 0.48088-1.9707 1.4469-2.5791 0.97174-0.62673 2.3273-0.9309 4.0782-0.9309 0.78481 0 1.5668 0.05234 2.3602 0.15421 0.77768 0.10752 1.5354 0.27022 2.2688 0.48384"/>
     <path d="m113.62 10.962c0.7363 0 1.2457-0.09337 1.5183-0.29285 0.26969-0.20514 0.4081-0.56165 0.4081-1.0936 0-0.50223-0.1327-0.86016-0.39098-1.0596-0.27112-0.19806-0.76769-0.29851-1.5068-0.29851-0.75057 0-1.2543 0.10611-1.5282 0.31124-0.26969 0.20655-0.39812 0.57297-0.39812 1.0993 0 0.51072 0.12272 0.85309 0.37957 1.0483 0.26826 0.1924 0.77197 0.28578 1.5183 0.28578m1.7095 10.663v-9.7702h-3.4047v9.7702c0 0.86158 0.32106 1.7217 0.36815 1.8434h3.4032c-0.0614-0.21504-0.36672-1.0144-0.36672-1.8434"/>
     <path d="m88.573 10.962c0.73915 0 1.2414-0.09337 1.5183-0.29285 0.26826-0.20514 0.41381-0.56165 0.41381-1.0936 0-0.50223-0.14269-0.86016-0.39812-1.0596-0.26826-0.19806-0.76769-0.29851-1.5026-0.29851-0.752 0-1.2571 0.10611-1.5282 0.31124-0.26684 0.20655-0.40097 0.57297-0.40097 1.0993 0 0.51072 0.12842 0.85309 0.3867 1.0483 0.26113 0.1924 0.76484 0.28578 1.5111 0.28578m1.7137 10.663v-9.7702h-3.4089v9.7702c0 0.86158 0.32534 1.7217 0.37243 1.8434h3.399c-0.06136-0.21504-0.36244-1.0144-0.36244-1.8434"/>
     <path d="m207.51 32.879h-0.34531v-0.55316h0.55365c0.23544 0 0.52796 0.03961 0.52796 0.26597 0 0.33954-0.46803 0.28719-0.7363 0.28719m1.0331-0.28719c0-0.4612-0.37529-0.56448-0.76056-0.56448h-0.91609v2.1476h0.29823v-0.98041h0.34531l0.64641 0.98041h0.35958l-0.6464-0.98041c0.38242-0.01415 0.67352-0.17118 0.67352-0.60268"/>
     <path d="m207.58 34.756c-0.88327 0-1.6652-0.71586-1.6652-1.6326 0-0.92948 0.78196-1.6552 1.6652-1.6552 0.89469 0 1.6695 0.72576 1.6695 1.6552 0 0.91675-0.77483 1.6326-1.6695 1.6326m0-3.5566c-1.0873 0-1.9649 0.82338-1.9649 1.924 0 1.0879 0.87757 1.9368 1.9649 1.9368 1.0987 0 1.972-0.84884 1.972-1.9368 0-1.1007-0.87329-1.924-1.972-1.924"/>
     <path d="m166.57 15.474v1.1007c3.7571-1.4529 7.5471-2.3386 11.184-2.862-3.3519-0.0863-7.2931 0.4796-11.184 1.7613"/>
     <path d="m187.11 16.622c-0.88613-0.63663-1.8151-1.2181-3.0151-1.7062 0.40097-0.02547 0.8162-0.08913 1.2871-0.11318 0.74914 0.49233 1.7566 1.2747 2.353 2.0202zm-8.2577-4.5795c-0.92323-0.3452-2.0148-0.5758-3.0993-0.72859 0.46946-0.10328 0.92894-0.1924 1.4526-0.25607 0.76056 0.20655 1.7651 0.56448 2.724 1.1516zm-12.283-2.364c1.0117-0.029709 2.1689 0.30558 3.4218 0.46969l-2.2018 0.28012c-0.37529 0.01556-0.79623 0.04952-1.22 0.09054v0.49233c1.5953-0.29568 3.3404-0.48808 4.9586-0.50223 14.178-3.3628 25.923-0.19665 25.923-0.19665-2.52-0.57155-16.561-2.4758-30.882 3.1167v0.84884c2.1261-0.71444 4.3721-1.2662 6.5211-1.5194 3.1864-0.39047 6.1487-0.21646 8.643 0.48526 10.479-0.74557 18.074 1.4869 18.074 1.4869-2.851-0.46262-18.151-2.5508-33.238 4.3093v0.6819c4.1766-1.9849 8.5573-3.1294 12.292-3.3741 3.7857-0.20231 7.1718 0.33388 9.7174 1.8392 6.0031-0.09196 10.578 0.68049 13.135 1.2987v-19.259h-35.144z"/>
     <path d="m166.57 21.127v2.1278c6.1729-2.9837 12.466-4.4012 17.948-4.8709-5.0085-0.87997-11.428 0.02688-17.948 2.7432"/>
     <path d="m193.54 23.662c-1.0645-1.5619-2.4129-2.7418-4.2837-3.6458 0.55936-0.06649 1.2628-0.0863 1.788-0.11035 0.18693 0.13723 0.3653 0.30841 0.53368 0.51638 0.0642 0.09196 2.149 2.1334 2.8482 4.2117zm-26.975 2.398v0.88421c0.4238-0.2405 0.84902-0.46969 1.2486-0.68332 3.1578-1.6878 6.3128-2.8634 9.4663-3.5793 2.9851-0.70737 5.9089-0.95778 8.5816-0.72152 5.0528 0.4513 8.6815 2.6456 10.429 6.4342 0.0157 0.02829 1.2643 2.8111 1.3841 5.4354l-0.60644-1.5024c-0.15982-0.74981-0.36673-1.5208-0.76199-2.2112-1.2942-2.5013-3.817-4.2966-7.2203-5.3491-3.0907-0.97051-7.149-1.013-11.36-0.19382-3.7372 0.70454-7.5414 2.108-11.161 3.8905v6.5983h0.35102c2.1718-1.6057 4.5148-2.7828 6.9506-3.7434 6.3841-2.7304 12.594-3.5566 17.254-2.3272 3.4218 0.97334 5.6578 2.9823 6.5682 6.0706h4.0197v-15.298c-5.7506-0.65078-21.076-1.7048-35.144 6.2956z"/>
     <path d="m190.45 31.445c-3.0494-0.80357-6.5568-0.85167-10.447-0.13582-3.4703 0.63097-7.1076 1.8024-10.605 3.7533h26.691c-1.2429-1.8024-3.222-2.9568-5.6392-3.6175"/>
    </g>
   </g>
  </g>
 </g>
</svg>
