<?xml version="1.0" encoding="utf-8"?>
<!-- Generator: Adobe Illustrator 20.0.0, SVG Export Plug-In . SVG Version: 6.00 Build 0)  -->
<svg version="1.1" id="Layer_1" xmlns="http://www.w3.org/2000/svg" xmlns:xlink="http://www.w3.org/1999/xlink" x="0px" y="0px"
	 viewBox="0 0 1000 154" style="enable-background:new 0 0 1000 154;" xml:space="preserve">
<style type="text/css">
	.st0{fill:#98002E;}
	.st1{fill:#E31837;}
	.st2{fill:#003D79;}
</style>
<title>Asset 2</title>
<g>
	<path class="st0" d="M185.7,137.6l-89.3-43V0L185.7,137.6z M192.8,154l-96.4-40.7V154H192.8z"/>
	<polyline class="st1" points="7.1,137.6 96.4,0 96.4,94.6 7.1,137.6 	"/>
	<polyline class="st1" points="0,154 96.4,154 96.4,113.3 0,154 	"/>
	<path class="st0" d="M200.6,125.8c3.5,0,6.4,2.8,6.4,6.3c0,3.5-2.8,6.4-6.3,6.4c-3.5,0-6.4-2.8-6.4-6.3v0
		C194.3,128.6,197.1,125.8,200.6,125.8z M200.6,137.5c3,0,5.4-2.4,5.4-5.4c0-3-2.4-5.4-5.4-5.4c-3,0-5.4,2.4-5.4,5.4l0,0v0
		C195.2,135.1,197.6,137.5,200.6,137.5L200.6,137.5L200.6,137.5z M199.2,135.8h-0.9v-7.3h2.8c1.7,0,2.3,0.7,2.3,2
		c0.1,1.1-0.8,2-1.8,2.1l2.2,3.2h-1l-2.2-3.2h-1.3L199.2,135.8z M199.2,131.7h1.2c1,0,2.1-0.1,2.1-1.3c0-0.9-0.9-1.2-1.6-1.2h-1.6
		V131.7z"/>
	<g>
		<path class="st2" d="M268.1,137.6h43.3c44.6,0,71.1-23.1,71.1-61.4S356,14.9,311.4,14.9h-43.3V137.6z M295.5,36.2h15.9
			c28.9,0,43.4,14.3,43.4,40s-14.5,40-43.4,40h-15.9V36.2z"/>
		<polygon class="st2" points="475.7,84.4 527.8,84.4 527.8,63.1 475.7,63.1 475.7,36.2 534.6,36.2 534.6,14.9 448.2,14.9 
			448.2,137.6 536.5,137.6 536.5,116.3 475.7,116.3 		"/>
		<polygon class="st2" points="692.7,116.3 639.8,116.3 639.8,14.9 612.3,14.9 612.3,137.6 692.7,137.6 		"/>
		<polygon class="st2" points="840.7,14.9 730.6,14.9 730.6,36.2 771.8,36.2 771.8,137.6 799.4,137.6 799.4,36.2 840.7,36.2 		"/>
		<path class="st2" d="M1000,137.6h-28.7l-12-30.7h-49.9l-12,30.7h-26.8l51.3-123.2h27.7L1000,137.6z M951.5,86.3l-17.1-43.6
			l-17.2,43.6H951.5z"/>
	</g>
</g>
</svg>
