<?xml version="1.0" encoding="UTF-8" standalone="no"?>
<!-- Generator: Adobe Illustrator 12.0.0, SVG Export Plug-In  -->
<svg xmlns:dc="http://purl.org/dc/elements/1.1/" xmlns:cc="http://creativecommons.org/ns#" xmlns:rdf="http://www.w3.org/1999/02/22-rdf-syntax-ns#" xmlns:svg="http://www.w3.org/2000/svg" xmlns="http://www.w3.org/2000/svg" xmlns:sodipodi="http://sodipodi.sourceforge.net/DTD/sodipodi-0.dtd" xmlns:inkscape="http://www.inkscape.org/namespaces/inkscape" version="1.1" width="455.34863" height="83.84375" viewBox="-0.5039063 -0.8779297 455.34863 83.84375" enable-background="new -0.5039063 -0.8779297 481 102" xml:space="preserve" id="svg2" inkscape:version="0.48.1 " sodipodi:docname="AJAX.svg"><metadata id="metadata16"><rdf:RDF><cc:Work rdf:about=""><dc:format>image/svg+xml</dc:format><dc:type rdf:resource="http://purl.org/dc/dcmitype/StillImage"/></cc:Work></rdf:RDF></metadata><sodipodi:namedview pagecolor="#ffffff" bordercolor="#666666" borderopacity="1" objecttolerance="10" gridtolerance="10" guidetolerance="10" inkscape:pageopacity="0" inkscape:pageshadow="2" inkscape:window-width="1280" inkscape:window-height="1004" id="namedview14" showgrid="false" fit-margin-top="0" fit-margin-left="0" fit-margin-right="0" fit-margin-bottom="0" inkscape:zoom="1.5187443" inkscape:cx="251.79758" inkscape:cy="-34.95622" inkscape:window-x="-8" inkscape:window-y="-8" inkscape:window-maximized="1" inkscape:current-layer="svg2"/>
<defs id="defs4">
</defs>
<polygon clip-rule="evenodd" points="479.74805,0 479.74805,101 0,101 0,0 0,0 " id="polygon6" style="opacity:0;fill:#ffffff;fill-rule:evenodd" transform="translate(-12.4365, -9.25391)"/>
<path clip-rule="evenodd" d="m 125.52735,63.206055 -12.46094,19.402344 h 7.6543 l 12.2832,-19.402344 h -7.47656 l 0,0 z m 26.34619,0 v 19.402344 h 6.40771 V 63.206055 h -6.40771 l 0,0 z m 18.86816,0 v 19.402344 h -5.69726 V 63.206055 h 5.69726 l 0,0 z m 14.06299,0 v 19.402344 h -5.51855 V 63.206055 h 5.51855 l 0,0 z m 50.19922,0 c -1.95801,4.449219 -4.98535,7.476562 -7.12207,9.257812 -6.76318,4.804688 -14.95166,4.804688 -20.2915,4.804688 h -14.2417 v 5.339844 h 17.26611 c 7.12061,0 14.41992,-1.780274 19.04834,-4.804688 6.40723,-4.09375 9.78906,-9.613281 11.57031,-14.597656 h -6.22949 l 0,0 z m 9.43359,0 c 1.42383,10.68164 10.85938,19.759766 22.6084,19.759766 11.92578,0 21.18262,-9.078125 22.7832,-19.759766 h -5.69433 c -1.60352,9.43457 -9.43652,14.774414 -17.08887,14.774414 -8.01269,0 -15.4873,-6.051758 -16.91113,-14.774414 h -5.69727 l 0,0 z m 53.93653,0 v 19.402344 h -5.69532 V 63.206055 h 5.69532 l 0,0 z m 2.84961,0 c 1.42382,10.68164 10.85644,19.759766 22.60547,19.759766 11.92871,0 21.18261,-9.078125 22.78613,-19.759766 h -5.69727 c -1.60058,9.43457 -9.43359,14.774414 -16.91113,14.774414 -8.1875,0 -15.66504,-6.051758 -17.08887,-14.774414 h -5.69433 l 0,0 z m 54.64746,0 v 19.402344 h -5.51758 V 63.206055 h 5.51758 l 0,0 z m 29.5498,0 v 19.402344 h -5.69531 V 63.206055 h 5.69531 l 0,0 z m 29.3711,0 v 19.402344 h -5.51661 V 63.206055 h 5.51661 l 0,0 z m 11.21484,0 v 19.402344 h -5.51758 V 63.206055 h 5.51758 l 0,0 z m 12.63769,0 v 19.402344 h -5.5166 V 63.206055 h 5.5166 l 0,0 z m 16.2002,0 v 19.402344 h -5.69531 V 63.206055 h 5.69531 l 0,0 z" id="path8" inkscape:connector-curvature="0" style="fill:#021a31;fill-rule:evenodd"/>
<path clip-rule="evenodd" d="m 133.00391,63.206055 0.35596,-0.53418 h 18.51367 v 0.53418 h 6.40771 V 25.468262 h -6.40771 -1.9585 l -24.38769,37.737793 h 7.47656 l 0,0 z m 32.04053,0 V 38.819336 h 5.69726 v 24.386719 h -5.69726 l 0,0 z m 14.2417,0 V 38.819336 h 5.51855 v 6.407715 c 2.84717,-6.230469 7.83203,-7.120605 12.46045,-7.476562 V 43.625 c -3.9165,0.355469 -7.29932,1.779297 -9.43506,4.450684 -1.95801,2.313965 -3.02539,5.51709 -3.02539,8.899902 v 6.230469 h -5.51855 l 0,0 z m 61.94726,0 c 1.42383,-3.916016 1.78028,-7.476563 1.78028,-9.791016 0,-7.11914 -3.02735,-18.334472 -13.35059,-24.743652 -4.62842,-3.025879 -11.92774,-4.805176 -19.04834,-4.805176 h -3.73779 l 0.17871,4.983887 h 0.53467 c 8.72168,0 14.24023,1.067871 19.40283,4.450683 6.23047,4.628418 10.14648,11.749024 10.14648,19.75879 0,3.916015 -0.88965,7.297851 -2.13574,10.146484 h 6.22949 l 0,0 z m 8.90137,0 c -0.17969,-0.890625 -0.35742,-1.958008 -0.35742,-2.848633 0,-11.569824 9.43652,-18.157715 17.26855,-18.157715 7.65235,0 17.44336,6.054199 17.44336,17.624512 0,1.245117 -0.17773,2.314453 -0.35449,3.381836 h 5.69433 c 0.17969,-1.067383 0.17969,-2.136719 0.17969,-3.204102 0,-11.926269 -9.9707,-22.963379 -22.96289,-22.963379 -11.57129,0 -22.78613,9.434571 -22.78613,23.318848 0,1.069336 0,1.958008 0.17773,2.848633 h 5.69727 l 0,0 z m 42.54394,0 V 25.468262 h 5.69532 v 37.737793 h -5.69532 l 0,0 z m 14.23926,0 c -0.17773,-0.890625 -0.35449,-1.958008 -0.35449,-2.848633 0,-11.569824 9.43359,-18.157715 17.44336,-18.157715 7.47754,0 17.26855,6.054199 17.26855,17.624512 0,1.245117 -0.17968,2.314453 -0.35742,3.381836 h 5.69727 c 0.17676,-1.067383 0.17676,-2.136719 0.17676,-3.204102 0,-11.926269 -9.96778,-22.963379 -22.9629,-22.963379 -11.57128,0 -22.78515,9.434571 -22.78515,23.318848 0,1.069336 0,1.958008 0.17969,2.848633 h 5.69433 l 0,0 z m 43.43555,0 V 38.819336 h 5.51758 v 5.161133 c 2.49316,-3.916016 6.94336,-6.22998 11.92578,-6.22998 6.40918,0 11.74902,3.026855 14.77637,8.366699 3.38183,-5.518067 8.54394,-8.366699 14.77636,-8.366699 10.32227,0 17.44239,7.299316 17.44239,18.869628 v 6.585938 h -5.51661 v -5.874024 c 0,-9.435058 -4.62793,-14.596191 -11.92578,-14.596191 -7.47851,0 -11.92871,5.161133 -11.92871,14.596191 v 5.874024 h -5.69531 v -5.874024 c 0,-9.435058 -4.4502,-14.596191 -11.92871,-14.596191 -7.29785,0 -11.92578,5.161133 -11.92578,14.596191 v 5.874024 h -5.51758 l 0,0 z m 70.13574,0 V 38.819336 h 5.51758 v 24.386719 h -5.51758 l 0,0 z m 12.63867,0 V 25.468262 h 5.5166 v 13.351074 h 5.69727 v 5.161133 h -5.69727 v 19.225586 h -5.5166 l 0,0 z m 16.02149,0 V 38.819336 h 5.69531 v 24.386719 h -5.69531 l 0,0 z M 136.91993,57.332031 151.87354,34.012696 v 23.319335 h -14.95361 l 0,0 z M 449.14942,25.468262 h 5.69531 v 8.009766 h -5.69531 v -8.009766 l 0,0 z m -28.66016,0 h 5.51758 v 8.009766 h -5.51758 v -8.009766 l 0,0 z M 165.04444,23.510254 h 5.69726 v 9.967774 h -5.69726 v -9.967774 l 0,0 z" id="path10" inkscape:connector-curvature="0" style="fill:#021a31;fill-rule:evenodd"/>
<path clip-rule="evenodd" d="M 72.836424,-0.8779297 38.657713,38.285156 H -0.50390771 L 33.673827,-0.8779297 h 39.162597 l 0,0 z m 0,81.8857427 L 38.657713,42.022461 H -0.50390771 L 33.673827,81.007813 h 39.162597 l 0,0 z M 117.33887,40.599121 79.778319,18.88086 42.217772,40.243164 79.422363,61.782227 117.33887,40.599121 l 0,0 z" id="path12" inkscape:connector-curvature="0" style="fill:#008e8f;fill-rule:evenodd"/>
</svg>