<svg xmlns="http://www.w3.org/2000/svg" viewBox="0 0 222 38"><path fill="#05164D" d="M221.667 31.654v-11.98c0-5.03-2.932-6.803-8.252-6.803-5.392 0-7.998 2.063-8.215 5.936h5.32c.073-1.014.652-1.774 2.895-1.774 1.99 0 2.932.651 2.932 1.629 0 .869-.544 1.194-1.883 1.34l-3.474.36c-4.705.508-6.84 2.461-6.84 6.008 0 3.293 2.027 5.827 6.334 5.827 2.93 0 4.669-.94 6.188-2.823v2.28h4.995zm-5.212-7.093c0 1.99-1.882 3.474-4.777 3.474-1.412 0-2.244-.652-2.244-1.882 0-.94.58-1.737 2.425-1.99l3.149-.435c.542-.072 1.122-.18 1.447-.289v1.122zm-24.538-6.044c0-.796.689-1.411 2.499-1.411 1.845 0 2.424.651 2.605 1.701h5.32c-.254-3.946-2.931-5.936-7.925-5.936-5.393 0-7.963 2.57-7.963 6.044 0 3.62 2.316 5.176 6.334 5.718l1.918.254c1.882.254 2.606.687 2.606 1.628 0 1.014-.869 1.52-3.004 1.52-2.1 0-3.04-.652-3.185-1.99h-5.392c.108 3.655 2.316 6.152 8.577 6.152 5.754 0 8.469-2.28 8.469-6.117 0-3.799-2.317-5.247-6.949-5.862l-1.919-.253c-1.555-.218-1.99-.652-1.99-1.448zm-13.083 13.137h5.464V20.978c0-6.008-2.424-8.107-7.166-8.107-2.93 0-4.486 1.23-5.246 2.642v-2.1h-5.14v18.24h5.465V21.232c0-2.424 1.23-3.51 3.294-3.51 2.28 0 3.33 1.086 3.33 3.51v10.423zm-19.332 0h4.995v-11.98c0-5.03-2.932-6.803-8.252-6.803-5.392 0-7.997 2.063-8.215 5.936h5.32c.072-1.014.652-1.774 2.895-1.774 1.99 0 2.932.651 2.932 1.629 0 .869-.543 1.194-1.882 1.34l-3.474.36c-4.705.507-6.84 2.461-6.84 6.008 0 3.293 2.026 5.827 6.332 5.827 2.932 0 4.67-.94 6.189-2.823v2.28zm-.216-7.093c0 1.99-1.883 3.474-4.778 3.474-1.411 0-2.244-.652-2.244-1.882 0-.94.579-1.737 2.425-1.99l3.149-.435c.543-.073 1.122-.18 1.448-.289v1.122zm-19.4 7.093h5.466V20.978c0-6.008-2.425-8.107-7.057-8.107-2.57 0-4.054.977-4.994 2.316v-8.83h-5.502v25.297h5.465V21.23c0-2.424 1.23-3.51 3.293-3.51 2.28 0 3.33 1.086 3.33 3.51v10.423zm-16.296.325c1.34 0 2.606-.289 2.606-.289v-4.379s-.905.109-1.556.109c-1.593 0-2.607-.507-2.607-2.46v-7.095h4.163v-4.451h-4.163v-5.32h-5.464v5.32h-2.75v4.451h2.75v7.71c0 4.414 2.642 6.404 7.02 6.404zm-15.2-14.114h4.017v-4.451h-4.018v-.724c0-1.592.906-2.171 2.607-2.171.652 0 1.411.072 1.411.072V6.176s-.904-.217-2.316-.217c-4.379 0-7.165 2.352-7.165 6.767v.688h-2.75v4.451h2.75v13.789h5.463V17.865zM93.588 31.654h5.139v-18.24h-5.464v10.423c0 2.425-1.23 3.51-3.221 3.51-2.208 0-3.258-1.086-3.258-3.51V13.414H81.32V24.09c0 6.007 2.425 8.106 7.093 8.106 2.86 0 4.415-1.23 5.175-2.642v2.099zm-30.255 0H80.09V26.55H69.196V6.321h-5.863v25.333zM38 19C38 8.474 29.526 0 19 0 8.512 0 0 8.474 0 19c0 10.488 8.512 19 19 19 10.526 0 19-8.512 19-19zm-1.368 0c0 9.69-7.904 17.632-17.632 17.632-9.69 0-17.632-7.941-17.632-17.632C1.368 9.272 9.31 1.368 19 1.368c9.728 0 17.632 7.904 17.632 17.632zm-10.906-1.14c-.418 0-.95 0-1.634.038l.494-.836h.798c2.85 0 4.978.152 6.916.494l.874-.836c-2.166-.38-4.788-.608-7.448-.608h-.646l.418-.798h.722c2.774 0 5.282.228 7.714.684l.912-.874c-2.736-.532-5.662-.797-8.816-.797a45.9 45.9 0 0 0-4.028.19c-1.52 3.267-3.952 5.168-6.688 5.13-1.064-.039-2.395-.494-4.104-1.407l-1.596-.912.494-.456 3.686 1.596.798-.608-7.448-3.382-1.14.874-2.66-1.102.038 1.102c3.572 1.634 5.054 2.546 8.816 5.244 4.902 3.496 9.272 5.396 15.352 6.612l1.596-1.52h-.38c-4.028 0-7.638-1.33-9.728-3.572 1.748-1.064 3.913-1.557 6.916-1.557.798 0 1.938.075 3.002.189l.912-.874a36.194 36.194 0 0 0-4.294-.266 35.23 35.23 0 0 0-2.888.114l.684-.836a43.437 43.437 0 0 1 2.432-.076c2.014 0 3.344.076 4.864.304l.874-.836c-1.596-.265-3.8-.418-5.814-.418z"/></svg>
