<svg xmlns="http://www.w3.org/2000/svg" viewBox="0 0 481.38 122.85"><defs><style>.cls-1{fill:#82c341;}.cls-2{fill:#3cb14a;}.cls-3{fill:#f9ed32;}.cls-4{fill:#006472;}</style></defs><path class="cls-1" d="M481,37.93c-1.39,4.46-6,8.65-11.56,9.52a7.46,7.46,0,0,1,1.09,5c-.6,5.17-5.55,9.34-10.86,9.39-3.59,0-8.46-1.52-11.89-6.94-3.07-4.81-3.51-12.46-3.29-14.77a35.67,35.67,0,0,0-7.21,10.15,46.19,46.19,0,0,0-3.4,16.32,2.2,2.2,0,0,1-.9.52,7.14,7.14,0,0,1-3.48-1.55,4.35,4.35,0,0,1-1.33-1.91,49.15,49.15,0,0,1,8.24-19.37c5.31-8,13.5-12.89,23.21-15.86,7-2.15,14.31-2.61,19.31,1.63A7.06,7.06,0,0,1,481,37.93Zm-41.35-4.41c-1.66,2.77-6.2,7.23-9.8,9.55-7.48,4.79-12.86,5.11-15.56,3.4a4.38,4.38,0,0,1-.84-.68c-2.1-2.21-1.74-6.12.71-9.33a9.23,9.23,0,0,1,4.24-3.21,3.86,3.86,0,0,1-2.12-3.3c-.33-3.21,2.09-7.42,5.44-9.14,2.94-1.49,9.28-3,13.93,4a32.07,32.07,0,0,1,4,8.76ZM470.35,4.35c-.41-4-4.68-5.47-9.38-3.45a14,14,0,0,0-5.58,4.38A4.49,4.49,0,0,0,453.78.9c-2.58-1.88-7.29-.49-10.5,3A19.33,19.33,0,0,0,438.33,16a23.1,23.1,0,0,0,5.88,14.85h0A51.4,51.4,0,0,0,465.45,16.3a20.47,20.47,0,0,0,4.63-8.52A10.73,10.73,0,0,0,470.35,4.35Z"/><path class="cls-2" d="M465.45,16.3a20.47,20.47,0,0,0,4.63-8.52c0-.11.05-.22.08-.35-.6,2.42-5.71,8.68-12.79,14-7.34,5.52-11.53,8.3-13.14,9.38A51.18,51.18,0,0,0,465.45,16.3Z"/><path class="cls-2" d="M429.81,43c3.6-2.31,8.14-6.77,9.8-9.55h0a53,53,0,0,1-16.08,11.18c-4,1.72-8,2.37-9.28,1.74C417,48.15,422.33,47.83,429.81,43Z"/><path class="cls-2" d="M481,37.93a8.36,8.36,0,0,0,.38-1.88,11.12,11.12,0,0,1-4.89,7.43A13.65,13.65,0,0,1,468,45.73a8.77,8.77,0,0,1,1.44,1.69h0C475,46.58,479.57,42.39,481,37.93Z"/><path class="cls-3" d="M445.21,35.2h0s0,0,0,.06a.06.06,0,0,1,0-.06Z"/><path class="cls-2" d="M445.16,35.23c-8.73,6.26-11.7,17.52-12.19,31.86h0a2.2,2.2,0,0,0,.9-.52,46.13,46.13,0,0,1,3.4-16.32,35.53,35.53,0,0,1,7.21-10.15,41.85,41.85,0,0,1,.76-4.9A.12.12,0,0,0,445.16,35.23Z"/><path class="cls-4" d="M283.88,49c6.59-3.34,9-10.11,9-15.53,0-6.06-1.84-10.85-5.42-14.35a10.59,10.59,0,0,0-1-.89l5.68-9.46H283.7l-3.61,6.06a26.52,26.52,0,0,0-8.33-1.35,22.73,22.73,0,0,0-14.46,5.17,18.85,18.85,0,0,0-6.77,14.82c0,13,9.82,16.23,19.32,19.35l5.28,1.67c5.63,1.67,9,2.69,9,7.12A6.66,6.66,0,0,1,282,66.67c-2.2,2.09-6.06,3.23-10.32,3-3.72-.21-11.62-1-12.61-9.07H251c0,10.35,9.25,16.9,20.74,16.9,7.37,0,12.83-2.09,16.48-5.63a14.09,14.09,0,0,0,4.4-10.35C292.64,55.83,289.55,51.4,283.88,49Zm-1.31-7.59a11.27,11.27,0,0,1-6.88,5.25S270,45,266.23,43.74c-5-1.74-7.37-5-7.37-10.28,0-8.36,6.7-12.19,12.94-12.19s12.86,3.9,12.86,12.15A14.81,14.81,0,0,1,282.57,41.4Z"/><rect class="cls-4" x="188.21" y="14.82" width="8.37" height="41.33"/><path class="cls-4" d="M187.72,4.5c0-2.62,1.74-4.5,4.71-4.5a4.3,4.3,0,0,1,4.65,4.5,4.33,4.33,0,0,1-4.65,4.64C189.42,9.11,187.72,7.27,187.72,4.5Z"/><path class="cls-4" d="M31.55,2.69H22.86L0,56.15H9l5.82-13.58H39.59l5.82,13.58h9ZM17.83,35.2l9.32-21.84L36.47,35.2Z"/><polygon class="cls-4" points="155.75 2.69 146.96 2.69 146.96 56.15 183.11 56.15 183.11 48.77 155.75 48.77 155.75 2.69"/><path class="cls-4" d="M351.8,15.53c-4.47,2-6.92,5.56-7.09,9.71-.46,9.67,6.94,11.94,16.87,13.32,7.9,1.1,12.44,2.27,12.23,6.24a4.55,4.55,0,0,1-2.52,3.44c-5.32,2.66-18.82,1.24-25.17-2.69l-1.73,7.05c3.83,2.48,9.57,3.94,15,4.18,5.92.29,11.91-.14,16.23-2.19a11.21,11.21,0,0,0,6.59-9.79c.43-9.5-8.43-11.55-16.73-13-9.43-1.63-12.86-2.58-12.62-6.66.11-1.91,1.88-3.15,3.3-3.58,5.14-1.59,15.95-.53,22.3,2.94l1.66-7.12C371.89,13.22,359.38,12.16,351.8,15.53Z"/><path class="cls-4" d="M224.37,14.07a68.21,68.21,0,0,0-18.22,2.13l-.32.1V56.15h8.47v-34a37.9,37.9,0,0,1,9.64-.88c6.92,0,11.56,1.73,11.56,10.21V56.11h8.36V31.87C243.83,20.1,237.27,14.07,224.37,14.07Z"/><path class="cls-4" d="M328.51,48.88a41.6,41.6,0,0,1-9.64.81c-7.13,0-11.56-1.7-11.56-10.13V14.85H299V39.17c0,11.76,6.55,17.76,19.46,17.76a69,69,0,0,0,18.18-2.13l.35-.07V14.85h-8.47v34Z"/><path class="cls-4" d="M121.68,14.07c-5.53,0-10.13,1.07-13.22,3.26-4.61,3.26-6.41,8.19-6.41,14.57V56.15h8.36V31.51a11.47,11.47,0,0,1,1.67-6.7C114,22,117.5,21.3,122,21.3a36.15,36.15,0,0,1,6.8.71l1.67-7A43.89,43.89,0,0,0,121.68,14.07Z"/><path class="cls-4" d="M94.78,31.44C93.79,20.06,87,14.11,75,14.11c-13,0-19.92,7-19.92,20.34v2.09c0,13.33,7.62,20.35,22,20.35a50.43,50.43,0,0,0,16.17-2.48l-1.78-7-.39.14a42.34,42.34,0,0,1-14,2.16c-6,0-13.18-1.91-13.36-10.84H94.89V34.49C94.89,33.39,94.85,32.4,94.78,31.44ZM75,21.3c5,0,10.92,1.81,11.34,10.14H63.77C64.09,24.81,68,21.3,75,21.3Z"/><path class="cls-4" d="M29.48,113.29H23.67l-5.5-10.16a8.79,8.79,0,0,0-2.35-2.9,5.34,5.34,0,0,0-3.16-.85H9.56v13.91H4.31v-35h9.2q6.51,0,10.06,2.53t3.56,7.58c0,2.87-.75,5.06-2.23,6.58a9.86,9.86,0,0,1-5.63,2.83q2.1.8,4.2,4.6ZM13.31,82.76H9.56V94.87h3.75q4.22,0,6.31-1.45a5.26,5.26,0,0,0,2.1-4.65q0-3.26-2.1-4.63T13.31,82.76Z"/><path class="cls-4" d="M53.65,108l.85,4.1a20.09,20.09,0,0,1-8.61,1.75c-4,0-7.25-1.18-9.63-3.53s-3.58-5.61-3.58-9.78A14,14,0,0,1,35.93,91a11.06,11.06,0,0,1,8.71-3.67,9.85,9.85,0,0,1,7.68,3.1,11.41,11.41,0,0,1,2.83,8c0,1-.07,2.08-.2,3.35H37.89q.75,7.8,8.45,7.81A18.65,18.65,0,0,0,53.65,108Zm-9-16.57A6,6,0,0,0,40,93.35a8.75,8.75,0,0,0-2.07,5.18H50.2a5.56,5.56,0,0,0,0-.8,6.91,6.91,0,0,0-1.43-4.48A5,5,0,0,0,44.64,91.47Z"/><path class="cls-4" d="M82.13,112.59a9.51,9.51,0,0,1-3.08,7.58q-3.08,2.68-8.48,2.68a22.9,22.9,0,0,1-8.36-1.45l1-4.11a19.22,19.22,0,0,0,7,1.26,7.72,7.72,0,0,0,5-1.46,5,5,0,0,0,1.75-4v-2.1a11.71,11.71,0,0,1-5.5,1.3A11.5,11.5,0,0,1,63,109.09c-2.08-2.11-3.12-5-3.12-8.81q0-6,3.5-9.46a12.61,12.61,0,0,1,9.36-3.5,21.46,21.46,0,0,1,9.36,2ZM65.06,99.88a8.58,8.58,0,0,0,1.9,5.9,6.7,6.7,0,0,0,5.31,2.15,8.76,8.76,0,0,0,4.8-1.3V92.37a12.63,12.63,0,0,0-4.3-.8,7.3,7.3,0,0,0-5.63,2.23A8.53,8.53,0,0,0,65.06,99.88Z"/><path class="cls-4" d="M92.59,83.51a2.9,2.9,0,0,1-3.16-3.1,2.93,2.93,0,0,1,.85-2.18,3.18,3.18,0,0,1,2.31-.82,3.07,3.07,0,0,1,2.27.82,3,3,0,0,1,.83,2.18,3.11,3.11,0,0,1-.83,2.25A3,3,0,0,1,92.59,83.51Zm2.55,4.41v25.37H90.08V87.92Z"/><path class="cls-4" d="M125.32,100.58q0,6.06-3.18,9.68a12.26,12.26,0,0,1-17.42,0q-3.18-3.63-3.18-9.68t3.18-9.64a12.29,12.29,0,0,1,17.42,0Q125.32,94.57,125.32,100.58Zm-18.62,0a11.19,11.19,0,0,0,1.73,6.63,6.38,6.38,0,0,0,10,0,11.46,11.46,0,0,0,1.68-6.65,11.31,11.31,0,0,0-1.7-6.61,6.36,6.36,0,0,0-10,0A11.09,11.09,0,0,0,106.7,100.58Z"/><path class="cls-4" d="M136.68,113.29h-5.06V89.67a25.3,25.3,0,0,1,10.91-2.35q5.21,0,8,2.52A9.24,9.24,0,0,1,153.24,97v16.31h-5.05v-16q0-5.76-5.66-5.76a12.84,12.84,0,0,0-5.85,1.3Z"/><path class="cls-4" d="M179.16,111.59a20.59,20.59,0,0,1-10.25,2.3q-4.75,0-7.31-2.1a6.8,6.8,0,0,1-2.55-5.51,6.72,6.72,0,0,1,2.7-5.75,11.71,11.71,0,0,1,7.16-2,24,24,0,0,1,5.3.55V97q0-5.42-5.86-5.41a17.57,17.57,0,0,0-6.7,1.25l-1-4a21.28,21.28,0,0,1,8.21-1.45q5.1,0,7.7,2.55c1.74,1.7,2.6,4.15,2.6,7.36Zm-9.8-1.5a9.62,9.62,0,0,0,4.85-1v-6.56a19.36,19.36,0,0,0-4.7-.6q-5.41,0-5.41,4.2Q164.1,110.09,169.36,110.09Z"/><path class="cls-4" d="M191.68,77.06v28.12a6.31,6.31,0,0,0,.7,3.38,2.58,2.58,0,0,0,2.35,1.08,6,6,0,0,0,1.45-.15l.4,4.05a11.83,11.83,0,0,1-2.85.35q-7.11,0-7.11-8.66V77.36Z"/></svg>