<?xml version="1.0" encoding="utf-8"?>
<!-- Generator: Adobe Illustrator 18.0.0, SVG Export Plug-In . SVG Version: 6.00 Build 0)  -->
<!DOCTYPE svg PUBLIC "-//W3C//DTD SVG 1.1//EN" "http://www.w3.org/Graphics/SVG/1.1/DTD/svg11.dtd">
<svg version="1.1" id="Layer_1" xmlns="http://www.w3.org/2000/svg" xmlns:xlink="http://www.w3.org/1999/xlink" x="0px" y="0px"
	 viewBox="1.9 159.7 397.4 89.1" enable-background="new 1.9 159.7 397.4 89.1" xml:space="preserve">
<g enable-background="new    ">
	<path fill="#FF6600" d="M49.4,207.9H25.2c-1.1,0-1.6,0.5-1.6,1.4c0,2.2,1.2,4.3,3.6,6.3s5,3,7.8,3c1.6,0,3.5-0.3,5.5-0.9
		s3.7-1.4,5-2.3c1.2-0.8,2.1-1.2,2.8-1.2c0.9,0,1.8,0.5,2.6,1.6c0.9,1.1,1.3,2.2,1.3,3.4c0,2.5-1.5,4.8-4.6,7.1
		c-5.4,4.1-11.7,6.1-18.8,6.1c-7.2,0-13.2-2.1-18.1-6.3c-2.4-2.1-4.3-4.5-5.8-7.4c-2-3.9-3-7.9-3-12.2c0-5.7,1.7-10.9,5.2-15.5
		c3-4,6.8-6.9,11.5-8.9c3.5-1.5,7.3-2.2,11.3-2.2c6.5,0,12,1.8,16.6,5.5c2.3,1.8,4.1,4,5.5,6.6c1.6,2.9,2.4,5.7,2.4,8.4
		c0,2.2-0.5,4-1.4,5.5C52,207.2,50.8,207.9,49.4,207.9z M26.6,198.3h5.2c2.2,0,3.3-1,3.3-3c0-1.8-0.5-3.4-1.6-4.5
		c-1.1-1.2-2.4-1.7-4.2-1.7c-1.9,0-3.4,0.8-4.5,2.3c-1,1.4-1.5,2.8-1.5,4.3c0,1,0.2,1.7,0.7,2.2C24.5,198.1,25.3,198.3,26.6,198.3z"
		/>
	<path fill="#FF6600" d="M87,179.7c6,0,11,1.5,15.1,4.5c2.2,1.6,3.7,3.4,4.6,5.5s1.3,4.9,1.3,8.5l-0.1,7.6c0,5.3,0.4,8.7,1.1,10.3
		c0.4,0.8,0.7,1.2,1.1,1.4c0.3,0.2,1.1,0.4,2.2,0.6c1.1,0.2,1.6,0.9,1.6,2.2c0,1.6-0.7,3.4-2,5.1c-1.3,1.8-3,3.3-5.1,4.5
		c-2.6,1.5-5.3,2.3-8.1,2.3c-3.6,0-6.4-1.2-8.5-3.7c-0.7-0.9-1.4-1.3-2-1.3c-0.7,0-1.6,0.4-2.7,1.3c-3.4,2.5-7.3,3.7-11.6,3.7
		c-4.5,0-8.1-1-10.9-2.9c-1.8-1.3-3.2-2.9-4.3-5c-1.1-2-1.6-4.2-1.6-6.4c0-3.6,1.4-6.7,4.3-9.4c4.5-4.3,11.2-6.5,20.1-6.5
		c2,0,3.2-0.2,3.7-0.6c0.5-0.4,0.8-1.3,0.8-2.7c0-3.6-0.4-6.3-1.1-7.9c-0.8-1.6-2-2.4-3.7-2.4c-1,0-1.9,0.3-2.7,0.9
		c-0.8,0.6-1.8,1.7-3,3.4c-3,4.3-6.2,6.5-9.5,6.5c-1.7,0-3-0.5-4.1-1.5s-1.6-2.3-1.6-3.9c0-1.6,0.7-3.3,2-4.9
		c1.3-1.6,3.1-3.1,5.4-4.3C73.8,181.3,80.2,179.7,87,179.7z M83.5,209.4c-1.5,0-2.8,0.6-3.9,1.8s-1.7,2.7-1.7,4.4c0,1.6,0.4,3,1.2,4
		c0.8,1,1.8,1.5,3.1,1.5c2.7,0,4.1-2.3,4.1-6.9c0-1.9-0.2-3.1-0.6-3.8C85.4,209.8,84.6,209.4,83.5,209.4z"/>
	<path fill="#FF6600" d="M137.8,179.7c1.7,0,4.5,0.4,8.4,1.1c0.8,0.1,1.4,0.2,1.9,0.2c0.6,0,1.7-0.3,3.4-0.9c0.8-0.3,1.5-0.5,2-0.5
		c1.6,0,3.2,1,4.8,3c1.3,1.6,2.4,3.4,3.2,5.3c0.8,1.9,1.2,3.6,1.2,5s-0.5,2.5-1.4,3.4c-1,0.9-2.2,1.4-3.6,1.4
		c-1.2,0-2.3-0.3-3.2-0.9c-0.9-0.6-2.5-1.9-4.5-3.8c-2.2-2.1-4-3.2-5.4-3.2c-1,0-1.8,0.4-2.5,1.1c-0.7,0.7-1.1,1.5-1.1,2.5
		c0,1.7,1.6,3.2,4.8,4.7c5.8,2.6,10.2,5.4,13.3,8.5c2.6,2.6,3.9,5.8,3.9,9.5c0,4.8-2.1,8.7-6.3,11.9c-3.6,2.8-8,4.2-13.2,4.2
		c-1.3,0-3.8-0.2-7.3-0.7c-3.3-0.4-5.2-0.6-5.6-0.6c-0.4,0-1,0.1-1.5,0.2c-1,0.1-1.7,0.2-2.2,0.2c-1.6,0-2.9-0.4-3.8-1.2
		c-1.4-1.3-2.7-3.3-3.9-6c-1.2-2.7-1.8-5.1-1.8-7c0-3.1,1.2-4.7,3.7-4.7c1,0,1.8,0.3,2.6,0.9c0.8,0.6,2.5,2.3,5.1,5.1
		c1.4,1.5,2.6,2.5,3.5,3.1s1.9,0.8,3,0.8s2-0.3,2.7-0.9c0.7-0.6,1-1.4,1-2.4c0-1.5-1.3-2.9-4-4.2c-5.5-2.7-9.5-5.5-11.9-8.4
		s-3.7-6.2-3.7-10c0-4.1,1.2-7.6,3.7-10.5C126.7,181.9,131.6,179.7,137.8,179.7z"/>
	<path fill="#FF6600" d="M216.2,205l-6.8,18.6c-1.7,4.6-3.4,8.4-5.1,11.3c-1.7,2.9-3.6,5.4-5.8,7.5c-4.4,4.2-9.8,6.4-16.1,6.4
		c-5.1,0-9.2-1.3-12.3-4c-2.4-2.1-3.6-4.7-3.6-7.8c0-2.6,0.8-4.8,2.5-6.6s3.8-2.7,6.2-2.7c2.5,0,4.4,0.8,6,2.5
		c0.7,0.8,1.2,1.4,1.4,2s0.6,1.9,1.1,3.8c0.4,1.5,1.2,2.3,2.6,2.3c1.1,0,1.9-0.5,2.7-1.4s1.1-2.1,1.1-3.4c0-1.6-0.9-4.3-2.7-8.1
		L175,199.1c-1.3-2.7-2.3-4.4-2.9-5.1c-0.7-0.7-2.1-1.5-4.3-2.5c-0.7-0.3-1.3-0.8-1.8-1.6s-0.7-1.6-0.7-2.3c0-3,3-5.1,9.1-6.2
		c4-0.7,8.6-1.1,13.8-1.1c3.6,0,6.5,0.4,8.6,1.1c2.8,1,4.2,2.7,4.2,5.1c0,0.9-0.4,1.9-1.2,3s-1.1,2.1-1.1,2.9c0,0.8,0.2,1.7,0.5,2.6
		c0.4,0.9,1.1,2.4,2.3,4.5c1.3,2.4,2.4,3.6,3.4,3.6c1.1,0,2.2-1.1,3.3-3.2c1.1-2.1,1.7-4.1,1.7-6.1c0-1.6-0.4-2.9-1.3-3.8
		c-1.3-1.5-2-2.9-2-4c0-1.7,1.2-3.1,3.5-4.2c2.3-1,5.4-1.6,9.3-1.6c7.3,0,10.9,1.7,10.9,5.2c0,1.3-0.4,2.3-1.1,3.1s-2.1,1.5-4,2.2
		c-1.6,0.6-2.9,1.6-3.9,3.1C219.9,195.9,218.2,199.7,216.2,205z"/>
	<path fill="#FF6600" d="M274.8,159.7c3.8,0,7.7,0.3,11.7,1c3.2,0.5,5.6,1.3,7,2.3s2.1,2.3,2.1,4c0,1.1-0.3,1.9-0.8,2.5
		s-1.6,1.3-3.3,2.2c-2,1-3.1,2.2-3.4,3.6c-0.3,1.4-0.6,6.8-0.8,16.1c-0.1,9.1-0.2,14.5-0.3,16.3c-0.1,1.8-0.3,3.6-0.6,5.3
		c-1,5-3,8.9-6,11.8c-2.5,2.3-5.6,4.2-9.5,5.5s-7.9,2-12.2,2c-3.8,0-7.6-0.5-11.4-1.5c-3.8-1-7.1-2.4-9.9-4.1
		c-2.3-1.4-4.2-3.4-5.5-5.8c-1.4-2.4-2.1-5.1-2.1-7.8c0-3.4,1.1-6.3,3.2-8.5c2.2-2.2,4.9-3.4,8.1-3.4c3.2,0,5.9,0.9,8.1,2.8
		c2.2,1.9,3.3,4.3,3.3,7.1c0,0.7-0.2,1.9-0.6,3.6c-0.1,0.3-0.1,0.7-0.1,1.1c0,1.1,0.4,2,1.2,2.7s1.8,1,3.1,1c2.3,0,4.1-1,5.5-3.1
		s2.1-4.8,2.1-8.1l-0.1-4.7l-0.1-12.6c-0.3-7.6-0.5-12.1-0.7-13.5s-0.5-2.5-1.2-3.3c-0.5-0.7-1-1.1-1.4-1.3s-1.5-0.5-3.2-1
		c-0.8-0.2-1.5-0.6-2.1-1.4c-0.6-0.8-0.9-1.6-0.9-2.5c0-1.8,0.7-3.3,2.2-4.4c1.5-1.1,3.8-2,7.1-2.7
		C267.1,160.1,270.9,159.7,274.8,159.7z"/>
</g>
<g enable-background="new    ">
	<path fill="#FF6600" d="M345.7,207.9h-24.1c-1.1,0-1.6,0.5-1.6,1.4c0,2.2,1.2,4.3,3.6,6.3s5,3,7.8,3c1.6,0,3.5-0.3,5.5-0.9
		s3.7-1.4,5-2.3c1.2-0.8,2.1-1.2,2.8-1.2c0.9,0,1.8,0.5,2.6,1.6c0.9,1.1,1.3,2.2,1.3,3.4c0,2.5-1.5,4.8-4.6,7.1
		c-5.4,4.1-11.7,6.1-18.8,6.1c-7.2,0-13.2-2.1-18.1-6.3c-2.4-2.1-4.3-4.5-5.8-7.4c-2-3.9-3-7.9-3-12.2c0-5.7,1.7-10.9,5.2-15.5
		c3-4,6.8-6.9,11.5-8.9c3.5-1.5,7.3-2.2,11.3-2.2c6.5,0,12,1.8,16.6,5.5c2.3,1.8,4.1,4,5.5,6.6c1.6,2.9,2.4,5.7,2.4,8.4
		c0,2.2-0.5,4-1.4,5.5C348.4,207.2,347.2,207.9,345.7,207.9z M322.9,198.3h5.2c2.2,0,3.3-1,3.3-3c0-1.8-0.5-3.4-1.6-4.5
		c-1.1-1.2-2.4-1.7-4.2-1.7c-1.9,0-3.4,0.8-4.5,2.3c-1,1.4-1.5,2.8-1.5,4.3c0,1,0.2,1.7,0.7,2.2
		C320.8,198.1,321.7,198.3,322.9,198.3z"/>
</g>
<g enable-background="new    ">
	<path fill="#FF6600" d="M383.8,193.2v17.3c0,2.1,0.5,3.7,1.5,5s2.3,2,3.9,2c1.3,0,3.1-0.6,5.3-1.8c0.5-0.3,1-0.5,1.5-0.5
		c0.8,0,1.6,0.5,2.3,1.5c0.7,1,1,2.1,1,3.2c0,2.1-1.2,4.2-3.5,6.1c-4.9,4.1-10.7,6.2-17.7,6.2c-5.5,0-9.9-1.5-13.2-4.6
		c-3.3-3.1-5-7.2-5-12.2v-23.7c0-0.8-0.1-1.3-0.3-1.5c-0.2-0.2-0.7-0.3-1.5-0.3H353c-1,0-1.6-0.2-1.9-0.5s-0.4-1.1-0.4-2.3v-2.3
		c0-1,0.4-1.8,1.2-2.3l23.5-14.8c0.6-0.3,1.3-0.5,2.2-0.5h4.2c0.9,0,1.4,0.2,1.7,0.6c0.3,0.4,0.4,1.2,0.4,2.3v6.9c0,1,0.2,1.7,0.5,2
		s1,0.5,2.1,0.5h9.5c1.3,0,2.1,0.2,2.5,0.7s0.6,1.4,0.6,3v3c0,1.6-0.2,2.8-0.7,3.4c-0.5,0.6-1.4,0.9-2.6,0.9h-9.3
		c-1,0-1.6,0.2-1.9,0.5C384,191.6,383.8,192.2,383.8,193.2z"/>
</g>
</svg>
