<?xml version="1.0" encoding="utf-8"?>
<!-- Generator: Adobe Illustrator 18.0.0, SVG Export Plug-In . SVG Version: 6.00 Build 0)  -->
<!DOCTYPE svg PUBLIC "-//W3C//DTD SVG 1.1//EN" "http://www.w3.org/Graphics/SVG/1.1/DTD/svg11.dtd">
<svg version="1.1" id="Layer_1" xmlns="http://www.w3.org/2000/svg" xmlns:xlink="http://www.w3.org/1999/xlink" x="0px" y="0px"
	 viewBox="0 0 485.4 81.4" enable-background="new 0 0 485.4 81.4" xml:space="preserve">
<path fill="#E2231A" d="M123.4,20l-2.7,10.5h10.1c0,0-2.1,9.8-3.6,16.8c-1.1,5.3-4.4,19-2.1,24.1c1.7,3.7,6.2,5.9,9.8,6.1
	c7.4,0.4,16.4,0.2,16.4,0.2l2.6-13.7l-5.5,0.1c0,0-4.9,0.2-5.5-2.3c-1.5-5.5,5.4-31.6,5.4-31.6l12.6,0l1.9-10.3L150.7,20l3.8-17.1
	c0,0-9.7-0.3-12,0c-3.2,0.4-5.7,4.1-6.8,7.5c-1.4,4.2-2.3,9.5-2.3,9.5L123.4,20z"/>
<path fill="#E2231A" d="M155.9,77.9c0,0,1.4-10.5,6.7-17.3c7-9.1,23.6-16.4,28.8-18.9c9.6-4.5,15.3-10.4,15.3-15.7
	c0-3.7-3-9.4-10.1-9.4c-7.1,0-13.2,6-13.9,13.9c-2,0-4.9,0-9.5,0c-2,0-8.7,0-8.7,0s2.6-14.2,11-20.5c6.7-5,11.8-7.2,21.1-7.5
	c10.5-0.4,20.5,3.3,25,10.5c4.4,7,5.6,18.4-0.9,25.7c-5.8,6.4-11.7,9.9-16.9,12.9c-7,4.1-16.5,8.9-19.2,10.2c-2.3,1.1-2,2.3-2,2.3
	h30.4c4.6,0,7-1.8,7-1.8s2,6.4-1.2,10.6c-1.1,1.5-4.3,5-9.9,5H155.9z"/>
<polygon fill="#E2231A" points="228.6,77.9 231.8,59 252.9,58.9 249.6,77.9 "/>
<path fill="#E2231A" d="M319.9,56.7c0,18.1-18,22.6-19.4,23.1c-3.7,1.1-9,1.6-14.3,1.6c-11.2,0-24.9-9.6-24.9-25.5
	c0-21.8,13.4-38.4,36.7-37.6c24.2,0.9,24.7,19.6,24.5,23.1H304c0-1.4,0.4-8.9-9.2-8.9c-11.4,0-15.6,10.3-15.6,21.9
	c0,8.5,5.4,12.8,12,12.8c2.5,0,4.1-0.7,5.7-1.7c4.6-3,4.5-7.1,4.4-8.8L319.9,56.7z"/>
<path fill="#E2231A" d="M350.3,81.1c-15.2,0-25.3-9.9-25.3-24.6c0-20.6,14.4-37.6,35.5-37.6c16.1,0,25.3,11,25.3,24.6
	c0,21.7-15,37.6-35.4,37.6H350.3z M352.7,67.7c9.5,0,15-14,15-24.1c0-5.6-2.4-11.3-9.4-11.3c-10.1,0-15.2,14.6-15.2,23.9
	c0,6.9,3.5,11.6,9.5,11.6H352.7z"/>
<path fill="#E2231A" d="M387.2,79.2L395,40c1.5-7.4,2.4-13.6,3.2-18.9h15.7l-1.1,9.5h0.3c5.7-7.5,13.2-10.8,21.2-10.8
	c9.9,0,14.2,5.9,14.7,11c5.6-7.5,13.3-11,21.4-11c9.5,0,15.1,5.8,15.1,15.7c0,2.4-0.5,7-1,10l-6.7,33.7h-17.8l6.2-31.7
	c0.5-2.3,0.9-4.8,0.9-7c0-4-1.9-6.9-6.1-6.9c-6.1,0-12.2,7.6-14.6,19.3l-5.2,26.2h-17.6l6.5-31.9c0.4-2.3,0.8-4.5,0.8-6.5
	c0-4-1.4-7.1-5.8-7.1c-6.2,0-12.7,8.1-14.8,19.5l-5.2,26.1H387.2z"/>
<path fill="#E2231A" d="M93.3,19.7c-8.8,0.3-15.9,1.8-23.5,9.9c-8.1,8.6-9.6,31.5-7.4,36.2c2.2,4.7,6.3,13.5,26.5,14.1
	c23.4,0.8,29-18.9,29-18.9l-18.6,0c0,0-0.2,6.2-9.7,6.4c-13.5,0.3-10.5-13.5-10.5-13.5l41.2,0c0,0,0-0.8,0.7-11.6
	C122,30.6,111.2,19,93.3,19.7 M103.5,42.6l-23.1,0.1c0,0,1.8-11.7,13.1-11.7C103.9,31,103.5,42.6,103.5,42.6"/>
<path fill="#E2231A" d="M56.9,3c-3.6,0.1-7.8,0.8-10.2,3.6C44.3,9.5,43,15,42.4,18.5c-0.2,0.9-0.3,2-0.5,3.2c0.4,0,0.7,0,0.9-0.1
	c0.9,0,3-0.1,3-0.1l8.1-11.2l2.1,0l-4.7,11.3l9.8,0.6l1.8-2.1C65,10.4,66.7,3,66.7,3S60.5,2.9,56.9,3 M51.4,24.9l4.7,11.2l-2.1,0
	l-8.1-11.2c0,0-2.2,0-3-0.1c-0.4,0-0.9,0-1.4-0.1c-0.7,4.5-1.7,10.4-3,16.9c-2.5,12.6-2.3,21.5-13.1,21.5c-3.5,0-6.7-1.6-6.7-4.1
	c0-4.6,0.7-12.6,0.7-12.6L0.8,46.3c0,0-0.8,7.7-0.8,15.9c0,7.4,8.1,17,24.1,17c12.2,0,20.3-2.9,27.3-12.9c3.5-5,5.3-16.9,8-29.8
	c0.8-3.8,1.6-7.6,2.4-11.2l-0.7-0.8L51.4,24.9z"/>
<path fill="#E2231A" d="M229.3,0c2.4,0,4.2,1.9,4.2,4.3c0,2.4-1.9,4.3-4.2,4.3c-2.4,0-4.3-1.9-4.3-4.3C225,1.9,226.9,0,229.3,0
	L229.3,0z M229.3,0.7c-1.9,0-3.4,1.6-3.4,3.6c0,2,1.5,3.7,3.5,3.7c1.9,0,3.4-1.6,3.4-3.6C232.7,2.3,231.2,0.7,229.3,0.7L229.3,0.7z
	 M228.4,6.8h-0.8V2c0.4-0.1,0.8-0.1,1.4-0.1c0.7,0,1.2,0.2,1.5,0.4c0.3,0.2,0.4,0.5,0.4,1c0,0.6-0.4,1-0.9,1.2v0
	c0.4,0.1,0.7,0.5,0.8,1.2c0.1,0.7,0.2,1,0.3,1.2h-0.8c-0.1-0.2-0.2-0.6-0.3-1.2c-0.1-0.6-0.4-0.8-1-0.8h-0.5V6.8z M228.4,4.1h0.6
	c0.6,0,1.2-0.2,1.2-0.8c0-0.4-0.3-0.8-1.2-0.8c-0.2,0-0.4,0-0.6,0V4.1z"/>
</svg>
