<?xml version="1.0" encoding="utf-8"?>
<svg version="1.1" id="Layer_1" xmlns="http://www.w3.org/2000/svg" xmlns:xlink="http://www.w3.org/1999/xlink" x="0px" y="0px"
	 viewBox="0 0 317 114" style="enable-background:new 0 0 317 114;" xml:space="preserve">
<style type="text/css">
	.st0{fill:#DC3228;}
	.st1{fill:#262262;}
</style>
<path class="st0" d="M93.6,93.4c0-4.5-4.5-5.4-8.3-5.4c-4.2,0-8.6,1.5-8.8,6.3l0,0h5.2c0.2-2,1.4-2.8,3.4-2.8c1.8,0,3.3,0.3,3.3,2.5
	c0,2.1-2.9,2-6.1,2.5c-3.2,0.4-6.4,1.5-6.4,5.7c0,3.9,2.8,5.7,6.4,5.7c2.3,0,4.7-0.6,6.3-2.3c0,0.6,0.2,1.2,0.4,1.8h5.3
	c-0.5-0.8-0.6-2.5-0.6-4.2v-9.8H93.6z M88.4,100.1c0,1.1-0.1,4.3-4.2,4.3c-1.6,0-3.1-0.5-3.1-2.4s1.4-2.5,3.1-2.8
	c1.6-0.3,3.4-0.3,4.3-1.1v2H88.4z M97.7,88.5h5.2v18.9h-5.2V88.5z M112,92L112,92l-0.1-3.5H107v18.9h5.2v-8.5c0-3.3,1.3-6.1,5.1-6.1
	c0.6,0,1.4,0.1,1.9,0.2v-4.8c-0.3-0.1-0.8-0.2-1.1-0.2C115.4,88,112.9,89.6,112,92z M141.3,101.3h-0.1L138,88.5h-5l-3.2,12.8h-0.1
	l-3.4-12.8h-5.5l6,18.9h5.4l3.2-12.7l0,0l3.4,12.7h5.3l5.9-18.9h-5.3L141.3,101.3z M169.1,93.4c0-4.5-4.5-5.4-8.3-5.4
	c-4.3,0-8.6,1.5-8.9,6.3l0,0h5.2c0.2-2,1.4-2.8,3.4-2.8c1.8,0,3.3,0.3,3.3,2.5c0,2.1-2.9,2-6.1,2.5c-3.2,0.4-6.4,1.5-6.4,5.7
	c0,3.9,2.8,5.7,6.4,5.7c2.3,0,4.7-0.6,6.3-2.3c0,0.6,0.2,1.2,0.4,1.8h5.2c-0.5-0.8-0.6-2.5-0.6-4.2v-9.8H169.1z M163.9,100.1
	c0,1.1-0.1,4.3-4.2,4.3c-1.7,0-3.2-0.5-3.2-2.4s1.5-2.5,3.1-2.8s3.4-0.3,4.3-1.1l0,0L163.9,100.1L163.9,100.1z M180.8,101.4
	L180.8,101.4l-4.3-12.9H171l6.6,17.7c0.6,1.5,0,3.4-1.8,3.5c-1,0-2.1-0.1-3-0.2v4.3c1.1,0.1,2.1,0.2,3.2,0.2c3.6,0,5.3-1.2,6.4-4.3
	l7.9-21.2h-5.4L180.8,101.4z M202.6,96c-3-0.7-5.9-1-5.9-2.8c0-1.5,1.7-1.7,2.9-1.7c1.8,0,3.4,0.5,3.5,2.5h4.9c-0.4-4.6-4.2-6-8.3-6
	c-4,0-8.2,1.2-8.2,6.1c0,3.3,3,4.4,6,5c3.7,0.8,5.9,1.3,5.9,2.9c0,1.8-1.9,2.4-3.4,2.4c-2,0-3.9-0.9-4-3.2l0,0h-4.9
	c0.2,5,4.5,6.6,8.9,6.6c4.3,0,8.6-1.6,8.6-6.6C208.6,97.8,205.6,96.7,202.6,96z M312.1,20c-6.5,10.5-16.6,20.1-36.2,27.5
	c-22.2,9.1-34.6,19.2-43.9,41.6c4-7.5,7-16.1,45.2-30.5c20.4-8.2,31.4-26.2,36-38.5L312.1,20L312.1,20z"/>
<path class="st1" d="M1,77.5h26.1v-6.2H10.9V54.8h14.4v-6.1H10.9V33.6h16.2v-6.2H1V77.5z M48.3,37.5c-6.6,0-11.7,1.7-14.4,3l2.2,5.1
	c2.6-1.2,6.5-2.4,10.5-2.4c4.9,0,8.3,1.4,8.3,6.5v2.1C42.2,53,31.5,55.9,31.5,66.3c0,7.6,5.7,11.9,17.2,11.9
	c6.5,0,11.8-1.2,15.2-2.8V51.1C63.8,40.9,57,37.5,48.3,37.5z M54.9,72.2c-1.4,0.7-3.5,1.1-5.7,1.1c-5.5,0-8.8-2.2-8.8-7.3
	c0-7.1,5.5-9,14.5-10l0,0V72.2z M85.8,54.6c-3.7-1.4-6.2-3-6.2-6.2c0-2.8,2.1-5.2,6-5.2c3,0,5.4,1.2,6.7,2.2l2.3-5.2
	c-2.7-1.7-6.2-2.8-10.9-2.8c-8,0-13.3,5.1-13.3,11.4c0,4.1,1.6,8.2,9.6,11c4.3,1.5,6.2,3.1,6.2,6.5c0,3.2-2.6,5.5-6.5,5.5
	c-3.4,0-6.3-1.1-7.9-2.3l-2.5,5.7C71.8,76.8,76,78,80.9,78c9.2,0,15-5.5,15-11.9C95.9,61.6,94,57.7,85.8,54.6z M114,66.9v-23h6.8
	v-5.7H114V27.1l-9.5,2.5v8.7h-4.7V44h4.7v23.4c0,5.5,3.3,10.6,11.5,10.6c2.3,0,4-0.4,4.8-0.8v-5.5c-0.8,0.2-1.4,0.4-2.3,0.4
	C115.3,72,114,69.9,114,66.9z M143,37.5c-11,0-17.9,7.4-17.9,20.2c0,13.3,7.6,20.5,19.5,20.5c6.4,0,10.9-1.2,13.9-2.8l-2.3-5.6
	c-2.2,1.1-5.7,2.2-10.6,2.2c-6.9,0-10.7-3.6-11.4-10.9l25.7-3.5C160.2,44.4,154.2,37.5,143,37.5z M133.6,56.6
	c-0.2-9.4,3.6-13.6,9.1-13.6c5.2,0,8.3,3.2,8.3,11.1L133.6,56.6z M166.4,40.4v37.1h9.5V44.4c2.2-1.2,5.7-1.3,8.9-0.3l1.8-6.5
	C176.1,37.3,170.8,38.4,166.4,40.4z M207.2,37.5c-7.1,0-12.5,1.1-16.4,2.8v37.1h9.5V44.2c1.8-0.7,3.4-1.1,6.5-1.1
	c6,0,7.5,3.4,7.5,6.6v27.8h9.5v-28C223.9,43.2,219.8,37.5,207.2,37.5z M270.3,65.7c-22.2,9.1-34.6,19.2-43.9,41.6
	c4-7.5,7-16.1,45.2-30.5c20.4-8.2,31.4-26.2,36-38.5h-1.2C300,48.7,289.9,58.3,270.3,65.7z M280.5,30c-20.8,8.5-32.5,18.1-41.2,39.1
	c3.7-7.1,6.6-15.2,42.5-28.7c21.4-8.6,31.8-28.7,35.2-40.1V0C311,11.5,301.6,22.1,280.5,30z"/>
</svg>
