<?xml version="1.0" encoding="utf-8"?>
<!-- Generator: Adobe Illustrator 28.0.0, SVG Export Plug-In . SVG Version: 6.00 Build 0)  -->
<svg version="1.1"
	 id="svg2" xmlns:dc="http://purl.org/dc/elements/1.1/" xmlns:cc="http://creativecommons.org/ns#" xmlns:rdf="http://www.w3.org/1999/02/22-rdf-syntax-ns#" xmlns:svg="http://www.w3.org/2000/svg"
	 xmlns="http://www.w3.org/2000/svg" xmlns:xlink="http://www.w3.org/1999/xlink" x="0px" y="0px" viewBox="0 0 1233.7 212.2"
	 style="enable-background:new 0 0 1233.7 212.2;" xml:space="preserve">
<style type="text/css">
	.st0{fill:#004C93;}
	.st1{fill:#DB001B;}
</style>
<g id="g10" transform="matrix(1.3333333,0,0,-1.3333333,0,212.2)">
	<g id="g12" transform="scale(0.1)">
		<path id="path14" class="st0" d="M1472.9,616.1c0,0-377.9,172.7-370.7,267.2c0.9,9.5,5.5,18.3,14.8,25.9
			c0,0,196.9,217,578.6,369.7c308,123.6,380.9,115.1,380.9,115.1c-5.4-141.4,86.1-252.8,233.4-304.2c0,0,577.3,183.8,903.2,210.2
			c393.3,32,536.2-114.5,536.2-114.5s326.8-18.9,435.3-85.9c0,0,13.9-11.1,13.2-16.8c-0.2-1.9-2.1-2.9-6.6-2.9
			c-18.1-0.3-78.1,12.8-165.7,3.4c-209.5-22.6-587-68.8-698.5-130.8c0,0-606-960.4-3326.9-946.6C0,5.9,842.2,189.5,1472.9,616.1"/>
		<path id="path16" class="st1" d="M2129.6,1556.4c24.2,1.4,80.6-8.2,92.7-40.6c0,0-88.5,52.9-1206.6-302.1
			C665,1102.8,136.5,1470.9,1.3,1586C1.3,1586,424.1,1474.5,2129.6,1556.4"/>
		<path id="path18" class="st0" d="M4894.9,1367.1h-1.7l-72.1-212.8h144.8L4894.9,1367.1z M4773.3,1021L4727,904.7h-184.4
			l257.4,669.2h189.9l251.9-669.2h-185.5l-43.5,116.3H4773.3"/>
		<path id="path20" class="st0" d="M5560.3,904.7h-173.9v522h-177.6v147.1h529.6v-147.1h-178.1V904.7"/>
		<path id="path22" class="st0" d="M5992.2,1052.1h208.7V904.7h-382.4v669h173.8V1052.1"/>
		<path id="path24" class="st0" d="M6623.3,1367.1h-1.9l-71.9-212.8h144.7L6623.3,1367.1z M6501.6,1021l-46.2-116.3h-184.6
			l257.5,669.2h189.6l252.2-669.2h-185.6l-43.5,116.3H6501.6"/>
		<path id="path26" class="st0" d="M7053.3,1573.9h174.2l318.3-409h1.7v409h174.2V904.7h-174.2l-318.5,409.8h-1.4V904.7h-174.2
			V1573.9"/>
		<path id="path28" class="st0" d="M8152.8,904.7h-174.2v522H7801v147.1h529.4v-147.1h-177.7V904.7"/>
		<path id="path30" class="st0" d="M8606.9,904.9h-173.8v669h173.8V904.9"/>
		<path id="path32" class="st0" d="M9227.9,1349.5c-35.4,47.7-93.2,73.4-152.9,73.4c-106.1,0-177.9-81.5-177.9-185.4
			c0-105.4,72.5-181.8,180.5-181.8c57.1,0,114,27.6,150.3,71.1V918.1c-57.8-17.8-99.3-31.1-153.4-31.1
			c-93.3,0-182.2,35.7-251.3,98.3c-73.7,66.8-107.6,153.8-107.6,253.1c0,91.4,34.7,179.3,98.7,244.8
			c65.6,67.7,160.7,108.3,254.8,108.3c55.6,0,107.3-12.3,158.8-33.5L9227.9,1349.5"/>
		<path id="path34" class="st0" d="M4894.9,479.8h-1.7l-72.1-213h144.8L4894.9,479.8z M4773.3,133.7L4727,17.6h-184.4l257.4,669
			h189.9l251.9-669h-185.5l-43.5,116.1H4773.3"/>
		<path id="path36" class="st0" d="M5560.3,17.6h-173.9v669h173.9V17.6"/>
		<path id="path38" class="st0" d="M5969,386.7h16.6c56.9,0,120.8,10.6,120.8,83.3c0,72.9-63.9,83.6-120.8,83.6H5969V386.7z
			 M6351.2,17.6h-216.5l-164,257.2h-1.7V17.6h-174v669h259.9c132.3,0,232.6-63.2,232.6-205.9c0-92.2-51.7-172.1-146.5-189.1
			L6351.2,17.6"/>
		<path id="path40" class="st0" d="M6681,254.4h1.8l140.4,432.3h138.3l131.1-432.3h1.9l126,432.3h180.9l-213.8-669h-177.5
			l-117.2,387.6h-1.7L6760,17.6h-176.5l-199.7,669h180.8L6681,254.4"/>
		<path id="path42" class="st0" d="M7758.3,479.8h-1.7l-71.8-213h144.6L7758.3,479.8z M7636.9,133.7l-46.4-116.1h-184.3l257,669h190
			l251.9-669h-185.6l-43.4,116.1H7636.9"/>
		<path id="path44" class="st0" d="M8061.3,686.7h208.5l125.1-181.9L8520,686.7h208.8l-246.9-347.8V17.6h-173.6v321.2L8061.3,686.7"
			/>
		<path id="path46" class="st0" d="M9156,514.4c-32,26.6-72.8,44.3-115.5,44.3c-31.8,0-74.3-18.6-74.3-55.8
			c0-39.2,46.8-54.1,77-63.9l44.4-13.4c93.4-27.4,165-74.5,165-182.7c0-66.5-15.8-134.8-68.9-180.2C9131.2,18.6,9061,0,8993.4,0
			c-84.1,0-166.7,28.2-234.8,76.1l74.3,140.3c43.7-38.5,94.8-69.2,154.6-69.2c40.8,0,84.1,20.4,84.1,67.4
			c0,48.8-68.3,65.8-105.5,76.3c-109.2,31-181.1,59.5-181.1,188.9c0,135.8,96.8,224.7,230.7,224.7c67.5,0,150-21.5,209.5-55.3
			L9156,514.4"/>
	</g>
</g>
</svg>
