<?xml version="1.0" encoding="utf-8"?>
<!-- Generator: Adobe Illustrator 21.0.0, SVG Export Plug-In . SVG Version: 6.00 Build 0)  -->
<svg version="1.1" id="Layer_1" xmlns="http://www.w3.org/2000/svg" xmlns:xlink="http://www.w3.org/1999/xlink" x="0px" y="0px"
	 viewBox="0 0 434.8 174.3" style="enable-background:new 0 0 434.8 174.3;" xml:space="preserve">
<style type="text/css">
	.st0{clip-path:url(#SVGID_2_);fill:#72CDF4;}
	.st1{clip-path:url(#SVGID_2_);fill:#00539B;}
</style>
<g>
	<defs>
		<rect id="SVGID_1_" width="434.8" height="174.3"/>
	</defs>
	<clipPath id="SVGID_2_">
		<use xlink:href="#SVGID_1_"  style="overflow:visible;"/>
	</clipPath>
	<path class="st0" d="M274.9,109.2c-22.5,10.9-38.8,33.5-37.3,49.9C149,132.8,66.5,142.7,6.7,172.5c-3.5,1.7-6.7,1.4-1.2-1.8
		C66.1,134.9,182.6,103.2,274.9,109.2"/>
	<path class="st1" d="M434.8,75.6l-3.2,14.9c0,0-0.9,6.7-5.7,9.2c-4.7,2.5-12.5,2.4-12.5,2.4h-83.7l5-23.4
		c-8.3,18.2-29.9,26.8-68.2,26.8c-18.6,0-37.8-1.6-48.4-9.7l1.3,6.2h-41.4l-1.7-11.3h-40.6l-6.6,11.3H87.8l54.5-85.4
		c0,0,5.4-8.8,9.6-10.9c4.8-2.4,13.6-2.3,13.6-2.3h33.1l14.7,68.9h44.6c-0.6,3.3,0.2,5.5,2.6,7c2.6,1.4,6.7,2.1,12.8,2.1
		c12.2,0,16.2-3.3,17.2-8c0.6-2.9-0.6-5.8-5.6-6.6l-43.1-6.6c-18.4-2.9-24-14-21-27.8C226.2,6.9,252.6,0,284.7,0
		c43.9,0,59.6,11.5,56.5,32.3h-45.3c0.9-4-1-6.5-4.3-7.9c-3.1-1.5-7.4-2.1-11.7-2.1c-11.6,0-16.2,2.9-17.1,7c-0.6,2.8,0.3,4.6,4,5.1
		l45.1,6.9c15.9,2.4,25.6,9.2,26.3,21.2l12.6-59.1h39l-15.3,72.1H434.8z M193.4,52.2c0,0-12.8-6.1-28.4-5.2
		c-23.6,1.4-31.7,16.1-31.7,16.1s10-7,28.3-6.1c12.7,0.6,20,5.3,20,5.3s1.7-5.3,4.7-7.5C189.3,52.6,193.4,52.2,193.4,52.2"/>
	<path class="st1" d="M292.2,111.2h4.4l3.3,20.9h-4.7l-0.7-4.6h-8.8l-3.1,4.6h-4.9L292.2,111.2z M294,123.4l-0.9-6.8l-4.6,6.8H294z"
		/>
	<polygon class="st1" points="308.2,111.4 312.7,111.4 307.2,132.1 302.6,132.1 	"/>
	<path class="st1" d="M317.9,111.4h7.6c3.1,0,5.2,0.7,6.6,2.1c1,1,1.6,2.5,1.6,4.2c0,3.7-2.3,6.4-6.7,7.4l3.5,7.1h-5.2l-3.2-6.6
		h-3.4l-1.8,6.6h-4.6L317.9,111.4z M323.9,121.5c2.8,0,5-1.2,5-3.4c0-0.7-0.2-1.2-0.7-1.7c-0.6-0.6-1.6-0.9-3-0.9h-3.8l-1.6,6H323.9
		z"/>
	<polygon class="st1" points="339.5,111.4 344,111.4 339.6,128 349.9,128 348.8,132.1 333.9,132.1 	"/>
	<polygon class="st1" points="358.2,111.4 362.8,111.4 357.2,132.1 352.6,132.1 	"/>
	<polygon class="st1" points="368,111.4 372.2,111.4 378.2,124.6 381.8,111.4 386.3,111.4 380.7,132.1 376.8,132.1 370.5,118.5 
		366.9,132.1 362.4,132.1 	"/>
	<polygon class="st1" points="391.2,111.4 406.7,111.4 405.6,115.5 394.7,115.5 393.5,119.7 403.2,119.7 402.1,123.7 392.4,123.7 
		391.3,128.1 402.4,128.1 401.3,132.1 385.7,132.1 	"/>
	<path class="st1" d="M404.7,128.6l3.4-2.9c1.6,1.8,3.4,2.7,5.8,2.7c1.8,0,3.2-0.9,3.2-2.2c0-1-0.7-1.6-3.5-2.7
		c-2.7-1.1-5.1-2.5-5.1-5.6c0-4.2,3.8-6.8,8.2-6.8c3.6,0,6,1.2,7.8,3.1l-3.1,3.1c-1.6-1.4-3-2.2-5-2.2c-1.9,0-3,1.1-3,2.1
		c0,1.1,0.8,1.6,3.6,2.7c2.8,1.2,5,2.6,5,5.6c0,4.4-3.9,6.9-8.2,6.9C409.7,132.4,406.7,131.1,404.7,128.6"/>
	<polygon class="st0" points="267.6,140 283.3,140 282.2,144.1 271,144.1 269.8,148.5 279.7,148.5 278.6,152.7 268.7,152.7 
		266.6,160.7 262,160.7 	"/>
	<path class="st0" d="M287.2,140h7.6c3.1,0,5.2,0.7,6.6,2.1c1,1,1.6,2.5,1.6,4.2c0,3.7-2.3,6.4-6.7,7.4l3.5,7.1h-5.2l-3.2-6.6H288
		l-1.8,6.6h-4.6L287.2,140z M293.1,150.1c2.8,0,5-1.2,5-3.4c0-0.7-0.2-1.2-0.7-1.7c-0.6-0.6-1.6-0.9-3-0.9h-3.8l-1.6,6H293.1z"/>
	<path class="st0" d="M315.3,139.8h4.4l3.3,20.9h-4.7l-0.7-4.6h-8.8l-3.1,4.6h-4.9L315.3,139.8z M317.1,152l-0.9-6.8l-4.6,6.8H317.1
		z"/>
	<polygon class="st0" points="331.1,140 335.3,140 341.3,153.2 344.9,140 349.4,140 343.8,160.7 339.9,160.7 333.7,147.1 330,160.7 
		325.5,160.7 	"/>
	<path class="st0" d="M350.4,152c0-6.6,5.6-12.4,12.6-12.4c4,0,6.6,1.7,8.3,4.4l-3.8,2.6c-1.2-1.7-2.6-2.8-5.1-2.8
		c-3.8,0-7.3,3.6-7.3,8c0,3,2.1,5,5.1,5c2,0,3.3-0.8,4.9-2l3,3.1c-2,1.8-4.4,3.2-7.8,3.2C354.5,161.1,350.4,157.6,350.4,152"/>
	<polygon class="st0" points="375.9,140 391.3,140 390.3,144 379.3,144 378.2,148.3 387.8,148.3 386.7,152.3 377.1,152.3 
		375.9,156.7 387,156.7 385.9,160.7 370.3,160.7 	"/>
</g>
</svg>
