<svg xmlns="http://www.w3.org/2000/svg" width="233" height="33" viewBox="0 0 233 32.2"><path d="M53.1 10.5c-1.3-3.1-6.5-1.4-6.5-1.4l-8.4 21.5h6l1.9-4.9h6.8l2.1 4.9h6c0-.1-6.6-17-7.9-20.1zm-5.7 10.6l2.3-5.7 1.8 5.7h-4.1z" fill="#009fe3"/><path d="M123.3 10.5c-1.3-3.1-6.5-1.4-6.5-1.4l-8.4 21.5h6l1.9-4.9h6.8l2.1 4.9h6.2c-.2-.1-6.8-17-8.1-20.1zm-5.8 10.6l2.3-5.7 1.8 5.7h-4.1z" fill="#0f3d87"/><path d="M61.4 8.6v21.9H67V11.3s.9-3-5.6-2.7z" fill="#009fe3"/><path d="M172.6 8.6v21.9h5.6V11.3c.1 0 .9-3-5.6-2.7z" fill="#0f3d87"/><path d="M82.8 21.5c4.2-1.9 3.7-6.2 3.7-6.2.1-9.7-16.3-6.1-16.3-6.1v21.3H76v-7.7h.8a266.38 266.38 0 0 0 3.9 6.2c2.2 3.6 7.3 1 7.3 1l-5.2-8.5zm-7-2.9v-5.7s4.9-.9 4.9 2.9-4.9 2.8-4.9 2.8z" fill="#009ee3"/><path d="M163.4 10.5c-1.3-3.1-6.5-1.4-6.5-1.4l-7.8 19.8-4.5-7.4c4.2-1.9 3.7-6.2 3.7-6.2.1-9.7-16.3-6.1-16.3-6.1v21.3h5.8v-7.7h.8a266.38 266.38 0 0 0 3.9 6.2c1.6 2.5 4.5 2 6.1 1.5h5.9l1.9-4.9h6.8l2.1 4.9h6.2c-.1 0-6.8-16.9-8.1-20zm-25.8 8.1v-5.7s4.9-.9 4.9 2.9-4.9 2.8-4.9 2.8zm20.1 2.5l2.3-5.7 1.8 5.7h-4.1z" fill="#0f3d87"/><path d="M106.6 24.1s4.2 3.8 1 5.3C104.5 31 96.4 34 91 25.2c0 0-3.5-10.4 4-15.2 0 0 6.1-4.1 13.8.8 0 0 1.3 2.5-2 4.5 0 0-1.9-2.3-5.9-2.2-4 .2-4.9 5.2-4.8 6.6s.2 6 5.3 6.6c.1.1 2.7.8 5.2-2.2z" fill="#0e3d87"/><path d="M195.4 18.8c2.3-1.7 2.1-4.4 2.1-4.4-.1-8.3-16.1-5.3-16.1-5.3v21.6s8.9.2 11.4 0 5.8-2.8 5.8-6.8c0-4.1-3.2-5.1-3.2-5.1zm-8.2-6.2s4.4-.9 4.5 2.4-4.5 2.4-4.5 2.4v-4.8zm0 13.6v-4.8s5.3-.9 5.4 2.4c.2 3.3-5.4 2.4-5.4 2.4z" fill="#214184"/><path d="M4 25.4s11.8 1.7 16.2 6.9l2.4-1.7c0-.1-7.6-8.6-18.6-5.2z" fill="#009fe3"/><path d="M20.4 28.6s8-6.1 16.2-2.8c0 0-6.8-.4-14 4.8l-2.2-2z" fill="#f9b000"/><linearGradient id="A" gradientUnits="userSpaceOnUse" x1="27.052" y1="12.37" x2="31.036" y2="13.82"><stop offset=".25" stop-color="#55b031"/><stop offset="1" stop-color="#c5d300"/></linearGradient><path d="M23.1 23.1l8.2-21.4s.8 10.3-1.2 14.2c0 0-.9 2.3-3.9 4.1.1 0-1.8 1.1-3.1 3.1z" fill="url(#A)"/><g fill="#0e3d87"><circle cx="172.4" cy="4.1" r="2.3"/><circle cx="177.7" cy="4.1" r="2.3"/></g><path d="M200.2 8.6v22h15.4s1.1-4.3-2.6-4.2h-7.1v-4.7h7.1v-4.5h-7.1v-3.9h6.7s3 .8 2.8-4.7h-15.2z" fill="#204284"/><path d="M28.4 17.9L24 20.8l.2-.4 4.2-2.5zm.5-1.2l-4.4 2.9.2-.4c0-.1 2.8-1.9 4.2-2.5zm.5-1.5L25 18.1l.2-.4 4.2-2.5zm.6-1.6l-4.4 3 .2-.4 4.2-2.6zm.2-1.3l-4.1 3.2.2-.4c-.1 0 1.8-1.5 3.9-2.8zm.1-1.1l-3.7 2.9.2-.4 3.5-2.5zm-.3-1l-2.8 2.4.2-.4s1.1-1 2.6-2zm.5-1.3l-2.8 2.4.2-.4c0-.1 1.2-1.1 2.6-2zm0-1.5s-1.7 1.5-2.1 2.2l.2-.4c0-.1.7-.9 1.9-1.8zm.2-1.1l-1.8 1.8.2-.4s.3-.4 1.6-1.4z" fill="#2ba937"/><linearGradient id="B" gradientUnits="userSpaceOnUse" x1="32.779" y1="15.816" x2="35.967" y2="18.61"><stop offset=".25" stop-color="#55b031"/><stop offset="1" stop-color="#c5d300"/></linearGradient><path d="M25.2 24.4L40.6 7.5s-3 9.9-6.2 12.8c0 0-1.7 1.8-5.1 2.4 0 0-2.2.2-4.1 1.7z" fill="url(#B)"/><path d="M32 21.4s-4.5.7-5.1 1.1l.3-.3 4.8-.8zm.9-.9s-4.5.7-5.1 1.1l.3-.3 4.8-.8zm1.1-1.2s-4.5.7-5.1 1.1l.3-.3 4.8-.8zm1.1-1.3s-4.5.8-5.2 1.2l.3-.3c0 .1 3.4-.7 4.9-.9zm.6-1.1l-5 1.5.3-.3 4.7-1.2zm.6-1l-4.5 1.4.3-.3c0-.1 2.5-.8 4.2-1.1zm0-1s-2.8.8-3.5 1.2l.3-.3s1.5-.6 3.2-.9zm1-1.1s-2.8.8-3.5 1.2l.3-.3s1.6-.6 3.2-.9zm.5-1.4L35 13.6l.3-.3c.1 0 1.1-.5 2.5-.9zm.6-1s-1.7.7-2.3 1.1l.3-.3s.4-.2 2-.8zm-7.1-6.7l-1.8 1.8.2-.4s.3-.2 1.6-1.4zm-.2-1s-.4.6-.9 1.2l.2-.4c0-.1.4-.5.7-.8z" fill="#2ba937"/><linearGradient id="C" gradientUnits="userSpaceOnUse" x1="20.097" y1="11.452" x2="24.337" y2="11.37"><stop offset=".25" stop-color="#55b031"/><stop offset="1" stop-color="#c5d300"/></linearGradient><path d="M20.3 22.9V0s4.4 9.3 4 13.7c0 0-.1 2.5-2.1 5.2 0 0-1.5 1.6-1.9 4z" fill="url(#C)"/><path d="M23.3 16.1s-2.8 3.5-3 4.3V20c0-.1 2-2.8 3-3.9zm0-1.3s-2.8 3.5-3 4.3v-.4c0-.1 2-2.8 3-3.9zm0-1.6s-2.8 3.5-3 4.3v-.4l3-3.9zm0-1.6l-3 4.4v-.4c0-.1 2-3 3-4zm-.3-1.3s-2.5 3.7-2.7 4.5v-.4c0-.1 1.3-2.2 2.7-4.1zm-.3-1.1l-2.4 4v-.4l2.4-3.6zm-.6-.8l-1.8 3.2v-.4s.8-1.4 1.8-2.8zm0-1.5l-1.8 3.2v-.4s.8-1.4 1.8-2.8zm-.6-1.3s-1 2-1.2 2.8V8c0-.1.4-1.2 1.2-2.4zm-.2-1.2s-.8 1.6-1 2.4v-.4s.2-.5 1-2zm0-1.7s-.8 1.6-1 2.4v-.4s.2-.3 1-2zm-.6-.8l-.4 1.4v-.4c0-.1.3-.6.4-1z" fill="#2ba937"/><linearGradient id="D" gradientUnits="userSpaceOnUse" x1="13.596" y1="12.37" x2="9.612" y2="13.82"><stop offset=".25" stop-color="#55b031"/><stop offset="1" stop-color="#c5d300"/></linearGradient><path d="M17.5 23.1L9.3 1.8S8.5 12.1 10.5 16c0 0 .9 2.3 3.9 4.1-.1-.1 1.9 1 3.1 3z" fill="url(#D)"/><path d="M12.2 17.9l4.4 2.9-.2-.4s-2.8-1.9-4.2-2.5zm-.4-1.2l4.4 2.9-.2-.5-4.2-2.4zm-.6-1.5l4.4 2.9-.2-.4-4.2-2.5zm-.5-1.6l4.4 3-.2-.4c-.1 0-2.9-1.9-4.2-2.6zm-.3-1.3s3.7 2.6 4.1 3.2l-.2-.4c.1 0-1.8-1.5-3.9-2.8zm-.1-1.1l3.7 2.9-.2-.4c.1 0-2-1.6-3.5-2.5zm.4-1l2.8 2.4-.2-.4-2.6-2zm-.6-1.3l2.8 2.4-.2-.4c.1-.1-1.2-1.1-2.6-2zm0-1.5s1.7 1.5 2.1 2.2l-.2-.4c.1-.1-.6-.9-1.9-1.8zm-.2-1.1l1.8 1.8-.2-.4c.1 0-.3-.4-1.6-1.4z" fill="#2ba937"/><linearGradient id="E" gradientUnits="userSpaceOnUse" x1="7.87" y1="15.816" x2="4.682" y2="18.61"><stop offset=".25" stop-color="#55b031"/><stop offset="1" stop-color="#c5d300"/></linearGradient><path d="M15.4 24.4L0 7.5s3 9.9 6.2 12.8c0 0 1.7 1.8 5.1 2.4 0 0 2.2.2 4.1 1.7z" fill="url(#E)"/><path d="M8.6 21.4s4.5.7 5.1 1.1l-.3-.3-4.8-.8zm-.9-.9s4.5.7 5.1 1.1l-.3-.3-4.8-.8zm-1-1.2s4.5.7 5.1 1.1l-.3-.3-4.8-.8zM5.6 18s4.5.8 5.2 1.2l-.4-.2-4.8-1zm-.7-1.1l5 1.5-.3-.3-4.7-1.2zm-.5-1l4.5 1.4-.3-.3c0-.1-2.5-.8-4.2-1.1zm0-1s2.8.8 3.5 1.2l-.3-.3c-.1 0-1.5-.6-3.2-.9zm-1-1.1s2.8.8 3.5 1.2l-.3-.3c-.1 0-1.6-.6-3.2-.9zm-.6-1.4l2.8 1.2-.3-.3s-1-.5-2.5-.9zm-.6-1s1.7.7 2.3 1.1l-.3-.3c.1 0-.4-.2-2-.8zm7.1-6.7l1.8 1.8-.2-.4s-.3-.2-1.6-1.4zm.3-1a15.91 15.91 0 0 0 .9 1.2l-.2-.4c0-.1-.5-.5-.7-.8z" fill="#2ba937"/><linearGradient id="F" gradientUnits="userSpaceOnUse" x1="20.552" y1="11.452" x2="16.313" y2="11.371"><stop offset=".25" stop-color="#55b031"/><stop offset="1" stop-color="#c5d300"/></linearGradient><path d="M20.3 22.9V0s-4.4 9.3-4 13.7c0 0 .1 2.5 2.1 5.2.1 0 1.5 1.6 1.9 4z" fill="url(#F)"/><path d="M17.3 16.1s2.8 3.5 3 4.3V20c0-.1-2-2.8-3-3.9zm0-1.3s2.8 3.5 3 4.3v-.4c0-.1-2-2.8-3-3.9zm0-1.6s2.8 3.5 3 4.3v-.4l-3-3.9zm.1-1.6l3 4.4v-.4c-.1-.1-2-3-3-4zm.2-1.3s2.5 3.7 2.7 4.5v-.4c0-.1-1.2-2.2-2.7-4.1zm.3-1.1l2.4 4v-.4s-1.3-2.3-2.4-3.6zm.7-.8l1.8 3.2v-.4c-.1 0-.8-1.4-1.8-2.8zm0-1.5l1.8 3.2v-.4c-.1 0-.8-1.4-1.8-2.8zm.5-1.3s1 2 1.2 2.8V8c0-.1-.4-1.2-1.2-2.4zm.2-1.2s.8 1.6 1 2.4v-.4s-.1-.5-1-2zm0-1.7s.8 1.6 1 2.4v-.4s-.2-.3-1-2zm.6-.8l.4 1.4v-.4c0-.1-.3-.6-.4-1z" fill="#2ba937"/><path d="M218.5 24.4s6.9 3.9 8.4.8c0 0 2.1-2.5-4.1-4 0 0-7.8-.9-6.1-7.9s12.4-4.5 13-4.2 5.4 1.5 1 5.9c0 0-7.6-5.1-8.3-.4 0 0-.3 1.5 6.4 3.6 0 0 7.8 3.2 2.1 10.6 0 0-2.8 4.3-12.5 1.2.1.1-4.4-1.2.1-5.6z" fill="#0f3d87"/></svg>