<svg width="280" height="33" viewBox="0 0 280 33" fill="none" xmlns="http://www.w3.org/2000/svg">
<path d="M181.195 10.9388C176.617 10.9388 174.404 12.6902 174.22 15.9779H178.737C178.798 15.1175 179.29 14.4725 181.195 14.4725C182.885 14.4725 183.684 15.0254 183.684 15.8551C183.684 16.5925 183.223 16.869 182.086 16.9918L179.136 17.299C175.142 17.7293 173.329 19.3886 173.329 22.3998C173.329 25.1959 175.05 27.3466 178.706 27.3466C181.195 27.3466 182.67 26.5478 183.96 24.9499V26.8858H188.201V16.7153C188.201 12.4445 185.712 10.9388 181.195 10.9388ZM183.776 20.8636C183.776 22.5534 182.178 23.8132 179.72 23.8132C178.522 23.8132 177.815 23.2601 177.815 22.2153C177.815 21.4165 178.307 20.7405 179.873 20.5255L182.547 20.1567C183.008 20.0954 183.499 20.0031 183.776 19.9109V20.8636ZM166.262 17.1761C170.195 17.6986 172.161 18.9276 172.161 22.1539C172.161 25.411 169.857 27.3467 164.971 27.3467C159.656 27.3467 157.781 25.2267 157.689 22.123H162.267C162.391 23.2601 163.189 23.8132 164.971 23.8132C166.784 23.8132 167.522 23.3829 167.522 22.5227C167.522 21.7238 166.907 21.3552 165.309 21.1401L163.681 20.9248C160.27 20.464 158.304 19.1428 158.304 16.0701C158.304 13.1203 160.485 10.9387 165.064 10.9387C169.304 10.9387 171.578 12.6286 171.793 15.9779H167.276C167.122 15.087 166.63 14.5338 165.064 14.5338C163.527 14.5338 162.943 15.0562 162.943 15.7322C162.943 16.408 163.312 16.7768 164.633 16.9612L166.262 17.1761ZM150.39 10.9387C154.416 10.9387 156.474 12.7207 156.474 17.8214V26.8858H151.835V18.0364C151.835 15.9779 150.944 15.0562 149.008 15.0562C147.256 15.0562 146.212 15.9779 146.212 18.0364V26.8858H141.572V11.3996H145.935V13.1818C146.58 11.9834 147.902 10.9387 150.39 10.9387ZM132.656 10.9388C128.078 10.9388 125.866 12.6902 125.681 15.9779H130.198C130.26 15.1175 130.751 14.4722 132.656 14.4722C134.346 14.4722 135.145 15.0254 135.145 15.8549C135.145 16.5925 134.684 16.869 133.547 16.9918L130.598 17.299C126.603 17.7291 124.79 19.3885 124.79 22.3998C124.79 25.1959 126.511 27.3466 130.167 27.3466C132.656 27.3466 134.131 26.5478 135.422 24.9499V26.8858H139.662V16.7153C139.662 12.4443 137.173 10.9388 132.656 10.9388ZM135.237 20.8633C135.237 22.5533 133.639 23.8132 131.181 23.8132C129.983 23.8132 129.276 23.2601 129.276 22.2153C129.276 21.4165 129.768 20.7405 131.335 20.5255L134.008 20.1567C134.469 20.0951 134.961 20.0031 135.237 19.9109V20.8633ZM117.416 10.9387C121.349 10.9387 123.408 12.7207 123.408 17.8214V26.8858H118.768V18.0364C118.768 15.9779 117.877 15.0562 115.941 15.0562C114.19 15.0562 113.145 15.9779 113.145 18.0364V26.8858H108.505V5.40788H113.176V12.9051C113.975 11.7682 115.234 10.9387 117.416 10.9387ZM103.61 11.3996H107.144V15.1789H103.61V21.2014C103.61 22.8607 104.47 23.2908 105.822 23.2908C106.375 23.2908 107.144 23.1987 107.144 23.1987V26.9165C107.144 26.9165 106.068 27.1622 104.931 27.1622C101.213 27.1622 98.9703 25.4724 98.9703 21.7238V15.1789H96.6351V11.3996H98.9703V6.88279H103.61V11.3996ZM87.3865 10.8158C87.3865 7.06725 89.7526 5.06984 93.4704 5.06984C94.6689 5.06984 95.437 5.25423 95.437 5.25423V9.00281C95.437 9.00281 94.7918 8.94158 94.2385 8.94158C92.7944 8.94158 92.0261 9.43319 92.0261 10.7851V11.3996H95.437V15.1789H92.0261V26.8858H87.3865V15.1789H85.0514V11.3996H87.3865V10.8158ZM79.1824 11.3996H83.8221V26.8858H79.459V25.1036C78.8137 26.302 77.4926 27.3466 75.065 27.3466C71.1015 27.3466 69.0428 25.5645 69.0428 20.4639V11.3996H73.6824V20.2487C73.6824 22.3075 74.5736 23.2292 76.4479 23.2292C78.1378 23.2292 79.1824 22.3075 79.1824 20.2487V11.3996ZM58.7492 22.5533H67.9979V26.8858H53.7715V5.37715H58.7492V22.5533ZM16.1315 0C7.21081 0 0 7.21073 0 16.1314C0 25.0522 7.21081 32.263 16.1315 32.263C25.0522 32.263 32.263 25.0522 32.263 16.1314C32.263 7.21073 25.0522 0 16.1315 0ZM16.1315 31.295C7.75925 31.295 0.967885 24.5036 0.967885 16.1314C0.967885 7.75925 7.75925 0.96782 16.1315 0.96782C24.5037 0.96782 31.2951 7.75925 31.2951 16.1314C31.2951 24.5036 24.5037 31.295 16.1315 31.295ZM22.3864 12.9237C22.2638 12.9237 22.1606 12.9269 22.1026 12.9334C22.0348 13.056 21.9348 13.2205 21.7864 13.4495C24.0961 13.4495 26.193 13.6398 28.5123 14.056L27.8575 14.6882C25.764 14.3173 24.0251 14.1689 21.809 14.1689C21.4864 14.1689 21.4187 14.1689 21.3413 14.1721C21.2638 14.2882 21.0896 14.514 20.9155 14.7238C21.1122 14.7109 21.4929 14.7044 22.0186 14.7044C23.8413 14.7044 25.5445 14.8399 27.393 15.1367L26.7381 15.7722C25.3316 15.5528 23.6122 15.427 22.0702 15.427C21.5219 15.427 20.8993 15.4463 20.3412 15.4786C20.2154 15.6237 19.8864 15.9786 19.7864 16.0883C20.5251 16.0109 21.338 15.9754 22.3058 15.9754C23.6832 15.9754 24.9994 16.0657 26.2446 16.2496L25.5897 16.8786C24.7026 16.769 23.6251 16.7045 22.6735 16.7045C20.2187 16.7045 18.2831 17.2367 16.283 18.4593C18.1895 20.5045 21.3122 21.7981 24.3381 21.7981H24.6219L23.5639 22.8207C19.1992 22.0013 14.6056 20.0819 10.7249 17.4528C6.99258 14.9334 5.68612 14.1883 2.77317 12.9012L2.75383 12.1527L4.72481 12.9979L5.3958 12.4656L11.8314 15.4141L11.412 15.7495L8.10874 14.3141L7.78293 14.5689L9.49912 15.527C10.9475 16.3335 12.0507 16.6948 13.0702 16.6948C15.2992 16.6948 17.2993 15.1141 18.5896 12.3366C19.5606 12.2108 20.5961 12.1527 21.8412 12.1527C24.3961 12.1527 26.8768 12.3979 29.6865 12.9237L29.0026 13.585C27.2543 13.2205 24.2832 12.9237 22.3864 12.9237ZM201.95 16.1314C201.95 11.8604 203.64 9.341 207.635 9.341C210.861 9.341 212.336 10.5086 212.951 12.6899H218.112C217.406 8.11186 214.364 4.91642 207.635 4.91642C199.799 4.91642 196.788 9.67881 196.788 16.1314C196.788 22.5841 199.799 27.3468 207.635 27.3468C214.364 27.3468 217.406 24.1509 218.112 19.5726H212.951C212.336 21.7547 210.861 22.9223 207.635 22.9223C203.64 22.9223 201.95 20.4024 201.95 16.1314ZM229.42 20.8632C229.42 22.5534 227.822 23.8134 225.364 23.8134C224.165 23.8134 223.459 23.2598 223.459 22.2153C223.459 21.4165 223.95 20.7403 225.517 20.5254L228.191 20.1563C228.651 20.0954 229.143 20.0031 229.42 19.9108V20.8632ZM229.604 26.8858H233.844V16.7154C233.844 12.4445 231.355 10.9387 226.838 10.9387C222.26 10.9387 220.048 12.6899 219.864 15.9776H224.38C224.442 15.1175 224.933 14.4721 226.838 14.4721C228.528 14.4721 229.327 15.0254 229.327 15.8549C229.327 16.5922 228.866 16.8687 227.73 16.9919L224.78 17.2991C220.785 17.7291 218.972 19.3884 218.972 22.3999C218.972 25.1955 220.693 27.3468 224.349 27.3468C226.838 27.3468 228.313 26.548 229.604 24.9496V26.8858ZM243.339 15.3327C243.953 15.3327 244.598 15.3636 245.305 15.4555V11C245.12 10.9694 244.629 10.9387 244.445 10.9387C242.109 10.9387 240.819 11.9831 240.204 13.1816H240.174V11.3998H235.811V26.8858H240.45V18.1595C240.45 16.1625 241.679 15.3327 243.339 15.3327ZM257.517 18.3131C257.517 20.4335 256.288 21.5697 254.045 21.5697C251.771 21.5697 250.573 20.4335 250.573 18.3131C250.573 16.1931 251.771 15.0562 254.045 15.0562C256.288 15.0562 257.517 16.1931 257.517 18.3131ZM262.034 25.5643V11.3998H257.67V12.6286C256.687 11.5839 255.212 10.9387 253.123 10.9387C248.146 10.9387 245.902 13.7963 245.902 18.2821C245.902 22.83 248.146 25.6876 253.123 25.6876C255.028 25.6876 256.441 25.1346 257.394 24.274V25.7798C257.394 27.9611 256.349 28.8523 253.983 28.8523C251.74 28.8523 250.788 28.2379 250.604 26.7322H246.087C246.394 30.7877 248.822 32.7545 253.983 32.7545C259.514 32.7545 262.034 30.4499 262.034 25.5643ZM275.299 19.1426C275.299 21.662 274.193 23.2293 271.673 23.2293C269.154 23.2293 268.047 21.662 268.047 19.1426C268.047 16.6231 269.154 15.0562 271.673 15.0562C274.193 15.0562 275.299 16.6231 275.299 19.1426ZM280 19.1426C280 14.1957 277.573 10.9387 271.673 10.9387C265.774 10.9387 263.346 14.1957 263.346 19.1426C263.346 24.0895 265.774 27.3468 271.673 27.3468C277.573 27.3468 280 24.0895 280 19.1426Z" fill="#05164D"/>
</svg>
