<svg class="header-logo" xmlns="http://www.w3.org/2000/svg" viewBox="0 0 199.56 65.78"><g id="Layer_2" data-name="Layer 2"><g id="Layer_1-2" data-name="Layer 1"><path class="cls-1" d="M98.89,9.94H87.35c-20.72,0,17.41,5-16.86,5h-13A.64.64,0,0,1,57,13.86c3.86-4,11.68-6.62,20.31-6.62H98.28A19.74,19.74,0,0,0,109.85,3.6c2.31-1.67,3-3-3.12-3-7.29,0-16.39.26-32.87.26-68,0-44.6,24-45.42,20.54-2.61-11,29.55,9.19,41.71,4.21C81.63,20.85,107,9.94,98.89,9.94"></path><path class="cls-2" d="M169.68,0a.33.33,0,0,0-.32.52c1.28,2.69-25.53,13-30.11,16-1.59,1.06-1.83.88-.56-.41C142.56,12.22,167.21,0,161.47,0h-12.2a.34.34,0,0,0-.35.48c1.14,2.58-28.78,13.4-33.11,15.92-1,.58-1.15.45-.35-.29,4-3.65,30.39-16.11,23.1-16.11H118.45c-.58,0-.65.27-.21.65,4,3.43-24.9,19.08-48,27.18-1.16.41-1.11.72.12.71,12.18-.1,28.39-.33,40-.33,1.75,0,3.47,0,5.16-.07l2.24-.07c46.59-1.81,68-21.51,70.74-27.19C188.93,0,189.59,0,169.68,0"></path><path class="cls-2" d="M15.46,41.51l-2.05,2.13a6.15,6.15,0,0,0-4.17-1.58C6.42,42.06,4,44.19,4,49.55S5.61,57,8.72,57a6.29,6.29,0,0,0,3.17-.78V51.07h-3l-.4-2.82h7.14V58a13.22,13.22,0,0,1-6.85,2C3.11,59.94,0,56.37,0,49.55S4.14,39.18,9.12,39.18a9.22,9.22,0,0,1,6.34,2.33"></path><path class="cls-2" d="M31.76,53H22.2c.26,3.11,1.73,4.12,3.74,4.12a6.34,6.34,0,0,0,3.8-1.36l1.53,2.1a8.77,8.77,0,0,1-5.65,2c-4.72,0-7.25-3.14-7.25-7.95,0-4.63,2.45-8.14,6.76-8.14s6.71,2.87,6.71,7.68c0,.49-.06,1.1-.08,1.5m-3.57-2.56c0-2.51-.9-4-3-4-1.73,0-2.82,1.15-3,4.17h6Z"></path><path class="cls-2" d="M48.51,51.88c0,4.81-2.67,8.06-7.17,8.06s-7.16-3-7.16-8.06c0-4.78,2.67-8,7.19-8s7.14,3,7.14,8m-10.45,0c0,3.65,1.13,5.27,3.28,5.27s3.29-1.64,3.29-5.27-1.13-5.24-3.26-5.24-3.31,1.64-3.31,5.24"></path><path class="cls-2" d="M61,44.08l-.63,3.57A4.79,4.79,0,0,0,59,47.47c-1.85,0-2.8,1.36-3.37,3.92v8.12H51.91V44.28h3.2l.34,3c.72-2.19,2.19-3.4,4-3.4a5.08,5.08,0,0,1,1.52.21"></path><path class="cls-2" d="M76.13,45.08a13.55,13.55,0,0,1-4.41.52,4,4,0,0,1,2.76,3.92c0,3-2.3,5.12-6.13,5.12a6.19,6.19,0,0,1-1.81-.23,1.36,1.36,0,0,0-.63,1.12c0,.55.31,1.07,1.84,1.07h2.33c3.37,0,5.56,1.81,5.56,4.32,0,3-2.62,4.86-7.6,4.86-5.42,0-6.94-1.72-6.94-4.78h3.31c0,1.53.66,2.19,3.68,2.19s3.83-.8,3.83-2-.89-1.82-2.59-1.82H67c-3.05,0-4.35-1.35-4.35-2.93a3.42,3.42,0,0,1,1.79-2.82,4.45,4.45,0,0,1-2.68-4.29c0-3.31,2.62-5.47,6.3-5.47a12.37,12.37,0,0,0,7.11-1.7ZM65.5,49.26c0,1.84,1,3,2.71,3s2.7-1.09,2.7-3-.92-2.88-2.76-2.88c-1.67,0-2.65,1.15-2.65,2.91"></path><path class="cls-2" d="M82.43,38.81a2.32,2.32,0,1,1-2.33-2.25,2.2,2.2,0,0,1,2.33,2.25M82,59.51H78.29V44.28H82Z"></path><path class="cls-2" d="M98.76,57.43,98,59.88a3.52,3.52,0,0,1-3.37-2.22,5.16,5.16,0,0,1-4.55,2.28c-3,0-4.92-1.93-4.92-4.69,0-3.31,2.5-5.1,6.94-5.1H94v-.86c0-2-.9-2.65-2.85-2.65a13.76,13.76,0,0,0-4,.8l-.87-2.5a15.69,15.69,0,0,1,5.53-1.09c4.06,0,5.85,1.87,5.85,5.24v6.39c0,1.23.4,1.67,1.15,2m-4.78-2V52.31H92.45c-2.39,0-3.57.86-3.57,2.65A2,2,0,0,0,91,57.26,3.25,3.25,0,0,0,94,55.39"></path><path class="cls-2" d="M114.45,48.48v11h-3.69V49.06c0-1.9-.72-2.45-1.87-2.45-1.32,0-2.3.89-3.19,2.3v10.6H102V44.28h3.2l.29,2a5.68,5.68,0,0,1,4.63-2.41c2.73,0,4.32,1.72,4.32,4.63"></path><polygon class="cls-2" points="142.95 59.51 139.76 59.51 135.96 42.61 132.13 59.51 129.02 59.51 124.9 39.7 127.38 39.7 130.69 57.29 134.63 39.7 137.31 39.7 141.34 57.29 144.76 39.7 147.07 39.7 142.95 59.51"></polygon><path class="cls-2" d="M153.46,38.89a1.71,1.71,0,1,1-1.72-1.67,1.63,1.63,0,0,1,1.72,1.67M153,59.51h-2.41V44.36H153Z"></path><path class="cls-2" d="M169.82,48.65V59.51H167.4V49c0-2.33-.92-3.08-2.48-3.08-1.78,0-3,1.12-4.06,2.79v10.8h-2.41V44.36h2.07l.2,2.31A5.7,5.7,0,0,1,165.47,44c2.79,0,4.35,1.75,4.35,4.63"></path><path class="cls-2" d="M187.18,45a16.29,16.29,0,0,1-4.38.46,4,4,0,0,1,2.65,3.89c0,3-2.13,5.09-5.7,5.09a5.82,5.82,0,0,1-1.93-.29,1.81,1.81,0,0,0-.83,1.5c0,.72.46,1.3,2.07,1.3h2.42c3.08,0,5.09,1.75,5.09,4.11,0,2.91-2.33,4.55-7,4.55-4.87,0-6.45-1.47-6.45-4.52h2.19c0,1.82.86,2.62,4.26,2.62s4.52-.89,4.52-2.47S183,59,181,59H178.6c-2.65,0-3.86-1.32-3.86-2.82a3.21,3.21,0,0,1,1.64-2.65,4.37,4.37,0,0,1-2.53-4.23c0-3.08,2.42-5.24,5.76-5.24,3.82.09,5.15-.49,6.85-1.27Zm-10.86,4.29c0,2.13,1.21,3.54,3.34,3.54S183,51.5,183,49.26s-1.12-3.48-3.36-3.48-3.29,1.46-3.29,3.48"></path><path class="cls-2" d="M199.16,45.75l-1.07,1.52A6.68,6.68,0,0,0,194.15,46c-1.79,0-2.91.83-2.91,2.13s.83,1.87,3.34,2.53c3.22.84,5,2,5,4.69,0,3.08-2.79,4.55-5.85,4.55a8.19,8.19,0,0,1-5.64-2l1.3-1.47a6.86,6.86,0,0,0,4.29,1.49c2,0,3.37-.92,3.37-2.44s-.78-2.16-3.75-3c-3.28-.86-4.57-2.21-4.57-4.34,0-2.39,2.3-4.12,5.35-4.12a7.94,7.94,0,0,1,5.1,1.73"></path></g></g></svg>