<svg xmlns="http://www.w3.org/2000/svg" width="132.044" height="34.658" viewBox="0 0 132.044 34.658">
  <g id="Logo" transform="translate(-202.962 -252.764)">
    <path id="Trazado_10098" data-name="Trazado 10098" d="M222.895,266.546a5.748,5.748,0,0,0,3.545-1.121,3.922,3.922,0,0,0,1.5-3.358,3.1,3.1,0,0,0-1.072-2.742,5.035,5.035,0,0,0-2.878-.74h-7.913l-1.667,7.961Zm-2.158,14.429a6.357,6.357,0,0,0,4.225-1.372,5.082,5.082,0,0,0,1.635-4.1,3.5,3.5,0,0,0-.551-2.1,3.594,3.594,0,0,0-1.4-1.167,5.653,5.653,0,0,0-1.9-.5c-.708-.057-1.388-.092-2.057-.092h-7.335l-2,9.331Zm3.623-28.211a28.958,28.958,0,0,1,4.624.338,9.478,9.478,0,0,1,3.472,1.209,5.846,5.846,0,0,1,2.2,2.434,9.05,9.05,0,0,1,.76,3.979,9.218,9.218,0,0,1-.423,2.8,7.89,7.89,0,0,1-1.264,2.43,7.65,7.65,0,0,1-2,1.789,6.771,6.771,0,0,1-2.692.906v.095a6.474,6.474,0,0,1,3.736,2.548,7.412,7.412,0,0,1,1.313,4.36,10.564,10.564,0,0,1-1.076,4.865,10.172,10.172,0,0,1-2.881,3.477,13,13,0,0,1-4.141,2.1,16.772,16.772,0,0,1-4.914.715H202.962l7.1-34.038Z" transform="translate(0 0)" fill="#5bac29"/>
    <path id="Trazado_10099" data-name="Trazado 10099" d="M260.686,266.252l-5.236,24.63h-6.765l5.185-24.63Z" transform="translate(-13.839 -4.082)" fill="#5bac29"/>
    <path id="Trazado_10100" data-name="Trazado 10100" d="M274.884,265.968l-.762,3.45h.091a10.536,10.536,0,0,1,8.632-4.1q7.191,0,7.194,6.619a6.72,6.72,0,0,1-.1.977c-.064.4-.135.8-.213,1.212s-.165.8-.244,1.169-.139.658-.162.877L286.275,290.6h-6.763l3-14.424c.052-.372.143-.881.259-1.519a8.605,8.605,0,0,0,.165-1.476,2.153,2.153,0,0,0-1.021-1.811,3.817,3.817,0,0,0-2.219-.712,5.824,5.824,0,0,0-2.692.594,6.641,6.641,0,0,0-2,1.545,8.553,8.553,0,0,0-1.379,2.191,12.256,12.256,0,0,0-.831,2.524L270.026,290.6H263.31l5.093-24.63Z" transform="translate(-18.265 -3.799)" fill="#5bac29"/>
    <path id="Trazado_10101" data-name="Trazado 10101" d="M320.2,263.009l-1.054,4.512h-4.812l-2.525,12.261-.14.683-.057.455a2,2,0,0,0,.225,1.031l.543.545.741.214.788.027a20.75,20.75,0,0,0,2.429-.144l-1.15,5.185c-.7.07-1.393.122-2.094.171s-1.413.072-2.139.072a12.944,12.944,0,0,1-2.363-.216,6.211,6.211,0,0,1-2.1-.76,4.1,4.1,0,0,1-1.477-1.5,4.6,4.6,0,0,1-.5-2.483,6.883,6.883,0,0,1,.095-1.072c.063-.4.141-.817.243-1.26l2.758-13.211h-4.429l1.046-4.512h4.34l1.522-7.473h6.765l-1.523,7.473Z" transform="translate(-30.334 -0.839)" fill="#5bac29"/>
    <path id="Trazado_10102" data-name="Trazado 10102" d="M344.46,273.769a4.713,4.713,0,0,0-.64-1.687,3.411,3.411,0,0,0-1.386-1.217,5.314,5.314,0,0,0-2.383-.457,6.879,6.879,0,0,0-2.522.432,6.407,6.407,0,0,0-1.909,1.144,6.66,6.66,0,0,0-1.358,1.667,12.5,12.5,0,0,0-.93,2h11.291a10.8,10.8,0,0,0-.162-1.879m-11.887,6.581v1a4.721,4.721,0,0,0,1.329,3.477,5.591,5.591,0,0,0,4.1,1.331,4.741,4.741,0,0,0,1.789-.307,5.4,5.4,0,0,0,1.383-.784,5.924,5.924,0,0,0,1.055-1.094c.3-.412.571-.809.83-1.191h6.762a17.05,17.05,0,0,1-1.905,3.674,10.521,10.521,0,0,1-2.623,2.648,10.817,10.817,0,0,1-3.547,1.6,18.639,18.639,0,0,1-4.7.523,14.324,14.324,0,0,1-4.5-.662,9.04,9.04,0,0,1-3.448-2.028,9.159,9.159,0,0,1-2.217-3.358,12.579,12.579,0,0,1-.786-4.667,17.212,17.212,0,0,1,.952-5.692,15.725,15.725,0,0,1,2.687-4.854A12.912,12.912,0,0,1,334,266.575a12.5,12.5,0,0,1,5.663-1.265,15.655,15.655,0,0,1,4.7.667,9.706,9.706,0,0,1,3.623,2.029,9.182,9.182,0,0,1,2.336,3.376,12.287,12.287,0,0,1,.828,4.685,21.253,21.253,0,0,1-.381,3.853H332.617Z" transform="translate(-37.269 -3.797)" fill="#5bac29"/>
    <path id="Trazado_10103" data-name="Trazado 10103" d="M373.439,265.953l-1,4.426.094.091a8.165,8.165,0,0,1,3.458-3.893,10,10,0,0,1,5.022-1.314,14.924,14.924,0,0,1,2.1.149L381.726,272c-.476-.1-.952-.19-1.422-.289a7.939,7.939,0,0,0-1.432-.142,7.419,7.419,0,0,0-3.311.671,6.647,6.647,0,0,0-2.291,1.811,9.257,9.257,0,0,0-1.475,2.595,19.892,19.892,0,0,0-.876,3.027l-2.289,10.913H361.9l5.107-24.63Z" transform="translate(-48.106 -3.783)" fill="#5bac29"/>
    <path id="Trazado_10104" data-name="Trazado 10104" d="M257.22,258.345l1.238-5.582h6.81l-1.234,5.582Z" transform="translate(-16.422)" fill="#5bac29"/>
  </g>
</svg>
