<?xml version="1.0" encoding="UTF-8" standalone="no"?>
<svg
   width="389.53876"
   height="90.664215"
   viewBox="0 0 389.53876 19.507997"
   version="1.1"
   id="svg22"
   sodipodi:docname="Air Koryo 2024.svg"
   inkscape:version="1.3.2 (091e20e, 2023-11-25, custom)"
   xmlns:inkscape="http://www.inkscape.org/namespaces/inkscape"
   xmlns:sodipodi="http://sodipodi.sourceforge.net/DTD/sodipodi-0.dtd"
   xmlns="http://www.w3.org/2000/svg"
   xmlns:svg="http://www.w3.org/2000/svg">
  <defs
     id="defs22" />
  <sodipodi:namedview
     id="namedview22"
     pagecolor="#ffffff"
     bordercolor="#000000"
     borderopacity="0.25"
     inkscape:showpageshadow="2"
     inkscape:pageopacity="0.0"
     inkscape:pagecheckerboard="0"
     inkscape:deskcolor="#d1d1d1"
     inkscape:zoom="1.4338624"
     inkscape:cx="190.04613"
     inkscape:cy="-123.79151"
     inkscape:window-width="1920"
     inkscape:window-height="1009"
     inkscape:window-x="-8"
     inkscape:window-y="-8"
     inkscape:window-maximized="1"
     inkscape:current-layer="svg22" />
  <g
     id="surface1"
     transform="translate(-9.0664207,-55.095941)"
     style="fill:#0000db;fill-opacity:1">
    <path
       style="fill:#0000db;fill-opacity:1;fill-rule:nonzero;stroke:none"
       d="m 96.542969,23.519531 c 0,0.71875 1.007812,1.953125 1.8125,2.214844 1.210937,0.371094 3.171871,2.265625 3.863281,3.703125 0.80859,1.75 0.83594,2.988281 0.0859,3.964844 -0.31641,0.398437 -0.57422,0.859375 -0.57422,1.03125 0,0.519531 -3.113282,3.417968 -5.937501,5.515625 -1.441407,1.089843 -2.96875,2.410156 -3.402344,2.957031 -0.402344,0.546875 -0.921875,1.148438 -1.121094,1.378906 -0.722656,0.746094 -2.796875,4.050782 -2.96875,4.738282 -0.117187,0.375 -0.117187,1.492187 -0.05859,2.5 0.08594,1.464843 0.257812,2.039062 0.894531,2.785156 0.429687,0.546875 1.382812,1.867187 2.132812,2.988281 0.71875,1.089844 1.613281,2.382813 1.988281,2.8125 1.441407,1.722656 1.84375,3.1875 1.84375,6.777344 0,3.707031 -0.808593,9.390625 -1.527343,10.941406 -0.75,1.550781 -2.191407,4.109375 -2.652344,4.597656 -0.691406,0.773438 -1.125,2.296875 -0.75,2.667969 0.40625,0.402344 1.585937,-0.714844 3.632813,-3.386719 1.527343,-1.980469 2.824218,-3.359375 5.15625,-5.371093 0.78125,-0.6875 2.105469,-2.066407 2.941399,-3.101563 0.83594,-1.035156 4.00391,-4.394531 7.08985,-7.496094 6.88672,-6.976562 6.77344,-6.835937 9.27734,-10.566406 2.36328,-3.503906 2.79688,-4.65625 2.96875,-8.128906 0.11719,-2.070313 0.0312,-2.699219 -0.46094,-3.761719 -0.34375,-0.71875 -0.60546,-1.4375 -0.60546,-1.609375 0,-0.144531 -0.83594,-1.035156 -1.8711,-1.953125 -1.03906,-0.917969 -2.85547,-2.84375 -4.00781,-4.25 -2.16016,-2.613281 -3.14063,-3.589844 -3.60156,-3.589844 -0.11328,0 -0.46094,-0.289062 -0.77735,-0.601562 -0.28906,-0.347656 -1.4414,-1.238282 -2.53515,-1.953125 -3.25782,-2.15625 -4.35157,-2.816407 -7.812501,-4.652344 -0.949218,-0.488281 -1.84375,-1.09375 -1.957031,-1.292969 -0.347656,-0.574218 -1.066406,-0.488281 -1.066406,0.140625 z m 0,0"
       id="path1" />
    <path
       style="fill:#0000db;fill-opacity:1;fill-rule:nonzero;stroke:none"
       d="m 297.78125,30.929688 c -1.06641,1.007812 -1.41406,1.925781 -1.92969,5.085937 -0.26172,1.40625 -0.60547,2.667969 -0.78125,2.753906 -0.17187,0.117188 -1.20703,0.375 -2.33203,0.546875 -2.48047,0.402344 -3.97656,1.003906 -3.97656,1.609375 0,0.660157 0.94922,0.917969 4.12109,1.148438 l 2.79297,0.199219 v 3.132812 c 0,3.589844 0.49219,3.160156 -4.17578,3.703125 -3.31641,0.402344 -3.94922,0.660156 -3.83594,1.523437 0.14453,0.976563 1.26953,1.347657 4.29688,1.347657 h 2.76562 L 294.95703,58.5 c 0.11328,3.621094 0.31641,7.179688 0.46094,7.984375 0.57812,3.132813 3.05469,6.605469 5.85156,8.214844 1.72656,0.976562 2.07422,1.003906 2.44922,0.316406 0.17187,-0.316406 0.57422,-8.359375 0.89062,-18.035156 l 0.60547,-17.492188 5.01563,-5.054687 -1.15235,-1.003906 c -0.66406,-0.601563 -1.75781,-1.179688 -2.73828,-1.4375 -0.86328,-0.230469 -2.39062,-0.746094 -3.39843,-1.148438 -2.45313,-0.945312 -4.06641,-0.917969 -5.16016,0.08594 z m 0,0"
       id="path2" />
    <path
       style="fill:#0000db;fill-opacity:1;fill-rule:nonzero;stroke:none"
       d="m 348.55859,32.28125 c -0.63281,0.199219 -1.8164,0.6875 -2.62109,1.121094 l -1.46875,0.746094 -0.17578,5.828124 c -0.11328,3.21875 -0.19922,6.894532 -0.19922,8.1875 v 2.382813 h 1.46875 c 1.26562,0 1.58594,-0.117187 2.42187,-0.949219 0.63282,-0.632812 1.00782,-1.347656 1.15235,-2.152344 0.23047,-1.40625 0.98047,-2.070312 2.33203,-2.070312 1.75781,0 4.72656,-1.519531 4.72656,-2.410156 0,-0.460938 -1.8164,-0.746094 -4.52344,-0.746094 -2.50781,0 -2.96875,-0.289062 -2.96875,-1.8125 0,-1.289062 0.23047,-1.691406 2.21875,-4.164062 1.29688,-1.605469 1.64454,-3.101563 0.86329,-3.761719 -0.66016,-0.515625 -1.98829,-0.601563 -3.22657,-0.199219 z m 0,0"
       id="path3" />
    <path
       style="fill:#0000db;fill-opacity:1;fill-rule:nonzero;stroke:none"
       d="m 327.05859,33.027344 c -0.25781,0.144531 -0.63281,0.6875 -0.83203,1.175781 -0.32031,0.75 -0.32031,0.921875 0.0274,1.152344 0.54687,0.371093 8.15625,0.140625 9.53906,-0.289063 1.4414,-0.460937 2.39062,-1.265625 2.16015,-1.839844 -0.17187,-0.429687 -0.80468,-0.488281 -5.30078,-0.488281 -2.82422,0 -5.33203,0.144531 -5.59375,0.289063 z m 0,0"
       id="path4" />
    <path
       style="fill:#0000db;fill-opacity:1;fill-rule:nonzero;stroke:none"
       d="m 268.73047,33.917969 c -6.57031,0.6875 -11.58203,2.441406 -13.19922,4.59375 -0.51563,0.691406 -0.51563,0.804687 -0.0859,1.609375 0.63672,1.261718 1.41406,1.351562 4.20703,0.34375 5.21875,-1.867188 7.55078,-2.554688 9.97266,-2.984375 2.88281,-0.488281 5.85156,-0.546875 7.34766,-0.144531 1.78906,0.488281 2.10546,1.089843 2.21875,4.335937 0.0898,1.550781 0,2.84375 -0.11329,2.84375 -0.14453,0 -1.23828,-0.203125 -2.42187,-0.460937 -4.23438,-0.890626 -8.84766,0.03125 -10.31641,2.097656 -2.33593,3.273437 -2.96875,10.308594 -1.21093,13.152344 1.61328,2.585937 3.25781,2.785156 7.46484,0.863281 3.25781,-1.496094 3.48828,-1.496094 9.56641,-0.832031 4.55468,0.488281 5.53515,0.371093 7.52343,-0.921876 1.17969,-0.746093 2.04688,-2.726562 1.46875,-3.300781 -0.20312,-0.203125 -3.3125,-0.375 -8.38672,-0.460937 l -8.09765,-0.171875 -0.19922,-1.148438 c -0.28906,-1.78125 -0.23438,-3.792969 0.17187,-4.480469 0.80469,-1.550781 4.46485,-2.210937 7.375,-1.320312 1.875,0.574219 3.98047,0.546875 4.55469,-0.03125 0.25781,-0.226562 0.46094,-0.457031 0.46094,-0.515625 0,-0.02734 0.20312,-1.578125 0.43359,-3.445313 0.31641,-2.585937 0.63282,-3.847656 1.32422,-5.34375 0.49219,-1.0625 0.83594,-2.179687 0.77735,-2.46875 -0.17188,-0.976562 -1.92969,-1.550781 -5.73438,-1.835937 -4.20703,-0.316406 -11.84375,-0.316406 -15.10156,0.02734 z m 0,0"
       id="path5" />
    <path
       style="fill:#0000db;fill-opacity:1;fill-rule:nonzero;stroke:none"
       d="m 204.75391,34.175781 c -5.1875,0.375 -8.26954,1.695313 -10.92188,4.625 -1.98828,2.183594 -2.01562,3.761719 -0.17187,4.710938 1.35546,0.6875 2.13281,0.542969 6.74218,-1.410157 4.58203,-1.953124 7.35157,-2.8125 10.69141,-3.332031 2.67969,-0.429687 9.88672,-0.429687 12.30859,0 1.78516,0.316407 1.92969,0.402344 1.8125,0.976563 -0.98047,4.195312 -1.0664,5.027344 -1.17968,10.945312 -0.14454,7.148438 -0.20313,7.492188 -0.95313,7.753906 -0.48828,0.140626 -3.02344,-0.144531 -5.32812,-0.605468 l -0.83594,-0.171875 0.17187,-3.1875 c 0.20313,-3.074219 0.23047,-3.214844 1.09375,-4.105469 0.86719,-0.890625 0.89453,-1.007812 0.57813,-1.808594 -0.75,-1.78125 -3.63281,-3.015625 -6.60156,-2.84375 -2.79297,0.140625 -4.46485,1.03125 -5.79297,3.070313 l -1.03516,1.609375 -0.0312,3.503906 c 0,1.953125 -0.0859,3.589844 -0.14062,3.648438 -0.0898,0.08594 -4.26563,0.285156 -9.33985,0.457031 -14.7539,0.488281 -16.82812,0.863281 -19.36328,3.304687 -1.29687,1.261719 -1.52734,1.636719 -1.52734,2.554688 0,1.523437 1.64062,4.480468 2.5039,4.480468 0.20313,0 1.26953,-0.429687 2.33594,-0.976562 2.70703,-1.347656 5.64844,-2.355469 8.47266,-2.898438 3.28515,-0.632812 14.69922,-0.976562 32.9375,-1.007812 8.24218,-0.02734 18.61718,-0.140625 23.05468,-0.257812 7.1211,-0.199219 8.21485,-0.285157 9.36719,-0.804688 1.52735,-0.660156 3.17188,-2.410156 3.17188,-3.386719 0,-0.890625 -0.28907,-0.949219 -7.92578,-1.148437 -6.48438,-0.171875 -12.53516,-0.632813 -12.85157,-0.949219 -0.26172,-0.289063 0.51563,-8.816406 1.03516,-11.085937 0.23047,-1.0625 1.03906,-3.359376 1.75781,-5.113282 l 1.32813,-3.128906 -0.66407,-0.746094 c -1.23828,-1.351562 -2.82421,-1.808594 -7.55078,-2.242187 -5.27343,-0.457031 -22.71093,-0.746094 -27.14843,-0.429688 z m 0,0"
       id="path6" />
    <path
       style="fill:#0000db;fill-opacity:1;fill-rule:nonzero;stroke:none"
       d="m 369.71094,34.148438 c -2.91016,0.429687 -5.5625,3.15625 -4.17969,4.308593 0.46484,0.398438 1.29687,0.226563 5.36328,-1.152343 2.67969,-0.886719 6.76953,-1.320313 9.07813,-1.003907 l 1.35156,0.230469 -0.19922,4.480469 c -0.20313,4.824219 -0.43359,5.425781 -1.70313,5.054687 -1.69921,-0.515625 -2.36328,-1.894531 -1.69921,-3.648437 0.26171,-0.6875 0.375,-1.464844 0.28906,-1.722657 -0.375,-0.949218 -3.34375,-1.234374 -4.8711,-0.429687 -0.75,0.371094 -1.29687,1.605469 -1.52734,3.472656 -0.17187,1.378907 -0.28906,1.636719 -0.77734,1.636719 -1.96094,0 -9.33594,0.691406 -11.00782,1.035156 -2.9414,0.574219 -3.83203,1.667969 -3.05468,3.675782 0.34375,0.917968 1.15234,0.976562 3.16797,0.171874 2.36328,-0.917968 4.55468,-1.117187 19.80078,-1.578124 7.92187,-0.230469 15.04297,-0.515626 15.76172,-0.601563 1.00781,-0.144531 1.5,-0.375 1.8164,-0.890625 0.77735,-1.207031 0.23047,-1.378906 -5.04297,-1.523438 l -4.8125,-0.144531 -0.0859,-2.097656 c -0.0586,-1.320313 0.0859,-2.753906 0.40234,-3.875 1.125,-4.222656 1.125,-4.25 0.57422,-4.652344 -0.28516,-0.230469 -1.4375,-0.460937 -2.5625,-0.546875 -3.54688,-0.257812 -14.69922,-0.429687 -16.08203,-0.199218 z m 0,0"
       id="path7" />
    <path
       style="fill:#0000db;fill-opacity:1;fill-rule:nonzero;stroke:none"
       d="m 321.23828,37.304688 c -1.58594,0.230468 -2.13281,0.691406 -2.39062,1.953124 -0.28907,1.496094 0.28906,1.550782 10.14453,1.464844 8.32812,-0.08594 8.76172,-0.113281 9.53906,-0.6875 1.12109,-0.832031 1.75781,-2.011718 1.32422,-2.441406 -0.40235,-0.402344 -16.33985,-0.632812 -18.61719,-0.289062 z m 0,0"
       id="path8" />
    <path
       style="fill:#0000db;fill-opacity:1;fill-rule:nonzero;stroke:none"
       d="m 326.71484,42.359375 c -1.98828,0.75 -3.86328,1.925781 -4.20703,2.613281 -0.46094,1.007813 -0.40234,2.875 0.11328,3.851563 0.98047,1.894531 3.69141,2.871093 8.24219,2.929687 2.50781,0.02734 3.23047,-0.08594 4.46875,-0.605468 2.99609,-1.292969 4.46484,-3.761719 3.45703,-5.714844 -0.54687,-1.035156 -2.53515,-2.46875 -4.23437,-3.074219 -1.52735,-0.542969 -6.33985,-0.542969 -7.83985,0 z m 6.65625,2.789063 c 1.06641,0.515624 1.125,1.289062 0.20313,2.238281 -1.06641,1.089843 -3.11328,1.578125 -4.75391,1.148437 -1.26953,-0.34375 -2.59375,-1.40625 -2.59375,-2.097656 0,-0.515625 0.77735,-1.203125 1.8711,-1.605469 1.03906,-0.375 4.20703,-0.203125 5.27343,0.316407 z m 0,0"
       id="path9" />
    <path
       style="fill:#0000db;fill-opacity:1;fill-rule:nonzero;stroke:none"
       d="m 127.29297,48.9375 c -0.26172,0.375 -0.66406,1.378906 -0.95313,2.210938 -1.0664,3.417968 -2.85156,7.09375 -4.46484,9.25 -0.95312,1.234374 -1.70312,2.351562 -1.70312,2.496093 0,0.117188 -0.11329,0.289063 -0.23047,0.34375 -0.14453,0.03125 -0.80469,0.804688 -1.46875,1.667969 -1.23828,1.550781 -5.82032,6.605469 -7.83985,8.585938 -1.75781,1.753906 -3.22656,2.988281 -4.86718,4.195312 -0.86719,0.628906 -2.33594,1.835938 -3.25782,2.726562 -0.89453,0.863282 -1.875,1.695313 -2.16015,1.867188 -1.296879,0.746094 -3.863285,2.8125 -4.296879,3.503906 -0.316406,0.460938 -1.699219,1.320313 -3.746093,2.296875 -1.785157,0.863281 -3.371094,1.753907 -3.574219,1.980469 -0.171875,0.230469 -0.488281,0.402344 -0.660157,0.402344 -0.203124,0 -0.722656,0.375 -1.152343,0.804687 -0.636719,0.691407 -0.691407,0.890625 -0.375,1.148438 0.316406,0.257812 0.890625,0.203125 2.535156,-0.34375 2.765625,-0.917969 3.6875,-1.378907 5.9375,-3.074219 1.007813,-0.773438 1.929687,-1.40625 2.015625,-1.40625 0.117188,0 0.460938,-0.257812 0.777344,-0.546875 1.066406,-0.945313 4.554686,-2.554687 7.667966,-3.503906 3.02344,-0.886719 5.70313,-2.066407 7.14453,-3.101563 0.4336,-0.285156 2.79688,-1.519531 5.2461,-2.726562 8.70312,-4.25 13.05468,-7.609375 15.01562,-11.601563 0.80469,-1.636719 1.69922,-5.257812 1.69922,-6.921875 0,-1.523437 -0.66406,-3.332031 -1.84375,-5.171875 -0.46094,-0.714843 -1.00781,-1.664062 -1.23828,-2.152343 -0.72266,-1.550782 -1.125,-2.152344 -1.93359,-2.902344 -0.97657,-0.886719 -1.69922,-0.917969 -2.27344,-0.02734 z m 0,0"
       id="path10" />
    <path
       style="fill:#0000db;fill-opacity:1;fill-rule:nonzero;stroke:none"
       d="m 375.62109,50.144531 c -1.90234,0.6875 -3.42968,2.210938 -4.64062,4.652344 -1.03906,2.097656 -1.09766,2.296875 -1.09766,5.082031 0.0312,3.417969 0.60547,4.941406 2.73828,7.039063 1.96094,1.980469 3.63282,2.699219 5.9961,2.527343 5.1875,-0.375 8.53125,-4.796874 8.03906,-10.628906 -0.31641,-3.589844 -2.44922,-6.890625 -5.47656,-8.414062 -1.69922,-0.832032 -3.6875,-0.917969 -5.5586,-0.257813 z m 4.66797,4.882813 c 1.69922,1.117187 2.39063,4.824218 1.26563,6.976562 -1.15235,2.269532 -3.05469,2.929688 -4.89844,1.667969 -2.62109,-1.753906 -2.96875,-5.832031 -0.71875,-8.070313 1.38281,-1.378906 2.79297,-1.582031 4.35156,-0.574218 z m 0,0"
       id="path11" />
    <path
       style="fill:#0000db;fill-opacity:1;fill-rule:nonzero;stroke:none"
       d="m 336.36719,53.015625 c -1.69922,0.832031 -3.05469,2.269531 -3.91797,4.105469 -0.46094,1.007812 -0.60547,1.898437 -0.60547,3.765625 0,2.238281 0.0859,2.582031 0.98047,4.25 1.69922,3.101562 4.46875,4.796875 7.80859,4.765625 2.42188,-0.02734 4.20703,-0.917969 6.39844,-3.1875 1.875,-1.980469 2.10547,-2.726563 2.07422,-6.402344 -0.0274,-2.902344 -0.40235,-3.765625 -2.53516,-5.890625 -1.73047,-1.722656 -2.99609,-2.152344 -6.42578,-2.152344 -1.875,0 -2.53516,0.144531 -3.77734,0.746094 z m 5.85156,3.042969 c 2.48047,1.925781 2.01562,7.179687 -0.75,8.675781 -0.98047,0.515625 -1.03516,0.515625 -2.10156,0.02734 -1.41407,-0.6875 -2.53907,-2.355469 -2.71094,-4.136719 -0.34375,-3.644531 3.11328,-6.488281 5.5625,-4.566406 z m 0,0"
       id="path12" />
    <path
       style="fill:#0000db;fill-opacity:1;fill-rule:nonzero;stroke:none"
       d="m 137.03125,70.878906 c -0.46094,0.316406 -1.58594,2.011719 -1.58594,2.355469 0,0.515625 -2.64844,3.160156 -3.89062,3.847656 -4.58203,2.585938 -7.60547,4.367188 -8.35547,4.910157 -0.89453,0.632812 -6.83203,3.734374 -8.35938,4.367187 -0.48828,0.171875 -1.75781,0.6875 -2.8789,1.089844 -1.09766,0.433593 -2.91016,1.207031 -4.03516,1.722656 -1.09765,0.519531 -2.59375,1.152344 -3.34375,1.378906 -2.07422,0.691407 -6.828124,1.925781 -7.523436,1.953125 -1.035156,0.03125 -6.136719,1.839844 -6.050782,2.15625 0.08594,0.34375 2.277344,0.285156 5.964844,-0.144531 1.585938,-0.171875 5.937504,-0.460937 9.656254,-0.601563 8.41406,-0.347656 14.35156,-0.75 16.42578,-1.121093 2.65234,-0.460938 4.3789,-0.832031 6.13672,-1.320313 0.92578,-0.230468 1.96093,-0.433594 2.33593,-0.433594 1.75782,0 7.66407,-4.019531 7.66407,-5.226562 0,-0.140625 0.375,-0.773438 0.83593,-1.347656 1.24219,-1.550782 1.75782,-2.757813 1.75782,-3.992188 0,-1.121094 -1.69922,-7.554687 -2.27344,-8.644531 -0.51953,-0.976563 -1.78906,-1.464844 -2.48047,-0.949219 z m 0,0"
       id="path13" />
    <path
       style="fill:#0000db;fill-opacity:1;fill-rule:nonzero;stroke:none"
       d="m 213.02734,84.0625 c -0.63672,1.089844 -2.39453,4.335938 -3.94922,7.265625 -1.52734,2.929687 -3.19921,5.886719 -3.71875,6.605469 -0.51953,0.71875 -1.00781,1.464844 -1.15234,1.636718 -0.14453,0.285157 0.40234,0.375 2.44922,0.375 2.59375,0 2.625,0 1.96094,-0.519531 -0.8086,-0.660156 -0.83594,-1.953125 -0.0859,-3.359375 l 0.54687,-1.003906 h 6.16797 l 0.71875,1.203125 c 1.06641,1.839844 1.23828,2.816406 0.60547,3.304687 -0.46094,0.316407 0.0586,0.375 3.57422,0.375 h 4.12109 l -0.46093,-0.664062 c -1.41407,-1.953125 -2.33594,-3.558594 -5.58985,-9.878906 -1.96093,-3.847656 -3.66015,-7.035156 -3.80468,-7.121094 -0.14454,-0.08594 -0.77735,0.71875 -1.38282,1.78125 z m 0.46094,7.121094 1.21094,2.441406 h -2.48047 c -1.87109,0 -2.44922,-0.08594 -2.33594,-0.375 0.83594,-2.007812 2.04688,-4.507812 2.19141,-4.507812 0.11719,0 0.75,1.09375 1.41406,2.441406 z m 0,0"
       id="path14" />
    <path
       style="fill:#0000db;fill-opacity:1;fill-rule:nonzero;stroke:none"
       d="m 226.57031,82.742188 c 0.69141,0.34375 1.1836,0.832031 1.29688,1.347656 0.14453,0.429687 0.23047,3.734375 0.23047,7.382812 0,7.007813 -0.11329,7.667969 -1.38282,8.183594 -0.40234,0.171875 1.09375,0.257812 4.1211,0.257812 l 4.7539,0.03125 -0.92187,-0.546874 c -0.77735,-0.488282 -0.92188,-0.777344 -1.09375,-2.125 -0.11719,-0.832032 -0.14453,-4.136719 -0.0859,-7.296876 0.0859,-6.375 0.14453,-6.546874 2.10156,-7.410156 0.75,-0.34375 0.17578,-0.371094 -4.60937,-0.398437 h -5.47656 z m 0,0"
       id="path15" />
    <path
       style="fill:#0000db;fill-opacity:1;fill-rule:nonzero;stroke:none"
       d="m 238.76172,83.027344 1.00781,0.890625 v 14.617187 l -0.71875,0.691406 -0.69531,0.71875 h 8.38672 l -0.7461,-0.890624 c -0.72265,-0.835938 -0.75,-1.0625 -0.75,-4.050782 0,-2.816406 0.0547,-3.128906 0.42969,-2.816406 0.26172,0.203125 1.90234,2.097656 3.66016,4.195312 l 3.23047,3.847658 h 6.45312 l -1.75781,-1.808595 c -2.10156,-2.097656 -5.10156,-5.746094 -5.10156,-6.175781 0,-0.144532 0.66406,-0.6875 1.4414,-1.207032 0.8086,-0.515624 1.67188,-1.347656 1.92969,-1.835937 0.69531,-1.320313 0.57812,-3.160156 -0.28516,-4.453125 -1.41406,-2.09375 -3.60156,-2.554688 -12.53906,-2.582031 l -4.98437,-0.03125 z m 9.65234,0.71875 c 1.32813,0.546875 1.9336,1.464844 2.19141,3.359375 0.34375,2.382812 -0.89453,3.617187 -3.97656,4.078125 l -1.38282,0.203125 v -8.101563 h 1.00782 c 0.54687,0 1.52734,0.203125 2.16015,0.460938 z m 0,0"
       id="path16" />
    <path
       style="fill:#0000db;fill-opacity:1;fill-rule:nonzero;stroke:none"
       d="m 268.03906,82.796875 c 1.32813,0.890625 1.47266,1.78125 1.35547,9.480469 -0.0859,6.34375 -0.11328,6.574218 -0.71875,7.0625 -0.60547,0.515625 -0.55078,0.515625 2.16016,0.691406 1.52734,0.11328 3.51562,0.19922 4.3789,0.19922 h 1.5586 l -0.98047,-0.804689 -0.98047,-0.832031 -0.11328,-3.503906 C 274.55469,90.984375 274.52344,90.984375 277.14844,94 c 3.45703,3.992188 3.91797,4.679688 3.54297,5.339844 -0.31641,0.605468 -0.28907,0.605468 4.49609,0.605468 H 290 l -1.125,-0.804687 c -1.03516,-0.777344 -5.1875,-4.914063 -8.29688,-8.273437 l -1.35546,-1.492188 1.23828,-1.003906 c 2.01562,-1.609375 5.96484,-4.253906 7.83984,-5.285156 l 1.75781,-0.949219 h -9.22265 l 0.94922,0.574219 c 1.26953,0.777343 1.41406,1.320312 0.60546,2.210937 -0.63281,0.660156 -4.89843,3.792969 -6.97265,5.113281 l -0.83594,0.546875 0.11719,-3.101562 0.0859,-3.101563 1.26562,-1.121094 1.26953,-1.121093 h -10.26172 z m 0,0"
       id="path17" />
    <path
       style="fill:#0000db;fill-opacity:1;fill-rule:nonzero;stroke:none"
       d="m 297.40625,82.453125 c -2.19141,0.660156 -5.41797,3.992187 -6.05078,6.230469 -0.4336,1.554687 -0.34766,4.109375 0.14453,5.542968 1.00781,2.816407 3.80078,5.316407 6.91406,6.148438 5.21875,1.40625 10.75,-0.777344 13.05469,-5.171875 0.66406,-1.234375 0.77734,-1.777344 0.77734,-4.019531 0,-1.980469 -0.11328,-2.84375 -0.57422,-3.734375 -0.86328,-1.777344 -3.22656,-3.992188 -4.89843,-4.566407 -1.75782,-0.601562 -7.86719,-0.890624 -9.36719,-0.429687 z m 6.13672,1.234375 c 2.30859,0.976562 2.9414,2.699219 2.9414,7.925781 0,4.222657 -0.3164,5.316407 -1.98828,6.867188 -1.125,1.0625 -3.6875,1.175781 -5.04297,0.257812 -0.54687,-0.375 -1.23828,-1.0625 -1.52734,-1.550781 -1.15234,-1.953125 -1.38281,-8.273438 -0.375,-10.65625 1.125,-2.699219 3.60156,-3.875 5.99219,-2.84375 z m 0,0"
       id="path18" />
    <path
       style="fill:#0000db;fill-opacity:1;fill-rule:nonzero;stroke:none"
       d="m 314.89844,82.683594 c 1.58593,1.003906 1.67187,1.347656 1.75781,8.15625 0.11719,6.632812 -0.0273,7.609375 -1.21094,8.585937 -0.57422,0.488281 -0.42969,0.519531 3.71875,0.519531 4.29297,0 4.32422,-0.03125 3.60156,-0.546874 C 322.19141,98.9375 322.04687,98.507812 321.875,96.726562 321.75781,95.578125 321.64453,94 321.64453,93.195312 l -0.0312,-1.40625 1.38281,1.347657 c 0.75,0.746093 2.39453,2.640625 3.66016,4.191406 l 2.30469,2.875005 h 3.3164 l 3.28516,0.0273 -1.61328,-1.63672 c -1.75781,-1.808594 -5.12891,-6.003906 -5.12891,-6.40625 0,-0.113281 0.63281,-0.628906 1.41016,-1.117188 2.88281,-1.867187 3.17187,-5.171874 0.60547,-7.296874 -1.44141,-1.207032 -2.6211,-1.40625 -9.94141,-1.550782 l -6.91797,-0.113281 z m 10.05859,1.148437 c 1.78516,0.804688 2.50781,1.894531 2.36328,3.53125 -0.0859,0.746094 -0.375,1.695313 -0.63281,2.097657 -0.63672,0.976562 -2.76953,1.925781 -4.00781,1.808593 l -0.92188,-0.08594 -0.0859,-3.5625 c -0.0273,-1.980469 0,-3.761719 0.0586,-3.960938 0.23047,-0.546875 1.84375,-0.460937 3.22656,0.171875 z m 0,0"
       id="path19" />
    <path
       style="fill:#0000db;fill-opacity:1;fill-rule:nonzero;stroke:none"
       d="m 335.44531,83.199219 c 1.41406,1.265625 4.78516,6.175781 6.08203,8.902343 1.52735,3.1875 1.41407,6.492188 -0.25781,7.382813 -0.72266,0.402344 -0.34766,0.429687 4.12109,0.429687 4.55079,0 4.83985,-0.02734 4.08985,-0.429687 -1.06641,-0.574219 -1.35547,-1.4375 -1.35547,-4.164063 0,-1.980468 0.11719,-2.5 0.78125,-3.648437 1.58203,-2.757813 4.26562,-6.578125 5.64844,-8.039063 l 1.4414,-1.496093 h -6.14062 l 0.89453,0.804687 c 1.15234,1.003906 1.09375,1.175782 -1.5,5.113282 -2.39063,3.589843 -2.21875,3.617187 -4.52344,-0.546876 -2.21875,-4.019531 -2.25,-4.136718 -1.125,-4.796874 l 0.92188,-0.574219 h -10.23047 z m 0,0"
       id="path20" />
    <path
       style="fill:#0000db;fill-opacity:1;fill-rule:nonzero;stroke:none"
       d="m 363.97656,82.394531 c -2.04687,0.660157 -4.3789,2.699219 -5.79297,5.054688 -0.60547,0.976562 -0.6914,1.523437 -0.6914,3.734375 0,3.1875 0.66406,4.652344 3.05468,6.863281 5.07422,4.683595 14.03516,3.218755 17.20704,-2.84375 0.66015,-1.234375 0.77734,-1.777344 0.77734,-4.019531 0,-3.101563 -0.43359,-4.191406 -2.59375,-6.347656 -1.93359,-1.921876 -3.37109,-2.410157 -7.78125,-2.554688 -1.90234,-0.08594 -3.77734,-0.02734 -4.17969,0.113281 z m 5.85156,1.292969 c 2.1875,0.917969 3.08204,3.160156 3.08204,7.957031 0,3.445313 -0.51954,5.253907 -1.8711,6.574219 -0.86719,0.835938 -1.24219,0.976562 -2.65234,1.09375 -1.38281,0.08594 -1.84375,0 -2.65235,-0.574219 -0.54687,-0.375 -1.23828,-1.0625 -1.52734,-1.550781 -1.125,-1.953125 -1.32422,-8.359375 -0.34375,-10.742188 1.09375,-2.613281 3.60156,-3.761718 5.96484,-2.757812 z m 0,0"
       id="path21" />
    <path
       style="fill:#0000db;fill-opacity:1;fill-rule:nonzero;stroke:none"
       d="m 32.851562,86.558594 c -0.71875,0.203125 -1.929687,0.691406 -2.734374,1.0625 -1.242188,0.578125 -1.847657,0.664062 -4.324219,0.632812 -2.710938,-0.02734 -9.078125,-0.660156 -12.765625,-1.234375 -1.011719,-0.171875 -1.730469,-0.171875 -1.902344,0 -0.375,0.375 0.546875,1.351563 1.84375,2.011719 2.421875,1.234375 11.785156,3.730469 18.183594,4.882812 5.851562,1.03125 7.523437,1.203126 14.238281,1.40625 5.214844,0.171876 6.855469,0.316407 7.75,0.6875 0.605469,0.257813 1.296875,0.488282 1.527344,0.488282 0.230469,0 1.097656,0.316406 1.902343,0.691406 0.835938,0.371094 2.851563,0.945312 4.523438,1.292969 1.671875,0.3125 3.804688,0.800781 4.757812,1.03125 0.949219,0.230469 2.910157,0.574221 4.320313,0.746091 1.441406,0.20313 3.027344,0.51953 3.546875,0.71875 1.179688,0.48828 6.253906,1.40625 9.855469,1.83985 2.765625,0.3164 9.507812,1.40625 9.828125,1.57812 0.515625,0.34375 11.296876,1.60938 15.675786,1.83985 5.73437,0.34375 20.57421,0.77343 33.42968,1.03125 8.84766,0.17187 26.39844,-0.22657 30.98047,-0.71485 10.05469,-1.0625 11.69922,-1.4375 13.83203,-3.21875 1.06641,-0.85937 1.21094,-1.12109 0.89453,-1.46484 -0.32031,-0.40235 -0.51953,-0.34375 -1.70312,0.375 -0.7461,0.45703 -2.5625,1.17578 -4.0625,1.60547 l -2.67969,0.77734 -11.15234,-0.66016 c -6.10938,-0.34375 -11.35547,-0.74609 -11.61328,-0.89062 -0.26172,-0.14453 -0.69141,-0.25781 -0.95313,-0.25781 -0.25781,0 -0.60547,-0.11719 -0.80469,-0.28907 -1.41406,-1.14843 -2.1914,-1.66406 -3,-1.98046 -0.51562,-0.23047 -0.94922,-0.48829 -0.94922,-0.632818 0,-0.113281 -0.23046,-0.285156 -0.54687,-0.402343 -0.54688,-0.171875 -2.99609,-2.152344 -5.21875,-4.25 -1.4375,-1.378907 -2.53516,-1.921875 -3.85938,-1.921875 -0.92187,0 -3.51562,0.746094 -4.0625,1.175781 -0.43359,0.316406 -4.69921,1.636719 -6.48437,2.011719 -0.86719,0.171875 -4.4375,0.429687 -7.92578,0.542968 -3.48828,0.144532 -8.35938,0.402344 -10.80859,0.574219 -2.44922,0.171875 -10.54688,0.347657 -18.011724,0.402344 C 86.945312,98.105469 80.203125,98.25 79.394531,98.363281 78.617188,98.480469 76.714844,98.421875 75.214844,98.25 68.675781,97.503906 67.292969,97.300781 67.003906,97.070312 66.828125,96.929688 65.015625,96.496094 62.96875,96.066406 59.683594,95.40625 57.953125,94.890625 54.609375,93.480469 54.148438,93.28125 53.199219,93.050781 52.507812,92.9375 c -1.328124,-0.203125 -3.6875,-1.179688 -4.324218,-1.8125 -0.230469,-0.199219 -1.09375,-0.6875 -1.929688,-1.089844 -0.863281,-0.375 -2.191406,-1.148437 -2.996094,-1.722656 -0.921874,-0.691406 -1.960937,-1.121094 -2.96875,-1.292969 -0.835937,-0.144531 -2.21875,-0.402343 -3.085937,-0.546875 -1.929687,-0.402344 -2.707031,-0.371094 -4.351563,0.08594 z m 0,0"
       id="path22" />
  </g>
</svg>
