<?xml version="1.0" encoding="UTF-8" standalone="no"?>
<!-- Created with Inkscape (http://www.inkscape.org/) -->

<svg
   xmlns:dc="http://purl.org/dc/elements/1.1/"
   xmlns:cc="http://creativecommons.org/ns#"
   xmlns:rdf="http://www.w3.org/1999/02/22-rdf-syntax-ns#"
   xmlns:svg="http://www.w3.org/2000/svg"
   xmlns="http://www.w3.org/2000/svg"
   xmlns:sodipodi="http://sodipodi.sourceforge.net/DTD/sodipodi-0.dtd"
   xmlns:inkscape="http://www.inkscape.org/namespaces/inkscape"
   width="179.58344"
   height="45.504009"
   viewBox="0 0 47.514785 12.039602"
   version="1.1"
   id="svg37145"
   inkscape:version="0.92.0 r15299"
   sodipodi:docname="air astana.svg">
  <defs
     id="defs37139">
    <clipPath
       id="clipPath36946"
       clipPathUnits="userSpaceOnUse">
      <path
         inkscape:connector-curvature="0"
         id="path36944"
         d="M 0,0 H 623.622 V 793.701 H 0 Z" />
    </clipPath>
  </defs>
  <sodipodi:namedview
     id="base"
     pagecolor="#ffffff"
     bordercolor="#666666"
     borderopacity="1.0"
     inkscape:pageopacity="0.0"
     inkscape:pageshadow="2"
     inkscape:zoom="5.0228746"
     inkscape:cx="89.291473"
     inkscape:cy="22.252449"
     inkscape:document-units="mm"
     inkscape:current-layer="layer1"
     showgrid="false"
     fit-margin-top="0"
     fit-margin-left="0"
     fit-margin-right="0"
     fit-margin-bottom="0"
     units="px"
     inkscape:window-width="1280"
     inkscape:window-height="744"
     inkscape:window-x="-4"
     inkscape:window-y="-4"
     inkscape:window-maximized="1" />
  <metadata
     id="metadata37142">
    <rdf:RDF>
      <cc:Work
         rdf:about="">
        <dc:format>image/svg+xml</dc:format>
        <dc:type
           rdf:resource="http://purl.org/dc/dcmitype/StillImage" />
        <dc:title></dc:title>
      </cc:Work>
    </rdf:RDF>
  </metadata>
  <g
     inkscape:label="Layer 1"
     inkscape:groupmode="layer"
     id="layer1"
     transform="translate(-89.011869,-149.48493)">
    <path
       inkscape:connector-curvature="0"
       id="path36916"
       style="fill:#9b804d;fill-opacity:1;fill-rule:nonzero;stroke:none;stroke-width:0.35277778"
       d="m 93.217326,155.50426 c 0.625828,-0.87947 1.352197,-0.7045 2.208389,-0.60572 -0.227189,-0.24271 -0.33902,-0.54892 -0.33902,-0.87771 0,-0.75741 0.628298,-1.3716 1.403703,-1.3716 1.61925,0 1.419225,1.83303 0.716845,1.83303 -0.157692,0 -0.284339,-0.11077 -0.318559,-0.242 -0.02822,-0.10831 -0.0011,-0.23566 -0.03845,-0.33832 -0.05256,-0.14322 -0.197908,-0.24835 -0.360538,-0.24835 -0.104775,0 -0.198967,0.0413 -0.268112,0.10795 -0.218016,0.21025 -0.08184,0.63112 0.06033,0.84631 0.197909,0.29845 0.545395,0.49107 0.944034,0.48719 l 0.06491,-0.002 c 1.110192,-0.12488 1.436864,-1.06997 1.154994,-1.92758 -0.122414,-0.37253 -0.549627,-0.92075 -1.030816,-1.1504 0.886177,-0.51294 1.158169,-1.69581 1.126772,-2.39784 l -9.529939,5.88716 9.529939,5.88786 c 0.0314,-0.70238 -0.240595,-1.88524 -1.126772,-2.39783 0.481189,-0.23001 0.908402,-0.77823 1.030816,-1.15076 0.28187,-0.8576 -0.0448,-1.8027 -1.154994,-1.92793 l -0.06491,-0.002 c -0.398639,-0.004 -0.746125,0.18874 -0.944034,0.48719 -0.142169,0.2152 -0.278341,0.63606 -0.06033,0.84631 0.06915,0.0667 0.163337,0.10795 0.268112,0.10795 0.16263,0 0.307975,-0.10477 0.360538,-0.24835 0.0374,-0.10266 0.01023,-0.22966 0.03845,-0.33831 0.03422,-0.13124 0.160867,-0.24201 0.318559,-0.24201 0.70238,0 0.902405,1.83303 -0.716845,1.83303 -0.775405,0 -1.403703,-0.61418 -1.403703,-1.3716 0,-0.32879 0.111831,-0.635 0.33902,-0.87771 -0.856192,0.0991 -1.582561,0.27411 -2.208389,-0.60607" />
    <path
       inkscape:connector-curvature="0"
       id="path36920"
       style="fill:#253168;fill-opacity:1;fill-rule:nonzero;stroke:none;stroke-width:0.35277778"
       d="m 104.89551,158.47514 v -3.00637 c 0,-0.0374 -0.001,-0.0741 -0.002,-0.11007 v -0.002 l -0.002,-0.0384 v -0.002 -0.003 l -7e-4,-0.007 v -0.003 c -0.0674,-1.0541 -0.78811,-1.41605 -1.68628,-1.41605 -0.70485,0 -1.26577,0.22754 -1.5501,0.50588 v 0.56056 c 0.38346,-0.20672 0.93274,-0.40357 1.36278,-0.40357 0.53445,0 0.9084,0.16086 0.90946,0.75318 l 3.5e-4,0.005 v 0.0512 l 0.002,0.29069 c -1.39418,0.13582 -2.56082,0.38876 -2.56082,1.59597 0,0.88406 0.62019,1.49613 1.87008,1.49613 0.42862,0 1.30528,-0.0776 1.6577,-0.26635 m -0.96696,-0.44097 c -0.27588,0.11324 -0.76659,0.12418 -1.02906,0.0459 -0.15204,-0.0455 -0.27693,-0.11536 -0.36865,-0.21908 -0.12065,-0.13652 -0.18556,-0.32843 -0.18556,-0.58173 0,-0.8329 0.67769,-1.01776 1.58327,-1.01776 z" />
    <path
       inkscape:connector-curvature="0"
       id="path36924"
       style="fill:#253168;fill-opacity:1;fill-rule:nonzero;stroke:none;stroke-width:0.35277778"
       d="m 123.05002,158.64979 v -0.73484 c -0.0833,0.0247 -0.14958,0.0416 -0.2413,0.0416 -0.3496,0 -0.49107,-0.23318 -0.49107,-0.58279 v -2.82469 h 0.73237 v -0.64347 h -0.73237 v -1.13665 l -1.01564,0.6343 3.5e-4,0.50235 h -0.53834 v 0.64347 h 0.53834 v 2.97674 c 0,0.62406 0.3496,1.21567 1.23155,1.21567 0.24165,0 0.42439,-0.0501 0.51611,-0.0917" />
    <path
       inkscape:connector-curvature="0"
       id="path36928"
       style="fill:#253168;fill-opacity:1;fill-rule:nonzero;stroke:none;stroke-width:0.35277778"
       d="m 120.20001,157.31401 c 0,-0.54786 -0.21202,-1.01812 -1.13877,-1.38359 -0.41486,-0.1651 -0.70626,-0.35666 -0.70626,-0.73943 0,-0.3309 0.23848,-0.61806 0.67981,-0.61806 0.33549,0 0.7186,0.21837 0.89252,0.40287 v -0.57256 c -0.59796,-0.90346 -2.61373,-0.63394 -2.61373,0.83996 0,0.48719 0.18521,0.97438 1.08585,1.31375 0.48542,0.18274 0.76024,0.36512 0.76024,0.76517 0,0.85831 -1.37372,0.7546 -1.85067,0.39935 l 0.005,0.75 c 0.28081,0.14253 0.63571,0.26988 1.19169,0.26988 1.0414,0 1.69474,-0.66146 1.69474,-1.42734" />
    <path
       inkscape:connector-curvature="0"
       id="path36932"
       style="fill:#253168;fill-opacity:1;fill-rule:nonzero;stroke:none;stroke-width:0.35277778"
       d="m 131.8993,158.6141 -7.1e-4,-3.31329 c 0,-0.74612 -0.45402,-1.41464 -1.83444,-1.41464 -0.78034,0 -1.37195,0.12841 -1.80904,0.33444 l 3.5e-4,4.39349 h 1.04598 l -3.5e-4,-3.93947 c 0.1972,-0.0769 0.37712,-0.12841 0.72002,-0.12841 0.6604,0 0.83185,0.39441 0.83185,0.77152 l 3.5e-4,3.29636 z" />
    <path
       inkscape:connector-curvature="0"
       id="path36936"
       style="fill:#253168;fill-opacity:1;fill-rule:nonzero;stroke:none;stroke-width:0.35277778"
       d="m 110.42173,153.893 c -1.17016,-0.0402 -1.78682,0.0974 -2.2666,0.32879 v 4.39243 h 1.04493 v -3.92112 c 0.23954,-0.13723 0.81915,-0.2159 1.22132,-0.0526 z" />
    <path
       d="m 107.03383,153.9084 h -1.0163 v 4.7057 h 1.0163 z"
       style="fill:#253168;fill-opacity:1;fill-rule:nonzero;stroke:none;stroke-width:0.35277778"
       id="path36938"
       inkscape:connector-curvature="0" />
    <path
       inkscape:connector-curvature="0"
       id="path36950"
       style="fill:#253168;fill-opacity:1;fill-rule:nonzero;stroke:none;stroke-width:0.35277778"
       d="m 116.4726,158.47513 v -3.00637 c 0,-0.0374 -0.001,-0.0741 -0.002,-0.11007 v -0.002 l -0.002,-0.0384 v -0.002 -0.003 l -7e-4,-0.007 v -0.003 c -0.0674,-1.0541 -0.78811,-1.41605 -1.68628,-1.41605 -0.70485,0 -1.26577,0.22754 -1.55046,0.50588 v 0.56056 c 0.38382,-0.20672 0.9331,-0.40357 1.36314,-0.40357 0.53445,0 0.9084,0.16086 0.90946,0.75318 v 0.005 0.0512 l 0.002,0.29069 c -1.39418,0.13582 -2.56082,0.38876 -2.56082,1.59597 0,0.88406 0.62019,1.49613 1.86972,1.49613 0.42898,0 1.30564,-0.0776 1.65806,-0.26635 m -0.96696,-0.44097 c -0.27623,0.11324 -0.76659,0.12418 -1.02906,0.0459 -0.15204,-0.0455 -0.27728,-0.11536 -0.36865,-0.21908 -0.121,-0.13652 -0.18556,-0.32843 -0.18556,-0.58173 0,-0.8329 0.67733,-1.01776 1.58327,-1.01776 z" />
    <path
       inkscape:connector-curvature="0"
       id="path36954"
       style="fill:#253168;fill-opacity:1;fill-rule:nonzero;stroke:none;stroke-width:0.35277778"
       d="m 127.13273,158.47513 v -3.00637 c 0,-0.0374 -7.1e-4,-0.0741 -0.002,-0.11007 l -3.5e-4,-0.002 -0.002,-0.0384 v -0.002 -0.003 l -3.5e-4,-0.007 -3.5e-4,-0.003 c -0.067,-1.0541 -0.78811,-1.41605 -1.68628,-1.41605 -0.7045,0 -1.26541,0.22754 -1.5501,0.50588 v 0.56056 c 0.38382,-0.20672 0.93274,-0.40357 1.36313,-0.40357 0.53446,0 0.9084,0.16086 0.90946,0.75318 v 0.005 0.0512 l 0.002,0.29069 c -1.39418,0.13582 -2.56082,0.38876 -2.56082,1.59597 0,0.88406 0.62054,1.49613 1.87008,1.49613 0.42898,0 1.30563,-0.0776 1.6577,-0.26635 m -0.96696,-0.44097 c -0.27588,0.11324 -0.76624,0.12418 -1.02906,0.0459 -0.15169,-0.0455 -0.27693,-0.11536 -0.36865,-0.21908 -0.12065,-0.13652 -0.18556,-0.32843 -0.18556,-0.58173 0,-0.8329 0.67769,-1.01776 1.58327,-1.01776 z" />
    <path
       inkscape:connector-curvature="0"
       id="path36958"
       style="fill:#253168;fill-opacity:1;fill-rule:nonzero;stroke:none;stroke-width:0.35277778"
       d="m 136.26195,158.47513 v -3.00637 c 0,-0.0374 -0.001,-0.0741 -0.002,-0.11007 l -3.5e-4,-0.002 -0.002,-0.0384 v -0.002 -0.003 l -7e-4,-0.007 v -0.003 c -0.0674,-1.0541 -0.78811,-1.41605 -1.68628,-1.41605 -0.70485,0 -1.26577,0.22754 -1.5501,0.50588 v 0.56056 c 0.38382,-0.20672 0.93274,-0.40357 1.36278,-0.40357 0.53445,0 0.9084,0.16086 0.90981,0.75318 v 0.005 0.0512 l 0.002,0.29069 c -1.39418,0.13582 -2.56082,0.38876 -2.56082,1.59597 0,0.88406 0.62019,1.49613 1.87008,1.49613 0.42862,0 1.30528,-0.0776 1.6577,-0.26635 m -0.96696,-0.44097 c -0.27588,0.11324 -0.76624,0.12418 -1.02906,0.0459 -0.15169,-0.0455 -0.27693,-0.11536 -0.36865,-0.21908 -0.12065,-0.13652 -0.18556,-0.32843 -0.18556,-0.58173 0,-0.8329 0.67733,-1.01776 1.58327,-1.01776 z" />
    <path
       inkscape:connector-curvature="0"
       id="path36962"
       style="fill:#253168;fill-opacity:1;fill-rule:nonzero;stroke:none;stroke-width:0.35277778"
       d="m 107.06729,152.77607 c 0,-0.28328 -0.23424,-0.50835 -0.54187,-0.50835 -0.2988,0 -0.54151,0.22507 -0.54151,0.50835 0,0.27481 0.24271,0.49953 0.54151,0.49953 0.30763,0 0.54187,-0.22472 0.54187,-0.49953" />
  </g>
</svg>
