<?xml version="1.0" encoding="UTF-8" standalone="no"?>
<svg
   xmlns:dc="http://purl.org/dc/elements/1.1/"
   xmlns:cc="http://creativecommons.org/ns#"
   xmlns:rdf="http://www.w3.org/1999/02/22-rdf-syntax-ns#"
   xmlns:svg="http://www.w3.org/2000/svg"
   xmlns="http://www.w3.org/2000/svg"
   width="500"
   height="90"
   viewBox="0 0 132.29166 23.8125"
   version="1.1"
   id="svg8">
  <defs
     id="defs2" />
  <metadata
     id="metadata5">
    <rdf:RDF>
      <cc:Work
         rdf:about="">
        <dc:format>image/svg+xml</dc:format>
        <dc:type
           rdf:resource="http://purl.org/dc/dcmitype/StillImage" />
        <dc:title></dc:title>
      </cc:Work>
    </rdf:RDF>
  </metadata>
  <g
     id="layer1">
    <g
       id="g36"
       transform="matrix(0.26458333,0,0,0.26458333,-12.673656,-46.417912)">
      <path
         class="st0"
         d="m 100.26402,189.27641 c 1.06635,5.49579 2.05067,11.07361 3.035,16.56941 1.2304,6.39809 2.54283,11.89389 3.77323,16.48739 5.90593,20.83481 14.43672,33.63099 25.59236,38.47057 h -6.15201 c -4.34742,0 -7.62849,-0.82027 -10.00727,-2.4608 -2.37878,-1.55851 -4.92161,-4.01932 -7.54646,-7.21836 -4.34743,-5.24972 -6.56215,-7.9566 -6.64418,-8.03863 -5.741872,-6.15201 -13.370369,-10.66349 -22.803451,-13.4524 l -2.788912,3.19905 c -3.363099,3.93729 -7.054305,7.71052 -11.155645,11.40172 -4.511474,4.01932 -7.874573,6.06999 -10.171324,6.06999 -1.640536,0 -2.542831,-0.49216 -2.706884,-1.47648 l -0.08203,-0.32811 0.08203,-0.9023 c 0.08203,-1.31243 0.49216,-2.13269 1.312429,-2.4608 6.562144,-3.77323 10.417404,-6.06998 11.647806,-6.89025 3.117018,-2.05067 6.808225,-5.16769 11.155645,-9.43308 -2.460804,-0.57419 -4.757554,-0.9023 -6.890251,-0.9023 -2.624858,0 -5.249716,0.49216 -7.71052,1.55851 -0.492161,0.24608 -1.230402,0.57419 -2.296751,1.06635 2.788912,-2.54283 6.398091,-3.93729 10.991592,-4.10134 h 0.574188 0.492161 c 1.968643,0 4.10134,0.24608 6.234037,0.73824 6.972278,-8.28471 12.632128,-16.8155 17.061579,-25.67439 2.214723,-4.5935 3.85526,-8.53079 5.003631,-12.22199 z m 1.06635,46.91933 c -0.90229,-1.88662 -1.886614,-4.92161 -2.870936,-9.10498 -1.476482,-6.23403 -2.706884,-13.04226 -3.609179,-20.5067 -3.199046,6.56215 -7.874577,13.53442 -14.026587,20.99886 9.104975,2.1327 15.99523,5.08567 20.506702,8.61282 z"
         id="path4"
         style="fill:#10453b;fill-opacity:1;stroke-width:0.820268" />
      <path
         class="st0"
         d="m 100.26402,189.27641 -0.41013,0.082 c 1.06635,5.4958 2.05067,11.07362 3.03499,16.56942 v 0 c 1.2304,6.39809 2.54283,11.89388 3.77323,16.48738 v 0 c 5.90593,20.83481 14.43672,33.79505 25.83845,38.71666 l 0.16405,-0.41014 v -0.41013 h -6.15201 c -4.26539,0 -7.54646,-0.82027 -9.84322,-2.37878 v 0 c -2.29675,-1.55851 -4.83958,-3.93729 -7.46443,-7.13633 v 0 c -2.1327,-2.62486 -3.77324,-4.5935 -4.92161,-5.98796 -0.57419,-0.65621 -0.98432,-1.14837 -1.2304,-1.55851 -0.16406,-0.16405 -0.24609,-0.3281 -0.32811,-0.41013 l -0.16406,-0.16405 -0.3281,0.3281 0.3281,-0.3281 c -5.823899,-6.23404 -13.534422,-10.74552 -23.049531,-13.53443 -0.164054,-0.082 -0.328107,0 -0.410134,0.16406 l -2.788912,3.19904 v 0 c -3.363099,3.93729 -7.054305,7.71052 -11.155645,11.3197 v 0 c -2.214724,1.96864 -4.183367,3.52715 -5.823903,4.51147 -1.640536,0.98433 -3.034992,1.47649 -4.10134,1.47649 -0.820268,0 -1.394456,-0.16406 -1.722563,-0.32811 -0.328108,-0.16405 -0.492161,-0.41013 -0.574188,-0.82027 v -0.082 l -0.08203,-0.24609 0.08203,-0.82026 v 0 c 0,-0.57419 0.164054,-1.06635 0.328107,-1.39446 0.164054,-0.32811 0.410134,-0.57419 0.738242,-0.73824 v 0 c 6.562144,-3.77323 10.417404,-6.06998 11.729833,-6.97228 v 0 c 3.117018,-2.05067 6.890251,-5.24971 11.237672,-9.43308 0.08203,-0.082 0.164054,-0.24608 0.08203,-0.41014 0,-0.16405 -0.164054,-0.24608 -0.328108,-0.3281 -2.460804,-0.57419 -4.757554,-0.9023 -6.972278,-0.9023 -2.706885,0 -5.331742,0.57419 -7.874573,1.64054 v 0 c -0.492161,0.24608 -1.230402,0.57419 -2.296751,1.06635 l 0.164054,0.41013 0.24608,0.32811 c 2.706885,-2.46081 6.234037,-3.85526 10.745512,-4.01931 v -0.41014 0.41014 h 0.738241 0.492161 c 1.968643,0 4.019313,0.24608 6.15201,0.73824 0.164054,0 0.328107,0 0.410134,-0.16406 6.972279,-8.2847 12.714155,-16.89752 17.143606,-25.75641 v 0 c 2.214723,-4.34742 3.937286,-8.36674 5.085654,-11.97592 v -0.16405 -0.082 h -0.49216 l -0.410127,0.082 0.410127,-0.16405 h -0.410127 v 0.082 l 0.410127,-0.082 -0.410127,-0.082 c -1.148376,3.60918 -2.788912,7.54646 -5.003635,11.89389 v 0 c -4.429451,8.85889 -10.089301,17.38968 -17.061579,25.59236 l 0.328107,0.24608 0.08203,-0.41014 c -2.214724,-0.49216 -4.265394,-0.73824 -6.316064,-0.73824 h -0.410134 -0.492161 v 0 c -4.675528,0.24608 -8.448761,1.64054 -11.319699,4.2654 -0.164054,0.16405 -0.164054,0.41013 -0.08203,0.57419 0.08203,0.16405 0.328107,0.24608 0.492161,0.16405 0.984322,-0.49216 1.80459,-0.82027 2.296751,-1.06635 v 0 c 2.460804,-1.06635 4.921608,-1.55851 7.546466,-1.55851 2.132697,0 4.34742,0.24608 6.808224,0.9023 l 0.08203,-0.41014 -0.328107,-0.32811 c -4.347421,4.18337 -8.038627,7.30039 -11.155645,9.35106 v 0 c -1.230402,0.82027 -5.085662,3.11702 -11.647807,6.89025 l 0.246081,0.32811 -0.164054,-0.41013 c -0.492161,0.24608 -0.902295,0.57418 -1.148375,1.06634 -0.246081,0.49216 -0.410134,1.06635 -0.410134,1.72257 h 0.410134 -0.410134 l -0.08203,0.90229 v 0.16405 l 0.08203,0.32811 0.410134,-0.082 -0.410134,0.082 c 0.08203,0.65622 0.410134,1.14838 0.984321,1.47648 0.574188,0.32811 1.230403,0.41014 2.132697,0.41014 1.312429,0 2.788912,-0.57419 4.511475,-1.55851 1.722563,-1.06635 3.691206,-2.54283 5.987956,-4.5935 v 0 c 4.101341,-3.69121 7.874574,-7.46444 11.237673,-11.40173 v 0 l 2.788911,-3.19904 -0.328107,-0.24608 -0.08203,0.41013 c 9.351056,2.78891 16.897525,7.21836 22.639395,13.37037 v 0 l 0.16406,-0.16405 -0.16406,0.16405 v 0 l 0.16406,-0.16405 -0.16406,0.16405 c 0,0 0.16406,0.24608 0.49216,0.57419 0.9023,1.06635 2.95297,3.52715 6.15201,7.46444 v 0 c 2.62486,3.28107 5.16769,5.65985 7.6285,7.30038 l 0.24608,-0.3281 -0.24608,0.3281 c 2.4608,1.72257 5.90593,2.54283 10.25335,2.54283 h 6.15201 c 0.16405,0 0.41013,-0.16405 0.41013,-0.3281 0,-0.16406 -0.082,-0.41014 -0.24608,-0.49216 -10.99159,-4.75756 -19.52238,-17.38969 -25.34628,-38.14247 v 0 c -1.31243,-4.5935 -2.54283,-10.0893 -3.77323,-16.40536 l -0.41014,0.082 0.41014,-0.082 c -0.98433,-5.4958 -1.96865,-11.07362 -3.035,-16.56941 0,-0.24609 -0.24608,-0.32811 -0.49216,-0.32811 -0.24608,0 -0.410127,0.16405 -0.410127,0.41013 h 0.410127 z m 1.06635,46.91933 0.41014,-0.16406 c -0.9023,-1.80459 -1.804593,-4.83958 -2.788915,-8.94092 v 0 c -1.476483,-6.15201 -2.706885,-13.04226 -3.60918,-20.5067 0,-0.16405 -0.164053,-0.32811 -0.328107,-0.32811 -0.164053,0 -0.328107,0.082 -0.410134,0.24608 -3.199045,6.48012 -7.874576,13.4524 -13.94456,20.91684 -0.08203,0.082 -0.08203,0.24608 -0.08203,0.41013 0.08203,0.16406 0.164054,0.24608 0.328108,0.24608 9.104975,2.1327 15.831176,5.00364 20.342658,8.61282 0.16405,0.082 0.3281,0.082 0.41013,0.082 0.16405,-0.082 0.24608,-0.24609 0.24608,-0.41014 v -0.082 l -0.082,-0.16405 -0.49216,0.082 h -0.41013 v 0.082 l 0.41013,-0.082 0.24608,-0.24608 c -4.593501,-3.69121 -11.483756,-6.64417 -20.670758,-8.77687 l -0.08203,0.41013 0.328107,0.24608 c 6.15201,-7.46444 10.827541,-14.51874 14.026587,-21.08089 l -0.410134,-0.16405 -0.410134,0.082 c 0.902295,7.46444 2.132697,14.35469 3.691206,20.58873 l 0.410134,-0.082 -0.410134,0.082 c 0.984322,4.18336 1.886617,7.21835 2.870936,9.187 l 0.41013,-0.24608 h -0.41013 z"
         id="path6"
         style="fill:#10453b;fill-opacity:1;stroke-width:0.820268" />
      <path
         class="st0"
         d="m 138.07838,240.3791 c -6.56214,6.48012 -10.58146,9.76119 -12.22199,9.76119 -1.06635,0 -1.55851,-1.2304 -1.55851,-3.60917 0,-1.64054 0.24608,-4.34743 0.73824,-8.28471 0.57419,-4.18337 1.06635,-8.44876 1.64053,-12.71416 0.65622,-5.65985 1.55851,-11.89388 2.62486,-18.78414 0.73824,-4.9216 1.14838,-7.87457 1.14838,-8.94092 0,-1.2304 -0.32811,-1.80459 -0.9023,-1.80459 -0.49216,0 -1.80459,0.65622 -3.93728,1.96865 -0.41014,0.24608 -0.73824,0.41013 -0.98433,0.41013 -0.49216,0 -0.73824,-0.24608 -0.73824,-0.73824 0,-0.65621 0.41014,-1.2304 1.23041,-1.72256 1.80459,-0.98433 4.42944,-2.62486 7.71052,-4.92161 2.21472,-1.55851 3.6912,-2.29675 4.34742,-2.29675 0.82026,0 1.31242,0.90229 1.31242,2.78891 0,2.29675 -0.90229,8.53079 -2.70688,18.62008 -2.78891,15.74915 -4.18337,25.42831 -4.18337,28.95547 0,2.05067 0.32811,3.03499 1.06635,3.03499 0.65622,0 1.96865,-1.06635 4.01932,-3.11702 0.65621,-0.65622 1.14837,-0.98432 1.5585,-0.98432 0.41014,0 0.57419,0.24608 0.57419,0.73824 0,0.65621 -0.24608,1.14837 -0.73824,1.64053"
         id="path8"
         style="fill:#10453b;fill-opacity:1;stroke-width:0.820268" />
      <path
         class="st0"
         d="m 164.81912,232.75061 c -0.98432,4.18337 -3.69121,8.12066 -8.03863,11.81186 -4.18336,3.52715 -7.9566,5.33174 -11.40172,5.33174 -3.52716,0 -5.24972,-2.29675 -5.24972,-6.80822 0,-3.28107 0.73824,-8.77687 2.21472,-16.32333 1.88662,-9.59714 2.95297,-14.6828 2.95297,-15.25699 0.32811,-2.29675 0.82027,-5.24972 1.47648,-8.8589 0.41014,-2.54283 0.65622,-4.18336 0.65622,-4.9216 0,-0.9023 -0.24608,-1.39446 -0.73824,-1.39446 -0.57419,0 -1.80459,0.65622 -3.77324,1.88662 -0.082,0.082 -0.082,-0.32811 -0.16405,-1.14838 0,-0.24608 0.65621,-0.98432 2.05067,-1.96864 2.1327,-1.55851 3.52715,-2.70689 4.26539,-3.3631 2.21473,-2.05067 3.85526,-3.03499 4.92161,-3.03499 0.98432,0 1.47648,0.98432 1.47648,2.87094 0,1.39445 -0.3281,3.6912 -0.90229,7.0543 -0.98432,5.90593 -1.55851,9.10498 -1.64054,9.59714 -0.57419,3.77323 -1.31243,7.54646 -2.21472,11.15564 -0.73824,2.95297 -1.06635,4.51148 -1.06635,4.67553 0,0.16405 0,0.16405 0.082,0.16405 0.16405,0 0.57418,-0.49216 1.31243,-1.39445 4.5935,-5.65985 8.2847,-8.44876 11.07361,-8.44876 2.78892,0 4.18337,2.70688 4.18337,8.03862 -0.082,3.035 -0.57419,6.3981 -1.47648,10.33538 m -6.89025,3.03499 c 0.90229,-4.01931 1.39445,-7.13633 1.39445,-9.59713 0,-3.19905 -0.82026,-4.75756 -2.37877,-4.75756 -1.23041,0 -2.70689,0.9023 -4.42945,2.78891 -1.72256,1.80459 -3.19905,4.01932 -4.42945,6.56215 -1.2304,2.37878 -1.80459,5.24971 -1.80459,8.44876 0,2.29675 0.32811,4.01931 0.98432,5.16769 0.73824,1.2304 1.55851,1.88661 2.54283,1.88661 1.47649,0 3.11702,-1.31242 4.92161,-3.85526 1.64054,-2.21472 2.70689,-4.42944 3.19905,-6.64417"
         id="path10"
         style="fill:#10453b;fill-opacity:1;stroke-width:0.820268" />
      <path
         class="st0"
         d="m 197.21971,240.95329 c -6.64417,5.74188 -10.58146,8.61282 -11.97592,8.61282 -0.98432,0 -1.47648,-1.06635 -1.47648,-3.19905 0,-1.2304 0.16405,-3.3631 0.57419,-6.31606 -0.73824,0.73824 -1.64054,1.64053 -2.70689,2.78891 -4.26539,4.51147 -7.71052,6.7262 -10.17132,6.7262 -2.62486,0 -3.85526,-2.29675 -3.85526,-6.89025 0,-1.47649 0.16405,-3.11702 0.41013,-4.92161 0.82027,-5.33175 2.37878,-9.92525 4.59351,-13.86253 3.03499,-5.33175 6.97227,-8.28471 11.72983,-8.69484 4.34742,-0.41014 6.64417,-0.65622 6.80822,-0.65622 1.47649,0 2.29675,0.32811 2.62486,0.9023 0.49216,0.57418 0.65622,1.2304 0.57419,2.13269 -0.16405,1.96865 -0.9023,6.15201 -2.1327,12.5501 -1.14837,5.74188 -1.64053,9.84322 -1.64053,12.46808 0,0.73824 0.16405,1.14837 0.41013,1.14837 0.24608,0 0.82027,-0.41013 1.72256,-1.2304 1.23041,-1.14837 2.29675,-1.96864 3.03499,-2.4608 0.73825,-0.57419 1.39446,-0.82027 1.80459,-0.82027 0.32811,0 0.49217,0.16405 0.49217,0.41013 -0.082,0.41014 -0.32811,0.82027 -0.82027,1.31243 m -9.43309,-21.7371 c -0.65621,0 -1.39445,0 -2.37877,0 -1.14838,-0.082 -1.88662,-0.082 -2.21473,-0.082 -1.88661,0 -3.3631,0.57419 -4.42944,1.72257 -1.39446,1.5585 -2.46081,4.42944 -3.28108,8.61281 -0.73824,3.77323 -1.14837,6.80822 -1.14837,9.02295 0,3.11702 0.73824,4.67553 2.1327,4.67553 1.31242,0 3.19904,-1.31243 5.65985,-3.93729 1.06634,-1.06635 1.96864,-2.1327 2.70688,-3.19905 0.32811,-2.37877 0.73824,-5.33174 1.06635,-8.85889 0.24608,-3.3631 0.90229,-5.90593 1.88661,-7.9566"
         id="path12"
         style="fill:#10453b;fill-opacity:1;stroke-width:0.820268" />
      <path
         class="st1"
         d="m 248.48646,189.44046 c 0.082,0 0,1.14837 -0.41013,3.3631 -0.57419,3.28107 -0.9023,5.41377 -1.06635,6.39809 -0.24608,1.39445 -0.73824,2.1327 -1.55851,2.1327 -0.57419,0 -0.82027,-0.41014 -0.82027,-1.23041 0,-0.24608 0,-0.49216 0.082,-0.73824 0.16405,-0.73824 0.24608,-1.39445 0.24608,-1.96864 0,-1.31243 -0.49216,-2.21472 -1.39446,-2.78891 -0.49216,-0.24608 -1.47648,-0.57419 -2.95296,-0.82027 -1.72257,-0.32811 -3.28108,-0.49216 -4.75756,-0.49216 -3.44512,0 -6.06998,0.90229 -7.71052,2.62486 -1.55851,1.72256 -2.29675,3.3631 -2.29675,5.16769 0,2.13269 1.14838,4.34742 3.52715,6.72619 0.32811,0.41014 2.37878,2.1327 6.15202,5.24972 8.20268,6.89025 12.30402,13.12429 12.30402,18.53806 0,4.83958 -3.52716,9.51511 -10.58146,14.10861 -5.41377,3.44512 -11.89389,5.16769 -19.52238,5.16769 -5.08566,0 -9.187,-0.9023 -12.30402,-2.78892 -3.44513,-2.13269 -5.08566,-5.08566 -4.83958,-9.02294 0.24608,-4.51148 2.87093,-9.18701 7.9566,-14.10861 0.24608,-0.24608 0.49216,-0.41014 0.73824,-0.41014 0.3281,0 0.49216,0.24608 0.49216,0.73824 0,0.32811 -0.082,0.65622 -0.32811,0.98432 -2.29675,2.87094 -3.44512,5.74188 -3.44512,8.61282 0,5.65985 4.10134,9.43308 12.22199,11.23767 2.29675,0.49216 4.51147,0.73824 6.64417,0.73824 6.31606,0 11.40173,-2.21472 15.25699,-6.64417 1.06634,-1.2304 1.55851,-2.62486 1.55851,-4.18337 0,-3.60918 -3.60918,-8.85889 -10.74552,-15.99522 -3.60918,-3.60918 -6.15201,-6.31607 -7.46444,-8.20268 -1.80458,-2.46081 -2.70688,-4.83958 -2.70688,-6.97228 0,-2.46081 1.06635,-5.16769 3.28107,-8.12066 3.60918,-4.9216 9.84322,-7.38241 18.78414,-7.38241 1.2304,-0.082 3.11702,0 5.65985,0.082"
         id="path14"
         style="fill:#db0819;fill-opacity:1;stroke-width:0.820268" />
      <path
         class="st1"
         d="m 269.7314,214.45863 -0.73824,3.035 h -7.38241 c -1.47648,8.85889 -2.21472,15.25698 -2.21472,19.03021 0,3.3631 0.57418,5.08567 1.80459,5.08567 0.90229,0 2.4608,-1.06635 4.67552,-3.28108 0.65622,-0.65621 1.14838,-0.90229 1.55851,-0.90229 0.32811,0 0.57419,0.24608 0.57419,0.73824 0,0.57419 -0.24608,1.14838 -0.73824,1.64054 -6.64417,6.64417 -10.99159,10.00727 -12.96024,10.00727 -1.55851,0 -2.29675,-1.80459 -2.29675,-5.41377 0,-2.37878 0.57419,-8.61282 1.80459,-18.70211 0.41014,-3.77324 0.82027,-6.48012 1.06635,-8.12066 h -5.90593 l 0.82027,-3.03499 h 5.4958 c 0.24608,-1.39445 0.49216,-3.6912 0.98432,-6.89025 0.16405,-1.06635 0.49216,-1.80459 0.98432,-2.21472 1.72256,-1.31243 3.03499,-2.37878 3.85526,-3.19905 1.64053,-1.55851 2.62486,-2.37878 2.87094,-2.37878 0.24608,0 0.3281,0.24608 0.3281,0.73824 0,0.57419 -0.49216,3.69121 -1.47648,9.43309 -0.16405,0.98432 -0.41013,2.4608 -0.73824,4.42944 z"
         id="path16"
         style="fill:#db0819;fill-opacity:1;stroke-width:0.820268" />
      <path
         class="st1"
         d="m 300.73754,240.95329 c -6.64418,5.74188 -10.58146,8.61282 -11.97592,8.61282 -0.98432,0 -1.47648,-1.06635 -1.47648,-3.19905 0,-1.2304 0.16405,-3.3631 0.57419,-6.31606 -0.73824,0.73824 -1.64054,1.64053 -2.70689,2.78891 -4.26539,4.51147 -7.71052,6.7262 -10.17132,6.7262 -2.62486,0 -3.85526,-2.29675 -3.85526,-6.89025 0,-1.47649 0.16405,-3.11702 0.41013,-4.92161 0.82027,-5.33175 2.37878,-9.92525 4.5935,-13.86253 3.035,-5.33175 6.97228,-8.28471 11.72984,-8.69484 4.34742,-0.41014 6.64417,-0.65622 6.80822,-0.65622 1.47648,0 2.29675,0.32811 2.62486,0.9023 0.49216,0.57418 0.65621,1.2304 0.57419,2.13269 -0.16406,1.96865 -0.9023,6.15201 -2.1327,12.5501 -1.14838,5.74188 -1.64054,9.84322 -1.64054,12.46808 0,0.73824 0.16406,1.14837 0.41014,1.14837 0.24608,0 0.82027,-0.41013 1.72256,-1.2304 1.2304,-1.14837 2.29675,-1.96864 3.03499,-2.4608 0.73824,-0.57419 1.39446,-0.82027 1.80459,-0.82027 0.32811,0 0.49216,0.16405 0.49216,0.41013 -0.082,0.41014 -0.3281,0.82027 -0.82026,1.31243 m -9.43309,-21.7371 c -0.65621,0 -1.39445,0 -2.37877,0 -1.14838,-0.082 -1.88662,-0.082 -2.21473,-0.082 -1.88662,0 -3.3631,0.57419 -4.42945,1.72257 -1.39445,1.5585 -2.4608,4.42944 -3.28107,8.61281 -0.73824,3.77323 -1.14837,6.80822 -1.14837,9.02295 0,3.11702 0.73824,4.67553 2.13269,4.67553 1.31243,0 3.19905,-1.31243 5.65985,-3.93729 1.06635,-1.06635 1.96865,-2.1327 2.70689,-3.19905 0.3281,-2.37877 0.73824,-5.33174 1.06635,-8.85889 0.24608,-3.3631 0.90229,-5.90593 1.88661,-7.9566"
         id="path18"
         style="fill:#db0819;fill-opacity:1;stroke-width:0.820268" />
      <path
         class="st1"
         d="m 329.20084,220.28254 c -4.92161,7.38241 -7.6285,11.07362 -8.12066,11.07362 -0.082,0 -0.082,-0.082 -0.082,-0.24608 0,-0.32811 0.3281,-1.55851 0.98432,-3.69121 0.73824,-2.1327 1.06635,-3.60918 1.06635,-4.42945 0,-0.65621 -0.24608,-0.90229 -0.65622,-0.90229 -0.73824,0 -2.1327,1.06635 -4.34742,3.28107 -0.82027,0.82027 -1.72256,1.55851 -2.78891,2.21472 -1.72256,12.79618 -2.70689,19.2763 -2.87094,19.2763 l -6.7262,2.62486 c 0.082,-0.082 1.23041,-8.77687 3.3631,-26.16655 0.082,-0.32811 0.082,-0.65622 0.082,-0.98432 0,-0.82027 -0.24608,-1.2304 -0.65622,-1.2304 -0.3281,0 -0.98432,0.3281 -2.05067,1.06634 -0.98432,0.73825 -1.72256,1.06635 -2.05067,1.06635 l -0.73824,0.16406 c -0.3281,0.082 -0.57418,0 -0.65621,-0.16406 -0.16405,-0.49216 0.082,-0.90229 0.73824,-1.39445 2.54283,-1.72257 5.00364,-3.52716 7.54647,-5.24972 2.13269,-1.39445 3.52715,-2.1327 4.26539,-2.1327 0.82027,0 1.2304,0.73825 1.2304,2.29675 0,0.73825 -0.082,1.72257 -0.24608,2.95297 l -0.65621,4.42945 c 2.70688,-3.69121 5.00363,-6.23404 6.97228,-7.46444 2.21472,-1.47648 3.93728,-2.21473 5.16768,-2.21473 1.47649,0 2.21473,0.9023 2.21473,2.62486 -0.16406,1.2304 -0.41014,2.29675 -0.98432,3.19905"
         id="path20"
         style="fill:#db0819;fill-opacity:1;stroke-width:0.820268" />
      <path
         class="st0"
         d="m 338.05973,250.05827 c -2.54283,-1.64054 -4.42945,-3.93729 -5.8239,-6.89025 1.47648,-1.47649 3.85526,-3.69121 7.13633,-6.64418 1.14838,1.39446 3.03499,3.93729 5.65985,7.38242 -2.29675,2.70688 -4.67553,4.75755 -6.97228,6.15201"
         id="path22"
         style="fill:#10453b;fill-opacity:1;stroke-width:0.820268" />
      <path
         class="st0"
         d="m 376.61233,239.06668 v 0.24608 c 0,0.57418 -0.65621,1.2304 -1.88662,2.21472 -1.06635,0.73824 -2.13269,1.55851 -3.19904,2.29675 -4.42945,3.77323 -8.12066,5.74188 -11.23767,5.74188 -4.2654,0 -6.48012,-3.3631 -6.48012,-10.17133 0,-1.06635 0.082,-2.21472 0.16405,-3.44512 0.65622,-6.64417 2.46081,-11.89389 5.4958,-15.5851 3.11702,-3.93728 7.38241,-5.98795 12.79618,-6.23403 2.70688,-0.082 4.10134,0.82027 4.10134,2.62485 0,2.46081 -1.64054,5.41377 -5.00364,8.8589 -3.6912,3.85526 -7.21835,6.7262 -10.58145,8.69484 -0.16406,5.24972 1.47648,7.87457 5.00363,7.87457 1.72256,0 3.77323,-0.65621 6.23404,-1.96864 2.87094,-1.47648 4.18337,-2.21472 4.10134,-2.21472 0.082,0 0.24608,0.3281 0.49216,1.06635 m -7.21836,-15.01091 c 0.98432,-1.2304 1.47648,-2.37878 1.47648,-3.28107 0,-1.2304 -0.57418,-1.80459 -1.80459,-1.64054 h -2.78891 c -0.73824,0.082 -1.39445,0.65622 -1.96864,1.72257 -0.65622,1.2304 -1.39446,3.52715 -2.37878,6.97227 -0.24608,0.82027 -0.41013,1.80459 -0.65621,3.035 1.47648,-1.14838 3.03499,-2.29676 4.51147,-3.44513 1.72256,-1.31243 2.95297,-2.4608 3.60918,-3.3631"
         id="path24"
         style="fill:#10453b;fill-opacity:1;stroke-width:0.820268" />
      <path
         class="st0"
         d="m 399.33375,234.39115 c 0.41014,0.82027 0.65622,1.72256 0.65622,2.70688 0,3.03499 -2.05067,6.15201 -6.15201,9.35106 -1.06635,0.82027 -2.62486,1.55851 -4.67553,2.21472 -2.21472,0.65622 -4.26539,0.98432 -6.06998,0.98432 -3.3631,0 -5.00364,-1.14837 -5.00364,-3.3631 0,-1.31242 0.65622,-3.03499 1.88662,-5.08566 1.2304,-1.96864 2.05067,-2.95296 2.37878,-2.95296 0.16405,0 0.24608,0.16405 0.24608,0.49216 0,0.32811 -0.082,0.65621 -0.16406,0.98432 -0.082,0.32811 -0.16405,0.57419 -0.16405,0.9023 0,1.2304 0.73824,2.21472 2.1327,2.95296 1.31242,0.73824 2.87093,1.14838 4.67552,1.14838 1.47649,0 2.70689,-0.24608 3.77324,-0.82027 1.2304,-0.65622 1.80459,-1.47649 1.80459,-2.37878 0,-1.39446 -1.88662,-3.69121 -5.57783,-6.7262 -4.18336,-3.44512 -6.64417,-5.8239 -7.30038,-7.13633 -0.24608,-0.57419 -0.41014,-1.2304 -0.41014,-1.88662 0,-2.54283 1.55851,-5.08566 4.59351,-7.54646 3.19904,-2.62486 6.56214,-3.93729 10.17132,-3.93729 0.65621,0 1.2304,0.082 1.80459,0.16405 1.31243,0.24608 2.05067,1.14838 2.05067,2.87094 0,1.55851 -0.49216,3.60918 -1.55851,6.15201 -0.082,-0.082 -0.24608,-0.082 -0.41013,-0.082 -0.16406,0 -0.49217,0 -0.9023,0.082 -0.41013,0.082 -0.65621,0.082 -0.82027,0.082 -0.41013,0 -0.65621,-0.16405 -0.65621,-0.57419 0,-0.24608 0.082,-0.65621 0.24608,-1.14837 0.082,-0.24608 0.16405,-0.49216 0.16405,-0.73824 0,-1.39446 -1.39445,-2.1327 -4.18336,-2.1327 -1.31243,0 -2.46081,0.16405 -3.44513,0.57419 -1.2304,0.49216 -1.88662,1.14837 -1.88662,1.88661 0,1.06635 1.80459,2.95297 5.33175,5.74188 4.10134,3.19904 6.56214,5.57782 7.46443,7.21836"
         id="path26"
         style="fill:#10453b;fill-opacity:1;stroke-width:0.820268" />
      <path
         class="st1"
         d="m 407.1263,180.17143 c 46.01704,37.15814 73.90615,-9.26903 137.23085,14.76482 -69.96887,-11.23767 -116.14996,43.72029 -127.46966,55.86026 20.91684,-32.56464 -7.38241,-69.23062 -9.76119,-70.62508"
         id="path28"
         style="fill:#db0819;fill-opacity:1;stroke-width:0.820268" />
      <path
         class="st2"
         d="m 407.1263,180.17143 v 0 c 14.35469,11.64781 26.90479,15.09293 39.37287,15.09293 18.45603,0 36.50193,-7.54646 59.55146,-7.54646 11.3197,0 23.8698,1.80459 38.22449,7.30038 v -0.082 -0.082 c -6.39809,-1.06635 -12.63213,-1.47648 -18.70211,-1.47648 -59.46944,0 -98.5142,46.34514 -108.84957,57.41876 h 0.082 0.082 c 5.57782,-8.69484 7.71052,-17.71779 7.71052,-26.24858 0,-11.72983 -3.93729,-22.55737 -8.03863,-30.67802 -4.18336,-7.9566 -8.53078,-13.20632 -9.43308,-13.69848 v 0 0 0 c 0.82027,0.57419 5.16769,5.8239 9.35106,13.86253 4.10134,8.03863 8.03862,18.86617 8.03862,30.596 0,8.53079 -2.05067,17.47171 -7.71052,26.16655 l 0.082,0.082 c 10.25335,-11.07362 49.29811,-57.41877 108.76754,-57.41877 5.98796,0 12.222,0.49216 18.62009,1.47648 v -0.082 c -14.35469,-5.41377 -26.90479,-7.30039 -38.22449,-7.30039 -23.04953,0 -41.17746,7.54647 -59.55146,7.54647 -12.46808,0 -25.01818,-3.44513 -39.37287,-14.92888 z"
         id="path30"
         style="stroke-width:0.820268" />
      <path
         class="st0"
         d="m 426.4026,199.61178 c 31.33424,25.34629 50.36446,-6.31606 93.51056,10.0893 -47.65758,-7.62849 -79.15587,29.77573 -86.86639,38.06044 14.27267,-22.22927 -5.00363,-47.24744 -6.64417,-48.14974"
         id="path32"
         style="fill:#10453b;fill-opacity:1;stroke-width:0.820268" />
      <path
         class="st0"
         d="m 426.4026,199.61178 v 0 c 9.76119,7.9566 18.374,10.25335 26.82277,10.25335 12.5501,0 24.85412,-5.16769 40.60326,-5.16769 7.71052,0 16.24131,1.23041 26.0025,4.92161 v 0 0 c -4.34742,-0.73824 -8.61281,-1.06635 -12.71415,-1.06635 -40.52125,0 -67.17996,31.58032 -74.15224,39.12679 v 0 0 c 3.85526,-5.90593 5.24972,-12.05794 5.24972,-17.88184 0.082,-15.9132 -10.58146,-29.52965 -11.81186,-30.18587 v 0 0 0 c 1.14838,0.73824 11.89389,14.35469 11.81186,30.26789 0,5.82391 -1.39446,11.89389 -5.24972,17.88185 l 0.082,0.082 c 6.97228,-7.54646 33.63099,-39.12678 74.07021,-39.12678 4.10134,0 8.36673,0.32811 12.71415,1.06635 v -0.082 c -9.76119,-3.69121 -18.374,-4.92161 -26.08452,-4.92161 -15.74915,0 -28.05317,5.16769 -40.60327,5.16769 -8.36674,-0.16405 -16.97955,-2.4608 -26.74074,-10.33538 z"
         id="path34"
         style="fill:#10453b;fill-opacity:1;stroke-width:0.820268" />
    </g>
  </g>
</svg>
