<?xml version="1.0" encoding="UTF-8" standalone="no"?>
<!-- Created with Inkscape (http://www.inkscape.org/) -->

<svg
   xmlns:dc="http://purl.org/dc/elements/1.1/"
   xmlns:cc="http://creativecommons.org/ns#"
   xmlns:rdf="http://www.w3.org/1999/02/22-rdf-syntax-ns#"
   xmlns:svg="http://www.w3.org/2000/svg"
   xmlns="http://www.w3.org/2000/svg"
   xmlns:sodipodi="http://sodipodi.sourceforge.net/DTD/sodipodi-0.dtd"
   xmlns:inkscape="http://www.inkscape.org/namespaces/inkscape"
   width="249.21239"
   height="56.934029"
   viewBox="0 0 65.937445 15.063795"
   version="1.1"
   id="svg17301"
   inkscape:version="0.92.0 r15299"
   sodipodi:docname="loganair.svg">
  <defs
     id="defs17295" />
  <sodipodi:namedview
     id="base"
     pagecolor="#ffffff"
     bordercolor="#666666"
     borderopacity="1.0"
     inkscape:pageopacity="0.0"
     inkscape:pageshadow="2"
     inkscape:zoom="3.2441741"
     inkscape:cx="124.60619"
     inkscape:cy="28.467014"
     inkscape:document-units="mm"
     inkscape:current-layer="layer1"
     showgrid="false"
     fit-margin-top="0"
     fit-margin-left="0"
     fit-margin-right="0"
     fit-margin-bottom="0"
     units="px"
     inkscape:window-width="1280"
     inkscape:window-height="744"
     inkscape:window-x="-4"
     inkscape:window-y="-4"
     inkscape:window-maximized="1" />
  <metadata
     id="metadata17298">
    <rdf:RDF>
      <cc:Work
         rdf:about="">
        <dc:format>image/svg+xml</dc:format>
        <dc:type
           rdf:resource="http://purl.org/dc/dcmitype/StillImage" />
        <dc:title></dc:title>
      </cc:Work>
    </rdf:RDF>
  </metadata>
  <g
     inkscape:label="Layer 1"
     inkscape:groupmode="layer"
     id="layer1"
     transform="translate(56.138662,-141.03686)">
    <g
       id="g17450"
       transform="translate(0.26458369,-0.26457746)">
      <path
         inkscape:connector-curvature="0"
         id="path16168"
         style="fill:#000000;fill-opacity:1;fill-rule:nonzero;stroke:none;stroke-width:0.42728445"
         d="m -51.951274,141.58542 h 2.291526 l 9.588264,8.29274 v 2.01379 z" />
      <path
         inkscape:connector-curvature="0"
         id="path16172"
         style="fill:#000000;fill-opacity:1;fill-rule:nonzero;stroke:none;stroke-width:0.42728445"
         d="m -47.926682,141.58542 h 2.291527 l 5.563671,4.76465 v 2.02533 z" />
      <path
         inkscape:connector-curvature="0"
         id="path16176"
         style="fill:#000000;fill-opacity:1;fill-rule:nonzero;stroke:none;stroke-width:0.42728445"
         d="m -43.902174,141.58542 h 2.291526 l 1.539079,1.281 v 2.02533 z" />
      <g
         style="fill:#000000"
         id="g16186"
         transform="matrix(0.42728444,0,0,-0.42728444,-37.548755,154.82311)">
        <path
           d="m 0,0 h 0.869 v -0.566 c 0,-0.787 0.359,-1.164 1.512,-1.164 h 2.872 c 1.342,0 1.739,0.333 1.739,1.486 0,1.009 -0.34,1.264 -1.493,1.264 H 3.742 c -2.825,0 -3.751,0.2 -3.751,2.33 0,1.83 0.926,2.241 2.834,2.241 h 1.994 c 2.296,0 2.872,-0.688 2.872,-2.119 V 3.195 H 6.822 C 6.803,4.47 6.69,4.703 4.261,4.703 H 3.279 C 1.493,4.703 0.86,4.592 0.86,3.272 0.86,2.318 1.115,1.997 2.561,1.997 h 2.74 c 1.804,0 2.56,-0.611 2.56,-1.975 v -0.521 c 0,-1.975 -1.379,-2.119 -2.749,-2.119 H 2.542 C 1.191,-2.618 0,-2.341 0,-0.588 Z"
           style="fill:#000000;fill-opacity:1;fill-rule:nonzero;stroke:none"
           id="path16188"
           inkscape:connector-curvature="0" />
      </g>
      <g
         style="fill:#000000"
         id="g16190"
         transform="matrix(0.42728444,0,0,-0.42728444,-33.644698,154.42507)">
        <path
           d="m 0,0 c 0,2.052 1.228,2.285 2.419,2.285 h 1.36 c 1.512,0 2.107,-0.721 2.107,-1.919 V 0.211 H 5.131 v 0.133 c 0,0.943 -0.529,1.165 -1.342,1.165 H 2.296 C 1.531,1.509 0.813,1.376 0.813,-0.033 V -1.22 c 0,-1.264 0.661,-1.553 1.644,-1.553 h 1.37 c 0.756,0 1.389,0.266 1.389,1.187 v 0.189 H 5.972 V -1.564 C 5.972,-2.995 5.367,-3.55 3.855,-3.55 H 2.022 C 1.294,-3.55 0,-3.316 0,-1.264 Z"
           style="fill:#000000;fill-opacity:1;fill-rule:nonzero;stroke:none"
           id="path16192"
           inkscape:connector-curvature="0" />
      </g>
      <g
         style="fill:#000000"
         id="g16194"
         transform="matrix(0.42728444,0,0,-0.42728444,-30.628924,154.42967)">
        <path
           d="M 0,0 C 0,1.863 1.124,2.296 2.664,2.296 H 3.827 C 5.367,2.296 6.491,1.863 6.491,0 v -1.242 c 0,-1.864 -1.124,-2.297 -2.664,-2.297 H 2.664 C 1.124,-3.539 0,-3.106 0,-1.242 Z m 5.679,-0.056 c 0,1.32 -0.662,1.576 -1.607,1.576 H 2.419 C 1.474,1.52 0.813,1.264 0.813,-0.056 v -1.131 c 0,-1.32 0.661,-1.575 1.606,-1.575 h 1.653 c 0.945,0 1.607,0.255 1.607,1.575 z"
           style="fill:#000000;fill-opacity:1;fill-rule:nonzero;stroke:none"
           id="path16196"
           inkscape:connector-curvature="0" />
      </g>
      <g
         style="fill:#000000"
         id="g16198"
         transform="matrix(0.42728444,0,0,-0.42728444,-27.084302,153.81835)">
        <path
           d="M 0,0 H -1.058 V 0.777 H 0 V 2.119 H 0.812 V 0.777 H 4.035 V 0 H 0.812 v -2.817 c 0,-1.054 0.312,-1.376 1.2,-1.376 h 0.256 c 1.077,0 1.247,0.266 1.247,1.453 v 0.422 h 0.661 v -0.621 c 0,-1.132 -0.094,-2.03 -1.852,-2.03 H 1.88 C 0.359,-4.969 0,-4.104 0,-3.183 Z"
           style="fill:#000000;fill-opacity:1;fill-rule:nonzero;stroke:none"
           id="path16200"
           inkscape:connector-curvature="0" />
      </g>
      <path
         d="m -24.827427,155.90398 h 0.346953 v -3.43152 h -0.346953 z"
         style="fill:#000000;fill-opacity:1;fill-rule:nonzero;stroke:none;stroke-width:0.42728445"
         id="path16202"
         inkscape:connector-curvature="0" />
      <g
         style="fill:#000000"
         id="g16212"
         transform="matrix(0.42728444,0,0,-0.42728444,-21.650313,155.66197)">
        <path
           d="m 0,0 h -0.019 c -0.217,-0.51 -0.472,-0.655 -1.72,-0.655 h -1.946 c -1.228,0 -1.55,0.633 -1.55,1.697 V 1.42 c 0,1.286 0.775,1.442 2.192,1.442 h 1.304 c 1.059,0 1.437,-0.133 1.72,-0.677 H 0 V 3.25 c 0,1.02 -0.548,1.153 -1.795,1.153 h -1.191 c -1.02,0 -1.219,-0.288 -1.219,-0.754 v -0.2 h -0.812 v 0.278 c 0,1.032 0.557,1.453 2.012,1.453 h 1.285 c 1.512,0 2.533,-0.266 2.533,-1.952 V -0.566 H 0 Z M 0,1.209 C 0,1.986 -0.586,2.085 -1.833,2.085 H -3.08 c -1.049,0 -1.342,-0.177 -1.342,-0.887 V 1.021 c 0,-0.633 0.189,-0.899 1.304,-0.899 h 1.077 C -0.567,0.122 0,0.244 0,0.954 Z"
           style="fill:#000000;fill-opacity:1;fill-rule:nonzero;stroke:none"
           id="path16214"
           inkscape:connector-curvature="0" />
      </g>
      <g
         style="fill:#000000"
         id="g16216"
         transform="matrix(0.42728444,0,0,-0.42728444,-20.689521,153.48646)">
        <path
           d="M 0,0 H 0.756 V -0.976 H 0.775 C 1.077,-0.1 1.71,0.088 2.721,0.088 H 3.94 c 1.521,0 2.003,-0.898 2.003,-1.919 V -5.657 H 5.131 v 3.594 c 0,0.832 -0.199,1.375 -1.777,1.375 H 3.147 c -1.9,0 -2.334,-0.421 -2.334,-1.753 V -5.657 H 0 Z"
           style="fill:#000000;fill-opacity:1;fill-rule:nonzero;stroke:none"
           id="path16218"
           inkscape:connector-curvature="0" />
      </g>
      <g
         style="fill:#000000"
         id="g16220"
         transform="matrix(0.42728444,0,0,-0.42728444,-14.956731,155.90377)">
        <path
           d="M 0,0 H -0.756 V 0.898 H -0.775 C -1.011,0.211 -1.672,-0.089 -2.523,-0.089 h -1.133 c -1.475,0 -2.504,0.433 -2.504,2.385 v 0.998 c 0,1.809 0.595,2.452 2.551,2.452 h 1.238 c 0.926,0 1.369,-0.255 1.54,-0.843 h 0.019 V 8.031 H 0 Z m -5.348,2.307 c 0,-1.098 0.293,-1.619 1.616,-1.619 h 1.323 c 1.209,0 1.597,0.599 1.597,1.63 v 1.076 c 0,1.354 -0.671,1.575 -1.767,1.575 h -1.096 c -1.115,0 -1.673,-0.244 -1.673,-1.553 z"
           style="fill:#000000;fill-opacity:1;fill-rule:nonzero;stroke:none"
           id="path16222"
           inkscape:connector-curvature="0" />
      </g>
      <g
         style="fill:#000000"
         id="g16224"
         transform="matrix(0.42728444,0,0,-0.42728444,-13.854551,153.05998)">
        <path
           d="m 0,0 c 0,-0.788 -0.142,-1.309 -1.058,-1.309 v 0.643 c 0.33,0 0.415,0.134 0.415,0.6 H -1.001 V 1.375 H 0 Z"
           style="fill:#000000;fill-opacity:1;fill-rule:nonzero;stroke:none"
           id="path16226"
           inkscape:connector-curvature="0" />
      </g>
      <g
         style="fill:#000000"
         id="g16228"
         transform="matrix(0.42728444,0,0,-0.42728444,-13.430172,155.06967)">
        <path
           d="m 0,0 h 0.756 v -0.277 c 0,-0.699 0.312,-0.987 1.143,-0.987 h 1.739 c 1.219,0 1.606,0.055 1.606,0.898 v 0.044 c 0,0.544 -0.132,0.843 -1.105,0.843 H 1.635 c -1.144,0 -1.569,0.433 -1.569,1.509 v 0.333 c 0,0.921 0.444,1.431 2.447,1.431 h 1.248 c 1.833,0 2.088,-0.622 2.088,-1.42 V 2.075 H 5.093 V 2.13 c 0,0.865 -0.491,0.887 -1.38,0.887 H 2.296 C 1.134,3.017 0.879,2.884 0.879,2.241 V 2.03 c 0,-0.466 0.132,-0.732 0.982,-0.732 h 2.145 c 1.219,0 2.051,-0.144 2.051,-1.675 v -0.022 c 0,-1.586 -1.248,-1.642 -2.24,-1.642 H 2.324 c -1.2,0 -2.324,0 -2.324,1.697 z"
           style="fill:#000000;fill-opacity:1;fill-rule:nonzero;stroke:none"
           id="path16230"
           inkscape:connector-curvature="0" />
      </g>
      <path
         inkscape:connector-curvature="0"
         id="path16234"
         style="fill:#000000;fill-opacity:1;fill-rule:nonzero;stroke:none;stroke-width:0.42728445"
         d="m -6.8495193,152.47237 h 0.492659 l 1.736056,3.43152 h -0.448223 l -0.363617,-0.72553 h -2.34152 l -0.363191,0.72553 h -0.448222 z m 0.246115,0.379 -0.981046,1.94799 h 1.962092 z" />
      <path
         d="m -4.1853163,152.91769 h 0.347382 v -0.44523 h -0.347382 z m 0,2.98629 h 0.347382 v -2.41715 h -0.347382 z"
         style="fill:#000000;fill-opacity:1;fill-rule:nonzero;stroke:none;stroke-width:0.42728445"
         id="path16236"
         inkscape:connector-curvature="0" />
      <g
         style="fill:#000000"
         id="g16246"
         transform="matrix(0.42728444,0,0,-0.42728444,-3.1070653,153.48646)">
        <path
           d="m 0,0 h 0.756 v -0.821 h 0.019 c 0.302,0.732 0.916,0.909 1.474,0.909 h 0.765 c 1.521,0 2.022,-0.576 2.022,-1.963 V -2.551 H 4.28 v 0.244 c 0,1.397 -0.245,1.619 -1.691,1.619 H 2.088 c -0.86,0 -1.275,-0.643 -1.275,-1.375 V -5.657 H 0 Z"
           style="fill:#000000;fill-opacity:1;fill-rule:nonzero;stroke:none"
           id="path16248"
           inkscape:connector-curvature="0" />
      </g>
      <path
         d="m -0.49486031,155.90398 h 0.347382 v -3.43152 h -0.347382 z"
         style="fill:#000000;fill-opacity:1;fill-rule:nonzero;stroke:none;stroke-width:0.42728445"
         id="path16250"
         inkscape:connector-curvature="0" />
      <path
         d="m 0.60283269,152.91769 h 0.347382 v -0.44523 h -0.347382 z m 0,2.98629 h 0.347382 v -2.41715 h -0.347382 z"
         style="fill:#000000;fill-opacity:1;fill-rule:nonzero;stroke:none;stroke-width:0.42728445"
         id="path16252"
         inkscape:connector-curvature="0" />
      <g
         style="fill:#000000"
         id="g16262"
         transform="matrix(0.42728444,0,0,-0.42728444,1.6526247,153.48646)">
        <path
           d="M 0,0 H 0.756 V -0.976 H 0.775 C 1.077,-0.1 1.71,0.088 2.721,0.088 H 3.94 c 1.521,0 2.003,-0.898 2.003,-1.919 V -5.657 H 5.131 v 3.594 c 0,0.832 -0.199,1.375 -1.777,1.375 H 3.146 c -1.899,0 -2.333,-0.421 -2.333,-1.753 V -5.657 H 0 Z"
           style="fill:#000000;fill-opacity:1;fill-rule:nonzero;stroke:none"
           id="path16264"
           inkscape:connector-curvature="0" />
      </g>
      <g
         style="fill:#000000"
         id="g16266"
         transform="matrix(0.42728444,0,0,-0.42728444,4.7532587,154.42507)">
        <path
           d="m 0,0 c 0,2.052 1.209,2.285 2.362,2.285 h 1.304 c 1.455,0 2.504,-0.432 2.504,-2.451 V -0.799 H 0.812 v -0.354 c 0,-1.287 0.529,-1.62 1.947,-1.62 h 1.115 c 1.02,0 1.436,0.156 1.483,1.021 H 6.17 V -1.863 C 6.17,-3.161 5.253,-3.55 3.741,-3.55 H 2.268 C 1.209,-3.55 0,-3.316 0,-1.231 Z m 5.357,0.355 c 0,0.577 -0.368,1.154 -1.691,1.154 H 2.475 C 1.19,1.509 0.888,1.265 0.812,-0.022 h 4.545 z"
           style="fill:#000000;fill-opacity:1;fill-rule:nonzero;stroke:none"
           id="path16268"
           inkscape:connector-curvature="0" />
      </g>
    </g>
    <g
       id="g17470"
       style="fill:#e2241c;fill-opacity:1"
       transform="translate(0.26458369,-0.26457746)">
      <g
         style="fill:#e2241c;fill-opacity:1"
         id="g16270"
         transform="matrix(0.42728444,0,0,-0.42728444,-40.110795,156.10065)">
        <path
           d="m 0,0 v 3.346 h -20.546 c -7.522,0.003 -13.619,6.102 -13.619,13.625 l 0.008,17.022 h -3.354 L -37.51,16.997 C -37.511,7.591 -29.945,0 -20.537,0 Z"
           style="fill:#e2241c;fill-opacity:1;fill-rule:nonzero;stroke:none"
           id="path16272"
           inkscape:connector-curvature="0" />
      </g>
      <g
         style="fill:#e2241c;fill-opacity:1"
         id="g16274"
         transform="matrix(0.42728444,0,0,-0.42728444,-48.88867,153.59668)">
        <path
           d="m 0,0 c -6.112,0.002 -11.067,4.997 -11.067,11.11 0,0.003 0,0.007 0.002,0.009 l 0.006,17.006 h 3.412 V 11.119 c 0,-4.233 3.418,-7.672 7.65,-7.672 H 0.034 L 20.543,3.464 V 0 Z"
           style="fill:#e2241c;fill-opacity:1;fill-rule:nonzero;stroke:none"
           id="path16276"
           inkscape:connector-curvature="0" />
      </g>
      <path
         inkscape:connector-curvature="0"
         id="path16280"
         style="fill:#e2241c;fill-opacity:1;fill-rule:nonzero;stroke:none;stroke-width:0.42728445"
         d="m -36.419398,149.11678 h 4.470677 v 0.83919 h -5.465395 v -8.38973 h 0.994718 z" />
      <g
         style="fill:#e2241c;fill-opacity:1"
         id="g16290"
         transform="matrix(0.42728444,0,0,-0.42728444,-28.426105,144.01599)">
        <path
           d="m 0,0 c 5.341,0 6.382,-1.231 6.382,-7.042 0,-5.786 -1.041,-7.016 -6.382,-7.016 -5.341,0 -6.382,1.23 -6.382,7.016 C -6.382,-1.231 -5.341,0 0,0 m 0,-12.383 c 3.862,0 4.136,0.576 4.136,5.341 0,4.791 -0.274,5.366 -4.136,5.366 -3.862,0 -4.136,-0.575 -4.136,-5.366 0,-4.765 0.274,-5.341 4.136,-5.341"
           style="fill:#e2241c;fill-opacity:1;fill-rule:nonzero;stroke:none"
           id="path16292"
           inkscape:connector-curvature="0" />
      </g>
      <g
         style="fill:#e2241c;fill-opacity:1"
         id="g16294"
         transform="matrix(0.42728444,0,0,-0.42728444,-19.145572,150.64928)">
        <path
           d="m 0,0 c 0,-3.665 -2.849,-4.477 -6.327,-4.477 -3.341,0 -5.971,0.498 -5.752,4.477 h 2.164 c 0,-2.644 1.315,-2.801 3.588,-2.801 2.575,0 4.136,0.262 4.163,2.958 v 3.168 h -0.055 c -0.602,-1.676 -2.93,-1.859 -4.628,-1.859 -4.656,0 -5.67,2.304 -5.67,7.016 0,4.581 0.74,7.042 5.67,7.042 1.999,0 3.779,-0.261 4.628,-1.911 l 0.055,0.026 v 1.728 H 0 Z m -2.164,8.482 c 0,3.822 -0.274,5.367 -4.163,5.367 -3.999,0 -3.944,-1.754 -3.944,-5.367 0,-3.298 -0.246,-5.341 3.944,-5.341 4.163,0 4.163,2.278 4.163,5.341"
           style="fill:#e2241c;fill-opacity:1;fill-rule:nonzero;stroke:none"
           id="path16296"
           inkscape:connector-curvature="0" />
      </g>
      <g
         style="fill:#e2241c;fill-opacity:1"
         id="g16298"
         transform="matrix(0.42728444,0,0,-0.42728444,-13.422611,149.9558)">
        <path
           d="m 0,0 v 1.414 l -0.055,0.052 c -0.821,-1.571 -2.93,-1.623 -4.738,-1.623 -3.232,0 -5.478,0.576 -5.478,4.163 0,3.796 2.054,4.319 5.615,4.319 1.424,0 4.218,-0.131 4.519,-1.387 H 0 v 2.539 c 0,2.513 -1.397,2.749 -3.834,2.749 -1.699,0 -3.78,0 -3.753,-1.885 V 9.87 h -2.246 v 0.288 c 0,3.534 2.547,3.77 5.752,3.743 3.615,0.027 6.272,-0.34 6.245,-4.529 L 2.164,0 Z m -0.055,4.084 c 0,2.592 -1.616,2.566 -4.355,2.566 -2.574,0 -3.615,-0.157 -3.615,-2.382 0,-2.618 1.123,-2.75 3.615,-2.75 2.164,0 4.355,0.053 4.355,2.566"
           style="fill:#e2241c;fill-opacity:1;fill-rule:nonzero;stroke:none"
           id="path16300"
           inkscape:connector-curvature="0" />
      </g>
      <g
         style="fill:#e2241c;fill-opacity:1"
         id="g16302"
         transform="matrix(0.42728444,0,0,-0.42728444,-9.9819423,144.79902)">
        <path
           d="m 0,0 h 0.055 c 0.685,1.649 2.794,1.833 4.437,1.833 3.697,0 5.478,-0.943 5.423,-4.765 v -9.137 H 7.751 v 9.294 C 7.751,-0.262 6.738,0.157 4.3,0.157 0.767,0.157 0,-0.89 0,-4.058 v -8.011 H -2.164 V 1.676 H 0 Z"
           style="fill:#e2241c;fill-opacity:1;fill-rule:nonzero;stroke:none"
           id="path16304"
           inkscape:connector-curvature="0" />
      </g>
      <g
         style="fill:#e2241c;fill-opacity:1"
         id="g16306"
         transform="matrix(0.42728444,0,0,-0.42728444,0.03582569,149.9558)">
        <path
           d="m 0,0 v 1.414 l -0.055,0.052 c -0.822,-1.571 -2.93,-1.623 -4.738,-1.623 -3.232,0 -5.478,0.576 -5.478,4.163 0,3.796 2.054,4.319 5.615,4.319 1.424,0 4.218,-0.131 4.519,-1.387 H 0 v 2.539 c 0,2.513 -1.397,2.749 -3.834,2.749 -1.699,0 -3.78,0 -3.753,-1.885 V 9.87 h -2.246 v 0.288 c 0,3.534 2.547,3.77 5.752,3.743 3.615,0.027 6.272,-0.34 6.245,-4.529 L 2.164,0 Z m -0.055,4.084 c 0,2.592 -1.616,2.566 -4.355,2.566 -2.574,0 -3.615,-0.157 -3.615,-2.382 0,-2.618 1.123,-2.75 3.615,-2.75 2.164,0 4.355,0.053 4.355,2.566"
           style="fill:#e2241c;fill-opacity:1;fill-rule:nonzero;stroke:none"
           id="path16308"
           inkscape:connector-curvature="0" />
      </g>
      <path
         d="m 3.4647827,142.53938 h -0.924642 v -0.97336 h 0.924642 z m 0,7.41637 h -0.924642 v -5.87259 h 0.924642 z"
         style="fill:#e2241c;fill-opacity:1;fill-rule:nonzero;stroke:none;stroke-width:0.42728445"
         id="path16310"
         inkscape:connector-curvature="0" />
      <g
         style="fill:#e2241c;fill-opacity:1"
         id="g16320"
         transform="matrix(0.42728444,0,0,-0.42728444,5.8406567,144.08306)">
        <path
           d="m 0,0 -0.109,-1.702 0.054,-0.052 c 0.74,1.518 2.465,1.911 4.081,1.911 2.766,0 3.999,-1.309 3.999,-3.874 V -4.712 H 5.971 v 0.916 c 0,1.702 -0.603,2.278 -2.41,2.278 -2.685,0 -3.561,-1.231 -3.506,-3.666 v -8.56 H -2.109 V 0 Z"
           style="fill:#e2241c;fill-opacity:1;fill-rule:nonzero;stroke:none"
           id="path16322"
           inkscape:connector-curvature="0" />
      </g>
    </g>
  </g>
</svg>
