<?xml version="1.0" encoding="UTF-8" standalone="no"?>
<svg
   xmlns:dc="http://purl.org/dc/elements/1.1/"
   xmlns:cc="http://creativecommons.org/ns#"
   xmlns:rdf="http://www.w3.org/1999/02/22-rdf-syntax-ns#"
   xmlns:svg="http://www.w3.org/2000/svg"
   xmlns="http://www.w3.org/2000/svg"
   version="1.1"
   id="Layer_1"
   x="0px"
   y="0px"
   viewBox="0 0 500 160.00001"
   xml:space="preserve"
   width="500"
   height="160"><metadata
     id="metadata31"><rdf:RDF><cc:Work
         rdf:about=""><dc:format>image/svg+xml</dc:format><dc:type
           rdf:resource="http://purl.org/dc/dcmitype/StillImage" /><dc:title></dc:title><cc:license
           rdf:resource="http://scripts.sil.org/OFL" /></cc:Work><cc:License
         rdf:about="http://scripts.sil.org/OFL"><cc:permits
           rdf:resource="http://scripts.sil.org/pub/OFL/Reproduction" /><cc:permits
           rdf:resource="http://scripts.sil.org/pub/OFL/Distribution" /><cc:permits
           rdf:resource="http://scripts.sil.org/pub/OFL/Embedding" /><cc:permits
           rdf:resource="http://scripts.sil.org/pub/OFL/DerivativeWorks" /><cc:requires
           rdf:resource="http://scripts.sil.org/pub/OFL/Notice" /><cc:requires
           rdf:resource="http://scripts.sil.org/pub/OFL/Attribution" /><cc:requires
           rdf:resource="http://scripts.sil.org/pub/OFL/ShareAlike" /><cc:requires
           rdf:resource="http://scripts.sil.org/pub/OFL/DerivativeRenaming" /><cc:requires
           rdf:resource="http://scripts.sil.org/pub/OFL/BundlingWhenSelling" /></cc:License></rdf:RDF></metadata><defs
     id="defs29" /><path
     d="M 80.847474,38.405827 37.194388,22.896679 C 32.743663,21.22116 30.275202,18.738571 30.275202,14.047131 V 5.7828255 c 0,-2.095571 1.576425,-1.3073677 3.563433,-0.5569323 14.513271,5.3522078 60.785827,21.7297938 64.660768,23.1551518 0.500285,0.179359 0.906193,0.363418 1.227111,0.594689 1.316816,1.000596 -0.108664,2.628914 -4.823572,4.356345 -0.835403,0.287894 -6.286727,2.265486 -14.055468,5.073748 m 0.05209,26.916808 c 7.461946,-2.709143 13.026547,-4.729203 14.00354,-5.087905 5.465486,-1.972859 6.395256,-3.903244 4.01649,-4.790557 0.08953,0.05192 0.19363,0.08494 0.311514,0.132141 -0.231159,-0.103823 -0.462517,-0.22184 -0.731545,-0.292638 -0.797666,-0.320954 -4.318587,-1.55752 -9.500886,-3.435983 -5.942191,2.152211 -14.187605,5.1351 -22.650154,8.198227 z M 8.1349783,62.009361 c 0.1037172,1.996459 0.9345136,2.260768 3.0631157,1.61416 1.033628,-0.37286 2.55338,-0.925073 4.455468,-1.61416 0.476673,-0.174619 0.976991,-0.358701 1.500885,-0.54277 h 0.0177 C 20.405178,60.281928 24.52553,58.814084 29.160361,57.110247 21.58514,54.358626 14.571551,51.847713 10.739126,50.408184 9.0211085,49.785177 8.1338184,50.247725 8.1338184,52.244174 v 7.792327 z M 15.016394,41.473671 43.70782,51.876033 C 51.198083,49.148008 59.080099,46.301992 66.362683,43.649489 45.14736,35.989305 19.835259,26.828251 11.637031,23.798151 9.6735982,23.080749 8.0830501,22.264235 8.0830501,24.369251 V 32.6194 c 0,4.682007 2.4731679,7.169307 6.9333439,8.854271"
     style="fill:#ed1651;fill-opacity:1;fill-rule:nonzero;stroke:none;stroke-width:4.71975"
     id="path3492" /><path
     d="M 97.898088,75.537146 29.980689,100.16959 V 83.768414 c 0,0 61.432444,-22.234806 64.929793,-23.528019 5.470188,-1.968141 6.390548,-3.907964 3.974054,-4.795281 2.458964,0.910916 2.416494,1.189381 2.416494,8.438937 0,7.79705 -0.19363,10.477872 -3.402942,11.653095 M 45.773041,138.03624 c 0,-3.42182 0.387008,-6.3528 -2.657239,-5.26725 l -13.120953,4.79056 v 16.27846 L 42.3512,149.40143 c 3.22361,-1.17993 3.421841,-3.43597 3.421841,-6.8814 z m 20.460172,-34.23715 c 0,-3.41712 0.368141,-6.343367 -2.671399,-5.276696 L 29.994849,110.69466 v 16.27374 l 32.802364,-11.81828 c 3.228319,-1.16579 3.436,-3.43599 3.436,-6.87198 z M 98.884536,28.537737 c 2.539224,0.877883 1.496134,2.789384 -3.974054,4.785842 -2.855476,1.043075 -57.5339,20.828321 -77.734497,28.143955 h -0.01063 c -0.533308,0.184071 -1.033627,0.368142 -1.500885,0.528613 -1.925663,0.703246 -3.435962,1.255458 -4.469591,1.628318 -2.1144774,0.660769 -2.9592913,0.396459 -3.0631502,-1.628318 0,1.255458 -0.037886,3.752211 2.1475042,4.554572 l 17.812385,6.475514 c 0,0 1.274335,0.396459 2.468424,-0.02372 1.618903,-0.552212 67.336871,-24.382294 67.336871,-24.382294 3.209457,-1.179931 3.402947,-3.874928 3.402947,-11.681428 0,-7.249553 0,-7.565769 -2.416501,-8.401162"
     style="fill:#1c0089;fill-opacity:1;fill-rule:nonzero;stroke:none;stroke-width:4.71975"
     id="path3496" /><path
     d="m 287.34749,83.315318 h 14.83425 V 42.050426 l 25.87371,-1.694398 V 29.689369 h -66.56282 v 10.666659 l 25.85486,1.694398 z m -106.86485,0 6.09791,-12.351624 H 150.63486 V 29.689369 H 135.2201 v 53.625949 z m 57.25542,-20.71504 h -19.95515 l 10.07671,-21.484369 z m 133.88082,0 h -19.96934 l 10.07671,-21.484369 z m 67.69556,7.584656 c 0.55692,1.916227 2.87904,3.237758 5.33806,3.237758 h 15.39585 l 11.40294,-31.556348 10.84601,41.448974 h 14.44248 l -11.98347,-47.53745 c -1.11388,-4.73393 -3.78053,-6.088499 -8.17463,-6.088499 h -14.99943 l -10.84126,31.381705 -8.54751,-26.638341 c -1.16107,-3.388795 -3.25191,-4.743364 -6.68789,-4.743364 h -16.90618 l -13.89026,53.625949 h 14.63125 l 10.66194,-41.448974 z m -57.61413,13.130384 h 16.16045 L 372.38349,33.125353 c -1.34514,-2.487311 -2.6667,-3.435984 -5.7062,-3.435984 h -14.10264 l -26.79413,53.625949 h 16.34927 l 4.75752,-9.892626 h 30.05072 z m -134.07907,0 H 263.9705 L 238.50741,33.125353 c -1.34988,-2.487311 -2.67141,-3.435984 -5.72981,-3.435984 h -14.06964 l -26.80823,53.625949 h 16.34928 l 4.7575,-9.892626 h 30.04603 z"
     style="fill:#1c0089;fill-opacity:1;fill-rule:nonzero;stroke:none;stroke-width:4.71975"
     id="path3504" /><path
     id="path3500"
     style="fill:#1c0089;fill-opacity:1;fill-rule:nonzero;stroke:none;stroke-width:4.98743"
     d="m 383.63546,107.70009 c -12.85843,0 -23.34024,10.4795 -23.34024,23.33793 0,12.85843 10.48181,23.34024 23.34024,23.34024 12.85843,0 23.33793,-10.48181 23.33793,-23.34024 0,-12.85843 -10.4795,-23.33793 -23.33793,-23.33793 z m -224.56851,0.89007 c -3.37834,0.0639 -6.73769,0.57837 -9.88997,1.62335 -8.40611,2.78662 -15.23733,10.01004 -15.23733,21.63157 0,10.58873 6.3803,18.05454 14.70928,21.21652 8.32897,3.16197 18.57366,2.46678 27.36401,-2.13757 l -2.44424,-4.66481 c -7.46981,3.91264 -16.33455,4.4286 -23.0497,1.8793 -6.71514,-2.5493 -11.31271,-7.71553 -11.31271,-16.29344 0,-9.70636 4.80527,-14.37046 11.62862,-16.63239 6.82336,-2.26194 15.76226,-1.45717 22.36485,1.30974 l 2.0361,-4.85621 c -3.88554,-1.62829 -8.29818,-2.68855 -12.79078,-2.99304 -1.12316,-0.0761 -2.25203,-0.1043 -3.37813,-0.083 z m 170.50226,0 c -3.37834,0.0639 -6.73768,0.57837 -9.88998,1.62335 -8.40609,2.78662 -15.23733,10.01004 -15.23733,21.63157 0,10.58873 6.38261,18.05454 14.71159,21.21652 8.32898,3.16197 18.57136,2.46679 27.36172,-2.13757 l -0.002,-0.002 v -0.002 -17.53168 h -5.26666 v 14.1674 c -6.80171,2.69759 -14.33983,2.81758 -20.22498,0.58339 -6.71513,-2.54931 -11.3127,-7.71553 -11.3127,-16.29345 0,-9.70635 4.80526,-14.37045 11.62861,-16.63239 6.82335,-2.26194 15.76457,-1.45716 22.36715,1.30975 l 2.0338,-4.85621 c -3.88553,-1.62829 -8.29817,-2.68855 -12.79077,-2.99305 -1.12316,-0.0761 -2.25203,-0.1043 -3.37814,-0.083 z m -122.23303,0.0438 -22.94593,45.53905 h 5.64943 l 5.67712,-11.55482 h 29.34478 l 5.76011,11.55482 h 5.49264 l -22.57469,-44.58672 c -0.3591,-0.73316 -0.91715,-0.95233 -1.69022,-0.95233 z m 42.88959,0.18447 v 45.35458 h 5.26666 v -15.9729 c 3.69073,1.52116 8.78828,2.56876 14.16971,2.56876 2.35411,0 4.46312,-0.18627 6.46803,-0.56033 l 9.07137,13.96447 h 6.00685 l -9.99143,-15.31112 c 7.01237,-2.7032 10.70396,-8.2693 10.70396,-15.58091 0,-8.60335 -6.29354,-14.46255 -17.79458,-14.46255 z m 133.40969,4.1483 c 10.01271,0 18.07358,8.05856 18.07358,18.07127 0,10.01272 -8.06087,18.07358 -18.07358,18.07358 -10.01272,0 -18.07358,-8.06086 -18.07358,-18.07358 0,-10.01271 8.06086,-18.07127 18.07358,-18.07127 z m -173.28087,0.0161 12.77233,25.85366 h -25.54697 z m 45.13784,0.1153 h 18.14507 c 9.8153,0 13.32575,5.03091 13.32575,10.48719 0,6.82283 -4.52966,12.74928 -17.00826,12.74928 -5.31164,0 -10.5873,-0.90795 -14.46256,-2.35432 z" /></svg>
