<svg xmlns="http://www.w3.org/2000/svg" width="352" height="134" viewBox="0 0 176 67"><defs><linearGradient id="a" x1="0" x2="1" y1="0" y2="0" gradientTransform="matrix(3.5206157 -8.85358 -8.85358 -3.5206157 259.45554 731.71031)" gradientUnits="userSpaceOnUse" spreadMethod="pad"><stop offset="0" stop-color="#e1816d"/><stop offset=".0215142" stop-color="#e1816d"/><stop offset=".28239" stop-color="#e11f26"/><stop offset=".85" stop-color="#ac1f24"/><stop offset="1" stop-color="#ac1f24"/></linearGradient><linearGradient id="b" x1="0" x2="1" y1="0" y2="0" gradientTransform="matrix(20.632 -33.149532 -36.89751 -7.7284647 241.44451 763.74696)" gradientUnits="userSpaceOnUse" spreadMethod="pad"><stop offset="0" stop-color="#8bbe9f"/><stop offset=".0934066" stop-color="#8bbe9f"/><stop offset=".675824" stop-color="#1ba44a"/><stop offset=".884615" stop-color="#0a8b44"/><stop offset="1" stop-color="#0a8b44"/></linearGradient><linearGradient id="c" x1="0" x2="1" y1="0" y2="0" gradientTransform="scale(33.98797 -33.98797)rotate(32.251451 41.21889633 1.35772547)" gradientUnits="userSpaceOnUse" spreadMethod="pad"><stop offset="0" stop-color="#e1816d"/><stop offset=".0215142" stop-color="#e1816d"/><stop offset=".28239" stop-color="#e11f26"/><stop offset=".85" stop-color="#ac1f24"/><stop offset="1" stop-color="#ac1f24"/></linearGradient><linearGradient id="d" x1="0" x2="1" y1="0" y2="0" gradientTransform="matrix(50.611939 -16.869736 -2.069257 -39.909487 226.38013 747.7525)" gradientUnits="userSpaceOnUse" spreadMethod="pad"><stop offset="0" stop-color="#e1816d"/><stop offset=".0659341" stop-color="#e1816d"/><stop offset=".351648" stop-color="#e11f26"/><stop offset=".85" stop-color="#ac1f24"/><stop offset="1" stop-color="#ac1f24"/></linearGradient></defs><path fill="url(#a)" d="M256.068 717.534c11.169 3.209 20.461 11.007 8.549 13.024 5.249-2.603.775-10.047-8.549-13.024" transform="matrix(1 0 0 -1 -113.2823 777.4086)"/><path fill="#dcddde" d="M163.9247 37.6282c-1.949-5.177-6.805-9.025-14.05-12.343-17.048-7.823-41.222-14.02-43.577-25.223 1.189 20.048 28.806 23.009 44.805 30.54 3.926 1.855 7.256 4.863 9.245 6.885 3.166 3.228 1.628 10.994-1.729 14.214 6.889-5.02 6.343-11.33 5.306-14.073"/><path fill="url(#b)" d="M224.757 762.199c6.282-16.056 35.763-15.217 46.562-25.135 8.176-7.512-.911-13.281-3.035-14.626 7.717 4.265 12.636 13.306 2.608 20.317-12.09 8.455-43.011 14.224-46.135 19.444" transform="matrix(1 0 0 -1 -113.2823 777.4086)"/><path fill="url(#c)" d="M270.301 726.254c-1.697-4.347-13.752-8.608-13.807-8.628.037.012 8.181 2.791 11.018 4.382 3.798 2.129 5.49 3.507 6.367 5.47 2.243 5.018-4.497 8.811-12.227 10.403-11.048 2.275-17.818 3.996-18.963 4.712 4.275-7.174 30.258-9.565 27.612-16.339" transform="matrix(1 0 0 -1 -113.2823 777.4086)"/><path fill="url(#d)" d="M273.979 730.27c.473-1.817-.642-3.587-1.932-4.874 1.814 1.79 3.092 3.311 3.003 6.322-.378 12.67-37.144 15.323-45.329 22.056 9.797-16.029 42.061-15.112 44.258-23.504" transform="matrix(1 0 0 -1 -113.2823 777.4086)"/><path fill="#dcddde" d="M158.4764 21.4298c-.873 1.846 2.353 4.263 4.908 4.231-2.568.587-4.556-.958-5.182-1.695-1.316.933-5.422.764-7.241 1.813 4.295 1.636 10.468 4.569 12.677 9.834 2.119-5.461 9.288-8.739 11.98-6.719.019-2.489-2.763-2.295-4.387-2.881-.847-.306-.319-.892-1.017-.952 1.382-.397 1.825 1.174 3.377 1.245-1.512-7.117-14.313-1.922-15.115-4.876"/><path fill="#4d4d4f" d="m35.925 39.1205-.02.072-4.129 15.28h1.292c1.35 0 2.432-.942 2.785-2.364l3.504-12.988Z"/><path fill="#949ca1" d="m36.1856 38.9245-.019.072-4.129 15.277h1.291c1.353 0 2.436-.941 2.788-2.362l3.5-12.987Z"/><path fill="#4d4d4f" d="M14.353 42.5705c-.004.109-.02.225-.049.351l-.007.035c-.059.244-.152.48-.283.718-.127.236-.288.443-.492.643-.194.191-.401.319-.623.405-.263.102-.494.164-.7.194-.192.03-.644.051-1.3.051H9.818c.209-.726.638-2.115.784-2.635.22-.636.348-.68.728-.724.488-.021 1.465 0 1.465 0h.03c.451 0 .784.037.954.088.184.056.309.136.405.236.085.099.138.213.162.397.007.05.008.105.008.164 0 .024 0 .05-.001.077m-1.431 6.458c-.005.133-.032.287-.073.458-.056.22-.135.431-.237.639-.104.207-.222.389-.351.549-.131.159-.258.283-.387.377-.124.092-.305.189-.537.285-.231.088-.462.153-.693.187-.23.036-.576.057-1.016.057H7.874l1.089-3.723H11.162c.52 0 .897.049 1.072.109.201.068.343.161.459.3.114.133.184.286.215.481.011.06.016.13.016.202 0 .025-.002.051-.002.079m4.668-9.226c-.178-.249-.417-.453-.705-.613-.291-.16-.621-.273-.992-.352-.392-.077-.935-.11-1.664-.11-.517 0-1.131-.011-1.926.008-.515.016-.976.026-1.381.03-1.901.006-3.239 1.328-3.785 3.363-.231.815-.558 1.84-.901 3.028-.697 2.377-1.2 4.06-1.507 5.039-.202.643-.574 1.771-.759 2.3-.158.476-.525 1.063-.855 1.296l-.922.68h5.791c1.951-.001 3.234-.053 3.918-.176.675-.123 1.316-.366 1.923-.728.614-.369 1.147-.873 1.591-1.494.448-.625.761-1.314.943-2.06.081-.334.129-.663.144-.977v-.002l.003-.044c.003-.056.003-.113.003-.169 0-.264-.023-.514-.069-.746-.06-.292-.166-.566-.318-.82-.149-.255-.328-.472-.538-.649-.126-.098-.254-.187-.382-.261.002-.002.008-.005.012-.006.255-.131.524-.305.812-.525.298-.233.573-.505.826-.821.257-.323.479-.681.667-1.075.186-.392.331-.807.434-1.24.079-.331.124-.655.135-.981 0-.023 0-.046.001-.066V41.5265c.002-.315-.036-.613-.115-.893-.081-.311-.209-.592-.384-.831"/><path fill="#949ca1" d="M14.6153 42.3732c-.003.107-.019.226-.047.351l-.011.034c-.058.246-.151.482-.28.721-.126.232-.289.444-.493.641-.194.19-.399.324-.624.406-.262.1-.492.162-.7.194-.19.03-.645.05-1.299.05h-1.079c.206-.726.633-2.115.782-2.634.219-.638.347-.678.729-.727.489-.019 1.465.002 1.465.002.011-.002.02-.002.03-.002.452 0 .783.038.95.091.186.053.311.133.407.238.086.095.138.21.161.394.009.051.011.105.011.166 0 .022 0 .047-.002.075m-1.431 6.459c-.007.134-.029.286-.072.458-.054.219-.134.431-.238.637-.105.209-.222.391-.351.551-.129.159-.256.283-.388.379-.123.09-.303.186-.538.28-.231.092-.46.156-.692.189-.231.037-.575.058-1.018.058h-1.751l1.088-3.722h2.17c.011-.002.02-.002.029-.002.522 0 .901.049 1.074.108.198.069.343.165.459.299.113.136.182.287.214.485.012.059.016.128.016.201 0 .025-.002.049-.002.079m4.671-9.229v.002c-.182-.248-.421-.452-.707-.614-.291-.158-.62-.273-.991-.35-.392-.078-.938-.111-1.666-.111-.517 0-1.133-.012-1.926.01-.517.015-.974.023-1.382.028-1.9.006-3.24 1.328-3.786 3.365-.229.813-.554 1.838-.898 3.025-.697 2.378-1.201 4.058-1.51 5.042-.201.642-.574 1.767-.757 2.299-.158.477-.524 1.062-.855 1.295l-.926.68h5.793c1.952 0 3.236-.054 3.922-.176.672-.12 1.314-.367 1.921-.727.613-.37 1.149-.871 1.591-1.497.446-.622.762-1.314.944-2.059.08-.335.127-.661.143-.975v-.001l.002-.045c.001-.058.005-.113.005-.168 0-.265-.024-.516-.07-.749-.061-.291-.166-.564-.319-.82-.147-.253-.326-.471-.537-.643-.128-.103-.253-.192-.382-.266.002-.004.007-.005.011-.008.256-.128.526-.303.812-.523.299-.231.577-.506.828-.823.257-.323.477-.679.664-1.072.185-.393.332-.806.436-1.242.077-.33.123-.657.133-.978 0-.027 0-.049.004-.069V41.3282c0-.311-.036-.611-.115-.893-.079-.311-.209-.591-.382-.832"/><path fill="#4d4d4f" d="M28.8499 53.1889c.03-.174.079-.38.128-.545l2.616-10.005h-3.37l-1.712 6.31c-.223 1.005-.47 1.726-.846 2.154-.372.425-.883.663-1.882.67h-.008c-.583 0-.938-.107-1.095-.235-.154-.13-.217-.26-.223-.581 0-.016.002-.032.002-.046.005-.21.054-.484.148-.803l2.007-7.469h-3.427l-2.042 7.542c-.155.611-.249 1.155-.266 1.642-.003.054-.004.112-.004.166 0 .77.231 1.429.768 1.857.573.451 1.388.624 2.486.626h.136c1.073 0 2.173-.103 3.099-.812l-.163.749h4.311l-.495-.621c-.1-.141-.207-.353-.168-.599"/><path fill="#949ca1" d="M29.1147 52.9938c.027-.174.074-.385.123-.549l2.618-10.003h-3.368l-1.715 6.312c-.221 1.004-.47 1.724-.842 2.153-.377.426-.887.663-1.885.669h-.007c-.586 0-.938-.109-1.096-.238-.155-.125-.216-.257-.222-.577v-.046c.008-.212.057-.482.148-.803l2.01-7.47h-3.429l-2.042 7.541c-.156.613-.247 1.156-.264 1.643-.005.055-.005.112-.005.166-.002.771.231 1.429.77 1.856.568.452 1.386.624 2.485.627h.134c1.073 0 2.174-.103 3.101-.811l-.164.749h4.31l-.495-.623c-.099-.14-.204-.351-.165-.596"/><path fill="#4d4d4f" d="M108.2174 48.1013h-1.771l2.033-3.849Zm3.315 5.675h-.003c-.197-.25-.279-.51-.283-.895l.002.004v-.168l.002.003c.024-.524.63-11.138.653-11.801v-.026c.002-.044.006-.092.006-.14.003-.978-.518-1.823-1.53-1.91-.193-.021-.378-.033-.56-.033-.008-.003-.012-.003-.022-.003-.597 0-1.126.174-1.67.58-.418.306-.876.816-1.165 1.327-.261.465-7.112 13.202-7.117 13.203l-.294.55.607.003s.123.002.332.002c.105 0 .231 0 .377-.002h.016c1.107.002 2.535-.42 3.357-1.999.211-.409.697-1.337.914-1.751h2.81l-.265 3.75 4.542.002-.213-.176s-.273-.226-.496-.52"/><path fill="#949ca1" d="M108.4794 47.9037h-1.77l2.032-3.849zm3.315 5.675c-.199-.25-.285-.509-.288-.894l.003.003v-.166l.004.001c.021-.524.629-11.137.654-11.801v-.024c.002-.044.003-.094.003-.141.006-.977-.516-1.822-1.528-1.91-.196-.021-.379-.035-.559-.035h-.025c-.594-.002-1.123.173-1.669.577-.418.307-.877.817-1.167 1.33-.26.464-7.112 13.199-7.112 13.203l-.293.548.607.005H101.1474c1.106 0 2.537-.422 3.355-2.002.213-.405.698-1.335.912-1.75h2.815l-.267 3.752h4.542l-.213-.175s-.273-.227-.497-.521"/><path fill="#4d4d4f" d="M126.1647 42.7046h-.033c-1.669-.004-3.116 1.063-3.628 3.007l-2.343 8.76h1.301c1.398 0 2.434-.956 2.777-2.363l1.31-4.855c.161-.635.333-1.029.565-1.24.232-.215.596-.35 1.32-.353h.855c1.58-.002 2.612-1.28 2.771-2.538l.042-.307.014-.111Z"/><path fill="#949ca1" d="M126.4247 42.5054h-.03c-1.668-.002-3.116 1.065-3.626 3.009l-2.347 8.76h1.303c1.398 0 2.433-.954 2.777-2.363l1.309-4.856c.162-.634.334-1.026.568-1.238.231-.214.591-.352 1.32-.352h.853c1.575-.005 2.611-1.281 2.771-2.541l.041-.305.015-.114Z"/><path fill="#4d4d4f" d="M91.5631 46.327c-.016.549-.228 1.36-.491 2.366h-.001c-.328 1.151-.626 1.904-1.034 2.324-.401.416-.942.62-2.013.625h-.032c-.579.001-.951-.087-1.108-.213-.157-.121-.245-.28-.25-.731 0-.027 0-.051.005-.076.012-.41.122-.99.321-1.75.334-1.228.611-2.189 1.019-2.776.418-.579.896-.872 1.964-.885h.012c.734-.002 1.159.131 1.35.292.178.155.255.348.258.744Zm1.822 6.249 2.736-10h-3.44l-.174.69c-.23-.259-.514-.445-.824-.561-.597-.233-1.274-.257-1.938-.262h-.016c-1.876-.001-3.216.573-4.148 1.59-.932 1.015-1.452 2.406-1.872 4.014-.343 1.263-.613 2.38-.649 3.349-.004.065-.004.133-.004.199 0 .823.206 1.557.775 2.073.612.552 1.543.801 2.886.804h.122c1.086 0 2.036-.11 2.968-.737l-.139.608h4.082l-.348-.58c-.081-.138-.132-.285-.132-.524v-.051c.008-.167.037-.368.115-.612"/><path fill="#949ca1" d="M91.8256 46.1333c-.019.545-.226 1.359-.491 2.363h-.001c-.326 1.152-.629 1.904-1.032 2.323-.402.416-.943.621-2.014.624h-.031c-.579.005-.953-.085-1.111-.211-.158-.121-.245-.283-.249-.732 0-.024 0-.051.004-.074.01-.41.121-.991.326-1.753.33-1.227.608-2.188 1.015-2.775.417-.579.894-.87 1.962-.884h.015c.735-.001 1.158.133 1.344.295.183.151.262.347.263.74Zm1.819 6.247 2.738-10.001h-3.441l-.17.69c-.231-.259-.517-.444-.827-.562-.596-.233-1.272-.257-1.936-.259h-.02c-1.873-.002-3.212.572-4.142 1.588-.935 1.016-1.454 2.406-1.878 4.015-.34 1.263-.611 2.382-.644 3.344-.005.069-.008.135-.008.204 0 .819.209 1.557.774 2.072.614.552 1.546.801 2.888.803h.122c1.085 0 2.035-.108 2.967-.734l-.139.605h4.082l-.348-.583c-.077-.132-.13-.282-.13-.52v-.052c.005-.165.039-.366.112-.61"/><path fill="#4d4d4f" d="m116.8672 42.7046-.019.072-3.14 11.695h1.295c1.359 0 2.376-.952 2.78-2.352l2.515-9.415Z"/><path fill="#949ca1" d="m117.131 42.5054-.021.075-3.14 11.694h1.294c1.357 0 2.377-.952 2.781-2.349l2.513-9.42Z"/><path fill="#4d4d4f" d="M47.894 46.242c-.013.428-.075.814-.348 1.753-.274.94-.596 2.249-1.007 2.783-.411.535-.954.808-2.186.818h-.002c-.633.004-.98-.125-1.136-.272-.148-.137-.224-.333-.224-.697v-.079c.019-.554.234-1.374.501-2.369.355-1.307.694-2.081 1.081-2.476.382-.391.841-.535 1.721-.539h.015c.705-.002 1.13.12 1.32.274.18.146.261.325.265.732Zm5.629-3.711h-4.451l-.078.288-.102.379c-.228-.248-.51-.422-.819-.526-.574-.196-1.228-.206-1.997-.206h-.034c-2.031-.002-3.398.61-4.311 1.727-.915 1.111-1.38 2.637-1.845 4.458-.275.976-.473 1.872-.498 2.673-.005.066-.005.128-.005.193-.004.822.209 1.564.777 2.09.611.56 1.542.818 2.868.818.026.003.055 0 .081 0 .928.003 1.945-.085 2.868-.676l-.056.195c-.17.664-.383 1.054-.737 1.317-.353.257-.921.417-1.847.417h-2.799c-1.088 0-1.853.462-2.303 1.029-.464.587-.758 1.932-.761 1.938l-.029.12h6.303c.095.003.195.004.296.004h.012c1.37 0 2.464-.236 3.33-.983.862-.75 1.436-1.933 1.917-3.71l2.61-9.588c.18-.745.363-.994.722-1.28z"/><path fill="#949ca1" d="M48.156 46.047c-.015.426-.076.81-.349 1.75-.27.943-.597 2.25-1.006 2.786-.413.534-.957.809-2.185.819h-.005c-.631.002-.978-.127-1.133-.276-.15-.138-.224-.331-.225-.695 0-.026 0-.054.001-.081.016-.552.232-1.374.501-2.367.355-1.306.692-2.082 1.081-2.476.379-.392.84-.534 1.719-.54h.015c.706 0 1.131.12 1.32.274.183.148.264.325.266.732Zm5.628-3.714h-4.451l-.076.29-.103.377c-.23-.247-.511-.419-.819-.524-.574-.196-1.227-.205-1.998-.208h-.034c-2.03 0-3.399.611-4.309 1.728-.916 1.111-1.379 2.637-1.846 4.459-.274.975-.472 1.871-.5 2.672-.002.064-.004.128-.004.194-.002.822.213 1.564.779 2.088.613.559 1.543.819 2.868.819.027.004.052 0 .078 0 .93.004 1.945-.084 2.874-.674l-.06.192c-.17.664-.382 1.056-.737 1.317-.351.259-.921.419-1.849.419h-2.796c-1.09-.001-1.853.46-2.306 1.029-.462.587-.756 1.933-.761 1.939l-.027.119h6.304c.094 0 .194.005.294.005h.015c1.367 0 2.463-.238 3.331-.983.86-.751 1.431-1.932 1.915-3.712l2.608-9.586c.184-.75.364-.997.723-1.281z"/><path fill="#4d4d4f" d="m76.7535 43.1222.04-.307.014-.111h-4.986c-1.669-.005-3.115 1.064-3.624 3.008l-2.345 8.76h1.303c1.397 0 2.431-.957 2.776-2.364l1.31-4.855c.159-.635.332-1.029.566-1.24.228-.215.592-.35 1.32-.353h.854c1.577-.002 2.609-1.28 2.772-2.538"/><path fill="#949ca1" d="m77.0148 42.9245.042-.307.012-.112h-4.985c-1.67-.003-3.116 1.065-3.623 3.009l-2.344 8.76h1.3c1.398 0 2.433-.954 2.776-2.364l1.309-4.855c.162-.634.335-1.026.569-1.239.228-.213.591-.351 1.32-.351h.851c1.578-.006 2.61-1.281 2.773-2.541"/><path fill="#4d4d4f" d="M61.5029 46.3296c-.015.535-.222 1.333-.479 2.317l-.011.039c-.329 1.154-.631 1.91-1.038 2.331-.401.417-.943.62-2.012.625h-.036c-.575.002-.945-.087-1.103-.213-.156-.119-.245-.279-.247-.728v-.079c.015-.407.122-.987.326-1.75.331-1.228.607-2.188 1.019-2.776.416-.581.891-.871 1.957-.885h.009l.007-.002v.001c.735-.003 1.155.132 1.345.293.182.158.26.351.263.747.001.022 0 .05 0 .08m1.82 6.247 2.735-10.003h-3.437l-.174.695c-.231-.262-.515-.448-.826-.564-.595-.233-1.271-.259-1.935-.259h-.027c-1.871-.002-3.207.573-4.137 1.587-.935 1.015-1.454 2.404-1.875 4.012-.344 1.262-.613 2.382-.65 3.351-.001.065-.001.132-.001.197-.002.821.205 1.56.773 2.075.611.553 1.547.803 2.885.804h.136c1.081 0 2.024-.112 2.954-.736l-.137.607h4.079l-.347-.58c-.197-.341-.164-.67-.016-1.186"/><path fill="#949ca1" d="M61.7652 46.1333c-.017.537-.224 1.333-.479 2.314l-.014.04c-.328 1.157-.628 1.913-1.036 2.331-.399.417-.942.622-2.011.625h-.034c-.576.005-.946-.085-1.106-.211-.155-.121-.243-.28-.246-.728 0-.026 0-.053.001-.08.012-.408.123-.985.325-1.751.333-1.227.607-2.186 1.016-2.775.417-.58.893-.87 1.959-.884h.011l.005-.001c.733 0 1.158.134 1.348.296.18.151.258.349.261.743Zm1.818 6.247 2.74-10.004h-3.439l-.173.694c-.232-.26-.517-.445-.827-.563-.598-.233-1.275-.259-1.939-.259h-.021c-1.873 0-3.21.572-4.141 1.588s-1.453 2.404-1.875 4.012c-.342 1.263-.614 2.385-.647 3.347-.003.069-.005.134-.005.201 0 .821.205 1.56.777 2.075.612.552 1.543.803 2.882.803h.136c1.083 0 2.026-.113 2.956-.734l-.138.605h4.08l-.347-.578c-.196-.344-.165-.67-.019-1.187"/><path fill="#4d4d4f" d="M75.6717 54.4717h1.292c1.356 0 2.376-.953 2.782-2.352l2.454-9.415h-3.374Z"/><path fill="#949ca1" d="M75.932 54.2741h1.294c1.356 0 2.377-.951 2.781-2.349l2.456-9.42h-3.374Z"/><path fill="#949ca1" d="m.3815 66.8374 1.633-6.174h1.548l.64 2.353c.188.788.305 1.431.401 2.107h.028c.075-.632.208-1.309.45-2.216l.588-2.244h1.227l-1.623 6.174h-1.365l-.677-2.464c-.213-.834-.336-1.393-.444-2.154l-.029.01c-.118.604-.329 1.474-.584 2.446l-.566 2.162Z"/><path fill="#949ca1" d="M10.4398 63.2928c-.1-.02-.226-.038-.355-.038-.852 0-1.552 1.044-1.615 1.878-.032.441.12.742.486.742.394 0 .912-.449 1.196-1.548zm-.649 3.544c.029-.266.079-.568.131-.887h-.028c-.468.74-1.055.988-1.576.988-.807 0-1.309-.624-1.24-1.558.113-1.511 1.232-3.124 3.439-3.124.531 0 1.101.102 1.468.22l-.651 2.346c-.154.577-.302 1.456-.324 2.015Z"/><path fill="#949ca1" d="m15.3476 61.1397-.321 1.218h.952l-.266.999h-.952l-.416 1.52c-.05.174-.105.412-.116.568-.016.22.064.375.347.375.119 0 .248 0 .368-.018l-.233 1.036c-.169.062-.501.1-.786.1-.789 0-1.132-.413-1.09-.971.017-.247.063-.486.153-.833l.481-1.777h-.568l.258-.999h.577l.228-.843z"/><path fill="#949ca1" d="M18.0561 61.7986c-.357 0-.614-.247-.585-.641.043-.449.414-.75.816-.75.386 0 .64.256.612.65-.036.467-.413.741-.834.741Zm-2.044 5.039 1.186-4.48h1.319l-1.186 4.48z"/><path fill="#949ca1" d="M20.524 65.0595c-.039.523.192.87.65.87.723 0 1.205-1.053 1.263-1.823.03-.412-.111-.851-.642-.851-.761 0-1.227 1.109-1.271 1.804m3.278-.961c-.123 1.64-1.33 2.839-2.887 2.839-1.136 0-1.841-.743-1.758-1.85.116-1.559 1.292-2.831 2.886-2.831 1.2 0 1.835.825 1.759 1.842"/><path fill="#949ca1" d="m24.4237 66.8374.793-3.023c.153-.568.262-1.063.346-1.457h1.174l-.147.743h.018c.465-.588 1.043-.844 1.639-.844.731 0 1.11.449 1.053 1.219-.015.201-.077.54-.13.76l-.689 2.602h-1.318l.652-2.483c.04-.155.071-.339.083-.503.024-.312-.07-.532-.4-.532-.431 0-.974.54-1.232 1.529l-.523 1.989Z"/><path fill="#949ca1" d="M33.5931 63.2928c-.1-.02-.226-.038-.354-.038-.853 0-1.554 1.044-1.616 1.878-.033.441.119.742.486.742.393 0 .912-.449 1.196-1.548zm-.649 3.544c.028-.266.078-.568.13-.887h-.027c-.469.74-1.055.988-1.577.988-.806 0-1.309-.624-1.239-1.558.112-1.511 1.232-3.124 3.439-3.124.53 0 1.1.102 1.467.22l-.65 2.346c-.154.577-.301 1.456-.325 2.015Z"/><path fill="#949ca1" d="M35.5192 66.8374s1.25-4.696 1.446-5.405c.237-.86.806-1.099 1.604-1.099-1.533 5.709-1.731 6.504-1.731 6.504Z"/><path fill="#949ca1" d="M45.1974 66.6624c-.341.146-.91.275-1.652.275-1.63 0-2.654-.999-2.532-2.628.103-1.384.806-2.464 1.787-3.088.675-.449 1.45-.66 2.32-.66.669 0 1.161.157 1.327.267l-.438 1.071c-.175-.092-.571-.202-1.102-.202-.531 0-1.047.165-1.446.477-.554.42-.936 1.126-1 1.987-.073.98.427 1.641 1.517 1.641.431 0 .867-.074 1.188-.202z"/><path fill="#949ca1" d="M49.7464 63.2928c-.1-.02-.226-.038-.355-.038-.851 0-1.553 1.044-1.614 1.878-.033.441.118.742.484.742.395 0 .913-.449 1.196-1.548zm-.649 3.544c.028-.266.079-.568.13-.887h-.027c-.468.74-1.054.988-1.576.988-.807 0-1.309-.624-1.24-1.558.113-1.511 1.232-3.124 3.439-3.124.531 0 1.101.102 1.468.22l-.651 2.346c-.154.577-.302 1.456-.325 2.015Z"/><path fill="#949ca1" d="m51.7179 66.8374.703-2.665c.179-.678.29-1.43.365-1.815h1.144c-.049.303-.1.605-.15.915h.028c.355-.595.89-1.016 1.503-1.016.083 0 .165 0 .247.01l-.352 1.282c-.064 0-.137-.009-.21-.009-.843 0-1.292.751-1.523 1.63l-.435 1.668Z"/><path fill="#949ca1" d="m55.5392 66.8374.702-2.665c.18-.678.29-1.43.365-1.815h1.145c-.05.303-.1.605-.15.915h.026c.357-.595.892-1.016 1.505-1.016.082 0 .165 0 .247.01l-.352 1.282c-.065 0-.137-.009-.211-.009-.842 0-1.292.751-1.523 1.63l-.435 1.668Z"/><path fill="#949ca1" d="M61.4026 61.7986c-.357 0-.612-.247-.584-.641.042-.449.414-.75.816-.75.385 0 .641.256.611.65-.035.467-.412.741-.834.741Zm-2.043 5.039 1.186-4.48h1.319l-1.186 4.48z"/><path fill="#949ca1" d="M65.529 63.5941c.016-.22-.156-.375-.457-.375-.615 0-1 .504-1.123.925 1.024.009 1.548-.137 1.579-.542zm.454 2.987c-.541.265-1.199.356-1.692.356-1.283 0-1.888-.732-1.801-1.896.101-1.365 1.196-2.785 2.818-2.785.906 0 1.519.504 1.457 1.338-.085 1.146-1.225 1.557-3.017 1.511-.009.128.023.331.104.458.157.229.451.348.835.348.486 0 .905-.109 1.276-.284z"/><path fill="#949ca1" d="m67.1444 66.8374.702-2.665c.179-.678.291-1.43.364-1.815h1.146c-.05.303-.1.605-.15.915h.026c.357-.595.892-1.016 1.506-1.016.081 0 .165 0 .246.01l-.352 1.282c-.064 0-.136-.009-.21-.009-.843 0-1.293.751-1.524 1.63l-.435 1.668Z"/></svg>