<?xml version="1.0" encoding="UTF-8" standalone="no"?>
<svg
   xmlns:dc="http://purl.org/dc/elements/1.1/"
   xmlns:cc="http://creativecommons.org/ns#"
   xmlns:rdf="http://www.w3.org/1999/02/22-rdf-syntax-ns#"
   xmlns:svg="http://www.w3.org/2000/svg"
   xmlns="http://www.w3.org/2000/svg"
   xmlns:sodipodi="http://sodipodi.sourceforge.net/DTD/sodipodi-0.dtd"
   xmlns:inkscape="http://www.inkscape.org/namespaces/inkscape"
   width="300"
   height="70"
   viewBox="0 0 503 116"
   version="1.0"
   id="svg2"
   sodipodi:version="0.32"
   inkscape:version="0.46"
   sodipodi:docname="Air_Mauritius_Logo.svg"
   inkscape:output_extension="org.inkscape.output.svg.inkscape">
  <metadata
     id="metadata37">
    <rdf:RDF>
      <cc:Work
         rdf:about="">
        <dc:format>image/svg+xml</dc:format>
        <dc:type
           rdf:resource="http://purl.org/dc/dcmitype/StillImage" />
      </cc:Work>
    </rdf:RDF>
  </metadata>
  <defs
     id="defs35">
    <inkscape:perspective
       sodipodi:type="inkscape:persp3d"
       inkscape:vp_x="0 : 72.5 : 1"
       inkscape:vp_y="0 : 1000 : 0"
       inkscape:vp_z="628.75 : 72.5 : 1"
       inkscape:persp3d-origin="314.375 : 48.333333 : 1"
       id="perspective39" />
  </defs>
  <sodipodi:namedview
     inkscape:window-height="669"
     inkscape:window-width="640"
     inkscape:pageshadow="2"
     inkscape:pageopacity="0.0"
     guidetolerance="10.0"
     gridtolerance="10.0"
     objecttolerance="10.0"
     borderopacity="1.0"
     bordercolor="#666666"
     pagecolor="#ffffff"
     id="base"
     showgrid="false"
     inkscape:zoom="0.86520875"
     inkscape:cx="314.375"
     inkscape:cy="72.5"
     inkscape:window-x="92"
     inkscape:window-y="95"
     inkscape:current-layer="svg2" />
  <g
     id="#ffffffff" />
  <g
     id="#c1012fff">
    <path
       d="M 253.88,6.52 C 272.31,0.51 292.77,1.96 310.58,9.37 C 319.75,12.84 327.74,18.89 337.16,21.74 C 354.2,27.21 372.35,26.46 390.01,25.98 C 404.46,25.84 419.34,32.67 427.18,45.09 C 421.49,42.26 415.53,39.34 409,39.48 C 396.83,39.35 386.19,46.05 374.64,48.78 C 366.48,51.03 357.94,50.91 349.56,50.61 C 342.65,50.37 335.95,48.41 329.04,48.12 C 318.32,47.39 307.69,49.31 297.02,50.11 C 262.39,52.95 227.4,53.83 192.85,49.46 C 233.57,49.06 274.84,49.04 314.72,39.7 C 320.92,38.15 327.08,36.34 332.9,33.69 C 319.93,30.59 308.13,24.17 297.01,16.99 C 284.38,8.68 268.92,4.93 253.88,6.52 z"
       id="path6"
       style="opacity:1;fill:#c1012f" />
    <path
       d="M 410.74,8.81 C 425.85,6.57 442.33,8.25 455.28,16.89 C 450.89,15.82 446.59,14.26 442.05,13.93 C 428.81,12.73 415.59,16.75 404.06,23.06 C 401.82,24.64 399.1,23.41 396.65,23.21 C 388.01,21.78 379.25,22.89 370.56,22.91 C 383.15,16.3 396.74,11.39 410.74,8.81 z"
       id="path8"
       style="opacity:1;fill:#c1012f" />
    <path
       d="M 11.35,79.07 C 19.53,78.26 27.79,78.96 36,78.7 C 38.93,78.85 42.37,78.13 44.78,80.24 C 46.99,82.17 46.28,85.44 45.88,87.97 C 44.14,96.27 42.28,104.53 40.65,112.85 C 31.76,113.19 22.85,113.09 13.96,112.95 C 9.79,112.59 4.5,111.73 2.53,107.51 C 0.58,101.52 5.73,95.71 11.44,94.62 C 19.48,93.04 27.71,92.62 35.83,91.48 C 36.3,89.15 36.88,85.7 33.79,84.97 C 25.98,84.36 18.1,84.93 10.26,84.7 C 10.66,82.83 11.01,80.95 11.35,79.07 M 15.13,99.94 C 12.68,100.13 9.94,102.11 10.58,104.86 C 11.47,106.94 13.99,107.2 15.97,107.26 C 21.38,107.35 26.8,107.24 32.21,107.27 C 33.1,104.15 33.74,100.96 34.29,97.76 C 27.89,98.34 21.5,99.12 15.13,99.94 z"
       id="path10"
       style="opacity:1;fill:#c1012f" />
    <path
       d="M 55.82,82.87 C 56.31,81.56 56.03,79.73 57.27,78.83 C 60.19,78.53 63.13,78.74 66.05,78.81 C 64.16,88.91 61.8,98.92 59.77,108.99 C 59.36,110.33 59.27,112.2 57.77,112.81 C 55.04,113.25 52.27,113.02 49.53,113 C 51.45,102.92 53.78,92.93 55.82,82.87 z"
       id="path12"
       style="opacity:1;fill:#c1012f" />
    <path
       d="M 75.1,78.77 C 83.74,78.67 92.37,78.73 101.01,78.71 C 105.44,78.83 110.71,79.65 113.34,83.67 C 115.7,87.39 114.05,92.25 111.18,95.18 C 108.71,97.83 105.11,98.8 101.79,99.92 C 104.51,104.36 107.75,108.45 110.45,112.91 C 107.03,113.1 103.6,113.08 100.19,112.93 C 97.34,108.94 94.63,104.87 91.76,100.9 C 87.63,101.16 83.5,101.56 79.41,102.24 C 78.72,105.85 78,109.46 77.07,113.03 C 73.97,113.07 70.88,113.05 67.79,112.91 C 70.18,101.52 72.55,90.12 75.1,78.77 M 83.16,84.91 C 82.39,88.55 81.51,92.18 80.99,95.87 C 87.95,95.18 94.91,94.45 101.84,93.55 C 104.9,93.35 107.35,90.14 106.31,87.15 C 105.06,84.98 102.32,84.62 100.05,84.7 C 94.42,84.77 88.78,84.56 83.16,84.91 z"
       id="path14"
       style="opacity:1;fill:#c1012f" />
    <path
       d="M 147.1,78.84 C 161.08,78.55 175.06,78.82 189.04,78.69 C 191.52,78.73 194.59,78.54 196.25,80.8 C 197.92,82.72 197.24,85.49 196.9,87.77 C 195.12,96.13 193.31,104.48 191.59,112.86 C 188.43,113.07 185.27,113.09 182.11,112.97 C 183.67,105.22 185.39,97.51 187.03,89.77 C 187.41,88.19 187.36,86.56 187.26,84.96 C 183.61,84.64 179.94,84.56 176.3,84.99 C 174.44,94.28 172.3,103.51 170.52,112.82 C 167.35,113.08 164.17,113.1 161,112.94 C 162.51,105.24 164.22,97.57 165.87,89.89 C 166.26,88.29 166.19,86.64 166.1,85.01 C 162.49,84.59 158.85,84.64 155.22,84.87 C 153.27,94.18 151.2,103.47 149.37,112.81 C 146.23,113.07 143.08,113.1 139.93,113 C 142.11,101.57 144.66,90.21 147.1,78.84 z"
       id="path16"
       style="opacity:1;fill:#c1012f" />
    <path
       d="M 207.2,78.92 C 216.81,78.49 226.45,78.8 236.07,78.74 C 239.55,78.39 242.83,81.42 242.13,85 C 240.54,94.32 238.17,103.5 236.44,112.8 C 229.3,113.31 222.14,112.93 215,113.06 C 209.43,112.99 202.43,113.25 198.68,108.33 C 195.91,102.46 200.96,95.96 206.78,94.74 C 214.95,92.99 223.37,92.69 231.63,91.45 C 231.75,89.57 232.43,87.47 231.27,85.77 C 229.4,84.6 227.15,84.71 225.04,84.69 C 218.71,84.73 212.38,84.75 206.05,84.71 C 206.45,82.79 206.83,80.86 207.2,78.92 M 210.97,99.93 C 208.53,100.14 205.93,101.96 206.29,104.68 C 207.09,106.99 209.88,107.22 211.96,107.27 C 217.32,107.33 222.69,107.26 228.06,107.25 C 228.86,104.11 229.54,100.95 230.04,97.76 C 223.67,98.34 217.32,99.12 210.97,99.93 z"
       id="path18"
       style="opacity:1;fill:#c1012f" />
    <path
       d="M 252.31,78.96 C 255.47,78.63 258.66,78.67 261.83,78.78 C 260.21,86.87 258.46,94.93 256.71,102.99 C 256.52,104.37 255.77,106.08 257.21,107.07 C 262.45,107.5 267.75,107.28 273.01,107.23 C 274.76,107.35 276.3,106.35 276.52,104.53 C 278.59,95.99 280.03,87.3 282.14,78.77 C 285.23,78.7 288.32,78.69 291.41,78.78 C 289.68,87.85 287.61,96.86 285.75,105.9 C 285.19,109.25 282.9,113.11 279.06,112.97 C 271.02,113.18 262.98,112.97 254.95,113.07 C 252.52,112.96 249.55,113.28 247.81,111.2 C 246.29,109.51 246.41,107.07 246.86,105 C 248.63,96.31 250.66,87.67 252.31,78.96 z"
       id="path20"
       style="opacity:1;fill:#c1012f" />
    <path
       d="M 300.26,78.95 C 308.49,78.42 316.75,78.87 324.99,78.7 C 329.78,78.66 335.43,79.32 338.53,83.43 C 340.92,86.98 339.57,91.83 336.83,94.79 C 334.35,97.77 330.48,98.79 326.95,99.89 C 329.91,104.27 332.97,108.58 335.95,112.94 C 332.41,113.11 328.87,113.1 325.34,112.84 C 322.59,108.77 319.86,104.7 316.91,100.77 C 313.04,101.29 309.12,101.4 305.3,102.14 C 303.42,105.23 303.58,109.32 302.59,112.82 C 299.43,113.09 296.26,113.1 293.1,112.92 C 295.4,101.58 297.96,90.29 300.26,78.95 M 306.21,95.8 C 313.08,95.27 319.94,94.45 326.79,93.61 C 330.1,93.52 332.97,89.94 331.36,86.77 C 329.66,84.5 326.55,84.72 324.03,84.7 C 319.08,84.82 314.12,84.52 309.18,84.85 C 306.97,87.78 307.29,92.26 306.21,95.8 z"
       id="path22"
       style="opacity:1;fill:#c1012f" />
    <path
       d="M 348.24,78.86 C 351.36,78.68 354.48,78.68 357.61,78.75 C 355.68,88.91 353.35,98.99 351.28,109.12 C 350.82,110.52 350.79,112.82 348.82,112.87 C 346.25,113.21 343.66,113.03 341.09,113.03 C 343.29,101.6 345.89,90.25 348.24,78.86 z"
       id="path24"
       style="opacity:1;fill:#c1012f" />
    <path
       d="M 359.95,84.71 C 360.4,82.36 360.6,78.31 363.99,78.75 C 375.65,78.75 387.32,78.57 398.99,78.86 C 398.37,80.74 398.62,83.44 396.56,84.46 C 392.15,85.09 387.66,84.5 383.22,84.86 C 380.92,94.13 379.82,103.72 376.79,112.8 C 373.83,113.06 370.85,113.09 367.89,112.96 C 369.6,103.52 372,94.22 373.66,84.77 C 369.08,84.71 364.51,84.74 359.95,84.71 z"
       id="path26"
       style="opacity:1;fill:#c1012f" />
    <path
       d="M 402.97,78.74 C 406.03,78.71 409.09,78.7 412.15,78.8 C 410.42,88.59 408.07,98.26 406.13,108.01 C 405.69,109.53 405.61,111.31 404.48,112.52 C 401.68,113.51 398.61,112.91 395.71,112.95 C 397.97,101.51 400.39,90.1 402.97,78.74 z"
       id="path28"
       style="opacity:1;fill:#c1012f" />
    <path
       d="M 421.15,78.78 C 424.26,78.7 427.37,78.7 430.48,78.78 C 428.93,88.21 426,97.4 425.04,106.92 C 430.66,107.53 436.33,107.31 441.98,107.2 C 443.73,107.28 445.03,105.97 445.27,104.3 C 447.33,95.8 448.67,87.14 450.93,78.69 C 453.98,78.72 457.02,78.71 460.07,78.77 C 458.55,87.19 456.54,95.51 454.88,103.9 C 454.22,106.57 453.83,109.67 451.57,111.54 C 449.53,113.42 446.56,112.96 444.03,113.07 C 436.03,112.92 428.02,113.25 420.02,112.92 C 416.65,112.91 414.6,109.19 415.4,106.15 C 417.11,96.99 419.2,87.9 421.15,78.78 z"
       id="path30"
       style="opacity:1;fill:#c1012f" />
    <path
       d="M 465.57,94.43 C 460.34,89.49 464.49,80.21 471.19,79.25 C 479.81,78.11 488.61,78.91 497.3,78.82 C 496.95,80.74 496.61,82.66 496.31,84.58 C 488.89,85.03 481.44,84.4 474.04,84.88 C 470.41,85.06 469.96,90.75 473.46,91.6 C 480.46,93.74 488.22,92.91 494.93,96.12 C 498.45,97.66 501.04,101.75 499.6,105.59 C 497.97,110.82 491.93,112.78 486.97,112.98 C 478.33,113.09 469.69,113.12 461.05,112.93 C 461.44,111.06 461.82,109.18 462.21,107.31 C 470.15,107.16 478.09,107.42 486.03,107.22 C 488.04,107.13 490.8,106.33 490.93,103.91 C 491.34,102.25 489.89,100.96 488.51,100.38 C 481,98.06 471.97,99.77 465.57,94.43 z"
       id="path32"
       style="opacity:1;fill:#c1012f" />
  </g>
</svg>
