<?xml version="1.0" encoding="utf-8"?>
<!-- Generator: Adobe Illustrator 13.0.2, SVG Export Plug-In . SVG Version: 6.00 Build 14948)  -->
<!DOCTYPE svg PUBLIC "-//W3C//DTD SVG 1.0//EN" "http://www.w3.org/TR/2001/REC-SVG-20010904/DTD/svg10.dtd">
<svg version="1.0" id="Ebene_1" xmlns="http://www.w3.org/2000/svg" xmlns:xlink="http://www.w3.org/1999/xlink" x="0px" y="0px"
	 width="527.256px" height="184.245px" viewBox="0 0 527.256 184.245" enable-background="new 0 0 527.256 184.245"
	 xml:space="preserve">
<g>
	<path fill-rule="evenodd" clip-rule="evenodd" fill="#004595" d="M71.496,82.296c0,0-35.208,48.816-37.8,52.273
		c5.401-0.867,20.521-4.107,32.616-19.658l23.76-30.239c0.432-0.432,7.128-8.856,17.281-10.585L210.384,55.08
		c24.841-4.752,51.192-15.12,78.407-31.32C305.423,13.824,317.52,4.537,322.919,0c-9.287,2.376-203.254,49.896-203.254,49.896
		C86.832,57.888,71.713,82.08,71.496,82.296L71.496,82.296z"/>
	<path fill-rule="evenodd" clip-rule="evenodd" fill="#E53138" d="M55.08,133.485c8.856-0.211,31.752-1.078,31.752-1.078
		c26.569-0.861,47.304-17.279,53.569-22.893c-7.129,0.645-53.137,4.752-53.137,4.752s-10.799,0.861-11.448,1.078
		C66.961,126.144,59.832,131.112,55.08,133.485L55.08,133.485z"/>
	<path fill-rule="evenodd" clip-rule="evenodd" fill="#FFED00" d="M96.12,90.072c0,0-10.368,12.746-12.744,15.769
		c4.32-0.434,54.864-5.833,54.864-5.833c17.064-1.943,34.775-8.208,52.92-19.008c10.583-6.264,18.144-12.312,21.816-15.335
		c-11.88,1.944-102.601,16.847-102.601,16.847C101.304,84.023,96.337,89.856,96.12,90.072L96.12,90.072z"/>
	<path fill-rule="evenodd" clip-rule="evenodd" fill="#004595" d="M280.151,149.259c-0.864-2.162-2.159-3.674-4.104-4.541
		c-1.942-0.861-4.752-1.295-8.206-1.295h-3.24h-14.688h-3.24c-2.808,0-5.184,0.217-7.345,0.867
		c-1.944,0.428-3.456,1.078-4.967,2.156c-1.296,1.295-2.376,2.596-3.24,4.535c-0.864,1.729-1.512,4.107-2.159,6.914l-2.161,12.527
		c-0.432,2.379-0.432,4.535-0.215,6.264c0.215,1.729,0.863,3.24,1.944,4.324c0.863,1.078,2.376,1.939,4.103,2.59
		c1.729,0.434,4.104,0.645,6.913,0.645h3.023h14.905h3.24c2.807,0,5.183-0.211,7.128-0.645c2.159-0.434,3.671-1.295,4.969-2.379
		c1.295-1.078,2.376-2.59,3.237-4.318c0.65-1.729,1.298-3.885,1.729-6.48l2.162-12.527
		C280.802,154.222,280.802,151.198,280.151,149.259L280.151,149.259z M246.457,176.259c-2.161,0-3.672-0.217-4.537-0.65
		c-1.08-0.434-1.729-1.078-1.944-1.945c-0.432-1.078-0.432-2.373,0-4.318l1.727-10.371c0.432-1.939,1.081-3.451,1.729-4.535
		c0.647-1.078,1.512-1.729,2.591-2.156c1.296-0.434,2.81-0.65,4.969-0.65h9.504c1.944,0,3.456,0.217,4.537,0.65
		c1.08,0.211,1.727,1.078,1.944,2.156c0.432,0.867,0.432,2.379,0,4.535l-1.944,10.371c-0.217,1.945-0.649,3.24-1.296,4.318
		c-0.647,0.867-1.512,1.512-2.593,1.945c-1.08,0.434-2.807,0.65-4.967,0.65H246.457L246.457,176.259z"/>
	<path fill-rule="evenodd" clip-rule="evenodd" fill="#004595" d="M428.112,149.259c-0.647-2.162-1.945-3.674-3.888-4.541
		c-1.945-0.861-4.752-1.295-8.209-1.295h-3.24h-14.687h-3.24c-2.81,0-5.399,0.217-7.345,0.867c-1.942,0.428-3.457,1.078-4.969,2.156
		c-1.295,1.295-2.376,2.596-3.24,4.535c-0.861,1.729-1.512,4.107-2.159,6.914l-2.159,12.527c-0.434,2.379-0.434,4.535-0.217,6.264
		s0.864,3.24,1.729,4.324c1.081,1.078,2.593,1.939,4.321,2.59c1.726,0.434,4.102,0.645,6.911,0.645h3.023h14.903h3.023
		c3.026,0,5.402-0.211,7.345-0.645c1.945-0.434,3.674-1.295,4.969-2.379c1.295-1.078,2.376-2.59,3.24-4.318
		c0.647-1.729,1.295-3.885,1.729-6.48l2.159-12.527C428.977,154.222,428.977,151.198,428.112,149.259L428.112,149.259z
		 M394.632,176.259c-2.159,0-3.671-0.217-4.535-0.65c-1.081-0.434-1.729-1.078-1.945-1.945c-0.431-1.078-0.431-2.373,0-4.318
		l1.729-10.371c0.434-1.939,1.081-3.451,1.512-4.535c0.647-1.078,1.729-1.729,2.81-2.156c1.295-0.434,2.807-0.65,4.966-0.65h9.504
		c1.945,0,3.457,0.217,4.538,0.65c1.078,0.211,1.729,1.078,1.942,2.156c0.434,0.867,0.434,2.379,0,4.535l-1.942,10.371
		c-0.217,1.945-0.647,3.24-1.298,4.318c-0.647,0.867-1.512,1.512-2.59,1.945c-1.081,0.434-2.81,0.65-4.969,0.65H394.632
		L394.632,176.259z"/>
	<path fill-rule="evenodd" clip-rule="evenodd" fill="#004595" d="M78.841,144.29c-0.432,0-0.864,0.217-1.296,0.428
		c-1.512,0.434-2.593,1.084-3.672,1.729c-1.296,1.295-2.376,2.596-3.24,4.535c-0.647,1.512-1.295,3.24-1.727,5.186l-2.808,15.768
		l-2.161,12.311c2.161,0,3.888-0.211,5.401-0.645c2.159-0.434,3.671-1.295,4.967-2.379c1.296-1.078,2.376-2.59,3.24-4.318
		c0.647-1.295,1.08-3.24,1.512-5.396l2.808-15.123l2.159-12.744C82.08,143.64,80.353,143.856,78.841,144.29L78.841,144.29z"/>
	<path fill-rule="evenodd" clip-rule="evenodd" fill="#004595" d="M374.112,151.415c-0.217-1.729-0.864-3.24-1.729-4.535
		c-1.078-1.078-2.376-1.945-4.104-2.59c-1.726-0.434-3.888-0.867-6.264-0.867h-3.24H330.48h-3.24v0.217l-7.128,40.605
		c1.945,0,3.888-0.211,5.399-0.645c1.945-0.434,3.674-1.295,4.969-2.379c1.295-1.078,2.376-2.59,3.023-4.318
		c0.864-1.729,1.512-3.885,1.945-6.48l2.159-12.527l1.081-6.264h14.47c3.457,0,5.616,0.434,6.697,1.512
		c1.081,1.295,1.512,3.023,1.081,5.402l-1.945,10.799c-0.431,1.729-0.864,3.023-1.512,3.885c-0.647,1.084-1.729,1.729-3.023,2.379
		c-0.647,0.217-1.298,0.217-2.162,0.434c-1.078,0.217-2.159,0.217-3.454,0.217h-4.104c-1.081,0-2.159,0.211-3.023,0.428
		c-1.945,0.434-3.674,1.295-4.969,2.379c-1.295,1.078-2.376,2.59-3.24,4.318c-0.217,0.434-0.217,0.65-0.431,0.861h18.574h3.24
		c3.457,0,6.264-0.428,8.64-1.512c2.162-1.078,4.104-2.59,5.399-4.752c0.434-0.645,0.65-1.295,0.864-1.939
		c0.864-1.945,1.515-4.107,2.162-6.914l1.726-10.799C374.329,155.733,374.329,153.36,374.112,151.415L374.112,151.415z"/>
	<path fill-rule="evenodd" clip-rule="evenodd" fill="#004595" d="M225.721,149.259c-0.649-2.162-1.944-3.674-4.104-4.541
		c-1.296-0.645-3.24-1.078-5.616-1.078c-2.159,0-3.888,0.217-5.399,0.65c-1.944,0.428-3.672,1.078-4.969,2.156
		c-0.647,0.65-1.295,1.084-1.727,1.729c0,0.217-0.217,0.217-0.217,0.217l-1.512,2.59l-12.959,22.037l-5.184-22.037l-0.649-2.156
		c0-0.217-0.215-0.434-0.215-0.65c-0.432-1.078-1.08-1.729-1.944-2.373c-0.432-0.434-1.081-0.867-1.729-1.084
		c-1.296-0.645-3.24-1.078-5.616-1.078c-1.944,0-3.888,0.217-5.399,0.65c-0.432,0-0.864,0.217-1.296,0.428
		c-1.512,0.434-2.591,1.084-3.672,1.729c-1.295,1.295-2.376,2.596-3.24,4.535c-0.647,1.301-1.295,3.029-1.727,4.752l-2.808,16.418
		l-1.729,9.938l-0.432,2.156c1.729,0,3.025-0.211,4.537-0.428c0.215-0.217,0.647-0.217,1.08-0.217
		c1.944-0.434,3.456-1.295,4.752-2.379c1.296-1.078,2.376-2.59,3.24-4.318c0.649-1.512,1.296-3.674,1.729-6.047l2.376-13.611
		l0.215-1.295l2.161,8.209l3.023,12.527l0.649,1.945c0.215,0.861,0.647,1.729,1.295,2.379c1.081,1.078,2.376,1.939,4.104,2.59
		c1.296,0.217,3.023,0.434,4.535,0.645c1.945-0.211,3.457-0.428,4.969-0.645c1.944-0.434,3.456-1.295,4.752-2.379
		c0.647-0.428,1.08-1.078,1.512-1.729h0.217l1.512-2.59l7.775-12.961l4.969-7.992l-0.432,1.295l-2.376,13.828
		c-0.217,2.156-0.432,4.102-0.217,5.613c0.217,1.729,0.864,3.24,1.944,4.324c0.649,0.861,1.729,1.512,3.025,2.156
		c0.432,0,0.647,0.217,1.08,0.434c1.296,0.434,3.023,0.434,4.752,0.645l0.432-1.939l1.512-8.209l3.457-19.658
		C226.153,152.282,226.153,150.554,225.721,149.259L225.721,149.259z"/>
	<path fill-rule="evenodd" clip-rule="evenodd" fill="#004595" d="M489.671,143.423h-2.376h-0.647c-3.023,0-5.399,0.217-7.342,0.867
		c-1.945,0.428-3.674,1.078-4.969,2.156c-0.434,0.434-0.864,0.867-1.298,1.512l-1.512,2.162l-0.647,0.861l-16.415,23.332
		l-8.209-24.41l-0.864-1.945c-0.647-1.512-1.942-2.59-3.454-3.24c-1.515-0.645-3.674-1.078-6.267-1.078
		c-0.647-0.217-1.295-0.217-1.942-0.217h-1.081h-2.159h-1.081l0.434,0.867l11.663,33.264l2.593,6.691h3.023h0.864h3.023
		c3.023,0,5.399-0.211,7.345-0.645c1.942-0.434,3.671-1.295,4.969-2.379c0.431-0.428,0.647-0.861,1.078-1.078l1.512-2.162
		l0.65-0.861l23.76-33.697H489.671L489.671,143.423z"/>
	<path fill-rule="evenodd" clip-rule="evenodd" fill="#004595" d="M60.48,183.601l-6.048-17.279l-5.616-16.418l-2.159-6.48h-3.24
		h-0.864h-3.023c-3.025,0-5.401,0.217-7.345,0.867c-1.944,0.428-3.672,1.078-4.967,2.156c-0.649,0.65-1.081,1.084-1.729,1.729
		l-0.432,0.867l-1.08,1.512L0,184.245h1.08H3.24h1.08c2.808,0,5.184-0.211,7.128-0.645c2.161-0.434,3.672-1.295,4.969-2.379
		c0.432-0.428,0.864-0.861,1.296-1.512l1.08-1.512l0.647-0.861l2.376-3.24l14.041-20.303l4.32,12.527c-0.432,0-0.647,0-1.08,0
		c-1.944,0-3.888,0.217-5.401,0.645c-1.944,0.434-3.672,1.301-4.967,2.379c-1.512,1.078-2.593,2.59-3.457,4.318
		c0,0.217,0,0.217,0,0.434h17.496l1.296,3.674l0.432,1.723c0.432,0.434,0.647,1.084,1.08,1.518c1.081,1.078,2.376,1.939,4.32,2.59
		c1.729,0.434,4.104,0.645,6.697,0.645h1.08h2.159h1.081L60.48,183.601L60.48,183.601z"/>
	<path fill-rule="evenodd" clip-rule="evenodd" fill="#004595" d="M527.039,183.601l-6.047-17.279l-5.616-16.418l-2.376-6.48h-3.023
		h-0.864h-3.24c-2.807,0-5.183,0.217-7.128,0.867c-1.945,0.428-3.671,1.078-4.969,2.156c-0.647,0.65-1.078,1.084-1.729,1.729
		l-0.647,0.867l-0.864,1.512l-23.974,33.691h1.078h2.159h0.864c3.026,0,5.402-0.211,7.345-0.645
		c1.945-0.434,3.671-1.295,4.969-2.379c0.431-0.428,0.864-0.861,1.295-1.512l1.081-1.512l0.647-0.861l2.376-3.24l14.039-20.303
		l4.321,12.527c-0.431,0-0.647,0-1.081,0c-2.159,0-3.888,0.217-5.616,0.645c-1.942,0.434-3.454,1.301-4.966,2.379
		c-1.298,1.078-2.376,2.59-3.24,4.318c0,0.217,0,0.217-0.217,0.434h17.713l1.295,3.674l0.434,1.723
		c0.214,0.434,0.647,1.084,1.078,1.518c1.081,1.078,2.376,1.939,4.104,2.59c1.945,0.434,4.104,0.645,6.911,0.645h1.081h2.159h0.864
		L527.039,183.601L527.039,183.601z"/>
	<path fill-rule="evenodd" clip-rule="evenodd" fill="#004595" d="M131.328,163.942c1.081-1.512,1.729-3.668,2.376-6.047
		c0.432-2.807,0.432-5.186,0-7.125c-0.215-1.945-1.08-3.24-2.159-4.324c-0.649-0.861-1.512-1.295-2.593-1.729
		c-0.432-0.211-0.863-0.428-1.512-0.645c-1.512-0.434-3.672-0.65-5.832-0.65h-1.08h-2.161h-12.744h-3.24
		c-2.808,0-5.184,0.217-7.128,0.867c-0.432,0-0.864,0.217-1.295,0.428c-1.513,0.434-2.808,1.084-3.672,1.729
		c-1.512,1.295-2.593,2.596-3.457,4.535c-0.647,1.512-1.295,3.674-1.727,6.053l-2.593,14.256l-2.159,12.955
		c2.159,0,4.103-0.211,5.616-0.645c1.944-0.434,3.671-1.295,4.967-2.379c1.296-1.078,2.376-2.59,3.025-4.318
		c0.431-0.645,0.863-1.729,1.08-2.59l0.432-2.162c0,0,1.727-11.232,2.159-13.389c0.432-1.945,0.864-7.131,7.992-7.131
		c6.913,0,10.585,0,10.585,0c2.159,0,3.456,0.434,4.103,1.295c0.432,0.65,0.649,1.729,0.649,2.807c0,0.65-0.217,1.301-0.217,2.162
		c-0.215,0.867-0.432,1.729-0.864,2.59c-0.215,0.867-0.864,1.512-1.295,2.162c-0.649,0.65-1.729,1.078-3.025,1.295
		c-0.432,0-0.864,0.217-1.512,0.217h-3.24c-1.08,0-2.159,0.217-3.023,0.434c-1.944,0.434-3.672,1.295-4.969,2.373
		c-1.512,1.084-2.591,2.596-3.456,4.324c0,0.217-0.217,0.645-0.217,0.861h11.88c2.808,0,4.753,0.434,5.833,1.295
		c0.432,0.65,0.864,1.084,1.08,1.945c0,0.434,0,0.867,0,1.512c0.217,1.729,0.864,3.023,1.729,4.107
		c1.08,1.078,2.591,1.939,4.32,2.373c1.512,0.65,3.456,0.861,5.616,0.861l1.08-5.396l0.432-3.023
		c0.432-1.512,0.215-2.807-0.217-3.891c-0.431-0.861-0.863-1.512-1.727-1.945c-0.649-0.211-1.729-0.861-3.456-1.512
		c2.159-1.078,3.671-2.373,5.183-4.102C130.896,164.376,131.112,164.159,131.328,163.942L131.328,163.942z"/>
	<path fill-rule="evenodd" clip-rule="evenodd" fill="#004595" d="M316.441,181.872c-0.65-2.162-1.945-3.674-4.104-4.535
		c-1.298-0.65-3.023-0.867-5.186-1.078h-8.423c-0.434,0-0.864,0-1.081-0.217c-0.647,0-1.295-0.217-1.729-0.217
		c-1.078-0.434-1.726-1.084-1.942-2.162c-0.217-0.861-0.217-1.945,0-3.24l2.159-12.311l2.593-14.473
		c-1.945,0-3.671,0.217-5.186,0.65c-1.942,0.428-3.671,1.078-4.966,2.156c-1.512,1.295-2.593,2.596-3.457,4.535
		c-0.647,1.512-1.081,3.24-1.729,5.402l-2.59,15.334c-0.217,1.729-0.217,3.24-0.217,4.541c0,0.211,0,0.428,0,0.428
		c0.217,1.729,0.864,3.24,1.942,4.324c1.081,1.078,2.376,1.939,4.104,2.59c1.945,0.434,4.104,0.645,6.911,0.645h3.24h14.689h2.159
		h1.081h2.159l0,0l0,0C316.655,183.384,316.655,182.522,316.441,181.872L316.441,181.872z"/>
</g>
</svg>
