<?xml version="1.0" encoding="UTF-8" standalone="no"?>
<!-- Created with Inkscape (http://www.inkscape.org/) -->

<svg
   width="100"
   height="16"
   viewBox="0 0 26.458333 4.2333334"
   version="1.1"
   id="svg5"
   inkscape:version="1.1 (c68e22c387, 2021-05-23)"
   sodipodi:docname="lg.svg"
   xmlns:inkscape="http://www.inkscape.org/namespaces/inkscape"
   xmlns:sodipodi="http://sodipodi.sourceforge.net/DTD/sodipodi-0.dtd"
   xmlns="http://www.w3.org/2000/svg"
   xmlns:svg="http://www.w3.org/2000/svg"
   xmlns:rdf="http://www.w3.org/1999/02/22-rdf-syntax-ns#"
   xmlns:cc="http://creativecommons.org/ns#"
   xmlns:dc="http://purl.org/dc/elements/1.1/">
  <title
     id="title7982">Air Cairo logo</title>
  <sodipodi:namedview
     id="namedview7"
     pagecolor="#ffffff"
     bordercolor="#111111"
     borderopacity="1"
     inkscape:pageshadow="0"
     inkscape:pageopacity="0"
     inkscape:pagecheckerboard="1"
     inkscape:document-units="px"
     showgrid="false"
     objecttolerance="1"
     gridtolerance="1"
     guidetolerance="1"
     units="px"
     inkscape:zoom="2.8284271"
     inkscape:cx="152.91184"
     inkscape:cy="-3.1819805"
     inkscape:window-width="1366"
     inkscape:window-height="746"
     inkscape:window-x="-8"
     inkscape:window-y="-8"
     inkscape:window-maximized="1"
     inkscape:current-layer="layer1"
     height="17px" />
  <defs
     id="defs2" />
  <g
     inkscape:label="Capa 1"
     inkscape:groupmode="layer"
     id="layer1">
    <g
       id="g5835"
       transform="matrix(0.02587027,0,0,0.02587027,6.0301507,-41.256243)">
      <path
         id="path2-8"
         style="fill:#3d1063;fill-opacity:1;stroke-width:0.999997"
         d="m -143.30085,1598.4169 c -11.10002,0.3 -22.2003,0.2496 -33.3003,0.3896 -18.05,52.14 -36.03986,104.3007 -54.10986,156.4307 v 0.1802 h 47.98975 c 11.23,-31.34 21.75007,-62.9401 32.83008,-94.3301 0.99,1.93 1.77991,3.9491 2.41992,6.0191 7.06,20.33 13.86986,40.7404 21.10986,61.0004 3.69,9.07 7.1203,18.2406 10.80029,27.3106 h 50.169435 c -18.189997,-52.3 -36.189595,-104.6705 -54.329585,-157.0005 z m 36.41015,0 c 18.230005,52.3 36.1594,104.7005 54.379398,157.0005 h 52.029787 c -17.170005,-49.3 -34.13877,-98.6808 -51.23877,-148.0108 -1.100002,-3.03 -1.83078,-6.2297 -3.550785,-8.9897 z m 100.77979,0 c -11.890005,0.43 -23.790668,0.1894 -35.680665,0.3794 18.009998,52.22 36.04113,104.4411 54.16113,156.6211 H 56.13909 c -2.7,-7.42 -5.2494,-14.9109 -7.879395,-22.3609 9.54,-0.1 19.07865,0.1399 28.61865,-0.1201 2.679998,0.01 5.46033,-0.8302 8.090333,-0.2402 8.67,7.41 16.989862,15.2412 25.609862,22.7212 h 67.88086 c -17.61,-15.85 -35.10992,-31.8307 -52.66992,-47.7407 6.13,-9.5 8.61951,-21.0998 7.24951,-32.2998 -2.34,-20.97 -14.43951,-39.8704 -30.49951,-53.1504 -16.150003,-13.88 -36.720237,-22.3996 -57.990238,-23.8096 z m 300.21973,0 c -12,34.26 -23.8895,68.5593 -35.9795,102.7793 -4.67,13.28 -10.14041,26.3801 -17.67041,38.3101 -3.74,5.97 -8.28978,11.4711 -13.77978,15.9111 h 42.43945 c 11.21,-4.93 21.46033,-13.3712 26.09033,-24.9712 4.1,-10.29 8.17075,-20.5889 12.26074,-30.8789 4.18,-11.06 7.57963,-22.4004 11.86963,-33.4204 10.58001,29.7 20.72977,59.5505 31.25977,89.2705 h 50.91065 c -18.22001,-52.3 -36.16061,-104.7005 -54.37061,-157.0005 z m 65.90038,0 c 18.22001,52.3 36.15035,104.7005 54.36035,157.0005 h 52.04883 c -18.18999,-52.3 -36.08927,-104.7005 -54.25927,-157.0005 z m 64.8794,0 c 18.22,52.3 36.1606,104.7005 54.3706,157.0005 h 43.76951 c -2.55997,-7.33 -4.99972,-14.7003 -7.48972,-22.0503 13.19002,-0.23 26.4201,0.5403 39.58005,-0.6797 8.60002,7.58 17.1594,15.21 25.81935,22.73 h 68.8506 c -17.73,-15.82 -35.36933,-31.7404 -53.0493,-47.6104 3.60997,-5.76 6.2292,-12.1804 7.17915,-18.9404 1.76003,-12.47 -1.19992,-25.1995 -6.4599,-36.4995 -7.55002,-16.1 -20.53005,-29.1295 -35.31007,-38.7495 -12.42001,-8.13 -26.69941,-13.2907 -41.3994,-15.2007 z m 95.34082,47.8403 c 9.99997,0.06 19.86982,5.8197 24.56984,14.6997 2.47995,4.69 3.13913,10.7107 0.36915,15.4307 -2.75002,4.85 -8.44012,7.3399 -13.8501,7.3799 -11.04,0.04 -22.07989,0.03 -33.10989,0 -4.32,-12.5 -8.64896,-24.99 -12.93897,-37.5 11.65001,-0.06 23.30998,-0.05 34.95996,-0.01 z m -501.77051,0.3003 c 10.630005,-0.02 21.25965,-0.041 31.889647,0.01 9.860003,0.06 19.580685,5.7901 24.200685,14.5401 2.560006,4.81 3.14916,11.0307 0.139163,15.7807 -2.960002,4.86 -8.870115,7.0695 -14.37012,6.9595 -9.69,-0.01 -19.37982,0.06 -29.06982,-0.04 -4.240005,-12.4201 -8.509553,-24.8396 -12.789555,-37.2496 z" />
      <path
         id="path15-0"
         style="fill:#f58220;fill-opacity:1;stroke-width:0.999997"
         d="m 221.77922,1598.4169 c -34.59,4.7 -64.12953,34.3896 -68.51953,69.0396 -2.59,18.83 0.69945,38.7709 10.93946,54.9609 9,14.19 22.01982,25.96 37.31982,33 h 25.16016 c 5.49,-4.44 10.03979,-9.9411 13.77978,-15.9111 7.53,-11.93 13.00041,-25.0301 17.67041,-38.3101 -1.84,3.99 -5.29961,6.9708 -9.09961,9.0308 -13.5,7.74 -31.60066,3.4493 -41.68066,-7.9307 -7.25,-7.58 -8.56054,-18.9297 -7.06054,-28.8897 1.36999,-8.89 6.99987,-16.5703 14.12988,-21.8203 13.43,-9.77 33.82994,-7.6688 44.93994,4.7212 5.45,-15.75 10.90109,-31.5105 16.37109,-47.2705 -7.97,-5.93 -17.54985,-9.3301 -27.33984,-10.6201 z m 441.25927,0 c -14.04998,1.97 -27.78967,7.7496 -37.9497,17.8096 -9.90998,9.49 -16.74,22.4104 -17.77005,36.1904 -1.30995,16.68 3.7701,33.4199 12.2901,47.6499 10.20997,16.75 25.36972,30.1108 42.27975,39.8408 16.74997,9.7 35.99017,15.229 55.39012,15.189 15.75,0.12 32.0205,-3.4193 44.96048,-12.7793 14.16997,-10 24.0303,-26.2202 25.0503,-43.6802 v -7.5205 c -1.28003,-15.43 -6.78113,-30.4291 -15.62108,-43.1191 -9.34004,-13.52 -22.10902,-24.3403 -35.95904,-33.0103 -13.75995,-8.61 -29.27085,-14.4403 -45.38086,-16.5703 z m 25.88235,45.0864 c 10.39103,0.091 20.5563,4.0623 28.7988,10.3535 9.96,6.88 17.14883,18.2508 17.31885,30.5508 0.21,14.02 -13.28918,24.8189 -26.67915,24.8789 -16.90005,1.1 -33.87015,-7.7891 -43.1001,-21.8891 -4.99005,-8.03 -7.80982,-18.3701 -4.31985,-27.5201 3.72997,-9.48 13.49955,-15.6304 23.51955,-16.1704 1.48875,-0.15 2.97743,-0.2165 4.4619,-0.2036 z" />
    </g>
  </g>
  <metadata
     id="metadata7980">
    <rdf:RDF>
      <cc:Work
         rdf:about="">
        <dc:title>Air Cairo logo</dc:title>
        <dc:date>9 sep 2021</dc:date>
        <cc:license
           rdf:resource="http://scripts.sil.org/OFL" />
        <dc:rights>
          <cc:Agent>
            <dc:title>N/A</dc:title>
          </cc:Agent>
        </dc:rights>
      </cc:Work>
      <cc:License
         rdf:about="http://scripts.sil.org/OFL">
        <cc:permits
           rdf:resource="http://scripts.sil.org/pub/OFL/Reproduction" />
        <cc:permits
           rdf:resource="http://scripts.sil.org/pub/OFL/Distribution" />
        <cc:permits
           rdf:resource="http://scripts.sil.org/pub/OFL/Embedding" />
        <cc:permits
           rdf:resource="http://scripts.sil.org/pub/OFL/DerivativeWorks" />
        <cc:requires
           rdf:resource="http://scripts.sil.org/pub/OFL/Notice" />
        <cc:requires
           rdf:resource="http://scripts.sil.org/pub/OFL/Attribution" />
        <cc:requires
           rdf:resource="http://scripts.sil.org/pub/OFL/ShareAlike" />
        <cc:requires
           rdf:resource="http://scripts.sil.org/pub/OFL/DerivativeRenaming" />
        <cc:requires
           rdf:resource="http://scripts.sil.org/pub/OFL/BundlingWhenSelling" />
      </cc:License>
    </rdf:RDF>
  </metadata>
</svg>
