<svg fill="none" version="1.1" id="svg1" sodipodi:docname="norwgian.svg" inkscape:version="1.3 (0e150ed6c4, 2023-07-21)" xmlns:inkscape="http://www.inkscape.org/namespaces/inkscape" xmlns:sodipodi="http://sodipodi.sourceforge.net/DTD/sodipodi-0.dtd" xmlns="http://www.w3.org/2000/svg" xmlns:svg="http://www.w3.org/2000/svg" viewBox="0 0 172.27 26.85">
  <defs id="defs1"/>
  <sodipodi:namedview id="namedview1" pagecolor="#ffffff" bordercolor="#000000" borderopacity="0.25" inkscape:showpageshadow="2" inkscape:pageopacity="0.0" inkscape:pagecheckerboard="0" inkscape:deskcolor="#d1d1d1" inkscape:zoom="2.835" inkscape:cx="22.222222" inkscape:cy="14.638448" inkscape:window-width="1920" inkscape:window-height="1001" inkscape:window-x="-9" inkscape:window-y="-9" inkscape:window-maximized="1" inkscape:current-layer="svg1"/>
  <path d="m 169.0056,9.67597 -3.312,2.8834 -0.035,0.0308 4.126,7.2921 c 0.149,0.2642 0.107,0.6031 -0.104,0.8232 l -0.604,0.6318 -6.774,-4.5034 1.222,-1.9414 -0.288,-0.1915 -2.992,2.6039 c -3.275,2.8416 -6.952,4.4814 -9.596,4.2833 -1.068,-0.0815 -1.895,-0.4534 -2.455,-1.1116 -1.561,-1.8092 -0.649,-5.4014 2.266,-8.9451 l 0.343,0.2267 c -1.543,2.1438 -1.95,4.1974 -1.031,5.2429 0.362,0.4226 0.877,0.6626 1.53,0.7132 1.62,0.1232 3.905,-0.9399 6.114,-2.846 l 0.825,-0.733 -10.166,-6.7595 0.637,-0.5546 c 0.451,-0.3918 1.082,-0.5173 1.647,-0.328 l 14.26,4.7741 0.392,-0.3389 -0.064,-0.0418 c -1.064,-0.7066 -2.055,-1.9986 -1.732,-3.1718 l 2.431,-2.1152 c 0.727,-0.6339 1.571,-1.0918 2.508,-1.3603 0.976,-0.2817 1.806,-0.2883 2.332,-0.2443 0.747,0.0616 1.371,0.2751 1.591,0.5414 0.128,0.1563 0.378,0.6252 -0.07,1.6156 -0.455,1.0037 -1.464,2.1901 -2.998,3.5262 z M 0,21.25357 h 4.0838993 v -8.265 c 0,-2.1175 1.1297,-3.3633 2.9826,-3.3633 1.853,0 2.7212,1.16 2.7212,3.3061 v 8.3222 h 4.0837997 v -9.0178 c 0,-3.9135 -2.2595,-6.4073 -5.8487997,-6.4073 -1.7672,0 -3.1849,0.6383 -4.0246,1.8269 V 6.17627 H 0.0022 v 15.0773 z M 24.076799,5.82627 c -4.7784,0 -8.1084,3.3346 -8.1084,7.8864 0,4.5519 3.33,7.8865 8.1084,7.8865 4.7785,0 8.1084,-3.306 8.1084,-7.8865 0,-4.5804 -3.3299,-7.8864 -8.1084,-7.8864 z m -3.9674,7.8864 c 0,-2.3485 1.6507,-4.0896 3.9674,-4.0896 2.3167,0 3.9674,1.7389 3.9674,4.0896 0,2.3508 -1.6507,4.0896 -3.9674,4.0896 -2.3167,0 -3.9674,-1.7388 -3.9674,-4.0896 z m 18.4017,7.5409 v -6.9004 c 0,-3.2465 1.91,-4.4065 4.2861,-4.5804 v -3.8277 c -1.7365,0.0573 -3.4751,0.7836 -4.3719,2.0867 v -1.8555 h -3.9959 v 15.0773 z m 20.4479,-15.0796 h -5.3279 c -0.7232,4.6399 -0.9847,5.6546 -2.7211,11.1353 -1.2441,-5.0163 -1.4771,-6.3501 -1.9101,-11.1353 h -4.141 c 0.5495,5.3355 1.5935,10.3231 3.1277,15.0774 h 5.2708 c 1.5628,-4.4065 2.4618,-7.5673 3.0398,-10.7566 0.5781,3.1893 1.4771,6.3501 3.0399,10.7566 h 5.2708 c 1.5342,-4.7565 2.576,-9.7419 3.1277,-15.0774 h -4.141 c -0.4352,4.7852 -0.666,6.119 -1.9101,11.1353 -1.7364,-5.4807 -1.998,-6.4954 -2.7211,-11.1353 z m 18.1818,15.4274 c 3.5036,0 6.2555,-1.7983 7.6732,-5.0163 h -4.7476 c -0.6946,0.8695 -1.6507,1.3053 -2.8948,1.3053 -1.9408,0 -3.33,-1.0719 -3.7937,-2.7844 h 11.7856 v -1.1027 c 0,-4.7565 -3.242,-8.177 -7.9919,-8.177 -4.7499,0 -8.0491,3.306 -8.0491,7.8864 0,4.5805 3.33,7.8865 8.0205,7.8865 z m -3.6772,-9.5395 c 0.5495,-1.5363 1.8529,-2.5224 3.7344,-2.5224 1.8815,0 3.0992,0.9575 3.6201,2.5224 z m 21.557997,14.7582 c 4.431,0 7.124004,-2.7249 7.124004,-7.1623 V 6.17397 h -3.996004 v 1.4219 c -0.811,-1.0719 -2.434,-1.7696 -4.141,-1.7696 -3.996,0 -6.95,3.1607 -6.95,7.3934 0,4.2327 2.982,7.3934 6.95,7.3934 1.65,0 3.242,-0.6669 4.053,-1.6816 v 0.6097 c 0,2.2319 -1.101,3.5085 -3.069,3.5085 -1.244,0 -2.228,-0.5217 -2.576,-1.3625 h -4.807 c 0.783,3.1322 3.649,5.1329 7.412,5.1329 z m -0.29,-10.0038 c -2.084,0 -3.532,-1.4506 -3.532,-3.5966 0,-2.1461 1.42,-3.5966 3.532,-3.5966 2.112,0 3.561,1.4792 3.561,3.5966 0,2.1174 -1.449,3.5966 -3.561,3.5966 z m 17.720004,-6.031 h 4.517 c 0.319,-0.8694 1.13,-1.3625 2.259,-1.3625 1.187,0 1.911,0.5217 1.911,1.3339 0,0.6669 -0.493,1.0433 -1.506,1.16 l -2.374,0.2905 c -3.446,0.405 -5.183,1.9435 -5.183,4.6113 0,2.8702 2.055,4.7851 5.212,4.7851 1.679,0 3.156,-0.6955 3.938,-1.8269 v 1.4791 h 3.996 v -9.9466 c 0,-3.5372 -2.114,-5.4807 -6.022,-5.4807 -3.475,0 -5.82,1.7388 -6.746,4.959 z m 3.706,5.7118 c 0,-0.7836 0.521,-1.2458 1.767,-1.4197 l 1.679,-0.2311 c 0.578,-0.0881 1.071,-0.2025 1.535,-0.3192 v 0.3478 c 0,1.9127 -1.102,3.1035 -2.983,3.1035 -1.187,0 -1.998,-0.5789 -1.998,-1.4791 z m 12.124,4.7565 h 4.084 v -8.265 c 0,-2.1175 1.13,-3.3633 2.983,-3.3633 1.852,0 2.721,1.16 2.721,3.3061 v 8.3222 h 4.084 v -9.0178 c 0,-3.9135 -2.26,-6.4073 -5.849,-6.4073 -1.768,0 -3.185,0.6383 -4.025,1.8269 v -1.4791 h -3.996 v 15.0773 z M 104.8006,2.5796696 C 104.8006,1.04331 105.9306,0 107.3766,0 c 1.446,0 2.576,1.04331 2.576,2.5796696 0,1.5363004 -1.13,2.5797004 -2.576,2.5797004 -1.446,0 -2.576,-1.0434 -2.576,-2.5797004 z m 4.605,3.5943004 v 15.0774 h -4.084 V 6.17397 Z" fill="#ffffff" id="path1" style="fill: rgb(230, 34, 46); fill-opacity: 1; --darkreader-inline-fill: #e83641;" data-darkreader-inline-fill=""/>
</svg>