<?xml version="1.0" encoding="UTF-8"?>
<svg xmlns="http://www.w3.org/2000/svg" xmlns:xlink="http://www.w3.org/1999/xlink" width="1582px" height="480px" viewBox="0 0 1582 480" version="1.1">
<g id="surface1">
<path style=" stroke:none;fill-rule:evenodd;fill:rgb(70.980392%,60%,3.529412%);fill-opacity:1;" d="M 177.460938 37.5 C 177.460938 44.933594 178.960938 50.242188 184.238281 54.261719 L 185.636719 55.222656 C 188.941406 57.355469 189.5625 57.992188 190.859375 61.777344 L 191.46875 63.527344 C 191.757812 64.234375 192.15625 64.824219 192.765625 65.734375 C 212.039062 61.25 215.34375 22.1875 236.675781 60.640625 C 240.183594 66.980469 246.351562 78.707031 244.636719 85.84375 C 241.292969 99.722656 210.421875 112.425781 210.421875 122.214844 C 210.421875 127.898438 213.605469 129.304688 218.160156 130.945312 C 241.980469 139.472656 255.5625 141.75 278.308594 155.519531 C 289.734375 162.457031 292.761719 167.167969 292.761719 181.046875 C 292.761719 200.742188 268.023438 208.40625 252.3125 212.371094 C 219.160156 220.722656 101.121094 225.734375 74.789062 200.195312 C 68.023438 193.632812 67.308594 192.851562 69.226562 184.574219 L 193.96875 184.582031 C 203.820312 184.667969 208.867188 183.804688 214.253906 179.011719 L 233.664062 160.769531 C 236.804688 157.742188 238.238281 157.675781 238.636719 152.804688 C 232.667969 147.917969 233.148438 155.25 210.421875 155.15625 C 200.234375 155.121094 190.015625 155.15625 179.824219 155.15625 L 182.5625 150.863281 C 183.894531 149.214844 184.554688 148.632812 185.960938 147.203125 C 207.328125 125.761719 202.273438 133.398438 202.171875 89.269531 C 202.144531 71.269531 205.699219 71.695312 205.699219 63.382812 C 195.679688 63.382812 200.011719 67.25 187.535156 76.972656 C 174.59375 87.066406 178.617188 99.722656 178.636719 124.554688 C 178.671875 150.863281 171.675781 146.511719 177.460938 155.15625 L 61.003906 155.15625 C 49.628906 155.15625 30.410156 157.742188 30.410156 142.222656 C 30.410156 131.363281 39.777344 131.574219 50.40625 131.621094 C 69.023438 131.714844 88.296875 135.796875 101.898438 121.9375 C 104.777344 118.984375 125.792969 101.039062 111.582031 101.039062 C 107.0625 101.039062 107.75 106.769531 97.566406 107 C 79.585938 107.425781 59.441406 105.261719 45.683594 115.121094 L 24.84375 134.289062 C 15.753906 143.464844 6.882812 146.34375 6.882812 161.046875 C 6.882812 177.472656 31.871094 183.613281 48.128906 183.34375 C 53.359375 183.242188 57.199219 182.140625 56.960938 186.390625 C 56.960938 186.601562 53.980469 194.324219 53.46875 195.898438 C 51.542969 202.355469 51.582031 209.363281 51.582031 216.34375 C 51.582031 241.992188 100.554688 254.507812 122.164062 255.167969 C 129.082031 255.382812 131.097656 256.34375 137.46875 256.34375 C 117.304688 298.398438 155.734375 318.695312 190.414062 318.695312 C 229.214844 318.695312 246.15625 314.703125 279.652344 300.910156 C 283.574219 299.277344 288.878906 297.140625 292.761719 295.1875 C 301.121094 291.046875 309.25 288.058594 317.257812 283.195312 C 332.328125 274.066406 345.226562 264.09375 356.140625 250.335938 C 378.183594 222.417969 391.347656 195.195312 366.085938 164.207031 C 346.167969 139.75 333.234375 147.929688 355.78125 119.351562 C 368.148438 103.660156 372.515625 90.714844 357.769531 72.5 C 340.714844 51.472656 340.226562 51.910156 321.875 68.984375 C 318.941406 71.742188 317.257812 72.445312 314.210938 75.410156 C 311.269531 78.269531 308.480469 79.5 308.054688 84.566406 C 320.65625 93.332031 314.925781 74.953125 331.265625 96.640625 C 360.59375 135.613281 312.765625 139.539062 312.765625 158.6875 C 312.765625 163.371094 314.203125 164.019531 317.164062 166.046875 C 334.941406 178.34375 364.527344 181.871094 364.527344 209.289062 C 364.527344 229.605469 344.957031 243.546875 331.234375 251.269531 C 311.460938 262.398438 283.613281 271.324219 258.652344 273.992188 L 204.496094 277.585938 C 194.476562 277.410156 181.304688 276.011719 171.417969 272.992188 C 162.25 270.175781 152.769531 265.304688 150.402344 255.167969 C 167.914062 255.167969 191.988281 251.546875 206.652344 247.898438 C 236.796875 240.371094 264.515625 230.453125 286.769531 209.167969 L 288.5 207.382812 C 298.804688 196.277344 309.25 179.992188 309.25 159.863281 C 309.25 129.863281 270.714844 119.789062 248.804688 109.714844 C 244.582031 107.757812 243.609375 106.734375 244.441406 103.992188 C 247.257812 94.445312 265.707031 92.113281 265.707031 72.796875 C 265.707031 58.734375 264.085938 47.382812 257.003906 35.621094 C 253.421875 29.730469 245.175781 18.6875 237.492188 18.6875 C 230.121094 18.6875 228.074219 24.925781 224.261719 29.011719 C 208.289062 46.121094 197.496094 36.972656 197.496094 28.085938 C 197.496094 17.9375 203.984375 16.613281 202.171875 8.09375 C 192.78125 8.09375 191.347656 11.601562 185.40625 18.355469 C 182.035156 22.207031 177.460938 30.714844 177.460938 37.5 "/>
<path style=" stroke:none;fill-rule:evenodd;fill:rgb(2.352941%,30.196078%,18.431373%);fill-opacity:1;" d="M 1405.695312 189.277344 C 1414.789062 189.277344 1420.816406 187.4375 1429.164062 188.15625 C 1436.832031 188.84375 1443.414062 189.277344 1452.753906 189.277344 C 1450.839844 182.074219 1441.089844 184.113281 1439.859375 166.898438 C 1437.664062 136.351562 1438.644531 93.605469 1438.644531 62.214844 L 1460.105469 86.628906 C 1463.53125 90.074219 1464.539062 92.167969 1467.742188 95.464844 C 1470.984375 98.796875 1471.957031 100.417969 1474.835938 103.660156 L 1540.648438 179.046875 C 1544.074219 183.128906 1551.464844 193.992188 1557.472656 193.992188 C 1559.398438 193.992188 1563.34375 192.269531 1563.34375 190.453125 C 1562.546875 153.863281 1559.109375 52.878906 1566.144531 28.53125 C 1570.25 14.25 1574.421875 21.1875 1575.117188 12.789062 C 1535.402344 15.195312 1549.046875 12.03125 1530.410156 11.613281 C 1530.53125 17.128906 1530.113281 14.667969 1532.882812 17.378906 C 1537.585938 22.011719 1540.074219 23.984375 1540.9375 36.378906 C 1542.722656 61.722656 1543.351562 116.121094 1543.351562 142.222656 C 1537.5 138.304688 1532.855469 130.359375 1527.761719 124.863281 L 1434.859375 15.390625 C 1431.019531 11.898438 1427.582031 12.832031 1420.960938 12.828125 C 1414.25 12.808594 1412.074219 11.613281 1404.53125 11.613281 C 1405.410156 22.1875 1416.707031 11.511719 1418.65625 48.09375 C 1419.480469 63.78125 1417.484375 170.34375 1416.214844 173.898438 C 1415.136719 176.925781 1413.714844 179.703125 1411.316406 181.972656 C 1407.003906 186 1406.207031 183.222656 1405.695312 189.277344 Z M 831.59375 21.027344 C 831.59375 36.324219 810.789062 54.804688 803.347656 64.558594 C 800.882812 67.789062 799.019531 69.5 795.984375 72.492188 C 789.855469 78.546875 786.792969 85.363281 780.996094 86.917969 L 782.203125 46.945312 C 782.496094 34.253906 784.164062 18.925781 793.929688 16.324219 L 793.929688 12.789062 C 783.449219 12.789062 777.5625 13.972656 766.878906 13.972656 C 756.175781 13.972656 750.316406 12.789062 739.828125 12.789062 C 744.492188 30.289062 753.945312 -0.757812 753.945312 92.796875 L 753.945312 164.574219 C 753.945312 183.546875 742.921875 182.085938 741.003906 189.277344 C 755.835938 189.277344 765.257812 187.613281 778.8125 189.105469 C 810.34375 192.601562 790.753906 185.304688 786.164062 178.234375 C 781.367188 170.910156 782.40625 138.335938 781.050781 123.316406 C 779.859375 110.296875 781.339844 113.417969 785.707031 106.917969 C 791.375 110.722656 801.578125 124.730469 806.492188 130.835938 L 840.683594 174.296875 C 842.8125 176.613281 844.757812 177.621094 847.15625 179.601562 C 862.800781 192.539062 887.417969 195.390625 904.257812 186.65625 C 907.230469 185.140625 907.730469 185.113281 908.070312 181.046875 C 901.921875 180.535156 904.820312 179.398438 898.332031 180.675781 C 881.214844 184.128906 873.539062 172.175781 860.71875 157.808594 C 858.476562 155.25 857.1875 153.390625 854.847656 150.714844 C 852.785156 148.371094 851.003906 145.972656 849.0625 143.546875 C 842.738281 135.601562 808.398438 94.222656 804.523438 86.917969 C 806.976562 83.242188 810.03125 81.019531 813.25 76.816406 C 819.457031 68.796875 855.597656 33.046875 862.003906 27.929688 C 876.125 16.640625 881.398438 18.046875 885.714844 11.613281 C 878.234375 11.613281 875.890625 12.789062 868.058594 12.789062 L 845.703125 12.789062 C 841.304688 12.789062 836.304688 11.335938 834.109375 11.835938 C 828.371094 13.148438 831.59375 16.324219 831.59375 21.027344 Z M 1311.578125 62.214844 C 1313.414062 70.074219 1317.199219 78.054688 1319.949219 85.605469 C 1321.886719 90.925781 1327.640625 104.4375 1328.050781 109.269531 C 1325.0625 109.269531 1321.542969 109.085938 1318.625 109.269531 L 1302.183594 109.269531 C 1298.90625 109.085938 1294.945312 109.269531 1291.574219 109.269531 C 1295.0625 102.046875 1298.042969 93.707031 1301.15625 85.917969 C 1302.914062 81.527344 1308.339844 65.945312 1311.578125 62.214844 Z M 1223.34375 190.453125 C 1229.792969 190.453125 1240.265625 188.878906 1246.023438 188.433594 C 1251.632812 187.953125 1262.949219 190.453125 1269.226562 190.453125 C 1268.753906 184.613281 1264.523438 184.667969 1264.523438 178.6875 L 1281.84375 132.472656 C 1287.683594 117.714844 1281.714844 121.039062 1328.050781 121.039062 C 1334.890625 121.039062 1335.632812 125.953125 1337.308594 130.621094 C 1340.390625 139.269531 1351.574219 167.472656 1351.574219 172.816406 C 1351.574219 180.984375 1344.714844 181.742188 1344.511719 190.453125 C 1353.195312 190.453125 1363.089844 188.101562 1377.46875 188.101562 C 1387.523438 188.101562 1393.039062 190.453125 1402.179688 190.453125 C 1401.457031 181.871094 1395.335938 187.757812 1386.902344 173.945312 C 1381.957031 165.832031 1339.667969 57.683594 1331.578125 37.5 C 1328.640625 30.160156 1325.503906 20.910156 1322.171875 13.972656 C 1315.488281 13.972656 1308.820312 13.972656 1302.15625 13.992188 C 1293.988281 14.027344 1290.730469 12.789062 1282.167969 12.789062 C 1284.730469 17.648438 1282.585938 14.363281 1285.863281 17.335938 C 1304.210938 34.039062 1300.15625 39.222656 1293.242188 55.660156 L 1273.425781 104.066406 C 1269.226562 114.640625 1248.089844 168.160156 1242.378906 175.390625 C 1233.191406 186.953125 1227.789062 182.046875 1223.34375 190.453125 Z M 644.515625 62.214844 L 657.460938 97.511719 C 659.023438 101.464844 660.265625 105.660156 662.191406 109.269531 C 649.507812 109.269531 637.191406 109.269531 624.535156 109.269531 C 627.988281 102.046875 631 93.707031 634.101562 85.917969 L 641.117188 68.222656 C 641.710938 66.757812 641.589844 66.714844 642.5625 64.957031 C 643.914062 62.546875 643.394531 63.5 644.515625 62.214844 Z M 556.285156 190.453125 C 562.742188 190.453125 573.210938 188.878906 578.96875 188.433594 C 584.582031 187.953125 595.894531 190.453125 602.171875 190.453125 C 600.949219 175.769531 589.179688 196.871094 608.902344 147.769531 C 622.09375 114.917969 609.375 121.039062 660.996094 121.039062 C 669.023438 121.039062 671.390625 132.796875 675.273438 144.425781 C 677.214844 150.332031 684.519531 166.769531 684.519531 172.816406 C 684.519531 180.15625 678.167969 182.046875 677.484375 190.453125 C 686.132812 190.453125 696.027344 188.101562 710.40625 188.101562 C 720.46875 188.101562 725.984375 190.453125 735.117188 190.453125 C 734.394531 181.871094 728.28125 187.757812 719.855469 173.945312 C 715.054688 166.085938 679.816406 75.703125 673.597656 60.195312 L 655.109375 13.972656 C 648.441406 13.972656 641.757812 13.972656 635.089844 13.992188 C 626.925781 14.027344 623.632812 12.789062 615.105469 12.789062 C 618.714844 19.59375 625.453125 21.351562 630.054688 30.796875 C 632.183594 35.121094 633.054688 38.871094 631.519531 43.214844 L 606.382812 104.066406 C 602.132812 114.695312 581.042969 168.160156 575.332031 175.390625 C 570.339844 181.675781 566.460938 182.667969 560.945312 185.695312 C 556.507812 188.101562 558.613281 186.09375 556.285156 190.453125 Z M 504.519531 102.214844 C 504.519531 85.011719 503.84375 39.992188 506.878906 26.910156 C 515.054688 26.734375 532.214844 22.128906 545.464844 35.371094 C 562.507812 52.429688 559.910156 94.105469 532.191406 102.917969 C 519.800781 106.835938 515.21875 102.445312 504.519531 102.214844 Z M 477.457031 110.453125 C 477.457031 121.324219 478.449219 165.714844 475.335938 174.214844 C 473.625 178.898438 467.226562 184.574219 462.171875 185.75 L 462.171875 190.453125 C 468.152344 190.453125 468.589844 189.277344 475.113281 189.277344 L 505.722656 189.277344 C 512.238281 189.277344 512.671875 190.453125 518.644531 190.453125 C 517.785156 180.046875 505.425781 190.039062 505.675781 157.539062 L 504.519531 111.621094 C 519.933594 115.222656 546.078125 114.277344 559.613281 105.539062 C 607.042969 74.890625 585.652344 13.972656 531.578125 13.972656 L 462.171875 13.972656 C 462.664062 19.871094 463.792969 18.242188 467.707031 21.363281 C 470.605469 23.667969 472.105469 25.835938 473.4375 29.75 C 477.09375 40.195312 477.457031 97.269531 477.457031 110.453125 Z M 998.640625 55.148438 C 998.640625 73.324219 1004.910156 83.910156 1019.796875 95.175781 C 1025.082031 99.15625 1029.648438 102.519531 1035.582031 106.4375 C 1041.082031 110.09375 1046.421875 113.734375 1051.328125 117.761719 C 1061.023438 125.75 1071.464844 135.160156 1070.789062 151.160156 C 1070.417969 159.789062 1067.410156 165.640625 1063.113281 170.203125 C 1047.710938 186.582031 1019.019531 177.613281 1009.226562 157.519531 C 1007.640625 154.277344 1004.167969 148.84375 1003.355469 145.75 C 991.808594 145.75 992.773438 149.074219 992.773438 156.335938 C 992.773438 172.398438 992.644531 181.640625 1004.058594 185.039062 C 1029.925781 192.734375 1057.707031 196.722656 1079.480469 178.359375 C 1088.714844 170.582031 1097.460938 157.566406 1097.460938 141.046875 C 1097.460938 95.007812 1023.351562 80.992188 1023.351562 48.09375 C 1023.351562 25.519531 1049.523438 16.722656 1069.964844 33.242188 C 1077.371094 39.203125 1077.355469 51.621094 1088.058594 51.621094 C 1096.351562 51.621094 1090.40625 32.128906 1090.40625 15.148438 C 1077.546875 12.140625 1079.601562 16.324219 1073.929688 16.324219 C 1068.300781 16.324219 1058.855469 12.789062 1045.710938 12.789062 C 1021.09375 12.789062 998.640625 31.230469 998.640625 55.148438 Z M 1202.167969 15.148438 C 1192.058594 15.148438 1140.382812 16.140625 1134.660156 14.417969 C 1127.429688 12.25 1134.253906 11.613281 1119.800781 11.613281 C 1119.496094 15.566406 1115.3125 23.621094 1113.347656 27.511719 C 1110.636719 32.898438 1106.222656 35.851562 1105.703125 42.203125 C 1129.457031 47.742188 1106.925781 26.910156 1172.765625 26.910156 L 1172.765625 164.574219 C 1172.765625 170.464844 1171.691406 175.84375 1168.941406 179.574219 C 1164.332031 185.769531 1160.34375 184.113281 1159.816406 190.453125 L 1193.929688 189.277344 C 1202.445312 189.277344 1205.722656 190.453125 1213.925781 190.453125 C 1213.179688 181.324219 1206.484375 187.324219 1202.84375 173.296875 C 1201.390625 167.628906 1200.976562 153.855469 1200.992188 146.925781 C 1201.066406 112.957031 1198.246094 72.789062 1201.046875 37.566406 C 1201.410156 33.011719 1202.167969 32.734375 1202.167969 26.910156 L 1231.582031 26.910156 C 1244.421875 26.910156 1239.042969 43.378906 1245.71875 43.378906 C 1255.875 43.378906 1254.382812 35.722656 1261.765625 20.632812 C 1263.679688 16.695312 1265.308594 15.195312 1265.707031 10.4375 C 1257.679688 10.4375 1257.503906 10.140625 1251.152344 12.363281 L 1219.863281 15.175781 C 1214.121094 15.351562 1207.949219 15.148438 1202.167969 15.148438 Z M 930.410156 104.574219 C 930.410156 118.363281 932.410156 168.679688 927.355469 177.980469 C 923.414062 185.195312 918.070312 183.214844 917.46875 190.453125 C 923.433594 190.453125 923.875 189.277344 930.410156 189.277344 L 958.648438 189.277344 C 965.175781 189.277344 965.628906 190.453125 971.582031 190.453125 C 971.144531 185.214844 969.878906 186.039062 966.703125 183.574219 C 964.101562 181.554688 962.742188 179.324219 961.296875 176.027344 C 956.65625 165.324219 955.910156 49.796875 959.871094 31.648438 C 960.640625 28.167969 961.816406 24.261719 963.796875 21.472656 C 967.894531 15.695312 969.84375 19.632812 970.40625 12.789062 C 963.695312 12.789062 962.265625 13.972656 955.113281 13.972656 L 931.597656 13.972656 C 924.421875 13.972656 922.996094 12.789062 916.292969 12.789062 C 917.144531 22.964844 929.476562 13.492188 929.265625 52.777344 C 929.144531 70.609375 930.410156 85.84375 930.410156 104.574219 "/>
<path style=" stroke:none;fill-rule:evenodd;fill:rgb(70.980392%,60%,3.529412%);fill-opacity:1;" d="M 259.820312 29.269531 C 259.820312 38.566406 271.890625 26.910156 286.882812 26.910156 C 292.851562 26.910156 293.296875 28.085938 299.804688 28.085938 C 297.09375 38.324219 277.476562 43.734375 277.476562 61.027344 L 277.550781 105.769531 C 276.199219 110.789062 273.347656 114.859375 275.105469 118.6875 C 278.875 122.445312 302.1875 105.925781 302.1875 83.390625 L 302.1875 41.128906 C 303.519531 37.539062 305.519531 35.613281 308.332031 33.066406 C 312.203125 29.566406 327.8125 17.289062 328.570312 13.382812 C 329.484375 8.75 326.503906 8.058594 321.078125 8 C 293.761719 7.640625 288.761719 2.242188 273.105469 15.492188 C 269.855469 18.242188 259.820312 26.253906 259.820312 29.269531 "/>
<path style=" stroke:none;fill-rule:evenodd;fill:rgb(2.352941%,30.196078%,18.431373%);fill-opacity:1;" d="M 1205.695312 238.707031 C 1208.882812 242.371094 1210.113281 247.75 1212.261719 253.316406 C 1213.695312 257.019531 1217.1875 266.019531 1217.472656 269.289062 L 1193.929688 269.289062 C 1194.417969 263.34375 1203.621094 247.566406 1205.695312 238.707031 Z M 1159.816406 313.992188 C 1164.941406 313.890625 1163.972656 313.09375 1169.230469 312.816406 C 1172.535156 312.648438 1176.433594 312.816406 1179.808594 312.816406 C 1175.230469 303.230469 1188.320312 287.371094 1189.21875 276.351562 L 1212.761719 275.1875 C 1222.40625 275.1875 1222.121094 277.945312 1226.738281 291.789062 C 1234.257812 314.390625 1230.238281 301.390625 1226.871094 313.992188 L 1253.921875 312.816406 C 1244.488281 304.628906 1245.691406 304.546875 1240.671875 291.992188 L 1210.410156 216.34375 L 1192.773438 216.34375 C 1196.640625 222.148438 1203.84375 224.84375 1201.140625 232.824219 C 1200.546875 234.53125 1199.160156 237.445312 1198.308594 239.539062 C 1194.585938 248.84375 1190.882812 256.78125 1187.21875 266.082031 C 1185.179688 271.242188 1183.71875 274.234375 1181.65625 279.382812 C 1174.183594 298.101562 1174.183594 304.046875 1161.175781 313.019531 Z M 717.46875 262.242188 C 720.773438 266.742188 725.710938 263.558594 725.710938 271.667969 L 725.710938 299.898438 C 725.710938 308.945312 722.082031 308.851562 718.644531 313.992188 C 725.171875 313.992188 725.625 312.816406 731.585938 312.816406 C 737.550781 312.816406 737.992188 313.992188 744.519531 313.992188 C 741.539062 302.832031 737.464844 325.425781 737.464844 272.816406 C 737.464844 267.511719 760.992188 252.09375 760.992188 283.410156 C 760.992188 291.167969 760.359375 294.382812 759.84375 301.09375 C 759.046875 311.6875 755.804688 307.039062 753.945312 313.992188 C 759.914062 313.992188 759.308594 312.816406 764.527344 312.816406 C 771.230469 312.816406 772.65625 313.992188 779.820312 313.992188 C 775.71875 307.871094 774.121094 310.90625 772.527344 301.289062 C 771.65625 296.179688 771.582031 289.039062 771.589844 282.242188 C 771.617188 259.425781 771.089844 255.167969 750.410156 255.167969 C 745.945312 255.167969 740.308594 259.148438 737.464844 261.066406 L 737.464844 255.167969 Z M 976.292969 264.582031 C 979.867188 264.660156 980.582031 265.128906 983.359375 265.761719 C 984.394531 278.277344 987.988281 301.554688 980.027344 310.667969 C 977.097656 313.992188 979.320312 308.890625 977.476562 313.992188 C 983.996094 313.992188 984.441406 312.816406 990.402344 312.816406 C 996.355469 312.816406 996.808594 313.992188 1003.355469 313.992188 C 999.355469 302.964844 996.292969 324.019531 996.292969 271.667969 C 996.292969 270.398438 994.699219 269.890625 1000.6875 266.632812 C 1007.105469 263.128906 1018.648438 261.945312 1018.648438 276.351562 L 1018.648438 299.898438 C 1018.648438 308.945312 1015.019531 308.851562 1011.59375 313.992188 C 1018.132812 313.992188 1018.554688 312.816406 1024.527344 312.816406 C 1030.5 312.816406 1030.945312 313.992188 1037.472656 313.992188 C 1036.089844 310.1875 1031.972656 310.363281 1030.667969 301.992188 C 1028.25 286.871094 1035.46875 255.167969 1017.464844 255.167969 C 1001.714844 255.167969 1006.324219 254.34375 996.292969 261.066406 C 996.191406 256.425781 996.605469 258.296875 995.117188 255.167969 C 990.5625 256.234375 989.523438 257.878906 985.164062 259.34375 C 979.496094 261.214844 977.65625 259.519531 976.292969 264.582031 Z M 506.878906 264.582031 C 510.460938 264.660156 511.164062 265.128906 513.941406 265.761719 C 514.980469 278.277344 518.589844 301.554688 510.601562 310.667969 C 507.695312 313.992188 509.914062 308.890625 508.054688 313.992188 C 514.582031 313.992188 515.023438 312.816406 521.007812 312.816406 C 526.949219 312.816406 527.402344 313.992188 533.929688 313.992188 C 532.882812 311.101562 532.132812 312.027344 529.71875 308.828125 C 524.902344 302.445312 526.882812 283.789062 526.882812 271.667969 C 526.882812 267.132812 526.382812 270.984375 528.558594 268.613281 C 528.578125 268.585938 531.265625 266.632812 531.265625 266.632812 C 537.6875 263.128906 549.234375 261.945312 549.234375 276.351562 C 549.234375 293.953125 551.796875 303.371094 544.75 310.695312 C 541.761719 313.796875 543.816406 309.472656 542.167969 313.992188 C 548.714844 313.992188 549.152344 312.816406 555.113281 312.816406 C 561.074219 312.816406 561.527344 313.992188 568.054688 313.992188 C 567.082031 311.324219 567.683594 313.113281 566.082031 311.28125 C 564.472656 309.390625 565.703125 311.445312 563.84375 308.828125 C 562.59375 307.066406 561.511719 303.679688 561.230469 301.992188 C 557.480469 278.316406 571.277344 255.167969 538.632812 255.167969 C 533.105469 255.167969 530.214844 258.816406 526.882812 261.066406 C 526.78125 256.425781 527.207031 258.296875 525.699219 255.167969 C 521.144531 256.234375 520.117188 257.878906 515.757812 259.34375 C 510.109375 261.214844 508.238281 259.519531 506.878906 264.582031 Z M 1401.003906 261.066406 L 1401.003906 264.582031 C 1411.492188 264.816406 1408.046875 270.398438 1408.046875 302.230469 C 1408.046875 309.277344 1403.296875 309.789062 1402.179688 313.992188 C 1408.148438 313.992188 1407.539062 312.816406 1412.757812 312.816406 C 1419.472656 312.816406 1420.898438 313.992188 1428.066406 313.992188 C 1422.796875 306.160156 1419.824219 310.945312 1419.824219 283.410156 C 1419.824219 275.101562 1417.304688 264.582031 1433.933594 264.582031 C 1446.457031 264.582031 1443.347656 283.964844 1443.347656 298.722656 C 1443.347656 309.484375 1438.230469 308.601562 1436.273438 313.992188 C 1442.523438 313.992188 1443.070312 312.816406 1448.050781 312.816406 C 1453.957031 312.816406 1455.28125 313.992188 1462.179688 313.992188 C 1461.046875 310.882812 1460.097656 311.769531 1457.800781 308.972656 C 1451.753906 301.640625 1455.382812 272.457031 1453.46875 265.078125 C 1450.449219 253.363281 1439.359375 255.167969 1432.746094 255.167969 C 1428.035156 255.167969 1423.433594 259.140625 1419.824219 261.066406 L 1419.824219 255.167969 C 1413.925781 255.660156 1412.703125 260.085938 1401.003906 261.066406 Z M 923.355469 281.058594 C 923.355469 257.648438 954.804688 252.289062 960.082031 285.605469 C 963.601562 307.824219 938.449219 316.953125 928.402344 298.359375 C 926.355469 294.609375 923.355469 286.167969 923.355469 281.058594 Z M 911.582031 282.242188 C 911.582031 299.734375 919.308594 315.1875 936.289062 315.1875 C 947.910156 315.1875 952.074219 315.703125 962.222656 308.167969 C 978.542969 296.058594 975.675781 255.167969 940.992188 255.167969 C 925.589844 255.167969 911.582031 267.378906 911.582031 282.242188 Z M 797.464844 297.527344 C 797.464844 291.074219 809.113281 287.140625 813.945312 284.59375 C 813.945312 291.5 816.464844 305.789062 805.699219 305.789062 C 800.691406 305.789062 797.464844 302.113281 797.464844 297.527344 Z M 786.875 270.484375 C 788.96875 273.582031 791.070312 276.351562 796.292969 276.351562 C 802.382812 277.34375 800.578125 257.675781 810.816406 261.917969 C 814.78125 263.585938 813.769531 264.628906 813.816406 268.667969 L 813.945312 278.707031 C 770.496094 288.824219 782.941406 313.992188 800.992188 313.992188 C 809.382812 313.992188 808.816406 310.769531 815.121094 309.289062 C 817.769531 319.28125 836.765625 313.09375 837.460938 304.601562 C 831.09375 304.601562 831.210938 305.5 826.878906 304.601562 C 825.007812 296.582031 825.683594 285.019531 825.730469 275.148438 C 825.824219 254.308594 820.917969 255.167969 808.058594 255.167969 C 802.910156 255.167969 798.355469 257.371094 794.6875 259.453125 C 789.4375 262.445312 788.3125 264.324219 786.875 270.484375 Z M 1056.292969 297.527344 C 1056.292969 291.464844 1067.160156 285.890625 1072.761719 284.59375 C 1072.761719 291.5 1075.289062 305.789062 1064.511719 305.789062 C 1059.03125 305.789062 1056.292969 303.019531 1056.292969 297.527344 Z M 1045.710938 270.484375 C 1045.710938 274.925781 1050.710938 276.351562 1055.117188 276.351562 C 1061.503906 276.351562 1055.015625 268.398438 1060.847656 263.148438 C 1065.375 259.101562 1069.828125 259.066406 1072.125 265.203125 C 1073.226562 268.195312 1072.652344 271.613281 1072.761719 278.707031 C 1069.300781 278.992188 1043.339844 286.214844 1043.339844 298.722656 C 1043.339844 309.761719 1050.832031 313.992188 1060.996094 313.992188 C 1064.746094 313.992188 1069.964844 310.789062 1072.761719 309.289062 C 1077.269531 316.03125 1084.707031 315.074219 1091.339844 311.40625 C 1094.933594 309.398438 1095 309.824219 1095.121094 304.601562 C 1081.9375 304.601562 1084.722656 305.160156 1084.546875 292.808594 C 1084.445312 286.75 1083.289062 284.75 1083.316406 277.546875 C 1083.425781 256.972656 1084.085938 255.167969 1068.050781 255.167969 C 1057.921875 255.167969 1045.710938 261.019531 1045.710938 270.484375 Z M 1492.757812 262.242188 C 1501.070312 262.242188 1505.515625 265.761719 1505.699219 273.992188 L 1478.640625 273.992188 C 1480.25 267.09375 1484.417969 262.242188 1492.757812 262.242188 Z M 1465.707031 284.59375 C 1465.707031 298.222656 1474.5 313.992188 1489.230469 313.992188 C 1499.941406 313.992188 1503.980469 315.074219 1512.308594 308.851562 C 1517.503906 304.980469 1518.652344 303.621094 1518.652344 295.1875 C 1512.238281 296.878906 1509.339844 306.9375 1497.472656 306.9375 C 1482.972656 306.9375 1477.453125 293.390625 1477.453125 279.882812 C 1519.632812 279.882812 1520.792969 283.15625 1518.828125 272.84375 C 1517.957031 268.324219 1517.097656 266.953125 1514.671875 263.835938 C 1501.960938 247.453125 1465.707031 253.675781 1465.707031 284.59375 Z M 641 262.242188 C 648.414062 262.242188 652.589844 266.457031 652.738281 273.992188 L 625.6875 273.992188 C 627.324219 267.039062 632.582031 262.242188 641 262.242188 Z M 613.9375 279.882812 C 613.9375 291.257812 612.6875 297.878906 620.640625 306.113281 C 631.277344 317.105469 650.691406 316.566406 660.144531 308.445312 C 665.410156 303.925781 665.707031 304.222656 665.707031 295.1875 C 657.460938 297.378906 657.152344 306.9375 644.515625 306.9375 C 630.835938 306.9375 624.535156 293.796875 624.535156 279.882812 L 663.328125 279.882812 C 670.308594 279.882812 667.652344 255.167969 639.824219 255.167969 C 626.730469 255.167969 613.9375 266.871094 613.9375 279.882812 Z M 483.34375 235.167969 L 483.34375 302.230469 C 483.34375 308.519531 479.085938 309.832031 476.296875 313.992188 C 482.824219 313.992188 483.261719 312.816406 489.234375 312.816406 C 495.183594 312.816406 495.640625 313.992188 502.183594 313.992188 C 500.332031 307.121094 500.433594 313.796875 497.101562 307.316406 C 493.472656 300.25 495.121094 244.074219 495.121094 231.628906 C 495.121094 224.667969 498.175781 220.546875 501.007812 216.34375 L 476.296875 216.34375 C 480.308594 222.363281 483.34375 224.621094 483.34375 235.167969 Z M 1337.484375 225.75 L 1337.484375 228.113281 C 1344.554688 229.761719 1345.707031 235.011719 1345.707031 243.410156 L 1345.707031 302.230469 C 1345.707031 308.519531 1341.429688 309.832031 1338.652344 313.992188 C 1345.175781 313.992188 1345.609375 312.816406 1351.574219 312.816406 C 1357.539062 312.816406 1357.988281 313.992188 1364.527344 313.992188 C 1362.675781 307.121094 1362.785156 313.796875 1359.441406 307.316406 C 1355.796875 300.234375 1357.453125 243.019531 1357.453125 230.453125 C 1357.453125 224.558594 1358.519531 225.183594 1358.644531 219.871094 C 1350.453125 219.871094 1351.15625 222.554688 1337.484375 225.75 Z M 1097.460938 225.75 L 1097.460938 228.113281 C 1104.832031 229.816406 1105.5625 233.417969 1105.703125 242.234375 C 1105.832031 249.84375 1106.886719 255.453125 1106.886719 264.582031 C 1106.886719 274.511719 1108.3125 300.910156 1104.925781 307.363281 C 1102.269531 312.425781 1101.542969 309.222656 1099.816406 313.992188 C 1106.070312 313.992188 1106.601562 312.816406 1111.589844 312.816406 C 1117.488281 312.816406 1118.808594 313.992188 1125.6875 313.992188 C 1122.367188 304.78125 1117.46875 316.816406 1117.46875 275.1875 L 1117.46875 246.9375 C 1117.46875 236.242188 1118.644531 230.363281 1118.644531 219.871094 C 1114.550781 219.964844 1107.671875 223.382812 1097.460938 225.75 Z M 1524.523438 272.816406 C 1524.523438 280.261719 1529.695312 284.878906 1535.464844 287.75 C 1544.472656 292.234375 1550.417969 291.972656 1550.417969 301.066406 C 1550.417969 307.03125 1541.984375 308.234375 1537.4375 307.066406 C 1527.457031 304.492188 1530.308594 301.410156 1524.523438 297.527344 C 1522.6875 300.796875 1523.355469 302.519531 1523.355469 308.113281 C 1523.355469 318.175781 1560.996094 318.25 1560.996094 298.722656 C 1560.996094 274.4375 1535.113281 282.214844 1535.113281 268.121094 C 1535.113281 262.75 1542.539062 260.621094 1547.046875 261.945312 C 1553.917969 263.984375 1555.089844 268.03125 1559.8125 269.289062 C 1559.8125 254.871094 1559.269531 255.167969 1543.351562 255.167969 C 1532.761719 255.167969 1524.523438 262.105469 1524.523438 272.816406 Z M 1290.40625 261.066406 C 1292.414062 265.980469 1298.65625 263.1875 1298.65625 275.1875 C 1298.65625 325.242188 1296.507812 299.992188 1292.757812 313.992188 C 1303.785156 313.992188 1292.730469 311.769531 1317.441406 314.242188 C 1315.949219 308.34375 1314.449219 312.613281 1312.078125 305.277344 C 1309.710938 297.945312 1310.40625 284.675781 1310.40625 276.351562 C 1310.40625 273.472656 1314.402344 268.972656 1317.097656 267.632812 C 1323.585938 264.324219 1322.835938 267.574219 1329.226562 268.121094 C 1335.828125 254.371094 1332.363281 255.167969 1325.707031 255.167969 C 1318.96875 255.167969 1314.53125 260.621094 1310.40625 263.40625 L 1310.40625 255.167969 C 1306.210938 255.167969 1293.832031 259.410156 1290.40625 261.066406 Z M 839.820312 263.40625 L 849.21875 263.40625 C 849.21875 271.003906 847.503906 301.722656 850.003906 307.316406 C 854.71875 317.871094 875.234375 316.25 876.289062 303.40625 C 869.1875 303.574219 870.097656 305.675781 865.558594 305.203125 C 856.042969 304.234375 859.820312 270.796875 859.820312 263.40625 L 869.234375 263.40625 L 869.234375 256.34375 L 859.820312 256.34375 L 859.820312 241.046875 C 853.015625 242.859375 858.273438 243.269531 849.554688 251.953125 C 840.90625 260.574219 840.351562 257 839.820312 263.40625 Z M 670.410156 261.066406 C 672.207031 265.511719 670.042969 261.511719 673.449219 263.898438 C 682.160156 269.953125 679.816406 279.917969 679.816406 296.351562 C 679.816406 302.230469 678.972656 306.472656 675.910156 310.09375 C 672.363281 314.253906 674.695312 308.675781 672.761719 313.992188 C 679.003906 313.992188 679.546875 312.816406 684.519531 312.816406 C 690.40625 312.816406 691.777344 313.992188 698.648438 313.992188 C 697.507812 310.882812 696.566406 311.769531 694.277344 308.972656 C 690.472656 304.34375 691.84375 298.398438 691.574219 292.832031 C 691.121094 283.316406 686.910156 277.15625 695.316406 269.484375 C 701.0625 264.269531 702.378906 266.53125 709.230469 268.121094 C 711.042969 264.683594 713.542969 260.945312 713.933594 256.34375 C 701.351562 253.417969 700.554688 256.613281 690.40625 263.40625 L 690.40625 255.167969 Z M 572.769531 263.40625 L 582.171875 263.40625 L 582.171875 303.40625 C 582.171875 317.5 608.003906 318.160156 609.234375 303.40625 C 602.863281 303.558594 595.765625 309.167969 594.375 300.863281 C 592.457031 289.519531 592.753906 275.066406 592.753906 263.40625 L 602.171875 263.40625 L 602.171875 256.34375 L 592.753906 256.34375 L 592.753906 241.046875 C 586.257812 242.796875 590.773438 246.539062 576.90625 256.972656 C 573.453125 259.574219 573.183594 258.289062 572.769531 263.40625 Z M 879.816406 262.242188 C 887.507812 272.734375 888.054688 251.195312 888.054688 302.230469 C 888.054688 309.730469 883.789062 307.945312 882.167969 313.992188 C 888.160156 313.992188 887.539062 312.816406 892.769531 312.816406 C 899.46875 312.816406 900.898438 313.992188 908.070312 313.992188 C 903.492188 307.203125 899.804688 310.371094 899.804688 288.121094 C 899.804688 276.5 899.582031 267.445312 902.183594 256.34375 C 897.230469 256.34375 883.695312 260.351562 879.816406 262.242188 Z M 1369.238281 262.242188 C 1371.21875 267.167969 1377.46875 264.371094 1377.46875 276.351562 C 1377.46875 322.214844 1374.394531 302.964844 1370.402344 313.992188 C 1376.941406 313.992188 1377.394531 312.816406 1383.347656 312.816406 C 1389.300781 312.816406 1389.761719 313.992188 1396.269531 313.992188 C 1394.4375 308.890625 1391.226562 311.34375 1389.617188 304.1875 C 1388.226562 297.835938 1389.003906 280.640625 1389.238281 272.871094 C 1389.449219 265.980469 1390.402344 261.796875 1390.402344 256.34375 C 1384.550781 256.34375 1374.386719 259.769531 1369.238281 262.242188 Z M 1258.632812 264.582031 C 1270.390625 265.574219 1266.882812 280.363281 1266.882812 301.066406 C 1266.882812 307.410156 1262.375 310.167969 1259.816406 313.992188 C 1266.34375 313.992188 1266.800781 312.816406 1272.75 312.816406 C 1278.722656 312.816406 1279.167969 313.992188 1285.703125 313.992188 C 1281.84375 303.34375 1278.640625 323.03125 1278.640625 273.992188 C 1278.640625 266.175781 1279.816406 263.804688 1279.816406 256.34375 C 1268.519531 256.34375 1275.640625 257.242188 1266.632812 259.640625 C 1261.160156 261.066406 1259.910156 259.863281 1258.632812 264.582031 Z M 890.546875 235.53125 C 895.074219 235.53125 898.742188 239.195312 898.742188 243.714844 C 898.742188 248.25 895.074219 251.917969 890.546875 251.917969 C 886.019531 251.917969 882.335938 248.25 882.335938 243.714844 C 882.335938 239.195312 886.019531 235.53125 890.546875 235.53125 Z M 1267.695312 235.53125 C 1272.214844 235.53125 1275.890625 239.195312 1275.890625 243.714844 C 1275.890625 248.25 1272.214844 251.917969 1267.695312 251.917969 C 1263.160156 251.917969 1259.496094 248.25 1259.496094 243.714844 C 1259.496094 239.195312 1263.160156 235.53125 1267.695312 235.53125 Z M 1378.691406 235.53125 C 1383.21875 235.53125 1386.890625 239.195312 1386.890625 243.714844 C 1386.890625 248.25 1383.21875 251.917969 1378.691406 251.917969 C 1374.144531 251.917969 1370.488281 248.25 1370.488281 243.714844 C 1370.488281 239.195312 1374.144531 235.53125 1378.691406 235.53125 "/>
<path style=" stroke:none;fill-rule:evenodd;fill:rgb(70.980392%,60%,3.529412%);fill-opacity:1;" d="M 368.074219 131.621094 C 368.074219 139.929688 381.015625 148.09375 382.175781 148.09375 C 387.804688 148.09375 392.503906 135.703125 398.476562 135.796875 C 405.726562 135.9375 408.855469 148.09375 415.105469 148.09375 C 418.316406 148.09375 429.222656 135.761719 429.222656 133.984375 C 429.222656 128.796875 426.527344 127.066406 423.675781 124.257812 C 420.007812 120.648438 418.863281 117.511719 413.9375 117.511719 C 407.714844 117.511719 405.097656 130.445312 398.644531 130.445312 C 395.550781 130.445312 386.710938 121.242188 385.71875 117.511719 C 377.546875 117.511719 378.859375 117.621094 375.257812 122.355469 C 373.3125 124.910156 368.074219 128.121094 368.074219 131.621094 "/>
<path style=" stroke:none;fill-rule:evenodd;fill:rgb(70.980392%,60%,3.529412%);fill-opacity:1;" d="M 383.359375 159.863281 C 383.359375 165.730469 393.570312 176.335938 398.644531 176.335938 C 402.570312 176.335938 410.707031 165.289062 412.753906 162.214844 C 411.824219 158.214844 401.640625 145.75 398.644531 145.75 C 392.238281 145.75 383.359375 159.863281 383.359375 159.863281 "/>
<path style=" stroke:none;fill-rule:nonzero;fill:rgb(13.72549%,12.156863%,12.54902%);fill-opacity:1;" d="M 680.308594 405.789062 L 681.425781 400.546875 L 701.65625 400.546875 L 697.722656 419.363281 C 695.175781 420.953125 692.277344 422.261719 689.019531 423.28125 C 685.75 424.28125 682.539062 424.78125 679.402344 424.78125 C 672.660156 424.78125 667.632812 422.761719 664.320312 418.695312 C 661.515625 415.269531 660.105469 410.855469 660.105469 405.484375 C 660.105469 399.917969 661.339844 394.859375 663.773438 390.316406 C 666.246094 385.769531 669.335938 382.398438 673.058594 380.222656 C 676.796875 378.046875 680.9375 376.964844 685.5 376.964844 C 688.808594 376.964844 691.742188 377.558594 694.335938 378.753906 C 696.953125 379.929688 698.945312 381.519531 700.34375 383.539062 C 701.730469 385.519531 702.730469 388.09375 703.324219 391.296875 L 697.324219 392.027344 C 696.683594 388.808594 695.316406 386.34375 693.257812 384.621094 C 691.195312 382.917969 688.566406 382.054688 685.355469 382.054688 C 682 382.054688 678.863281 382.992188 675.972656 384.796875 C 673.03125 386.621094 670.726562 389.363281 668.992188 393.027344 C 667.253906 396.707031 666.382812 400.871094 666.382812 405.546875 C 666.382812 410.214844 667.542969 413.730469 669.828125 416.101562 C 672.132812 418.480469 675.296875 419.6875 679.34375 419.6875 C 683.378906 419.6875 687.722656 418.335938 692.351562 415.703125 L 694.425781 405.789062 Z M 706.3125 424.019531 L 713.277344 390.464844 L 718.367188 390.464844 L 716.933594 397.332031 C 718.671875 394.753906 720.367188 392.84375 722.03125 391.613281 C 723.671875 390.363281 725.367188 389.75 727.097656 389.75 C 728.214844 389.75 729.605469 390.148438 731.273438 390.984375 L 728.9375 396.277344 C 727.957031 395.554688 726.882812 395.167969 725.710938 395.167969 C 723.707031 395.167969 721.644531 396.308594 719.523438 398.539062 C 717.40625 400.769531 715.746094 404.761719 714.523438 410.558594 L 711.726562 424.019531 Z M 752.464844 412.640625 L 758.011719 413.148438 C 757.195312 415.90625 755.363281 418.5 752.492188 421 C 749.632812 423.472656 746.195312 424.703125 742.199219 424.703125 C 739.707031 424.703125 737.417969 424.140625 735.363281 423.019531 C 733.273438 421.851562 731.6875 420.195312 730.605469 417.992188 C 729.523438 415.804688 728.976562 413.332031 728.976562 410.539062 C 728.976562 406.871094 729.835938 403.351562 731.511719 399.917969 C 733.226562 396.472656 735.402344 393.917969 738.113281 392.25 C 740.816406 390.585938 743.742188 389.75 746.890625 389.75 C 750.882812 389.75 754.09375 390.984375 756.492188 393.472656 C 758.878906 395.929688 760.054688 399.304688 760.054688 403.59375 C 760.054688 405.230469 759.914062 406.898438 759.628906 408.628906 L 734.863281 408.628906 C 734.773438 409.277344 734.734375 409.863281 734.734375 410.390625 C 734.734375 413.527344 735.449219 415.9375 736.917969 417.601562 C 738.363281 419.242188 740.113281 420.054688 742.214844 420.054688 C 744.179688 420.054688 746.121094 419.4375 748.019531 418.148438 C 749.917969 416.890625 751.398438 415.027344 752.464844 412.640625 Z M 735.792969 404.222656 L 754.679688 404.222656 C 754.679688 403.640625 754.703125 403.222656 754.703125 402.953125 C 754.703125 400.121094 753.984375 397.9375 752.546875 396.410156 C 751.105469 394.910156 749.25 394.140625 747.011719 394.140625 C 744.539062 394.140625 742.316406 395 740.300781 396.65625 C 738.289062 398.332031 736.78125 400.851562 735.792969 404.222656 Z M 786.3125 419.824219 C 784.328125 421.539062 782.425781 422.78125 780.609375 423.546875 C 778.773438 424.335938 776.800781 424.703125 774.710938 424.703125 C 771.636719 424.703125 769.148438 423.816406 767.25 422 C 765.34375 420.1875 764.40625 417.863281 764.40625 415.019531 C 764.40625 413.148438 764.832031 411.5 765.683594 410.058594 C 766.527344 408.628906 767.65625 407.472656 769.0625 406.605469 C 770.488281 405.722656 772.203125 405.105469 774.246094 404.730469 C 775.542969 404.472656 777.980469 404.277344 781.582031 404.113281 C 785.171875 403.980469 787.765625 403.59375 789.332031 402.992188 C 789.765625 401.4375 789.996094 400.140625 789.996094 399.09375 C 789.996094 397.777344 789.503906 396.75 788.535156 395.980469 C 787.199219 394.9375 785.265625 394.417969 782.710938 394.417969 C 780.292969 394.417969 778.320312 394.9375 776.785156 396 C 775.246094 397.074219 774.15625 398.59375 773.460938 400.546875 L 767.703125 400.039062 C 768.878906 396.707031 770.722656 394.167969 773.285156 392.40625 C 775.839844 390.628906 779.078125 389.75 782.941406 389.75 C 787.089844 389.75 790.347656 390.75 792.785156 392.722656 C 794.625 394.1875 795.542969 396.101562 795.542969 398.464844 C 795.542969 400.242188 795.289062 402.316406 794.773438 404.667969 L 792.921875 413 C 792.347656 415.660156 792.050781 417.796875 792.050781 419.453125 C 792.050781 420.519531 792.285156 422.027344 792.765625 424.019531 L 786.976562 424.019531 C 786.664062 422.90625 786.441406 421.519531 786.3125 419.824219 Z M 788.449219 407.019531 C 787.65625 407.316406 786.78125 407.574219 785.859375 407.730469 C 784.949219 407.917969 783.40625 408.09375 781.246094 408.269531 C 777.921875 408.558594 775.589844 408.957031 774.222656 409.390625 C 772.847656 409.835938 771.824219 410.558594 771.136719 411.546875 C 770.433594 412.546875 770.082031 413.628906 770.082031 414.824219 C 770.082031 416.445312 770.648438 417.742188 771.738281 418.757812 C 772.847656 419.796875 774.414062 420.316406 776.460938 420.316406 C 778.359375 420.316406 780.183594 419.816406 781.914062 418.835938 C 783.671875 417.824219 785.050781 416.445312 786.070312 414.648438 C 787.089844 412.863281 787.875 410.304688 788.449219 407.019531 Z M 812.984375 419.378906 L 812.03125 424.039062 C 810.675781 424.40625 809.34375 424.59375 808.058594 424.59375 C 805.789062 424.59375 803.992188 424.027344 802.652344 422.90625 C 801.652344 422.054688 801.140625 420.917969 801.140625 419.453125 C 801.140625 418.722656 801.390625 417.039062 801.949219 414.382812 L 806.039062 394.859375 L 801.503906 394.859375 L 802.410156 390.464844 L 806.9375 390.464844 L 808.660156 382.242188 L 815.207031 378.316406 L 812.621094 390.464844 L 818.234375 390.464844 L 817.269531 394.859375 L 811.714844 394.859375 L 807.835938 413.433594 C 807.34375 415.761719 807.113281 417.183594 807.113281 417.660156 C 807.113281 418.335938 807.308594 418.855469 807.6875 419.203125 C 808.097656 419.554688 808.714844 419.734375 809.605469 419.734375 C 810.863281 419.734375 812.003906 419.632812 812.984375 419.378906 Z M 836.175781 424.019531 L 845.878906 377.734375 L 865.179688 377.734375 C 868.53125 377.734375 871.039062 378.113281 872.714844 378.878906 C 874.382812 379.65625 875.769531 380.933594 876.871094 382.824219 C 877.957031 384.695312 878.503906 386.757812 878.503906 389.085938 C 878.503906 391.003906 878.113281 392.945312 877.328125 394.910156 C 876.546875 396.890625 875.574219 398.539062 874.382812 399.796875 C 873.179688 401.09375 871.996094 402.066406 870.761719 402.703125 C 869.53125 403.351562 868.261719 403.84375 866.855469 404.175781 C 863.875 404.863281 860.875 405.207031 857.859375 405.207031 L 846.257812 405.207031 L 842.292969 424.019531 Z M 847.347656 399.964844 L 857.597656 399.964844 C 861.578125 399.964844 864.492188 399.539062 866.347656 398.6875 C 868.1875 397.832031 869.6875 396.535156 870.816406 394.796875 C 871.929688 393.058594 872.492188 391.214844 872.492188 389.269531 C 872.492188 387.742188 872.207031 386.5 871.605469 385.566406 C 871.019531 384.601562 870.1875 383.90625 869.105469 383.453125 C 868.03125 383.019531 865.949219 382.789062 862.875 382.789062 L 850.941406 382.789062 Z M 903.332031 412.640625 L 908.886719 413.148438 C 908.089844 415.90625 906.25 418.5 903.359375 421 C 900.488281 423.472656 897.066406 424.703125 893.082031 424.703125 C 890.574219 424.703125 888.296875 424.140625 886.230469 423.019531 C 884.148438 421.851562 882.566406 420.195312 881.5 417.992188 C 880.398438 415.804688 879.863281 413.332031 879.863281 410.539062 C 879.863281 406.871094 880.714844 403.351562 882.410156 399.917969 C 884.113281 396.472656 886.296875 393.917969 888.980469 392.25 C 891.695312 390.585938 894.609375 389.75 897.757812 389.75 C 901.765625 389.75 904.972656 390.984375 907.359375 393.472656 C 909.738281 395.929688 910.933594 399.304688 910.933594 403.59375 C 910.933594 405.230469 910.785156 406.898438 910.5 408.628906 L 885.730469 408.628906 C 885.648438 409.277344 885.605469 409.863281 885.605469 410.390625 C 885.605469 413.527344 886.332031 415.9375 887.796875 417.601562 C 889.222656 419.242188 891 420.054688 893.101562 420.054688 C 895.046875 420.054688 896.988281 419.4375 898.898438 418.148438 C 900.796875 416.890625 902.285156 415.027344 903.332031 412.640625 Z M 886.648438 404.222656 L 905.535156 404.222656 C 905.5625 403.640625 905.570312 403.222656 905.570312 402.953125 C 905.570312 400.121094 904.851562 397.9375 903.425781 396.410156 C 901.988281 394.910156 900.128906 394.140625 897.878906 394.140625 C 895.414062 394.140625 893.195312 395 891.183594 396.65625 C 889.160156 398.332031 887.660156 400.851562 886.648438 404.222656 Z M 915.597656 411.257812 C 915.597656 404.730469 917.53125 399.324219 921.375 395.054688 C 924.539062 391.507812 928.707031 389.75 933.863281 389.75 C 937.890625 389.75 941.148438 391.019531 943.621094 393.539062 C 946.085938 396.066406 947.34375 399.453125 947.34375 403.742188 C 947.34375 407.574219 946.554688 411.167969 944.992188 414.4375 C 943.4375 417.777344 941.214844 420.316406 938.355469 422.054688 C 935.476562 423.816406 932.476562 424.703125 929.28125 424.703125 C 926.679688 424.703125 924.320312 424.148438 922.179688 423.039062 C 920.050781 421.9375 918.410156 420.34375 917.304688 418.316406 C 916.164062 416.28125 915.597656 413.9375 915.597656 411.257812 Z M 921.292969 410.695312 C 921.292969 413.851562 922.050781 416.25 923.570312 417.871094 C 925.078125 419.5 927.03125 420.316406 929.382812 420.316406 C 930.597656 420.316406 931.820312 420.074219 933.015625 419.585938 C 934.226562 419.09375 935.335938 418.335938 936.363281 417.335938 C 937.417969 416.316406 938.308594 415.167969 939.023438 413.863281 C 939.761719 412.554688 940.34375 411.195312 940.800781 409.703125 C 941.4375 407.613281 941.769531 405.628906 941.769531 403.703125 C 941.769531 400.679688 941.023438 398.332031 939.484375 396.65625 C 937.9375 395 936.019531 394.140625 933.6875 394.140625 C 931.882812 394.140625 930.246094 394.574219 928.773438 395.4375 C 927.28125 396.277344 925.949219 397.511719 924.765625 399.175781 C 923.570312 400.804688 922.699219 402.703125 922.125 404.890625 C 921.5625 407.066406 921.292969 409 921.292969 410.695312 Z M 947.851562 436.851562 L 957.546875 390.464844 L 962.824219 390.464844 L 961.859375 395.167969 C 963.804688 393.128906 965.5625 391.714844 967.109375 390.925781 C 968.648438 390.148438 970.285156 389.75 972.027344 389.75 C 975.210938 389.75 977.875 390.90625 979.976562 393.222656 C 982.089844 395.566406 983.136719 398.871094 983.136719 403.222656 C 983.136719 406.6875 982.550781 409.863281 981.375 412.742188 C 980.238281 415.59375 978.820312 417.898438 977.128906 419.632812 C 975.433594 421.390625 973.738281 422.660156 972 423.5 C 970.285156 424.304688 968.507812 424.703125 966.695312 424.703125 C 962.664062 424.703125 959.535156 422.660156 957.332031 418.582031 L 953.539062 436.851562 Z M 959.109375 410.316406 C 959.109375 412.828125 959.289062 414.539062 959.648438 415.507812 C 960.167969 416.890625 961.054688 417.972656 962.230469 418.816406 C 963.453125 419.632812 964.839844 420.054688 966.433594 420.054688 C 969.703125 420.054688 972.386719 418.214844 974.414062 414.527344 C 976.433594 410.84375 977.453125 407.066406 977.453125 403.222656 C 977.453125 400.390625 976.757812 398.207031 975.414062 396.65625 C 974.042969 395.113281 972.359375 394.335938 970.324219 394.335938 C 968.871094 394.335938 967.527344 394.722656 966.257812 395.480469 C 965.027344 396.257812 963.871094 397.417969 962.796875 398.9375 C 961.742188 400.457031 960.851562 402.335938 960.167969 404.554688 C 959.464844 406.769531 959.109375 408.683594 959.109375 410.316406 Z M 986.097656 424.019531 L 995.753906 377.734375 L 1001.410156 377.734375 L 991.765625 424.019531 Z M 1025.519531 412.640625 L 1031.066406 413.148438 C 1030.257812 415.90625 1028.398438 418.5 1025.539062 421 C 1022.667969 423.472656 1019.214844 424.703125 1015.242188 424.703125 C 1012.75 424.703125 1010.472656 424.140625 1008.410156 423.019531 C 1006.324219 421.851562 1004.742188 420.195312 1003.640625 417.992188 C 1002.566406 415.804688 1002.023438 413.332031 1002.023438 410.539062 C 1002.023438 406.871094 1002.871094 403.351562 1004.566406 399.917969 C 1006.273438 396.472656 1008.457031 393.917969 1011.160156 392.25 C 1013.871094 390.585938 1016.789062 389.75 1019.925781 389.75 C 1023.925781 389.75 1027.136719 390.984375 1029.507812 393.472656 C 1031.914062 395.929688 1033.109375 399.304688 1033.109375 403.59375 C 1033.109375 405.230469 1032.960938 406.898438 1032.664062 408.628906 L 1007.890625 408.628906 C 1007.816406 409.277344 1007.777344 409.863281 1007.777344 410.390625 C 1007.777344 413.527344 1008.492188 415.9375 1009.953125 417.601562 C 1011.402344 419.242188 1013.167969 420.054688 1015.269531 420.054688 C 1017.214844 420.054688 1019.136719 419.4375 1021.054688 418.148438 C 1022.964844 416.890625 1024.453125 415.027344 1025.519531 412.640625 Z M 1008.828125 404.222656 L 1027.714844 404.222656 C 1027.738281 403.640625 1027.738281 403.222656 1027.738281 402.953125 C 1027.738281 400.121094 1027.019531 397.9375 1025.59375 396.410156 C 1024.148438 394.910156 1022.304688 394.140625 1020.046875 394.140625 C 1017.582031 394.140625 1015.371094 395 1013.335938 396.65625 C 1011.328125 398.332031 1009.835938 400.851562 1008.828125 404.222656 Z M 1068.039062 419.378906 L 1067.085938 424.039062 C 1065.726562 424.40625 1064.410156 424.59375 1063.125 424.59375 C 1060.847656 424.59375 1059.050781 424.027344 1057.707031 422.90625 C 1056.707031 422.054688 1056.199219 420.917969 1056.199219 419.453125 C 1056.199219 418.722656 1056.460938 417.039062 1057.023438 414.382812 L 1061.089844 394.859375 L 1056.578125 394.859375 L 1057.46875 390.464844 L 1061.988281 390.464844 L 1063.726562 382.242188 L 1070.253906 378.316406 L 1067.679688 390.464844 L 1073.308594 390.464844 L 1072.335938 394.859375 L 1066.753906 394.859375 L 1062.882812 413.433594 C 1062.410156 415.761719 1062.160156 417.183594 1062.160156 417.660156 C 1062.160156 418.335938 1062.367188 418.855469 1062.753906 419.203125 C 1063.125 419.554688 1063.769531 419.734375 1064.652344 419.734375 C 1065.910156 419.734375 1067.039062 419.632812 1068.039062 419.378906 Z M 1073.679688 411.257812 C 1073.679688 404.730469 1075.59375 399.324219 1079.445312 395.054688 C 1082.621094 391.507812 1086.78125 389.75 1091.933594 389.75 C 1095.964844 389.75 1099.210938 391.019531 1101.691406 393.539062 C 1104.15625 396.066406 1105.40625 399.453125 1105.40625 403.742188 C 1105.40625 407.574219 1104.628906 411.167969 1103.054688 414.4375 C 1101.507812 417.777344 1099.296875 420.316406 1096.433594 422.054688 C 1093.554688 423.816406 1090.546875 424.703125 1087.371094 424.703125 C 1084.761719 424.703125 1082.390625 424.148438 1080.253906 423.039062 C 1078.101562 421.9375 1076.484375 420.34375 1075.363281 418.316406 C 1074.226562 416.28125 1073.679688 413.9375 1073.679688 411.257812 Z M 1079.363281 410.695312 C 1079.363281 413.851562 1080.09375 416.25 1081.648438 417.871094 C 1083.15625 419.5 1085.101562 420.316406 1087.445312 420.316406 C 1088.675781 420.316406 1089.890625 420.074219 1091.09375 419.585938 C 1092.289062 419.09375 1093.40625 418.335938 1094.445312 417.335938 C 1095.5 416.316406 1096.378906 415.167969 1097.089844 413.863281 C 1097.839844 412.554688 1098.417969 411.195312 1098.859375 409.703125 C 1099.519531 407.613281 1099.832031 405.628906 1099.832031 403.703125 C 1099.832031 400.679688 1099.082031 398.332031 1097.554688 396.65625 C 1096.019531 395 1094.074219 394.140625 1091.75 394.140625 C 1089.953125 394.140625 1088.324219 394.574219 1086.851562 395.4375 C 1085.363281 396.277344 1084.027344 397.511719 1082.828125 399.175781 C 1081.632812 400.804688 1080.757812 402.703125 1080.1875 404.890625 C 1079.648438 407.066406 1079.363281 409 1079.363281 410.695312 Z M 1127.300781 424.019531 L 1137.003906 377.734375 L 1167.089844 377.734375 L 1166.007812 382.992188 L 1142.019531 382.992188 L 1138.9375 397.769531 L 1163.3125 397.769531 L 1162.214844 403.019531 L 1137.835938 403.019531 L 1133.449219 424.019531 Z M 1165.65625 424.019531 L 1175.320312 377.734375 L 1180.96875 377.734375 L 1171.320312 424.019531 Z M 1178.210938 436.910156 L 1178.53125 431.5 C 1179.71875 431.824219 1180.867188 432.019531 1181.996094 432.019531 C 1183.15625 432.019531 1184.105469 431.75 1184.8125 431.230469 C 1185.746094 430.546875 1186.746094 429.261719 1187.847656 427.34375 L 1189.679688 424.066406 L 1184.105469 390.464844 L 1189.726562 390.464844 L 1192.253906 407.335938 C 1192.738281 410.667969 1193.1875 414 1193.539062 417.316406 L 1208.519531 390.464844 L 1214.4375 390.464844 L 1193.097656 428.398438 C 1191.03125 432.09375 1189.207031 434.566406 1187.605469 435.769531 C 1186.015625 436.964844 1184.171875 437.59375 1182.089844 437.59375 C 1180.773438 437.59375 1179.480469 437.351562 1178.210938 436.910156 Z M 1239.386719 424.019531 L 1236.542969 377.734375 L 1242.820312 377.734375 L 1243.886719 400.621094 C 1243.921875 401.714844 1244.015625 404.667969 1244.144531 409.527344 C 1244.210938 410.871094 1244.238281 411.796875 1244.265625 412.363281 C 1244.21875 412.722656 1244.238281 413.796875 1244.277344 415.539062 C 1246.832031 410.253906 1248.671875 406.519531 1249.800781 404.363281 L 1263.863281 377.734375 L 1270.226562 377.734375 L 1271.742188 404.789062 C 1271.890625 407.890625 1272.03125 411.621094 1272.140625 415.992188 C 1272.511719 414.917969 1273.179688 413.289062 1274.160156 411.167969 C 1275.695312 407.730469 1276.824219 405.289062 1277.585938 403.816406 L 1290.695312 377.734375 L 1297 377.734375 L 1273.484375 424.019531 L 1266.875 424.019531 L 1265.375 395.980469 C 1265.207031 393.59375 1265.085938 390.621094 1264.9375 387.101562 C 1263.679688 390.039062 1262.605469 392.316406 1261.726562 393.9375 L 1245.765625 424.019531 Z M 1299.292969 384.203125 L 1300.65625 377.734375 L 1306.332031 377.734375 L 1304.980469 384.203125 Z M 1290.953125 424.019531 L 1297.988281 390.464844 L 1303.65625 390.464844 L 1296.644531 424.019531 Z M 1318.746094 419.378906 L 1317.792969 424.039062 C 1316.429688 424.40625 1315.097656 424.59375 1313.828125 424.59375 C 1311.542969 424.59375 1309.757812 424.027344 1308.402344 422.90625 C 1307.402344 422.054688 1306.898438 420.917969 1306.898438 419.453125 C 1306.898438 418.722656 1307.175781 417.039062 1307.710938 414.382812 L 1311.792969 394.859375 L 1307.257812 394.859375 L 1308.175781 390.464844 L 1312.691406 390.464844 L 1314.421875 382.242188 L 1320.96875 378.316406 L 1318.375 390.464844 L 1324.003906 390.464844 L 1323.03125 394.859375 L 1317.46875 394.859375 L 1313.597656 413.433594 C 1313.109375 415.761719 1312.855469 417.183594 1312.855469 417.660156 C 1312.855469 418.335938 1313.082031 418.855469 1313.460938 419.203125 C 1313.847656 419.554688 1314.488281 419.734375 1315.375 419.734375 C 1316.625 419.734375 1317.746094 419.632812 1318.746094 419.378906 Z M 1323.410156 424.019531 L 1333.113281 377.734375 L 1338.78125 377.734375 L 1335.046875 395.511719 C 1337.140625 393.445312 1339.09375 391.992188 1340.878906 391.09375 C 1342.695312 390.195312 1344.527344 389.75 1346.445312 389.75 C 1349.175781 389.75 1351.289062 390.484375 1352.824219 391.945312 C 1354.324219 393.417969 1355.074219 395.335938 1355.074219 397.730469 C 1355.074219 398.90625 1354.710938 401.078125 1354.019531 404.222656 L 1349.628906 424.019531 L 1343.945312 424.019531 L 1348.417969 403.742188 C 1349.058594 400.804688 1349.390625 398.945312 1349.390625 398.195312 C 1349.390625 397.09375 1349.011719 396.195312 1348.277344 395.511719 C 1347.539062 394.808594 1346.445312 394.472656 1345.058594 394.472656 C 1343.019531 394.472656 1341.101562 395.011719 1339.261719 396.09375 C 1337.417969 397.175781 1335.984375 398.648438 1334.957031 400.539062 C 1333.917969 402.410156 1332.957031 405.445312 1332.09375 409.640625 L 1329.078125 424.019531 L 1323.410156 424.019531 "/>
<path style=" stroke:none;fill-rule:evenodd;fill:rgb(2.352941%,30.196078%,18.431373%);fill-opacity:1;" d="M 1085.445312 473.390625 C 1119.097656 458.824219 1171.398438 442.964844 1208.132812 448.648438 C 1223.90625 451.09375 1223.417969 458.277344 1207.734375 456.59375 C 1163.785156 451.878906 1126.984375 459.214844 1085.445312 473.390625 "/>
</g>
</svg>
