<?xml version="1.0" encoding="utf-8"?>
<!-- Generator: Adobe Illustrator 23.1.1, SVG Export Plug-In . SVG Version: 6.00 Build 0)  -->
<svg version="1.1" id="Layer_1" xmlns="http://www.w3.org/2000/svg" xmlns:xlink="http://www.w3.org/1999/xlink" x="0px" y="0px"
	 viewBox="0 0 202.7 40" style="enable-background:new 0 0 202.7 40;" xml:space="preserve">
<style type="text/css">
	.st0{clip-path:url(#SVGID_2_);fill:url(#SVGID_3_);}
	.st1{clip-path:url(#SVGID_5_);fill:#FFFFFF;}
	.st2{filter:url(#Adobe_OpacityMaskFilter);}
	.st3{clip-path:url(#SVGID_7_);}
	.st4{clip-path:url(#SVGID_10_);fill:url(#SVGID_11_);}
	.st5{clip-path:url(#SVGID_7_);mask:url(#SVGID_8_);fill:url(#SVGID_12_);}
	.st6{filter:url(#Adobe_OpacityMaskFilter_1_);}
	.st7{clip-path:url(#SVGID_14_);fill:url(#SVGID_16_);}
	.st8{clip-path:url(#SVGID_14_);mask:url(#SVGID_15_);fill:url(#SVGID_17_);}
	.st9{filter:url(#Adobe_OpacityMaskFilter_2_);}
	.st10{clip-path:url(#SVGID_19_);fill:url(#SVGID_21_);}
	.st11{clip-path:url(#SVGID_19_);mask:url(#SVGID_20_);fill:url(#SVGID_22_);}
	.st12{clip-path:url(#SVGID_24_);fill:#323232;}
</style>
<g>
	<g>
		<defs>
			<path id="SVGID_1_" d="M0.1,0L0.1,0L0.1,0l0.5,1.3l2.3,6L15.3,40h41L23.5,7C19.1,2.6,13.1,0,6.9,0H0.1z"/>
		</defs>
		<clipPath id="SVGID_2_">
			<use xlink:href="#SVGID_1_"  style="overflow:visible;"/>
		</clipPath>
		
			<linearGradient id="SVGID_3_" gradientUnits="userSpaceOnUse" x1="-247.7908" y1="230.6454" x2="-246.7571" y2="230.6454" gradientTransform="matrix(-26.469 -38.657 -38.657 26.469 2397.1367 -15646.7969)">
			<stop  offset="0" style="stop-color:#BE0000"/>
			<stop  offset="0.3828" style="stop-color:#DD0000"/>
			<stop  offset="0.7663" style="stop-color:#F60000"/>
			<stop  offset="1" style="stop-color:#FF0000"/>
		</linearGradient>
		<polygon class="st0" points="18,66.2 -18.6,12.8 38.4,-26.2 75,27.2 		"/>
	</g>
	<g>
		<defs>
			<rect id="SVGID_4_" x="0.1" y="0" width="202.6" height="40"/>
		</defs>
		<clipPath id="SVGID_5_">
			<use xlink:href="#SVGID_4_"  style="overflow:visible;"/>
		</clipPath>
		<path class="st1" d="M2.9,7.3c4.5,7.7,16.3,8.5,17.6,20.4c0.1,0.5,0.4,0.9,0.9,1c6.8,1.1,13.4,3.9,19.2,8.5l0,0c0,0,0.1,0,0.1,0
			c0.1,0,0.1,0,0.1-0.1c0.1-0.1,0.1-0.2,0-0.3c-4-4.2-8.8-7.5-14.3-9.7l-1.7-0.7c-0.9-0.3-1.4-1.2-1.4-2.2c0.1-3.6,8.5-2.8,9.4-4.6
			l0.1-0.3c-1.7-1.5-3.8-2.6-6.1-3.2c0,0.1-0.1,0.5,0.4,1.3c0.5,0.8-0.5,2.1-2.1,0.7L25,18.1C13.6,7.7,5.1,13.1,0.6,1.4L2.9,7.3z"/>
	</g>
	<g>
		<defs>
			<path id="SVGID_6_" d="M26.4,18.8v2.8h0c1.2-0.4,2.6-0.6,3.8-0.8v-1.6c0,0-1.9,0.1-3-1.8C27.6,18,27.2,18.8,26.4,18.8"/>
		</defs>
		<clipPath id="SVGID_7_">
			<use xlink:href="#SVGID_6_"  style="overflow:visible;"/>
		</clipPath>
		<defs>
			<filter id="Adobe_OpacityMaskFilter" filterUnits="userSpaceOnUse" x="26.1" y="17.2" width="4.5" height="4.8">
				<feColorMatrix  type="matrix" values="1 0 0 0 0  0 1 0 0 0  0 0 1 0 0  0 0 0 1 0"/>
			</filter>
		</defs>
		<mask maskUnits="userSpaceOnUse" x="26.1" y="17.2" width="4.5" height="4.8" id="SVGID_8_">
			<g class="st2">
				<g>
					<defs>
						
							<rect id="SVGID_9_" x="26.1" y="17.5" transform="matrix(8.717514e-02 -0.9962 0.9962 8.717514e-02 6.3563 46.0895)" width="4.5" height="4.2"/>
					</defs>
					<clipPath id="SVGID_10_" class="st3">
						<use xlink:href="#SVGID_9_"  style="overflow:visible;"/>
					</clipPath>
					
						<linearGradient id="SVGID_11_" gradientUnits="userSpaceOnUse" x1="-267.1639" y1="223.723" x2="-266.1302" y2="223.723" gradientTransform="matrix(0.3568 -4.0783 -4.0783 -0.3568 1035.8583 -987.9261)">
						<stop  offset="0" style="stop-color:#000000"/>
						<stop  offset="0.65" style="stop-color:#000000"/>
						<stop  offset="0.6967" style="stop-color:#3D3D3D"/>
						<stop  offset="0.7472" style="stop-color:#777777"/>
						<stop  offset="0.796" style="stop-color:#A8A8A8"/>
						<stop  offset="0.8419" style="stop-color:#CECECE"/>
						<stop  offset="0.8841" style="stop-color:#E9E9E9"/>
						<stop  offset="0.9215" style="stop-color:#F9F9F9"/>
						<stop  offset="0.95" style="stop-color:#FFFFFF"/>
						<stop  offset="1" style="stop-color:#FFFFFF"/>
					</linearGradient>
					<polygon class="st4" points="25.6,22 26.1,16.8 31,17.2 30.6,22.4 					"/>
				</g>
			</g>
		</mask>
		
			<linearGradient id="SVGID_12_" gradientUnits="userSpaceOnUse" x1="-267.1638" y1="223.723" x2="-266.1301" y2="223.723" gradientTransform="matrix(0.3568 -4.0783 -4.0783 -0.3568 1035.8584 -987.9262)">
			<stop  offset="0" style="stop-color:#FFFFFF"/>
			<stop  offset="0.65" style="stop-color:#FFFFFF"/>
			<stop  offset="0.7282" style="stop-color:#E0E0E0"/>
			<stop  offset="0.8147" style="stop-color:#C5C5C5"/>
			<stop  offset="0.8915" style="stop-color:#B5B5B5"/>
			<stop  offset="0.95" style="stop-color:#AFAFAF"/>
			<stop  offset="1" style="stop-color:#AFAFAF"/>
		</linearGradient>
		<polygon class="st5" points="26.1,21.6 26.5,17.2 30.6,17.5 30.2,22 		"/>
	</g>
	<g>
		<defs>
			<path id="SVGID_13_" d="M22.7,28.9c6.3,1.2,12.4,3.9,17.7,8.2c-8.6-7.3-13.8-8.4-16.2-8.4C23.4,28.7,22.8,28.9,22.7,28.9"/>
		</defs>
		<clipPath id="SVGID_14_">
			<use xlink:href="#SVGID_13_"  style="overflow:visible;"/>
		</clipPath>
		<defs>
			<filter id="Adobe_OpacityMaskFilter_1_" filterUnits="userSpaceOnUse" x="22.7" y="28.7" width="17.7" height="8.4">
				<feColorMatrix  type="matrix" values="1 0 0 0 0  0 1 0 0 0  0 0 1 0 0  0 0 0 1 0"/>
			</filter>
		</defs>
		<mask maskUnits="userSpaceOnUse" x="22.7" y="28.7" width="17.7" height="8.4" id="SVGID_15_">
			<g class="st6">
				
					<linearGradient id="SVGID_16_" gradientUnits="userSpaceOnUse" x1="-244.9576" y1="224.8199" x2="-243.9239" y2="224.8199" gradientTransform="matrix(17.1651 0 0 -17.1651 4227.4536 3891.9949)">
					<stop  offset="0" style="stop-color:#000000"/>
					<stop  offset="9.916679e-02" style="stop-color:#343434"/>
					<stop  offset="0.2151" style="stop-color:#696969"/>
					<stop  offset="0.3326" style="stop-color:#979797"/>
					<stop  offset="0.4492" style="stop-color:#BCBCBC"/>
					<stop  offset="0.5649" style="stop-color:#DADADA"/>
					<stop  offset="0.6792" style="stop-color:#EEEEEE"/>
					<stop  offset="0.7916" style="stop-color:#FBFBFB"/>
					<stop  offset="0.9" style="stop-color:#FFFFFF"/>
					<stop  offset="1" style="stop-color:#FFFFFF"/>
				</linearGradient>
				<rect x="22.7" y="28.7" class="st7" width="17.7" height="8.4"/>
			</g>
		</mask>
		
			<linearGradient id="SVGID_17_" gradientUnits="userSpaceOnUse" x1="-244.9576" y1="224.8199" x2="-243.9239" y2="224.8199" gradientTransform="matrix(17.1651 0 0 -17.1651 4227.4536 3891.9949)">
			<stop  offset="0" style="stop-color:#FFFFFF"/>
			<stop  offset="8.327577e-02" style="stop-color:#F1F1F1"/>
			<stop  offset="0.2919" style="stop-color:#D4D4D4"/>
			<stop  offset="0.4994" style="stop-color:#C0C0C0"/>
			<stop  offset="0.7035" style="stop-color:#B3B3B3"/>
			<stop  offset="0.9" style="stop-color:#AFAFAF"/>
			<stop  offset="1" style="stop-color:#AFAFAF"/>
		</linearGradient>
		<rect x="22.7" y="28.7" class="st8" width="17.7" height="8.4"/>
	</g>
	<g>
		<defs>
			<path id="SVGID_18_" d="M0.6,1.4l2.3,6c4.5,7.7,16.3,8.5,17.6,20.4c-1.3-15.2-8-12.9-15.2-19.9C3.4,6.5,1.8,4.6,0.6,1.4z"/>
		</defs>
		<clipPath id="SVGID_19_">
			<use xlink:href="#SVGID_18_"  style="overflow:visible;"/>
		</clipPath>
		<defs>
			<filter id="Adobe_OpacityMaskFilter_2_" filterUnits="userSpaceOnUse" x="0.6" y="1.4" width="19.8" height="26.4">
				<feColorMatrix  type="matrix" values="1 0 0 0 0  0 1 0 0 0  0 0 1 0 0  0 0 0 1 0"/>
			</filter>
		</defs>
		<mask maskUnits="userSpaceOnUse" x="0.6" y="1.4" width="19.8" height="26.4" id="SVGID_20_">
			<g class="st9">
				
					<linearGradient id="SVGID_21_" gradientUnits="userSpaceOnUse" x1="-245.105" y1="225.3972" x2="-244.0714" y2="225.3972" gradientTransform="matrix(19.1876 0 0 -19.1876 4703.5557 4339.3726)">
					<stop  offset="0" style="stop-color:#000000"/>
					<stop  offset="0.25" style="stop-color:#000000"/>
					<stop  offset="0.3281" style="stop-color:#131313"/>
					<stop  offset="0.4858" style="stop-color:#434343"/>
					<stop  offset="0.709" style="stop-color:#909090"/>
					<stop  offset="0.9868" style="stop-color:#FAFAFA"/>
					<stop  offset="1" style="stop-color:#FFFFFF"/>
				</linearGradient>
				<rect x="0.6" y="1.4" class="st10" width="19.8" height="26.4"/>
			</g>
		</mask>
		
			<linearGradient id="SVGID_22_" gradientUnits="userSpaceOnUse" x1="-245.105" y1="225.3972" x2="-244.0714" y2="225.3972" gradientTransform="matrix(19.1876 0 0 -19.1876 4703.5562 4339.373)">
			<stop  offset="0" style="stop-color:#FFFFFF"/>
			<stop  offset="0.25" style="stop-color:#FFFFFF"/>
			<stop  offset="0.4649" style="stop-color:#ECECEC"/>
			<stop  offset="0.8983" style="stop-color:#BBBBBB"/>
			<stop  offset="1" style="stop-color:#AFAFAF"/>
		</linearGradient>
		<rect x="0.6" y="1.4" class="st11" width="19.8" height="26.4"/>
	</g>
	<g>
		<defs>
			<rect id="SVGID_23_" x="0.1" y="0" width="202.6" height="40"/>
		</defs>
		<clipPath id="SVGID_24_">
			<use xlink:href="#SVGID_23_"  style="overflow:visible;"/>
		</clipPath>
		<path class="st12" d="M60.5,32.7c-8.1,0-13.3-4.2-13.3-9.5c0-5.4,5.5-9.5,13.5-9.5c8,0,13.5,4.1,13.5,9.3c0,2.3-1,4.2-3,5.8H76
			l-1.1,2c-0.7,1.2-1.6,2-3.5,2H60.5z M60.7,28.3c4.4,0,8.2-2.2,8.2-5.2c0-3-3.7-5.2-8.2-5.2c-4.4,0-8.2,2.2-8.2,5.2
			C52.6,26.2,56.3,28.3,60.7,28.3"/>
		<path class="st12" d="M95.9,29.4H83.2l-1.8,3.2H76l8.9-15.3c0.7-1.2,1.7-2.1,3.7-2.1h2c2,0,3,0.9,3.7,2.1l8.9,15.3h-5.4L95.9,29.4
			z M85.3,25.6h8.4l-3.9-7c-0.1-0.2-0.2-0.2-0.3-0.2c-0.1,0-0.2,0-0.3,0.2L85.3,25.6z"/>
		<path class="st12" d="M128.3,15.2v17.5h-4.7l-13.9-11.6v11.6H105V15.2h3c1.5,0,2.3,0.4,3.1,1.1l12.5,10.4V15.2H128.3z"/>
		<polygon class="st12" points="145.2,19.1 145.2,32.7 140.4,32.7 140.4,19.1 130.7,19.1 130.7,15.2 154.9,15.2 154.9,19.1 		"/>
		<path class="st12" d="M170.6,29.4h-12.8l-1.8,3.2h-5.3l8.9-15.3c0.7-1.2,1.7-2.1,3.7-2.1h2c2,0,3,0.9,3.7,2.1l8.9,15.3h-5.4
			L170.6,29.4z M160,25.6h8.4l-3.9-7c-0.1-0.2-0.2-0.2-0.3-0.2c-0.1,0-0.2,0-0.3,0.2L160,25.6z"/>
		<path class="st12" d="M179.5,31.4l-0.4-0.1l1.2-3.8c3.4,1.1,7,1.5,10.3,1.5c5.4,0,6.7-0.6,6.7-1.3c0-0.3-0.2-0.5-0.6-0.6
			c-0.5-0.2-2-0.5-6.4-1.2c-4.9-0.8-7.1-1.2-8.7-1.9c-1.6-0.7-2.6-1.9-2.6-3.7c0-1.3,0.7-2.4,1.7-3.2c1.9-1.4,5.1-2,8.5-2
			c4.5,0,8.2,0.4,12.4,1.4l0.4,0.1l-1,3.7c-4.7-1-7.2-1.3-10.8-1.3c-2.5,0-4.2,0.2-5.1,0.4c-0.5,0.2-0.7,0.4-0.7,0.7
			c0,0.3,0.2,0.5,0.7,0.7c0.6,0.2,1.5,0.4,6.2,1.2c5.2,0.8,6.9,1.2,8.3,1.7c1.9,0.7,3.1,2.1,3.1,3.8c0,2.2-1.7,3.8-4.6,4.7
			c-1.8,0.5-4.2,0.8-6.9,0.8C186.9,32.9,182.4,32.3,179.5,31.4"/>
	</g>
</g>
</svg>
