<?xml version="1.0" encoding="UTF-8" standalone="no"?>
<!-- Created with Inkscape (http://www.inkscape.org/) -->

<svg
   xmlns:dc="http://purl.org/dc/elements/1.1/"
   xmlns:cc="http://creativecommons.org/ns#"
   xmlns:rdf="http://www.w3.org/1999/02/22-rdf-syntax-ns#"
   xmlns:svg="http://www.w3.org/2000/svg"
   xmlns="http://www.w3.org/2000/svg"
   xmlns:sodipodi="http://sodipodi.sourceforge.net/DTD/sodipodi-0.dtd"
   xmlns:inkscape="http://www.inkscape.org/namespaces/inkscape"
   width="155.77458"
   height="72.459152"
   viewBox="0 0 41.215358 19.171483"
   version="1.1"
   id="svg37206"
   inkscape:version="0.92.0 r15299"
   sodipodi:docname="air austral.svg">
  <defs
     id="defs37200">
    <clipPath
       id="clipPath36623"
       clipPathUnits="userSpaceOnUse">
      <path
         inkscape:connector-curvature="0"
         id="path36621"
         d="M 0,0 H 595.275 V 841.89 H 0 Z" />
    </clipPath>
    <linearGradient
       id="linearGradient36613"
       spreadMethod="pad"
       gradientTransform="matrix(-9.2610684,-9.759131,9.759131,-9.2610684,73.273912,184.26949)"
       gradientUnits="userSpaceOnUse"
       y2="0"
       x2="1"
       y1="0"
       x1="0">
      <stop
         id="stop36605"
         offset="0"
         style="stop-opacity:1;stop-color:#20294e" />
      <stop
         id="stop36607"
         offset="0.295092"
         style="stop-opacity:1;stop-color:#005695" />
      <stop
         id="stop36609"
         offset="0.903858"
         style="stop-opacity:1;stop-color:#26b5e3" />
      <stop
         id="stop36611"
         offset="1"
         style="stop-opacity:1;stop-color:#26b5e3" />
    </linearGradient>
    <linearGradient
       id="linearGradient36589"
       spreadMethod="pad"
       gradientTransform="matrix(10.389473,-6.5260765,6.5260765,10.389473,67.680991,184.75405)"
       gradientUnits="userSpaceOnUse"
       y2="0"
       x2="1"
       y1="0"
       x1="0">
      <stop
         id="stop36585"
         offset="0"
         style="stop-opacity:1;stop-color:#20294e" />
      <stop
         id="stop36587"
         offset="1"
         style="stop-opacity:1;stop-color:#005f9b" />
    </linearGradient>
    <linearGradient
       id="linearGradient36569"
       spreadMethod="pad"
       gradientTransform="matrix(10.338284,-7.3774976,7.3774962,10.338284,64.72285,183.52774)"
       gradientUnits="userSpaceOnUse"
       y2="0"
       x2="1"
       y1="0"
       x1="0">
      <stop
         id="stop36563"
         offset="0"
         style="stop-opacity:1;stop-color:#20294e" />
      <stop
         id="stop36565"
         offset="0.500051"
         style="stop-opacity:1;stop-color:#005695" />
      <stop
         id="stop36567"
         offset="1"
         style="stop-opacity:1;stop-color:#26b5e3" />
    </linearGradient>
  </defs>
  <sodipodi:namedview
     id="base"
     pagecolor="#ffffff"
     bordercolor="#666666"
     borderopacity="1.0"
     inkscape:pageopacity="0.0"
     inkscape:pageshadow="2"
     inkscape:zoom="5.7955272"
     inkscape:cx="77.387322"
     inkscape:cy="35.729677"
     inkscape:document-units="mm"
     inkscape:current-layer="layer1"
     showgrid="false"
     fit-margin-top="0"
     fit-margin-left="0"
     fit-margin-right="0"
     fit-margin-bottom="0"
     units="px"
     inkscape:window-width="1280"
     inkscape:window-height="744"
     inkscape:window-x="-4"
     inkscape:window-y="-4"
     inkscape:window-maximized="1" />
  <metadata
     id="metadata37203">
    <rdf:RDF>
      <cc:Work
         rdf:about="">
        <dc:format>image/svg+xml</dc:format>
        <dc:type
           rdf:resource="http://purl.org/dc/dcmitype/StillImage" />
        <dc:title></dc:title>
      </cc:Work>
    </rdf:RDF>
  </metadata>
  <g
     inkscape:label="Layer 1"
     inkscape:groupmode="layer"
     id="layer1"
     transform="translate(-49.828173,-174.64509)">
    <g
       id="g37408"
       transform="translate(0.13229107,-0.13228681)">
      <path
         inkscape:connector-curvature="0"
         id="path36571"
         style="fill:url(#linearGradient36569);stroke:none;stroke-width:0.35277778"
         d="m 72.678733,175.70624 c -1.033286,0.34996 -2.39395,0.9264 -3.796947,1.45768 v 0 c 0.777875,0.35984 1.544108,0.6978 2.153708,0.9719 v 0 c 1.976967,-0.8075 3.492853,-1.26082 3.492853,-1.26082 v 0 c 0,0 -0.246592,0.63817 -1.312686,2.24472 v 0 c 0.51435,0.2286 1.152172,0.49812 1.563864,0.62724 v 0 c 1.504244,-2.06798 2.464505,-3.95711 1.820686,-4.60304 v 0 c -0.111125,-0.11183 -0.252589,-0.23425 -0.672042,-0.23425 v 0 c -0.513997,0 -1.44533,0.1838 -3.249436,0.79657" />
      <path
         inkscape:connector-curvature="0"
         id="path36591"
         style="fill:url(#linearGradient36589);stroke:none;stroke-width:0.35277778"
         d="m 70.386736,183.6762 c 0.527403,0.40605 0.920397,0.19262 1.333853,-0.11536 v 0 c 0.0025,-0.002 -0.04163,0.0399 -0.12065,0.11148 v 0 c 0.548569,-0.46426 1.228725,-1.17898 2.198511,-2.37455 v 0 c -0.511881,-0.30797 -1.023056,-0.61313 -1.440039,-0.86113 v 0 z" />
      <path
         inkscape:connector-curvature="0"
         id="path36615"
         style="fill:url(#linearGradient36613);stroke:none;stroke-width:0.35277778"
         d="m 63.306133,175.34994 c -0.03739,0.002 -0.0695,0.005 -0.102658,0.003 v 0 c -0.04198,-0.002 -0.119239,0.0614 -0.119239,0.0614 v 0 c -1.79458,1.05446 3.5433,9.60332 5.912556,11.18553 v 0 c 0.328789,0.21943 0.928158,0.4572 1.455914,0.28398 v 0 c 0.06138,-0.0201 0.195086,-0.121 0.201083,-0.12805 v 0 c 0.01023,-0.0102 1.573741,-1.8281 1.573741,-1.83021 v 0 c -0.01976,-0.14464 -0.165805,-0.0586 -0.183444,-0.0459 v 0 c -0.610306,0.4438 -1.144764,0.19544 -2.790119,-1.47637 v 0 c -1.752248,-1.77835 -3.450873,-4.89056 -3.450873,-4.89056 v 0 l 7.893403,3.5553 c 0.523522,0.23565 0.817386,0.1016 0.969786,0.003 v 0 c 0.04198,-0.0272 1.471436,-1.74872 1.471436,-1.74872 v 0 c 0.0095,-0.11959 -0.123472,-0.0533 -0.123472,-0.0533 v 0 c -0.460375,0.28857 -0.811036,0.0734 -1.555397,-0.22578 v 0 c -0.502356,-0.20179 -5.793669,-2.5407 -7.678561,-3.43499 v 0 c -2.418997,-1.14724 -3.083983,-1.26189 -3.3782,-1.26189 v 0 c -0.03704,0 -0.06844,10e-4 -0.09596,0.004" />
      <path
         d="m 69.353909,189.35818 c 0.0448,0 0.0949,-0.002 0.152047,-0.003 0.05644,-0.003 0.11042,0.003 0.161925,0.0173 0.05186,0.0127 0.09455,0.0356 0.128764,0.066 0.03351,0.0317 0.04974,0.0815 0.04974,0.14958 v 2.35232 c 0,0.26635 -0.04904,0.51012 -0.147461,0.73448 -0.09984,0.2219 -0.234245,0.41416 -0.40252,0.57468 -0.170039,0.16016 -0.367594,0.28434 -0.595841,0.375 -0.226837,0.0896 -0.471312,0.13476 -0.733425,0.13476 -0.261409,0 -0.506942,-0.0452 -0.7366,-0.13476 -0.230012,-0.0907 -0.429331,-0.21484 -0.598664,-0.375 -0.16757,-0.16052 -0.302684,-0.35278 -0.402167,-0.57468 -0.09913,-0.22436 -0.148872,-0.46813 -0.148872,-0.73448 0,-0.39723 0.0011,-0.78811 0.0032,-1.17616 0.0032,-0.3877 0.0039,-0.77999 0.0039,-1.17616 0,-0.0547 0.01905,-0.097 0.0575,-0.12559 0.0381,-0.0293 0.08431,-0.049 0.138642,-0.061 0.05398,-0.0102 0.108655,-0.0166 0.166158,-0.0198 0.05645,-0.002 0.101953,-0.004 0.138289,-0.004 0.04904,0 0.108303,0.0169 0.175683,0.0473 0.06773,0.0314 0.100895,0.0794 0.100895,0.14217 v 2.20309 c 0,0.16793 0.02434,0.32562 0.07091,0.47414 0.04798,0.14816 0.118533,0.28116 0.213783,0.39581 0.0949,0.11536 0.209903,0.20603 0.347134,0.27341 0.138289,0.0684 0.294922,0.10266 0.470253,0.10266 0.176036,0 0.332669,-0.0342 0.4699,-0.10266 0.137583,-0.0674 0.253647,-0.15734 0.348897,-0.27023 0.09419,-0.11254 0.164747,-0.24377 0.212372,-0.39476 0.04798,-0.15169 0.07161,-0.31044 0.07161,-0.47837 v -2.19004 c 0,-0.0811 0.02999,-0.13794 0.09102,-0.17145 0.06033,-0.0339 0.12453,-0.0508 0.192969,-0.0508"
         style="fill:#20294e;fill-opacity:1;fill-rule:nonzero;stroke:none;stroke-width:0.35277778"
         id="path36627"
         inkscape:connector-curvature="0" />
      <path
         d="m 72.26743,193.76653 c -0.306917,0 -0.611011,-0.0575 -0.912989,-0.17357 -0.30233,-0.1143 -0.566208,-0.28045 -0.791986,-0.49635 -0.01764,-0.0187 -0.03351,-0.043 -0.04657,-0.0741 -0.01376,-0.0317 -0.02011,-0.0614 -0.02011,-0.0885 0,-0.0406 0.01764,-0.0854 0.05398,-0.13511 0.03598,-0.0501 0.07867,-0.0963 0.128764,-0.14217 0.04939,-0.0444 0.101247,-0.0818 0.155222,-0.11112 0.05433,-0.0289 0.101247,-0.0437 0.14217,-0.0437 0.05856,0 0.12453,0.0268 0.198966,0.0811 0.07444,0.054 0.164395,0.11324 0.270581,0.17886 0.106539,0.066 0.227189,0.12559 0.365478,0.17956 0.137583,0.0529 0.300566,0.0811 0.490008,0.0811 0.09878,0 0.208492,-0.009 0.32773,-0.0282 0.119239,-0.0162 0.230364,-0.0497 0.331259,-0.0977 0.101953,-0.0462 0.186266,-0.11183 0.253294,-0.19579 0.06738,-0.0826 0.101953,-0.18733 0.101953,-0.31433 0,-0.11606 -0.03986,-0.20884 -0.118533,-0.27693 -0.07867,-0.0677 -0.182739,-0.11888 -0.310798,-0.15557 -0.128411,-0.036 -0.274813,-0.0639 -0.439913,-0.0843 -0.164395,-0.0208 -0.331612,-0.0441 -0.499887,-0.0713 -0.169333,-0.0279 -0.335491,-0.0628 -0.500591,-0.10759 -0.164395,-0.0452 -0.31115,-0.11148 -0.439209,-0.19509 -0.128763,-0.0871 -0.232127,-0.19897 -0.31115,-0.34008 -0.07902,-0.13829 -0.11818,-0.3175 -0.11818,-0.5334 0,-0.22683 0.05644,-0.4191 0.169333,-0.58138 0.112536,-0.16263 0.254353,-0.29492 0.425803,-0.39934 0.171097,-0.10301 0.360186,-0.17992 0.567972,-0.22966 0.207434,-0.0505 0.405342,-0.0744 0.594431,-0.0744 0.13088,0 0.267758,0.0102 0.41275,0.031 0.144286,0.0201 0.286455,0.0515 0.42545,0.0938 0.140053,0.0434 0.273755,0.0998 0.402166,0.16863 0.128412,0.0705 0.240242,0.1531 0.334787,0.24729 0.01376,0.009 0.02505,0.0296 0.03422,0.0635 0.0088,0.0346 0.01341,0.0607 0.01341,0.078 0,0.0543 -0.01799,0.10654 -0.05397,0.15593 -0.03598,0.049 -0.07902,0.0935 -0.128059,0.13229 -0.05009,0.0377 -0.104069,0.0695 -0.16263,0.0949 -0.05891,0.0243 -0.112536,0.0367 -0.161925,0.0367 -0.04127,0 -0.07937,-0.007 -0.115359,-0.0205 -0.153105,-0.13088 -0.313972,-0.23389 -0.483305,-0.30797 -0.169334,-0.0737 -0.354895,-0.11113 -0.558095,-0.11113 -0.08502,0 -0.181327,0.01 -0.287161,0.0279 -0.105833,0.0166 -0.202847,0.049 -0.290689,0.0938 -0.08784,0.0448 -0.161925,0.10513 -0.222955,0.17921 -0.06103,0.0741 -0.09172,0.16792 -0.09172,0.28117 0,0.15698 0.06809,0.26987 0.2032,0.33655 0.135466,0.0681 0.304094,0.11782 0.506941,0.14957 0.202847,0.0318 0.422628,0.0603 0.659342,0.0875 0.236008,0.0275 0.456847,0.0811 0.659694,0.15981 0.202495,0.079 0.371475,0.1965 0.506589,0.35419 0.135467,0.1584 0.2032,0.38312 0.2032,0.67733 0,0.24342 -0.05927,0.45403 -0.176036,0.63147 -0.117475,0.17816 -0.265642,0.32632 -0.445911,0.44274 -0.180975,0.11783 -0.381,0.20496 -0.602192,0.26035 -0.220839,0.0557 -0.437444,0.085 -0.648758,0.085"
         style="fill:#20294e;fill-opacity:1;fill-rule:nonzero;stroke:none;stroke-width:0.35277778"
         id="path36631"
         inkscape:connector-curvature="0" />
      <path
         d="m 77.667258,189.43191 c 0.07655,0 0.129117,0.0328 0.158397,0.0984 0.02928,0.0656 0.04445,0.12665 0.04445,0.18486 0,0.0321 -0.0014,0.0741 -0.0042,0.12594 -0.0014,0.0512 -0.0095,0.10301 -0.02328,0.15311 -0.01341,0.048 -0.03493,0.0907 -0.06421,0.12382 -0.02928,0.0342 -0.07091,0.0504 -0.124531,0.0504 H 76.8153 c -0.07232,0 -0.130528,0.0159 -0.176389,0.0452 -0.0448,0.0289 -0.06703,0.0864 -0.06703,0.1718 l 0.0067,3.11714 c 0,0.0635 -0.01658,0.11077 -0.0508,0.14182 -0.03422,0.0317 -0.07444,0.0529 -0.122414,0.0646 -0.04657,0.01 -0.09737,0.0148 -0.150989,0.0127 -0.05468,-0.003 -0.104775,-0.003 -0.149578,-0.003 -0.06244,0 -0.130528,-0.0152 -0.202494,-0.0441 -0.07232,-0.0296 -0.10795,-0.085 -0.10795,-0.16581 v -3.15771 c 0,-0.0582 -0.01799,-0.10478 -0.05433,-0.14076 -0.02681,-0.0226 -0.09349,-0.0381 -0.199319,-0.0441 -0.106187,-0.007 -0.218017,-0.0109 -0.335492,-0.0109 -0.116417,0 -0.223308,0.003 -0.321028,0.008 -0.09631,0.004 -0.151341,0.006 -0.1651,0.006 -0.08608,0 -0.143228,-0.0321 -0.172508,-0.0974 -0.02928,-0.0656 -0.0441,-0.13194 -0.0441,-0.20002 v -0.13124 c 0,-0.0515 0.0071,-0.10054 0.02046,-0.14569 0.01341,-0.0452 0.03528,-0.0833 0.06491,-0.11466 0.02857,-0.031 0.07055,-0.0476 0.124883,-0.0476 z"
         style="fill:#20294e;fill-opacity:1;fill-rule:nonzero;stroke:none;stroke-width:0.35277778"
         id="path36635"
         inkscape:connector-curvature="0" />
      <path
         d="m 90.778949,193.34002 c 0,0.0907 -0.01729,0.16757 -0.05045,0.22895 -0.03387,0.0649 -0.103011,0.096 -0.206375,0.096 h -2.900186 c -0.04092,0 -0.08149,-0.0247 -0.121709,-0.0755 -0.04092,-0.0476 -0.06174,-0.0917 -0.06174,-0.127 v -3.90242 c 0,-0.0621 0.01729,-0.10936 0.05151,-0.14147 0.03316,-0.031 0.07408,-0.0543 0.121355,-0.0681 0.04727,-0.0131 0.09843,-0.0205 0.152048,-0.0205 h 0.142169 c 0.0762,0 0.144286,0.0155 0.202847,0.0451 0.05856,0.0286 0.103717,0.084 0.135114,0.1651 v 3.01484 c 0,0.0497 0.006,0.0938 0.01693,0.13264 0.01129,0.0374 0.03528,0.0755 0.07126,0.11113 0.06738,0.0815 0.1524,0.12171 0.256469,0.12171 h 1.954389 c 0.05327,0 0.09666,0.0152 0.128411,0.0448 0.0314,0.0289 0.05539,0.0649 0.07126,0.10689 0.01517,0.0427 0.02575,0.0892 0.02999,0.13512 0.0046,0.0483 0.0067,0.0924 0.0067,0.13264"
         style="fill:#20294e;fill-opacity:1;fill-rule:nonzero;stroke:none;stroke-width:0.35277778"
         id="path36639"
         inkscape:connector-curvature="0" />
      <path
         d="m 58.813297,191.0077 c -0.111478,0.52529 -0.779992,0.51223 -0.779992,0.51223 h -0.894644 c -0.166158,-0.0138 -0.176036,-0.17991 -0.176036,-0.17991 v -1.02306 c 0.0035,-0.10865 0.08079,-0.10865 0.08079,-0.10865 h 0.155222 c 0.229306,-0.002 0.458964,0.004 0.68827,7e-4 0.255763,-0.002 0.554919,-0.0303 0.760941,0.15487 0.112184,0.10019 0.166864,0.26917 0.18027,0.41593 0.0074,0.0744 0.0014,0.15416 -0.01482,0.22789 m 1.144764,2.65324 -0.913342,-1.6009 c 0.0035,3.5e-4 -0.03669,-0.0811 0.02293,-0.11889 0.904522,-0.58773 0.50165,-1.70921 0.50165,-1.70921 -0.256822,-0.81562 -1.329267,-0.80433 -1.329267,-0.80433 H 56.4705 c -0.28822,-0.003 -0.278342,0.20108 -0.278342,0.20108 v 3.7652 0.11359 c 0,0 -0.0134,0.26141 0.169333,0.27729 h 0.122062 v -7.1e-4 c 0.164394,0 0.360186,7.1e-4 0.360186,7.1e-4 0.183091,-0.0159 0.169333,-0.27729 0.169333,-0.27729 v -1.11513 c -0.006,-0.0526 0.07056,-0.0469 0.07056,-0.0469 0.03422,0 0.947913,-0.0303 1.100313,0.0335 0.06773,0.0286 0.143581,0.10019 0.18662,0.16333 3.53e-4,0 0.611364,1.02129 0.611364,1.02129 0.04657,0.078 0.09913,0.14429 0.168628,0.20144 0.06597,0.054 0.142522,0.0519 0.224719,0.0512 0.138289,-0.004 0.277636,3.6e-4 0.415572,3.6e-4 0.221192,-0.0131 0.167217,-0.15558 0.167217,-0.15558"
         style="fill:#20294e;fill-opacity:1;fill-rule:nonzero;stroke:none;stroke-width:0.35277778"
         id="path36643"
         inkscape:connector-curvature="0" />
      <path
         d="m 81.257054,191.0077 c -0.110772,0.52529 -0.778933,0.51223 -0.778933,0.51223 h -0.894998 c -0.166158,-0.0138 -0.176036,-0.17991 -0.176036,-0.17991 v -1.02306 c 0.0032,-0.10865 0.08043,-0.10865 0.08043,-0.10865 h 0.155575 c 0.228952,-0.002 0.458964,0.004 0.688622,7e-4 0.255764,-0.002 0.555272,-0.0303 0.760942,0.15487 0.111477,0.10019 0.166158,0.26917 0.180622,0.41593 0.0074,0.0744 3.53e-4,0.15416 -0.01623,0.22789 m 1.145822,2.65324 -0.913341,-1.6009 c 0.0028,3.5e-4 -0.0374,-0.0811 0.02222,-0.11889 0.905227,-0.58773 0.502355,-1.70921 0.502355,-1.70921 -0.257175,-0.81562 -1.328914,-0.80433 -1.328914,-0.80433 h -1.770239 c -0.287866,-0.003 -0.278341,0.20108 -0.278341,0.20108 v 3.7652 0.11359 c 0,0 -0.0127,0.26141 0.169686,0.27729 h 0.122766 v -7.1e-4 c 0.162984,0 0.359128,7.1e-4 0.359128,7.1e-4 0.183092,-0.0159 0.169686,-0.27729 0.169686,-0.27729 v -1.11513 c -0.006,-0.0526 0.06985,-0.0469 0.06985,-0.0469 0.03457,0 0.948973,-0.0303 1.10102,0.0335 0.06773,0.0286 0.14358,0.10019 0.186266,0.16333 3.53e-4,0 0.611012,1.02129 0.611012,1.02129 0.04657,0.078 0.09984,0.14429 0.168627,0.20144 0.06632,0.054 0.142875,0.0519 0.225073,0.0512 0.138288,-0.004 0.277283,3.6e-4 0.415572,3.6e-4 0.221191,-0.0131 0.167569,-0.15558 0.167569,-0.15558"
         style="fill:#20294e;fill-opacity:1;fill-rule:nonzero;stroke:none;stroke-width:0.35277778"
         id="path36647"
         inkscape:connector-curvature="0" />
      <path
         d="m 52.355135,192.13973 c -0.02469,0.0251 -0.05292,0.0378 -0.08502,0.0378 h -0.431448 -0.0035 -0.4318 c -0.0314,0 -0.05962,-0.0127 -0.08467,-0.0378 -0.02434,-0.0243 -0.03669,-0.0529 -0.03669,-0.0843 0,-0.0134 0.02117,-0.0741 0.06421,-0.1831 0.04304,-0.10759 0.09031,-0.22577 0.141816,-0.35524 0.05151,-0.12736 0.101247,-0.24906 0.148872,-0.36477 0.04762,-0.11395 0.07761,-0.18521 0.09137,-0.21167 0.02187,-0.0282 0.05644,-0.0413 0.1016,-0.0413 h 0.0053 v 0.001 h 0.0018 0.0011 l 7.05e-4,-0.001 h 0.006 c 0.0448,0 0.07832,0.0131 0.100894,0.0413 0.01411,0.0265 0.0448,0.0977 0.09172,0.21167 0.04657,0.11571 0.09701,0.23741 0.14852,0.36477 0.05221,0.12947 0.09913,0.24765 0.142169,0.35524 0.04269,0.10901 0.06385,0.16969 0.06385,0.1831 0,0.0314 -0.0127,0.06 -0.03669,0.0843 m 1.484136,1.41605 -1.677105,-4.00191 c -0.02222,-0.0543 -0.07338,-0.0878 -0.152048,-0.10054 -0.06879,-0.0127 -0.124883,-0.0183 -0.17145,-0.0205 h -0.0018 -0.0018 c -0.04586,0.002 -0.103717,0.008 -0.171098,0.0205 -0.07902,0.0127 -0.129822,0.0462 -0.1524,0.10054 l -1.677105,4.00191 c -0.0046,0.005 -0.0064,0.0166 -0.0064,0.0335 0,0.0466 0.01834,0.0794 0.05398,0.0981 0.03598,0.0215 0.07902,0.0342 0.128411,0.0423 0.04974,0.005 0.100542,0.007 0.152047,0.005 0.05256,-0.001 0.09384,-0.003 0.125236,-0.003 0.06315,0 0.134761,-0.008 0.2159,-0.0268 0.08149,-0.018 0.138289,-0.0635 0.168981,-0.13617 l 0.237066,-0.56798 c 0.01799,-0.0342 0.04375,-0.0674 0.07796,-0.0945 0.03387,-0.0261 0.07302,-0.0395 0.118181,-0.0395 h 0.729192 0.0035 0.729545 c 0.04445,0 0.08431,0.0134 0.11818,0.0395 0.03387,0.0272 0.05962,0.0603 0.07761,0.0945 l 0.236714,0.56798 c 0.0314,0.0727 0.08819,0.11818 0.169334,0.13617 0.08079,0.0183 0.1524,0.0268 0.216252,0.0268 0.0314,0 0.07338,0.002 0.124884,0.003 0.05221,0.002 0.102305,0 0.1524,-0.005 0.04939,-0.008 0.09243,-0.0208 0.128058,-0.0423 0.03669,-0.0187 0.05433,-0.0515 0.05433,-0.0981 0,-0.0169 -0.0028,-0.0286 -0.0067,-0.0335"
         style="fill:#20294e;fill-opacity:1;fill-rule:nonzero;stroke:none;stroke-width:0.35277778"
         id="path36651"
         inkscape:connector-curvature="0" />
      <path
         d="m 64.339243,192.13973 c -0.02434,0.0251 -0.05292,0.0378 -0.08502,0.0378 h -0.431448 -0.0039 -0.431447 c -0.03175,0 -0.05927,-0.0127 -0.08467,-0.0378 -0.0247,-0.0243 -0.0374,-0.0529 -0.0374,-0.0843 0,-0.0134 0.02187,-0.0741 0.06456,-0.1831 0.04339,-0.10759 0.09066,-0.22577 0.142169,-0.35524 0.05151,-0.12736 0.101247,-0.24906 0.14852,-0.36477 0.04762,-0.11395 0.07796,-0.18521 0.09137,-0.21167 0.02258,-0.0282 0.05644,-0.0413 0.1016,-0.0413 h 0.0053 v 0.001 h 0.0014 0.0018 l 7.05e-4,-0.001 h 0.0056 c 0.0448,0 0.07867,0.0131 0.1016,0.0413 0.01376,0.0265 0.0441,0.0977 0.09137,0.21167 0.04727,0.11571 0.09666,0.23741 0.148872,0.36477 0.05186,0.12947 0.09913,0.24765 0.141817,0.35524 0.04269,0.10901 0.06456,0.16969 0.06456,0.1831 0,0.0314 -0.01305,0.06 -0.03739,0.0843 m 1.483783,1.41605 -1.676752,-4.00191 c -0.02258,-0.0543 -0.07303,-0.0878 -0.152048,-0.10054 -0.06844,-0.0127 -0.125236,-0.0183 -0.17145,-0.0205 h -0.0018 -0.0021 c -0.04586,0.002 -0.103364,0.008 -0.17145,0.0205 -0.07867,0.0127 -0.129117,0.0462 -0.152047,0.10054 l -1.676753,4.00191 c -0.0042,0.005 -0.006,0.0166 -0.006,0.0335 0,0.0466 0.01729,0.0794 0.05327,0.0981 0.03669,0.0215 0.07902,0.0342 0.128764,0.0423 0.05009,0.005 0.100894,0.007 0.151694,0.005 0.05256,-0.001 0.09419,-0.003 0.125589,-0.003 0.0628,0 0.134761,-0.008 0.216606,-0.0268 0.08079,-0.018 0.13723,-0.0635 0.168275,-0.13617 l 0.236714,-0.56798 c 0.01799,-0.0342 0.0441,-0.0674 0.07796,-0.0945 0.03387,-0.0261 0.07303,-0.0395 0.118533,-0.0395 h 0.728839 0.0039 0.729545 c 0.0441,0 0.08431,0.0134 0.117828,0.0395 0.03351,0.0272 0.05997,0.0603 0.07796,0.0945 l 0.236009,0.56798 c 0.0321,0.0727 0.08855,0.11818 0.169333,0.13617 0.08149,0.0183 0.153106,0.0268 0.216958,0.0268 0.03104,0 0.07267,0.002 0.124178,0.003 0.05256,0.002 0.103011,0 0.1524,-0.005 0.05009,-0.008 0.09243,-0.0208 0.128764,-0.0423 0.03598,-0.0187 0.05433,-0.0515 0.05433,-0.0981 0,-0.0169 -0.0021,-0.0286 -0.0071,-0.0335"
         style="fill:#20294e;fill-opacity:1;fill-rule:nonzero;stroke:none;stroke-width:0.35277778"
         id="path36655"
         inkscape:connector-curvature="0" />
      <path
         d="m 85.390128,192.13973 c -0.02469,0.0251 -0.05292,0.0378 -0.08431,0.0378 h -0.4318 -0.0042 -0.431095 c -0.03104,0 -0.05997,-0.0127 -0.08467,-0.0378 -0.0247,-0.0243 -0.0374,-0.0529 -0.0374,-0.0843 0,-0.0134 0.02222,-0.0741 0.06526,-0.1831 0.04269,-0.10759 0.08961,-0.22577 0.141111,-0.35524 0.05221,-0.12736 0.1016,-0.24906 0.149578,-0.36477 0.04657,-0.11395 0.07761,-0.18521 0.09102,-0.21167 0.02223,-0.0282 0.05609,-0.0413 0.101247,-0.0413 h 0.0049 v 0.001 h 0.0025 0.0014 l 3.53e-4,-0.001 h 0.006 c 0.0448,0 0.07902,0.0131 0.101248,0.0413 0.01341,0.0265 0.04445,0.0977 0.09137,0.21167 0.04692,0.11571 0.09596,0.23741 0.148872,0.36477 0.05256,0.12947 0.09948,0.24765 0.14217,0.35524 0.04233,0.10901 0.0635,0.16969 0.0635,0.1831 0,0.0314 -0.01199,0.06 -0.03704,0.0843 m 1.484136,1.41605 -1.6764,-4.00191 c -0.02222,-0.0543 -0.07373,-0.0878 -0.152753,-0.10054 -0.06773,-0.0127 -0.124883,-0.0183 -0.171097,-0.0205 h -0.0018 -0.0025 c -0.04551,0.002 -0.102306,0.008 -0.17145,0.0205 -0.07796,0.0127 -0.129117,0.0462 -0.151695,0.10054 l -1.6764,4.00191 c -0.0042,0.005 -0.0067,0.0166 -0.0067,0.0335 0,0.0466 0.01764,0.0794 0.05397,0.0981 0.03669,0.0215 0.07902,0.0342 0.128058,0.0423 0.05045,0.005 0.100894,0.007 0.152047,0.005 0.05186,-0.001 0.09454,-0.003 0.125589,-0.003 0.06279,0 0.135114,-0.008 0.216606,-0.0268 0.08043,-0.018 0.13723,-0.0635 0.168627,-0.13617 l 0.236714,-0.56798 c 0.01799,-0.0342 0.0441,-0.0674 0.07761,-0.0945 0.03422,-0.0261 0.07373,-0.0395 0.118181,-0.0395 h 0.728839 0.0042 0.729192 c 0.0448,0 0.08502,0.0134 0.11818,0.0395 0.03422,0.0272 0.05997,0.0603 0.07796,0.0945 l 0.236714,0.56798 c 0.03175,0.0727 0.08784,0.11818 0.169686,0.13617 0.08079,0.0183 0.152753,0.0268 0.215195,0.0268 0.0321,0 0.07373,0.002 0.124883,0.003 0.05256,0.002 0.103364,0 0.152753,-0.005 0.04974,-0.008 0.09243,-0.0208 0.128411,-0.0423 0.03634,-0.0187 0.05433,-0.0515 0.05433,-0.0981 0,-0.0169 -0.0018,-0.0286 -0.0071,-0.0335"
         style="fill:#20294e;fill-opacity:1;fill-rule:nonzero;stroke:none;stroke-width:0.35277778"
         id="path36659"
         inkscape:connector-curvature="0" />
      <path
         d="m 55.213164,193.55225 c 0,0.12735 -0.09984,0.22931 -0.221897,0.22931 h -0.353131 c -0.122414,0 -0.221897,-0.10196 -0.221897,-0.22931 v -3.9056 c 0,-0.12806 0.09948,-0.23072 0.221897,-0.23072 h 0.353131 c 0.122061,0 0.221897,0.10266 0.221897,0.23072 z"
         style="fill:#20294e;fill-opacity:1;fill-rule:nonzero;stroke:none;stroke-width:0.35277778"
         id="path36663"
         inkscape:connector-curvature="0" />
    </g>
  </g>
</svg>
