<svg width="925.82" height="108.01" version="1.1" viewBox="0 0 300 34.952" xmlns="http://www.w3.org/2000/svg">
	<path d="m30.45 8.2274c0.30801 0.5158 0.01096 1.0835-0.1291 1.577-1.2222 3.4189-3.5077 6.2487-5.3433 9.3636-1.5717 2.5588-2.6001 5.4004-3.6466 8.1786-0.36222 0.83456-0.49251 1.7613-0.93203 2.5545-0.03591 0.08552-0.14829 0.03426-0.22531 0.05619-0.26999-0.22778-0.23518-0.55284-0.29877-0.84094 0.2075-3.4781 1.5485-6.6207 2.8076-9.7597 1.576-3.5003 3.6889-6.843 5.1252-10.462 0.20009-0.45646 0.59521-1.0157 1.2053-1.1873 0.61111-0.092098 1.074 0.12828 1.4372 0.52005zm-5.2628-0.21928c0.44163 0.3327 0.2138 0.96169 0.04029 1.3515-1.9213 4.2546-5.0331 7.9232-6.3208 12.385-0.35587 0.94579-0.58674 1.9233-0.88225 2.8764-0.05208 0.17159-0.30288 0.1768-0.4819 0.13458-0.17076-0.40457-0.1206-0.91827-0.1206-1.3557 0.40564-3.5853 1.2625-7.0685 3.0143-10.19 0.79643-1.559 1.5664-2.9614 2.4021-4.4832 0.236-0.43001 0.63123-0.81978 1.2053-0.96062 0.42258-0.024669 0.82927 0.074007 1.1438 0.24148zm-4.742-0.16446c0.21517 0.96591-0.47765 1.7581-0.78478 2.6224-1.6395 3.2728-3.6075 6.4754-4.5797 9.9737-0.0455 0.11129-0.11046 0.26177-0.24039 0.31042-0.1387 0.0381-0.25519-0.03097-0.29123-0.1291-0.32824-1.3906 0.04961-2.8375 0.40668-4.1592 0.93414-2.937 2.0642-5.9417 3.6445-8.6731 0.18337-0.13979 0.21188-0.2582 0.44059-0.32311 0.54966-0.057287 1.1004-0.016446 1.4044 0.37812zm-4.4404-0.76748c0.4046 0.53803-0.13678 1.0125-0.29776 1.486-1.685 2.5302-2.2729 5.3962-3.3912 8.1066-0.0836 0.0932-0.24971 0.1217-0.36963 0.0847-0.29776-0.2127-0.29776-0.56344-0.26369-0.87063 0.22449-2.9381 1.0009-5.6947 2.2517-8.3215 0.29228-0.42047 0.79117-0.89705 1.4341-0.79753 0.24258 0.050709 0.45964 0.13568 0.63649 0.31248zm7.4007-5.1805c2.2294 0.74457 4.5882 1.3154 6.9934 1.5887l1.6776 0.016446 0.05181-0.046597c1.003 0.02741 1.7444-0.41304 2.7198-0.62805 0.10498-0.024669 0.35694-0.087987 0.46392 0.055095 0.04879 0.18639-0.02741 0.38868-0.23847 0.52743-1.1947 0.91399-2.6192 1.5939-3.9621 2.0833v-0.02741c-0.4406 0.084697-0.91191 0.27443-1.3695 0.42469-1.6543 0.50095-3.5376 0.81551-5.3168 0.68737-3.4082-0.17488-6.3049-1.3927-9.314-1.2487-2.9548-0.17268-5.7649 0.95637-7.3377 3.1848-0.80704 1.1661-1.4488 2.3957-1.649 3.7481 0.089083 1.2243 1.8079 1.6946 2.4518 2.7071 0.36963 0.61212 0.55286 1.2868 0.83141 1.9223 0.71384 1.2805 1.4213 2.5599 2.2983 3.7651l-0.02193 0.02467c0.51369 0.80597 1.3324 1.5039 2.3004 1.9774 1.2551 0.89708 2.3629 2.0219 3.0217 3.2303l-0.03426 0.01919c0.74136 1.182 1.1576 2.4074 1.7317 3.6401 0.25738 0.75622 0.54119 1.4214 0.76148 2.1574 0.07538 0.0688 0.07538 0.17981 0.11951 0.27649 0.20311 0.58255 0.37599 1.2032 0.6238 1.7433-0.1069 0.08141 0.0836 0.11238 0.0603 0.1916 0.0137 0.32722 0.3327 0.81764-0.0932 1.0369-0.61961-0.54757-0.94472-1.3504-1.2794-1.9339-0.73182-1.2763-1.5696-2.5101-2.472-3.7239l0.02741-0.02467c-0.55393-0.69584-1.1661-1.4796-1.7994-2.1998-2.67-2.9559-6.5941-4.731-9.4623-7.5452l-0.02741 0.02467c-0.2445-0.21928-0.40142-0.50945-0.59946-0.7594l0.019187-0.027411c-0.34951-0.4893-0.55711-1.0475-0.89494-1.5484l0.019187-0.02467c-0.88754-1.3218-1.7412-2.7251-2.3152-4.1156-0.11951-0.61536-0.33029-1.1449-0.37705-1.8534l-0.066881-0.23189c0.037004-0.64499-1.5633-1.0189-0.68312-2.2559 0.55286-0.59625 2.6923-1.3313 3.42-2.4508 0.016446-0.1672 0.055094-0.36647-0.089083-0.51792 0-0.11951-0.12417-0.2456-0.21078-0.36963-0.40463-0.50309-1.5019-0.1058-1.4838-0.84834 0.11238-0.005482 0.0054821-0.10388 0.07949-0.14637-0.061399-0.36645-0.08689-0.609 0.016446-0.91824 0.22147-0.609 0.43744-1.3102 0.39399-1.9244 0.044679-0.23079 0.27547-0.36858 0.50838-0.4586 0.45542-0.1143 0.85366-0.1757 1.3006-0.23518l0.056191 0.045501c1.0327-0.084697 2.2729-0.010964 2.9581 0.80071 0.29639 0.61536 0.064688 1.3451-0.10169 1.9647-0.051805 0.35691-0.44273 0.64817-0.35162 1.0242 0.13568 0.1387 0.42047 0.1302 0.6016 0.053176 1.559-0.94472 2.92-2.2559 4.0553-3.5798 1.0464-0.97967 2.5874-1.3186 4.0046-1.1152 2.8712 0.22147 5.2978 1.1841 7.9742 1.8375z" fill="#f4ca35"/>
	<path d="m288.3 34.706-9.3828-12.037h-3.528v12.037h-10.761v-31.681h16.009c11.705 0 19.192 3.3035 19.192 9.8666 0 4.4355-4.3012 7.1935-10.154 8.6413l10.327 13.171h-11.703v1e-3zm-8.1776-26.16h-4.7332v8.8266h5.3348c5.5084 0 8.348-1.4955 8.348-4.3911 3e-5 -2.8501-2.4942-4.4355-8.9494-4.4355zm-35.514-5.5259h10.756v31.681h-10.756zm-15.322 31.686-2.8427-6.6067h-13.512l-2.8394 6.6067h-11.017l15.405-31.681h10.502l15.406 31.681zm-6.8005-15.658c-1.0327-2.4444-2.4084-6.1122-2.8405-7.6935-0.43105 1.6279-1.6353 5.0224-2.7547 7.6014l-1.6353 3.85h8.8669l-1.6363-3.7577zm-38.262 15.658-11.102-14.12c-1.5505-1.9911-3.4444-4.5723-4.5616-6.4258 0.0855 1.9477 0.17076 5.2046 0.17076 7.1946v13.351h-9.8128v-31.678h10.845l10.587 13.896c1.4637 1.8979 3.616 4.8423 4.7332 6.6078-0.0855-1.9477-0.34315-5.3866-0.34315-7.3799v-13.123h9.8118v31.678h-10.328zm-40.375 0-2.8383-6.6067h-13.511l-2.8394 6.6067h-11.017l15.406-31.681h10.501l15.404 31.681zm-6.7953-15.658c-1.0337-2.4444-2.4094-6.1122-2.8394-7.6935-0.4321 1.6279-1.6353 5.0224-2.7547 7.6014l-1.6353 3.85h8.8647l-1.6353-3.7577zm-33.881 3.7072v11.948h-10.758v-11.857l-15.494-19.824h11.879l4.6474 6.4266c1.9806 2.7591 3.961 5.8844 4.4769 7.3777 0.6016-1.4934 2.5821-4.7535 4.4758-7.3777l4.6474-6.4266h11.705l-15.58 19.732zm-38.484 11.951-9.3817-12.037h-3.5291v12.037h-10.758v-31.681h16.009c11.705 0 19.194 3.3035 19.194 9.8666 0 4.4355-4.3042 7.1935-10.156 8.6413l10.327 13.171h-11.705v1e-3zm-8.1765-26.16h-4.7343v8.8266h5.3359c5.5094 0 8.348-1.4955 8.348-4.3911 0.0011-2.8501-2.4931-4.4355-8.9494-4.4355z" fill="#2b4779"/>
</svg>
