<svg height="195.615199" viewBox="0 0 51.882144 19.874966" width="511.20772" xmlns="http://www.w3.org/2000/svg"><g stroke-width=".264583" transform="translate(13.467858 -138.895847)"><path d="m-8.498719 141.37844 2.7564292 2.75669-1.6404167 5.77374-2.0902083-2.05052-1.2435412-4.96676z" fill="#007ab3" fill-rule="evenodd"/><path d="m-3.8767124 148.48726h3.10885419l-2.48708339 2.27992-4.1275-.85831z" fill="#007ab3"/><path d="m-3.2552062 150.76691-3.730625 1.02209-4.3523958 2.2942 3.9557854-4.17486z" fill="#003568"/><path d="m-9.4726502 152.1147-3.7306248.72522 1.865312 1.24354z" fill="#3abcda" fill-rule="evenodd"/><path d="m-3.8772411 148.48726h3.10885389l-1.57638699-.62177z" fill="#003568" fill-rule="evenodd"/><path d="m-1.3129002 148.98653.54477699.54451v-1.04378z" fill="#003568" fill-rule="evenodd"/><path d="m-3.8767124 148.48726-1.865048-4.35213-1.6404166 5.77374z" fill="#3abcda" fill-rule="evenodd"/><path d="m-10.716456 142.89158.622035-3.10885-2.487083-.6223z" fill="#003568" fill-rule="evenodd"/><path d="m-8.498719 141.3787-1.595967-1.59517-.622035 3.10885z" fill="#3abcda" fill-rule="evenodd"/><g fill="#003568"><path d="m24.159334 149.62365c.963612-.51329 1.362604-1.18269 1.362604-2.00554 0-1.14776-.822854-1.84018-2.15265-1.84018h-1.571096c-1.211791 0-1.894681.52917-1.894681 1.76821v5.1234c0 .16113.02646.1852.185208.1852h.832379c.161661 0 .186796-.0243.186796-.1852v-1.87325h-.705114a.10583333.10583333 0 0 1 -.118798-.0857.098425.098425 0 0 1 .08176-.11695l.739246-.0992a13.745633 13.745633 0 0 0 1.940718-.42334l1.411288 2.61938c.0418.0815.07461.1643.1651.1643h1.107281a.09181042.09181042 0 0 0 .09895-.099.10212917.10212917 0 0 0 -.01746-.0654zm-3.053556-2.0238c.0077-.51567.13917-.73448.740833-.73448h1.470554c.696383 0 1.001977.29104 1.001977.78793 0 .59346-.301625 1.33826-3.213629 1.82271z"/><path d="m35.414177 148.56161c-1.239573-.33469-1.440921-.5535-1.440921-.98663 0-.4183.396875-.7112.878681-.7112h2.54a.13361458.13361458 0 0 0 .134409-.13229v-.81835a.13387916.13387916 0 0 0 -.134409-.1323h-2.473325c-1.29196 0-2.143125.82894-2.143125 1.85447 0 1.27847 1.05463 1.67058 2.447925 2.04893 1.24513.33867 1.724025.61384 1.724025 1.19063 0 .51646-.502708.89641-1.10146.89641h-2.743729a.13520208.13520208 0 0 0 -.134938.1352v.81809a.13520208.13520208 0 0 0 .134938.13414h2.685256c1.305983 0 2.3622-.91466 2.3622-2.04099 0-1.35441-1.015735-1.79017-2.733939-2.25346"/><path d="m12.401514 147.11329c0-.79375-.529168-1.33536-1.679841-1.33536h-3.0792202a.17727083.17727083 0 0 0 -.176742.17675v.7313a.1762125.1762125 0 0 0 .176742.17701h3.1353122c.185208 0 .347663.0677.347663.27649 0 .65458-4.1502552 2.15-4.1502552 4.32885 0 .76253.481542 1.38774 1.760538 1.38774h3.4893252a.17727083.17727083 0 0 0 .176478-.17674v-.73396a.17674166.17674166 0 0 0 -.176478-.17701h-3.5774312a.40084375.40084375 0 0 1 -.360627-.40137c0-1.47479 4.1145362-2.54794 4.1145362-4.25397"/><path d="m3.8938348 145.77793h-2.788708a.13414375.13414375 0 0 0 -.13414401.13521v.81703a.13467291.13467291 0 0 0 .13414401.1352h2.786591c.673365.002 1.055423.30348 1.108869.97182h.709877a.10583333.10583333 0 0 1 .118798.0857.0968375.0968375 0 0 1 -.08176.11562l-.738981.10028c-3.235325.49318-4.51908401 1.45521-4.51908401 2.87629 0 1.14988.82285501 1.84123 2.15159201 1.84123h1.673225c1.212056 0 1.894681-.53208 1.894681-1.76927v-3.12208c0-1.31207-.78105-2.18546-2.314839-2.18546m1.112837 5.25621c-.0077.51568-.140229.73343-.740833.73449h-1.572948c-.697177 0-1.000654-.29263-1.000654-.78899 0-.59108.402696-1.33615 3.314964-1.82166z"/><path d="m16.629549 145.77793h-1.142736c-1.534583 0-2.317221.87313-2.317221 2.18546v2.70722c0 1.31207.782109 2.18546 2.317221 2.18546h1.142736c1.534583 0 2.315898-.87313 2.315898-2.18546v-2.70722c0-1.31207-.782109-2.18546-2.315898-2.18546m1.112573 3.38085v1.5203c0 .67415-.360892 1.09034-1.11469 1.09034h-1.141677c-.753004 0-1.114689-.41619-1.114689-1.09034v-2.7223c0-.67522.36195-1.09141 1.114689-1.09141h1.141677c.753798 0 1.11469.41619 1.11469 1.09141z"/><path d="m32.114296 147.61811c0-1.14776-.822854-1.84018-2.151327-1.84018h-1.251743c-1.534584 0-2.318015.87313-2.318015 2.18546v2.70722c0 1.3118.782108 2.18546 2.318015 2.18546h2.786591a.13546666.13546666 0 0 0 .134409-.13521v-.81809a.13520208.13520208 0 0 0 -.134409-.13414h-2.786856c-.672306-.002-1.055423-.30348-1.10781-.97129 0 0-.0077-.11483-.0077-.24738v-.0542c3.234267-.49398 4.519084-1.45706 4.519084-2.87734m-4.519084 1.24989h.0021v-.91123c0-.67521.359833-1.0914 1.113631-1.0914h1.199356c.697442 0 1.001977.29104 1.001977.78792 0 .59347-.403754 1.33827-3.316814 1.82245z"/><path d="m23.145189 154.22475a.40719375.40719375 0 0 0 -.410634-.30771.41354375.41354375 0 0 0 -.416189.31353l-1.227138 4.05183a.19446875.19446875 0 0 0 -.0074.063.11482917.11482917 0 0 0 .118269.12409h.07779a.14472708.14472708 0 0 0 .123296-.0979l.484716-1.60206h1.681957l.496622 1.60153a.12991042.12991042 0 0 0 .123032.0984h.07197a.11138958.11138958 0 0 0 .124354-.11827.2524125.2524125 0 0 0 -.01296-.068zm-1.1684 2.22462.6477-2.14313c.0164-.0601.03863-.0929.110066-.0929.05583 0 .08996.0307.110332.0995l.641614 2.13651z"/><path d="m25.141994 153.93291a.15875.15875 0 0 1 .15875.15875v.40746a.15875.15875 0 0 1 -.15875.15875.1603375.1603375 0 0 1 -.160338-.15769v-.40693a.1603375.1603375 0 0 1 .160338-.16034z"/><path d="m25.140406 155.19788a.15875.15875 0 0 1 .15875.15875v2.95275a.15875.15875 0 0 1 -.15875.15875.1603375.1603375 0 0 1 -.15875-.15901v-2.95249a.15875.15875 0 0 1 .15875-.15875z"/><path d="m27.212096 155.16799a1.4134041 1.4134041 0 0 0 -.803804.25215v-.0738a.13784791.13784791 0 0 0 -.13626-.14816h-.04789a.1381125.1381125 0 0 0 -.135996.14816v2.98106a.14605.14605 0 0 0 .142346.14208h.03572a.14578541.14578541 0 0 0 .142081-.14208v-2.60614a1.4311312 1.4311312 0 0 1 .803801-.26273c.05292 0 .189974 0 .189974-.12436v-.0479c.0013-.11827-.137054-.11827-.189974-.11827z"/><path d="m28.135222 153.96493h-.0598a.1349375.1349375 0 0 0 -.130175.14208v4.22037a.1349375.1349375 0 0 0 .130175.14208h.0598a.13520208.13520208 0 0 0 .13044-.14208v-4.22037a.13520208.13520208 0 0 0 -.13044-.14208z"/><rect height=".727604" rx=".160073" width=".32041" x="29.112597" y="153.93292"/><rect height="3.271573" rx=".160073" width=".32041" x="29.112597" y="155.19788"/><path d="m31.475857 155.16799a2.3074312 2.3074312 0 0 0 -.935302.22913v-.0508a.13784791.13784791 0 0 0 -.136261-.14816h-.04789a.1381125.1381125 0 0 0 -.136263.14816v2.98106a.14605.14605 0 0 0 .142345.14208h.03572a.14578541.14578541 0 0 0 .142346-.14208v-2.63392a2.2354646 2.2354646 0 0 1 .91731-.23495c.517261 0 .779463.29659.779463.88132v1.98729a.1412875.1412875 0 0 0 .13626.14208h.04207a.14208125.14208125 0 0 0 .142081-.14208v-1.98729c.000529-.7448-.394229-1.17184-1.081881-1.17184z"/><path d="m34.396592 155.16878c-.763587 0-1.237721.55907-1.237721 1.45918v.39502c0 .98399.462489 1.48325 1.375834 1.48325a4.7400104 4.7400104 0 0 0 .903552-.10239c.09948-.0198.136525-.0582.136525-.14155v-.0418a.10821458.10821458 0 0 0 -.118272-.11244.092075.092075 0 0 0 -.02461.004.09128125.09128125 0 0 1 -.01693.003 4.6849771 4.6849771 0 0 1 -.880269.10133c-.521758 0-1.054894-.14182-1.054894-1.193v-.0971h1.994959a.14234583.14234583 0 0 0 .142081-.14234v-.16166c-.000794-.93742-.433917-1.45336-1.220258-1.45336zm.899584 1.46077h-1.81663v-.002c0-.53314.15875-1.16893.917575-1.16893.613566 0 .899584.37042.899584 1.16284z"/><path d="m37.373149 156.75284-.400843-.22172c-.383382-.21378-.565941-.35772-.565941-.59769 0-.3937.258759-.4744.6477-.4744a6.5021354 6.5021354 0 0 1 .759616.0574l.0725.008h.01799a.11879792.11879792 0 0 0 .136261-.12435v-.0479c0-.0405-.01932-.11139-.150813-.12991l-.03995-.005a6.0708646 6.0708646 0 0 0 -.820208-.0492c-.600075 0-.944298.27861-.944298.76465 0 .43709.306123.63844.738981.87497l.383117.20955c.497945.27279.619918.39688.619918.6276 0 .39952-.21881.57017-.731573.57017a5.8697812 5.8697812 0 0 1 -.880268-.0958h-.03572a.11006667.11006667 0 0 0 -.124355.11219v.0659c0 .0794.07408.10583.154782.12382a5.4504167 5.4504167 0 0 0 .873125.0841c.696118 0 1.064154-.29766 1.064154-.86042.000794-.43022-.320411-.64135-.774171-.89271z"/></g></g></svg>