<?xml version="1.0" encoding="UTF-8" standalone="no"?>
<!-- Created with Inkscape (http://www.inkscape.org/) -->

<svg
   xmlns:dc="http://purl.org/dc/elements/1.1/"
   xmlns:cc="http://creativecommons.org/ns#"
   xmlns:rdf="http://www.w3.org/1999/02/22-rdf-syntax-ns#"
   xmlns:svg="http://www.w3.org/2000/svg"
   xmlns="http://www.w3.org/2000/svg"
   xmlns:sodipodi="http://sodipodi.sourceforge.net/DTD/sodipodi-0.dtd"
   xmlns:inkscape="http://www.inkscape.org/namespaces/inkscape"
   width="46.632538mm"
   height="17.083883mm"
   viewBox="0 0 46.632538 17.083883"
   version="1.1"
   id="svg8"
   sodipodi:docname="Scandinavian_Airlines_logo.svg"
   inkscape:version="0.92.3 (2405546, 2018-03-11)">
  <defs
     id="defs2" />
  <sodipodi:namedview
     id="base"
     pagecolor="#00ffff"
     bordercolor="#666666"
     borderopacity="1.0"
     inkscape:pageopacity="0"
     inkscape:pageshadow="2"
     inkscape:zoom="0.49497475"
     inkscape:cx="-85.405488"
     inkscape:cy="-86.7532"
     inkscape:document-units="mm"
     inkscape:current-layer="layer1"
     showgrid="false"
     inkscape:window-width="1920"
     inkscape:window-height="1001"
     inkscape:window-x="-9"
     inkscape:window-y="-9"
     inkscape:window-maximized="1"
     fit-margin-top="0"
     fit-margin-left="0"
     fit-margin-right="0"
     fit-margin-bottom="0" />
  <metadata
     id="metadata5">
    <rdf:RDF>
      <cc:Work
         rdf:about="">
        <dc:format>image/svg+xml</dc:format>
        <dc:type
           rdf:resource="http://purl.org/dc/dcmitype/StillImage" />
        <dc:title></dc:title>
      </cc:Work>
    </rdf:RDF>
  </metadata>
  <g
     inkscape:label="Layer 1"
     inkscape:groupmode="layer"
     id="layer1"
     transform="translate(-65.508136,-98.336037)">
    <g
       id="g406"
       transform="matrix(0.26458333,0,0,0.26458333,62.366138,93.648681)">
      <path
         id="path390"
         d="m 127.376,19.077 c -6.966,0 -16.508,0.005 -17.797,0.005 -0.897,0 -1.267,0.518 -1.267,0.518 L 59.276,80.422 c -0.286,0.351 -0.225,0.712 0.269,0.712 1.125,0 5.653,0 7.259,-0.003 0.728,0 0.8,-0.195 0.929,-0.385 L 78.171,67.364 c 0,0 0.162,-0.244 0.381,-0.244 0.17,0 17.521,-0.002 17.521,-0.002 0,0 0.269,-0.018 0.216,0.246 -0.055,0.263 -2.557,13.121 -2.557,13.121 -0.032,0.174 0.017,0.646 0.626,0.646 2.289,0 18.766,-0.004 21.173,-0.004 0.306,0 0.413,-0.102 0.472,-0.397 l 11.929,-61.014 c -0.002,0 0.212,-0.639 -0.556,-0.639 z M 97.378,60.79 h -13.78 c 0,0 -0.088,0.02 -0.147,-0.064 C 83.396,60.645 83.5,60.52 83.5,60.52 l 18.318,-23.493 c 0,0 0.138,-0.183 0.283,-0.183 0.145,0 0.094,0.203 0.094,0.203 l -4.593,23.557 c 0,0 -0.014,0.099 -0.059,0.143 -0.043,0.043 -0.165,0.043 -0.165,0.043 z"
         inkscape:connector-curvature="0"
         style="clip-rule:evenodd;fill:#2b3087;fill-rule:evenodd" />
      <path
         id="path392"
         d="m 11.914,73.378 c -0.174,0.726 0.221,1.341 1.537,2.427 2.48,2.045 9.841,6.483 21.52,6.48 C 55.998,82.281 63.623,68.689 60.957,57.171 60.243,54.09 56.304,38.152 55.734,35.908 c -1.657,-6.524 1.514,-11.224 7.74,-11.229 5.323,-0.004 8.646,2.015 11.555,3.839 0.547,0.349 0.949,0.539 1.094,-0.101 0.086,-0.37 1.042,-5.33 1.042,-5.33 0,0 0.282,-0.961 -0.97,-1.615 -1.934,-1.008 -6.744,-3.734 -16.887,-3.738 -18.857,-0.01 -26.883,12.094 -23.599,25.216 1.05,4.198 5.255,19.915 5.271,22.943 0.002,1.163 0.615,9.187 -9.05,9.187 -8.975,0 -15.154,-6.131 -17.24,-8.252 -0.344,-0.354 -0.804,-0.159 -1.019,0.613 -0.111,0.4 -1.757,5.937 -1.757,5.937 z"
         inkscape:connector-curvature="0"
         style="clip-rule:evenodd;fill:#2b3087;fill-rule:evenodd" />
      <path
         id="path394"
         d="m 123.427,73.695 c -0.173,0.727 0.221,1.344 1.539,2.431 2.481,2.042 9.258,6.144 20.939,6.139 21.027,-0.003 28.651,-13.594 25.982,-25.117 -0.709,-3.077 -4.652,-19.014 -5.221,-21.26 -1.653,-6.526 1.517,-11.225 7.738,-11.23 5.325,-0.001 8.648,2.017 11.554,3.842 0.551,0.348 0.952,0.534 1.097,-0.103 0.084,-0.371 1.041,-5.329 1.041,-5.329 0,0 0.287,-0.958 -0.969,-1.615 -1.932,-1.011 -6.748,-3.733 -16.882,-3.737 -18.86,-0.012 -26.886,12.094 -23.603,25.215 1.051,4.198 5.257,19.912 5.272,22.946 0.003,1.16 0.618,9.181 -9.05,9.181 -8.979,0.002 -14.901,-5.914 -17.002,-8.016 -0.467,-0.463 -1.163,-0.292 -1.258,0.383 -0.057,0.404 -1.177,6.27 -1.177,6.27 z"
         inkscape:connector-curvature="0"
         style="clip-rule:evenodd;fill:#2b3087;fill-rule:evenodd" />
    </g>
  </g>
</svg>
