<?xml version="1.0" encoding="utf-8"?>
<!-- Generator: Adobe Illustrator 26.4.0, SVG Export Plug-In . SVG Version: 6.00 Build 0)  -->
<svg version="1.1" id="LOGO" xmlns="http://www.w3.org/2000/svg" xmlns:xlink="http://www.w3.org/1999/xlink" x="0px" y="0px"
	 viewBox="0 0 253.1 77.7" style="enable-background:new 0 0 253.1 77.7;" xml:space="preserve">
<style type="text/css">
	.st0{fill:#272727;}
</style>
<polygon class="st0" points="106.3,48.9 99.1,48.9 120.1,9.2 128.4,9.2 149.4,48.9 142.2,48.9 137.6,40 119.2,40 116.3,34.1 
	134.4,34.1 124.3,14.8 "/>
<polygon class="st0" points="7.3,48.9 0.1,48.9 21.1,9.2 29.4,9.2 50.4,48.9 43.2,48.9 38.6,40 20.2,40 17.4,34.1 35.4,34.1 
	25.3,14.8 "/>
<path class="st0" d="M98.1,18.2l-6,2.1c-4-4.3-9.6-6.4-16.9-6.4c-5.5,0-10,1.4-13.4,4.2c-3.3,2.6-5.3,6.6-5.2,10.8
	c-0.1,4.2,1.8,8.3,5.1,10.9c3.4,2.8,8.1,4.2,13.9,4.2c7,0,12.6-2.2,16.6-6.5l5.7,3.1c-2.6,3.1-5.9,5.6-9.7,7.2
	c-4.1,1.6-8.5,2.3-12.9,2.2c-7,0-12.9-1.8-17.5-5.3c-5.1-3.6-8.1-9.5-8-15.8c0-6.4,2.7-11.6,8.1-15.7c4.7-3.6,10.5-5.3,17.4-5.3
	C85.2,7.9,92.8,11.3,98.1,18.2"/>
<path class="st0" d="M189.3,18.5c-5.6-2.9-11.7-4.5-18-4.5c-4.1,0-7.2,0.5-9.3,1.4c-2.2,1-3.2,2.3-3.2,4c0,1.8,1.2,3,3.5,3.8
	c2.6,0.7,5.3,1.2,8.1,1.2c5.5,0.4,9.1,0.7,10.9,0.9c5,0.7,8.6,1.9,11,3.7c2.4,1.8,3.7,4.7,3.6,7.6c0.1,4-2.1,7.8-5.6,9.8
	c-3.7,2.3-9.1,3.5-16.1,3.5c-10.1,0-18-2.2-23.7-6.7l3.6-4.8c6,3.8,13,5.7,20.1,5.7c4.7,0,8.3-0.6,10.8-1.9c2.5-1.2,3.7-2.9,3.7-5.1
	c0-2.5-1.6-4.2-4.8-5.1c-1.7-0.4-6.2-0.9-13.6-1.4c-6.5-0.4-11.1-1.3-13.8-2.6c-3-1.4-4.8-4.5-4.6-7.8c0-3.7,1.8-6.7,5.2-8.8
	s8.4-3.2,14.8-3.2c8.6,0,15.7,2,21.5,5.9L189.3,18.5z"/>
<path class="st0" d="M237.6,18.5c-5.6-2.9-11.7-4.5-18-4.5c-4.1,0-7.2,0.5-9.3,1.4c-2.2,1-3.2,2.3-3.2,4c0,1.8,1.2,3,3.5,3.8
	c2.6,0.7,5.3,1.2,8.1,1.2c5.5,0.4,9.1,0.7,10.9,0.9c5,0.7,8.6,1.9,11,3.7c2.4,1.8,3.7,4.6,3.6,7.6c0.1,4-2.1,7.8-5.6,9.8
	c-3.7,2.3-9.1,3.5-16.1,3.5c-10.1,0-18-2.2-23.7-6.7l3.6-4.8c6,3.8,13,5.7,20.1,5.7c4.7,0,8.3-0.6,10.8-1.9c2.4-1.2,3.7-2.9,3.7-5.1
	c0-2.5-1.6-4.2-4.8-5.1c-1.7-0.4-6.2-0.9-13.6-1.4c-6.5-0.4-11.1-1.3-13.7-2.6c-3-1.4-4.8-4.5-4.6-7.8c0-3.7,1.7-6.7,5.2-8.8
	s8.4-3.2,14.8-3.2c8.6,0,15.7,2,21.5,5.9L237.6,18.5z"/>
<rect x="15.9" class="st0" width="18.8" height="4.1"/>
<path class="st0" d="M5.9,77.7c-1.6,0-3.1-0.6-4.2-1.7c-2.3-2.3-2.3-6.1,0-8.4c1.1-1.1,2.6-1.7,4.2-1.6c1.5,0,3,0.5,4.1,1.6
	c2.2,2.3,2.2,6,0,8.4C8.9,77.1,7.4,77.7,5.9,77.7z M5.9,76c1.1,0,2.1-0.4,2.8-1.2c1.5-1.7,1.5-4.3,0-6c-0.7-0.8-1.8-1.2-2.8-1.1
	C4.8,67.6,3.7,68,3,68.8c-1.4,1.7-1.4,4.3,0,6C3.7,75.6,4.8,76,5.9,76L5.9,76z"/>
<path class="st0" d="M31.4,66.1h2L30,77.6h-2.1l-2.4-8.7l-2.6,8.7h-2.1l-3.2-11.4h2l2.4,9.3l2.6-9.3h2.1l2.4,9.3L31.4,66.1z"/>
<path class="st0" d="M47.4,66.1h1.9v11.5h-1.9L41.8,69v8.6h-1.9V66.1h1.9l5.7,8.5L47.4,66.1z"/>
<path class="st0" d="M71.3,77.6h-1.9v-4.1l-3.8-7.3h2.1l2.6,5.6l2.7-5.6h2.1l-3.8,7.3L71.3,77.6z"/>
<path class="st0" d="M86.7,77.7c-1.6,0-3.1-0.6-4.2-1.7c-2.3-2.3-2.3-6,0-8.3c2.3-2.3,6-2.3,8.3,0c2.3,2.3,2.3,6,0,8.2
	C89.8,77.1,88.3,77.7,86.7,77.7z M86.7,76c1.1,0,2.1-0.4,2.8-1.2c1.5-1.7,1.5-4.3,0-6c-1.6-1.5-4.1-1.5-5.7,0c-1.4,1.7-1.4,4.3,0,6
	C84.6,75.6,85.6,76,86.7,76L86.7,76z"/>
<path class="st0" d="M99.3,73.4v-7.3h1.9v7.3c-0.1,0.7,0.2,1.5,0.7,2c1,1.1,2.6,1.1,3.7,0.1c0.6-0.5,0.9-1.3,0.8-2.1v-7.3h1.9v7.3
	c0.1,1.2-0.4,2.4-1.3,3.2c-0.9,0.8-2,1.1-3.2,1.1c-1.2,0-2.3-0.4-3.2-1.1C99.7,75.8,99.3,74.6,99.3,73.4z"/>
<path class="st0" d="M117.5,72.9v4.7h-1.9V66.1h3.9c1.1-0.1,2.2,0.3,3,1c0.7,0.6,1.1,1.5,1.1,2.4c0,0.7-0.2,1.5-0.7,2.1
	c-0.5,0.7-1.3,1.1-2.2,1.2l3,4.8h-2.3l-2.9-4.7L117.5,72.9z M117.5,67.6v3.9h2.1c0.6,0,1.2-0.1,1.6-0.5c0.4-0.4,0.6-0.9,0.5-1.4
	c0-0.5-0.2-1-0.5-1.4c-0.4-0.4-1-0.6-1.6-0.5H117.5z"/>
<path class="st0" d="M145.2,74.4v-8.2h1.9v8.2c0,0.9-0.3,1.8-0.9,2.4c-1.4,1.2-3.5,1.2-4.9,0c-0.6-0.6-1-1.5-0.9-2.4h1.9
	c0,0.4,0.1,0.9,0.4,1.2c0.6,0.6,1.6,0.6,2.2,0C145.1,75.2,145.3,74.8,145.2,74.4z"/>
<path class="st0" d="M160.3,77.7c-1.6,0-3.1-0.6-4.1-1.7c-2.3-2.3-2.3-6.1,0-8.4c2.3-2.4,6-2.4,8.4-0.2c2.4,2.3,2.4,6,0.2,8.4
	C163.6,77,162,77.6,160.3,77.7L160.3,77.7z M160.3,76c1.1,0,2.1-0.4,2.8-1.2c1.5-1.7,1.5-4.3,0-6c-1.6-1.5-4.1-1.5-5.6,0
	c-1.4,1.7-1.4,4.3,0,6C158.2,75.6,159.3,76,160.3,76L160.3,76z"/>
<path class="st0" d="M173,73.4v-7.3h1.9v7.3c-0.1,0.7,0.2,1.5,0.7,2c1.1,0.9,2.7,0.9,3.8,0c0.5-0.5,0.7-1.3,0.7-2v-7.3h1.9v7.3
	c0.1,1.2-0.4,2.4-1.3,3.2c-0.9,0.8-2,1.1-3.2,1.1c-1.2,0-2.3-0.4-3.2-1.1C173.4,75.7,172.9,74.6,173,73.4z"/>
<path class="st0" d="M191.2,72.9v4.7h-1.9V66.1h3.9c1.1-0.1,2.2,0.3,3,1c0.7,0.6,1.1,1.5,1.1,2.4c0,0.7-0.2,1.5-0.7,2.1
	c-0.5,0.7-1.3,1.1-2.1,1.2l3,4.8h-2.3l-2.9-4.7L191.2,72.9z M191.2,67.6v3.9h2.1c0.6,0,1.2-0.1,1.6-0.5c0.4-0.4,0.6-0.9,0.5-1.4
	c0-0.5-0.2-1-0.5-1.4c-0.4-0.4-1-0.6-1.6-0.5H191.2z"/>
<path class="st0" d="M212.2,66.1h1.8v11.5h-1.9l-5.6-8.6v8.6h-1.9V66.1h1.9l5.6,8.5L212.2,66.1z"/>
<path class="st0" d="M227.8,66.1v1.5h-4.4V71h3.9v1.4h-3.9v3.6h4.4v1.5h-6.3V66.1H227.8z"/>
<path class="st0" d="M239.7,77.6h-1.9v-4.1l-3.8-7.3h2.1l2.6,5.6l2.6-5.6h2.1l-3.8,7.3L239.7,77.6z"/>
<path class="st0" d="M247.6,66.9c1.3-1.2,3.3-1.2,4.6,0c1.2,1.3,1.2,3.3,0,4.7c-1.3,1.2-3.3,1.2-4.6,0
	C246.4,70.2,246.4,68.2,247.6,66.9z M247.9,71.3c1.1,1,2.9,1,4,0c1-1.2,1-3,0-4.2c-1.1-1-2.9-1-4,0
	C246.9,68.3,246.9,70.1,247.9,71.3L247.9,71.3z M248.6,67h1.4c0.4,0,0.8,0.1,1.1,0.3c0.2,0.2,0.4,0.5,0.4,0.8c0,0.3-0.1,0.6-0.3,0.8
	c-0.2,0.2-0.5,0.4-0.8,0.4l1.2,1.8h-0.7l-1.1-1.7h-0.6v1.7h-0.6L248.6,67z M249.2,67.5v1.6h0.8c0.6,0,0.9-0.3,0.9-0.8
	s-0.3-0.8-0.9-0.8L249.2,67.5z"/>
</svg>
