<?xml version="1.0" encoding="UTF-8" standalone="no"?>
<svg enable-background="new 0 0 600.047 240.848" height="264.92368" viewBox="0 0 644.52368 264.92367" width="644.52368" xmlns="http://www.w3.org/2000/svg">
   <path d="m642.52271 114.771l-4.672 22.36c0 0-1.383 9.998-8.287 13.653-6.905 3.654-18.378 3.654-18.378 3.654h-123.436l7.33-34.938c-12.216 27.091-44.084 40.1-100.492 40.1-27.406 0-55.77-2.365-71.385-14.406l1.913 9.245h-61.082l-2.55-16.985h-59.912l-9.667 16.985h-61.081l80.414-127.499c0 0 7.861-13.116 14.129-16.341 7.117-3.654 20.077-3.44 20.077-3.44h48.759l21.67 102.773h65.649c-.851 4.945.318 8.278 3.93 10.535 3.824 2.043 9.985 3.01 18.909 3.01 17.953 0 23.901-4.944 25.389-11.932.955-4.3-.851-8.708-8.286-9.891l-63.524-9.891c-27.195-4.3-35.268-20.855-31.019-41.389 7.967-38.161 47.059-48.374 94.331-48.374 64.799 0 87.85 17.093 83.389 48.27h-66.817c1.273-6.021-1.488-9.675-6.269-11.718-4.567-2.257-10.94-3.01-17.314-3.01-17.104 0-23.901 4.3-25.282 10.535-.851 4.193.318 6.772 5.948 7.634l66.498 10.32c23.479 3.655 37.819 13.653 38.773 31.606l18.59-88.261h57.363l-22.625 107.611h89.018v-.216zm-355.968-35.047c0 0-18.909-9.138-41.854-7.739-34.736 2.042-46.846 24.08-46.846 24.08 0 0 14.766-10.428 41.748-9.138 18.696.968 29.531 7.956 29.531 7.956 0 0 2.443-7.956 6.905-11.073 4.566-3.44 10.516-4.086 10.516-4.086z" fill="#054c91"/>
   <path d="m409.52271 165.272c-33.632 16.613-57.993 50.713-55.838 75.74-132.59-39.891-256.016999-24.918-345.4889986 20.33-5.174 2.622-10.024 2.187-1.725-2.842 90.5499996-54.209 264.9649986-102.407 403.0519986-93.228z" fill="#87ceee"/>
   <g fill="#054c91" transform="translate(14.223751 -201.8)">
      <path d="m417.171 368.767h6.569l4.955 29h-7l-.97-6.5h-13.03l-4.74 6.5h-7.323zm2.693 17l-1.398-9.5-6.786 9.5z"/>
      <path d="m441.081 369.067h6.783l-8.398 28.8h-6.786z"/>
      <path d="m455.62 369.067h11.308c4.63 0 7.646.899 9.801 2.8 1.614 1.5 2.367 3.399 2.367 5.8 0 5.2-3.445 8.9-10.014 10.2l5.277 9.8h-7.648l-4.846-9.2h-5.061l-2.693 9.2h-6.785zm8.937 14c4.308 0 7.538-1.601 7.538-4.7 0-1-.321-1.7-.967-2.3-.863-.801-2.371-1.2-4.525-1.2h-5.705l-2.371 8.3z"/>
      <path d="m487.821 369.067h6.783l-6.676 23h15.508l-1.724 5.8h-22.292z"/>
      <path d="m515.822 369.067h6.783l-8.398 28.8h-6.786z"/>
      <path d="m530.467 369.067h6.354l9.045 18.3 5.277-18.3h6.785l-8.401 28.8h-5.705l-9.371-18.9-5.492 18.9h-6.785z"/>
      <path d="m565.252 369.067h23.153l-1.722 5.6h-16.37l-1.722 5.9h14.429l-1.722 5.5h-14.433l-1.722 6.1h16.585l-1.723 5.6h-23.371z"/>
      <path d="m585.285 392.967l5.062-4c2.368 2.5 5.061 3.8 8.723 3.8 2.8 0 4.738-1.199 4.738-3 0-1.399-1.076-2.199-5.276-3.8-3.985-1.6-7.646-3.5-7.646-7.8 0-5.9 5.708-9.5 12.385-9.5 5.277 0 9.047 1.7 11.632 4.3l-4.739 4.4c-2.37-2-4.415-3.101-7.431-3.101-2.907 0-4.522 1.5-4.522 2.9 0 1.6 1.184 2.2 5.491 3.8 4.309 1.601 7.432 3.601 7.432 7.8 0 6-5.708 9.601-12.385 9.601-5.818-.1-10.451-1.9-13.464-5.4z"/>
   </g>
   <g fill="#87ceee" transform="translate(42.475711 3)">
      <path d="m351.967 206.885c2.479-.394 5.68-.7 9.14-.7 3.614 0 6.3.395 8.623 1.576 2.323 1.006 4.027 2.888 4.027 5.383 0 3.72-3.253 6.082-7.022 7.002v.131c3.356.875 5.474 3.194 5.474 6.433 0 3.151-2.014 5.471-4.751 7.002-2.942 1.663-7.332 2.363-13.115 2.363-3.924 0-7.074-.219-8.777-.524zm1.86 24.158c.877.087 1.755.131 2.84.131 4.027 0 7.693-1.356 7.693-4.639 0-2.932-2.892-3.808-6.352-3.808h-2.323zm2.994-12.91h2.479c4.079 0 6.868-1.488 6.868-3.982 0-2.145-2.065-3.063-4.905-3.063-1.291 0-2.324.088-2.893.219z"/>
      <path d="m398.18 223.385h-12.393l-1.601 7.133h13.89l-1.188 5.383h-21.325l6.609-29.496h20.603l-1.239 5.383h-13.116l-1.445 6.302h12.393z"/>
      <path d="m408.868 206.404h7.436l-5.37 23.982h13.373l-1.239 5.514h-20.809z"/>
      <path d="m453.997 234.544c-2.686.744-6.867 1.663-11.257 1.663-4.802 0-8.727-1.051-11.618-3.238-2.788-2.101-4.389-5.34-4.389-9.103 0-5.515 2.686-10.284 7.126-13.479 3.924-2.757 9.294-4.288 15.336-4.288 4.544 0 7.899.743 9.242 1.313l-2.22 5.339c-1.602-.612-4.286-1.226-7.385-1.226-3.459 0-6.558.832-8.881 2.363-2.995 2.014-5.009 5.515-5.009 9.54 0 4.945 3.46 7.44 8.933 7.44 1.704 0 2.943-.22 3.77-.525l1.395-6.215h-5.37l1.136-5.032h12.651z"/>
      <path d="m473.875 206.404l-6.609 29.496h-7.436l6.609-29.496z"/>
      <path d="m488.022 206.404l-3.821 16.98c-.258 1.006-.361 2.188-.361 3.501 0 2.362 1.704 4.201 5.061 4.201 3.872 0 6.454-2.188 7.693-7.659l3.821-17.023h7.436l-3.77 16.762c-2.014 8.927-6.661 13.216-16.11 13.216-7.177 0-11.566-3.107-11.566-9.409 0-1.269.207-2.713.517-4.113l3.666-16.455h7.434z"/>
      <path d="m537.023 235.9l2.117-12.166c.568-3.194 1.343-7.265 2.323-11.51h-.154c-1.91 3.808-4.079 7.878-5.99 11.116l-7.125 12.078h-5.783l-1.239-11.947c-.311-3.238-.568-7.308-.774-11.247h-.104c-.981 3.896-2.014 8.315-2.892 11.51l-3.46 12.166h-6.815l6.726-29.496h11.966l1.085 11.203c.206 2.758.567 6.127.619 9.409h.207c1.342-3.282 3.201-6.739 4.698-9.409l6.455-11.203h10.068l-4.698 29.496z"/>
   </g>
</svg>
