<?xml version="1.0" encoding="UTF-8"?>
<svg width="400" height="175.19" version="1.1" viewBox="0 0 400 175.19" xmlns="http://www.w3.org/2000/svg">
 <path d="m398.88 151.45a2.9899 2.9899 0 0 0 0.85188-1.0857 4.7771 4.7771 0 0 0 0.26726-1.8207v-59.597a5.011 5.011 0 0 0-0.26726-1.8541 2.589 2.589 0 0 0-0.85188-1.0356q-1.353-1.0356-6.2804-1.0356-4.9275 0-6.3807 1.0356a2.589 2.589 0 0 0-0.85186 1.0356 5.011 5.011 0 0 0-0.21716 1.8541v59.631a3.5745 3.5745 0 0 0 1.0356 2.8897q1.353 1.0356 6.3807 1.0356 5.0277 0 6.3138-1.0523zm-44.464 0.33407a22.717 22.717 0 0 0 8.3517-4.8774 18.808 18.808 0 0 0 4.8774-7.316 27.193 27.193 0 0 0 1.5367-9.2703v-41.374a3.491 3.491 0 0 0-1.0356-2.9231q-1.4699-1.0356-6.2804-1.0356-4.8105 0-6.3806 1.0356a2.3051 2.3051 0 0 0-0.86858 1.0356 5.4119 5.4119 0 0 0-0.33408 1.8875v41.19a15.751 15.751 0 0 1-0.85185 5.011 7.8339 7.8339 0 0 1-3.7248 4.2426 15.033 15.033 0 0 1-7.6 1.6703 17.572 17.572 0 0 1-5.5789-0.78506 9.7046 9.7046 0 0 1-3.775-2.2215 8.6523 8.6523 0 0 1-2.1714-3.4743 13.864 13.864 0 0 1-0.68484-4.4598v-41.174a3.491 3.491 0 0 0-1.0356-2.9231q-1.4699-1.0356-6.2804-1.0356-4.8106 0-6.3807 1.0356a2.3051 2.3051 0 0 0-0.86857 1.0356 5.4119 5.4119 0 0 0-0.20044 1.8875v41.357a27.21 27.21 0 0 0 1.5367 9.2703 18.808 18.808 0 0 0 4.8106 7.3829 22.717 22.717 0 0 0 8.3517 4.8106 43.846 43.846 0 0 0 24.554 0zm-72.86-0.33407a2.756 2.756 0 0 0 0.81846-1.0857 5.1446 5.1446 0 0 0 0.25055-1.8207v-50.862h14.866a9.2703 9.2703 0 0 0 2.6725-0.31736 2.7226 2.7226 0 0 0 1.5868-1.3864 12.227 12.227 0 0 0 1.0356-3.658 25.506 25.506 0 0 0 0.36748-3.7415 6.1802 6.1802 0 0 0-0.20044-1.7873 1.8708 1.8708 0 0 0-0.78506-1.0356 3.0901 3.0901 0 0 0-1.0356-0.36747 11.843 11.843 0 0 0-1.9543-0.11692h-46.285a9.2703 9.2703 0 0 0-2.6725 0.31736 2.7393 2.7393 0 0 0-1.6703 1.3864 10.506 10.506 0 0 0-1.0356 3.207 23.017 23.017 0 0 0-0.36748 4.1257 6.3807 6.3807 0 0 0 0.28396 1.8541 1.804 1.804 0 0 0 0.81845 1.0356 6.1802 6.1802 0 0 0 2.9732 0.4844h16.553v50.828a3.3407 3.3407 0 0 0 1.1191 2.9231q1.353 1.0356 6.3807 1.0356 5.0277 0 6.2638-1.0022z" fill="#d40e14"/>
 <path d="m218.96 19.309a19.309 19.309 0 0 1-19.309 19.309 19.309 19.309 0 0 1-19.309-19.309 19.309 19.309 0 0 1 19.309-19.309 19.309 19.309 0 0 1 19.309 19.309zm-208.62 29.481h52.098c5.1446 0 8.953 1.6703 10.456 8.8695 1.6703 8.0677 1.0356 13.68-8.0844 14.315l-16.369 1.1692c12.06 76 82.381 100.79 120.68 18.891 6.3473-13.546 8.3516-16.018 15.35-14.298 9.404 2.3385 10.69 7.2158 6.1802 20.829-33.056 100.95-144.33 111.08-166.16-23.702l-13.246 0.95209c-10.807 0.76835-11.241-8.3517-11.241-13.363-0.033407-10.072 3.6914-13.663 10.339-13.663z" fill="#d40e14"/>
</svg>
