<?xml version="1.0" encoding="UTF-8" standalone="no"?>
<!-- Created with Inkscape (http://www.inkscape.org/) -->

<svg
   xmlns:dc="http://purl.org/dc/elements/1.1/"
   xmlns:cc="http://creativecommons.org/ns#"
   xmlns:rdf="http://www.w3.org/1999/02/22-rdf-syntax-ns#"
   xmlns:svg="http://www.w3.org/2000/svg"
   xmlns="http://www.w3.org/2000/svg"
   xmlns:sodipodi="http://sodipodi.sourceforge.net/DTD/sodipodi-0.dtd"
   xmlns:inkscape="http://www.inkscape.org/namespaces/inkscape"
   width="141.23122"
   height="121.31781"
   viewBox="0 0 37.367427 32.09867"
   version="1.1"
   id="svg10775"
   inkscape:version="0.92.0 r15299"
   sodipodi:docname="air caledonie.svg">
  <defs
     id="defs10769">
    <clipPath
       id="clipPath8778"
       clipPathUnits="userSpaceOnUse">
      <path
         style="clip-rule:evenodd"
         inkscape:connector-curvature="0"
         id="path8776"
         d="M 508.07159,436.64734 H 948.04504 V 876.62073 H 508.07159 Z" />
    </clipPath>
    <linearGradient
       id="linearGradient8792"
       spreadMethod="pad"
       gradientTransform="matrix(3.7300116,0,0,-3.7295481,-157.57286,-56.72494)"
       gradientUnits="userSpaceOnUse"
       y2="1"
       x2="0"
       y1="0"
       x1="0">
      <stop
         id="stop8784"
         offset="0"
         style="stop-opacity:1;stop-color:#ffdd00" />
      <stop
         id="stop8786"
         offset="0.25"
         style="stop-opacity:1;stop-color:#fccc00" />
      <stop
         id="stop8788"
         offset="0.69999999"
         style="stop-opacity:1;stop-color:#f4a000" />
      <stop
         id="stop8790"
         offset="1"
         style="stop-opacity:1;stop-color:#ee7f00" />
    </linearGradient>
  </defs>
  <sodipodi:namedview
     id="base"
     pagecolor="#ffffff"
     bordercolor="#666666"
     borderopacity="1.0"
     inkscape:pageopacity="0.0"
     inkscape:pageshadow="2"
     inkscape:zoom="4.4299334"
     inkscape:cx="70.115725"
     inkscape:cy="60.158913"
     inkscape:document-units="mm"
     inkscape:current-layer="layer1"
     showgrid="false"
     fit-margin-top="0"
     fit-margin-left="0"
     fit-margin-right="0"
     fit-margin-bottom="0"
     units="px"
     inkscape:window-width="1280"
     inkscape:window-height="744"
     inkscape:window-x="-4"
     inkscape:window-y="-4"
     inkscape:window-maximized="1" />
  <metadata
     id="metadata10772">
    <rdf:RDF>
      <cc:Work
         rdf:about="">
        <dc:format>image/svg+xml</dc:format>
        <dc:type
           rdf:resource="http://purl.org/dc/dcmitype/StillImage" />
        <dc:title></dc:title>
      </cc:Work>
    </rdf:RDF>
  </metadata>
  <g
     inkscape:label="Layer 1"
     inkscape:groupmode="layer"
     id="layer1"
     transform="translate(127.40859,73.723295)">
    <g
       id="g10822"
       transform="translate(0.13229429,-0.13229168)">
      <path
         d="m -125.00996,-43.320216 v 1.695592 h -0.29333 l -0.76499,-1.198415 v 1.198415 h -0.28057 v -1.695592 h 0.29334 l 0.76505,1.198119 v -1.198119 z m 0.33162,0.841341 c 0,-0.471575 0.38253,-0.854326 0.84157,-0.854326 0.47172,0 0.8544,0.382454 0.8544,0.841563 0,0.471501 -0.38261,0.854401 -0.84164,0.854401 -0.47187,0.01262 -0.85433,-0.36984 -0.85433,-0.841638 m 0.28042,0 c 0,0.31886 0.25505,0.561067 0.56107,0.561067 0.31879,0 0.56107,-0.25497 0.56107,-0.561067 0,-0.305948 -0.25505,-0.561142 -0.56107,-0.561142 -0.30602,0 -0.56107,0.255192 -0.56107,0.561142 m 1.72149,0.471798 0.26774,-0.102032 c 0.051,0.140545 0.19108,0.191301 0.31863,0.191301 h 0.0384 c 0.12756,-0.01276 0.26766,-0.07651 0.29318,-0.204065 v -0.05105 c 0,-0.05105 -0.0128,-0.08912 -0.0383,-0.12778 -0.0637,-0.07628 -0.17846,-0.127559 -0.31886,-0.127559 -0.14017,0 -0.33147,-0.05105 -0.44627,-0.229444 -0.0637,-0.102032 -0.0637,-0.204065 -0.0637,-0.229444 0,-0.02575 0,-0.114795 0.0637,-0.229812 0.1148,-0.190931 0.3061,-0.229444 0.44627,-0.229444 0.24243,0 0.42082,0.153085 0.43359,0.178389 l -0.15302,0.229591 c 0,0 -0.15308,-0.127559 -0.28057,-0.127559 -0.0383,0 -0.15301,0 -0.20391,0.08927 -0.0255,0.03829 -0.0255,0.07621 -0.0255,0.08927 0,0.01276 0,0.05091 0.0255,0.08882 0.0383,0.05105 0.10188,0.07643 0.20391,0.08919 0.22967,0 0.42082,0.08912 0.53562,0.242578 0.0764,0.08905 0.10203,0.191081 0.10203,0.306097 0,0.03814 0,0.06337 -0.0128,0.101884 -0.0511,0.242206 -0.26773,0.407758 -0.54838,0.433508 h -0.051 c -0.28028,7.42e-4 -0.49703,-0.152195 -0.58623,-0.381713 m 2.57552,0.36984 h -0.28042 v -1.69589 h 0.66303 c 0.0128,0 0.1657,0 0.31878,0.07651 0.21676,0.114648 0.33148,0.318713 0.33148,0.573608 0,0.267436 -0.11472,0.471501 -0.33148,0.586147 l -0.0255,0.01276 0.31871,0.446643 h -0.34424 l -0.26773,-0.382603 h -0.36977 l -0.0128,0.382825 z m 0,-0.663025 h 0.3697 c 0,0 0.10203,0 0.20399,-0.05105 0.11479,-0.06374 0.17846,-0.165776 0.17846,-0.318713 0,-0.15316 -0.0637,-0.267659 -0.17846,-0.331624 -0.0892,-0.05105 -0.19123,-0.05105 -0.19123,-0.05105 h -0.36969 l -0.0128,0.752443 z m 2.88169,0.663025 h -0.30609 l -0.12749,-0.357225 h -0.68847 l -0.12764,0.357225 h -0.30595 l 0.62489,-1.69589 h 0.30587 z m -0.54837,-0.637573 -0.24228,-0.650411 -0.24236,0.650411 z m 2.18037,0.382529 c -0.15308,0.153084 -0.35715,0.242578 -0.59921,0.242578 -0.47172,0 -0.8544,-0.382604 -0.8544,-0.841638 0,-0.471576 0.38246,-0.854326 0.84157,-0.854326 0.22951,0 0.44634,0.101882 0.59928,0.255117 l -0.20407,0.204065 c -0.10203,-0.102033 -0.24228,-0.165776 -0.40798,-0.165776 -0.31878,0 -0.56114,0.255117 -0.56114,0.561142 0,0.31886 0.25512,0.561214 0.56114,0.561214 0.15301,0 0.29326,-0.06359 0.39522,-0.165626 z m 0.32947,-1.45294 0.28058,-5.94e-4 0.004,1.695815 -0.28042,5.93e-4 z m 1.99093,-4.46e-4 v 1.695889 h -0.30595 l -0.75236,-1.198565 v 1.198565 h -0.28043 l -0.0128,-1.695889 h 0.30595 l 0.76521,1.198416 -0.0128,-1.198416 z m 0.63758,0.280422 v 0.497101 h 0.68847 v 0.280422 h -0.68847 v 0.357149 l 0.84156,-0.01276 v 0.293185 h -1.12199 v -1.69589 h 1.12199 v 0.280422 h -0.84156 v 3.71e-4 2e-6 z m 1.17318,1.032642 0.26751,-0.101882 c 0.0511,0.140174 0.1913,0.191152 0.31886,0.191152 h 0.0383 c 0.12756,-0.01276 0.26766,-0.07651 0.29319,-0.203916 v -0.05113 c 0,-0.05105 -0.0128,-0.08905 -0.0383,-0.127559 -0.0637,-0.0765 -0.17839,-0.127558 -0.31871,-0.127558 -0.14033,0 -0.33148,-0.05105 -0.44628,-0.229443 -0.0637,-0.102033 -0.0637,-0.203916 -0.0637,-0.229444 0,-0.02575 0,-0.115018 0.0637,-0.229815 0.1148,-0.191153 0.30595,-0.229444 0.44628,-0.229444 0.2422,0 0.42074,0.153085 0.4335,0.178389 l -0.15308,0.229591 c 0,0 -0.15309,-0.127559 -0.28043,-0.127559 -0.0383,0 -0.15308,0 -0.20406,0.08905 -0.0255,0.03851 -0.0255,0.07636 -0.0255,0.08912 0,0.01291 0,0.05105 0.0255,0.08912 0.0383,0.05113 0.10203,0.07651 0.20406,0.08927 0.22945,0 0.42075,0.08927 0.53554,0.242206 0.0765,0.08927 0.10204,0.191302 0.10204,0.306097 0,0.03866 0,0.06359 -0.0128,0.101883 -0.0511,0.242578 -0.2678,0.40798 -0.5483,0.43373 h -0.0511 c -0.28035,7.42e-4 -0.50994,-0.152417 -0.5863,-0.38186 m 2.25673,-0.471723 c 0,-0.471501 0.38246,-0.854104 0.84157,-0.854104 0.4715,0 0.85432,0.382453 0.85432,0.841341 0,0.471723 -0.38245,0.854623 -0.84156,0.854623 -0.47187,-2.97e-4 -0.85433,-0.3829 -0.85433,-0.84186 m 0.29319,0 c 0,0.319082 0.25512,0.561214 0.56121,0.561214 0.30595,0 0.56122,-0.255117 0.56122,-0.561214 0,-0.305726 -0.25512,-0.560917 -0.56122,-0.560917 -0.31893,-0.01276 -0.57398,0.242207 -0.56121,0.560917 m 3.07284,-0.854104 0.0129,1.695889 h -0.30609 l -0.76514,-1.198565 0.0128,1.198565 h -0.29319 v -1.695889 h 0.30595 l 0.75237,1.185727 v -1.185727 z m 1.58109,0.280421 h -0.49702 l 0.0128,1.402333 h -0.29318 v -1.402333 h -0.49725 v -0.280421 l 1.27514,-0.01276 v 0.293184 h -4.4e-4 z m 1.09661,1.40248 v -1.695886 h 0.56121 c 0.0255,0 0.20407,0 0.38224,0.102032 0.17853,0.101883 0.39521,0.305948 0.39521,0.739309 0,0.433508 -0.21668,0.637573 -0.38245,0.739605 -0.19093,0.102032 -0.36947,0.102032 -0.38223,0.102032 l -0.57398,0.01291 z m 0.28042,-0.28057 h 0.28035 c 0,0 0.1404,0 0.25512,-0.07651 0.15308,-0.08927 0.22959,-0.25497 0.22959,-0.484486 0,-0.229444 -0.0765,-0.394848 -0.24236,-0.484115 -0.12756,-0.07636 -0.25511,-0.07636 -0.25511,-0.07636 h -0.28035 l 0.0128,1.121466 z m 1.67036,-1.134675 v 0.497102 h 0.68841 v 0.280346 h -0.68841 v 0.35715 l 0.84164,-0.01276 v 0.293335 h -1.12206 v -1.69581 h 1.10915 v 0.280274 h -0.82873 v 3.71e-4 z m 1.16035,1.032643 0.26766,-0.101884 c 0.05105,0.140175 0.191302,0.191153 0.318713,0.191153 h 0.03844 c 0.12778,-0.01276 0.267658,-0.07651 0.293185,-0.203915 v -0.05105 c 0,-0.05105 -0.01276,-0.08927 -0.03829,-0.127559 -0.06374,-0.0765 -0.178538,-0.127707 -0.31886,-0.127707 -0.140396,0 -0.331698,-0.05105 -0.446493,-0.229666 -0.06352,-0.102033 -0.06352,-0.203843 -0.06352,-0.229444 0,-0.02553 0,-0.127558 0.06352,-0.229591 0.114795,-0.191152 0.306097,-0.229443 0.446493,-0.229443 0.242354,0 0.420893,0.152937 0.433655,0.178167 l -0.153084,0.229815 c 0,0 -0.153085,-0.127781 -0.280349,-0.127781 -0.03836,0 -0.153085,0 -0.203916,0.08927 -0.02575,0.03851 -0.02575,0.07651 -0.02575,0.08927 0,0.01276 0,0.05105 0.02575,0.08912 0.03829,0.05105 0.102033,0.07651 0.203916,0.08927 0.229591,0 0.420893,0.08927 0.535541,0.242207 0.07651,0.08927 0.102032,0.191301 0.102032,0.306097 0,0.03851 0,0.06374 -0.01276,0.101883 -0.05105,0.242578 -0.267658,0.40798 -0.548525,0.433508 h -0.05105 c -0.267584,-0.0118 -0.497027,-0.15227 -0.586298,-0.381713 m 3.799538,0.369912 h -0.305948 l -0.127558,-0.357149 h -0.688404 l -0.127708,0.357149 h -0.3058 l 0.62466,-1.695739 h 0.306097 z m -0.535541,-0.637573 -0.242207,-0.650187 -0.242578,0.650187 h 0.484783 z m 0.839708,-1.057575 0.2802,-8.91e-4 0.0047,1.69574 -0.280422,9.65e-4 -0.0045,-1.695815 z m 1.633854,1.695146 h -0.981663 l -0.01276,-1.69574 h 0.293184 v 1.402184 h 0.701167 z m 0.561214,-1.415318 v 0.484114 h 0.688403 v 0.293335 h -0.688403 v 0.34446 h 0.841637 v 0.2802 h -1.121984 v -1.695593 h 1.121984 v 0.293037 h -0.841637 v 4.46e-4 z m 1.172814,1.019877 0.267437,-0.101883 c 0.05105,0.140175 0.191449,0.190931 0.318861,0.190931 h 0.03851 c 0.127708,-0.01276 0.267584,-0.07628 0.293334,-0.203916 v -0.05105 c 0,-0.05113 -0.01276,-0.08927 -0.03851,-0.127709 -0.06352,-0.07636 -0.178317,-0.12778 -0.318712,-0.12778 -0.140619,0 -0.331773,-0.05105 -0.446569,-0.229443 -0.06359,-0.102033 -0.06359,-0.203916 -0.06359,-0.229444 0,-0.02553 0,-0.127559 0.06359,-0.229591 0.114796,-0.191152 0.305948,-0.229591 0.446569,-0.229591 0.242428,0 0.420745,0.153085 0.433508,0.178314 l -0.153085,0.229591 c 0,0 -0.153085,-0.127559 -0.280421,-0.127559 -0.03844,0 -0.153085,0 -0.204065,0.08927 -0.02553,0.03829 -0.02553,0.07651 -0.02553,0.08927 0,0.01276 0,0.05105 0.02553,0.08927 0.03851,0.05091 0.102032,0.07599 0.204065,0.08912 0.229515,0 0.420892,0.0889 0.535612,0.242207 0.07643,0.08927 0.102033,0.191301 0.102033,0.306097 0,0.03829 0,0.06352 -0.01284,0.102032 -0.05105,0.242207 -0.267583,0.407833 -0.548451,0.43336 h -0.05105 c -0.280274,10e-4 -0.509716,-0.139135 -0.586222,-0.38149 m -0.841563,-2.830189 c -1.848752,-0.191152 -4.526378,-0.446271 -7.841648,-0.62466 -1.80949,-0.09718 -3.61997,-0.16941 -5.43146,-0.216681 l -1.49183,-0.02553 c -0.25511,0 -0.50993,-0.01291 -0.76513,-0.01291 l -0.77782,0.01291 c -1.04555,0.01276 -2.11641,0.05105 -3.21294,0.08912 -4.38613,0.165404 -9.20599,0.522628 -14.24231,1.147288 h -0.0254 l 0.0128,0.102033 c 5.03639,-0.509865 9.85603,-0.764982 14.25507,-0.841488 1.09638,-0.01276 2.16739,-0.02553 3.20033,-0.02553 h 0.77767 l 0.76498,-0.01299 1.49183,-0.01276 c 1.95086,0 3.77393,0.02575 5.43153,0.07643 3.315274,0.102032 5.992898,0.280274 7.854413,0.420818 1.848974,0.140321 2.869,0.242206 2.869,0.229443 -7.4e-5,0.02597 -1.020101,-0.101439 -2.869075,-0.305504 m -31.072668,-2.830267 c -0.12756,0.01276 -0.19123,-0.01276 -0.21683,-0.08927 -0.0255,-0.06374 -0.0255,-0.140175 -0.0255,-0.25497 v -1.045406 c 0,-0.71393 -0.45904,-1.083695 -1.37703,-1.083695 -0.3953,0 -0.77782,0.07628 -1.07108,0.216681 h -0.0128 l 0.1148,0.62466 0.0255,-0.01276 c 0.20391,-0.114721 0.45903,-0.165626 0.81596,-0.165626 0.25504,0 0.68855,0.05105 0.68855,0.395217 v 0.165404 c -0.25512,-0.153085 -0.57376,-0.165404 -0.73968,-0.165404 -0.36962,0 -0.67571,0.114648 -0.87963,0.318713 -0.17854,0.178538 -0.25512,0.433583 -0.24235,0.726693 0.0128,0.586518 0.56106,0.905231 1.04555,0.905231 0.33162,0 0.77775,-0.114795 0.96912,-0.446494 0.0127,0.153085 0.0637,0.255117 0.1657,0.331699 0.15309,0.114795 0.42075,0.140321 0.75237,0.06352 h 0.0128 v -0.497249 l -0.0255,0.01306 z m -1.09653,-0.548229 c -0.0255,0.306097 -0.39529,0.420745 -0.62481,0.420745 -0.17854,0 -0.35708,-0.0889 -0.36962,-0.292963 -0.0128,-0.102032 0.0128,-0.204064 0.0764,-0.267658 0.0765,-0.08905 0.20399,-0.140321 0.35715,-0.153085 0.21668,0 0.42074,0.06374 0.57368,0.153085 v 0.140397 h -0.0128 v -5.2e-4 -2e-6 z m 2.19314,-3.136065 h -0.0128 c -0.24236,0 -0.49718,0.152937 -0.49718,0.484338 0,0.344239 0.26759,0.497102 0.51002,0.497102 h 0.0126 c 0.22959,0 0.48456,-0.165626 0.48456,-0.497102 1.5e-4,-0.318713 -0.25504,-0.471723 -0.49717,-0.484338 m -0.43351,1.33844 h 0.8544 v 2.843028 h -0.8544 v -2.843026 z m 3.44246,-0.127412 h -0.0255 c -0.36969,0 -0.6631,0.165479 -0.79043,0.446272 -0.0511,-0.267808 -0.29326,-0.420745 -0.67572,-0.420745 -0.1657,0 -0.31886,0.02553 -0.40805,0.05105 h -0.0128 v 0.535613 h 0.0128 c 0.0255,0 0.051,-0.01299 0.0764,-0.01299 0.1657,0 0.19123,0.115018 0.19123,0.344461 v 2.026919 h 0.84163 v -1.555417 c 0,-0.459035 0.33155,-0.66295 0.65026,-0.66295 0.19131,-0.01276 0.35708,0.03829 0.52286,0.152937 l 0.0128,0.01299 0.1913,-0.726914 -0.0128,-0.01276 c -0.14032,-0.114648 -0.34431,-0.178464 -0.5739,-0.178464 m 4.5263,1.848456 c -0.0891,0.267807 -0.30595,0.433655 -0.59928,0.433655 -0.34424,0 -0.70109,-0.267807 -0.70109,-0.764982 0,-0.484486 0.35707,-0.752218 0.70109,-0.752218 h 0.0128 c 0.25512,0 0.47165,0.140173 0.56114,0.382081 v 0.01276 h 0.81603 v -0.01276 c -0.14032,-0.777597 -0.81603,-1.134525 -1.41532,-1.134525 -0.76505,0 -1.5428,0.522778 -1.5428,1.516757 0,0.471577 0.1657,0.854476 0.48449,1.134675 0.28049,0.242578 0.65026,0.382454 1.04548,0.382454 h 0.0128 c 0.62481,0 1.31329,-0.369543 1.44092,-1.160348 v -0.01276 z m 4.20782,0.62481 c -0.12756,0.01276 -0.19131,-0.01276 -0.21668,-0.08927 -0.0257,-0.06374 -0.0257,-0.140175 -0.0257,-0.25497 v -1.045406 c 0,-0.71393 -0.45903,-1.083695 -1.37703,-1.083695 -0.39529,0 -0.77774,0.07628 -1.07122,0.216681 h -0.0128 l 0.1148,0.62466 0.0255,-0.01276 c 0.20407,-0.114721 0.45911,-0.165626 0.81611,-0.165626 0.25505,0 0.68841,0.05105 0.68841,0.395217 v 0.165404 c -0.25497,-0.153085 -0.57361,-0.165404 -0.73953,-0.165404 -0.36977,0 -0.67572,0.114648 -0.87978,0.318713 -0.17839,0.178538 -0.25497,0.433581 -0.24221,0.726693 0.0255,0.586518 0.56107,0.905231 1.04555,0.905231 0.33148,0 0.77768,-0.114795 0.96905,-0.446494 0.0128,0.153085 0.0637,0.255117 0.16578,0.331699 0.15308,0.114795 0.42074,0.140321 0.75222,0.06352 h 0.0128 v -0.497249 l -0.0253,0.01306 z m -1.09646,-0.548229 c -0.0255,0.306097 -0.39529,0.420745 -0.62481,0.420745 -0.17847,0 -0.35715,-0.0889 -0.36977,-0.292963 -0.0128,-0.102032 0.0128,-0.204064 0.0765,-0.267658 0.0764,-0.08905 0.20399,-0.140321 0.35708,-0.153085 0.21682,0 0.42089,0.06374 0.57368,0.153085 v 0.140397 h -0.0127 v -5.2e-4 -2e-6 z m 3.12382,0.395217 c -0.0765,0.01276 -0.14032,0.01276 -0.20407,0.01276 -0.25511,0 -0.35715,-0.127411 -0.35715,-0.459034 v -3.263551 h -0.84148 v 3.263551 c 0,0.408129 0.0893,0.701314 0.25511,0.879705 0.15309,0.178167 0.39522,0.255117 0.71393,0.255117 0.14048,0 0.29334,-0.01276 0.47173,-0.05113 h 0.0128 l -0.0255,-0.650336 z m 1.91249,-2.30749 c -0.7396,0 -1.49189,0.459034 -1.51727,1.478911 0,0.458886 0.15308,0.854105 0.44627,1.134674 0.29333,0.267657 0.68855,0.407979 1.16035,0.407979 h 0.0385 c 0.36947,0 0.76528,-0.08927 1.1093,-0.25497 h 0.0128 l -0.10203,-0.63772 -0.0128,0.01276 c -0.17853,0.07651 -0.42074,0.140472 -0.67556,0.165405 -0.0511,0.01298 -0.11495,0.01298 -0.1913,0.01298 h -0.19116 c -0.31886,-0.02575 -0.70124,-0.153085 -0.7396,-0.611897 h 1.93787 v -0.01276 c 0.11495,-0.510011 0.0511,-0.943595 -0.191,-1.249543 -0.2172,-0.292887 -0.59988,-0.445824 -1.08437,-0.445824 m 0,0.662949 c 0.20392,0 0.36969,0.05105 0.47173,0.165626 0.0761,0.07636 0.11479,0.17839 0.10203,0.305948 h -1.21133 c 0.0638,-0.280421 0.31886,-0.471576 0.63757,-0.471576 m 0.70132,-1.670066 v -0.08926 l -0.72684,-0.267437 -0.42075,0.879631 v 0.08912 h 0.65034 l 0.49725,-0.612044 z m 4.29693,3.403873 c -0.10188,0.01276 -0.1654,-0.01276 -0.20391,-0.03829 -0.0511,-0.05113 -0.0511,-0.140322 -0.0511,-0.267659 v -3.467681 h -0.85433 v 1.568033 c -0.21705,-0.102032 -0.43388,-0.152938 -0.65056,-0.152938 -0.7776,0 -1.37718,0.637424 -1.37718,1.491675 0,0.407834 0.1148,0.777599 0.33163,1.05802 0.22959,0.306097 0.5736,0.459182 0.96904,0.459182 h 0.0257 c 0.36947,0 0.67557,-0.191301 0.84149,-0.497249 v 0.01313 c 0.0128,0.305948 0.20406,0.471502 0.57383,0.471502 0.11479,0 0.24235,-0.01276 0.38223,-0.05105 h 0.0128 v -0.573681 l 3e-4,-0.01299 z m -1.09668,-1.491675 v 0.726693 c 0,0.357002 -0.24243,0.637573 -0.5736,0.637573 -0.38246,0 -0.61205,-0.280571 -0.61205,-0.752219 0,-0.459182 0.26766,-0.752219 0.67564,-0.752219 0.17861,-0.01269 0.34424,0.03829 0.51001,0.140174 m 3.13674,-0.917845 h -0.0128 c -0.72684,0 -1.51727,0.484339 -1.51727,1.51698 0,1.03264 0.79043,1.516904 1.53004,1.516904 0.726837,0 1.51727,-0.471501 1.51727,-1.516904 0,-1.045404 -0.790435,-1.51698 -1.51727,-1.51698 m 0.675635,1.517129 c 0,0.229444 -0.07637,0.433359 -0.203915,0.573533 -0.12756,0.127708 -0.28057,0.191302 -0.45918,0.191302 h -0.0128 c -0.31886,0 -0.6631,-0.24265 -0.6631,-0.765279 0,-0.522778 0.357,-0.752293 0.67556,-0.752293 0.31857,0 0.663397,0.230036 0.663397,0.752739 m 3.315198,-1.491602 c -0.318713,0 -0.714077,0.101883 -0.892469,0.40798 -0.02553,-0.255192 -0.22959,-0.382454 -0.612044,-0.382454 -0.127411,0 -0.267437,0.01276 -0.446271,0.03814 h -0.01276 v 0.548526 h 0.01276 c 0.255117,0 0.255117,0.07651 0.255117,0.357149 v 1.988926 h 0.854326 v -1.644687 c 0,-0.395069 0.293184,-0.611748 0.586296,-0.611748 0.153085,0 0.280422,0.05105 0.382454,0.152938 0.102032,0.102032 0.153085,0.255117 0.140546,0.433655 v 1.670289 h 0.867014 v -1.671029 c 0.01262,-0.828725 -0.408279,-1.287685 -1.134971,-1.287685 m 1.963547,0.101883 h 0.854401 v 2.843028 h -0.854401 v -2.843026 z m 0.446419,-1.33844 h -0.01276 c -0.242354,0 -0.497249,0.152937 -0.497249,0.484338 0,0.344239 0.267659,0.497102 0.510013,0.497102 h 0.01299 c 0.229443,0 0.484264,-0.165626 0.484264,-0.497102 -0.01291,-0.318713 -0.255117,-0.471723 -0.497249,-0.484338 m 3.710342,1.670066 c -0.229444,-0.280571 -0.59906,-0.433509 -1.083696,-0.433509 -0.739605,0 -1.491824,0.459035 -1.517203,1.478912 0,0.459109 0.153085,0.854104 0.446419,1.134675 0.292962,0.267658 0.688477,0.40798 1.160498,0.40798 h 0.03829 c 0.36969,0 0.765206,-0.08927 1.109146,-0.25497 h 0.01276 l -0.101884,-0.63772 -0.01276,0.01291 c -0.178538,0.07636 -0.420892,0.140175 -0.67564,0.165479 -0.05105,0.01276 -0.114796,0.01276 -0.19108,0.01276 h -0.191301 c -0.318714,-0.02538 -0.701314,-0.153085 -0.739456,-0.611897 h 1.937799 v -0.01276 c 0.126743,-0.535316 0.05024,-0.968675 -0.191895,-1.261861 m -1.083842,0.21668 c 0.203915,0 0.369468,0.05105 0.471501,0.165626 0.07651,0.07636 0.115017,0.178389 0.102032,0.305947 h -1.211254 c 0.06382,-0.280421 0.306097,-0.471575 0.637721,-0.471575"
         style="fill:#341f14;fill-opacity:1;fill-rule:nonzero;stroke:none;stroke-width:0.07420534"
         id="path8782"
         inkscape:connector-curvature="0" />
      <path
         d="m -108.86778,-53.245848 c -4.28491,0 -7.77093,-3.4855 -7.77093,-7.769819 0,-4.284319 3.48602,-7.769966 7.77093,-7.769966 4.28477,0 7.77079,3.485647 7.77079,7.769966 0,4.284319 -3.48595,7.769819 -7.77079,7.769819 z"
         style="fill:url(#linearGradient8792);fill-opacity:1;fill-rule:nonzero;stroke:none;stroke-width:0.07420534"
         id="path8794"
         inkscape:connector-curvature="0" />
      <path
         d="m -105.73127,-58.669961 c -2.49908,1.440622 -3.71041,1.402332 -6.29869,-0.01276 0,0.191302 0,0.382456 0.0765,0.522777 0.82865,0.662951 1.82315,1.364116 3.17488,1.606174 1.3259,-0.267437 1.5428,-0.586 2.49909,-1.15983 0.29326,-0.267955 0.714,-0.510087 0.54822,-0.956359 m -4.73044,1.823077 c -0.61204,0.892468 -1.31573,1.896095 -1.26483,3.056296 1.5555,0.714077 3.92977,0.679202 5.57468,0.02909 0.0255,-1.160202 -0.49725,-2.218368 -1.18573,-3.085089 -0.89276,0.573534 -2.24427,0.573534 -3.12412,-2.97e-4 m -1.03279,-5.099539 c -0.16555,0.153086 -0.21675,0.471723 -0.0893,0.688402 0.66325,-0.140174 1.53004,-0.395218 2.28241,-0.318712 -0.0891,1.160201 -1.56833,1.019878 -2.28241,1.440623 0.49725,0.586519 1.4154,0.07651 2.07835,0.242355 -0.3058,0.548154 -0.63743,1.058019 -0.77767,1.695592 0.67578,0.586371 1.26238,0.510014 1.40262,0.510014 0.15294,0 0.84142,0.03829 1.35143,-0.459035 -0.11479,-0.637571 -0.35715,-1.223943 -0.72684,-1.746571 0.71408,-0.216828 1.67036,0.395218 2.10394,-0.242355 -0.35707,-0.191153 -0.77759,-0.191153 -1.13467,-0.331475 -0.63765,-0.07651 -0.75244,-0.701167 -1.0837,-1.109148 0.82888,-0.191153 1.58124,0.229443 2.26965,0.305949 0.0511,-1.657302 -1.86167,-0.305949 -2.6012,-1.185727 0.87963,-0.05105 1.74672,-0.420745 2.6012,-0.114796 -0.0256,-0.165404 0.0893,-0.420596 -0.0893,-0.522628 -0.85425,-0.216828 -1.6064,0.153085 -2.47356,-0.127558 0.54845,-0.688404 1.44077,-0.07651 2.24397,-0.267659 0.33162,-0.02553 0.38238,-0.484338 0.33162,-0.764983 -0.62481,0.637423 -1.74687,-0.127559 -2.54992,0.152937 0.0511,-0.07636 0.0511,-0.165477 0.11465,-0.242205 0.57361,-0.726693 2.53716,0.08927 2.51215,-1.236706 0,-0.08912 -0.0129,-0.191154 -0.0384,-0.293186 -0.16563,-0.80305 -0.1148,-0.62466 -0.36955,-1.300301 -0.38245,-0.917845 -1.79792,-1.211179 -2.02729,-1.746571 -0.14032,-1.491675 -0.20406,-2.294799 -0.19122,-4.538547 h -0.21668 c 0.0384,1.59356 -0.16578,3.008656 -0.24236,4.513021 -0.22959,0.53554 -1.6576,0.803198 -2.02729,1.733807 -0.25512,0.688403 -0.21683,0.497101 -0.36969,1.300301 -0.0255,0.127558 -0.0383,0.22959 -0.0383,0.331474 0,1.274997 1.92526,0.484488 2.49909,1.21118 l 0.0511,0.25497 c -0.77767,-0.331474 -1.70843,0.382455 -2.42251,-0.280422 -0.14032,0.165626 -0.21682,0.357002 -0.1657,0.561067 0.56122,0.713929 2.15485,-0.34424 2.55,0.599134 -0.67564,0.165774 -1.53004,-0.03829 -2.33324,0.01276 -0.14032,0.03829 -0.24236,0.08927 -0.26766,0.216828 -0.0128,0.165626 0.0256,0.280423 0.10203,0.420596 0.85425,-0.305949 1.69589,0.07651 2.55007,0.114795 -0.58778,0.688552 -1.79896,0.102033 -2.5258,0.522777"
         style="fill:#341f14;fill-opacity:1;fill-rule:nonzero;stroke:none;stroke-width:0.07420534"
         id="path8796"
         inkscape:connector-curvature="0" />
    </g>
  </g>
</svg>
