<?xml version="1.0" encoding="utf-8"?>
<!-- Generator: Adobe Illustrator 27.1.1, SVG Export Plug-In . SVG Version: 6.00 Build 0)  -->
<svg version="1.1" id="Layer_1" xmlns="http://www.w3.org/2000/svg" xmlns:xlink="http://www.w3.org/1999/xlink" x="0px" y="0px"
	 viewBox="0 0 264.9 82.4" style="enable-background:new 0 0 264.9 82.4;" xml:space="preserve">
<style type="text/css">
	.st0{fill:#172B54;}
	.st1{fill:#00B3F0;}
</style>
<g>
	<g>
		<path class="st0" d="M175.6,56.2h6.5V35.3h-6.5V56.2z M164.8,34.9c-1.7,0-3.2,0.1-4.5,0.4c-0.5,0.1-0.9,0.2-1.3,0.3l-2.2,4.6
			l0.1,0.1l0.3-0.2c0.7-0.4,1.6-0.7,2.6-1c1-0.3,2.1-0.4,3.4-0.4c1.1,0,2,0.2,2.7,0.7c0.6,0.4,0.9,0.9,0.9,1.6v1.5
			c-0.4-0.2-0.8-0.4-1.4-0.6c-0.8-0.2-1.7-0.4-2.5-0.4c-2.8,0-5,0.6-6.7,1.9c-1.7,1.3-2.6,3.1-2.6,5.5v0.4c0,2.4,0.6,4.2,1.9,5.3
			c1.3,1.2,3.1,1.8,5.6,1.8c1,0,1.9-0.1,2.8-0.4l1.9-4.3l-0.1-0.1c-0.6,0.4-1.3,0.7-2.1,0.7c-1,0-1.8-0.2-2.5-0.6
			c-0.6-0.4-0.9-1.2-0.9-2.5v-0.6c0-1.2,0.3-2.1,0.9-2.7c0.6-0.5,1.4-0.8,2.4-0.8c1.1,0,1.9,0.3,2.5,0.9c0.5,0.6,0.8,1.5,0.8,2.6
			l0,7.7h6.3V42.7c0-2.7-0.7-4.7-2.1-5.9C169.7,35.5,167.6,34.9,164.8,34.9z M154.7,40.6l2.1-4.5l0,0c-0.9-0.8-2.1-1.1-3.6-1.1
			c-1.3,0-2.4,0.3-3.3,1l-0.1,0.1c-0.6,0.5-1.2,1.1-1.6,1.8c0-1-0.1-2.4-0.1-2.4h-6.3v20.9h6.5V43.1c0-1.3,0.7-2.4,1.8-3.1
			c0,0,0.1,0,0.1,0c0.6-0.3,1.2-0.5,1.9-0.5l0.1,0c0.8,0,1.6,0.3,2.3,0.8L154.7,40.6z M134.3,28.6H134h-2c0,0-3.8,6.5-3.9,6.8
			c-0.3,0-2.8,0.1-2.8,0.1V39h2.5v10.2c0,2.3,0.6,4.1,1.8,5.4c1.2,1.3,2.8,1.9,4.8,1.9c0.9,0,1.8-0.1,2.8-0.2
			c0.9-0.1,1.7-0.3,2.4-0.6l0.2-0.1v-3.8l-0.4,0.1c-0.4,0.1-0.8,0.2-1.2,0.3c-0.4,0.1-0.9,0.1-1.4,0.1c-1,0-1.6-0.2-1.9-0.6
			c-0.3-0.4-0.5-1.2-0.5-2.2V39h5.6v-3.7h-5.6V28.6z M249.9,39v-3.7h-5.6v-6.8H244h-2c0,0-3.8,6.5-3.9,6.8c-0.4,0-2.8,0.1-2.8,0.1
			V39h2.5v10.2c0,2.3,0.6,4.1,1.8,5.4c1.2,1.3,2.8,1.9,4.8,1.9c0.9,0,1.8-0.1,2.7-0.2c0.9-0.1,1.7-0.3,2.4-0.6l0.2-0.1v-3.8
			l-0.4,0.1c-0.4,0.1-0.8,0.2-1.2,0.3c-0.4,0.1-0.9,0.1-1.4,0.1c-0.9,0-1.6-0.2-1.9-0.6c-0.3-0.4-0.5-1.2-0.5-2.2V39H249.9z
			 M189.1,34.9c-1.5,0-2.8,0.3-3.9,0.7l-2.3,4.9l0.1,0.1c0.2-0.2,0.5-0.3,0.7-0.4c0.7-0.3,1.5-0.4,2.3-0.4c0.6,0,1.1,0.2,1.5,0.5
			c0.4,0.3,0.6,1,0.6,1.9v14h6.5V41.7c0-2.5-0.5-4.3-1.5-5.3C192.2,35.4,190.8,34.9,189.1,34.9z M225.5,34.9c-1.7,0-3.2,0.1-4.5,0.4
			c-0.4,0.1-0.9,0.2-1.3,0.3l-2.2,4.6l0.1,0.1l0.3-0.2c0.7-0.4,1.6-0.7,2.6-1c1-0.3,2.1-0.4,3.4-0.4c1.2,0,2.1,0.2,2.7,0.7
			c0.6,0.4,0.9,0.9,0.9,1.6v1.5c-0.4-0.2-0.8-0.4-1.4-0.6c-0.8-0.2-1.7-0.4-2.5-0.4c-2.8,0-5,0.6-6.7,1.9c-1.7,1.3-2.5,3.1-2.5,5.5
			v0.4c0,2.4,0.6,4.2,1.9,5.3c1.3,1.2,3.1,1.8,5.6,1.8c1,0,1.9-0.1,2.8-0.4l1.9-4.3l-0.1-0.1c-0.6,0.4-1.3,0.7-2.1,0.7
			c-1,0-1.8-0.2-2.5-0.6c-0.6-0.4-0.9-1.2-0.9-2.5v-0.6c0-1.2,0.3-2.1,0.9-2.7c0.6-0.5,1.4-0.8,2.4-0.8c1.1,0,1.9,0.3,2.5,0.9
			c0.5,0.6,0.8,1.5,0.8,2.6l0,7.7h6.3V42.7c0-2.7-0.7-4.7-2.1-5.9C230.5,35.5,228.4,34.9,225.5,34.9z M206.4,42.8
			c-1.8-0.5-2.9-0.9-3.4-1.2c-0.4-0.2-0.6-0.6-0.6-1.2c0-0.5,0.3-0.9,0.8-1.2c0.6-0.3,1.5-0.5,2.5-0.5c0.9,0,1.9,0.1,2.9,0.3
			c0.4,0.1,0.8,0.2,1.2,0.3l1.5-3.3l-0.2-0.1c-0.8-0.4-1.6-0.6-2.5-0.8c-0.9-0.2-2-0.3-3.2-0.3c-2.8,0-4.8,0.6-6.1,1.8
			c-1.3,1.2-2,2.6-2,4.3c0,1.7,0.4,3,1.1,4.1c0.7,1.1,2.1,1.9,4.1,2.5c2.5,0.7,3.4,1.2,3.7,1.5c0.4,0.4,0.7,0.9,0.7,1.5
			c0,0.6-0.3,1.1-1,1.5c-0.7,0.4-1.8,0.6-3.1,0.6c-1.1,0-2.1-0.2-3.2-0.5c-1-0.3-1.8-0.6-2.4-0.9l-0.3-0.2l-0.1,0.1h0v4.1l0.1,0.1
			c0.5,0.3,1.4,0.6,2.5,0.8c1.1,0.2,2.4,0.3,3.8,0.3c3.3,0,5.8-0.7,7.3-2c1.5-1.3,2.2-3,2.2-4.9c0-1.7-0.5-3.1-1.4-4.2
			C210.4,44.3,208.8,43.4,206.4,42.8z"/>
	</g>
</g>
<g>
	<g>
		<path class="st0" d="M93.6,56.2h6.1v-21h-6.1V56.2z M72.9,26.2l-11.7,30h6.6l2.4-5.9h11.6l2.4,5.9h6.6l-11.7-30H72.9z M72.2,44.7
			l3.7-9.8l3.7,9.8H72.2z M115.7,35c-2.1,0-4.1,0.8-5.2,2.2v-1.9h-6v21h6.1v-8.8c0-4.4,2.4-6.6,5.8-6.6h0.9V35
			C116.7,35,116.4,35,115.7,35z M96.6,25.8c-2,0-3.5,1.6-3.5,3.6c0,1.9,1.5,3.5,3.5,3.5c2,0,3.6-1.6,3.6-3.5
			C100.2,27.3,98.6,25.8,96.6,25.8z"/>
	</g>
</g>
<path class="st1" d="M22.7,53.3c2-4.9,5.9-11.6,8.3-14.8c-3.3-2.7-9.5-5.6-9.5-5.6s4.9-2.1,14.7-2.6c0,0,4.1-7.9,14.6-15.3
	c-6.4,2-12.4,7.5-18.5,13.4c-7.8,0.4-16.3,3.5-17.2,4c9,4.7,11.2,6.8,11.2,6.8S23.3,47.8,22.7,53.3z"/>
<path class="st1" d="M62.5,33.3c-7.7-3.1-17.1-3.9-17.1-3.9s-0.2-2.4,0.5-7.1c-0.9,1.9-2.5,6.1-2.8,9.2c6.9,0.5,11.6,2.1,11.6,2.1
	s-7,2.6-10.9,5.7C44.5,41,46.1,46,47,49.9c-1.5-1.4-6-5.1-9.3-7.1c-4.4,1.7-16.4,13.6-23.1,24.6c2.9-3,11.5-12.7,23.1-19.7
	c2.4,1.4,13.4,8.6,13.4,8.6s-2.4-12.8-3.3-15.8C51.2,38.2,57,35,62.5,33.3z"/>
</svg>
