<?xml version="1.0" encoding="UTF-8" standalone="no"?>
<!-- Created with Inkscape (http://www.inkscape.org/) -->

<svg
   xmlns:dc="http://purl.org/dc/elements/1.1/"
   xmlns:cc="http://creativecommons.org/ns#"
   xmlns:rdf="http://www.w3.org/1999/02/22-rdf-syntax-ns#"
   xmlns:svg="http://www.w3.org/2000/svg"
   xmlns="http://www.w3.org/2000/svg"
   xmlns:sodipodi="http://sodipodi.sourceforge.net/DTD/sodipodi-0.dtd"
   xmlns:inkscape="http://www.inkscape.org/namespaces/inkscape"
   width="254.1017"
   height="37.602009"
   viewBox="0 0 67.231075 9.9488646"
   version="1.1"
   id="svg16453"
   inkscape:version="0.92.0 r15299"
   sodipodi:docname="smartwings.svg">
  <defs
     id="defs16447">
    <clipPath
       id="clipPath15141"
       clipPathUnits="userSpaceOnUse">
      <path
         inkscape:connector-curvature="0"
         id="path15139"
         d="M 0,0 H 595.276 V 841.89 H 0 Z" />
    </clipPath>
    <clipPath
       id="clipPath15125"
       clipPathUnits="userSpaceOnUse">
      <path
         inkscape:connector-curvature="0"
         id="path15123"
         d="M 0,0 H 595.276 V 841.89 H 0 Z" />
    </clipPath>
    <clipPath
       id="clipPath15093"
       clipPathUnits="userSpaceOnUse">
      <path
         inkscape:connector-curvature="0"
         id="path15091"
         d="M 0,0 H 595.276 V 841.89 H 0 Z" />
    </clipPath>
  </defs>
  <sodipodi:namedview
     id="base"
     pagecolor="#ffffff"
     bordercolor="#666666"
     borderopacity="1.0"
     inkscape:pageopacity="0.0"
     inkscape:pageshadow="2"
     inkscape:zoom="3.5440297"
     inkscape:cx="126.55086"
     inkscape:cy="18.301005"
     inkscape:document-units="mm"
     inkscape:current-layer="layer1"
     showgrid="false"
     fit-margin-top="0"
     fit-margin-left="0"
     fit-margin-right="0"
     fit-margin-bottom="0"
     units="px"
     inkscape:window-width="1280"
     inkscape:window-height="744"
     inkscape:window-x="-4"
     inkscape:window-y="-4"
     inkscape:window-maximized="1" />
  <metadata
     id="metadata16450">
    <rdf:RDF>
      <cc:Work
         rdf:about="">
        <dc:format>image/svg+xml</dc:format>
        <dc:type
           rdf:resource="http://purl.org/dc/dcmitype/StillImage" />
        <dc:title></dc:title>
      </cc:Work>
    </rdf:RDF>
  </metadata>
  <g
     inkscape:label="Layer 1"
     inkscape:groupmode="layer"
     id="layer1"
     transform="translate(-88.980978,-237.46471)">
    <g
       id="g16630"
       transform="translate(0.13228977,-0.13228763)">
      <path
         d="m 148.52101,238.53164 c 0.47801,-0.066 1.6951,-0.23707 2.12372,-0.33267 0.43004,-0.096 2.80776,-0.44556 4.0386,-0.46637 1.23014,-0.0215 1.15676,0.0603 1.19345,0.2861 0.037,0.22507 0.14393,0.30445 -0.01,0.51717 -0.15416,0.21343 -0.41768,0.30374 -0.78563,0.45614 -0.68051,0.28011 -3.68547,1.07174 -4.09046,1.27389 0.62124,-0.0303 1.52788,-0.2032 2.42429,-0.2286 0.59655,-0.0176 0.68121,0.115 0.73025,0.37923 0.0487,0.26529 0.0832,0.40746 -0.32138,0.57115 -0.40323,0.16404 -0.88159,0.33478 -1.83445,0.61066 -1.31198,0.38029 -2.11137,0.57079 -3.11291,0.98813 0.55034,0.0501 1.44533,-0.0296 2.16218,0.001 1.07562,0.0459 1.13559,0.16333 1.16205,0.48118 0.0254,0.31821 0.0501,0.41099 -0.39123,0.61243 -0.44133,0.20179 -1.24037,0.40604 -1.69334,0.50165 -0.45402,0.0959 -2.14065,0.4572 -2.46838,0.54363 -0.28646,0.0748 -0.53728,0.4131 -0.9906,0.56726 -0.50447,0.17145 -0.7239,0.10337 -0.88547,-0.25929 -0.11783,-0.26388 0.21237,-0.50588 0.63041,-0.62794 0.41698,-0.12171 1.64606,-0.39547 2.17064,-0.53093 0.52529,-0.13688 1.5681,-0.42545 1.91911,-0.56233 -0.46249,0.004 -1.61819,0.0229 -2.4772,0.0413 -0.51506,0.01 -0.71085,-0.0148 -0.79622,-0.39899 -0.0861,-0.38311 0.0804,-0.51752 0.54539,-0.66639 0.46496,-0.14888 1.16523,-0.4692 1.61819,-0.61807 0.45332,-0.14958 1.70815,-0.5969 2.06693,-0.67945 -0.84843,-0.0201 -2.77495,0.40534 -3.27131,0.51259 -0.38206,0.0822 -0.43109,-0.0519 -0.57714,-0.31962 -0.14676,-0.26635 0.0409,-0.44485 0.27446,-0.50024 0.28575,-0.0684 0.86254,-0.34925 1.645,-0.66075 0.63359,-0.25259 1.53176,-0.51894 2.19392,-0.74366 0.6283,-0.21413 1.69404,-0.57538 2.03483,-0.71896 -0.27482,-0.002 -1.536,0.1845 -2.36009,0.29633 -0.82303,0.11183 -2.23449,0.40041 -2.44827,0.48119 -0.21485,0.0811 -0.46285,0.0519 -0.60855,-0.27481 -0.14322,-0.32385 -0.0148,-0.50483 0.18874,-0.53199"
         style="fill:#f28e00;fill-opacity:1;fill-rule:nonzero;stroke:none;stroke-width:0.35277778"
         id="path15097"
         inkscape:connector-curvature="0" />
      <path
         d="m 88.980978,244.80707 1.143353,-1.36772 c 0.203553,0.22084 0.411691,0.39229 0.627239,0.51365 0.215194,0.121 0.415572,0.18203 0.601839,0.18203 0.07796,0 0.144638,-0.018 0.202494,-0.0533 0.0568,-0.0367 0.09031,-0.0829 0.100542,-0.13935 0.01623,-0.0871 -0.08043,-0.18556 -0.291395,-0.29563 l -0.02716,-0.0138 -0.347486,-0.1838 c -0.271991,-0.14711 -0.461786,-0.3175 -0.56903,-0.51047 -0.10795,-0.19297 -0.137936,-0.4184 -0.09031,-0.67557 0.08784,-0.47801 0.361244,-0.86995 0.81915,-1.17793 0.457199,-0.30621 1.002594,-0.45931 1.63583,-0.45896 0.333022,0 0.651933,0.0462 0.959556,0.13688 0.309386,0.0917 0.61595,0.23283 0.921455,0.42439 l -1.032933,1.24813 c -0.142875,-0.14711 -0.285045,-0.2607 -0.426861,-0.33867 -0.141817,-0.0797 -0.279048,-0.11959 -0.411692,-0.11959 -0.08184,0 -0.152047,0.0201 -0.210608,0.0579 -0.05891,0.0402 -0.09419,0.0875 -0.104423,0.14428 -0.0134,0.072 0.06879,0.14852 0.245534,0.22825 0.05009,0.0243 0.08996,0.0434 0.116064,0.0554 l 0.279047,0.12842 c 0.28575,0.12876 0.483305,0.2928 0.593019,0.49212 0.109714,0.19897 0.137231,0.44732 0.08255,0.74295 -0.09772,0.52987 -0.383822,0.95603 -0.859366,1.27882 -0.475192,0.32314 -1.055511,0.48401 -1.742017,0.48401 -0.362655,-3.5e-4 -0.729897,-0.0649 -1.09855,-0.19544 -0.370064,-0.12982 -0.741539,-0.32632 -1.115836,-0.58702"
         style="fill:#004289;fill-opacity:1;fill-rule:nonzero;stroke:none;stroke-width:0.35277778"
         id="path15101"
         inkscape:connector-curvature="0" />
      <path
         d="m 93.469934,245.41522 1.795992,-4.63938 2.230261,3.5e-4 -0.26917,0.66816 c 0.344664,-0.28328 0.666045,-0.49177 0.962731,-0.62159 0.296686,-0.13018 0.59443,-0.19438 0.893939,-0.19438 0.307622,0 0.554919,0.0751 0.739775,0.22719 0.184858,0.15134 0.310088,0.38276 0.376418,0.69391 0.29068,-0.30656 0.60536,-0.53446 0.94473,-0.68933 0.34114,-0.15451 0.69815,-0.23107 1.0721,-0.23107 0.45402,3.6e-4 0.79516,0.12771 1.02235,0.38347 0.22718,0.25577 0.30233,0.59761 0.22401,1.022 -0.0208,0.11324 -0.0529,0.24165 -0.096,0.38594 -0.0416,0.14393 -0.0952,0.30057 -0.1598,0.47166 l -0.97614,2.52589 -2.392892,-7e-4 0.925332,-2.32481 c 0.0275,-0.0677 0.054,-0.13935 0.0759,-0.21449 0.0226,-0.0755 0.0399,-0.15346 0.055,-0.23495 0.0162,-0.0885 0.004,-0.1591 -0.0346,-0.20955 -0.0388,-0.0508 -0.10195,-0.0769 -0.1905,-0.0769 -0.16616,0 -0.30868,0.0702 -0.43144,0.21166 -0.1203,0.139 -0.255063,0.40252 -0.401466,0.78881 l -0.788458,2.05987 -2.406297,-7e-4 0.930275,-2.32481 c 0.0314,-0.0797 0.05715,-0.15487 0.07796,-0.22401 0.02117,-0.0688 0.03598,-0.13159 0.04621,-0.18803 0.01905,-0.10442 0.0092,-0.18556 -0.03034,-0.24095 -0.03986,-0.055 -0.106539,-0.0825 -0.197556,-0.0825 -0.164747,-3.5e-4 -0.309033,0.0702 -0.430036,0.21132 -0.122061,0.13899 -0.255411,0.40251 -0.401461,0.78881 l -0.788458,2.05987 z"
         style="fill:#004289;fill-opacity:1;fill-rule:nonzero;stroke:none;stroke-width:0.35277778"
         id="path15105"
         inkscape:connector-curvature="0" />
      <path
         d="m 106.44778,242.5151 c -0.19121,0 -0.36019,0.0688 -0.51047,0.20814 -0.14887,0.13935 -0.24342,0.31856 -0.28363,0.53587 -0.031,0.16863 -0.01,0.29739 0.0639,0.38629 0.0713,0.0903 0.19085,0.13476 0.35736,0.13476 0.20638,3.5e-4 0.38806,-0.0653 0.54258,-0.19897 0.15416,-0.13299 0.25047,-0.3048 0.28927,-0.51435 0.0314,-0.17039 0.006,-0.30515 -0.079,-0.40287 -0.0829,-0.0998 -0.21025,-0.14852 -0.37994,-0.14887 m 1.33914,-1.73531 2.31317,7e-4 -1.78894,4.63973 -2.23696,-7e-4 0.29457,-0.62336 c -0.25859,0.26494 -0.52635,0.4639 -0.79799,0.59408 -0.27375,0.13017 -0.56162,0.19438 -0.86748,0.19438 -0.53904,-3.5e-4 -0.94756,-0.19191 -1.2266,-0.57503 -0.27835,-0.38312 -0.36195,-0.87806 -0.24977,-1.48625 0.0642,-0.3489 0.18909,-0.69356 0.37324,-1.03329 0.1838,-0.33866 0.41345,-0.64664 0.68862,-0.92251 0.30621,-0.30762 0.63006,-0.54046 0.96908,-0.69991 0.34008,-0.15734 0.68721,-0.23707 1.03964,-0.23707 0.31926,3.5e-4 0.58314,0.0677 0.79304,0.2025 0.20779,0.13511 0.36936,0.34007 0.48507,0.61453 z"
         style="fill:#004289;fill-opacity:1;fill-rule:nonzero;stroke:none;stroke-width:0.35277778"
         id="path15109"
         inkscape:connector-curvature="0" />
      <path
         d="m 108.72976,245.42034 1.79564,-4.63973 2.1724,0.001 -0.28645,0.63217 c 0.21978,-0.26317 0.45543,-0.45896 0.70697,-0.58772 0.25011,-0.12877 0.52281,-0.19297 0.81421,-0.19297 0.0713,3.5e-4 0.15345,0.006 0.24271,0.0187 0.0907,0.0123 0.19896,0.0293 0.3242,0.0536 l -0.72813,1.89476 c -0.15664,-0.0522 -0.29951,-0.0903 -0.42722,-0.11818 -0.12841,-0.0261 -0.24553,-0.0399 -0.35348,-0.0399 -0.27623,0 -0.49424,0.0642 -0.65476,0.19438 -0.16016,0.13018 -0.30585,0.36901 -0.43815,0.71685 l -0.78987,2.06763 z"
         style="fill:#004289;fill-opacity:1;fill-rule:nonzero;stroke:none;stroke-width:0.35277778"
         id="path15113"
         inkscape:connector-curvature="0" />
      <path
         d="m 114.20113,242.45197 -1.13736,2.97004 2.3682,7e-4 1.1423,-2.97003 0.73025,3.5e-4 0.6484,-1.6697 h -0.7299 l 0.49636,-1.29752 -2.37313,-7e-4 -0.49671,1.29752 z"
         style="fill:#004289;fill-opacity:1;fill-rule:nonzero;stroke:none;stroke-width:0.35277778"
         id="path15117"
         inkscape:connector-curvature="0" />
      <path
         d="m 118.07745,245.42355 -0.002,-4.64009 2.26483,7.1e-4 -0.061,1.01882 c -0.004,0.13159 -0.0155,0.2727 -0.0325,0.42087 -0.0198,0.15028 -0.0508,0.37253 -0.0949,0.66957 l 1.4358,-2.10891 1.55505,3.6e-4 -0.0653,1.16734 c -0.012,0.15487 -0.0258,0.2928 -0.0392,0.41028 -0.0131,0.11818 -0.0289,0.23001 -0.048,0.33443 -0.0134,0.072 -0.025,0.12524 -0.0332,0.16051 -0.008,0.0367 -0.0155,0.0674 -0.024,0.0952 l 1.48519,-2.16746 2.42641,7e-4 -3.52884,4.63903 -1.94416,-3.5e-4 0.20532,-2.30717 c -0.13617,0.26035 -0.34431,0.58702 -0.62442,0.97896 -0.0381,0.0533 -0.0688,0.0949 -0.091,0.12559 l -0.85866,1.20227 z"
         style="fill:#004289;fill-opacity:1;fill-rule:nonzero;stroke:none;stroke-width:0.35277778"
         id="path15129"
         inkscape:connector-curvature="0" />
      <path
         d="m 125.21285,245.42584 1.77941,-4.63973 2.37808,7e-4 -1.78577,4.63974 z"
         style="fill:#004289;fill-opacity:1;fill-rule:nonzero;stroke:none;stroke-width:0.35277778"
         id="path15133"
         inkscape:connector-curvature="0" />
      <path
         d="m 128.07966,245.42697 1.79564,-4.63973 2.23202,7e-4 -0.26917,0.66781 c 0.34079,-0.27093 0.6731,-0.47625 0.99096,-0.61207 0.31926,-0.13652 0.62971,-0.2039 0.93204,-0.20355 0.43603,0 0.76164,0.12735 0.97931,0.37994 0.21766,0.25294 0.28927,0.58879 0.21237,1.00648 -0.0219,0.11959 -0.0547,0.25294 -0.0984,0.39969 -0.042,0.14711 -0.0963,0.30516 -0.16086,0.47661 l -0.96591,2.52588 -2.39324,-7e-4 0.89888,-2.33468 c 0.0296,-0.0794 0.0572,-0.15734 0.0797,-0.23284 0.0219,-0.0748 0.0388,-0.14816 0.0519,-0.21907 0.0155,-0.084 0,-0.15276 -0.0455,-0.20497 -0.0452,-0.0519 -0.11183,-0.0783 -0.20002,-0.0783 -0.17463,0 -0.32985,0.0751 -0.46214,0.2233 -0.13406,0.15029 -0.26988,0.40923 -0.40887,0.77682 l -0.79058,2.0694 z"
         style="fill:#004289;fill-opacity:1;fill-rule:nonzero;stroke:none;stroke-width:0.35277778"
         id="path15145"
         inkscape:connector-curvature="0" />
      <path
         d="m 138.14606,242.47362 c -0.19473,0 -0.36689,0.0674 -0.51647,0.20355 -0.14993,0.13653 -0.24518,0.30904 -0.28328,0.51753 -0.0303,0.16545 -0.009,0.2928 0.0642,0.3817 0.072,0.0903 0.19156,0.13476 0.3563,0.13476 0.20779,3.6e-4 0.39088,-0.0642 0.54787,-0.19402 0.15734,-0.13053 0.2547,-0.29916 0.2928,-0.50589 0.0296,-0.16086 0.002,-0.29104 -0.0815,-0.38876 -0.0843,-0.0998 -0.21025,-0.14887 -0.37994,-0.14887 m 1.30951,-1.6831 2.31352,7e-4 -1.63019,4.19982 c -0.30938,0.79516 -0.77293,1.39877 -1.391,1.80905 -0.61771,0.40887 -1.36701,0.61383 -2.24684,0.61348 -0.39053,0 -0.76835,-0.0444 -1.13312,-0.13229 -0.36654,-0.0885 -0.73378,-0.22367 -1.10737,-0.40746 l 1.04528,-1.3328 c 0.19649,0.13512 0.39087,0.2346 0.58525,0.29881 0.19439,0.0649 0.40499,0.097 0.6276,0.097 0.30585,3.5e-4 0.5789,-0.0825 0.82091,-0.24977 0.24165,-0.16545 0.43709,-0.40428 0.58561,-0.71508 l 0.19438,-0.39476 c -0.26141,0.254 -0.53305,0.44697 -0.81315,0.5768 -0.28011,0.13017 -0.56833,0.19473 -0.86395,0.19473 -0.56586,-3.5e-4 -0.98813,-0.17075 -1.26789,-0.51223 -0.27975,-0.34185 -0.36865,-0.78917 -0.26599,-1.34691 0.0603,-0.32738 0.18309,-0.66005 0.36618,-0.99413 0.18239,-0.33231 0.40958,-0.635 0.68122,-0.9084 0.30197,-0.30445 0.62441,-0.53587 0.96237,-0.6918 0.33973,-0.15769 0.68863,-0.23565 1.04634,-0.23565 0.3175,0 0.58138,0.066 0.79164,0.19967 0.20813,0.133 0.37041,0.3369 0.48612,0.6096 z"
         style="fill:#004289;fill-opacity:1;fill-rule:nonzero;stroke:none;stroke-width:0.35277778"
         id="path15149"
         inkscape:connector-curvature="0" />
      <path
         d="m 140.44349,244.82428 1.14335,-1.36772 c 0.20391,0.22119 0.41205,0.39229 0.62759,0.51365 0.2152,0.121 0.41522,0.18238 0.60149,0.18238 0.0783,0 0.14499,-0.0183 0.20285,-0.0533 0.0564,-0.037 0.09,-0.0829 0.10054,-0.1397 0.0159,-0.0871 -0.0804,-0.18556 -0.2914,-0.29563 l -0.0275,-0.0138 -0.34714,-0.1838 c -0.27199,-0.14711 -0.46178,-0.3175 -0.56938,-0.51047 -0.1076,-0.19297 -0.13758,-0.4184 -0.0903,-0.67557 0.0882,-0.47801 0.3616,-0.86995 0.81915,-1.17793 0.4572,-0.30621 1.00295,-0.45931 1.63654,-0.45896 0.33231,0 0.65158,0.0462 0.9592,0.13688 0.30868,0.0921 0.6156,0.23283 0.9211,0.42439 l -1.03293,1.24813 c -0.14252,-0.14711 -0.28469,-0.2607 -0.42686,-0.33832 -0.14147,-0.0801 -0.2787,-0.11994 -0.41205,-0.11994 -0.0815,0 -0.15134,0.0201 -0.2099,0.0579 -0.0593,0.0402 -0.0942,0.0875 -0.10477,0.14428 -0.0134,0.072 0.0691,0.14852 0.24588,0.22825 0.0501,0.0243 0.09,0.0434 0.11571,0.0554 l 0.2794,0.12842 c 0.2854,0.12876 0.48331,0.2928 0.59302,0.49212 0.10936,0.19897 0.13688,0.44732 0.0825,0.7433 -0.0977,0.52952 -0.38417,0.95568 -0.85936,1.27847 -0.4752,0.32314 -1.05552,0.48436 -1.74202,0.48401 -0.36266,-3.5e-4 -0.73025,-0.0649 -1.09855,-0.19544 -0.37042,-0.12982 -0.74189,-0.32632 -1.11619,-0.58702"
         style="fill:#004289;fill-opacity:1;fill-rule:nonzero;stroke:none;stroke-width:0.35277778"
         id="path15153"
         inkscape:connector-curvature="0" />
    </g>
  </g>
</svg>
