<?xml version="1.0" encoding="UTF-8" standalone="no"?>
<svg
   xmlns:dc="http://purl.org/dc/elements/1.1/"
   xmlns:cc="http://creativecommons.org/ns#"
   xmlns:rdf="http://www.w3.org/1999/02/22-rdf-syntax-ns#"
   xmlns:svg="http://www.w3.org/2000/svg"
   xmlns="http://www.w3.org/2000/svg"
   version="1.1"
   id="Layer_1"
   x="0px"
   y="0px"
   viewBox="0 0 500 80.000005"
   xml:space="preserve"
   width="500"
   height="80"><metadata
     id="metadata31"><rdf:RDF><cc:Work
         rdf:about=""><dc:format>image/svg+xml</dc:format><dc:type
           rdf:resource="http://purl.org/dc/dcmitype/StillImage" /><dc:title></dc:title><cc:license
           rdf:resource="http://scripts.sil.org/OFL" /></cc:Work><cc:License
         rdf:about="http://scripts.sil.org/OFL"><cc:permits
           rdf:resource="http://scripts.sil.org/pub/OFL/Reproduction" /><cc:permits
           rdf:resource="http://scripts.sil.org/pub/OFL/Distribution" /><cc:permits
           rdf:resource="http://scripts.sil.org/pub/OFL/Embedding" /><cc:permits
           rdf:resource="http://scripts.sil.org/pub/OFL/DerivativeWorks" /><cc:requires
           rdf:resource="http://scripts.sil.org/pub/OFL/Notice" /><cc:requires
           rdf:resource="http://scripts.sil.org/pub/OFL/Attribution" /><cc:requires
           rdf:resource="http://scripts.sil.org/pub/OFL/ShareAlike" /><cc:requires
           rdf:resource="http://scripts.sil.org/pub/OFL/DerivativeRenaming" /><cc:requires
           rdf:resource="http://scripts.sil.org/pub/OFL/BundlingWhenSelling" /></cc:License></rdf:RDF></metadata><defs
     id="defs29" /><path
     id="path1596"
     style="font-style:normal;font-variant:normal;font-weight:normal;font-stretch:normal;font-size:22.965px;line-height:1.25;font-family:'Futura Extra';-inkscape-font-specification:'Futura Extra';fill:#e20025;fill-opacity:1;stroke-width:1.37666"
     d="M 80.710051,2.2331389 C 74.607219,2.2057794 68.195091,2.6363615 61.76141,3.24942 60.146208,3.403338 58.7456,4.3320256 57.115574,5.4224722 c -1.940865,1.2983882 -3.970267,2.7157577 -4.570902,5.1703658 -0.482,1.969714 0.94013,2.293928 2.098119,2.023186 0.712751,-0.166626 2.017458,-0.374856 2.96453,-0.416818 9.623692,-0.42653 18.876372,1.238801 26.858738,4.16346 2.959907,1.084476 3.901653,3.19341 3.072246,5.470097 -4.816112,13.220094 -12.792344,23.28102 -22.287835,35.682081 -0.824746,1.077114 -2.28619,2.100373 -3.414127,2.233933 -8.781356,1.039948 -17.987604,0.417682 -26.45129,-4.046373 -2.329896,-1.228874 -2.60673,-4.331717 -1.198926,-7.118619 2.606476,-5.159815 5.033847,-10.103488 9.441537,-14.686836 2.840962,-2.954176 5.516997,-3.061288 8.617276,-2.322917 4.675788,1.113585 9.377177,2.546757 8.917008,6.369291 -0.229739,1.908449 -0.796775,2.352315 -1.198926,3.147179 -0.41367,0.817619 -0.993374,1.661207 -1.873321,2.772514 -0.709418,0.895933 0.09464,1.847904 1.348791,2.173053 1.987538,0.515274 3.053016,0.09711 4.121306,0 1.614514,-0.146965 2.450901,-1.228563 3.297045,-2.847448 2.435221,-4.659192 5.026933,-8.93595 5.694895,-13.113246 0.342507,-2.141952 1.341823,-5.531122 -4.196238,-5.694895 L 40.480485,23.556218 c -3.086664,-0.09126 -5.845483,1.723168 -8.017813,3.521844 -13.003383,10.766757 -21.398034,24.191652 -28.9990069,38.065879 -1.8663568,3.406699 0.012924,4.519517 3.147179,4.945567 8.6519419,1.17605 17.3801849,2.609509 25.8518279,2.322918 9.396347,-0.317883 11.202468,0.8844 31.172059,-2.098119 4.594929,-0.686265 8.044154,-3.44914 10.640463,-6.743955 13.263193,-16.831473 28.232716,-32.895275 34.768836,-51.179126 0.6888,-1.926817 1.2364,-3.346081 -1.72346,-4.9455673 C 100.19431,3.5946865 90.881439,2.2787221 80.710051,2.2331389 Z m 64.774749,2.674179 c -3.88192,0.046518 -8.27591,0.3273306 -12.61213,3.4937404 -25.1558,18.3692867 -28.85402,34.1728257 -38.253212,51.0807667 -2.356428,4.23892 -2.341129,8.457339 5.718312,8.687533 19.06584,0.544575 37.54999,-0.756666 55.52991,-2.753788 1.95731,-0.217413 3.17104,-0.838768 4.34611,-1.9061 2.14608,-1.949332 4.80597,-3.951634 4.97835,-6.889144 0.0711,-1.212306 0.48858,-2.747074 -2.75378,-2.543017 -12.69181,0.798844 -26.01472,1.896796 -38.15018,-2.224582 -8.8031,-2.989664 -5.22293,-6.6807 -4.34611,-9.539873 2.61184,-8.51683 9.91855,-21.619046 18.12438,-29.354944 1.57378,-1.483646 2.80322,-3.2819384 5.61528,-3.2829935 8.91821,-0.00338 16.75825,1.4244915 23.10273,4.6598875 1.22366,0.624016 3.80429,0.625983 1.58764,6.570662 l -2.33228,6.252204 c -1.77471,4.759422 -4.10003,10.576368 -9.64292,9.642933 -4.82493,-0.812536 -10.51909,-2.667058 -7.83985,-8.476786 0.54944,-1.191396 1.73912,-2.524002 1.48461,-4.130682 -0.17486,-1.103778 -0.54372,-1.237051 -0.84768,-1.695352 -0.3707,-0.558867 -1.432,-0.91454 -2.54303,-0.529206 -1.05866,0.367183 -1.56058,0.947775 -2.75847,2.43533 -2.85611,3.546732 -5.73022,7.002443 -7.41835,11.127513 -1.48583,3.630706 1.48628,6.013019 4.55685,6.570687 10.78946,1.959404 18.78397,1.807739 26.91962,0.9507 2.87843,-0.303233 5.05859,-2.324429 7.73682,-5.826034 5.89126,-7.702448 9.99085,-15.321403 13.77359,-22.995005 2.18467,-4.4317796 -0.30289,-5.1413755 -3.28299,-5.8307097 -13.55298,-3.134926 -27.1204,-3.6563147 -40.69322,-3.4937404 z m 56.86934,17.4265481 -20.90626,44.046479 h 15.05682 l 2.05128,-5.493524 h 10.7435 l 0.38871,5.493524 h 15.05682 l -6.65966,-44.046479 z m 32.75502,0 -7.30127,44.046479 h 14.22319 l 7.30594,-44.046479 z m 20.81728,0 -7.30127,44.046479 h 13.90941 l 2.34632,-14.138902 h 0.2576 l 3.88713,14.138902 h 16.40562 l -6.1445,-14.312195 c -0.56551,-1.285056 -1.32807,-1.984773 -1.94825,-2.627325 l 0.0561,-0.351237 c 5.62449,-1.98602 8.37452,-4.791649 9.47901,-11.450673 1.84086,-11.09838 -4.93911,-15.305049 -13.76421,-15.305049 z m 58.19471,0 -2.37443,14.312171 7.91008,-0.407442 -5.00175,30.14175 h 14.22319 l 5.00175,-30.14175 7.76961,0.407442 2.37442,-14.312171 z m 39.55986,0 -20.90626,44.046479 h 15.05212 l 2.05129,-5.493524 h 10.74817 l 0.38872,5.493524 h 15.05215 l -6.65967,-44.046479 z m 32.65196,0 -7.30594,44.046479 h 13.70333 l 2.53837,-15.305049 h 8.72499 l -2.53834,15.305049 h 13.70333 l 7.30594,-44.046479 h -13.70801 l -2.45873,14.836701 h -8.72031 l 2.45873,-14.836701 z m 42.61806,0 -7.30594,44.046479 h 14.22786 l 7.30126,-44.046479 z m 18.11969,0 -2.37442,14.312171 7.9054,-0.407442 -4.99707,30.14175 h 14.22318 l 4.99708,-30.14175 7.77428,0.407442 2.36975,-14.312171 z m 33.7432,0 -7.30596,44.046479 h 14.22319 l 7.30596,-44.046479 z M 267.84543,34.369973 h 1.09122 c 2.43988,0 4.50059,0.405549 3.93866,3.793472 -0.54256,3.2711 -2.94672,3.681061 -5.28278,3.681061 h -0.98818 z m -60.18979,2.627326 h 0.51985 c -0.0505,1.869196 -0.11004,3.797596 -0.005,5.666792 l 0.37466,7.769588 h -5.71363 z m 151.32687,0 h 0.51983 c -0.0506,1.869196 -0.1103,3.797596 -0.005,5.666792 l 0.36999,7.769588 h -5.70894 z" /></svg>
